<?xml version="1.0" encoding="UTF-8" standalone="no"?>
<svg
   inkscape:version="1.1 (c68e22c387, 2021-05-23)"
   sodipodi:docname="star-brd.svg"
   id="svg2756"
   viewBox="0 0 116930 82680"
   height="21.000720cm"
   width="29.700220cm"
   version="1.1"
   xmlns:inkscape="http://www.inkscape.org/namespaces/inkscape"
   xmlns:sodipodi="http://sodipodi.sourceforge.net/DTD/sodipodi-0.dtd"
   xmlns="http://www.w3.org/2000/svg"
   xmlns:svg="http://www.w3.org/2000/svg"
   xmlns:rdf="http://www.w3.org/1999/02/22-rdf-syntax-ns#"
   xmlns:cc="http://creativecommons.org/ns#"
   xmlns:dc="http://purl.org/dc/elements/1.1/">
  <defs
     id="defs2760" />
  <sodipodi:namedview
     id="namedview2758"
     pagecolor="#ffffff"
     bordercolor="#999999"
     borderopacity="1"
     inkscape:pageshadow="0"
     inkscape:pageopacity="0"
     inkscape:pagecheckerboard="0"
     inkscape:document-units="cm"
     showgrid="false"
     inkscape:zoom="2.3661452"
     inkscape:cx="10.14308"
     inkscape:cy="189.54881"
     inkscape:window-width="1834"
     inkscape:window-height="1057"
     inkscape:window-x="-8"
     inkscape:window-y="-8"
     inkscape:window-maximized="1"
     inkscape:current-layer="svg2756" />
  <title
     id="title2">SVG Picture created as star-brd.svg date 2021/09/07 16:50:47 </title>
  <desc
     id="desc4">Picture generated by PCBNEW </desc>
  <g
     id="g4792"
     inkscape:label="pads"
     transform="translate(-28562.315,-23562.315)">
    <circle
       cx="41582.699"
       cy="36220.5"
       r="334.646"
       id="circle632"
       style="fill:#008400;fill-opacity:1;stroke:#008400;stroke-width:0;stroke-linecap:round;stroke-linejoin:round;stroke-opacity:1" />
    <path
       style="fill:#008400;fill-opacity:1;fill-rule:evenodd;stroke:#008400;stroke-width:0;stroke-linecap:round;stroke-linejoin:round;stroke-opacity:1"
       d="m 35248,36555.1 v -669.3 h 669.3 v 669.3 z"
       id="path638" />
    <circle
       cx="36582.699"
       cy="36220.5"
       r="334.646"
       id="circle640"
       style="fill:#008400;fill-opacity:1;stroke:#008400;stroke-width:0;stroke-linecap:round;stroke-linejoin:round;stroke-opacity:1" />
    <circle
       cx="37582.699"
       cy="36220.5"
       r="334.646"
       id="circle646"
       style="fill:#008400;fill-opacity:1;stroke:#008400;stroke-width:0;stroke-linecap:round;stroke-linejoin:round;stroke-opacity:1" />
    <circle
       cx="38582.699"
       cy="36220.5"
       r="334.646"
       id="circle652"
       style="fill:#008400;fill-opacity:1;stroke:#008400;stroke-width:0;stroke-linecap:round;stroke-linejoin:round;stroke-opacity:1" />
    <circle
       cx="39582.699"
       cy="36220.5"
       r="334.646"
       id="circle658"
       style="fill:#008400;fill-opacity:1;stroke:#008400;stroke-width:0;stroke-linecap:round;stroke-linejoin:round;stroke-opacity:1" />
    <circle
       cx="40582.699"
       cy="36220.5"
       r="334.646"
       id="circle664"
       style="fill:#008400;fill-opacity:1;stroke:#008400;stroke-width:0;stroke-linecap:round;stroke-linejoin:round;stroke-opacity:1" />
  </g>
  <g
     style="display:inline;fill:#c2c200;fill-opacity:0;stroke:#c2c200;stroke-width:39.3701;stroke-linecap:round;stroke-linejoin:round;stroke-opacity:1"
     id="g2754"
     inkscape:label="edge"
     transform="translate(-28562.315,-23562.315)">
    <path
       id="path2678"
       d="m 35393,27992 2205,-4410 m 1929,0 2087,4331 m 1535,1142 4803,669 m 591,1890 -3543,3425 m -1300,7598 -4173,-2204 m 4961,-3819 826,4882 m -13582,-79 866,-4803 m -512,-1614 -3504,-3426 m 591,-1889 4882,-709 m 3425,11457 -4173,2165 m 4291,-19016 h 1929 m -10354,6103 -591,1889 m 19370,-1850 591,1890 m -3229,9882 -1614,1141 m -11968,-1220 1575,1181 m 6220,-2165 h -2047 m 4134,-12520 1535,1142 m -7756,-1063 -1338,984 m -1969,6024 512,1614 m 12402,-1575 -512,1575"
       style="display:inline"
       sodipodi:nodetypes="cccccccccccccccccccccccccccccccccccccccc" />
  </g>
  <metadata
     id="metadata3577">
    <rdf:RDF>
      <cc:Work
         rdf:about="">
        <dc:title>SVG Picture created as star-brd.svg date 2021/09/07 16:50:47 </dc:title>
      </cc:Work>
    </rdf:RDF>
  </metadata>
</svg>
