<?xml version="1.0" encoding="UTF-8" standalone="no"?>
<!-- Created with Inkscape (http://www.inkscape.org/) -->

<svg
   width="60mm"
   height="60mm"
   viewBox="0 0 60 60"
   version="1.1"
   id="svg5"
   sodipodi:docname="star template.svg"
   inkscape:version="1.1 (c68e22c387, 2021-05-23)"
   xmlns:inkscape="http://www.inkscape.org/namespaces/inkscape"
   xmlns:sodipodi="http://sodipodi.sourceforge.net/DTD/sodipodi-0.dtd"
   xmlns="http://www.w3.org/2000/svg"
   xmlns:svg="http://www.w3.org/2000/svg">
  <sodipodi:namedview
     id="namedview7"
     pagecolor="#ffffff"
     bordercolor="#990099"
     borderopacity="1"
     inkscape:pageshadow="0"
     inkscape:pageopacity="0"
     inkscape:pagecheckerboard="0"
     inkscape:document-units="mm"
     showgrid="true"
     inkscape:zoom="5.12"
     inkscape:cx="99.218751"
     inkscape:cy="81.738282"
     inkscape:window-width="1834"
     inkscape:window-height="1057"
     inkscape:window-x="-8"
     inkscape:window-y="-8"
     inkscape:window-maximized="1"
     inkscape:current-layer="g1032"
     inkscape:lockguides="true"
     showguides="true"
     borderlayer="true"
     inkscape:snap-global="false">
    <inkscape:grid
       type="xygrid"
       id="grid864" />
  </sodipodi:namedview>
  <defs
     id="defs2">
    <clipPath
       clipPathUnits="userSpaceOnUse"
       id="clipPath988">
      <path
         d="M 0,131.582 H 271.582 V 0 H 0 Z"
         id="path986" />
    </clipPath>
    <clipPath
       clipPathUnits="userSpaceOnUse"
       id="clipPath1020">
      <path
         d="M 0,131.582 H 271.582 V 0 H 0 Z"
         id="path1018" />
    </clipPath>
    <clipPath
       clipPathUnits="userSpaceOnUse"
       id="clipPath1036">
      <path
         d="M 0,131.582 H 271.582 V 0 H 0 Z"
         id="path1034" />
    </clipPath>
  </defs>
  <g
     inkscape:label="[fixed] BG"
     inkscape:groupmode="layer"
     id="g832"
     sodipodi:insensitive="true">
    <rect
       x="0"
       y="0"
       width="50"
       height="50"
       style="fill:#ffffff;fill-opacity:1;stroke:none"
       id="rect830" />
  </g>
  <g
     inkscape:label="Edge.Cuts"
     inkscape:groupmode="layer"
     id="g834"
     style="display:inline">
    <path
       sodipodi:type="star"
       style="fill:none;stroke:#000000;stroke-width:3.77953;stroke-linecap:round;stroke-linejoin:round"
       id="path888"
       inkscape:flatsided="false"
       sodipodi:sides="5"
       sodipodi:cx="94.48819"
       sodipodi:cy="86.929131"
       sodipodi:r1="103.98853"
       sodipodi:r2="51.994267"
       sodipodi:arg1="-0.3332443"
       sodipodi:arg2="0.29507423"
       inkscape:rounded="0"
       inkscape:randomized="0"
       d="M 192.75591,52.913383 144.23529,102.04963 157.20548,169.87584 95.480442,138.91393 34.981893,172.20876 45.354332,103.937 -5.0060169,56.688134 63.129543,45.455777 92.503685,-17.040465 124.24134,44.289315 Z"
       transform="matrix(0.29758485,0.00640727,-0.00640727,0.29758485,2.4109663,6.2186499)"
       inkscape:transform-center-x="-0.02336396"
       inkscape:transform-center-y="-2.9334802" />
  </g>
  <g
     inkscape:label="F.SilkS"
     inkscape:groupmode="layer"
     id="g836">
    <g
       id="g976"
       inkscape:label="Klushok-logo"
       transform="matrix(0.1244082,0,0,-0.1244082,12.839995,37.774245)">
      <g
         id="g978"
         transform="translate(43.2358,29.1177)">
        <path
           d="m 0,0 -3.294,-0.556 0.005,-1.479 2.824,-0.457 0.459,-0.077 v 0.003 l 0.015,-0.003 z"
           style="fill:#000000;fill-opacity:1;fill-rule:nonzero;stroke:none"
           id="path980" />
      </g>
      <g
         id="g982">
        <g
           id="g984"
           clip-path="url(#clipPath988)">
          <g
             id="g990"
             transform="translate(94.4009,28.2598)">
            <path
               d="m 0,0 c 0.134,0 0.243,-0.106 0.244,-0.242 0,-0.133 -0.109,-0.24 -0.243,-0.242 -0.131,0 -0.242,0.109 -0.243,0.241 C -0.242,-0.107 -0.132,0 0,0 m 0.004,-1.218 c 0.54,10e-4 0.976,0.442 0.975,0.98 -0.002,0.541 -0.441,0.976 -0.982,0.974 -0.538,-0.003 -0.975,-0.44 -0.974,-0.98 0.002,-0.539 0.443,-0.976 0.981,-0.974"
               style="fill:#000000;fill-opacity:1;fill-rule:nonzero;stroke:none"
               id="path992" />
          </g>
          <g
             id="g994"
             transform="translate(83.7163,27.3696)">
            <path
               d="M 0,0 C 0.336,0.003 0.609,0.277 0.608,0.613 0.606,0.95 0.332,1.222 -0.003,1.222 -0.342,1.218 -0.613,0.946 -0.612,0.608 -0.61,0.272 -0.338,-0.001 0,0"
               style="fill:#000000;fill-opacity:1;fill-rule:nonzero;stroke:none"
               id="path996" />
          </g>
          <g
             id="g998"
             transform="translate(79.0142,27.3535)">
            <path
               d="M 0,0 C 0.336,0 0.609,0.275 0.607,0.612 0.606,0.95 0.332,1.221 -0.005,1.219 -0.343,1.219 -0.614,0.944 -0.613,0.606 -0.611,0.271 -0.338,-0.001 0,0"
               style="fill:#000000;fill-opacity:1;fill-rule:nonzero;stroke:none"
               id="path1000" />
          </g>
          <g
             id="g1002"
             transform="translate(74.3071,28.5562)">
            <path
               d="M 0,0 C -0.338,-0.001 -0.611,-0.274 -0.609,-0.611 -0.608,-0.948 -0.334,-1.22 0.004,-1.22 0.34,-1.218 0.613,-0.945 0.612,-0.608 0.61,-0.271 0.336,0.002 0,0"
               style="fill:#000000;fill-opacity:1;fill-rule:nonzero;stroke:none"
               id="path1004" />
          </g>
          <g
             id="g1006"
             transform="translate(72.5742,26.2266)">
            <path
               d="M 0,0 C 0.232,1.068 0.232,2.173 0.019,3.243 0.008,3.306 0.002,3.369 -0.01,3.431 L 2.026,3.438 3.75,3.431 C 3.583,3.324 3.472,3.139 3.472,2.923 3.473,2.587 3.746,2.316 4.083,2.316 4.42,2.317 4.692,2.591 4.692,2.926 4.691,3.005 4.661,3.07 4.635,3.138 4.632,3.145 4.632,3.152 4.63,3.157 4.602,3.223 4.564,3.274 4.517,3.324 4.511,3.332 4.509,3.338 4.503,3.345 4.486,3.361 4.469,3.378 4.452,3.395 4.437,3.409 4.421,3.427 4.408,3.447 L 6.588,3.455 8.453,3.448 C 8.286,3.343 8.174,3.156 8.175,2.94 8.176,2.603 8.449,2.332 8.786,2.333 9.123,2.334 9.396,2.608 9.395,2.945 9.394,3.021 9.364,3.088 9.337,3.156 9.335,3.162 9.335,3.168 9.332,3.175 9.305,3.238 9.267,3.292 9.22,3.343 9.214,3.348 9.211,3.357 9.206,3.362 9.19,3.378 9.172,3.394 9.153,3.411 9.139,3.427 9.125,3.444 9.11,3.464 l 14.11,0.051 c 0.201,0 0.363,-0.16 0.364,-0.36 l 0.001,-0.174 10e-4,-0.368 0.006,-1.628 0.001,-0.368 0.002,-0.174 c 0,-0.199 -0.161,-0.361 -0.363,-0.362 L 9.114,0.031 C 9.288,0.137 9.404,0.33 9.403,0.548 9.402,0.886 9.126,1.159 8.791,1.158 8.454,1.155 8.182,0.881 8.183,0.545 8.184,0.465 8.214,0.392 8.243,0.322 8.244,0.321 8.244,0.318 8.244,0.316 8.273,0.249 8.312,0.197 8.361,0.144 8.366,0.138 8.368,0.129 8.374,0.125 8.388,0.111 8.402,0.099 8.417,0.085 8.432,0.069 8.447,0.049 8.461,0.028 L 6.283,0.019 4.424,0.025 C 4.59,0.135 4.701,0.319 4.701,0.533 4.699,0.87 4.424,1.141 4.089,1.14 3.75,1.139 3.479,0.864 3.48,0.527 c 0,-0.079 0.032,-0.15 0.061,-0.222 0,-0.001 0,-0.002 10e-4,-0.006 C 3.57,0.234 3.61,0.179 3.659,0.128 3.664,0.123 3.666,0.113 3.671,0.106 3.685,0.095 3.7,0.081 3.714,0.067 3.729,0.052 3.745,0.032 3.759,0.012 L 0.659,0 Z m -5.653,-0.496 c 0.076,-0.075 0.122,-0.178 0.122,-0.29 l 0.006,-1.49 -0.823,-0.004 -0.006,1.491 c 0,0.227 0.183,0.414 0.41,0.415 0.114,0 0.217,-0.045 0.291,-0.122 m 2.462,-0.13 c 0.019,-0.048 0.03,-0.097 0.03,-0.151 l 0.004,-0.89 0.002,-0.6 -0.823,-0.005 -0.006,1.493 c 0,0.226 0.182,0.411 0.41,0.413 0.115,0 0.217,-0.045 0.29,-0.12 0.042,-0.041 0.073,-0.088 0.093,-0.14 m -0.398,4.392 c -0.114,0 -0.217,0.046 -0.29,0.122 -0.076,0.074 -0.122,0.177 -0.123,0.29 l -0.006,1.489 0.824,0.004 0.002,-0.599 0.003,-0.89 C -3.179,4.127 -3.188,4.078 -3.208,4.031 -3.266,3.876 -3.415,3.768 -3.589,3.766 m -1.965,1.897 0.005,-1.489 c 0.002,-0.229 -0.182,-0.415 -0.409,-0.416 -0.114,0 -0.217,0.045 -0.292,0.119 -0.075,0.077 -0.121,0.179 -0.121,0.293 l -0.005,1.49 z m -23.19,-5.951 c 0.003,-0.702 0.576,-1.274 1.278,-1.273 l 18.218,0.068 0.713,-1.896 2.191,0.008 0.823,0.002 1.547,0.005 0.823,0.005 2.029,0.007 0.606,1.705 23.755,0.085 c 1.112,0.005 2.012,0.912 2.009,2.02 l -0.001,0.174 3.995,0.015 4.08,0.732 c 0.113,0.021 0.212,0.079 0.28,0.164 0.069,0.081 0.11,0.189 0.11,0.302 0,0.23 -0.165,0.425 -0.39,0.464 L 29.297,2.995 25.238,2.984 25.237,3.161 C 25.233,4.272 24.326,5.172 23.214,5.168 L -0.54,5.082 -1.159,6.781 -3.188,6.774 -4.011,6.771 -5.558,6.765 -6.38,6.761 -8.572,6.753 -9.271,4.852 -27.49,4.786 c -0.701,-0.003 -1.27,-0.575 -1.268,-1.28 z"
               style="fill:#000000;fill-opacity:1;fill-rule:nonzero;stroke:none"
               id="path1008" />
          </g>
        </g>
      </g>
      <text
         transform="scale(1,-1)"
         style="font-variant:normal;font-weight:normal;font-stretch:normal;font-size:57.7941px;font-family:Bebas;-inkscape-font-specification:Bebas;writing-mode:lr-tb;fill:#000000;fill-opacity:1;fill-rule:nonzero;stroke:none;stroke-width:0.947249"
         id="text1012"
         x="28.407951"
         y="-54.773239"><tspan
           sodipodi:role="line"
           id="tspan1010"
           y="-54.773239"
           x="28.407951 62.026798 88.502289 119.49151 151.56725 183.29622 214.69577"
           style="stroke-width:0.947249">KLUSHOK</tspan></text>
      <g
         id="g1014">
        <g
           id="g1016"
           clip-path="url(#clipPath1020)">
          <g
             id="g1022"
             transform="translate(146.5259,30.2144)">
            <path
               d="m 0,0 c -0.004,-0.019 -0.009,-0.038 -0.014,-0.058 l 0.025,0.001 c 0.047,-6.007 -4.803,-10.932 -10.81,-10.979 -5.999,-0.046 -10.919,4.966 -10.979,10.962 l -13.238,-0.046 0.041,-5.334 6.619,0.051 c 0.386,-1.286 0.916,-2.526 1.58,-3.701 l -4.114,-4.178 -0.54,-0.547 6.942,-6.835 0.548,-0.539 0.539,0.548 4.205,4.269 c 1.098,-0.563 2.255,-1.014 3.45,-1.343 l 0.052,-6.71 10.509,0.081 -0.052,6.861 c 1.063,0.347 2.096,0.792 3.083,1.332 l 4.36,-4.292 0.548,-0.54 0.539,0.548 6.296,6.393 0.539,0.547 -4.892,4.818 c 0.563,1.057 1.019,2.164 1.361,3.301 l 6.179,0.048 0.77,0.006 -0.042,5.383 z"
               style="fill:#000000;fill-opacity:1;fill-rule:nonzero;stroke:none"
               id="path1024" />
          </g>
        </g>
      </g>
      <text
         transform="scale(1,-1)"
         style="font-variant:normal;font-weight:normal;font-stretch:normal;font-size:15.081px;font-family:Bebas;-inkscape-font-specification:Bebas;writing-mode:lr-tb;fill:#000000;fill-opacity:1;fill-rule:nonzero;stroke:none;stroke-width:1.2359"
         id="text1028"
         x="34.804844"
         y="-36.531658"><tspan
           sodipodi:role="line"
           id="tspan1026"
           style="stroke-width:1.2359"
           y="-36.531658"
           x="34.804844 41.953247 48.860355 56.008755 63.820724 71.766914 79.955902 87.767868 95.715569 102.86397 110.93986 119.24045 128.03418 131.75015 140.09448 148.17036 156.47096 163.61935 165.00681 174.32538 181.47377 190.00058 197.14899 204.29739 213.09113 216.90361 225.076 228.91112 237.67168">electrotechnische vereeniging</tspan></text>
      <g
         id="g1030">
        <g
           id="g1032"
           clip-path="url(#clipPath1036)">
          <g
             id="g1038"
             transform="translate(35.5127,27.9224)">
            <path
               d="M 0,0 H -19.924 V 90.65 H 224.694 V 0 h -17.617"
               style="fill:none;stroke:#000000;stroke-width:6.4304443;stroke-linecap:butt;stroke-linejoin:miter;stroke-miterlimit:10;stroke-dasharray:none;stroke-opacity:1"
               id="path1040" />
          </g>
          <g
             id="g1042"
             transform="translate(228.6479,29.7124)">
            <path
               d="m 0,0 -17.78,-0.005 c -0.498,0 -0.901,0.323 -0.901,0.721 0,0.4 0.406,0.722 0.901,0.723 L 0.002,1.441 C 0.251,1.441 0.477,1.361 0.639,1.23 0.8,1.099 0.903,0.919 0.903,0.721 0.903,0.322 0.501,0 0,0 m 0,-2.524 -17.783,-0.005 c -0.497,0 -0.898,0.322 -0.898,0.721 -0.003,0.398 0.403,0.721 0.898,0.721 L 0,-1.082 c 0.248,-10e-4 0.474,-0.081 0.636,-0.212 0.164,-0.13 0.262,-0.311 0.262,-0.51 0,-0.399 -0.399,-0.72 -0.898,-0.72 m 0,-2.885 -17.783,-0.004 c -0.497,0 -0.901,0.323 -0.901,0.72 0.003,0.401 0.406,0.722 0.901,0.722 L 0,-3.967 c 0.248,0 0.472,-0.081 0.636,-0.212 0.162,-0.131 0.262,-0.31 0.262,-0.509 0,-0.4 -0.401,-0.721 -0.898,-0.721 M 5.933,2.549 C 5.45,2.938 4.91,3.268 4.331,3.535 3.306,4.007 -15.944,3.854 -19.981,3.679 -20.222,3.61 -20.763,3.393 -20.777,3.332 c -0.166,-0.659 -0.888,-1.156 -1.756,-1.156 -0.959,-0.003 -1.799,0.668 -1.799,1.44 0,0.399 -0.4,0.722 -0.896,0.722 l -3.85,-0.001 c -0.498,0 -0.904,-0.323 -0.904,-0.722 l -0.001,-3.772 c 0,0 -22.4,-0.457 -22.528,-0.239 -0.191,0.327 -0.456,0.629 -0.785,0.892 -0.763,0.612 -1.78,0.951 -2.854,0.951 -0.284,0.003 -0.573,-0.025 -0.884,-0.082 l -6.429,-0.644 c -0.451,-0.047 -0.789,-0.352 -0.788,-0.716 l -0.002,-3.606 c 0.001,-0.364 0.339,-0.67 0.788,-0.713 l 6.431,-0.644 c 0.306,-0.056 0.592,-0.082 0.875,-0.082 1.442,0 2.707,0.608 3.42,1.521 0.24,0.304 22.756,0.112 22.756,0.112 v -3.791 c 0,-0.382 0.42,-0.72 0.898,-0.72 l 3.851,0.001 c 0.497,0 0.902,0.322 0.902,0.72 0,0.796 0.805,1.443 1.797,1.443 0.962,0 1.797,-0.673 1.797,-1.443 0,-0.061 0.009,-0.12 0.027,-0.178 0.041,-0.124 23.711,-0.294 24.797,0.167 0.219,0.092 1.471,0.793 1.845,1.092 1.445,1.158 2.239,2.694 2.239,4.333 0,1.637 -0.794,3.176 -2.237,4.332"
               style="fill:#000000;fill-opacity:1;fill-rule:nonzero;stroke:none"
               id="path1044" />
          </g>
        </g>
      </g>
    </g>
  </g>
  <g
     inkscape:label="Dwgs.User"
     inkscape:groupmode="layer"
     id="g838" />
</svg>
