%TF.GenerationSoftware,KiCad,Pcbnew,(5.1.9)-1*%
%TF.CreationDate,2021-09-09T22:45:53+02:00*%
%TF.ProjectId,programmer,70726f67-7261-46d6-9d65-722e6b696361,rev?*%
%TF.SameCoordinates,PX1c9c380PY4c4b400*%
%TF.FileFunction,Soldermask,Top*%
%TF.FilePolarity,Negative*%
%FSLAX46Y46*%
G04 Gerber Fmt 4.6, Leading zero omitted, Abs format (unit mm)*
G04 Created by KiCad (PCBNEW (5.1.9)-1) date 2021-09-09 22:45:53*
%MOMM*%
%LPD*%
G01*
G04 APERTURE LIST*
%ADD10O,3.000000X1.700000*%
%ADD11R,3.000000X1.700000*%
%ADD12O,1.700000X1.700000*%
%ADD13R,1.700000X1.700000*%
%ADD14R,1.450000X0.600000*%
%ADD15R,1.450000X0.300000*%
%ADD16O,2.100000X1.000000*%
%ADD17C,0.650000*%
%ADD18O,1.600000X1.000000*%
%ADD19C,3.200000*%
%ADD20C,1.500000*%
%ADD21R,2.000000X1.500000*%
%ADD22R,2.000000X3.800000*%
%ADD23R,0.900000X0.800000*%
G04 APERTURE END LIST*
D10*
%TO.C,J2*%
X17400000Y17380000D03*
X17400000Y22460000D03*
X17400000Y27540000D03*
D11*
X17400000Y32620000D03*
D10*
X17400000Y30080000D03*
X17400000Y25000000D03*
X17400000Y19920000D03*
%TD*%
D12*
%TO.C,J3*%
X34540000Y37000000D03*
X32000000Y37000000D03*
X29460000Y37000000D03*
D13*
X26920000Y37000000D03*
%TD*%
%TO.C,R6*%
G36*
G01*
X12100000Y23150002D02*
X12100000Y22249998D01*
G75*
G02*
X11850002Y22000000I-249998J0D01*
G01*
X11324998Y22000000D01*
G75*
G02*
X11075000Y22249998I0J249998D01*
G01*
X11075000Y23150002D01*
G75*
G02*
X11324998Y23400000I249998J0D01*
G01*
X11850002Y23400000D01*
G75*
G02*
X12100000Y23150002I0J-249998D01*
G01*
G37*
G36*
G01*
X13925000Y23150002D02*
X13925000Y22249998D01*
G75*
G02*
X13675002Y22000000I-249998J0D01*
G01*
X13149998Y22000000D01*
G75*
G02*
X12900000Y22249998I0J249998D01*
G01*
X12900000Y23150002D01*
G75*
G02*
X13149998Y23400000I249998J0D01*
G01*
X13675002Y23400000D01*
G75*
G02*
X13925000Y23150002I0J-249998D01*
G01*
G37*
%TD*%
%TO.C,R5*%
G36*
G01*
X12100000Y25400002D02*
X12100000Y24499998D01*
G75*
G02*
X11850002Y24250000I-249998J0D01*
G01*
X11324998Y24250000D01*
G75*
G02*
X11075000Y24499998I0J249998D01*
G01*
X11075000Y25400002D01*
G75*
G02*
X11324998Y25650000I249998J0D01*
G01*
X11850002Y25650000D01*
G75*
G02*
X12100000Y25400002I0J-249998D01*
G01*
G37*
G36*
G01*
X13925000Y25400002D02*
X13925000Y24499998D01*
G75*
G02*
X13675002Y24250000I-249998J0D01*
G01*
X13149998Y24250000D01*
G75*
G02*
X12900000Y24499998I0J249998D01*
G01*
X12900000Y25400002D01*
G75*
G02*
X13149998Y25650000I249998J0D01*
G01*
X13675002Y25650000D01*
G75*
G02*
X13925000Y25400002I0J-249998D01*
G01*
G37*
%TD*%
D14*
%TO.C,J1*%
X6795000Y21750000D03*
X6795000Y22550000D03*
X6795000Y27450000D03*
X6795000Y28250000D03*
X6795000Y28250000D03*
X6795000Y27450000D03*
X6795000Y22550000D03*
X6795000Y21750000D03*
D15*
X6795000Y26750000D03*
X6795000Y26250000D03*
X6795000Y25750000D03*
X6795000Y24750000D03*
X6795000Y24250000D03*
X6795000Y23750000D03*
X6795000Y23250000D03*
X6795000Y25250000D03*
D16*
X5880000Y20680000D03*
X5880000Y29320000D03*
D17*
X5350000Y27890000D03*
D18*
X1700000Y29320000D03*
D17*
X5350000Y22110000D03*
D18*
X1700000Y20680000D03*
%TD*%
D19*
%TO.C,REF\u002A\u002A*%
X45000000Y5000000D03*
%TD*%
%TO.C,REF\u002A\u002A*%
X5000000Y5000000D03*
%TD*%
%TO.C,REF\u002A\u002A*%
X45000000Y45000000D03*
%TD*%
%TO.C,REF\u002A\u002A*%
X5000000Y45000000D03*
%TD*%
D20*
%TO.C,Y1*%
X34100000Y5520000D03*
X34100000Y10400000D03*
%TD*%
%TO.C,U2*%
G36*
G01*
X17805000Y9500000D02*
X17505000Y9500000D01*
G75*
G02*
X17355000Y9650000I0J150000D01*
G01*
X17355000Y11300000D01*
G75*
G02*
X17505000Y11450000I150000J0D01*
G01*
X17805000Y11450000D01*
G75*
G02*
X17955000Y11300000I0J-150000D01*
G01*
X17955000Y9650000D01*
G75*
G02*
X17805000Y9500000I-150000J0D01*
G01*
G37*
G36*
G01*
X19075000Y9500000D02*
X18775000Y9500000D01*
G75*
G02*
X18625000Y9650000I0J150000D01*
G01*
X18625000Y11300000D01*
G75*
G02*
X18775000Y11450000I150000J0D01*
G01*
X19075000Y11450000D01*
G75*
G02*
X19225000Y11300000I0J-150000D01*
G01*
X19225000Y9650000D01*
G75*
G02*
X19075000Y9500000I-150000J0D01*
G01*
G37*
G36*
G01*
X20345000Y9500000D02*
X20045000Y9500000D01*
G75*
G02*
X19895000Y9650000I0J150000D01*
G01*
X19895000Y11300000D01*
G75*
G02*
X20045000Y11450000I150000J0D01*
G01*
X20345000Y11450000D01*
G75*
G02*
X20495000Y11300000I0J-150000D01*
G01*
X20495000Y9650000D01*
G75*
G02*
X20345000Y9500000I-150000J0D01*
G01*
G37*
G36*
G01*
X21615000Y9500000D02*
X21315000Y9500000D01*
G75*
G02*
X21165000Y9650000I0J150000D01*
G01*
X21165000Y11300000D01*
G75*
G02*
X21315000Y11450000I150000J0D01*
G01*
X21615000Y11450000D01*
G75*
G02*
X21765000Y11300000I0J-150000D01*
G01*
X21765000Y9650000D01*
G75*
G02*
X21615000Y9500000I-150000J0D01*
G01*
G37*
G36*
G01*
X22885000Y9500000D02*
X22585000Y9500000D01*
G75*
G02*
X22435000Y9650000I0J150000D01*
G01*
X22435000Y11300000D01*
G75*
G02*
X22585000Y11450000I150000J0D01*
G01*
X22885000Y11450000D01*
G75*
G02*
X23035000Y11300000I0J-150000D01*
G01*
X23035000Y9650000D01*
G75*
G02*
X22885000Y9500000I-150000J0D01*
G01*
G37*
G36*
G01*
X24155000Y9500000D02*
X23855000Y9500000D01*
G75*
G02*
X23705000Y9650000I0J150000D01*
G01*
X23705000Y11300000D01*
G75*
G02*
X23855000Y11450000I150000J0D01*
G01*
X24155000Y11450000D01*
G75*
G02*
X24305000Y11300000I0J-150000D01*
G01*
X24305000Y9650000D01*
G75*
G02*
X24155000Y9500000I-150000J0D01*
G01*
G37*
G36*
G01*
X25425000Y9500000D02*
X25125000Y9500000D01*
G75*
G02*
X24975000Y9650000I0J150000D01*
G01*
X24975000Y11300000D01*
G75*
G02*
X25125000Y11450000I150000J0D01*
G01*
X25425000Y11450000D01*
G75*
G02*
X25575000Y11300000I0J-150000D01*
G01*
X25575000Y9650000D01*
G75*
G02*
X25425000Y9500000I-150000J0D01*
G01*
G37*
G36*
G01*
X26695000Y9500000D02*
X26395000Y9500000D01*
G75*
G02*
X26245000Y9650000I0J150000D01*
G01*
X26245000Y11300000D01*
G75*
G02*
X26395000Y11450000I150000J0D01*
G01*
X26695000Y11450000D01*
G75*
G02*
X26845000Y11300000I0J-150000D01*
G01*
X26845000Y9650000D01*
G75*
G02*
X26695000Y9500000I-150000J0D01*
G01*
G37*
G36*
G01*
X26695000Y4550000D02*
X26395000Y4550000D01*
G75*
G02*
X26245000Y4700000I0J150000D01*
G01*
X26245000Y6350000D01*
G75*
G02*
X26395000Y6500000I150000J0D01*
G01*
X26695000Y6500000D01*
G75*
G02*
X26845000Y6350000I0J-150000D01*
G01*
X26845000Y4700000D01*
G75*
G02*
X26695000Y4550000I-150000J0D01*
G01*
G37*
G36*
G01*
X25425000Y4550000D02*
X25125000Y4550000D01*
G75*
G02*
X24975000Y4700000I0J150000D01*
G01*
X24975000Y6350000D01*
G75*
G02*
X25125000Y6500000I150000J0D01*
G01*
X25425000Y6500000D01*
G75*
G02*
X25575000Y6350000I0J-150000D01*
G01*
X25575000Y4700000D01*
G75*
G02*
X25425000Y4550000I-150000J0D01*
G01*
G37*
G36*
G01*
X24155000Y4550000D02*
X23855000Y4550000D01*
G75*
G02*
X23705000Y4700000I0J150000D01*
G01*
X23705000Y6350000D01*
G75*
G02*
X23855000Y6500000I150000J0D01*
G01*
X24155000Y6500000D01*
G75*
G02*
X24305000Y6350000I0J-150000D01*
G01*
X24305000Y4700000D01*
G75*
G02*
X24155000Y4550000I-150000J0D01*
G01*
G37*
G36*
G01*
X22885000Y4550000D02*
X22585000Y4550000D01*
G75*
G02*
X22435000Y4700000I0J150000D01*
G01*
X22435000Y6350000D01*
G75*
G02*
X22585000Y6500000I150000J0D01*
G01*
X22885000Y6500000D01*
G75*
G02*
X23035000Y6350000I0J-150000D01*
G01*
X23035000Y4700000D01*
G75*
G02*
X22885000Y4550000I-150000J0D01*
G01*
G37*
G36*
G01*
X21615000Y4550000D02*
X21315000Y4550000D01*
G75*
G02*
X21165000Y4700000I0J150000D01*
G01*
X21165000Y6350000D01*
G75*
G02*
X21315000Y6500000I150000J0D01*
G01*
X21615000Y6500000D01*
G75*
G02*
X21765000Y6350000I0J-150000D01*
G01*
X21765000Y4700000D01*
G75*
G02*
X21615000Y4550000I-150000J0D01*
G01*
G37*
G36*
G01*
X20345000Y4550000D02*
X20045000Y4550000D01*
G75*
G02*
X19895000Y4700000I0J150000D01*
G01*
X19895000Y6350000D01*
G75*
G02*
X20045000Y6500000I150000J0D01*
G01*
X20345000Y6500000D01*
G75*
G02*
X20495000Y6350000I0J-150000D01*
G01*
X20495000Y4700000D01*
G75*
G02*
X20345000Y4550000I-150000J0D01*
G01*
G37*
G36*
G01*
X19075000Y4550000D02*
X18775000Y4550000D01*
G75*
G02*
X18625000Y4700000I0J150000D01*
G01*
X18625000Y6350000D01*
G75*
G02*
X18775000Y6500000I150000J0D01*
G01*
X19075000Y6500000D01*
G75*
G02*
X19225000Y6350000I0J-150000D01*
G01*
X19225000Y4700000D01*
G75*
G02*
X19075000Y4550000I-150000J0D01*
G01*
G37*
G36*
G01*
X17805000Y4550000D02*
X17505000Y4550000D01*
G75*
G02*
X17355000Y4700000I0J150000D01*
G01*
X17355000Y6350000D01*
G75*
G02*
X17505000Y6500000I150000J0D01*
G01*
X17805000Y6500000D01*
G75*
G02*
X17955000Y6350000I0J-150000D01*
G01*
X17955000Y4700000D01*
G75*
G02*
X17805000Y4550000I-150000J0D01*
G01*
G37*
%TD*%
D21*
%TO.C,U1*%
X16250000Y42800000D03*
X16250000Y38200000D03*
X16250000Y40500000D03*
D22*
X22550000Y40500000D03*
%TD*%
%TO.C,R4*%
G36*
G01*
X32950002Y18975000D02*
X32049998Y18975000D01*
G75*
G02*
X31800000Y19224998I0J249998D01*
G01*
X31800000Y19750002D01*
G75*
G02*
X32049998Y20000000I249998J0D01*
G01*
X32950002Y20000000D01*
G75*
G02*
X33200000Y19750002I0J-249998D01*
G01*
X33200000Y19224998D01*
G75*
G02*
X32950002Y18975000I-249998J0D01*
G01*
G37*
G36*
G01*
X32950002Y20800000D02*
X32049998Y20800000D01*
G75*
G02*
X31800000Y21049998I0J249998D01*
G01*
X31800000Y21575002D01*
G75*
G02*
X32049998Y21825000I249998J0D01*
G01*
X32950002Y21825000D01*
G75*
G02*
X33200000Y21575002I0J-249998D01*
G01*
X33200000Y21049998D01*
G75*
G02*
X32950002Y20800000I-249998J0D01*
G01*
G37*
%TD*%
%TO.C,R3*%
G36*
G01*
X29849998Y21825000D02*
X30750002Y21825000D01*
G75*
G02*
X31000000Y21575002I0J-249998D01*
G01*
X31000000Y21049998D01*
G75*
G02*
X30750002Y20800000I-249998J0D01*
G01*
X29849998Y20800000D01*
G75*
G02*
X29600000Y21049998I0J249998D01*
G01*
X29600000Y21575002D01*
G75*
G02*
X29849998Y21825000I249998J0D01*
G01*
G37*
G36*
G01*
X29849998Y20000000D02*
X30750002Y20000000D01*
G75*
G02*
X31000000Y19750002I0J-249998D01*
G01*
X31000000Y19224998D01*
G75*
G02*
X30750002Y18975000I-249998J0D01*
G01*
X29849998Y18975000D01*
G75*
G02*
X29600000Y19224998I0J249998D01*
G01*
X29600000Y19750002D01*
G75*
G02*
X29849998Y20000000I249998J0D01*
G01*
G37*
%TD*%
%TO.C,R2*%
G36*
G01*
X12100000Y20950002D02*
X12100000Y20049998D01*
G75*
G02*
X11850002Y19800000I-249998J0D01*
G01*
X11324998Y19800000D01*
G75*
G02*
X11075000Y20049998I0J249998D01*
G01*
X11075000Y20950002D01*
G75*
G02*
X11324998Y21200000I249998J0D01*
G01*
X11850002Y21200000D01*
G75*
G02*
X12100000Y20950002I0J-249998D01*
G01*
G37*
G36*
G01*
X13925000Y20950002D02*
X13925000Y20049998D01*
G75*
G02*
X13675002Y19800000I-249998J0D01*
G01*
X13149998Y19800000D01*
G75*
G02*
X12900000Y20049998I0J249998D01*
G01*
X12900000Y20950002D01*
G75*
G02*
X13149998Y21200000I249998J0D01*
G01*
X13675002Y21200000D01*
G75*
G02*
X13925000Y20950002I0J-249998D01*
G01*
G37*
%TD*%
%TO.C,R1*%
G36*
G01*
X12100000Y27600002D02*
X12100000Y26699998D01*
G75*
G02*
X11850002Y26450000I-249998J0D01*
G01*
X11324998Y26450000D01*
G75*
G02*
X11075000Y26699998I0J249998D01*
G01*
X11075000Y27600002D01*
G75*
G02*
X11324998Y27850000I249998J0D01*
G01*
X11850002Y27850000D01*
G75*
G02*
X12100000Y27600002I0J-249998D01*
G01*
G37*
G36*
G01*
X13925000Y27600002D02*
X13925000Y26699998D01*
G75*
G02*
X13675002Y26450000I-249998J0D01*
G01*
X13149998Y26450000D01*
G75*
G02*
X12900000Y26699998I0J249998D01*
G01*
X12900000Y27600002D01*
G75*
G02*
X13149998Y27850000I249998J0D01*
G01*
X13675002Y27850000D01*
G75*
G02*
X13925000Y27600002I0J-249998D01*
G01*
G37*
%TD*%
D23*
%TO.C,Q2*%
X27800000Y17550000D03*
X27800000Y19450000D03*
X25800000Y18500000D03*
%TD*%
%TO.C,Q1*%
X27800000Y21350000D03*
X27800000Y23250000D03*
X25800000Y22300000D03*
%TD*%
%TO.C,D1*%
G36*
G01*
X13325000Y29025000D02*
X13325000Y30275000D01*
G75*
G02*
X13575000Y30525000I250000J0D01*
G01*
X14325000Y30525000D01*
G75*
G02*
X14575000Y30275000I0J-250000D01*
G01*
X14575000Y29025000D01*
G75*
G02*
X14325000Y28775000I-250000J0D01*
G01*
X13575000Y28775000D01*
G75*
G02*
X13325000Y29025000I0J250000D01*
G01*
G37*
G36*
G01*
X10525000Y29025000D02*
X10525000Y30275000D01*
G75*
G02*
X10775000Y30525000I250000J0D01*
G01*
X11525000Y30525000D01*
G75*
G02*
X11775000Y30275000I0J-250000D01*
G01*
X11775000Y29025000D01*
G75*
G02*
X11525000Y28775000I-250000J0D01*
G01*
X10775000Y28775000D01*
G75*
G02*
X10525000Y29025000I0J250000D01*
G01*
G37*
%TD*%
%TO.C,C6*%
G36*
G01*
X29775000Y6150000D02*
X28825000Y6150000D01*
G75*
G02*
X28575000Y6400000I0J250000D01*
G01*
X28575000Y6900000D01*
G75*
G02*
X28825000Y7150000I250000J0D01*
G01*
X29775000Y7150000D01*
G75*
G02*
X30025000Y6900000I0J-250000D01*
G01*
X30025000Y6400000D01*
G75*
G02*
X29775000Y6150000I-250000J0D01*
G01*
G37*
G36*
G01*
X29775000Y4250000D02*
X28825000Y4250000D01*
G75*
G02*
X28575000Y4500000I0J250000D01*
G01*
X28575000Y5000000D01*
G75*
G02*
X28825000Y5250000I250000J0D01*
G01*
X29775000Y5250000D01*
G75*
G02*
X30025000Y5000000I0J-250000D01*
G01*
X30025000Y4500000D01*
G75*
G02*
X29775000Y4250000I-250000J0D01*
G01*
G37*
%TD*%
%TO.C,C5*%
G36*
G01*
X28825000Y9750000D02*
X29775000Y9750000D01*
G75*
G02*
X30025000Y9500000I0J-250000D01*
G01*
X30025000Y9000000D01*
G75*
G02*
X29775000Y8750000I-250000J0D01*
G01*
X28825000Y8750000D01*
G75*
G02*
X28575000Y9000000I0J250000D01*
G01*
X28575000Y9500000D01*
G75*
G02*
X28825000Y9750000I250000J0D01*
G01*
G37*
G36*
G01*
X28825000Y11650000D02*
X29775000Y11650000D01*
G75*
G02*
X30025000Y11400000I0J-250000D01*
G01*
X30025000Y10900000D01*
G75*
G02*
X29775000Y10650000I-250000J0D01*
G01*
X28825000Y10650000D01*
G75*
G02*
X28575000Y10900000I0J250000D01*
G01*
X28575000Y11400000D01*
G75*
G02*
X28825000Y11650000I250000J0D01*
G01*
G37*
%TD*%
%TO.C,C4*%
G36*
G01*
X12125000Y9650000D02*
X13075000Y9650000D01*
G75*
G02*
X13325000Y9400000I0J-250000D01*
G01*
X13325000Y8900000D01*
G75*
G02*
X13075000Y8650000I-250000J0D01*
G01*
X12125000Y8650000D01*
G75*
G02*
X11875000Y8900000I0J250000D01*
G01*
X11875000Y9400000D01*
G75*
G02*
X12125000Y9650000I250000J0D01*
G01*
G37*
G36*
G01*
X12125000Y11550000D02*
X13075000Y11550000D01*
G75*
G02*
X13325000Y11300000I0J-250000D01*
G01*
X13325000Y10800000D01*
G75*
G02*
X13075000Y10550000I-250000J0D01*
G01*
X12125000Y10550000D01*
G75*
G02*
X11875000Y10800000I0J250000D01*
G01*
X11875000Y11300000D01*
G75*
G02*
X12125000Y11550000I250000J0D01*
G01*
G37*
%TD*%
%TO.C,C3*%
G36*
G01*
X14325000Y9650000D02*
X15275000Y9650000D01*
G75*
G02*
X15525000Y9400000I0J-250000D01*
G01*
X15525000Y8900000D01*
G75*
G02*
X15275000Y8650000I-250000J0D01*
G01*
X14325000Y8650000D01*
G75*
G02*
X14075000Y8900000I0J250000D01*
G01*
X14075000Y9400000D01*
G75*
G02*
X14325000Y9650000I250000J0D01*
G01*
G37*
G36*
G01*
X14325000Y11550000D02*
X15275000Y11550000D01*
G75*
G02*
X15525000Y11300000I0J-250000D01*
G01*
X15525000Y10800000D01*
G75*
G02*
X15275000Y10550000I-250000J0D01*
G01*
X14325000Y10550000D01*
G75*
G02*
X14075000Y10800000I0J250000D01*
G01*
X14075000Y11300000D01*
G75*
G02*
X14325000Y11550000I250000J0D01*
G01*
G37*
%TD*%
%TO.C,C2*%
G36*
G01*
X13825001Y42500000D02*
X12974999Y42500000D01*
G75*
G02*
X12725000Y42749999I0J249999D01*
G01*
X12725000Y43650001D01*
G75*
G02*
X12974999Y43900000I249999J0D01*
G01*
X13825001Y43900000D01*
G75*
G02*
X14075000Y43650001I0J-249999D01*
G01*
X14075000Y42749999D01*
G75*
G02*
X13825001Y42500000I-249999J0D01*
G01*
G37*
G36*
G01*
X13825001Y39800000D02*
X12974999Y39800000D01*
G75*
G02*
X12725000Y40049999I0J249999D01*
G01*
X12725000Y40950001D01*
G75*
G02*
X12974999Y41200000I249999J0D01*
G01*
X13825001Y41200000D01*
G75*
G02*
X14075000Y40950001I0J-249999D01*
G01*
X14075000Y40049999D01*
G75*
G02*
X13825001Y39800000I-249999J0D01*
G01*
G37*
%TD*%
%TO.C,C1*%
G36*
G01*
X10875000Y41950000D02*
X9925000Y41950000D01*
G75*
G02*
X9675000Y42200000I0J250000D01*
G01*
X9675000Y42700000D01*
G75*
G02*
X9925000Y42950000I250000J0D01*
G01*
X10875000Y42950000D01*
G75*
G02*
X11125000Y42700000I0J-250000D01*
G01*
X11125000Y42200000D01*
G75*
G02*
X10875000Y41950000I-250000J0D01*
G01*
G37*
G36*
G01*
X10875000Y40050000D02*
X9925000Y40050000D01*
G75*
G02*
X9675000Y40300000I0J250000D01*
G01*
X9675000Y40800000D01*
G75*
G02*
X9925000Y41050000I250000J0D01*
G01*
X10875000Y41050000D01*
G75*
G02*
X11125000Y40800000I0J-250000D01*
G01*
X11125000Y40300000D01*
G75*
G02*
X10875000Y40050000I-250000J0D01*
G01*
G37*
%TD*%
M02*
