%TF.GenerationSoftware,KiCad,Pcbnew,(5.1.9)-1*%
%TF.CreationDate,2021-09-09T22:45:53+02:00*%
%TF.ProjectId,programmer,70726f67-7261-46d6-9d65-722e6b696361,rev?*%
%TF.SameCoordinates,PX1c9c380PY4c4b400*%
%TF.FileFunction,Copper,L1,Top*%
%TF.FilePolarity,Positive*%
%FSLAX46Y46*%
G04 Gerber Fmt 4.6, Leading zero omitted, Abs format (unit mm)*
G04 Created by KiCad (PCBNEW (5.1.9)-1) date 2021-09-09 22:45:53*
%MOMM*%
%LPD*%
G01*
G04 APERTURE LIST*
%TA.AperFunction,ComponentPad*%
%ADD10O,3.000000X1.700000*%
%TD*%
%TA.AperFunction,ComponentPad*%
%ADD11R,3.000000X1.700000*%
%TD*%
%TA.AperFunction,ComponentPad*%
%ADD12O,1.700000X1.700000*%
%TD*%
%TA.AperFunction,ComponentPad*%
%ADD13R,1.700000X1.700000*%
%TD*%
%TA.AperFunction,SMDPad,CuDef*%
%ADD14R,1.450000X0.600000*%
%TD*%
%TA.AperFunction,SMDPad,CuDef*%
%ADD15R,1.450000X0.300000*%
%TD*%
%TA.AperFunction,ComponentPad*%
%ADD16O,2.100000X1.000000*%
%TD*%
%TA.AperFunction,ComponentPad*%
%ADD17O,1.600000X1.000000*%
%TD*%
%TA.AperFunction,ComponentPad*%
%ADD18C,1.500000*%
%TD*%
%TA.AperFunction,SMDPad,CuDef*%
%ADD19R,2.000000X1.500000*%
%TD*%
%TA.AperFunction,SMDPad,CuDef*%
%ADD20R,2.000000X3.800000*%
%TD*%
%TA.AperFunction,SMDPad,CuDef*%
%ADD21R,0.900000X0.800000*%
%TD*%
%TA.AperFunction,ViaPad*%
%ADD22C,0.800000*%
%TD*%
%TA.AperFunction,Conductor*%
%ADD23C,0.250000*%
%TD*%
%TA.AperFunction,Conductor*%
%ADD24C,0.400000*%
%TD*%
%TA.AperFunction,Conductor*%
%ADD25C,0.254000*%
%TD*%
%TA.AperFunction,Conductor*%
%ADD26C,0.100000*%
%TD*%
G04 APERTURE END LIST*
D10*
%TO.P,J2,7*%
%TO.N,/RST*%
X17400000Y17380000D03*
%TO.P,J2,5*%
%TO.N,GND*%
X17400000Y22460000D03*
%TO.P,J2,3*%
%TO.N,/TX*%
X17400000Y27540000D03*
D11*
%TO.P,J2,1*%
%TO.N,/5V_sel*%
X17400000Y32620000D03*
D10*
%TO.P,J2,2*%
%TO.N,/3V3_sel*%
X17400000Y30080000D03*
%TO.P,J2,4*%
%TO.N,/RX*%
X17400000Y25000000D03*
%TO.P,J2,6*%
%TO.N,/IO0*%
X17400000Y19920000D03*
%TD*%
D12*
%TO.P,J3,4*%
%TO.N,/3V3_sel*%
X34540000Y37000000D03*
%TO.P,J3,3*%
%TO.N,+3V3*%
X32000000Y37000000D03*
%TO.P,J3,2*%
%TO.N,/5V_sel*%
X29460000Y37000000D03*
D13*
%TO.P,J3,1*%
%TO.N,+5V*%
X26920000Y37000000D03*
%TD*%
%TO.P,R6,2*%
%TO.N,Net-(J1-PadB5)*%
%TA.AperFunction,SMDPad,CuDef*%
G36*
G01*
X12100000Y23150002D02*
X12100000Y22249998D01*
G75*
G02*
X11850002Y22000000I-249998J0D01*
G01*
X11324998Y22000000D01*
G75*
G02*
X11075000Y22249998I0J249998D01*
G01*
X11075000Y23150002D01*
G75*
G02*
X11324998Y23400000I249998J0D01*
G01*
X11850002Y23400000D01*
G75*
G02*
X12100000Y23150002I0J-249998D01*
G01*
G37*
%TD.AperFunction*%
%TO.P,R6,1*%
%TO.N,GND*%
%TA.AperFunction,SMDPad,CuDef*%
G36*
G01*
X13925000Y23150002D02*
X13925000Y22249998D01*
G75*
G02*
X13675002Y22000000I-249998J0D01*
G01*
X13149998Y22000000D01*
G75*
G02*
X12900000Y22249998I0J249998D01*
G01*
X12900000Y23150002D01*
G75*
G02*
X13149998Y23400000I249998J0D01*
G01*
X13675002Y23400000D01*
G75*
G02*
X13925000Y23150002I0J-249998D01*
G01*
G37*
%TD.AperFunction*%
%TD*%
%TO.P,R5,2*%
%TO.N,Net-(J1-PadA5)*%
%TA.AperFunction,SMDPad,CuDef*%
G36*
G01*
X12100000Y25400002D02*
X12100000Y24499998D01*
G75*
G02*
X11850002Y24250000I-249998J0D01*
G01*
X11324998Y24250000D01*
G75*
G02*
X11075000Y24499998I0J249998D01*
G01*
X11075000Y25400002D01*
G75*
G02*
X11324998Y25650000I249998J0D01*
G01*
X11850002Y25650000D01*
G75*
G02*
X12100000Y25400002I0J-249998D01*
G01*
G37*
%TD.AperFunction*%
%TO.P,R5,1*%
%TO.N,GND*%
%TA.AperFunction,SMDPad,CuDef*%
G36*
G01*
X13925000Y25400002D02*
X13925000Y24499998D01*
G75*
G02*
X13675002Y24250000I-249998J0D01*
G01*
X13149998Y24250000D01*
G75*
G02*
X12900000Y24499998I0J249998D01*
G01*
X12900000Y25400002D01*
G75*
G02*
X13149998Y25650000I249998J0D01*
G01*
X13675002Y25650000D01*
G75*
G02*
X13925000Y25400002I0J-249998D01*
G01*
G37*
%TD.AperFunction*%
%TD*%
D14*
%TO.P,J1,B1*%
%TO.N,GND*%
X6795000Y21750000D03*
%TO.P,J1,A9*%
%TO.N,+5V*%
X6795000Y22550000D03*
%TO.P,J1,B9*%
X6795000Y27450000D03*
%TO.P,J1,B12*%
%TO.N,GND*%
X6795000Y28250000D03*
%TO.P,J1,A1*%
X6795000Y28250000D03*
%TO.P,J1,A4*%
%TO.N,+5V*%
X6795000Y27450000D03*
%TO.P,J1,B4*%
X6795000Y22550000D03*
%TO.P,J1,A12*%
%TO.N,GND*%
X6795000Y21750000D03*
D15*
%TO.P,J1,B8*%
%TO.N,Net-(J1-PadB8)*%
X6795000Y26750000D03*
%TO.P,J1,A5*%
%TO.N,Net-(J1-PadA5)*%
X6795000Y26250000D03*
%TO.P,J1,B7*%
%TO.N,/D_N*%
X6795000Y25750000D03*
%TO.P,J1,A7*%
X6795000Y24750000D03*
%TO.P,J1,B6*%
%TO.N,/D_P*%
X6795000Y24250000D03*
%TO.P,J1,A8*%
%TO.N,Net-(J1-PadA8)*%
X6795000Y23750000D03*
%TO.P,J1,B5*%
%TO.N,Net-(J1-PadB5)*%
X6795000Y23250000D03*
%TO.P,J1,A6*%
%TO.N,/D_P*%
X6795000Y25250000D03*
D16*
%TO.P,J1,S1*%
%TO.N,Net-(J1-PadS1)*%
X5880000Y20680000D03*
X5880000Y29320000D03*
D17*
X1700000Y29320000D03*
X1700000Y20680000D03*
%TD*%
D18*
%TO.P,Y1,2*%
%TO.N,Net-(C6-Pad1)*%
X34100000Y5520000D03*
%TO.P,Y1,1*%
%TO.N,Net-(C5-Pad1)*%
X34100000Y10400000D03*
%TD*%
%TO.P,U2,16*%
%TO.N,+3V3*%
%TA.AperFunction,SMDPad,CuDef*%
G36*
G01*
X17805000Y9500000D02*
X17505000Y9500000D01*
G75*
G02*
X17355000Y9650000I0J150000D01*
G01*
X17355000Y11300000D01*
G75*
G02*
X17505000Y11450000I150000J0D01*
G01*
X17805000Y11450000D01*
G75*
G02*
X17955000Y11300000I0J-150000D01*
G01*
X17955000Y9650000D01*
G75*
G02*
X17805000Y9500000I-150000J0D01*
G01*
G37*
%TD.AperFunction*%
%TO.P,U2,15*%
%TO.N,Net-(U2-Pad15)*%
%TA.AperFunction,SMDPad,CuDef*%
G36*
G01*
X19075000Y9500000D02*
X18775000Y9500000D01*
G75*
G02*
X18625000Y9650000I0J150000D01*
G01*
X18625000Y11300000D01*
G75*
G02*
X18775000Y11450000I150000J0D01*
G01*
X19075000Y11450000D01*
G75*
G02*
X19225000Y11300000I0J-150000D01*
G01*
X19225000Y9650000D01*
G75*
G02*
X19075000Y9500000I-150000J0D01*
G01*
G37*
%TD.AperFunction*%
%TO.P,U2,14*%
%TO.N,/RTS*%
%TA.AperFunction,SMDPad,CuDef*%
G36*
G01*
X20345000Y9500000D02*
X20045000Y9500000D01*
G75*
G02*
X19895000Y9650000I0J150000D01*
G01*
X19895000Y11300000D01*
G75*
G02*
X20045000Y11450000I150000J0D01*
G01*
X20345000Y11450000D01*
G75*
G02*
X20495000Y11300000I0J-150000D01*
G01*
X20495000Y9650000D01*
G75*
G02*
X20345000Y9500000I-150000J0D01*
G01*
G37*
%TD.AperFunction*%
%TO.P,U2,13*%
%TO.N,/DTR*%
%TA.AperFunction,SMDPad,CuDef*%
G36*
G01*
X21615000Y9500000D02*
X21315000Y9500000D01*
G75*
G02*
X21165000Y9650000I0J150000D01*
G01*
X21165000Y11300000D01*
G75*
G02*
X21315000Y11450000I150000J0D01*
G01*
X21615000Y11450000D01*
G75*
G02*
X21765000Y11300000I0J-150000D01*
G01*
X21765000Y9650000D01*
G75*
G02*
X21615000Y9500000I-150000J0D01*
G01*
G37*
%TD.AperFunction*%
%TO.P,U2,12*%
%TO.N,Net-(U2-Pad12)*%
%TA.AperFunction,SMDPad,CuDef*%
G36*
G01*
X22885000Y9500000D02*
X22585000Y9500000D01*
G75*
G02*
X22435000Y9650000I0J150000D01*
G01*
X22435000Y11300000D01*
G75*
G02*
X22585000Y11450000I150000J0D01*
G01*
X22885000Y11450000D01*
G75*
G02*
X23035000Y11300000I0J-150000D01*
G01*
X23035000Y9650000D01*
G75*
G02*
X22885000Y9500000I-150000J0D01*
G01*
G37*
%TD.AperFunction*%
%TO.P,U2,11*%
%TO.N,Net-(U2-Pad11)*%
%TA.AperFunction,SMDPad,CuDef*%
G36*
G01*
X24155000Y9500000D02*
X23855000Y9500000D01*
G75*
G02*
X23705000Y9650000I0J150000D01*
G01*
X23705000Y11300000D01*
G75*
G02*
X23855000Y11450000I150000J0D01*
G01*
X24155000Y11450000D01*
G75*
G02*
X24305000Y11300000I0J-150000D01*
G01*
X24305000Y9650000D01*
G75*
G02*
X24155000Y9500000I-150000J0D01*
G01*
G37*
%TD.AperFunction*%
%TO.P,U2,10*%
%TO.N,Net-(U2-Pad10)*%
%TA.AperFunction,SMDPad,CuDef*%
G36*
G01*
X25425000Y9500000D02*
X25125000Y9500000D01*
G75*
G02*
X24975000Y9650000I0J150000D01*
G01*
X24975000Y11300000D01*
G75*
G02*
X25125000Y11450000I150000J0D01*
G01*
X25425000Y11450000D01*
G75*
G02*
X25575000Y11300000I0J-150000D01*
G01*
X25575000Y9650000D01*
G75*
G02*
X25425000Y9500000I-150000J0D01*
G01*
G37*
%TD.AperFunction*%
%TO.P,U2,9*%
%TO.N,Net-(U2-Pad9)*%
%TA.AperFunction,SMDPad,CuDef*%
G36*
G01*
X26695000Y9500000D02*
X26395000Y9500000D01*
G75*
G02*
X26245000Y9650000I0J150000D01*
G01*
X26245000Y11300000D01*
G75*
G02*
X26395000Y11450000I150000J0D01*
G01*
X26695000Y11450000D01*
G75*
G02*
X26845000Y11300000I0J-150000D01*
G01*
X26845000Y9650000D01*
G75*
G02*
X26695000Y9500000I-150000J0D01*
G01*
G37*
%TD.AperFunction*%
%TO.P,U2,8*%
%TO.N,Net-(C6-Pad1)*%
%TA.AperFunction,SMDPad,CuDef*%
G36*
G01*
X26695000Y4550000D02*
X26395000Y4550000D01*
G75*
G02*
X26245000Y4700000I0J150000D01*
G01*
X26245000Y6350000D01*
G75*
G02*
X26395000Y6500000I150000J0D01*
G01*
X26695000Y6500000D01*
G75*
G02*
X26845000Y6350000I0J-150000D01*
G01*
X26845000Y4700000D01*
G75*
G02*
X26695000Y4550000I-150000J0D01*
G01*
G37*
%TD.AperFunction*%
%TO.P,U2,7*%
%TO.N,Net-(C5-Pad1)*%
%TA.AperFunction,SMDPad,CuDef*%
G36*
G01*
X25425000Y4550000D02*
X25125000Y4550000D01*
G75*
G02*
X24975000Y4700000I0J150000D01*
G01*
X24975000Y6350000D01*
G75*
G02*
X25125000Y6500000I150000J0D01*
G01*
X25425000Y6500000D01*
G75*
G02*
X25575000Y6350000I0J-150000D01*
G01*
X25575000Y4700000D01*
G75*
G02*
X25425000Y4550000I-150000J0D01*
G01*
G37*
%TD.AperFunction*%
%TO.P,U2,6*%
%TO.N,/D_N*%
%TA.AperFunction,SMDPad,CuDef*%
G36*
G01*
X24155000Y4550000D02*
X23855000Y4550000D01*
G75*
G02*
X23705000Y4700000I0J150000D01*
G01*
X23705000Y6350000D01*
G75*
G02*
X23855000Y6500000I150000J0D01*
G01*
X24155000Y6500000D01*
G75*
G02*
X24305000Y6350000I0J-150000D01*
G01*
X24305000Y4700000D01*
G75*
G02*
X24155000Y4550000I-150000J0D01*
G01*
G37*
%TD.AperFunction*%
%TO.P,U2,5*%
%TO.N,/D_P*%
%TA.AperFunction,SMDPad,CuDef*%
G36*
G01*
X22885000Y4550000D02*
X22585000Y4550000D01*
G75*
G02*
X22435000Y4700000I0J150000D01*
G01*
X22435000Y6350000D01*
G75*
G02*
X22585000Y6500000I150000J0D01*
G01*
X22885000Y6500000D01*
G75*
G02*
X23035000Y6350000I0J-150000D01*
G01*
X23035000Y4700000D01*
G75*
G02*
X22885000Y4550000I-150000J0D01*
G01*
G37*
%TD.AperFunction*%
%TO.P,U2,4*%
%TO.N,+3V3*%
%TA.AperFunction,SMDPad,CuDef*%
G36*
G01*
X21615000Y4550000D02*
X21315000Y4550000D01*
G75*
G02*
X21165000Y4700000I0J150000D01*
G01*
X21165000Y6350000D01*
G75*
G02*
X21315000Y6500000I150000J0D01*
G01*
X21615000Y6500000D01*
G75*
G02*
X21765000Y6350000I0J-150000D01*
G01*
X21765000Y4700000D01*
G75*
G02*
X21615000Y4550000I-150000J0D01*
G01*
G37*
%TD.AperFunction*%
%TO.P,U2,3*%
%TO.N,Net-(R2-Pad2)*%
%TA.AperFunction,SMDPad,CuDef*%
G36*
G01*
X20345000Y4550000D02*
X20045000Y4550000D01*
G75*
G02*
X19895000Y4700000I0J150000D01*
G01*
X19895000Y6350000D01*
G75*
G02*
X20045000Y6500000I150000J0D01*
G01*
X20345000Y6500000D01*
G75*
G02*
X20495000Y6350000I0J-150000D01*
G01*
X20495000Y4700000D01*
G75*
G02*
X20345000Y4550000I-150000J0D01*
G01*
G37*
%TD.AperFunction*%
%TO.P,U2,2*%
%TO.N,/RX*%
%TA.AperFunction,SMDPad,CuDef*%
G36*
G01*
X19075000Y4550000D02*
X18775000Y4550000D01*
G75*
G02*
X18625000Y4700000I0J150000D01*
G01*
X18625000Y6350000D01*
G75*
G02*
X18775000Y6500000I150000J0D01*
G01*
X19075000Y6500000D01*
G75*
G02*
X19225000Y6350000I0J-150000D01*
G01*
X19225000Y4700000D01*
G75*
G02*
X19075000Y4550000I-150000J0D01*
G01*
G37*
%TD.AperFunction*%
%TO.P,U2,1*%
%TO.N,GND*%
%TA.AperFunction,SMDPad,CuDef*%
G36*
G01*
X17805000Y4550000D02*
X17505000Y4550000D01*
G75*
G02*
X17355000Y4700000I0J150000D01*
G01*
X17355000Y6350000D01*
G75*
G02*
X17505000Y6500000I150000J0D01*
G01*
X17805000Y6500000D01*
G75*
G02*
X17955000Y6350000I0J-150000D01*
G01*
X17955000Y4700000D01*
G75*
G02*
X17805000Y4550000I-150000J0D01*
G01*
G37*
%TD.AperFunction*%
%TD*%
D19*
%TO.P,U1,1*%
%TO.N,GND*%
X16250000Y42800000D03*
%TO.P,U1,3*%
%TO.N,+5V*%
X16250000Y38200000D03*
%TO.P,U1,2*%
%TO.N,+3V3*%
X16250000Y40500000D03*
D20*
X22550000Y40500000D03*
%TD*%
%TO.P,R4,1*%
%TO.N,Net-(Q2-Pad1)*%
%TA.AperFunction,SMDPad,CuDef*%
G36*
G01*
X32950002Y18975000D02*
X32049998Y18975000D01*
G75*
G02*
X31800000Y19224998I0J249998D01*
G01*
X31800000Y19750002D01*
G75*
G02*
X32049998Y20000000I249998J0D01*
G01*
X32950002Y20000000D01*
G75*
G02*
X33200000Y19750002I0J-249998D01*
G01*
X33200000Y19224998D01*
G75*
G02*
X32950002Y18975000I-249998J0D01*
G01*
G37*
%TD.AperFunction*%
%TO.P,R4,2*%
%TO.N,/RTS*%
%TA.AperFunction,SMDPad,CuDef*%
G36*
G01*
X32950002Y20800000D02*
X32049998Y20800000D01*
G75*
G02*
X31800000Y21049998I0J249998D01*
G01*
X31800000Y21575002D01*
G75*
G02*
X32049998Y21825000I249998J0D01*
G01*
X32950002Y21825000D01*
G75*
G02*
X33200000Y21575002I0J-249998D01*
G01*
X33200000Y21049998D01*
G75*
G02*
X32950002Y20800000I-249998J0D01*
G01*
G37*
%TD.AperFunction*%
%TD*%
%TO.P,R3,1*%
%TO.N,Net-(Q1-Pad1)*%
%TA.AperFunction,SMDPad,CuDef*%
G36*
G01*
X29849998Y21825000D02*
X30750002Y21825000D01*
G75*
G02*
X31000000Y21575002I0J-249998D01*
G01*
X31000000Y21049998D01*
G75*
G02*
X30750002Y20800000I-249998J0D01*
G01*
X29849998Y20800000D01*
G75*
G02*
X29600000Y21049998I0J249998D01*
G01*
X29600000Y21575002D01*
G75*
G02*
X29849998Y21825000I249998J0D01*
G01*
G37*
%TD.AperFunction*%
%TO.P,R3,2*%
%TO.N,/DTR*%
%TA.AperFunction,SMDPad,CuDef*%
G36*
G01*
X29849998Y20000000D02*
X30750002Y20000000D01*
G75*
G02*
X31000000Y19750002I0J-249998D01*
G01*
X31000000Y19224998D01*
G75*
G02*
X30750002Y18975000I-249998J0D01*
G01*
X29849998Y18975000D01*
G75*
G02*
X29600000Y19224998I0J249998D01*
G01*
X29600000Y19750002D01*
G75*
G02*
X29849998Y20000000I249998J0D01*
G01*
G37*
%TD.AperFunction*%
%TD*%
%TO.P,R2,2*%
%TO.N,Net-(R2-Pad2)*%
%TA.AperFunction,SMDPad,CuDef*%
G36*
G01*
X12100000Y20950002D02*
X12100000Y20049998D01*
G75*
G02*
X11850002Y19800000I-249998J0D01*
G01*
X11324998Y19800000D01*
G75*
G02*
X11075000Y20049998I0J249998D01*
G01*
X11075000Y20950002D01*
G75*
G02*
X11324998Y21200000I249998J0D01*
G01*
X11850002Y21200000D01*
G75*
G02*
X12100000Y20950002I0J-249998D01*
G01*
G37*
%TD.AperFunction*%
%TO.P,R2,1*%
%TO.N,/TX*%
%TA.AperFunction,SMDPad,CuDef*%
G36*
G01*
X13925000Y20950002D02*
X13925000Y20049998D01*
G75*
G02*
X13675002Y19800000I-249998J0D01*
G01*
X13149998Y19800000D01*
G75*
G02*
X12900000Y20049998I0J249998D01*
G01*
X12900000Y20950002D01*
G75*
G02*
X13149998Y21200000I249998J0D01*
G01*
X13675002Y21200000D01*
G75*
G02*
X13925000Y20950002I0J-249998D01*
G01*
G37*
%TD.AperFunction*%
%TD*%
%TO.P,R1,2*%
%TO.N,+5V*%
%TA.AperFunction,SMDPad,CuDef*%
G36*
G01*
X12100000Y27600002D02*
X12100000Y26699998D01*
G75*
G02*
X11850002Y26450000I-249998J0D01*
G01*
X11324998Y26450000D01*
G75*
G02*
X11075000Y26699998I0J249998D01*
G01*
X11075000Y27600002D01*
G75*
G02*
X11324998Y27850000I249998J0D01*
G01*
X11850002Y27850000D01*
G75*
G02*
X12100000Y27600002I0J-249998D01*
G01*
G37*
%TD.AperFunction*%
%TO.P,R1,1*%
%TO.N,Net-(D1-Pad2)*%
%TA.AperFunction,SMDPad,CuDef*%
G36*
G01*
X13925000Y27600002D02*
X13925000Y26699998D01*
G75*
G02*
X13675002Y26450000I-249998J0D01*
G01*
X13149998Y26450000D01*
G75*
G02*
X12900000Y26699998I0J249998D01*
G01*
X12900000Y27600002D01*
G75*
G02*
X13149998Y27850000I249998J0D01*
G01*
X13675002Y27850000D01*
G75*
G02*
X13925000Y27600002I0J-249998D01*
G01*
G37*
%TD.AperFunction*%
%TD*%
D21*
%TO.P,Q2,1*%
%TO.N,Net-(Q2-Pad1)*%
X27800000Y17550000D03*
%TO.P,Q2,2*%
%TO.N,/DTR*%
X27800000Y19450000D03*
%TO.P,Q2,3*%
%TO.N,/IO0*%
X25800000Y18500000D03*
%TD*%
%TO.P,Q1,1*%
%TO.N,Net-(Q1-Pad1)*%
X27800000Y21350000D03*
%TO.P,Q1,2*%
%TO.N,/RTS*%
X27800000Y23250000D03*
%TO.P,Q1,3*%
%TO.N,/RST*%
X25800000Y22300000D03*
%TD*%
%TO.P,D1,2*%
%TO.N,Net-(D1-Pad2)*%
%TA.AperFunction,SMDPad,CuDef*%
G36*
G01*
X13325000Y29025000D02*
X13325000Y30275000D01*
G75*
G02*
X13575000Y30525000I250000J0D01*
G01*
X14325000Y30525000D01*
G75*
G02*
X14575000Y30275000I0J-250000D01*
G01*
X14575000Y29025000D01*
G75*
G02*
X14325000Y28775000I-250000J0D01*
G01*
X13575000Y28775000D01*
G75*
G02*
X13325000Y29025000I0J250000D01*
G01*
G37*
%TD.AperFunction*%
%TO.P,D1,1*%
%TO.N,GND*%
%TA.AperFunction,SMDPad,CuDef*%
G36*
G01*
X10525000Y29025000D02*
X10525000Y30275000D01*
G75*
G02*
X10775000Y30525000I250000J0D01*
G01*
X11525000Y30525000D01*
G75*
G02*
X11775000Y30275000I0J-250000D01*
G01*
X11775000Y29025000D01*
G75*
G02*
X11525000Y28775000I-250000J0D01*
G01*
X10775000Y28775000D01*
G75*
G02*
X10525000Y29025000I0J250000D01*
G01*
G37*
%TD.AperFunction*%
%TD*%
%TO.P,C6,2*%
%TO.N,GND*%
%TA.AperFunction,SMDPad,CuDef*%
G36*
G01*
X29775000Y6150000D02*
X28825000Y6150000D01*
G75*
G02*
X28575000Y6400000I0J250000D01*
G01*
X28575000Y6900000D01*
G75*
G02*
X28825000Y7150000I250000J0D01*
G01*
X29775000Y7150000D01*
G75*
G02*
X30025000Y6900000I0J-250000D01*
G01*
X30025000Y6400000D01*
G75*
G02*
X29775000Y6150000I-250000J0D01*
G01*
G37*
%TD.AperFunction*%
%TO.P,C6,1*%
%TO.N,Net-(C6-Pad1)*%
%TA.AperFunction,SMDPad,CuDef*%
G36*
G01*
X29775000Y4250000D02*
X28825000Y4250000D01*
G75*
G02*
X28575000Y4500000I0J250000D01*
G01*
X28575000Y5000000D01*
G75*
G02*
X28825000Y5250000I250000J0D01*
G01*
X29775000Y5250000D01*
G75*
G02*
X30025000Y5000000I0J-250000D01*
G01*
X30025000Y4500000D01*
G75*
G02*
X29775000Y4250000I-250000J0D01*
G01*
G37*
%TD.AperFunction*%
%TD*%
%TO.P,C5,2*%
%TO.N,GND*%
%TA.AperFunction,SMDPad,CuDef*%
G36*
G01*
X28825000Y9750000D02*
X29775000Y9750000D01*
G75*
G02*
X30025000Y9500000I0J-250000D01*
G01*
X30025000Y9000000D01*
G75*
G02*
X29775000Y8750000I-250000J0D01*
G01*
X28825000Y8750000D01*
G75*
G02*
X28575000Y9000000I0J250000D01*
G01*
X28575000Y9500000D01*
G75*
G02*
X28825000Y9750000I250000J0D01*
G01*
G37*
%TD.AperFunction*%
%TO.P,C5,1*%
%TO.N,Net-(C5-Pad1)*%
%TA.AperFunction,SMDPad,CuDef*%
G36*
G01*
X28825000Y11650000D02*
X29775000Y11650000D01*
G75*
G02*
X30025000Y11400000I0J-250000D01*
G01*
X30025000Y10900000D01*
G75*
G02*
X29775000Y10650000I-250000J0D01*
G01*
X28825000Y10650000D01*
G75*
G02*
X28575000Y10900000I0J250000D01*
G01*
X28575000Y11400000D01*
G75*
G02*
X28825000Y11650000I250000J0D01*
G01*
G37*
%TD.AperFunction*%
%TD*%
%TO.P,C4,2*%
%TO.N,GND*%
%TA.AperFunction,SMDPad,CuDef*%
G36*
G01*
X12125000Y9650000D02*
X13075000Y9650000D01*
G75*
G02*
X13325000Y9400000I0J-250000D01*
G01*
X13325000Y8900000D01*
G75*
G02*
X13075000Y8650000I-250000J0D01*
G01*
X12125000Y8650000D01*
G75*
G02*
X11875000Y8900000I0J250000D01*
G01*
X11875000Y9400000D01*
G75*
G02*
X12125000Y9650000I250000J0D01*
G01*
G37*
%TD.AperFunction*%
%TO.P,C4,1*%
%TO.N,+3V3*%
%TA.AperFunction,SMDPad,CuDef*%
G36*
G01*
X12125000Y11550000D02*
X13075000Y11550000D01*
G75*
G02*
X13325000Y11300000I0J-250000D01*
G01*
X13325000Y10800000D01*
G75*
G02*
X13075000Y10550000I-250000J0D01*
G01*
X12125000Y10550000D01*
G75*
G02*
X11875000Y10800000I0J250000D01*
G01*
X11875000Y11300000D01*
G75*
G02*
X12125000Y11550000I250000J0D01*
G01*
G37*
%TD.AperFunction*%
%TD*%
%TO.P,C3,2*%
%TO.N,GND*%
%TA.AperFunction,SMDPad,CuDef*%
G36*
G01*
X14325000Y9650000D02*
X15275000Y9650000D01*
G75*
G02*
X15525000Y9400000I0J-250000D01*
G01*
X15525000Y8900000D01*
G75*
G02*
X15275000Y8650000I-250000J0D01*
G01*
X14325000Y8650000D01*
G75*
G02*
X14075000Y8900000I0J250000D01*
G01*
X14075000Y9400000D01*
G75*
G02*
X14325000Y9650000I250000J0D01*
G01*
G37*
%TD.AperFunction*%
%TO.P,C3,1*%
%TO.N,+3V3*%
%TA.AperFunction,SMDPad,CuDef*%
G36*
G01*
X14325000Y11550000D02*
X15275000Y11550000D01*
G75*
G02*
X15525000Y11300000I0J-250000D01*
G01*
X15525000Y10800000D01*
G75*
G02*
X15275000Y10550000I-250000J0D01*
G01*
X14325000Y10550000D01*
G75*
G02*
X14075000Y10800000I0J250000D01*
G01*
X14075000Y11300000D01*
G75*
G02*
X14325000Y11550000I250000J0D01*
G01*
G37*
%TD.AperFunction*%
%TD*%
%TO.P,C2,2*%
%TO.N,GND*%
%TA.AperFunction,SMDPad,CuDef*%
G36*
G01*
X13825001Y42500000D02*
X12974999Y42500000D01*
G75*
G02*
X12725000Y42749999I0J249999D01*
G01*
X12725000Y43650001D01*
G75*
G02*
X12974999Y43900000I249999J0D01*
G01*
X13825001Y43900000D01*
G75*
G02*
X14075000Y43650001I0J-249999D01*
G01*
X14075000Y42749999D01*
G75*
G02*
X13825001Y42500000I-249999J0D01*
G01*
G37*
%TD.AperFunction*%
%TO.P,C2,1*%
%TO.N,+3V3*%
%TA.AperFunction,SMDPad,CuDef*%
G36*
G01*
X13825001Y39800000D02*
X12974999Y39800000D01*
G75*
G02*
X12725000Y40049999I0J249999D01*
G01*
X12725000Y40950001D01*
G75*
G02*
X12974999Y41200000I249999J0D01*
G01*
X13825001Y41200000D01*
G75*
G02*
X14075000Y40950001I0J-249999D01*
G01*
X14075000Y40049999D01*
G75*
G02*
X13825001Y39800000I-249999J0D01*
G01*
G37*
%TD.AperFunction*%
%TD*%
%TO.P,C1,2*%
%TO.N,GND*%
%TA.AperFunction,SMDPad,CuDef*%
G36*
G01*
X10875000Y41950000D02*
X9925000Y41950000D01*
G75*
G02*
X9675000Y42200000I0J250000D01*
G01*
X9675000Y42700000D01*
G75*
G02*
X9925000Y42950000I250000J0D01*
G01*
X10875000Y42950000D01*
G75*
G02*
X11125000Y42700000I0J-250000D01*
G01*
X11125000Y42200000D01*
G75*
G02*
X10875000Y41950000I-250000J0D01*
G01*
G37*
%TD.AperFunction*%
%TO.P,C1,1*%
%TO.N,+5V*%
%TA.AperFunction,SMDPad,CuDef*%
G36*
G01*
X10875000Y40050000D02*
X9925000Y40050000D01*
G75*
G02*
X9675000Y40300000I0J250000D01*
G01*
X9675000Y40800000D01*
G75*
G02*
X9925000Y41050000I250000J0D01*
G01*
X10875000Y41050000D01*
G75*
G02*
X11125000Y40800000I0J-250000D01*
G01*
X11125000Y40300000D01*
G75*
G02*
X10875000Y40050000I-250000J0D01*
G01*
G37*
%TD.AperFunction*%
%TD*%
D22*
%TO.N,GND*%
X7700000Y31000000D03*
X8300000Y18900000D03*
X10500000Y32000000D03*
X16000000Y36000000D03*
X8000000Y37000000D03*
X19500000Y39500000D03*
X11800000Y39300000D03*
X22000000Y21500000D03*
X23200000Y12600000D03*
X26800000Y16100000D03*
X27700000Y7200000D03*
X15500000Y7000000D03*
X16400000Y9500000D03*
X34200000Y8000000D03*
X24700000Y3400000D03*
X34200000Y3300000D03*
X18400000Y12500000D03*
X1700000Y22800000D03*
X1700000Y27300000D03*
X3000000Y32000000D03*
X20600000Y36000000D03*
X14275000Y23800000D03*
X28900000Y39200000D03*
X24900000Y39200000D03*
X19500000Y42400000D03*
X24900000Y42400000D03*
X33300000Y39200000D03*
X33000000Y47000000D03*
X38000000Y42000000D03*
X43000000Y37000000D03*
X48000000Y42000000D03*
X38000000Y32000000D03*
X43000000Y27000000D03*
X48000000Y32000000D03*
X38000000Y22000000D03*
X38000000Y12000000D03*
X38000000Y2000000D03*
X43000000Y17000000D03*
X43000000Y7000000D03*
X48000000Y12000000D03*
X48000000Y22000000D03*
X33000000Y27000000D03*
X23000000Y27000000D03*
X33000000Y17000000D03*
X23000000Y47000000D03*
X13000000Y47000000D03*
X8000000Y42000000D03*
X3000000Y37000000D03*
X13000000Y13000000D03*
X10000000Y11000000D03*
X2000000Y14000000D03*
X10000000Y3000000D03*
X28000000Y46000000D03*
X15000000Y28000000D03*
%TO.N,+5V*%
X5469998Y23200000D03*
X5000000Y26200000D03*
%TO.N,+3V3*%
X18500000Y8600000D03*
X20400000Y7600000D03*
X13400000Y38000000D03*
X16350000Y11050000D03*
%TO.N,/IO0*%
X24600000Y18500000D03*
%TO.N,/RX*%
X23300000Y19900000D03*
%TD*%
D23*
%TO.N,GND*%
X7700000Y29155000D02*
X7700000Y30800000D01*
X6795000Y28250000D02*
X7700000Y29155000D01*
X8300000Y20245000D02*
X8300000Y18900000D01*
X6795000Y21750000D02*
X8300000Y20245000D01*
X13412500Y22937500D02*
X14275000Y23800000D01*
X13412500Y22700000D02*
X13412500Y22937500D01*
X13412500Y24662500D02*
X14275000Y23800000D01*
X13412500Y24950000D02*
X13412500Y24662500D01*
%TO.N,+5V*%
X6119998Y22550000D02*
X5469998Y23200000D01*
X6795000Y22550000D02*
X6119998Y22550000D01*
X6034998Y27450000D02*
X6795000Y27450000D01*
X5000000Y26415002D02*
X6034998Y27450000D01*
X5000000Y26200000D02*
X5000000Y26415002D01*
D24*
X7770000Y27450000D02*
X8900000Y28580000D01*
X6795000Y27450000D02*
X7770000Y27450000D01*
X8900000Y28580000D02*
X8900000Y35400000D01*
X10400000Y40550000D02*
X10400000Y36900000D01*
X8900000Y35400000D02*
X10400000Y36900000D01*
X16250000Y38200000D02*
X19800000Y38200000D01*
X21000000Y37000000D02*
X26920000Y37000000D01*
X19800000Y38200000D02*
X21000000Y37000000D01*
D23*
X6795000Y27450000D02*
X7750000Y27450000D01*
X8050000Y27150000D02*
X11587500Y27150000D01*
X7750000Y27450000D02*
X8050000Y27150000D01*
D24*
X14950000Y36900000D02*
X16250000Y38200000D01*
X10400000Y36900000D02*
X14950000Y36900000D01*
D23*
%TO.N,+3V3*%
X13400000Y40500000D02*
X16250000Y40500000D01*
D24*
X16250000Y40500000D02*
X22550000Y40500000D01*
X22550000Y40500000D02*
X29500000Y40500000D01*
X32000000Y38000000D02*
X32000000Y37000000D01*
X29500000Y40500000D02*
X32000000Y38000000D01*
D23*
X12600000Y11050000D02*
X14800000Y11050000D01*
X17080000Y11050000D02*
X17655000Y10475000D01*
X17655000Y9445000D02*
X18500000Y8600000D01*
X17655000Y10475000D02*
X17655000Y9445000D01*
X20400000Y7600000D02*
X21000000Y7600000D01*
X21465000Y7135000D02*
X21465000Y5525000D01*
X21000000Y7600000D02*
X21465000Y7135000D01*
X13400000Y40500000D02*
X13400000Y38000000D01*
X16350000Y11050000D02*
X17080000Y11050000D01*
X14800000Y11050000D02*
X16350000Y11050000D01*
%TO.N,Net-(C5-Pad1)*%
X25275000Y5525000D02*
X25275000Y6575000D01*
X25275000Y6575000D02*
X27700000Y9000000D01*
X27700000Y9000000D02*
X27700000Y10800000D01*
X28050000Y11150000D02*
X29300000Y11150000D01*
X27700000Y10800000D02*
X28050000Y11150000D01*
X33350001Y11149999D02*
X34100000Y10400000D01*
X29300000Y11150000D02*
X33350001Y11149999D01*
%TO.N,Net-(C6-Pad1)*%
X26545000Y5525000D02*
X26875000Y5525000D01*
X27650000Y4750000D02*
X29300000Y4750000D01*
X26875000Y5525000D02*
X27650000Y4750000D01*
X33330000Y4750000D02*
X34100000Y5520000D01*
X29300000Y4750000D02*
X33330000Y4750000D01*
%TO.N,Net-(D1-Pad2)*%
X13950000Y27687500D02*
X13412500Y27150000D01*
X13950000Y29650000D02*
X13950000Y27687500D01*
%TO.N,/D_P*%
X6795000Y25250000D02*
X7750000Y25250000D01*
X7755002Y24250000D02*
X8050000Y24544998D01*
X6795000Y24250000D02*
X7755002Y24250000D01*
X8050000Y24544998D02*
X8050000Y24950000D01*
X7750000Y25250000D02*
X8050000Y24950000D01*
X22735000Y4550000D02*
X22735000Y5525000D01*
X21959980Y3774980D02*
X22735000Y4550000D01*
X15086830Y3774980D02*
X21959980Y3774980D01*
X4504990Y14356820D02*
X15086830Y3774980D01*
X4504990Y23504990D02*
X4504990Y14356820D01*
X5250000Y24250000D02*
X4504990Y23504990D01*
X6795000Y24250000D02*
X5250000Y24250000D01*
%TO.N,/D_N*%
X6795000Y24750000D02*
X5750000Y24750000D01*
X5750000Y24750000D02*
X5500000Y25000000D01*
X5834998Y25750000D02*
X6795000Y25750000D01*
X5500000Y25415002D02*
X5834998Y25750000D01*
X5500000Y25000000D02*
X5500000Y25415002D01*
X24005000Y4550000D02*
X24005000Y5525000D01*
X14900430Y3324970D02*
X22779970Y3324970D01*
X4054980Y14170420D02*
X14900430Y3324970D01*
X4054980Y23969982D02*
X4054980Y14170420D01*
X22779970Y3324970D02*
X24005000Y4550000D01*
X5500000Y25415002D02*
X4054980Y23969982D01*
%TO.N,/RST*%
X24400000Y22300000D02*
X25800000Y22300000D01*
X19480000Y17380000D02*
X24400000Y22300000D01*
X17400000Y17380000D02*
X19480000Y17380000D01*
%TO.N,/IO0*%
X25800000Y18500000D02*
X24600000Y18500000D01*
%TO.N,/RX*%
X19550010Y16150010D02*
X23300000Y19900000D01*
X19550010Y6150010D02*
X19550010Y16150010D01*
X18925000Y5525000D02*
X19550010Y6150010D01*
%TO.N,/TX*%
X13412500Y20500000D02*
X14200000Y20500000D01*
X14200000Y20500000D02*
X15000000Y21300000D01*
X15000000Y21300000D02*
X15000000Y26500000D01*
X16040000Y27540000D02*
X17400000Y27540000D01*
X15000000Y26500000D02*
X16040000Y27540000D01*
%TO.N,/RTS*%
X27800000Y23250000D02*
X31350000Y23250000D01*
X32500000Y22100000D02*
X32500000Y21312500D01*
X31350000Y23250000D02*
X32500000Y22100000D01*
X27800000Y22864998D02*
X27800000Y23250000D01*
X20195000Y15259998D02*
X27800000Y22864998D01*
X20195000Y10475000D02*
X20195000Y15259998D01*
%TO.N,Net-(Q1-Pad1)*%
X30262500Y21350000D02*
X30300000Y21312500D01*
X27800000Y21350000D02*
X30262500Y21350000D01*
%TO.N,/DTR*%
X30262500Y19450000D02*
X30300000Y19487500D01*
X27800000Y19450000D02*
X30262500Y19450000D01*
X27800000Y18985002D02*
X27800000Y19450000D01*
X21465000Y12650002D02*
X27800000Y18985002D01*
X21465000Y10475000D02*
X21465000Y12650002D01*
%TO.N,Net-(Q2-Pad1)*%
X31450000Y17550000D02*
X32500000Y18600000D01*
X27800000Y17550000D02*
X31450000Y17550000D01*
X32500000Y19487500D02*
X32500000Y18600000D01*
%TO.N,Net-(R2-Pad2)*%
X20195000Y4550000D02*
X20195000Y5525000D01*
X19869990Y4224990D02*
X20195000Y4550000D01*
X11549990Y8477008D02*
X15802008Y4224990D01*
X15802008Y4224990D02*
X19869990Y4224990D01*
X11549990Y20462490D02*
X11549990Y8477008D01*
X11587500Y20500000D02*
X11549990Y20462490D01*
%TO.N,Net-(J1-PadA5)*%
X6795000Y26250000D02*
X8550000Y26250000D01*
X9850000Y24950000D02*
X11587500Y24950000D01*
X8550000Y26250000D02*
X9850000Y24950000D01*
%TO.N,Net-(J1-PadB5)*%
X7424999Y23175001D02*
X8724999Y23175001D01*
X7350000Y23250000D02*
X7424999Y23175001D01*
X6795000Y23250000D02*
X7350000Y23250000D01*
X9200000Y22700000D02*
X11587500Y22700000D01*
X8724999Y23175001D02*
X9200000Y22700000D01*
D24*
%TO.N,/5V_sel*%
X29460000Y35960000D02*
X29460000Y37000000D01*
X26120000Y32620000D02*
X29460000Y35960000D01*
X17400000Y32620000D02*
X26120000Y32620000D01*
%TO.N,/3V3_sel*%
X34540000Y34540000D02*
X34540000Y37000000D01*
X30080000Y30080000D02*
X34540000Y34540000D01*
X17400000Y30080000D02*
X30080000Y30080000D01*
%TD*%
D25*
%TO.N,GND*%
X45768083Y49268827D02*
X46511891Y49065344D01*
X47207905Y48733362D01*
X47834130Y48283374D01*
X48370777Y47729597D01*
X48800871Y47089549D01*
X49110829Y46383447D01*
X49292065Y45628543D01*
X49340000Y44975793D01*
X49340001Y5029403D01*
X49268827Y4231917D01*
X49065344Y3488110D01*
X48733363Y2792096D01*
X48283374Y2165870D01*
X47729597Y1629223D01*
X47089549Y1199129D01*
X46383447Y889171D01*
X45628543Y707935D01*
X44975793Y660000D01*
X5029392Y660000D01*
X4231917Y731173D01*
X3488110Y934656D01*
X2792096Y1266637D01*
X2165870Y1716626D01*
X1629223Y2270403D01*
X1199129Y2910451D01*
X889171Y3616553D01*
X707935Y4371457D01*
X660000Y5024207D01*
X660000Y5220128D01*
X2765000Y5220128D01*
X2765000Y4779872D01*
X2850890Y4348075D01*
X3019369Y3941331D01*
X3263962Y3575271D01*
X3575271Y3263962D01*
X3941331Y3019369D01*
X4348075Y2850890D01*
X4779872Y2765000D01*
X5220128Y2765000D01*
X5651925Y2850890D01*
X6058669Y3019369D01*
X6424729Y3263962D01*
X6736038Y3575271D01*
X6980631Y3941331D01*
X7149110Y4348075D01*
X7235000Y4779872D01*
X7235000Y5220128D01*
X7149110Y5651925D01*
X6980631Y6058669D01*
X6736038Y6424729D01*
X6424729Y6736038D01*
X6058669Y6980631D01*
X5651925Y7149110D01*
X5220128Y7235000D01*
X4779872Y7235000D01*
X4348075Y7149110D01*
X3941331Y6980631D01*
X3575271Y6736038D01*
X3263962Y6424729D01*
X3019369Y6058669D01*
X2850890Y5651925D01*
X2765000Y5220128D01*
X660000Y5220128D01*
X660000Y19819018D01*
X766377Y19731716D01*
X963553Y19626324D01*
X1177501Y19561423D01*
X1344248Y19545000D01*
X2055752Y19545000D01*
X2222499Y19561423D01*
X2436447Y19626324D01*
X2633623Y19731716D01*
X2806449Y19873551D01*
X2948284Y20046377D01*
X3053676Y20243553D01*
X3118577Y20457501D01*
X3140491Y20680000D01*
X3118577Y20902499D01*
X3053676Y21116447D01*
X2948284Y21313623D01*
X2806449Y21486449D01*
X2633623Y21628284D01*
X2436447Y21733676D01*
X2222499Y21798577D01*
X2055752Y21815000D01*
X1344248Y21815000D01*
X1177501Y21798577D01*
X963553Y21733676D01*
X766377Y21628284D01*
X660000Y21540982D01*
X660000Y23969982D01*
X3291304Y23969982D01*
X3294980Y23932660D01*
X3294981Y14207752D01*
X3291304Y14170420D01*
X3305978Y14021435D01*
X3349434Y13878174D01*
X3420006Y13746144D01*
X3491181Y13659418D01*
X3514980Y13630419D01*
X3543978Y13606621D01*
X14336635Y2813962D01*
X14360429Y2784969D01*
X14389422Y2761175D01*
X14389426Y2761171D01*
X14423111Y2733527D01*
X14476154Y2689996D01*
X14608183Y2619424D01*
X14751444Y2575967D01*
X14863097Y2564970D01*
X14863106Y2564970D01*
X14900429Y2561294D01*
X14937752Y2564970D01*
X22742648Y2564970D01*
X22779970Y2561294D01*
X22817292Y2564970D01*
X22817303Y2564970D01*
X22928956Y2575967D01*
X23072217Y2619424D01*
X23204246Y2689996D01*
X23319971Y2784969D01*
X23343774Y2813973D01*
X24516004Y3986202D01*
X24545001Y4009999D01*
X24558420Y4026350D01*
X24592829Y4044742D01*
X24640000Y4083454D01*
X24687171Y4044742D01*
X24823418Y3971916D01*
X24971255Y3927071D01*
X25125000Y3911928D01*
X25425000Y3911928D01*
X25578745Y3927071D01*
X25726582Y3971916D01*
X25862829Y4044742D01*
X25910000Y4083454D01*
X25957171Y4044742D01*
X26093418Y3971916D01*
X26241255Y3927071D01*
X26395000Y3911928D01*
X26695000Y3911928D01*
X26848745Y3927071D01*
X26996582Y3971916D01*
X27132829Y4044742D01*
X27222097Y4118002D01*
X27225724Y4115026D01*
X27357753Y4044454D01*
X27501014Y4000997D01*
X27563537Y3994839D01*
X27650000Y3986323D01*
X27687333Y3990000D01*
X28100230Y3990000D01*
X28197038Y3872038D01*
X28331614Y3761595D01*
X28485150Y3679528D01*
X28651746Y3628992D01*
X28825000Y3611928D01*
X29775000Y3611928D01*
X29948254Y3628992D01*
X30114850Y3679528D01*
X30268386Y3761595D01*
X30402962Y3872038D01*
X30499770Y3990000D01*
X33292678Y3990000D01*
X33330000Y3986324D01*
X33367322Y3990000D01*
X33367333Y3990000D01*
X33478986Y4000997D01*
X33622247Y4044454D01*
X33754276Y4115026D01*
X33814701Y4164616D01*
X33963589Y4135000D01*
X34236411Y4135000D01*
X34503989Y4188225D01*
X34756043Y4292629D01*
X34982886Y4444201D01*
X35175799Y4637114D01*
X35327371Y4863957D01*
X35431775Y5116011D01*
X35452485Y5220128D01*
X42765000Y5220128D01*
X42765000Y4779872D01*
X42850890Y4348075D01*
X43019369Y3941331D01*
X43263962Y3575271D01*
X43575271Y3263962D01*
X43941331Y3019369D01*
X44348075Y2850890D01*
X44779872Y2765000D01*
X45220128Y2765000D01*
X45651925Y2850890D01*
X46058669Y3019369D01*
X46424729Y3263962D01*
X46736038Y3575271D01*
X46980631Y3941331D01*
X47149110Y4348075D01*
X47235000Y4779872D01*
X47235000Y5220128D01*
X47149110Y5651925D01*
X46980631Y6058669D01*
X46736038Y6424729D01*
X46424729Y6736038D01*
X46058669Y6980631D01*
X45651925Y7149110D01*
X45220128Y7235000D01*
X44779872Y7235000D01*
X44348075Y7149110D01*
X43941331Y6980631D01*
X43575271Y6736038D01*
X43263962Y6424729D01*
X43019369Y6058669D01*
X42850890Y5651925D01*
X42765000Y5220128D01*
X35452485Y5220128D01*
X35485000Y5383589D01*
X35485000Y5656411D01*
X35431775Y5923989D01*
X35327371Y6176043D01*
X35175799Y6402886D01*
X34982886Y6595799D01*
X34756043Y6747371D01*
X34503989Y6851775D01*
X34236411Y6905000D01*
X33963589Y6905000D01*
X33696011Y6851775D01*
X33443957Y6747371D01*
X33217114Y6595799D01*
X33024201Y6402886D01*
X32872629Y6176043D01*
X32768225Y5923989D01*
X32715000Y5656411D01*
X32715000Y5510000D01*
X30499770Y5510000D01*
X30402962Y5627962D01*
X30396406Y5633342D01*
X30476185Y5698815D01*
X30555537Y5795506D01*
X30614502Y5905820D01*
X30650812Y6025518D01*
X30663072Y6150000D01*
X30660000Y6364250D01*
X30501250Y6523000D01*
X29427000Y6523000D01*
X29427000Y6503000D01*
X29173000Y6503000D01*
X29173000Y6523000D01*
X28098750Y6523000D01*
X27940000Y6364250D01*
X27936928Y6150000D01*
X27949188Y6025518D01*
X27985498Y5905820D01*
X28044463Y5795506D01*
X28123815Y5698815D01*
X28203594Y5633342D01*
X28197038Y5627962D01*
X28100230Y5510000D01*
X27964802Y5510000D01*
X27483072Y5991729D01*
X27483072Y6350000D01*
X27467929Y6503745D01*
X27423084Y6651582D01*
X27350258Y6787829D01*
X27252251Y6907251D01*
X27132829Y7005258D01*
X26996582Y7078084D01*
X26886330Y7111528D01*
X26924802Y7150000D01*
X27936928Y7150000D01*
X27940000Y6935750D01*
X28098750Y6777000D01*
X29173000Y6777000D01*
X29173000Y7626250D01*
X29427000Y7626250D01*
X29427000Y6777000D01*
X30501250Y6777000D01*
X30660000Y6935750D01*
X30663072Y7150000D01*
X30650812Y7274482D01*
X30614502Y7394180D01*
X30555537Y7504494D01*
X30476185Y7601185D01*
X30379494Y7680537D01*
X30269180Y7739502D01*
X30149482Y7775812D01*
X30025000Y7788072D01*
X29585750Y7785000D01*
X29427000Y7626250D01*
X29173000Y7626250D01*
X29014250Y7785000D01*
X28575000Y7788072D01*
X28450518Y7775812D01*
X28330820Y7739502D01*
X28220506Y7680537D01*
X28123815Y7601185D01*
X28044463Y7504494D01*
X27985498Y7394180D01*
X27949188Y7274482D01*
X27936928Y7150000D01*
X26924802Y7150000D01*
X28101188Y8326386D01*
X28123815Y8298815D01*
X28220506Y8219463D01*
X28330820Y8160498D01*
X28450518Y8124188D01*
X28575000Y8111928D01*
X29014250Y8115000D01*
X29173000Y8273750D01*
X29173000Y9123000D01*
X29427000Y9123000D01*
X29427000Y8273750D01*
X29585750Y8115000D01*
X30025000Y8111928D01*
X30149482Y8124188D01*
X30269180Y8160498D01*
X30379494Y8219463D01*
X30476185Y8298815D01*
X30555537Y8395506D01*
X30614502Y8505820D01*
X30650812Y8625518D01*
X30663072Y8750000D01*
X30660000Y8964250D01*
X30501250Y9123000D01*
X29427000Y9123000D01*
X29173000Y9123000D01*
X29153000Y9123000D01*
X29153000Y9377000D01*
X29173000Y9377000D01*
X29173000Y9397000D01*
X29427000Y9397000D01*
X29427000Y9377000D01*
X30501250Y9377000D01*
X30660000Y9535750D01*
X30663072Y9750000D01*
X30650812Y9874482D01*
X30614502Y9994180D01*
X30555537Y10104494D01*
X30476185Y10201185D01*
X30396406Y10266658D01*
X30402962Y10272038D01*
X30499771Y10390000D01*
X32715000Y10389999D01*
X32715000Y10263589D01*
X32768225Y9996011D01*
X32872629Y9743957D01*
X33024201Y9517114D01*
X33217114Y9324201D01*
X33443957Y9172629D01*
X33696011Y9068225D01*
X33963589Y9015000D01*
X34236411Y9015000D01*
X34503989Y9068225D01*
X34756043Y9172629D01*
X34982886Y9324201D01*
X35175799Y9517114D01*
X35327371Y9743957D01*
X35431775Y9996011D01*
X35485000Y10263589D01*
X35485000Y10536411D01*
X35431775Y10803989D01*
X35327371Y11056043D01*
X35175799Y11282886D01*
X34982886Y11475799D01*
X34756043Y11627371D01*
X34503989Y11731775D01*
X34236411Y11785000D01*
X33963589Y11785000D01*
X33811183Y11754684D01*
X33774277Y11784973D01*
X33642247Y11855545D01*
X33517497Y11893386D01*
X33498987Y11899001D01*
X33387334Y11909998D01*
X33350001Y11913675D01*
X33312669Y11909998D01*
X30499771Y11909999D01*
X30402962Y12027962D01*
X30268386Y12138405D01*
X30114850Y12220472D01*
X29948254Y12271008D01*
X29775000Y12288072D01*
X28825000Y12288072D01*
X28651746Y12271008D01*
X28485150Y12220472D01*
X28331614Y12138405D01*
X28197038Y12027962D01*
X28100230Y11910000D01*
X28087325Y11910000D01*
X28050000Y11913676D01*
X28012675Y11910000D01*
X28012667Y11910000D01*
X27901014Y11899003D01*
X27757753Y11855546D01*
X27625724Y11784974D01*
X27509999Y11690001D01*
X27486196Y11660997D01*
X27423944Y11598745D01*
X27423084Y11601582D01*
X27350258Y11737829D01*
X27252251Y11857251D01*
X27132829Y11955258D01*
X26996582Y12028084D01*
X26848745Y12072929D01*
X26695000Y12088072D01*
X26395000Y12088072D01*
X26241255Y12072929D01*
X26093418Y12028084D01*
X25957171Y11955258D01*
X25910000Y11916546D01*
X25862829Y11955258D01*
X25726582Y12028084D01*
X25578745Y12072929D01*
X25425000Y12088072D01*
X25125000Y12088072D01*
X24971255Y12072929D01*
X24823418Y12028084D01*
X24687171Y11955258D01*
X24640000Y11916546D01*
X24592829Y11955258D01*
X24456582Y12028084D01*
X24308745Y12072929D01*
X24155000Y12088072D01*
X23855000Y12088072D01*
X23701255Y12072929D01*
X23553418Y12028084D01*
X23417171Y11955258D01*
X23370000Y11916546D01*
X23322829Y11955258D01*
X23186582Y12028084D01*
X23038745Y12072929D01*
X22885000Y12088072D01*
X22585000Y12088072D01*
X22431255Y12072929D01*
X22283418Y12028084D01*
X22225000Y11996859D01*
X22225000Y12335201D01*
X26772732Y16882932D01*
X26819463Y16795506D01*
X26898815Y16698815D01*
X26995506Y16619463D01*
X27105820Y16560498D01*
X27225518Y16524188D01*
X27350000Y16511928D01*
X28250000Y16511928D01*
X28374482Y16524188D01*
X28494180Y16560498D01*
X28604494Y16619463D01*
X28701185Y16698815D01*
X28776018Y16790000D01*
X31412678Y16790000D01*
X31450000Y16786324D01*
X31487322Y16790000D01*
X31487333Y16790000D01*
X31598986Y16800997D01*
X31742247Y16844454D01*
X31874276Y16915026D01*
X31990001Y17009999D01*
X32013804Y17039002D01*
X33011003Y18036201D01*
X33040001Y18059999D01*
X33134974Y18175724D01*
X33205546Y18307753D01*
X33229333Y18386170D01*
X33289852Y18404528D01*
X33443387Y18486595D01*
X33577962Y18597038D01*
X33688405Y18731613D01*
X33770472Y18885148D01*
X33821008Y19051744D01*
X33838072Y19224998D01*
X33838072Y19750002D01*
X33821008Y19923256D01*
X33770472Y20089852D01*
X33688405Y20243387D01*
X33577962Y20377962D01*
X33551109Y20400000D01*
X33577962Y20422038D01*
X33688405Y20556613D01*
X33770472Y20710148D01*
X33821008Y20876744D01*
X33838072Y21049998D01*
X33838072Y21575002D01*
X33821008Y21748256D01*
X33770472Y21914852D01*
X33688405Y22068387D01*
X33577962Y22202962D01*
X33443387Y22313405D01*
X33289852Y22395472D01*
X33187174Y22426619D01*
X33134974Y22524276D01*
X33063799Y22611003D01*
X33040001Y22640001D01*
X33011004Y22663798D01*
X31913804Y23760997D01*
X31890001Y23790001D01*
X31774276Y23884974D01*
X31642247Y23955546D01*
X31498986Y23999003D01*
X31387333Y24010000D01*
X31387322Y24010000D01*
X31350000Y24013676D01*
X31312678Y24010000D01*
X28776018Y24010000D01*
X28701185Y24101185D01*
X28604494Y24180537D01*
X28494180Y24239502D01*
X28374482Y24275812D01*
X28250000Y24288072D01*
X27350000Y24288072D01*
X27225518Y24275812D01*
X27105820Y24239502D01*
X26995506Y24180537D01*
X26898815Y24101185D01*
X26819463Y24004494D01*
X26760498Y23894180D01*
X26724188Y23774482D01*
X26711928Y23650000D01*
X26711928Y23138095D01*
X26701185Y23151185D01*
X26604494Y23230537D01*
X26494180Y23289502D01*
X26374482Y23325812D01*
X26250000Y23338072D01*
X25350000Y23338072D01*
X25225518Y23325812D01*
X25105820Y23289502D01*
X24995506Y23230537D01*
X24898815Y23151185D01*
X24823982Y23060000D01*
X24437325Y23060000D01*
X24400000Y23063676D01*
X24362675Y23060000D01*
X24362667Y23060000D01*
X24251014Y23049003D01*
X24107753Y23005546D01*
X23975724Y22934974D01*
X23859999Y22840001D01*
X23836201Y22811003D01*
X19265241Y18240043D01*
X19105134Y18435134D01*
X18879014Y18620706D01*
X18824209Y18650000D01*
X18879014Y18679294D01*
X19105134Y18864866D01*
X19290706Y19090986D01*
X19428599Y19348966D01*
X19513513Y19628889D01*
X19542185Y19920000D01*
X19513513Y20211111D01*
X19428599Y20491034D01*
X19290706Y20749014D01*
X19105134Y20975134D01*
X18879014Y21160706D01*
X18820663Y21191895D01*
X18980619Y21295824D01*
X19189857Y21499748D01*
X19355291Y21740574D01*
X19470563Y22009047D01*
X19491476Y22103110D01*
X19370155Y22333000D01*
X17527000Y22333000D01*
X17527000Y22313000D01*
X17273000Y22313000D01*
X17273000Y22333000D01*
X17253000Y22333000D01*
X17253000Y22587000D01*
X17273000Y22587000D01*
X17273000Y22607000D01*
X17527000Y22607000D01*
X17527000Y22587000D01*
X19370155Y22587000D01*
X19491476Y22816890D01*
X19470563Y22910953D01*
X19355291Y23179426D01*
X19189857Y23420252D01*
X18980619Y23624176D01*
X18820663Y23728105D01*
X18879014Y23759294D01*
X19105134Y23944866D01*
X19290706Y24170986D01*
X19428599Y24428966D01*
X19513513Y24708889D01*
X19542185Y25000000D01*
X19513513Y25291111D01*
X19428599Y25571034D01*
X19290706Y25829014D01*
X19105134Y26055134D01*
X18879014Y26240706D01*
X18824209Y26270000D01*
X18879014Y26299294D01*
X19105134Y26484866D01*
X19290706Y26710986D01*
X19428599Y26968966D01*
X19513513Y27248889D01*
X19542185Y27540000D01*
X19513513Y27831111D01*
X19428599Y28111034D01*
X19290706Y28369014D01*
X19105134Y28595134D01*
X18879014Y28780706D01*
X18824209Y28810000D01*
X18879014Y28839294D01*
X19105134Y29024866D01*
X19285793Y29245000D01*
X30038982Y29245000D01*
X30080000Y29240960D01*
X30121018Y29245000D01*
X30121019Y29245000D01*
X30243689Y29257082D01*
X30401087Y29304828D01*
X30546146Y29382364D01*
X30673291Y29486709D01*
X30699446Y29518579D01*
X35101428Y33920560D01*
X35133291Y33946709D01*
X35237636Y34073854D01*
X35315172Y34218913D01*
X35362918Y34376311D01*
X35375000Y34498981D01*
X35375000Y34498991D01*
X35379039Y34539999D01*
X35375000Y34581007D01*
X35375000Y35771935D01*
X35486632Y35846525D01*
X35693475Y36053368D01*
X35855990Y36296589D01*
X35967932Y36566842D01*
X36025000Y36853740D01*
X36025000Y37146260D01*
X35967932Y37433158D01*
X35855990Y37703411D01*
X35693475Y37946632D01*
X35486632Y38153475D01*
X35243411Y38315990D01*
X34973158Y38427932D01*
X34686260Y38485000D01*
X34393740Y38485000D01*
X34106842Y38427932D01*
X33836589Y38315990D01*
X33593368Y38153475D01*
X33386525Y37946632D01*
X33270000Y37772240D01*
X33153475Y37946632D01*
X32946632Y38153475D01*
X32795354Y38254556D01*
X32775172Y38321087D01*
X32697636Y38466146D01*
X32619439Y38561430D01*
X32619437Y38561432D01*
X32593291Y38593291D01*
X32561433Y38619436D01*
X30119446Y41061421D01*
X30093291Y41093291D01*
X29966146Y41197636D01*
X29821087Y41275172D01*
X29663689Y41322918D01*
X29541019Y41335000D01*
X29541018Y41335000D01*
X29500000Y41339040D01*
X29458982Y41335000D01*
X24188072Y41335000D01*
X24188072Y42400000D01*
X24175812Y42524482D01*
X24139502Y42644180D01*
X24080537Y42754494D01*
X24001185Y42851185D01*
X23904494Y42930537D01*
X23794180Y42989502D01*
X23674482Y43025812D01*
X23550000Y43038072D01*
X21550000Y43038072D01*
X21425518Y43025812D01*
X21305820Y42989502D01*
X21195506Y42930537D01*
X21098815Y42851185D01*
X21019463Y42754494D01*
X20960498Y42644180D01*
X20924188Y42524482D01*
X20911928Y42400000D01*
X20911928Y41335000D01*
X17879701Y41335000D01*
X17875812Y41374482D01*
X17839502Y41494180D01*
X17780537Y41604494D01*
X17743191Y41650000D01*
X17780537Y41695506D01*
X17839502Y41805820D01*
X17875812Y41925518D01*
X17888072Y42050000D01*
X17885000Y42514250D01*
X17726250Y42673000D01*
X16377000Y42673000D01*
X16377000Y42653000D01*
X16123000Y42653000D01*
X16123000Y42673000D01*
X16103000Y42673000D01*
X16103000Y42927000D01*
X16123000Y42927000D01*
X16123000Y44026250D01*
X16377000Y44026250D01*
X16377000Y42927000D01*
X17726250Y42927000D01*
X17885000Y43085750D01*
X17888072Y43550000D01*
X17875812Y43674482D01*
X17839502Y43794180D01*
X17780537Y43904494D01*
X17701185Y44001185D01*
X17604494Y44080537D01*
X17494180Y44139502D01*
X17374482Y44175812D01*
X17250000Y44188072D01*
X16535750Y44185000D01*
X16377000Y44026250D01*
X16123000Y44026250D01*
X15964250Y44185000D01*
X15250000Y44188072D01*
X15125518Y44175812D01*
X15005820Y44139502D01*
X14895506Y44080537D01*
X14798815Y44001185D01*
X14719463Y43904494D01*
X14713016Y43892432D01*
X14713072Y43900000D01*
X14700812Y44024482D01*
X14664502Y44144180D01*
X14605537Y44254494D01*
X14526185Y44351185D01*
X14429494Y44430537D01*
X14319180Y44489502D01*
X14199482Y44525812D01*
X14075000Y44538072D01*
X13685750Y44535000D01*
X13527000Y44376250D01*
X13527000Y43327000D01*
X13547000Y43327000D01*
X13547000Y43073000D01*
X13527000Y43073000D01*
X13527000Y42023750D01*
X13685750Y41865000D01*
X14075000Y41861928D01*
X14199482Y41874188D01*
X14319180Y41910498D01*
X14429494Y41969463D01*
X14526185Y42048815D01*
X14605537Y42145506D01*
X14612648Y42158810D01*
X14611928Y42050000D01*
X14624188Y41925518D01*
X14660498Y41805820D01*
X14719463Y41695506D01*
X14756809Y41650000D01*
X14719463Y41604494D01*
X14660498Y41494180D01*
X14624188Y41374482D01*
X14620461Y41336643D01*
X14563405Y41443387D01*
X14452962Y41577962D01*
X14318387Y41688405D01*
X14164851Y41770472D01*
X13998255Y41821008D01*
X13825001Y41838072D01*
X12974999Y41838072D01*
X12801745Y41821008D01*
X12635149Y41770472D01*
X12481613Y41688405D01*
X12347038Y41577962D01*
X12236595Y41443387D01*
X12154528Y41289851D01*
X12103992Y41123255D01*
X12086928Y40950001D01*
X12086928Y40049999D01*
X12103992Y39876745D01*
X12154528Y39710149D01*
X12236595Y39556613D01*
X12347038Y39422038D01*
X12481613Y39311595D01*
X12635149Y39229528D01*
X12640001Y39228056D01*
X12640001Y38703712D01*
X12596063Y38659774D01*
X12482795Y38490256D01*
X12404774Y38301898D01*
X12365000Y38101939D01*
X12365000Y37898061D01*
X12397435Y37735000D01*
X11235000Y37735000D01*
X11235000Y39490298D01*
X11368386Y39561595D01*
X11502962Y39672038D01*
X11613405Y39806614D01*
X11695472Y39960150D01*
X11746008Y40126746D01*
X11763072Y40300000D01*
X11763072Y40800000D01*
X11746008Y40973254D01*
X11695472Y41139850D01*
X11613405Y41293386D01*
X11502962Y41427962D01*
X11496406Y41433342D01*
X11576185Y41498815D01*
X11655537Y41595506D01*
X11714502Y41705820D01*
X11750812Y41825518D01*
X11763072Y41950000D01*
X11760000Y42164250D01*
X11601250Y42323000D01*
X10527000Y42323000D01*
X10527000Y42303000D01*
X10273000Y42303000D01*
X10273000Y42323000D01*
X9198750Y42323000D01*
X9040000Y42164250D01*
X9036928Y41950000D01*
X9049188Y41825518D01*
X9085498Y41705820D01*
X9144463Y41595506D01*
X9223815Y41498815D01*
X9303594Y41433342D01*
X9297038Y41427962D01*
X9186595Y41293386D01*
X9104528Y41139850D01*
X9053992Y40973254D01*
X9036928Y40800000D01*
X9036928Y40300000D01*
X9053992Y40126746D01*
X9104528Y39960150D01*
X9186595Y39806614D01*
X9297038Y39672038D01*
X9431614Y39561595D01*
X9565000Y39490298D01*
X9565001Y37245869D01*
X8338574Y36019441D01*
X8306710Y35993291D01*
X8234925Y35905820D01*
X8202364Y35866145D01*
X8124828Y35721086D01*
X8077082Y35563688D01*
X8060960Y35400000D01*
X8065001Y35358972D01*
X8065000Y28925868D01*
X8047422Y28908290D01*
X7971185Y29001185D01*
X7874494Y29080537D01*
X7764180Y29139502D01*
X7644482Y29175812D01*
X7557137Y29184414D01*
X7570491Y29320000D01*
X7548577Y29542499D01*
X7483676Y29756447D01*
X7378284Y29953623D01*
X7236449Y30126449D01*
X7063623Y30268284D01*
X6866447Y30373676D01*
X6652499Y30438577D01*
X6485752Y30455000D01*
X5274248Y30455000D01*
X5107501Y30438577D01*
X4893553Y30373676D01*
X4696377Y30268284D01*
X4523551Y30126449D01*
X4381716Y29953623D01*
X4276324Y29756447D01*
X4211423Y29542499D01*
X4189509Y29320000D01*
X4211423Y29097501D01*
X4276324Y28883553D01*
X4381716Y28686377D01*
X4523551Y28513551D01*
X4580715Y28466638D01*
X4499259Y28344731D01*
X4426892Y28170022D01*
X4390000Y27984552D01*
X4390000Y27795448D01*
X4426892Y27609978D01*
X4499259Y27435269D01*
X4604319Y27278036D01*
X4690343Y27192012D01*
X4509744Y27117205D01*
X4340226Y27003937D01*
X4196063Y26859774D01*
X4082795Y26690256D01*
X4004774Y26501898D01*
X3965000Y26301939D01*
X3965000Y26098061D01*
X4004774Y25898102D01*
X4082795Y25709744D01*
X4196063Y25540226D01*
X4340226Y25396063D01*
X4379810Y25369614D01*
X3543983Y24533786D01*
X3514979Y24509983D01*
X3459851Y24442808D01*
X3420006Y24394258D01*
X3366659Y24294454D01*
X3349434Y24262228D01*
X3305977Y24118967D01*
X3294980Y24007314D01*
X3294980Y24007304D01*
X3291304Y23969982D01*
X660000Y23969982D01*
X660000Y28459018D01*
X766377Y28371716D01*
X963553Y28266324D01*
X1177501Y28201423D01*
X1344248Y28185000D01*
X2055752Y28185000D01*
X2222499Y28201423D01*
X2436447Y28266324D01*
X2633623Y28371716D01*
X2806449Y28513551D01*
X2948284Y28686377D01*
X3053676Y28883553D01*
X3118577Y29097501D01*
X3140491Y29320000D01*
X3118577Y29542499D01*
X3053676Y29756447D01*
X2948284Y29953623D01*
X2806449Y30126449D01*
X2633623Y30268284D01*
X2436447Y30373676D01*
X2222499Y30438577D01*
X2055752Y30455000D01*
X1344248Y30455000D01*
X1177501Y30438577D01*
X963553Y30373676D01*
X766377Y30268284D01*
X660000Y30180982D01*
X660000Y42500000D01*
X12086928Y42500000D01*
X12099188Y42375518D01*
X12135498Y42255820D01*
X12194463Y42145506D01*
X12273815Y42048815D01*
X12370506Y41969463D01*
X12480820Y41910498D01*
X12600518Y41874188D01*
X12725000Y41861928D01*
X13114250Y41865000D01*
X13273000Y42023750D01*
X13273000Y43073000D01*
X12248750Y43073000D01*
X12090000Y42914250D01*
X12086928Y42500000D01*
X660000Y42500000D01*
X660000Y44970608D01*
X682269Y45220128D01*
X2765000Y45220128D01*
X2765000Y44779872D01*
X2850890Y44348075D01*
X3019369Y43941331D01*
X3263962Y43575271D01*
X3575271Y43263962D01*
X3941331Y43019369D01*
X4348075Y42850890D01*
X4779872Y42765000D01*
X5220128Y42765000D01*
X5651925Y42850890D01*
X5891197Y42950000D01*
X9036928Y42950000D01*
X9040000Y42735750D01*
X9198750Y42577000D01*
X10273000Y42577000D01*
X10273000Y43426250D01*
X10527000Y43426250D01*
X10527000Y42577000D01*
X11601250Y42577000D01*
X11760000Y42735750D01*
X11763072Y42950000D01*
X11750812Y43074482D01*
X11714502Y43194180D01*
X11655537Y43304494D01*
X11576185Y43401185D01*
X11479494Y43480537D01*
X11369180Y43539502D01*
X11249482Y43575812D01*
X11125000Y43588072D01*
X10685750Y43585000D01*
X10527000Y43426250D01*
X10273000Y43426250D01*
X10114250Y43585000D01*
X9675000Y43588072D01*
X9550518Y43575812D01*
X9430820Y43539502D01*
X9320506Y43480537D01*
X9223815Y43401185D01*
X9144463Y43304494D01*
X9085498Y43194180D01*
X9049188Y43074482D01*
X9036928Y42950000D01*
X5891197Y42950000D01*
X6058669Y43019369D01*
X6424729Y43263962D01*
X6736038Y43575271D01*
X6953014Y43900000D01*
X12086928Y43900000D01*
X12090000Y43485750D01*
X12248750Y43327000D01*
X13273000Y43327000D01*
X13273000Y44376250D01*
X13114250Y44535000D01*
X12725000Y44538072D01*
X12600518Y44525812D01*
X12480820Y44489502D01*
X12370506Y44430537D01*
X12273815Y44351185D01*
X12194463Y44254494D01*
X12135498Y44144180D01*
X12099188Y44024482D01*
X12086928Y43900000D01*
X6953014Y43900000D01*
X6980631Y43941331D01*
X7149110Y44348075D01*
X7235000Y44779872D01*
X7235000Y45220128D01*
X42765000Y45220128D01*
X42765000Y44779872D01*
X42850890Y44348075D01*
X43019369Y43941331D01*
X43263962Y43575271D01*
X43575271Y43263962D01*
X43941331Y43019369D01*
X44348075Y42850890D01*
X44779872Y42765000D01*
X45220128Y42765000D01*
X45651925Y42850890D01*
X46058669Y43019369D01*
X46424729Y43263962D01*
X46736038Y43575271D01*
X46980631Y43941331D01*
X47149110Y44348075D01*
X47235000Y44779872D01*
X47235000Y45220128D01*
X47149110Y45651925D01*
X46980631Y46058669D01*
X46736038Y46424729D01*
X46424729Y46736038D01*
X46058669Y46980631D01*
X45651925Y47149110D01*
X45220128Y47235000D01*
X44779872Y47235000D01*
X44348075Y47149110D01*
X43941331Y46980631D01*
X43575271Y46736038D01*
X43263962Y46424729D01*
X43019369Y46058669D01*
X42850890Y45651925D01*
X42765000Y45220128D01*
X7235000Y45220128D01*
X7149110Y45651925D01*
X6980631Y46058669D01*
X6736038Y46424729D01*
X6424729Y46736038D01*
X6058669Y46980631D01*
X5651925Y47149110D01*
X5220128Y47235000D01*
X4779872Y47235000D01*
X4348075Y47149110D01*
X3941331Y46980631D01*
X3575271Y46736038D01*
X3263962Y46424729D01*
X3019369Y46058669D01*
X2850890Y45651925D01*
X2765000Y45220128D01*
X682269Y45220128D01*
X731173Y45768083D01*
X934656Y46511891D01*
X1266638Y47207905D01*
X1716626Y47834130D01*
X2270403Y48370777D01*
X2910451Y48800871D01*
X3616553Y49110829D01*
X4371457Y49292065D01*
X5024207Y49340000D01*
X44970608Y49340000D01*
X45768083Y49268827D01*
%TA.AperFunction,Conductor*%
D26*
G36*
X45768083Y49268827D02*
G01*
X46511891Y49065344D01*
X47207905Y48733362D01*
X47834130Y48283374D01*
X48370777Y47729597D01*
X48800871Y47089549D01*
X49110829Y46383447D01*
X49292065Y45628543D01*
X49340000Y44975793D01*
X49340001Y5029403D01*
X49268827Y4231917D01*
X49065344Y3488110D01*
X48733363Y2792096D01*
X48283374Y2165870D01*
X47729597Y1629223D01*
X47089549Y1199129D01*
X46383447Y889171D01*
X45628543Y707935D01*
X44975793Y660000D01*
X5029392Y660000D01*
X4231917Y731173D01*
X3488110Y934656D01*
X2792096Y1266637D01*
X2165870Y1716626D01*
X1629223Y2270403D01*
X1199129Y2910451D01*
X889171Y3616553D01*
X707935Y4371457D01*
X660000Y5024207D01*
X660000Y5220128D01*
X2765000Y5220128D01*
X2765000Y4779872D01*
X2850890Y4348075D01*
X3019369Y3941331D01*
X3263962Y3575271D01*
X3575271Y3263962D01*
X3941331Y3019369D01*
X4348075Y2850890D01*
X4779872Y2765000D01*
X5220128Y2765000D01*
X5651925Y2850890D01*
X6058669Y3019369D01*
X6424729Y3263962D01*
X6736038Y3575271D01*
X6980631Y3941331D01*
X7149110Y4348075D01*
X7235000Y4779872D01*
X7235000Y5220128D01*
X7149110Y5651925D01*
X6980631Y6058669D01*
X6736038Y6424729D01*
X6424729Y6736038D01*
X6058669Y6980631D01*
X5651925Y7149110D01*
X5220128Y7235000D01*
X4779872Y7235000D01*
X4348075Y7149110D01*
X3941331Y6980631D01*
X3575271Y6736038D01*
X3263962Y6424729D01*
X3019369Y6058669D01*
X2850890Y5651925D01*
X2765000Y5220128D01*
X660000Y5220128D01*
X660000Y19819018D01*
X766377Y19731716D01*
X963553Y19626324D01*
X1177501Y19561423D01*
X1344248Y19545000D01*
X2055752Y19545000D01*
X2222499Y19561423D01*
X2436447Y19626324D01*
X2633623Y19731716D01*
X2806449Y19873551D01*
X2948284Y20046377D01*
X3053676Y20243553D01*
X3118577Y20457501D01*
X3140491Y20680000D01*
X3118577Y20902499D01*
X3053676Y21116447D01*
X2948284Y21313623D01*
X2806449Y21486449D01*
X2633623Y21628284D01*
X2436447Y21733676D01*
X2222499Y21798577D01*
X2055752Y21815000D01*
X1344248Y21815000D01*
X1177501Y21798577D01*
X963553Y21733676D01*
X766377Y21628284D01*
X660000Y21540982D01*
X660000Y23969982D01*
X3291304Y23969982D01*
X3294980Y23932660D01*
X3294981Y14207752D01*
X3291304Y14170420D01*
X3305978Y14021435D01*
X3349434Y13878174D01*
X3420006Y13746144D01*
X3491181Y13659418D01*
X3514980Y13630419D01*
X3543978Y13606621D01*
X14336635Y2813962D01*
X14360429Y2784969D01*
X14389422Y2761175D01*
X14389426Y2761171D01*
X14423111Y2733527D01*
X14476154Y2689996D01*
X14608183Y2619424D01*
X14751444Y2575967D01*
X14863097Y2564970D01*
X14863106Y2564970D01*
X14900429Y2561294D01*
X14937752Y2564970D01*
X22742648Y2564970D01*
X22779970Y2561294D01*
X22817292Y2564970D01*
X22817303Y2564970D01*
X22928956Y2575967D01*
X23072217Y2619424D01*
X23204246Y2689996D01*
X23319971Y2784969D01*
X23343774Y2813973D01*
X24516004Y3986202D01*
X24545001Y4009999D01*
X24558420Y4026350D01*
X24592829Y4044742D01*
X24640000Y4083454D01*
X24687171Y4044742D01*
X24823418Y3971916D01*
X24971255Y3927071D01*
X25125000Y3911928D01*
X25425000Y3911928D01*
X25578745Y3927071D01*
X25726582Y3971916D01*
X25862829Y4044742D01*
X25910000Y4083454D01*
X25957171Y4044742D01*
X26093418Y3971916D01*
X26241255Y3927071D01*
X26395000Y3911928D01*
X26695000Y3911928D01*
X26848745Y3927071D01*
X26996582Y3971916D01*
X27132829Y4044742D01*
X27222097Y4118002D01*
X27225724Y4115026D01*
X27357753Y4044454D01*
X27501014Y4000997D01*
X27563537Y3994839D01*
X27650000Y3986323D01*
X27687333Y3990000D01*
X28100230Y3990000D01*
X28197038Y3872038D01*
X28331614Y3761595D01*
X28485150Y3679528D01*
X28651746Y3628992D01*
X28825000Y3611928D01*
X29775000Y3611928D01*
X29948254Y3628992D01*
X30114850Y3679528D01*
X30268386Y3761595D01*
X30402962Y3872038D01*
X30499770Y3990000D01*
X33292678Y3990000D01*
X33330000Y3986324D01*
X33367322Y3990000D01*
X33367333Y3990000D01*
X33478986Y4000997D01*
X33622247Y4044454D01*
X33754276Y4115026D01*
X33814701Y4164616D01*
X33963589Y4135000D01*
X34236411Y4135000D01*
X34503989Y4188225D01*
X34756043Y4292629D01*
X34982886Y4444201D01*
X35175799Y4637114D01*
X35327371Y4863957D01*
X35431775Y5116011D01*
X35452485Y5220128D01*
X42765000Y5220128D01*
X42765000Y4779872D01*
X42850890Y4348075D01*
X43019369Y3941331D01*
X43263962Y3575271D01*
X43575271Y3263962D01*
X43941331Y3019369D01*
X44348075Y2850890D01*
X44779872Y2765000D01*
X45220128Y2765000D01*
X45651925Y2850890D01*
X46058669Y3019369D01*
X46424729Y3263962D01*
X46736038Y3575271D01*
X46980631Y3941331D01*
X47149110Y4348075D01*
X47235000Y4779872D01*
X47235000Y5220128D01*
X47149110Y5651925D01*
X46980631Y6058669D01*
X46736038Y6424729D01*
X46424729Y6736038D01*
X46058669Y6980631D01*
X45651925Y7149110D01*
X45220128Y7235000D01*
X44779872Y7235000D01*
X44348075Y7149110D01*
X43941331Y6980631D01*
X43575271Y6736038D01*
X43263962Y6424729D01*
X43019369Y6058669D01*
X42850890Y5651925D01*
X42765000Y5220128D01*
X35452485Y5220128D01*
X35485000Y5383589D01*
X35485000Y5656411D01*
X35431775Y5923989D01*
X35327371Y6176043D01*
X35175799Y6402886D01*
X34982886Y6595799D01*
X34756043Y6747371D01*
X34503989Y6851775D01*
X34236411Y6905000D01*
X33963589Y6905000D01*
X33696011Y6851775D01*
X33443957Y6747371D01*
X33217114Y6595799D01*
X33024201Y6402886D01*
X32872629Y6176043D01*
X32768225Y5923989D01*
X32715000Y5656411D01*
X32715000Y5510000D01*
X30499770Y5510000D01*
X30402962Y5627962D01*
X30396406Y5633342D01*
X30476185Y5698815D01*
X30555537Y5795506D01*
X30614502Y5905820D01*
X30650812Y6025518D01*
X30663072Y6150000D01*
X30660000Y6364250D01*
X30501250Y6523000D01*
X29427000Y6523000D01*
X29427000Y6503000D01*
X29173000Y6503000D01*
X29173000Y6523000D01*
X28098750Y6523000D01*
X27940000Y6364250D01*
X27936928Y6150000D01*
X27949188Y6025518D01*
X27985498Y5905820D01*
X28044463Y5795506D01*
X28123815Y5698815D01*
X28203594Y5633342D01*
X28197038Y5627962D01*
X28100230Y5510000D01*
X27964802Y5510000D01*
X27483072Y5991729D01*
X27483072Y6350000D01*
X27467929Y6503745D01*
X27423084Y6651582D01*
X27350258Y6787829D01*
X27252251Y6907251D01*
X27132829Y7005258D01*
X26996582Y7078084D01*
X26886330Y7111528D01*
X26924802Y7150000D01*
X27936928Y7150000D01*
X27940000Y6935750D01*
X28098750Y6777000D01*
X29173000Y6777000D01*
X29173000Y7626250D01*
X29427000Y7626250D01*
X29427000Y6777000D01*
X30501250Y6777000D01*
X30660000Y6935750D01*
X30663072Y7150000D01*
X30650812Y7274482D01*
X30614502Y7394180D01*
X30555537Y7504494D01*
X30476185Y7601185D01*
X30379494Y7680537D01*
X30269180Y7739502D01*
X30149482Y7775812D01*
X30025000Y7788072D01*
X29585750Y7785000D01*
X29427000Y7626250D01*
X29173000Y7626250D01*
X29014250Y7785000D01*
X28575000Y7788072D01*
X28450518Y7775812D01*
X28330820Y7739502D01*
X28220506Y7680537D01*
X28123815Y7601185D01*
X28044463Y7504494D01*
X27985498Y7394180D01*
X27949188Y7274482D01*
X27936928Y7150000D01*
X26924802Y7150000D01*
X28101188Y8326386D01*
X28123815Y8298815D01*
X28220506Y8219463D01*
X28330820Y8160498D01*
X28450518Y8124188D01*
X28575000Y8111928D01*
X29014250Y8115000D01*
X29173000Y8273750D01*
X29173000Y9123000D01*
X29427000Y9123000D01*
X29427000Y8273750D01*
X29585750Y8115000D01*
X30025000Y8111928D01*
X30149482Y8124188D01*
X30269180Y8160498D01*
X30379494Y8219463D01*
X30476185Y8298815D01*
X30555537Y8395506D01*
X30614502Y8505820D01*
X30650812Y8625518D01*
X30663072Y8750000D01*
X30660000Y8964250D01*
X30501250Y9123000D01*
X29427000Y9123000D01*
X29173000Y9123000D01*
X29153000Y9123000D01*
X29153000Y9377000D01*
X29173000Y9377000D01*
X29173000Y9397000D01*
X29427000Y9397000D01*
X29427000Y9377000D01*
X30501250Y9377000D01*
X30660000Y9535750D01*
X30663072Y9750000D01*
X30650812Y9874482D01*
X30614502Y9994180D01*
X30555537Y10104494D01*
X30476185Y10201185D01*
X30396406Y10266658D01*
X30402962Y10272038D01*
X30499771Y10390000D01*
X32715000Y10389999D01*
X32715000Y10263589D01*
X32768225Y9996011D01*
X32872629Y9743957D01*
X33024201Y9517114D01*
X33217114Y9324201D01*
X33443957Y9172629D01*
X33696011Y9068225D01*
X33963589Y9015000D01*
X34236411Y9015000D01*
X34503989Y9068225D01*
X34756043Y9172629D01*
X34982886Y9324201D01*
X35175799Y9517114D01*
X35327371Y9743957D01*
X35431775Y9996011D01*
X35485000Y10263589D01*
X35485000Y10536411D01*
X35431775Y10803989D01*
X35327371Y11056043D01*
X35175799Y11282886D01*
X34982886Y11475799D01*
X34756043Y11627371D01*
X34503989Y11731775D01*
X34236411Y11785000D01*
X33963589Y11785000D01*
X33811183Y11754684D01*
X33774277Y11784973D01*
X33642247Y11855545D01*
X33517497Y11893386D01*
X33498987Y11899001D01*
X33387334Y11909998D01*
X33350001Y11913675D01*
X33312669Y11909998D01*
X30499771Y11909999D01*
X30402962Y12027962D01*
X30268386Y12138405D01*
X30114850Y12220472D01*
X29948254Y12271008D01*
X29775000Y12288072D01*
X28825000Y12288072D01*
X28651746Y12271008D01*
X28485150Y12220472D01*
X28331614Y12138405D01*
X28197038Y12027962D01*
X28100230Y11910000D01*
X28087325Y11910000D01*
X28050000Y11913676D01*
X28012675Y11910000D01*
X28012667Y11910000D01*
X27901014Y11899003D01*
X27757753Y11855546D01*
X27625724Y11784974D01*
X27509999Y11690001D01*
X27486196Y11660997D01*
X27423944Y11598745D01*
X27423084Y11601582D01*
X27350258Y11737829D01*
X27252251Y11857251D01*
X27132829Y11955258D01*
X26996582Y12028084D01*
X26848745Y12072929D01*
X26695000Y12088072D01*
X26395000Y12088072D01*
X26241255Y12072929D01*
X26093418Y12028084D01*
X25957171Y11955258D01*
X25910000Y11916546D01*
X25862829Y11955258D01*
X25726582Y12028084D01*
X25578745Y12072929D01*
X25425000Y12088072D01*
X25125000Y12088072D01*
X24971255Y12072929D01*
X24823418Y12028084D01*
X24687171Y11955258D01*
X24640000Y11916546D01*
X24592829Y11955258D01*
X24456582Y12028084D01*
X24308745Y12072929D01*
X24155000Y12088072D01*
X23855000Y12088072D01*
X23701255Y12072929D01*
X23553418Y12028084D01*
X23417171Y11955258D01*
X23370000Y11916546D01*
X23322829Y11955258D01*
X23186582Y12028084D01*
X23038745Y12072929D01*
X22885000Y12088072D01*
X22585000Y12088072D01*
X22431255Y12072929D01*
X22283418Y12028084D01*
X22225000Y11996859D01*
X22225000Y12335201D01*
X26772732Y16882932D01*
X26819463Y16795506D01*
X26898815Y16698815D01*
X26995506Y16619463D01*
X27105820Y16560498D01*
X27225518Y16524188D01*
X27350000Y16511928D01*
X28250000Y16511928D01*
X28374482Y16524188D01*
X28494180Y16560498D01*
X28604494Y16619463D01*
X28701185Y16698815D01*
X28776018Y16790000D01*
X31412678Y16790000D01*
X31450000Y16786324D01*
X31487322Y16790000D01*
X31487333Y16790000D01*
X31598986Y16800997D01*
X31742247Y16844454D01*
X31874276Y16915026D01*
X31990001Y17009999D01*
X32013804Y17039002D01*
X33011003Y18036201D01*
X33040001Y18059999D01*
X33134974Y18175724D01*
X33205546Y18307753D01*
X33229333Y18386170D01*
X33289852Y18404528D01*
X33443387Y18486595D01*
X33577962Y18597038D01*
X33688405Y18731613D01*
X33770472Y18885148D01*
X33821008Y19051744D01*
X33838072Y19224998D01*
X33838072Y19750002D01*
X33821008Y19923256D01*
X33770472Y20089852D01*
X33688405Y20243387D01*
X33577962Y20377962D01*
X33551109Y20400000D01*
X33577962Y20422038D01*
X33688405Y20556613D01*
X33770472Y20710148D01*
X33821008Y20876744D01*
X33838072Y21049998D01*
X33838072Y21575002D01*
X33821008Y21748256D01*
X33770472Y21914852D01*
X33688405Y22068387D01*
X33577962Y22202962D01*
X33443387Y22313405D01*
X33289852Y22395472D01*
X33187174Y22426619D01*
X33134974Y22524276D01*
X33063799Y22611003D01*
X33040001Y22640001D01*
X33011004Y22663798D01*
X31913804Y23760997D01*
X31890001Y23790001D01*
X31774276Y23884974D01*
X31642247Y23955546D01*
X31498986Y23999003D01*
X31387333Y24010000D01*
X31387322Y24010000D01*
X31350000Y24013676D01*
X31312678Y24010000D01*
X28776018Y24010000D01*
X28701185Y24101185D01*
X28604494Y24180537D01*
X28494180Y24239502D01*
X28374482Y24275812D01*
X28250000Y24288072D01*
X27350000Y24288072D01*
X27225518Y24275812D01*
X27105820Y24239502D01*
X26995506Y24180537D01*
X26898815Y24101185D01*
X26819463Y24004494D01*
X26760498Y23894180D01*
X26724188Y23774482D01*
X26711928Y23650000D01*
X26711928Y23138095D01*
X26701185Y23151185D01*
X26604494Y23230537D01*
X26494180Y23289502D01*
X26374482Y23325812D01*
X26250000Y23338072D01*
X25350000Y23338072D01*
X25225518Y23325812D01*
X25105820Y23289502D01*
X24995506Y23230537D01*
X24898815Y23151185D01*
X24823982Y23060000D01*
X24437325Y23060000D01*
X24400000Y23063676D01*
X24362675Y23060000D01*
X24362667Y23060000D01*
X24251014Y23049003D01*
X24107753Y23005546D01*
X23975724Y22934974D01*
X23859999Y22840001D01*
X23836201Y22811003D01*
X19265241Y18240043D01*
X19105134Y18435134D01*
X18879014Y18620706D01*
X18824209Y18650000D01*
X18879014Y18679294D01*
X19105134Y18864866D01*
X19290706Y19090986D01*
X19428599Y19348966D01*
X19513513Y19628889D01*
X19542185Y19920000D01*
X19513513Y20211111D01*
X19428599Y20491034D01*
X19290706Y20749014D01*
X19105134Y20975134D01*
X18879014Y21160706D01*
X18820663Y21191895D01*
X18980619Y21295824D01*
X19189857Y21499748D01*
X19355291Y21740574D01*
X19470563Y22009047D01*
X19491476Y22103110D01*
X19370155Y22333000D01*
X17527000Y22333000D01*
X17527000Y22313000D01*
X17273000Y22313000D01*
X17273000Y22333000D01*
X17253000Y22333000D01*
X17253000Y22587000D01*
X17273000Y22587000D01*
X17273000Y22607000D01*
X17527000Y22607000D01*
X17527000Y22587000D01*
X19370155Y22587000D01*
X19491476Y22816890D01*
X19470563Y22910953D01*
X19355291Y23179426D01*
X19189857Y23420252D01*
X18980619Y23624176D01*
X18820663Y23728105D01*
X18879014Y23759294D01*
X19105134Y23944866D01*
X19290706Y24170986D01*
X19428599Y24428966D01*
X19513513Y24708889D01*
X19542185Y25000000D01*
X19513513Y25291111D01*
X19428599Y25571034D01*
X19290706Y25829014D01*
X19105134Y26055134D01*
X18879014Y26240706D01*
X18824209Y26270000D01*
X18879014Y26299294D01*
X19105134Y26484866D01*
X19290706Y26710986D01*
X19428599Y26968966D01*
X19513513Y27248889D01*
X19542185Y27540000D01*
X19513513Y27831111D01*
X19428599Y28111034D01*
X19290706Y28369014D01*
X19105134Y28595134D01*
X18879014Y28780706D01*
X18824209Y28810000D01*
X18879014Y28839294D01*
X19105134Y29024866D01*
X19285793Y29245000D01*
X30038982Y29245000D01*
X30080000Y29240960D01*
X30121018Y29245000D01*
X30121019Y29245000D01*
X30243689Y29257082D01*
X30401087Y29304828D01*
X30546146Y29382364D01*
X30673291Y29486709D01*
X30699446Y29518579D01*
X35101428Y33920560D01*
X35133291Y33946709D01*
X35237636Y34073854D01*
X35315172Y34218913D01*
X35362918Y34376311D01*
X35375000Y34498981D01*
X35375000Y34498991D01*
X35379039Y34539999D01*
X35375000Y34581007D01*
X35375000Y35771935D01*
X35486632Y35846525D01*
X35693475Y36053368D01*
X35855990Y36296589D01*
X35967932Y36566842D01*
X36025000Y36853740D01*
X36025000Y37146260D01*
X35967932Y37433158D01*
X35855990Y37703411D01*
X35693475Y37946632D01*
X35486632Y38153475D01*
X35243411Y38315990D01*
X34973158Y38427932D01*
X34686260Y38485000D01*
X34393740Y38485000D01*
X34106842Y38427932D01*
X33836589Y38315990D01*
X33593368Y38153475D01*
X33386525Y37946632D01*
X33270000Y37772240D01*
X33153475Y37946632D01*
X32946632Y38153475D01*
X32795354Y38254556D01*
X32775172Y38321087D01*
X32697636Y38466146D01*
X32619439Y38561430D01*
X32619437Y38561432D01*
X32593291Y38593291D01*
X32561433Y38619436D01*
X30119446Y41061421D01*
X30093291Y41093291D01*
X29966146Y41197636D01*
X29821087Y41275172D01*
X29663689Y41322918D01*
X29541019Y41335000D01*
X29541018Y41335000D01*
X29500000Y41339040D01*
X29458982Y41335000D01*
X24188072Y41335000D01*
X24188072Y42400000D01*
X24175812Y42524482D01*
X24139502Y42644180D01*
X24080537Y42754494D01*
X24001185Y42851185D01*
X23904494Y42930537D01*
X23794180Y42989502D01*
X23674482Y43025812D01*
X23550000Y43038072D01*
X21550000Y43038072D01*
X21425518Y43025812D01*
X21305820Y42989502D01*
X21195506Y42930537D01*
X21098815Y42851185D01*
X21019463Y42754494D01*
X20960498Y42644180D01*
X20924188Y42524482D01*
X20911928Y42400000D01*
X20911928Y41335000D01*
X17879701Y41335000D01*
X17875812Y41374482D01*
X17839502Y41494180D01*
X17780537Y41604494D01*
X17743191Y41650000D01*
X17780537Y41695506D01*
X17839502Y41805820D01*
X17875812Y41925518D01*
X17888072Y42050000D01*
X17885000Y42514250D01*
X17726250Y42673000D01*
X16377000Y42673000D01*
X16377000Y42653000D01*
X16123000Y42653000D01*
X16123000Y42673000D01*
X16103000Y42673000D01*
X16103000Y42927000D01*
X16123000Y42927000D01*
X16123000Y44026250D01*
X16377000Y44026250D01*
X16377000Y42927000D01*
X17726250Y42927000D01*
X17885000Y43085750D01*
X17888072Y43550000D01*
X17875812Y43674482D01*
X17839502Y43794180D01*
X17780537Y43904494D01*
X17701185Y44001185D01*
X17604494Y44080537D01*
X17494180Y44139502D01*
X17374482Y44175812D01*
X17250000Y44188072D01*
X16535750Y44185000D01*
X16377000Y44026250D01*
X16123000Y44026250D01*
X15964250Y44185000D01*
X15250000Y44188072D01*
X15125518Y44175812D01*
X15005820Y44139502D01*
X14895506Y44080537D01*
X14798815Y44001185D01*
X14719463Y43904494D01*
X14713016Y43892432D01*
X14713072Y43900000D01*
X14700812Y44024482D01*
X14664502Y44144180D01*
X14605537Y44254494D01*
X14526185Y44351185D01*
X14429494Y44430537D01*
X14319180Y44489502D01*
X14199482Y44525812D01*
X14075000Y44538072D01*
X13685750Y44535000D01*
X13527000Y44376250D01*
X13527000Y43327000D01*
X13547000Y43327000D01*
X13547000Y43073000D01*
X13527000Y43073000D01*
X13527000Y42023750D01*
X13685750Y41865000D01*
X14075000Y41861928D01*
X14199482Y41874188D01*
X14319180Y41910498D01*
X14429494Y41969463D01*
X14526185Y42048815D01*
X14605537Y42145506D01*
X14612648Y42158810D01*
X14611928Y42050000D01*
X14624188Y41925518D01*
X14660498Y41805820D01*
X14719463Y41695506D01*
X14756809Y41650000D01*
X14719463Y41604494D01*
X14660498Y41494180D01*
X14624188Y41374482D01*
X14620461Y41336643D01*
X14563405Y41443387D01*
X14452962Y41577962D01*
X14318387Y41688405D01*
X14164851Y41770472D01*
X13998255Y41821008D01*
X13825001Y41838072D01*
X12974999Y41838072D01*
X12801745Y41821008D01*
X12635149Y41770472D01*
X12481613Y41688405D01*
X12347038Y41577962D01*
X12236595Y41443387D01*
X12154528Y41289851D01*
X12103992Y41123255D01*
X12086928Y40950001D01*
X12086928Y40049999D01*
X12103992Y39876745D01*
X12154528Y39710149D01*
X12236595Y39556613D01*
X12347038Y39422038D01*
X12481613Y39311595D01*
X12635149Y39229528D01*
X12640001Y39228056D01*
X12640001Y38703712D01*
X12596063Y38659774D01*
X12482795Y38490256D01*
X12404774Y38301898D01*
X12365000Y38101939D01*
X12365000Y37898061D01*
X12397435Y37735000D01*
X11235000Y37735000D01*
X11235000Y39490298D01*
X11368386Y39561595D01*
X11502962Y39672038D01*
X11613405Y39806614D01*
X11695472Y39960150D01*
X11746008Y40126746D01*
X11763072Y40300000D01*
X11763072Y40800000D01*
X11746008Y40973254D01*
X11695472Y41139850D01*
X11613405Y41293386D01*
X11502962Y41427962D01*
X11496406Y41433342D01*
X11576185Y41498815D01*
X11655537Y41595506D01*
X11714502Y41705820D01*
X11750812Y41825518D01*
X11763072Y41950000D01*
X11760000Y42164250D01*
X11601250Y42323000D01*
X10527000Y42323000D01*
X10527000Y42303000D01*
X10273000Y42303000D01*
X10273000Y42323000D01*
X9198750Y42323000D01*
X9040000Y42164250D01*
X9036928Y41950000D01*
X9049188Y41825518D01*
X9085498Y41705820D01*
X9144463Y41595506D01*
X9223815Y41498815D01*
X9303594Y41433342D01*
X9297038Y41427962D01*
X9186595Y41293386D01*
X9104528Y41139850D01*
X9053992Y40973254D01*
X9036928Y40800000D01*
X9036928Y40300000D01*
X9053992Y40126746D01*
X9104528Y39960150D01*
X9186595Y39806614D01*
X9297038Y39672038D01*
X9431614Y39561595D01*
X9565000Y39490298D01*
X9565001Y37245869D01*
X8338574Y36019441D01*
X8306710Y35993291D01*
X8234925Y35905820D01*
X8202364Y35866145D01*
X8124828Y35721086D01*
X8077082Y35563688D01*
X8060960Y35400000D01*
X8065001Y35358972D01*
X8065000Y28925868D01*
X8047422Y28908290D01*
X7971185Y29001185D01*
X7874494Y29080537D01*
X7764180Y29139502D01*
X7644482Y29175812D01*
X7557137Y29184414D01*
X7570491Y29320000D01*
X7548577Y29542499D01*
X7483676Y29756447D01*
X7378284Y29953623D01*
X7236449Y30126449D01*
X7063623Y30268284D01*
X6866447Y30373676D01*
X6652499Y30438577D01*
X6485752Y30455000D01*
X5274248Y30455000D01*
X5107501Y30438577D01*
X4893553Y30373676D01*
X4696377Y30268284D01*
X4523551Y30126449D01*
X4381716Y29953623D01*
X4276324Y29756447D01*
X4211423Y29542499D01*
X4189509Y29320000D01*
X4211423Y29097501D01*
X4276324Y28883553D01*
X4381716Y28686377D01*
X4523551Y28513551D01*
X4580715Y28466638D01*
X4499259Y28344731D01*
X4426892Y28170022D01*
X4390000Y27984552D01*
X4390000Y27795448D01*
X4426892Y27609978D01*
X4499259Y27435269D01*
X4604319Y27278036D01*
X4690343Y27192012D01*
X4509744Y27117205D01*
X4340226Y27003937D01*
X4196063Y26859774D01*
X4082795Y26690256D01*
X4004774Y26501898D01*
X3965000Y26301939D01*
X3965000Y26098061D01*
X4004774Y25898102D01*
X4082795Y25709744D01*
X4196063Y25540226D01*
X4340226Y25396063D01*
X4379810Y25369614D01*
X3543983Y24533786D01*
X3514979Y24509983D01*
X3459851Y24442808D01*
X3420006Y24394258D01*
X3366659Y24294454D01*
X3349434Y24262228D01*
X3305977Y24118967D01*
X3294980Y24007314D01*
X3294980Y24007304D01*
X3291304Y23969982D01*
X660000Y23969982D01*
X660000Y28459018D01*
X766377Y28371716D01*
X963553Y28266324D01*
X1177501Y28201423D01*
X1344248Y28185000D01*
X2055752Y28185000D01*
X2222499Y28201423D01*
X2436447Y28266324D01*
X2633623Y28371716D01*
X2806449Y28513551D01*
X2948284Y28686377D01*
X3053676Y28883553D01*
X3118577Y29097501D01*
X3140491Y29320000D01*
X3118577Y29542499D01*
X3053676Y29756447D01*
X2948284Y29953623D01*
X2806449Y30126449D01*
X2633623Y30268284D01*
X2436447Y30373676D01*
X2222499Y30438577D01*
X2055752Y30455000D01*
X1344248Y30455000D01*
X1177501Y30438577D01*
X963553Y30373676D01*
X766377Y30268284D01*
X660000Y30180982D01*
X660000Y42500000D01*
X12086928Y42500000D01*
X12099188Y42375518D01*
X12135498Y42255820D01*
X12194463Y42145506D01*
X12273815Y42048815D01*
X12370506Y41969463D01*
X12480820Y41910498D01*
X12600518Y41874188D01*
X12725000Y41861928D01*
X13114250Y41865000D01*
X13273000Y42023750D01*
X13273000Y43073000D01*
X12248750Y43073000D01*
X12090000Y42914250D01*
X12086928Y42500000D01*
X660000Y42500000D01*
X660000Y44970608D01*
X682269Y45220128D01*
X2765000Y45220128D01*
X2765000Y44779872D01*
X2850890Y44348075D01*
X3019369Y43941331D01*
X3263962Y43575271D01*
X3575271Y43263962D01*
X3941331Y43019369D01*
X4348075Y42850890D01*
X4779872Y42765000D01*
X5220128Y42765000D01*
X5651925Y42850890D01*
X5891197Y42950000D01*
X9036928Y42950000D01*
X9040000Y42735750D01*
X9198750Y42577000D01*
X10273000Y42577000D01*
X10273000Y43426250D01*
X10527000Y43426250D01*
X10527000Y42577000D01*
X11601250Y42577000D01*
X11760000Y42735750D01*
X11763072Y42950000D01*
X11750812Y43074482D01*
X11714502Y43194180D01*
X11655537Y43304494D01*
X11576185Y43401185D01*
X11479494Y43480537D01*
X11369180Y43539502D01*
X11249482Y43575812D01*
X11125000Y43588072D01*
X10685750Y43585000D01*
X10527000Y43426250D01*
X10273000Y43426250D01*
X10114250Y43585000D01*
X9675000Y43588072D01*
X9550518Y43575812D01*
X9430820Y43539502D01*
X9320506Y43480537D01*
X9223815Y43401185D01*
X9144463Y43304494D01*
X9085498Y43194180D01*
X9049188Y43074482D01*
X9036928Y42950000D01*
X5891197Y42950000D01*
X6058669Y43019369D01*
X6424729Y43263962D01*
X6736038Y43575271D01*
X6953014Y43900000D01*
X12086928Y43900000D01*
X12090000Y43485750D01*
X12248750Y43327000D01*
X13273000Y43327000D01*
X13273000Y44376250D01*
X13114250Y44535000D01*
X12725000Y44538072D01*
X12600518Y44525812D01*
X12480820Y44489502D01*
X12370506Y44430537D01*
X12273815Y44351185D01*
X12194463Y44254494D01*
X12135498Y44144180D01*
X12099188Y44024482D01*
X12086928Y43900000D01*
X6953014Y43900000D01*
X6980631Y43941331D01*
X7149110Y44348075D01*
X7235000Y44779872D01*
X7235000Y45220128D01*
X42765000Y45220128D01*
X42765000Y44779872D01*
X42850890Y44348075D01*
X43019369Y43941331D01*
X43263962Y43575271D01*
X43575271Y43263962D01*
X43941331Y43019369D01*
X44348075Y42850890D01*
X44779872Y42765000D01*
X45220128Y42765000D01*
X45651925Y42850890D01*
X46058669Y43019369D01*
X46424729Y43263962D01*
X46736038Y43575271D01*
X46980631Y43941331D01*
X47149110Y44348075D01*
X47235000Y44779872D01*
X47235000Y45220128D01*
X47149110Y45651925D01*
X46980631Y46058669D01*
X46736038Y46424729D01*
X46424729Y46736038D01*
X46058669Y46980631D01*
X45651925Y47149110D01*
X45220128Y47235000D01*
X44779872Y47235000D01*
X44348075Y47149110D01*
X43941331Y46980631D01*
X43575271Y46736038D01*
X43263962Y46424729D01*
X43019369Y46058669D01*
X42850890Y45651925D01*
X42765000Y45220128D01*
X7235000Y45220128D01*
X7149110Y45651925D01*
X6980631Y46058669D01*
X6736038Y46424729D01*
X6424729Y46736038D01*
X6058669Y46980631D01*
X5651925Y47149110D01*
X5220128Y47235000D01*
X4779872Y47235000D01*
X4348075Y47149110D01*
X3941331Y46980631D01*
X3575271Y46736038D01*
X3263962Y46424729D01*
X3019369Y46058669D01*
X2850890Y45651925D01*
X2765000Y45220128D01*
X682269Y45220128D01*
X731173Y45768083D01*
X934656Y46511891D01*
X1266638Y47207905D01*
X1716626Y47834130D01*
X2270403Y48370777D01*
X2910451Y48800871D01*
X3616553Y49110829D01*
X4371457Y49292065D01*
X5024207Y49340000D01*
X44970608Y49340000D01*
X45768083Y49268827D01*
G37*
%TD.AperFunction*%
D25*
X16716928Y9650000D02*
X16732071Y9496255D01*
X16776916Y9348418D01*
X16849742Y9212171D01*
X16947749Y9092749D01*
X17007924Y9043364D01*
X17020026Y9020724D01*
X17066374Y8964250D01*
X17115000Y8904999D01*
X17143998Y8881201D01*
X17465000Y8560198D01*
X17465000Y8498061D01*
X17504774Y8298102D01*
X17582795Y8109744D01*
X17696063Y7940226D01*
X17840226Y7796063D01*
X18009744Y7682795D01*
X18198102Y7604774D01*
X18398061Y7565000D01*
X18601939Y7565000D01*
X18790010Y7602409D01*
X18790010Y7138072D01*
X18775000Y7138072D01*
X18621255Y7122929D01*
X18473418Y7078084D01*
X18339064Y7006270D01*
X18309494Y7030537D01*
X18199180Y7089502D01*
X18079482Y7125812D01*
X17955000Y7138072D01*
X17940750Y7135000D01*
X17782000Y6976250D01*
X17782000Y5652000D01*
X17802000Y5652000D01*
X17802000Y5398000D01*
X17782000Y5398000D01*
X17782000Y5378000D01*
X17528000Y5378000D01*
X17528000Y5398000D01*
X16878750Y5398000D01*
X16720000Y5239250D01*
X16718867Y4984990D01*
X16116810Y4984990D01*
X14601800Y6500000D01*
X16716928Y6500000D01*
X16720000Y5810750D01*
X16878750Y5652000D01*
X17528000Y5652000D01*
X17528000Y6976250D01*
X17369250Y7135000D01*
X17355000Y7138072D01*
X17230518Y7125812D01*
X17110820Y7089502D01*
X17000506Y7030537D01*
X16903815Y6951185D01*
X16824463Y6854494D01*
X16765498Y6744180D01*
X16729188Y6624482D01*
X16716928Y6500000D01*
X14601800Y6500000D01*
X13088215Y8013584D01*
X13325000Y8011928D01*
X13449482Y8024188D01*
X13569180Y8060498D01*
X13679494Y8119463D01*
X13700000Y8136292D01*
X13720506Y8119463D01*
X13830820Y8060498D01*
X13950518Y8024188D01*
X14075000Y8011928D01*
X14514250Y8015000D01*
X14673000Y8173750D01*
X14673000Y9023000D01*
X14927000Y9023000D01*
X14927000Y8173750D01*
X15085750Y8015000D01*
X15525000Y8011928D01*
X15649482Y8024188D01*
X15769180Y8060498D01*
X15879494Y8119463D01*
X15976185Y8198815D01*
X16055537Y8295506D01*
X16114502Y8405820D01*
X16150812Y8525518D01*
X16163072Y8650000D01*
X16160000Y8864250D01*
X16001250Y9023000D01*
X14927000Y9023000D01*
X14673000Y9023000D01*
X12727000Y9023000D01*
X12727000Y9003000D01*
X12473000Y9003000D01*
X12473000Y9023000D01*
X12453000Y9023000D01*
X12453000Y9277000D01*
X12473000Y9277000D01*
X12473000Y9297000D01*
X12727000Y9297000D01*
X12727000Y9277000D01*
X14673000Y9277000D01*
X14673000Y9297000D01*
X14927000Y9297000D01*
X14927000Y9277000D01*
X16001250Y9277000D01*
X16160000Y9435750D01*
X16163072Y9650000D01*
X16150812Y9774482D01*
X16114502Y9894180D01*
X16055537Y10004494D01*
X15996851Y10076003D01*
X16048102Y10054774D01*
X16248061Y10015000D01*
X16451939Y10015000D01*
X16651898Y10054774D01*
X16716928Y10081711D01*
X16716928Y9650000D01*
%TA.AperFunction,Conductor*%
D26*
G36*
X16716928Y9650000D02*
G01*
X16732071Y9496255D01*
X16776916Y9348418D01*
X16849742Y9212171D01*
X16947749Y9092749D01*
X17007924Y9043364D01*
X17020026Y9020724D01*
X17066374Y8964250D01*
X17115000Y8904999D01*
X17143998Y8881201D01*
X17465000Y8560198D01*
X17465000Y8498061D01*
X17504774Y8298102D01*
X17582795Y8109744D01*
X17696063Y7940226D01*
X17840226Y7796063D01*
X18009744Y7682795D01*
X18198102Y7604774D01*
X18398061Y7565000D01*
X18601939Y7565000D01*
X18790010Y7602409D01*
X18790010Y7138072D01*
X18775000Y7138072D01*
X18621255Y7122929D01*
X18473418Y7078084D01*
X18339064Y7006270D01*
X18309494Y7030537D01*
X18199180Y7089502D01*
X18079482Y7125812D01*
X17955000Y7138072D01*
X17940750Y7135000D01*
X17782000Y6976250D01*
X17782000Y5652000D01*
X17802000Y5652000D01*
X17802000Y5398000D01*
X17782000Y5398000D01*
X17782000Y5378000D01*
X17528000Y5378000D01*
X17528000Y5398000D01*
X16878750Y5398000D01*
X16720000Y5239250D01*
X16718867Y4984990D01*
X16116810Y4984990D01*
X14601800Y6500000D01*
X16716928Y6500000D01*
X16720000Y5810750D01*
X16878750Y5652000D01*
X17528000Y5652000D01*
X17528000Y6976250D01*
X17369250Y7135000D01*
X17355000Y7138072D01*
X17230518Y7125812D01*
X17110820Y7089502D01*
X17000506Y7030537D01*
X16903815Y6951185D01*
X16824463Y6854494D01*
X16765498Y6744180D01*
X16729188Y6624482D01*
X16716928Y6500000D01*
X14601800Y6500000D01*
X13088215Y8013584D01*
X13325000Y8011928D01*
X13449482Y8024188D01*
X13569180Y8060498D01*
X13679494Y8119463D01*
X13700000Y8136292D01*
X13720506Y8119463D01*
X13830820Y8060498D01*
X13950518Y8024188D01*
X14075000Y8011928D01*
X14514250Y8015000D01*
X14673000Y8173750D01*
X14673000Y9023000D01*
X14927000Y9023000D01*
X14927000Y8173750D01*
X15085750Y8015000D01*
X15525000Y8011928D01*
X15649482Y8024188D01*
X15769180Y8060498D01*
X15879494Y8119463D01*
X15976185Y8198815D01*
X16055537Y8295506D01*
X16114502Y8405820D01*
X16150812Y8525518D01*
X16163072Y8650000D01*
X16160000Y8864250D01*
X16001250Y9023000D01*
X14927000Y9023000D01*
X14673000Y9023000D01*
X12727000Y9023000D01*
X12727000Y9003000D01*
X12473000Y9003000D01*
X12473000Y9023000D01*
X12453000Y9023000D01*
X12453000Y9277000D01*
X12473000Y9277000D01*
X12473000Y9297000D01*
X12727000Y9297000D01*
X12727000Y9277000D01*
X14673000Y9277000D01*
X14673000Y9297000D01*
X14927000Y9297000D01*
X14927000Y9277000D01*
X16001250Y9277000D01*
X16160000Y9435750D01*
X16163072Y9650000D01*
X16150812Y9774482D01*
X16114502Y9894180D01*
X16055537Y10004494D01*
X15996851Y10076003D01*
X16048102Y10054774D01*
X16248061Y10015000D01*
X16451939Y10015000D01*
X16651898Y10054774D01*
X16716928Y10081711D01*
X16716928Y9650000D01*
G37*
%TD.AperFunction*%
D25*
X8636196Y22189003D02*
X8659999Y22159999D01*
X8775724Y22065026D01*
X8907753Y21994454D01*
X9051014Y21950997D01*
X9162667Y21940000D01*
X9162677Y21940000D01*
X9200000Y21936324D01*
X9237323Y21940000D01*
X10495473Y21940000D01*
X10504528Y21910148D01*
X10586595Y21756613D01*
X10697038Y21622038D01*
X10723891Y21600000D01*
X10697038Y21577962D01*
X10586595Y21443387D01*
X10504528Y21289852D01*
X10453992Y21123256D01*
X10436928Y20950002D01*
X10436928Y20049998D01*
X10453992Y19876744D01*
X10504528Y19710148D01*
X10586595Y19556613D01*
X10697038Y19422038D01*
X10789990Y19345754D01*
X10789991Y9146621D01*
X5264990Y14671621D01*
X5264990Y19545912D01*
X5274248Y19545000D01*
X6485752Y19545000D01*
X6652499Y19561423D01*
X6866447Y19626324D01*
X7063623Y19731716D01*
X7236449Y19873551D01*
X7378284Y20046377D01*
X7483676Y20243553D01*
X7548577Y20457501D01*
X7570491Y20680000D01*
X7557137Y20815586D01*
X7644482Y20824188D01*
X7764180Y20860498D01*
X7874494Y20919463D01*
X7971185Y20998815D01*
X8050537Y21095506D01*
X8109502Y21205820D01*
X8145812Y21325518D01*
X8158072Y21450000D01*
X8155000Y21464250D01*
X7996250Y21623000D01*
X7632420Y21623000D01*
X7644482Y21624188D01*
X7764180Y21660498D01*
X7874494Y21719463D01*
X7971185Y21798815D01*
X8050537Y21895506D01*
X8091625Y21972375D01*
X8155000Y22035750D01*
X8158072Y22050000D01*
X8148223Y22150000D01*
X8158072Y22250000D01*
X8158072Y22415001D01*
X8410198Y22415001D01*
X8636196Y22189003D01*
%TA.AperFunction,Conductor*%
D26*
G36*
X8636196Y22189003D02*
G01*
X8659999Y22159999D01*
X8775724Y22065026D01*
X8907753Y21994454D01*
X9051014Y21950997D01*
X9162667Y21940000D01*
X9162677Y21940000D01*
X9200000Y21936324D01*
X9237323Y21940000D01*
X10495473Y21940000D01*
X10504528Y21910148D01*
X10586595Y21756613D01*
X10697038Y21622038D01*
X10723891Y21600000D01*
X10697038Y21577962D01*
X10586595Y21443387D01*
X10504528Y21289852D01*
X10453992Y21123256D01*
X10436928Y20950002D01*
X10436928Y20049998D01*
X10453992Y19876744D01*
X10504528Y19710148D01*
X10586595Y19556613D01*
X10697038Y19422038D01*
X10789990Y19345754D01*
X10789991Y9146621D01*
X5264990Y14671621D01*
X5264990Y19545912D01*
X5274248Y19545000D01*
X6485752Y19545000D01*
X6652499Y19561423D01*
X6866447Y19626324D01*
X7063623Y19731716D01*
X7236449Y19873551D01*
X7378284Y20046377D01*
X7483676Y20243553D01*
X7548577Y20457501D01*
X7570491Y20680000D01*
X7557137Y20815586D01*
X7644482Y20824188D01*
X7764180Y20860498D01*
X7874494Y20919463D01*
X7971185Y20998815D01*
X8050537Y21095506D01*
X8109502Y21205820D01*
X8145812Y21325518D01*
X8158072Y21450000D01*
X8155000Y21464250D01*
X7996250Y21623000D01*
X7632420Y21623000D01*
X7644482Y21624188D01*
X7764180Y21660498D01*
X7874494Y21719463D01*
X7971185Y21798815D01*
X8050537Y21895506D01*
X8091625Y21972375D01*
X8155000Y22035750D01*
X8158072Y22050000D01*
X8148223Y22150000D01*
X8158072Y22250000D01*
X8158072Y22415001D01*
X8410198Y22415001D01*
X8636196Y22189003D01*
G37*
%TD.AperFunction*%
D25*
X15371401Y20491034D02*
X15286487Y20211111D01*
X15257815Y19920000D01*
X15286487Y19628889D01*
X15371401Y19348966D01*
X15509294Y19090986D01*
X15694866Y18864866D01*
X15920986Y18679294D01*
X15975791Y18650000D01*
X15920986Y18620706D01*
X15694866Y18435134D01*
X15509294Y18209014D01*
X15371401Y17951034D01*
X15286487Y17671111D01*
X15257815Y17380000D01*
X15286487Y17088889D01*
X15371401Y16808966D01*
X15509294Y16550986D01*
X15694866Y16324866D01*
X15920986Y16139294D01*
X16178966Y16001401D01*
X16458889Y15916487D01*
X16677050Y15895000D01*
X18122950Y15895000D01*
X18341111Y15916487D01*
X18621034Y16001401D01*
X18790011Y16091721D01*
X18790011Y12088072D01*
X18775000Y12088072D01*
X18621255Y12072929D01*
X18473418Y12028084D01*
X18337171Y11955258D01*
X18290000Y11916546D01*
X18242829Y11955258D01*
X18106582Y12028084D01*
X17958745Y12072929D01*
X17805000Y12088072D01*
X17505000Y12088072D01*
X17351255Y12072929D01*
X17203418Y12028084D01*
X17067171Y11955258D01*
X16973359Y11878269D01*
X16840256Y11967205D01*
X16651898Y12045226D01*
X16451939Y12085000D01*
X16248061Y12085000D01*
X16048102Y12045226D01*
X15859744Y11967205D01*
X15857208Y11965511D01*
X15768386Y12038405D01*
X15614850Y12120472D01*
X15448254Y12171008D01*
X15275000Y12188072D01*
X14325000Y12188072D01*
X14151746Y12171008D01*
X13985150Y12120472D01*
X13831614Y12038405D01*
X13700000Y11930393D01*
X13568386Y12038405D01*
X13414850Y12120472D01*
X13248254Y12171008D01*
X13075000Y12188072D01*
X12309990Y12188072D01*
X12309990Y19293744D01*
X12343387Y19311595D01*
X12477962Y19422038D01*
X12500000Y19448891D01*
X12522038Y19422038D01*
X12656613Y19311595D01*
X12810148Y19229528D01*
X12976744Y19178992D01*
X13149998Y19161928D01*
X13675002Y19161928D01*
X13848256Y19178992D01*
X14014852Y19229528D01*
X14168387Y19311595D01*
X14302962Y19422038D01*
X14413405Y19556613D01*
X14495472Y19710148D01*
X14526619Y19812826D01*
X14624276Y19865026D01*
X14740001Y19959999D01*
X14763803Y19989002D01*
X15492619Y20717817D01*
X15371401Y20491034D01*
%TA.AperFunction,Conductor*%
D26*
G36*
X15371401Y20491034D02*
G01*
X15286487Y20211111D01*
X15257815Y19920000D01*
X15286487Y19628889D01*
X15371401Y19348966D01*
X15509294Y19090986D01*
X15694866Y18864866D01*
X15920986Y18679294D01*
X15975791Y18650000D01*
X15920986Y18620706D01*
X15694866Y18435134D01*
X15509294Y18209014D01*
X15371401Y17951034D01*
X15286487Y17671111D01*
X15257815Y17380000D01*
X15286487Y17088889D01*
X15371401Y16808966D01*
X15509294Y16550986D01*
X15694866Y16324866D01*
X15920986Y16139294D01*
X16178966Y16001401D01*
X16458889Y15916487D01*
X16677050Y15895000D01*
X18122950Y15895000D01*
X18341111Y15916487D01*
X18621034Y16001401D01*
X18790011Y16091721D01*
X18790011Y12088072D01*
X18775000Y12088072D01*
X18621255Y12072929D01*
X18473418Y12028084D01*
X18337171Y11955258D01*
X18290000Y11916546D01*
X18242829Y11955258D01*
X18106582Y12028084D01*
X17958745Y12072929D01*
X17805000Y12088072D01*
X17505000Y12088072D01*
X17351255Y12072929D01*
X17203418Y12028084D01*
X17067171Y11955258D01*
X16973359Y11878269D01*
X16840256Y11967205D01*
X16651898Y12045226D01*
X16451939Y12085000D01*
X16248061Y12085000D01*
X16048102Y12045226D01*
X15859744Y11967205D01*
X15857208Y11965511D01*
X15768386Y12038405D01*
X15614850Y12120472D01*
X15448254Y12171008D01*
X15275000Y12188072D01*
X14325000Y12188072D01*
X14151746Y12171008D01*
X13985150Y12120472D01*
X13831614Y12038405D01*
X13700000Y11930393D01*
X13568386Y12038405D01*
X13414850Y12120472D01*
X13248254Y12171008D01*
X13075000Y12188072D01*
X12309990Y12188072D01*
X12309990Y19293744D01*
X12343387Y19311595D01*
X12477962Y19422038D01*
X12500000Y19448891D01*
X12522038Y19422038D01*
X12656613Y19311595D01*
X12810148Y19229528D01*
X12976744Y19178992D01*
X13149998Y19161928D01*
X13675002Y19161928D01*
X13848256Y19178992D01*
X14014852Y19229528D01*
X14168387Y19311595D01*
X14302962Y19422038D01*
X14413405Y19556613D01*
X14495472Y19710148D01*
X14526619Y19812826D01*
X14624276Y19865026D01*
X14740001Y19959999D01*
X14763803Y19989002D01*
X15492619Y20717817D01*
X15371401Y20491034D01*
G37*
%TD.AperFunction*%
D25*
X13539500Y25077000D02*
X13559500Y25077000D01*
X13559500Y24823000D01*
X13539500Y24823000D01*
X13539500Y22827000D01*
X13559500Y22827000D01*
X13559500Y22573000D01*
X13539500Y22573000D01*
X13539500Y22553000D01*
X13285500Y22553000D01*
X13285500Y22573000D01*
X13265500Y22573000D01*
X13265500Y22827000D01*
X13285500Y22827000D01*
X13285500Y24823000D01*
X13265500Y24823000D01*
X13265500Y25077000D01*
X13285500Y25077000D01*
X13285500Y25097000D01*
X13539500Y25097000D01*
X13539500Y25077000D01*
%TA.AperFunction,Conductor*%
D26*
G36*
X13539500Y25077000D02*
G01*
X13559500Y25077000D01*
X13559500Y24823000D01*
X13539500Y24823000D01*
X13539500Y22827000D01*
X13559500Y22827000D01*
X13559500Y22573000D01*
X13539500Y22573000D01*
X13539500Y22553000D01*
X13285500Y22553000D01*
X13285500Y22573000D01*
X13265500Y22573000D01*
X13265500Y22827000D01*
X13285500Y22827000D01*
X13285500Y24823000D01*
X13265500Y24823000D01*
X13265500Y25077000D01*
X13285500Y25077000D01*
X13285500Y25097000D01*
X13539500Y25097000D01*
X13539500Y25077000D01*
G37*
%TD.AperFunction*%
D25*
X20380558Y36438574D02*
X20406709Y36406709D01*
X20533854Y36302364D01*
X20678913Y36224828D01*
X20836311Y36177082D01*
X20958981Y36165000D01*
X20958991Y36165000D01*
X20999999Y36160961D01*
X21041007Y36165000D01*
X25431928Y36165000D01*
X25431928Y36150000D01*
X25444188Y36025518D01*
X25480498Y35905820D01*
X25539463Y35795506D01*
X25618815Y35698815D01*
X25715506Y35619463D01*
X25825820Y35560498D01*
X25945518Y35524188D01*
X26070000Y35511928D01*
X27770000Y35511928D01*
X27837731Y35518599D01*
X25774133Y33455000D01*
X19538072Y33455000D01*
X19538072Y33470000D01*
X19525812Y33594482D01*
X19489502Y33714180D01*
X19430537Y33824494D01*
X19351185Y33921185D01*
X19254494Y34000537D01*
X19144180Y34059502D01*
X19024482Y34095812D01*
X18900000Y34108072D01*
X15900000Y34108072D01*
X15775518Y34095812D01*
X15655820Y34059502D01*
X15545506Y34000537D01*
X15448815Y33921185D01*
X15369463Y33824494D01*
X15310498Y33714180D01*
X15274188Y33594482D01*
X15261928Y33470000D01*
X15261928Y31770000D01*
X15274188Y31645518D01*
X15310498Y31525820D01*
X15369463Y31415506D01*
X15448815Y31318815D01*
X15545506Y31239463D01*
X15655820Y31180498D01*
X15724687Y31159607D01*
X15694866Y31135134D01*
X15509294Y30909014D01*
X15371401Y30651034D01*
X15286487Y30371111D01*
X15257815Y30080000D01*
X15286487Y29788889D01*
X15371401Y29508966D01*
X15509294Y29250986D01*
X15694866Y29024866D01*
X15920986Y28839294D01*
X15975791Y28810000D01*
X15920986Y28780706D01*
X15694866Y28595134D01*
X15509294Y28369014D01*
X15371401Y28111034D01*
X15299628Y27874429D01*
X14563072Y27137873D01*
X14563072Y27236536D01*
X14584974Y27263224D01*
X14655546Y27395253D01*
X14699003Y27538514D01*
X14710000Y27650167D01*
X14710000Y27650175D01*
X14713676Y27687500D01*
X14710000Y27724825D01*
X14710000Y28228661D01*
X14818386Y28286595D01*
X14952962Y28397038D01*
X15063405Y28531614D01*
X15145472Y28685150D01*
X15196008Y28851746D01*
X15213072Y29025000D01*
X15213072Y30275000D01*
X15196008Y30448254D01*
X15145472Y30614850D01*
X15063405Y30768386D01*
X14952962Y30902962D01*
X14818386Y31013405D01*
X14664850Y31095472D01*
X14498254Y31146008D01*
X14325000Y31163072D01*
X13575000Y31163072D01*
X13401746Y31146008D01*
X13235150Y31095472D01*
X13081614Y31013405D01*
X12947038Y30902962D01*
X12836595Y30768386D01*
X12754528Y30614850D01*
X12703992Y30448254D01*
X12686928Y30275000D01*
X12686928Y29025000D01*
X12703992Y28851746D01*
X12754528Y28685150D01*
X12836595Y28531614D01*
X12904354Y28449049D01*
X12810148Y28420472D01*
X12656613Y28338405D01*
X12522038Y28227962D01*
X12500000Y28201109D01*
X12477962Y28227962D01*
X12343387Y28338405D01*
X12270244Y28377501D01*
X12305537Y28420506D01*
X12364502Y28530820D01*
X12400812Y28650518D01*
X12413072Y28775000D01*
X12410000Y29364250D01*
X12251250Y29523000D01*
X11277000Y29523000D01*
X11277000Y29503000D01*
X11023000Y29503000D01*
X11023000Y29523000D01*
X10048750Y29523000D01*
X9890000Y29364250D01*
X9886928Y28775000D01*
X9899188Y28650518D01*
X9935498Y28530820D01*
X9994463Y28420506D01*
X10073815Y28323815D01*
X10170506Y28244463D01*
X10280820Y28185498D01*
X10400518Y28149188D01*
X10525000Y28136928D01*
X10623057Y28137816D01*
X10586595Y28093387D01*
X10504528Y27939852D01*
X10495473Y27910000D01*
X9410868Y27910000D01*
X9461428Y27960560D01*
X9493291Y27986709D01*
X9597636Y28113854D01*
X9675172Y28258913D01*
X9722918Y28416311D01*
X9735000Y28538981D01*
X9735000Y28538991D01*
X9739039Y28579999D01*
X9735000Y28621007D01*
X9735000Y30525000D01*
X9886928Y30525000D01*
X9890000Y29935750D01*
X10048750Y29777000D01*
X11023000Y29777000D01*
X11023000Y31001250D01*
X11277000Y31001250D01*
X11277000Y29777000D01*
X12251250Y29777000D01*
X12410000Y29935750D01*
X12413072Y30525000D01*
X12400812Y30649482D01*
X12364502Y30769180D01*
X12305537Y30879494D01*
X12226185Y30976185D01*
X12129494Y31055537D01*
X12019180Y31114502D01*
X11899482Y31150812D01*
X11775000Y31163072D01*
X11435750Y31160000D01*
X11277000Y31001250D01*
X11023000Y31001250D01*
X10864250Y31160000D01*
X10525000Y31163072D01*
X10400518Y31150812D01*
X10280820Y31114502D01*
X10170506Y31055537D01*
X10073815Y30976185D01*
X9994463Y30879494D01*
X9935498Y30769180D01*
X9899188Y30649482D01*
X9886928Y30525000D01*
X9735000Y30525000D01*
X9735000Y35054133D01*
X10745868Y36065000D01*
X14908982Y36065000D01*
X14950000Y36060960D01*
X14991018Y36065000D01*
X14991019Y36065000D01*
X15113689Y36077082D01*
X15271087Y36124828D01*
X15416146Y36202364D01*
X15543291Y36306709D01*
X15569446Y36338578D01*
X16042796Y36811928D01*
X17250000Y36811928D01*
X17374482Y36824188D01*
X17494180Y36860498D01*
X17604494Y36919463D01*
X17701185Y36998815D01*
X17780537Y37095506D01*
X17839502Y37205820D01*
X17875812Y37325518D01*
X17879701Y37365000D01*
X19454133Y37365000D01*
X20380558Y36438574D01*
%TA.AperFunction,Conductor*%
D26*
G36*
X20380558Y36438574D02*
G01*
X20406709Y36406709D01*
X20533854Y36302364D01*
X20678913Y36224828D01*
X20836311Y36177082D01*
X20958981Y36165000D01*
X20958991Y36165000D01*
X20999999Y36160961D01*
X21041007Y36165000D01*
X25431928Y36165000D01*
X25431928Y36150000D01*
X25444188Y36025518D01*
X25480498Y35905820D01*
X25539463Y35795506D01*
X25618815Y35698815D01*
X25715506Y35619463D01*
X25825820Y35560498D01*
X25945518Y35524188D01*
X26070000Y35511928D01*
X27770000Y35511928D01*
X27837731Y35518599D01*
X25774133Y33455000D01*
X19538072Y33455000D01*
X19538072Y33470000D01*
X19525812Y33594482D01*
X19489502Y33714180D01*
X19430537Y33824494D01*
X19351185Y33921185D01*
X19254494Y34000537D01*
X19144180Y34059502D01*
X19024482Y34095812D01*
X18900000Y34108072D01*
X15900000Y34108072D01*
X15775518Y34095812D01*
X15655820Y34059502D01*
X15545506Y34000537D01*
X15448815Y33921185D01*
X15369463Y33824494D01*
X15310498Y33714180D01*
X15274188Y33594482D01*
X15261928Y33470000D01*
X15261928Y31770000D01*
X15274188Y31645518D01*
X15310498Y31525820D01*
X15369463Y31415506D01*
X15448815Y31318815D01*
X15545506Y31239463D01*
X15655820Y31180498D01*
X15724687Y31159607D01*
X15694866Y31135134D01*
X15509294Y30909014D01*
X15371401Y30651034D01*
X15286487Y30371111D01*
X15257815Y30080000D01*
X15286487Y29788889D01*
X15371401Y29508966D01*
X15509294Y29250986D01*
X15694866Y29024866D01*
X15920986Y28839294D01*
X15975791Y28810000D01*
X15920986Y28780706D01*
X15694866Y28595134D01*
X15509294Y28369014D01*
X15371401Y28111034D01*
X15299628Y27874429D01*
X14563072Y27137873D01*
X14563072Y27236536D01*
X14584974Y27263224D01*
X14655546Y27395253D01*
X14699003Y27538514D01*
X14710000Y27650167D01*
X14710000Y27650175D01*
X14713676Y27687500D01*
X14710000Y27724825D01*
X14710000Y28228661D01*
X14818386Y28286595D01*
X14952962Y28397038D01*
X15063405Y28531614D01*
X15145472Y28685150D01*
X15196008Y28851746D01*
X15213072Y29025000D01*
X15213072Y30275000D01*
X15196008Y30448254D01*
X15145472Y30614850D01*
X15063405Y30768386D01*
X14952962Y30902962D01*
X14818386Y31013405D01*
X14664850Y31095472D01*
X14498254Y31146008D01*
X14325000Y31163072D01*
X13575000Y31163072D01*
X13401746Y31146008D01*
X13235150Y31095472D01*
X13081614Y31013405D01*
X12947038Y30902962D01*
X12836595Y30768386D01*
X12754528Y30614850D01*
X12703992Y30448254D01*
X12686928Y30275000D01*
X12686928Y29025000D01*
X12703992Y28851746D01*
X12754528Y28685150D01*
X12836595Y28531614D01*
X12904354Y28449049D01*
X12810148Y28420472D01*
X12656613Y28338405D01*
X12522038Y28227962D01*
X12500000Y28201109D01*
X12477962Y28227962D01*
X12343387Y28338405D01*
X12270244Y28377501D01*
X12305537Y28420506D01*
X12364502Y28530820D01*
X12400812Y28650518D01*
X12413072Y28775000D01*
X12410000Y29364250D01*
X12251250Y29523000D01*
X11277000Y29523000D01*
X11277000Y29503000D01*
X11023000Y29503000D01*
X11023000Y29523000D01*
X10048750Y29523000D01*
X9890000Y29364250D01*
X9886928Y28775000D01*
X9899188Y28650518D01*
X9935498Y28530820D01*
X9994463Y28420506D01*
X10073815Y28323815D01*
X10170506Y28244463D01*
X10280820Y28185498D01*
X10400518Y28149188D01*
X10525000Y28136928D01*
X10623057Y28137816D01*
X10586595Y28093387D01*
X10504528Y27939852D01*
X10495473Y27910000D01*
X9410868Y27910000D01*
X9461428Y27960560D01*
X9493291Y27986709D01*
X9597636Y28113854D01*
X9675172Y28258913D01*
X9722918Y28416311D01*
X9735000Y28538981D01*
X9735000Y28538991D01*
X9739039Y28579999D01*
X9735000Y28621007D01*
X9735000Y30525000D01*
X9886928Y30525000D01*
X9890000Y29935750D01*
X10048750Y29777000D01*
X11023000Y29777000D01*
X11023000Y31001250D01*
X11277000Y31001250D01*
X11277000Y29777000D01*
X12251250Y29777000D01*
X12410000Y29935750D01*
X12413072Y30525000D01*
X12400812Y30649482D01*
X12364502Y30769180D01*
X12305537Y30879494D01*
X12226185Y30976185D01*
X12129494Y31055537D01*
X12019180Y31114502D01*
X11899482Y31150812D01*
X11775000Y31163072D01*
X11435750Y31160000D01*
X11277000Y31001250D01*
X11023000Y31001250D01*
X10864250Y31160000D01*
X10525000Y31163072D01*
X10400518Y31150812D01*
X10280820Y31114502D01*
X10170506Y31055537D01*
X10073815Y30976185D01*
X9994463Y30879494D01*
X9935498Y30769180D01*
X9899188Y30649482D01*
X9886928Y30525000D01*
X9735000Y30525000D01*
X9735000Y35054133D01*
X10745868Y36065000D01*
X14908982Y36065000D01*
X14950000Y36060960D01*
X14991018Y36065000D01*
X14991019Y36065000D01*
X15113689Y36077082D01*
X15271087Y36124828D01*
X15416146Y36202364D01*
X15543291Y36306709D01*
X15569446Y36338578D01*
X16042796Y36811928D01*
X17250000Y36811928D01*
X17374482Y36824188D01*
X17494180Y36860498D01*
X17604494Y36919463D01*
X17701185Y36998815D01*
X17780537Y37095506D01*
X17839502Y37205820D01*
X17875812Y37325518D01*
X17879701Y37365000D01*
X19454133Y37365000D01*
X20380558Y36438574D01*
G37*
%TD.AperFunction*%
D25*
X20911928Y38600000D02*
X20924188Y38475518D01*
X20960498Y38355820D01*
X21019463Y38245506D01*
X21098815Y38148815D01*
X21195506Y38069463D01*
X21305820Y38010498D01*
X21425518Y37974188D01*
X21550000Y37961928D01*
X23550000Y37961928D01*
X23674482Y37974188D01*
X23794180Y38010498D01*
X23904494Y38069463D01*
X24001185Y38148815D01*
X24080537Y38245506D01*
X24139502Y38355820D01*
X24175812Y38475518D01*
X24188072Y38600000D01*
X24188072Y39665000D01*
X29154133Y39665000D01*
X30859512Y37959619D01*
X30846525Y37946632D01*
X30730000Y37772240D01*
X30613475Y37946632D01*
X30406632Y38153475D01*
X30163411Y38315990D01*
X29893158Y38427932D01*
X29606260Y38485000D01*
X29313740Y38485000D01*
X29026842Y38427932D01*
X28756589Y38315990D01*
X28513368Y38153475D01*
X28381513Y38021620D01*
X28359502Y38094180D01*
X28300537Y38204494D01*
X28221185Y38301185D01*
X28124494Y38380537D01*
X28014180Y38439502D01*
X27894482Y38475812D01*
X27770000Y38488072D01*
X26070000Y38488072D01*
X25945518Y38475812D01*
X25825820Y38439502D01*
X25715506Y38380537D01*
X25618815Y38301185D01*
X25539463Y38204494D01*
X25480498Y38094180D01*
X25444188Y37974482D01*
X25431928Y37850000D01*
X25431928Y37835000D01*
X21345868Y37835000D01*
X20419446Y38761421D01*
X20393291Y38793291D01*
X20266146Y38897636D01*
X20121087Y38975172D01*
X19963689Y39022918D01*
X19841019Y39035000D01*
X19841018Y39035000D01*
X19800000Y39039040D01*
X19758982Y39035000D01*
X17879701Y39035000D01*
X17875812Y39074482D01*
X17839502Y39194180D01*
X17780537Y39304494D01*
X17743191Y39350000D01*
X17780537Y39395506D01*
X17839502Y39505820D01*
X17875812Y39625518D01*
X17879701Y39665000D01*
X20911928Y39665000D01*
X20911928Y38600000D01*
%TA.AperFunction,Conductor*%
D26*
G36*
X20911928Y38600000D02*
G01*
X20924188Y38475518D01*
X20960498Y38355820D01*
X21019463Y38245506D01*
X21098815Y38148815D01*
X21195506Y38069463D01*
X21305820Y38010498D01*
X21425518Y37974188D01*
X21550000Y37961928D01*
X23550000Y37961928D01*
X23674482Y37974188D01*
X23794180Y38010498D01*
X23904494Y38069463D01*
X24001185Y38148815D01*
X24080537Y38245506D01*
X24139502Y38355820D01*
X24175812Y38475518D01*
X24188072Y38600000D01*
X24188072Y39665000D01*
X29154133Y39665000D01*
X30859512Y37959619D01*
X30846525Y37946632D01*
X30730000Y37772240D01*
X30613475Y37946632D01*
X30406632Y38153475D01*
X30163411Y38315990D01*
X29893158Y38427932D01*
X29606260Y38485000D01*
X29313740Y38485000D01*
X29026842Y38427932D01*
X28756589Y38315990D01*
X28513368Y38153475D01*
X28381513Y38021620D01*
X28359502Y38094180D01*
X28300537Y38204494D01*
X28221185Y38301185D01*
X28124494Y38380537D01*
X28014180Y38439502D01*
X27894482Y38475812D01*
X27770000Y38488072D01*
X26070000Y38488072D01*
X25945518Y38475812D01*
X25825820Y38439502D01*
X25715506Y38380537D01*
X25618815Y38301185D01*
X25539463Y38204494D01*
X25480498Y38094180D01*
X25444188Y37974482D01*
X25431928Y37850000D01*
X25431928Y37835000D01*
X21345868Y37835000D01*
X20419446Y38761421D01*
X20393291Y38793291D01*
X20266146Y38897636D01*
X20121087Y38975172D01*
X19963689Y39022918D01*
X19841019Y39035000D01*
X19841018Y39035000D01*
X19800000Y39039040D01*
X19758982Y39035000D01*
X17879701Y39035000D01*
X17875812Y39074482D01*
X17839502Y39194180D01*
X17780537Y39304494D01*
X17743191Y39350000D01*
X17780537Y39395506D01*
X17839502Y39505820D01*
X17875812Y39625518D01*
X17879701Y39665000D01*
X20911928Y39665000D01*
X20911928Y38600000D01*
G37*
%TD.AperFunction*%
%TD*%
M02*
