%TF.GenerationSoftware,KiCad,Pcbnew,(5.1.9)-1*%
%TF.CreationDate,2021-09-09T22:45:53+02:00*%
%TF.ProjectId,programmer,70726f67-7261-46d6-9d65-722e6b696361,rev?*%
%TF.SameCoordinates,PX1c9c380PY4c4b400*%
%TF.FileFunction,Legend,Top*%
%TF.FilePolarity,Positive*%
%FSLAX46Y46*%
G04 Gerber Fmt 4.6, Leading zero omitted, Abs format (unit mm)*
G04 Created by KiCad (PCBNEW (5.1.9)-1) date 2021-09-09 22:45:53*
%MOMM*%
%LPD*%
G01*
G04 APERTURE LIST*
%ADD10C,0.150000*%
%ADD11C,0.120000*%
%ADD12C,0.010000*%
%ADD13O,3.000000X1.700000*%
%ADD14R,3.000000X1.700000*%
%ADD15O,1.700000X1.700000*%
%ADD16R,1.700000X1.700000*%
%ADD17R,1.450000X0.600000*%
%ADD18R,1.450000X0.300000*%
%ADD19O,2.100000X1.000000*%
%ADD20C,0.650000*%
%ADD21O,1.600000X1.000000*%
%ADD22C,3.200000*%
%ADD23C,1.500000*%
%ADD24R,2.000000X1.500000*%
%ADD25R,2.000000X3.800000*%
%ADD26R,0.900000X0.800000*%
G04 APERTURE END LIST*
D10*
X17839257Y8570058D02*
X17839257Y7927200D01*
X17796400Y7798629D01*
X17710685Y7712915D01*
X17582114Y7670058D01*
X17496400Y7670058D01*
X18696400Y7670058D02*
X18267828Y7670058D01*
X18267828Y8570058D01*
X19510685Y7755772D02*
X19467828Y7712915D01*
X19339257Y7670058D01*
X19253542Y7670058D01*
X19124971Y7712915D01*
X19039257Y7798629D01*
X18996400Y7884343D01*
X18953542Y8055772D01*
X18953542Y8184343D01*
X18996400Y8355772D01*
X19039257Y8441486D01*
X19124971Y8527200D01*
X19253542Y8570058D01*
X19339257Y8570058D01*
X19467828Y8527200D01*
X19510685Y8484343D01*
X20153542Y8570058D02*
X20153542Y7927200D01*
X20110685Y7798629D01*
X20024971Y7712915D01*
X19896400Y7670058D01*
X19810685Y7670058D01*
X21010685Y7670058D02*
X20582114Y7670058D01*
X20582114Y8570058D01*
X21824971Y7755772D02*
X21782114Y7712915D01*
X21653542Y7670058D01*
X21567828Y7670058D01*
X21439257Y7712915D01*
X21353542Y7798629D01*
X21310685Y7884343D01*
X21267828Y8055772D01*
X21267828Y8184343D01*
X21310685Y8355772D01*
X21353542Y8441486D01*
X21439257Y8527200D01*
X21567828Y8570058D01*
X21653542Y8570058D01*
X21782114Y8527200D01*
X21824971Y8484343D01*
X22467828Y8570058D02*
X22467828Y7927200D01*
X22424971Y7798629D01*
X22339257Y7712915D01*
X22210685Y7670058D01*
X22124971Y7670058D01*
X23324971Y7670058D02*
X22896400Y7670058D01*
X22896400Y8570058D01*
X24139257Y7755772D02*
X24096400Y7712915D01*
X23967828Y7670058D01*
X23882114Y7670058D01*
X23753542Y7712915D01*
X23667828Y7798629D01*
X23624971Y7884343D01*
X23582114Y8055772D01*
X23582114Y8184343D01*
X23624971Y8355772D01*
X23667828Y8441486D01*
X23753542Y8527200D01*
X23882114Y8570058D01*
X23967828Y8570058D01*
X24096400Y8527200D01*
X24139257Y8484343D01*
X24782114Y8570058D02*
X24782114Y7927200D01*
X24739257Y7798629D01*
X24653542Y7712915D01*
X24524971Y7670058D01*
X24439257Y7670058D01*
X25639257Y7670058D02*
X25210685Y7670058D01*
X25210685Y8570058D01*
X26453542Y7755772D02*
X26410685Y7712915D01*
X26282114Y7670058D01*
X26196400Y7670058D01*
X26067828Y7712915D01*
X25982114Y7798629D01*
X25939257Y7884343D01*
X25896400Y8055772D01*
X25896400Y8184343D01*
X25939257Y8355772D01*
X25982114Y8441486D01*
X26067828Y8527200D01*
X26196400Y8570058D01*
X26282114Y8570058D01*
X26410685Y8527200D01*
X26453542Y8484343D01*
D11*
X26400000Y34700000D02*
X30000000Y34700000D01*
X25900000Y35200000D02*
X26400000Y34700000D01*
X30000000Y34700000D02*
X30500000Y35200000D01*
X35100000Y34700000D02*
X35600000Y35200000D01*
X31500000Y34700000D02*
X35100000Y34700000D01*
X31000000Y35200000D02*
X31500000Y34700000D01*
D10*
X32061904Y34347620D02*
X32680952Y34347620D01*
X32347619Y33966667D01*
X32490476Y33966667D01*
X32585714Y33919048D01*
X32633333Y33871429D01*
X32680952Y33776191D01*
X32680952Y33538096D01*
X32633333Y33442858D01*
X32585714Y33395239D01*
X32490476Y33347620D01*
X32204761Y33347620D01*
X32109523Y33395239D01*
X32061904Y33442858D01*
X32966666Y34347620D02*
X33300000Y33347620D01*
X33633333Y34347620D01*
X33871428Y34347620D02*
X34490476Y34347620D01*
X34157142Y33966667D01*
X34300000Y33966667D01*
X34395238Y33919048D01*
X34442857Y33871429D01*
X34490476Y33776191D01*
X34490476Y33538096D01*
X34442857Y33442858D01*
X34395238Y33395239D01*
X34300000Y33347620D01*
X34014285Y33347620D01*
X33919047Y33395239D01*
X33871428Y33442858D01*
X28009523Y34347620D02*
X27533333Y34347620D01*
X27485714Y33871429D01*
X27533333Y33919048D01*
X27628571Y33966667D01*
X27866666Y33966667D01*
X27961904Y33919048D01*
X28009523Y33871429D01*
X28057142Y33776191D01*
X28057142Y33538096D01*
X28009523Y33442858D01*
X27961904Y33395239D01*
X27866666Y33347620D01*
X27628571Y33347620D01*
X27533333Y33395239D01*
X27485714Y33442858D01*
X28342857Y34347620D02*
X28676190Y33347620D01*
X29009523Y34347620D01*
X21068190Y33414953D02*
X20258666Y33414953D01*
X20177714Y32605429D01*
X20258666Y32686381D01*
X20420571Y32767334D01*
X20825333Y32767334D01*
X20987238Y32686381D01*
X21068190Y32605429D01*
X21149142Y32443524D01*
X21149142Y32038762D01*
X21068190Y31876858D01*
X20987238Y31795905D01*
X20825333Y31714953D01*
X20420571Y31714953D01*
X20258666Y31795905D01*
X20177714Y31876858D01*
X21634857Y33414953D02*
X22201523Y31714953D01*
X22768190Y33414953D01*
X21261047Y16514953D02*
X20694380Y17324477D01*
X20289619Y16514953D02*
X20289619Y18214953D01*
X20937238Y18214953D01*
X21099142Y18134000D01*
X21180095Y18053048D01*
X21261047Y17891143D01*
X21261047Y17648286D01*
X21180095Y17486381D01*
X21099142Y17405429D01*
X20937238Y17324477D01*
X20289619Y17324477D01*
X21908666Y16595905D02*
X22151523Y16514953D01*
X22556285Y16514953D01*
X22718190Y16595905D01*
X22799142Y16676858D01*
X22880095Y16838762D01*
X22880095Y17000667D01*
X22799142Y17162572D01*
X22718190Y17243524D01*
X22556285Y17324477D01*
X22232476Y17405429D01*
X22070571Y17486381D01*
X21989619Y17567334D01*
X21908666Y17729239D01*
X21908666Y17891143D01*
X21989619Y18053048D01*
X22070571Y18134000D01*
X22232476Y18214953D01*
X22637238Y18214953D01*
X22880095Y18134000D01*
X23365809Y18214953D02*
X24337238Y18214953D01*
X23851523Y16514953D02*
X23851523Y18214953D01*
X20492000Y19014953D02*
X20492000Y20714953D01*
X21625333Y20714953D02*
X21949142Y20714953D01*
X22111047Y20634000D01*
X22272952Y20472096D01*
X22353904Y20148286D01*
X22353904Y19581620D01*
X22272952Y19257810D01*
X22111047Y19095905D01*
X21949142Y19014953D01*
X21625333Y19014953D01*
X21463428Y19095905D01*
X21301523Y19257810D01*
X21220571Y19581620D01*
X21220571Y20148286D01*
X21301523Y20472096D01*
X21463428Y20634000D01*
X21625333Y20714953D01*
X23406285Y20714953D02*
X23568190Y20714953D01*
X23730095Y20634000D01*
X23811047Y20553048D01*
X23892000Y20391143D01*
X23972952Y20067334D01*
X23972952Y19662572D01*
X23892000Y19338762D01*
X23811047Y19176858D01*
X23730095Y19095905D01*
X23568190Y19014953D01*
X23406285Y19014953D01*
X23244380Y19095905D01*
X23163428Y19176858D01*
X23082476Y19338762D01*
X23001523Y19662572D01*
X23001523Y20067334D01*
X23082476Y20391143D01*
X23163428Y20553048D01*
X23244380Y20634000D01*
X23406285Y20714953D01*
X20896761Y23234000D02*
X20734857Y23314953D01*
X20492000Y23314953D01*
X20249142Y23234000D01*
X20087238Y23072096D01*
X20006285Y22910191D01*
X19925333Y22586381D01*
X19925333Y22343524D01*
X20006285Y22019715D01*
X20087238Y21857810D01*
X20249142Y21695905D01*
X20492000Y21614953D01*
X20653904Y21614953D01*
X20896761Y21695905D01*
X20977714Y21776858D01*
X20977714Y22343524D01*
X20653904Y22343524D01*
X21706285Y21614953D02*
X21706285Y23314953D01*
X22677714Y21614953D01*
X22677714Y23314953D01*
X23487238Y21614953D02*
X23487238Y23314953D01*
X23892000Y23314953D01*
X24134857Y23234000D01*
X24296761Y23072096D01*
X24377714Y22910191D01*
X24458666Y22586381D01*
X24458666Y22343524D01*
X24377714Y22019715D01*
X24296761Y21857810D01*
X24134857Y21695905D01*
X23892000Y21614953D01*
X23487238Y21614953D01*
X21008666Y24114953D02*
X20442000Y24924477D01*
X20037238Y24114953D02*
X20037238Y25814953D01*
X20684857Y25814953D01*
X20846761Y25734000D01*
X20927714Y25653048D01*
X21008666Y25491143D01*
X21008666Y25248286D01*
X20927714Y25086381D01*
X20846761Y25005429D01*
X20684857Y24924477D01*
X20037238Y24924477D01*
X21575333Y25814953D02*
X22708666Y24114953D01*
X22708666Y25814953D02*
X21575333Y24114953D01*
X20196761Y28414953D02*
X21168190Y28414953D01*
X20682476Y26714953D02*
X20682476Y28414953D01*
X21572952Y28414953D02*
X22706285Y26714953D01*
X22706285Y28414953D02*
X21572952Y26714953D01*
X20087238Y30914953D02*
X21139619Y30914953D01*
X20572952Y30267334D01*
X20815809Y30267334D01*
X20977714Y30186381D01*
X21058666Y30105429D01*
X21139619Y29943524D01*
X21139619Y29538762D01*
X21058666Y29376858D01*
X20977714Y29295905D01*
X20815809Y29214953D01*
X20330095Y29214953D01*
X20168190Y29295905D01*
X20087238Y29376858D01*
X21625333Y30914953D02*
X22192000Y29214953D01*
X22758666Y30914953D01*
X23163428Y30914953D02*
X24215809Y30914953D01*
X23649142Y30267334D01*
X23892000Y30267334D01*
X24053904Y30186381D01*
X24134857Y30105429D01*
X24215809Y29943524D01*
X24215809Y29538762D01*
X24134857Y29376858D01*
X24053904Y29295905D01*
X23892000Y29214953D01*
X23406285Y29214953D01*
X23244380Y29295905D01*
X23163428Y29376858D01*
D11*
%TO.C,J2*%
X15622000Y17380000D02*
X15622000Y33001000D01*
X19178000Y17380000D02*
X19178000Y33001000D01*
X19178000Y17380000D02*
G75*
G02*
X15622000Y17380000I-1778000J0D01*
G01*
%TO.C,J3*%
X25590000Y37000000D02*
X25590000Y38330000D01*
X25590000Y38330000D02*
X26920000Y38330000D01*
X28190000Y38330000D02*
X35870000Y38330000D01*
X35870000Y35670000D02*
X35870000Y38330000D01*
X28190000Y35670000D02*
X35870000Y35670000D01*
X28190000Y35670000D02*
X28190000Y38330000D01*
D12*
%TO.C,REF\u002A\u002A*%
G36*
X37231000Y21673166D02*
G01*
X37231000Y22537717D01*
X37151625Y22562857D01*
X37087795Y22585566D01*
X37006597Y22617712D01*
X36949071Y22642132D01*
X36825893Y22696267D01*
X36520339Y22391259D01*
X36214785Y22086250D01*
X35744101Y22556934D01*
X35273417Y23027619D01*
X35576801Y23331545D01*
X35880185Y23635472D01*
X35828232Y23739111D01*
X35792563Y23815727D01*
X35761250Y23892042D01*
X35750581Y23922125D01*
X35724883Y24001500D01*
X34860333Y24001500D01*
X34860333Y25335000D01*
X35275065Y25335000D01*
X35418047Y25335283D01*
X35524283Y25336460D01*
X35599357Y25339023D01*
X35648853Y25343464D01*
X35678357Y25350276D01*
X35693453Y25359951D01*
X35699581Y25372415D01*
X35711838Y25408519D01*
X35735928Y25471972D01*
X35767364Y25551061D01*
X35778664Y25578790D01*
X35847963Y25747750D01*
X35253273Y26350190D01*
X35707678Y26810970D01*
X35821501Y26925893D01*
X35926266Y27030722D01*
X36018170Y27121725D01*
X36093408Y27195172D01*
X36148179Y27247331D01*
X36178678Y27274472D01*
X36183250Y27277493D01*
X36204125Y27264984D01*
X36249598Y27226738D01*
X36314693Y27167306D01*
X36394431Y27091237D01*
X36483835Y27003083D01*
X36488430Y26998480D01*
X36772444Y26713723D01*
X36869430Y26762480D01*
X36945300Y26797548D01*
X37036571Y26835535D01*
X37094081Y26857434D01*
X37221745Y26903631D01*
X37213280Y27315232D01*
X37204816Y27726833D01*
X37908333Y27726833D01*
X37908333Y26076640D01*
X37860708Y26066932D01*
X37812305Y26058950D01*
X37741876Y26049398D01*
X37700310Y26044415D01*
X37499920Y26001218D01*
X37304500Y25920426D01*
X37119911Y25806769D01*
X36952009Y25664977D01*
X36806653Y25499779D01*
X36689701Y25315904D01*
X36627857Y25178572D01*
X36564296Y24952571D01*
X36542027Y24725834D01*
X36560227Y24501921D01*
X36618074Y24284390D01*
X36714745Y24076801D01*
X36849417Y23882712D01*
X36953820Y23768556D01*
X37125948Y23622447D01*
X37313432Y23511057D01*
X37521746Y23431866D01*
X37756364Y23382357D01*
X37807791Y23375694D01*
X37908333Y23363906D01*
X37908333Y22616740D01*
X37908711Y22438407D01*
X37909785Y22269673D01*
X37911464Y22116183D01*
X37913660Y21983577D01*
X37916281Y21877498D01*
X37919240Y21803586D01*
X37921794Y21771371D01*
X37935254Y21673166D01*
X37231000Y21673166D01*
G37*
X37231000Y21673166D02*
X37231000Y22537717D01*
X37151625Y22562857D01*
X37087795Y22585566D01*
X37006597Y22617712D01*
X36949071Y22642132D01*
X36825893Y22696267D01*
X36520339Y22391259D01*
X36214785Y22086250D01*
X35744101Y22556934D01*
X35273417Y23027619D01*
X35576801Y23331545D01*
X35880185Y23635472D01*
X35828232Y23739111D01*
X35792563Y23815727D01*
X35761250Y23892042D01*
X35750581Y23922125D01*
X35724883Y24001500D01*
X34860333Y24001500D01*
X34860333Y25335000D01*
X35275065Y25335000D01*
X35418047Y25335283D01*
X35524283Y25336460D01*
X35599357Y25339023D01*
X35648853Y25343464D01*
X35678357Y25350276D01*
X35693453Y25359951D01*
X35699581Y25372415D01*
X35711838Y25408519D01*
X35735928Y25471972D01*
X35767364Y25551061D01*
X35778664Y25578790D01*
X35847963Y25747750D01*
X35253273Y26350190D01*
X35707678Y26810970D01*
X35821501Y26925893D01*
X35926266Y27030722D01*
X36018170Y27121725D01*
X36093408Y27195172D01*
X36148179Y27247331D01*
X36178678Y27274472D01*
X36183250Y27277493D01*
X36204125Y27264984D01*
X36249598Y27226738D01*
X36314693Y27167306D01*
X36394431Y27091237D01*
X36483835Y27003083D01*
X36488430Y26998480D01*
X36772444Y26713723D01*
X36869430Y26762480D01*
X36945300Y26797548D01*
X37036571Y26835535D01*
X37094081Y26857434D01*
X37221745Y26903631D01*
X37213280Y27315232D01*
X37204816Y27726833D01*
X37908333Y27726833D01*
X37908333Y26076640D01*
X37860708Y26066932D01*
X37812305Y26058950D01*
X37741876Y26049398D01*
X37700310Y26044415D01*
X37499920Y26001218D01*
X37304500Y25920426D01*
X37119911Y25806769D01*
X36952009Y25664977D01*
X36806653Y25499779D01*
X36689701Y25315904D01*
X36627857Y25178572D01*
X36564296Y24952571D01*
X36542027Y24725834D01*
X36560227Y24501921D01*
X36618074Y24284390D01*
X36714745Y24076801D01*
X36849417Y23882712D01*
X36953820Y23768556D01*
X37125948Y23622447D01*
X37313432Y23511057D01*
X37521746Y23431866D01*
X37756364Y23382357D01*
X37807791Y23375694D01*
X37908333Y23363906D01*
X37908333Y22616740D01*
X37908711Y22438407D01*
X37909785Y22269673D01*
X37911464Y22116183D01*
X37913660Y21983577D01*
X37916281Y21877498D01*
X37919240Y21803586D01*
X37921794Y21771371D01*
X37935254Y21673166D01*
X37231000Y21673166D01*
G36*
X38395166Y16515885D02*
G01*
X38393451Y16385071D01*
X38387260Y16290936D01*
X38375030Y16227930D01*
X38355196Y16190499D01*
X38326194Y16173090D01*
X38297660Y16169833D01*
X38239015Y16151334D01*
X38183211Y16103801D01*
X38143708Y16039179D01*
X38140570Y16030443D01*
X38126501Y15932910D01*
X38153020Y15846259D01*
X38220678Y15768718D01*
X38222182Y15767473D01*
X38299916Y15703402D01*
X38313834Y15359826D01*
X38317785Y15236520D01*
X38321096Y15081445D01*
X38323767Y14900415D01*
X38325802Y14699239D01*
X38327203Y14483730D01*
X38327973Y14259700D01*
X38328114Y14032961D01*
X38327628Y13809324D01*
X38326517Y13594601D01*
X38324785Y13394604D01*
X38322434Y13215145D01*
X38319465Y13062035D01*
X38315882Y12941086D01*
X38312795Y12875012D01*
X38305422Y12760096D01*
X38297931Y12677878D01*
X38288191Y12618770D01*
X38274070Y12573184D01*
X38253437Y12531534D01*
X38226833Y12488391D01*
X38112426Y12343077D01*
X37980249Y12234430D01*
X37832663Y12163750D01*
X37672030Y12132339D01*
X37580250Y12132191D01*
X37415151Y12162818D01*
X37265782Y12232535D01*
X37132866Y12340844D01*
X37017130Y12487248D01*
X36985311Y12539494D01*
X36964170Y12577792D01*
X36948347Y12613249D01*
X36936788Y12653005D01*
X36928440Y12704203D01*
X36922248Y12773984D01*
X36917157Y12869488D01*
X36912115Y12997858D01*
X36910323Y13047494D01*
X36905868Y13199443D01*
X36902133Y13382247D01*
X36899128Y13589174D01*
X36896866Y13813493D01*
X36895358Y14048472D01*
X36894615Y14287381D01*
X36894649Y14523487D01*
X36895472Y14750061D01*
X36897094Y14960370D01*
X36899527Y15147684D01*
X36902783Y15305272D01*
X36906301Y15413125D01*
X36911870Y15538947D01*
X36917126Y15628539D01*
X36923048Y15687983D01*
X36930620Y15723363D01*
X36940824Y15740761D01*
X36954640Y15746260D01*
X36960109Y15746500D01*
X37001812Y15760759D01*
X37048912Y15795391D01*
X37052045Y15798454D01*
X37095858Y15869786D01*
X37107616Y15954921D01*
X37087747Y16040512D01*
X37042128Y16107961D01*
X36993603Y16147341D01*
X36949588Y16168615D01*
X36940528Y16169833D01*
X36906968Y16173875D01*
X36882793Y16189875D01*
X36866508Y16223649D01*
X36856618Y16281009D01*
X36851627Y16367769D01*
X36850041Y16489743D01*
X36850000Y16521805D01*
X36850818Y16646060D01*
X36853718Y16734733D01*
X36859370Y16794547D01*
X36868442Y16832230D01*
X36881603Y16854507D01*
X36883262Y16856238D01*
X36907595Y16871503D01*
X36949187Y16881504D01*
X37015533Y16887154D01*
X37114127Y16889368D01*
X37156039Y16889500D01*
X37262800Y16889500D01*
X37262800Y15458715D01*
X37231430Y15448343D01*
X37226664Y15444705D01*
X37192622Y15406740D01*
X37181910Y15386666D01*
X37179769Y15359978D01*
X37177900Y15294984D01*
X37176328Y15195712D01*
X37175082Y15066189D01*
X37174188Y14910441D01*
X37173672Y14732497D01*
X37173562Y14536384D01*
X37173884Y14326128D01*
X37174184Y14226076D01*
X37175088Y13978615D01*
X37176038Y13770054D01*
X37177166Y13596960D01*
X37178604Y13455900D01*
X37180486Y13343441D01*
X37182944Y13256150D01*
X37186110Y13190593D01*
X37190117Y13143337D01*
X37195097Y13110950D01*
X37201184Y13089998D01*
X37208510Y13077048D01*
X37217207Y13068667D01*
X37218938Y13067371D01*
X37254805Y13048831D01*
X37285840Y13061656D01*
X37298313Y13072367D01*
X37306708Y13081865D01*
X37313789Y13096183D01*
X37319668Y13118732D01*
X37324457Y13152923D01*
X37328266Y13202167D01*
X37331206Y13269875D01*
X37333389Y13359458D01*
X37334925Y13474327D01*
X37335927Y13617893D01*
X37336505Y13793568D01*
X37336770Y14004762D01*
X37336833Y14254250D01*
X37336769Y14504278D01*
X37336504Y14715385D01*
X37335925Y14890980D01*
X37334922Y15034475D01*
X37333384Y15149281D01*
X37331200Y15238808D01*
X37328258Y15306469D01*
X37324447Y15355674D01*
X37319656Y15389833D01*
X37313774Y15412359D01*
X37306689Y15426661D01*
X37298313Y15436132D01*
X37262800Y15458715D01*
X37262800Y16889500D01*
X37395553Y16889500D01*
X37411449Y17434541D01*
X37414857Y17585732D01*
X37417385Y17770052D01*
X37419004Y17978306D01*
X37419681Y18201298D01*
X37419385Y18429835D01*
X37418085Y18654719D01*
X37416206Y18833205D01*
X37405067Y19686826D01*
X37352200Y19743371D01*
X37271299Y19858167D01*
X37225524Y19993622D01*
X37215845Y20062640D01*
X37214792Y20119345D01*
X37218070Y20206473D01*
X37224941Y20316434D01*
X37234667Y20441642D01*
X37246509Y20574510D01*
X37259731Y20707449D01*
X37273593Y20832872D01*
X37287358Y20943191D01*
X37300288Y21030819D01*
X37311644Y21088168D01*
X37317192Y21104518D01*
X37329609Y21120613D01*
X37351353Y21131663D01*
X37389556Y21138595D01*
X37451350Y21142336D01*
X37543866Y21143813D01*
X37620760Y21144000D01*
X37622633Y21144000D01*
X37622633Y15458715D01*
X37591264Y15448343D01*
X37586498Y15444705D01*
X37552611Y15406770D01*
X37542022Y15386666D01*
X37538617Y15356069D01*
X37535739Y15288096D01*
X37533374Y15187650D01*
X37531510Y15059632D01*
X37530134Y14908944D01*
X37529233Y14740487D01*
X37528794Y14559164D01*
X37528805Y14369875D01*
X37529252Y14177523D01*
X37530124Y13987009D01*
X37531406Y13803235D01*
X37533087Y13631102D01*
X37535153Y13475513D01*
X37537591Y13341368D01*
X37540389Y13233570D01*
X37543534Y13157019D01*
X37547013Y13116619D01*
X37547976Y13112628D01*
X37581891Y13068895D01*
X37629096Y13060062D01*
X37671267Y13083733D01*
X37677164Y13100468D01*
X37682167Y13139603D01*
X37686329Y13203623D01*
X37689705Y13295014D01*
X37692347Y13416261D01*
X37694311Y13569849D01*
X37695649Y13758263D01*
X37696417Y13983988D01*
X37696666Y14249509D01*
X37696666Y14255203D01*
X37696603Y14505120D01*
X37696337Y14716116D01*
X37695757Y14891604D01*
X37694753Y15034997D01*
X37693214Y15149706D01*
X37691026Y15239145D01*
X37688081Y15306725D01*
X37684265Y15355860D01*
X37679468Y15389962D01*
X37673579Y15412444D01*
X37666485Y15426717D01*
X37658146Y15436132D01*
X37622633Y15458715D01*
X37622633Y21144000D01*
X37903197Y21144000D01*
X37925152Y21085791D01*
X37937089Y21036893D01*
X37950286Y20954227D01*
X37964069Y20845713D01*
X37977761Y20719268D01*
X37990687Y20582809D01*
X38002169Y20444254D01*
X38011533Y20311521D01*
X38018102Y20192527D01*
X38021200Y20095189D01*
X38020150Y20027426D01*
X38017432Y20005047D01*
X37991481Y19925113D01*
X37951793Y19841732D01*
X37905802Y19767806D01*
X37860939Y19716231D01*
X37844169Y19704311D01*
X37832278Y19696288D01*
X37822892Y19683305D01*
X37815715Y19660727D01*
X37810453Y19623922D01*
X37806808Y19568255D01*
X37804486Y19489094D01*
X37803192Y19381805D01*
X37802628Y19241755D01*
X37802500Y19064310D01*
X37802500Y19051217D01*
X37802955Y18867202D01*
X37804241Y18652504D01*
X37806243Y18418759D01*
X37808843Y18177605D01*
X37811924Y17940681D01*
X37815370Y17719624D01*
X37816515Y17654961D01*
X37830530Y16889500D01*
X37936302Y16889500D01*
X37936302Y15478135D01*
X37890568Y15432401D01*
X37880532Y15421799D01*
X37872084Y15409415D01*
X37865087Y15391757D01*
X37859403Y15365333D01*
X37854897Y15326650D01*
X37851431Y15272218D01*
X37848869Y15198544D01*
X37847074Y15102136D01*
X37845911Y14979503D01*
X37845241Y14827153D01*
X37844929Y14641594D01*
X37844839Y14419333D01*
X37844833Y14263442D01*
X37845258Y13980925D01*
X37846522Y13736205D01*
X37848612Y13530001D01*
X37851515Y13363029D01*
X37855217Y13236008D01*
X37859704Y13149656D01*
X37864964Y13104690D01*
X37866745Y13099275D01*
X37905403Y13064311D01*
X37955501Y13063050D01*
X37988767Y13083733D01*
X37994688Y13100512D01*
X37999708Y13139728D01*
X38003880Y13203876D01*
X38007259Y13295449D01*
X38009899Y13416941D01*
X38011856Y13570845D01*
X38013183Y13759655D01*
X38013935Y13985864D01*
X38014166Y14245555D01*
X38014101Y14494453D01*
X38013828Y14704489D01*
X38013233Y14879132D01*
X38012203Y15021852D01*
X38010624Y15136120D01*
X38008381Y15225406D01*
X38005360Y15293181D01*
X38001447Y15342914D01*
X37996529Y15378075D01*
X37990491Y15402136D01*
X37983218Y15418566D01*
X37975234Y15430056D01*
X37936302Y15478135D01*
X37936302Y16889500D01*
X38079898Y16889500D01*
X38192856Y16889021D01*
X38275001Y16883712D01*
X38331238Y16867761D01*
X38366471Y16835358D01*
X38385602Y16780690D01*
X38393536Y16697947D01*
X38395176Y16581318D01*
X38395166Y16515885D01*
G37*
X38395166Y16515885D02*
X38393451Y16385071D01*
X38387260Y16290936D01*
X38375030Y16227930D01*
X38355196Y16190499D01*
X38326194Y16173090D01*
X38297660Y16169833D01*
X38239015Y16151334D01*
X38183211Y16103801D01*
X38143708Y16039179D01*
X38140570Y16030443D01*
X38126501Y15932910D01*
X38153020Y15846259D01*
X38220678Y15768718D01*
X38222182Y15767473D01*
X38299916Y15703402D01*
X38313834Y15359826D01*
X38317785Y15236520D01*
X38321096Y15081445D01*
X38323767Y14900415D01*
X38325802Y14699239D01*
X38327203Y14483730D01*
X38327973Y14259700D01*
X38328114Y14032961D01*
X38327628Y13809324D01*
X38326517Y13594601D01*
X38324785Y13394604D01*
X38322434Y13215145D01*
X38319465Y13062035D01*
X38315882Y12941086D01*
X38312795Y12875012D01*
X38305422Y12760096D01*
X38297931Y12677878D01*
X38288191Y12618770D01*
X38274070Y12573184D01*
X38253437Y12531534D01*
X38226833Y12488391D01*
X38112426Y12343077D01*
X37980249Y12234430D01*
X37832663Y12163750D01*
X37672030Y12132339D01*
X37580250Y12132191D01*
X37415151Y12162818D01*
X37265782Y12232535D01*
X37132866Y12340844D01*
X37017130Y12487248D01*
X36985311Y12539494D01*
X36964170Y12577792D01*
X36948347Y12613249D01*
X36936788Y12653005D01*
X36928440Y12704203D01*
X36922248Y12773984D01*
X36917157Y12869488D01*
X36912115Y12997858D01*
X36910323Y13047494D01*
X36905868Y13199443D01*
X36902133Y13382247D01*
X36899128Y13589174D01*
X36896866Y13813493D01*
X36895358Y14048472D01*
X36894615Y14287381D01*
X36894649Y14523487D01*
X36895472Y14750061D01*
X36897094Y14960370D01*
X36899527Y15147684D01*
X36902783Y15305272D01*
X36906301Y15413125D01*
X36911870Y15538947D01*
X36917126Y15628539D01*
X36923048Y15687983D01*
X36930620Y15723363D01*
X36940824Y15740761D01*
X36954640Y15746260D01*
X36960109Y15746500D01*
X37001812Y15760759D01*
X37048912Y15795391D01*
X37052045Y15798454D01*
X37095858Y15869786D01*
X37107616Y15954921D01*
X37087747Y16040512D01*
X37042128Y16107961D01*
X36993603Y16147341D01*
X36949588Y16168615D01*
X36940528Y16169833D01*
X36906968Y16173875D01*
X36882793Y16189875D01*
X36866508Y16223649D01*
X36856618Y16281009D01*
X36851627Y16367769D01*
X36850041Y16489743D01*
X36850000Y16521805D01*
X36850818Y16646060D01*
X36853718Y16734733D01*
X36859370Y16794547D01*
X36868442Y16832230D01*
X36881603Y16854507D01*
X36883262Y16856238D01*
X36907595Y16871503D01*
X36949187Y16881504D01*
X37015533Y16887154D01*
X37114127Y16889368D01*
X37156039Y16889500D01*
X37262800Y16889500D01*
X37262800Y15458715D01*
X37231430Y15448343D01*
X37226664Y15444705D01*
X37192622Y15406740D01*
X37181910Y15386666D01*
X37179769Y15359978D01*
X37177900Y15294984D01*
X37176328Y15195712D01*
X37175082Y15066189D01*
X37174188Y14910441D01*
X37173672Y14732497D01*
X37173562Y14536384D01*
X37173884Y14326128D01*
X37174184Y14226076D01*
X37175088Y13978615D01*
X37176038Y13770054D01*
X37177166Y13596960D01*
X37178604Y13455900D01*
X37180486Y13343441D01*
X37182944Y13256150D01*
X37186110Y13190593D01*
X37190117Y13143337D01*
X37195097Y13110950D01*
X37201184Y13089998D01*
X37208510Y13077048D01*
X37217207Y13068667D01*
X37218938Y13067371D01*
X37254805Y13048831D01*
X37285840Y13061656D01*
X37298313Y13072367D01*
X37306708Y13081865D01*
X37313789Y13096183D01*
X37319668Y13118732D01*
X37324457Y13152923D01*
X37328266Y13202167D01*
X37331206Y13269875D01*
X37333389Y13359458D01*
X37334925Y13474327D01*
X37335927Y13617893D01*
X37336505Y13793568D01*
X37336770Y14004762D01*
X37336833Y14254250D01*
X37336769Y14504278D01*
X37336504Y14715385D01*
X37335925Y14890980D01*
X37334922Y15034475D01*
X37333384Y15149281D01*
X37331200Y15238808D01*
X37328258Y15306469D01*
X37324447Y15355674D01*
X37319656Y15389833D01*
X37313774Y15412359D01*
X37306689Y15426661D01*
X37298313Y15436132D01*
X37262800Y15458715D01*
X37262800Y16889500D01*
X37395553Y16889500D01*
X37411449Y17434541D01*
X37414857Y17585732D01*
X37417385Y17770052D01*
X37419004Y17978306D01*
X37419681Y18201298D01*
X37419385Y18429835D01*
X37418085Y18654719D01*
X37416206Y18833205D01*
X37405067Y19686826D01*
X37352200Y19743371D01*
X37271299Y19858167D01*
X37225524Y19993622D01*
X37215845Y20062640D01*
X37214792Y20119345D01*
X37218070Y20206473D01*
X37224941Y20316434D01*
X37234667Y20441642D01*
X37246509Y20574510D01*
X37259731Y20707449D01*
X37273593Y20832872D01*
X37287358Y20943191D01*
X37300288Y21030819D01*
X37311644Y21088168D01*
X37317192Y21104518D01*
X37329609Y21120613D01*
X37351353Y21131663D01*
X37389556Y21138595D01*
X37451350Y21142336D01*
X37543866Y21143813D01*
X37620760Y21144000D01*
X37622633Y21144000D01*
X37622633Y15458715D01*
X37591264Y15448343D01*
X37586498Y15444705D01*
X37552611Y15406770D01*
X37542022Y15386666D01*
X37538617Y15356069D01*
X37535739Y15288096D01*
X37533374Y15187650D01*
X37531510Y15059632D01*
X37530134Y14908944D01*
X37529233Y14740487D01*
X37528794Y14559164D01*
X37528805Y14369875D01*
X37529252Y14177523D01*
X37530124Y13987009D01*
X37531406Y13803235D01*
X37533087Y13631102D01*
X37535153Y13475513D01*
X37537591Y13341368D01*
X37540389Y13233570D01*
X37543534Y13157019D01*
X37547013Y13116619D01*
X37547976Y13112628D01*
X37581891Y13068895D01*
X37629096Y13060062D01*
X37671267Y13083733D01*
X37677164Y13100468D01*
X37682167Y13139603D01*
X37686329Y13203623D01*
X37689705Y13295014D01*
X37692347Y13416261D01*
X37694311Y13569849D01*
X37695649Y13758263D01*
X37696417Y13983988D01*
X37696666Y14249509D01*
X37696666Y14255203D01*
X37696603Y14505120D01*
X37696337Y14716116D01*
X37695757Y14891604D01*
X37694753Y15034997D01*
X37693214Y15149706D01*
X37691026Y15239145D01*
X37688081Y15306725D01*
X37684265Y15355860D01*
X37679468Y15389962D01*
X37673579Y15412444D01*
X37666485Y15426717D01*
X37658146Y15436132D01*
X37622633Y15458715D01*
X37622633Y21144000D01*
X37903197Y21144000D01*
X37925152Y21085791D01*
X37937089Y21036893D01*
X37950286Y20954227D01*
X37964069Y20845713D01*
X37977761Y20719268D01*
X37990687Y20582809D01*
X38002169Y20444254D01*
X38011533Y20311521D01*
X38018102Y20192527D01*
X38021200Y20095189D01*
X38020150Y20027426D01*
X38017432Y20005047D01*
X37991481Y19925113D01*
X37951793Y19841732D01*
X37905802Y19767806D01*
X37860939Y19716231D01*
X37844169Y19704311D01*
X37832278Y19696288D01*
X37822892Y19683305D01*
X37815715Y19660727D01*
X37810453Y19623922D01*
X37806808Y19568255D01*
X37804486Y19489094D01*
X37803192Y19381805D01*
X37802628Y19241755D01*
X37802500Y19064310D01*
X37802500Y19051217D01*
X37802955Y18867202D01*
X37804241Y18652504D01*
X37806243Y18418759D01*
X37808843Y18177605D01*
X37811924Y17940681D01*
X37815370Y17719624D01*
X37816515Y17654961D01*
X37830530Y16889500D01*
X37936302Y16889500D01*
X37936302Y15478135D01*
X37890568Y15432401D01*
X37880532Y15421799D01*
X37872084Y15409415D01*
X37865087Y15391757D01*
X37859403Y15365333D01*
X37854897Y15326650D01*
X37851431Y15272218D01*
X37848869Y15198544D01*
X37847074Y15102136D01*
X37845911Y14979503D01*
X37845241Y14827153D01*
X37844929Y14641594D01*
X37844839Y14419333D01*
X37844833Y14263442D01*
X37845258Y13980925D01*
X37846522Y13736205D01*
X37848612Y13530001D01*
X37851515Y13363029D01*
X37855217Y13236008D01*
X37859704Y13149656D01*
X37864964Y13104690D01*
X37866745Y13099275D01*
X37905403Y13064311D01*
X37955501Y13063050D01*
X37988767Y13083733D01*
X37994688Y13100512D01*
X37999708Y13139728D01*
X38003880Y13203876D01*
X38007259Y13295449D01*
X38009899Y13416941D01*
X38011856Y13570845D01*
X38013183Y13759655D01*
X38013935Y13985864D01*
X38014166Y14245555D01*
X38014101Y14494453D01*
X38013828Y14704489D01*
X38013233Y14879132D01*
X38012203Y15021852D01*
X38010624Y15136120D01*
X38008381Y15225406D01*
X38005360Y15293181D01*
X38001447Y15342914D01*
X37996529Y15378075D01*
X37990491Y15402136D01*
X37983218Y15418566D01*
X37975234Y15430056D01*
X37936302Y15478135D01*
X37936302Y16889500D01*
X38079898Y16889500D01*
X38192856Y16889021D01*
X38275001Y16883712D01*
X38331238Y16867761D01*
X38366471Y16835358D01*
X38385602Y16780690D01*
X38393536Y16697947D01*
X38395176Y16581318D01*
X38395166Y16515885D01*
G36*
X38162733Y32669383D02*
G01*
X38056500Y32634098D01*
X38056500Y31121331D01*
X38056407Y30827152D01*
X38056091Y30572398D01*
X38055491Y30354162D01*
X38054548Y30169536D01*
X38053203Y30015612D01*
X38051397Y29889483D01*
X38049071Y29788241D01*
X38046164Y29708979D01*
X38042618Y29648789D01*
X38038374Y29604763D01*
X38033372Y29573993D01*
X38027553Y29553572D01*
X38024392Y29546474D01*
X37973492Y29484540D01*
X37901312Y29438586D01*
X37826130Y29420174D01*
X37824718Y29420166D01*
X37807200Y29418085D01*
X37795166Y29407393D01*
X37787588Y29381416D01*
X37783441Y29333481D01*
X37781698Y29256914D01*
X37781334Y29145042D01*
X37781333Y29138002D01*
X37778338Y29017755D01*
X37770063Y28888779D01*
X37757577Y28758987D01*
X37741946Y28636292D01*
X37724239Y28528605D01*
X37705522Y28443839D01*
X37686864Y28389906D01*
X37678778Y28377811D01*
X37639710Y28358032D01*
X37604022Y28378705D01*
X37572193Y28438048D01*
X37544701Y28534278D01*
X37522026Y28665615D01*
X37504645Y28830275D01*
X37493037Y29026478D01*
X37491223Y29076208D01*
X37486755Y29204163D01*
X37482385Y29295810D01*
X37477202Y29357164D01*
X37470294Y29394238D01*
X37460751Y29413047D01*
X37447663Y29419603D01*
X37439130Y29420166D01*
X37368962Y29436952D01*
X37297262Y29479928D01*
X37243256Y29537000D01*
X37236250Y29550361D01*
X37230133Y29569582D01*
X37224812Y29597624D01*
X37220197Y29637448D01*
X37216194Y29692013D01*
X37212714Y29764282D01*
X37209663Y29857213D01*
X37206949Y29973767D01*
X37204483Y30116905D01*
X37202170Y30289588D01*
X37199921Y30494775D01*
X37197643Y30735428D01*
X37195244Y31014506D01*
X37194436Y31112321D01*
X37181979Y32632144D01*
X36987583Y32692488D01*
X36981889Y33161451D01*
X36980264Y33314775D01*
X36979836Y33431138D01*
X36980955Y33515905D01*
X36983968Y33574440D01*
X36989226Y33612106D01*
X36997076Y33634269D01*
X37007867Y33646293D01*
X37013639Y33649754D01*
X37058346Y33668974D01*
X37119764Y33691178D01*
X37130458Y33694689D01*
X37209833Y33720283D01*
X37209833Y36059121D01*
X37217825Y36066629D01*
X37217825Y33357166D01*
X37159296Y33354232D01*
X37132031Y33342122D01*
X37125171Y33315875D01*
X37125166Y33314833D01*
X37130940Y33289104D01*
X37155279Y33276482D01*
X37208711Y33272611D01*
X37217825Y33272558D01*
X37217825Y33060833D01*
X37159296Y33057899D01*
X37132031Y33045789D01*
X37125171Y33019542D01*
X37125166Y33018500D01*
X37130940Y32992771D01*
X37155279Y32980148D01*
X37208711Y32976277D01*
X37227472Y32976166D01*
X37290130Y32978830D01*
X37333708Y32985598D01*
X37343705Y32990094D01*
X37348900Y33015658D01*
X37321145Y33039378D01*
X37269693Y33056055D01*
X37217825Y33060833D01*
X37217825Y33272558D01*
X37227472Y33272500D01*
X37290130Y33275164D01*
X37333708Y33281932D01*
X37343705Y33286427D01*
X37348900Y33311991D01*
X37321145Y33335711D01*
X37269693Y33352389D01*
X37217825Y33357166D01*
X37217825Y36066629D01*
X37258822Y36105144D01*
X37281188Y36123454D01*
X37307719Y36136153D01*
X37346082Y36144256D01*
X37403944Y36148781D01*
X37488973Y36150746D01*
X37605727Y36151166D01*
X37726600Y36150545D01*
X37812795Y36148088D01*
X37823666Y36147136D01*
X37823666Y32543673D01*
X37622588Y32542961D01*
X37421510Y32542250D01*
X37421505Y32337856D01*
X37422145Y32243687D01*
X37425036Y32184530D01*
X37431629Y32153071D01*
X37443373Y32141996D01*
X37460020Y32143536D01*
X37505088Y32137101D01*
X37536795Y32100334D01*
X37545369Y32045083D01*
X37544833Y32040707D01*
X37525091Y32000618D01*
X37479708Y31985219D01*
X37421500Y31978521D01*
X37421500Y31542704D01*
X37472543Y31552461D01*
X37521318Y31547544D01*
X37547371Y31517776D01*
X37558646Y31461117D01*
X37536330Y31414062D01*
X37487888Y31389689D01*
X37473672Y31388666D01*
X37421500Y31388666D01*
X37421500Y30534008D01*
X37421796Y30309409D01*
X37422747Y30124007D01*
X37424449Y29974668D01*
X37426995Y29858259D01*
X37430480Y29771649D01*
X37435000Y29711702D01*
X37440649Y29675287D01*
X37447521Y29659271D01*
X37447958Y29658902D01*
X37481728Y29650343D01*
X37547596Y29647187D01*
X37635628Y29649814D01*
X37654333Y29651019D01*
X37834250Y29663583D01*
X37833288Y29753541D01*
X37832952Y29795067D01*
X37832421Y29873531D01*
X37831727Y29983540D01*
X37830903Y30119701D01*
X37829982Y30276621D01*
X37828996Y30448905D01*
X37827996Y30627916D01*
X37826142Y30860966D01*
X37823383Y31052404D01*
X37819725Y31202092D01*
X37815173Y31309892D01*
X37809730Y31375666D01*
X37803402Y31399275D01*
X37802310Y31399133D01*
X37766522Y31394192D01*
X37737604Y31399693D01*
X37706937Y31420164D01*
X37699502Y31462554D01*
X37700752Y31480434D01*
X37712214Y31529100D01*
X37741805Y31549931D01*
X37765458Y31554114D01*
X37823666Y31560812D01*
X37823666Y31978521D01*
X37765458Y31985219D01*
X37723088Y31997851D01*
X37704661Y32031697D01*
X37700752Y32058899D01*
X37702746Y32109985D01*
X37726200Y32135272D01*
X37737604Y32139640D01*
X37782022Y32145275D01*
X37802310Y32140200D01*
X37813052Y32153263D01*
X37820172Y32206605D01*
X37823458Y32298308D01*
X37823666Y32335337D01*
X37823666Y32543673D01*
X37823666Y36147136D01*
X37871956Y36142907D01*
X37911728Y36134113D01*
X37939755Y36120816D01*
X37953613Y36110713D01*
X38003583Y36070260D01*
X38007111Y35680124D01*
X38007111Y33357166D01*
X37947592Y33354067D01*
X37907490Y33346288D01*
X37900837Y33342614D01*
X37890260Y33313957D01*
X37918197Y33291688D01*
X37981015Y33278224D01*
X37999946Y33276632D01*
X38007111Y33276419D01*
X38007111Y33060833D01*
X37947592Y33057734D01*
X37907490Y33049955D01*
X37900837Y33046281D01*
X37890260Y33017624D01*
X37918197Y32995354D01*
X37981015Y32981891D01*
X37999946Y32980298D01*
X38060320Y32978497D01*
X38089553Y32986182D01*
X38098489Y33007414D01*
X38098833Y33017340D01*
X38092697Y33044855D01*
X38066947Y33057610D01*
X38010573Y33060829D01*
X38007111Y33060833D01*
X38007111Y33276419D01*
X38060320Y33274830D01*
X38089553Y33282515D01*
X38098489Y33303747D01*
X38098833Y33313673D01*
X38092697Y33341188D01*
X38066947Y33353944D01*
X38010573Y33357162D01*
X38007111Y33357166D01*
X38007111Y35680124D01*
X38014166Y34899961D01*
X38024750Y33729662D01*
X38141166Y33685256D01*
X38257583Y33640850D01*
X38268967Y32704668D01*
X38162733Y32669383D01*
G37*
X38162733Y32669383D02*
X38056500Y32634098D01*
X38056500Y31121331D01*
X38056407Y30827152D01*
X38056091Y30572398D01*
X38055491Y30354162D01*
X38054548Y30169536D01*
X38053203Y30015612D01*
X38051397Y29889483D01*
X38049071Y29788241D01*
X38046164Y29708979D01*
X38042618Y29648789D01*
X38038374Y29604763D01*
X38033372Y29573993D01*
X38027553Y29553572D01*
X38024392Y29546474D01*
X37973492Y29484540D01*
X37901312Y29438586D01*
X37826130Y29420174D01*
X37824718Y29420166D01*
X37807200Y29418085D01*
X37795166Y29407393D01*
X37787588Y29381416D01*
X37783441Y29333481D01*
X37781698Y29256914D01*
X37781334Y29145042D01*
X37781333Y29138002D01*
X37778338Y29017755D01*
X37770063Y28888779D01*
X37757577Y28758987D01*
X37741946Y28636292D01*
X37724239Y28528605D01*
X37705522Y28443839D01*
X37686864Y28389906D01*
X37678778Y28377811D01*
X37639710Y28358032D01*
X37604022Y28378705D01*
X37572193Y28438048D01*
X37544701Y28534278D01*
X37522026Y28665615D01*
X37504645Y28830275D01*
X37493037Y29026478D01*
X37491223Y29076208D01*
X37486755Y29204163D01*
X37482385Y29295810D01*
X37477202Y29357164D01*
X37470294Y29394238D01*
X37460751Y29413047D01*
X37447663Y29419603D01*
X37439130Y29420166D01*
X37368962Y29436952D01*
X37297262Y29479928D01*
X37243256Y29537000D01*
X37236250Y29550361D01*
X37230133Y29569582D01*
X37224812Y29597624D01*
X37220197Y29637448D01*
X37216194Y29692013D01*
X37212714Y29764282D01*
X37209663Y29857213D01*
X37206949Y29973767D01*
X37204483Y30116905D01*
X37202170Y30289588D01*
X37199921Y30494775D01*
X37197643Y30735428D01*
X37195244Y31014506D01*
X37194436Y31112321D01*
X37181979Y32632144D01*
X36987583Y32692488D01*
X36981889Y33161451D01*
X36980264Y33314775D01*
X36979836Y33431138D01*
X36980955Y33515905D01*
X36983968Y33574440D01*
X36989226Y33612106D01*
X36997076Y33634269D01*
X37007867Y33646293D01*
X37013639Y33649754D01*
X37058346Y33668974D01*
X37119764Y33691178D01*
X37130458Y33694689D01*
X37209833Y33720283D01*
X37209833Y36059121D01*
X37217825Y36066629D01*
X37217825Y33357166D01*
X37159296Y33354232D01*
X37132031Y33342122D01*
X37125171Y33315875D01*
X37125166Y33314833D01*
X37130940Y33289104D01*
X37155279Y33276482D01*
X37208711Y33272611D01*
X37217825Y33272558D01*
X37217825Y33060833D01*
X37159296Y33057899D01*
X37132031Y33045789D01*
X37125171Y33019542D01*
X37125166Y33018500D01*
X37130940Y32992771D01*
X37155279Y32980148D01*
X37208711Y32976277D01*
X37227472Y32976166D01*
X37290130Y32978830D01*
X37333708Y32985598D01*
X37343705Y32990094D01*
X37348900Y33015658D01*
X37321145Y33039378D01*
X37269693Y33056055D01*
X37217825Y33060833D01*
X37217825Y33272558D01*
X37227472Y33272500D01*
X37290130Y33275164D01*
X37333708Y33281932D01*
X37343705Y33286427D01*
X37348900Y33311991D01*
X37321145Y33335711D01*
X37269693Y33352389D01*
X37217825Y33357166D01*
X37217825Y36066629D01*
X37258822Y36105144D01*
X37281188Y36123454D01*
X37307719Y36136153D01*
X37346082Y36144256D01*
X37403944Y36148781D01*
X37488973Y36150746D01*
X37605727Y36151166D01*
X37726600Y36150545D01*
X37812795Y36148088D01*
X37823666Y36147136D01*
X37823666Y32543673D01*
X37622588Y32542961D01*
X37421510Y32542250D01*
X37421505Y32337856D01*
X37422145Y32243687D01*
X37425036Y32184530D01*
X37431629Y32153071D01*
X37443373Y32141996D01*
X37460020Y32143536D01*
X37505088Y32137101D01*
X37536795Y32100334D01*
X37545369Y32045083D01*
X37544833Y32040707D01*
X37525091Y32000618D01*
X37479708Y31985219D01*
X37421500Y31978521D01*
X37421500Y31542704D01*
X37472543Y31552461D01*
X37521318Y31547544D01*
X37547371Y31517776D01*
X37558646Y31461117D01*
X37536330Y31414062D01*
X37487888Y31389689D01*
X37473672Y31388666D01*
X37421500Y31388666D01*
X37421500Y30534008D01*
X37421796Y30309409D01*
X37422747Y30124007D01*
X37424449Y29974668D01*
X37426995Y29858259D01*
X37430480Y29771649D01*
X37435000Y29711702D01*
X37440649Y29675287D01*
X37447521Y29659271D01*
X37447958Y29658902D01*
X37481728Y29650343D01*
X37547596Y29647187D01*
X37635628Y29649814D01*
X37654333Y29651019D01*
X37834250Y29663583D01*
X37833288Y29753541D01*
X37832952Y29795067D01*
X37832421Y29873531D01*
X37831727Y29983540D01*
X37830903Y30119701D01*
X37829982Y30276621D01*
X37828996Y30448905D01*
X37827996Y30627916D01*
X37826142Y30860966D01*
X37823383Y31052404D01*
X37819725Y31202092D01*
X37815173Y31309892D01*
X37809730Y31375666D01*
X37803402Y31399275D01*
X37802310Y31399133D01*
X37766522Y31394192D01*
X37737604Y31399693D01*
X37706937Y31420164D01*
X37699502Y31462554D01*
X37700752Y31480434D01*
X37712214Y31529100D01*
X37741805Y31549931D01*
X37765458Y31554114D01*
X37823666Y31560812D01*
X37823666Y31978521D01*
X37765458Y31985219D01*
X37723088Y31997851D01*
X37704661Y32031697D01*
X37700752Y32058899D01*
X37702746Y32109985D01*
X37726200Y32135272D01*
X37737604Y32139640D01*
X37782022Y32145275D01*
X37802310Y32140200D01*
X37813052Y32153263D01*
X37820172Y32206605D01*
X37823458Y32298308D01*
X37823666Y32335337D01*
X37823666Y32543673D01*
X37823666Y36147136D01*
X37871956Y36142907D01*
X37911728Y36134113D01*
X37939755Y36120816D01*
X37953613Y36110713D01*
X38003583Y36070260D01*
X38007111Y35680124D01*
X38007111Y33357166D01*
X37947592Y33354067D01*
X37907490Y33346288D01*
X37900837Y33342614D01*
X37890260Y33313957D01*
X37918197Y33291688D01*
X37981015Y33278224D01*
X37999946Y33276632D01*
X38007111Y33276419D01*
X38007111Y33060833D01*
X37947592Y33057734D01*
X37907490Y33049955D01*
X37900837Y33046281D01*
X37890260Y33017624D01*
X37918197Y32995354D01*
X37981015Y32981891D01*
X37999946Y32980298D01*
X38060320Y32978497D01*
X38089553Y32986182D01*
X38098489Y33007414D01*
X38098833Y33017340D01*
X38092697Y33044855D01*
X38066947Y33057610D01*
X38010573Y33060829D01*
X38007111Y33060833D01*
X38007111Y33276419D01*
X38060320Y33274830D01*
X38089553Y33282515D01*
X38098489Y33303747D01*
X38098833Y33313673D01*
X38092697Y33341188D01*
X38066947Y33353944D01*
X38010573Y33357162D01*
X38007111Y33357166D01*
X38007111Y35680124D01*
X38014166Y34899961D01*
X38024750Y33729662D01*
X38141166Y33685256D01*
X38257583Y33640850D01*
X38268967Y32704668D01*
X38162733Y32669383D01*
G36*
X49306583Y8814416D02*
G01*
X37209833Y8803760D01*
X37209833Y11428500D01*
X38035333Y11428500D01*
X38035333Y9629333D01*
X48491666Y9629333D01*
X48491666Y39241500D01*
X38035333Y39241500D01*
X38035333Y37167166D01*
X37209833Y37167166D01*
X37209833Y40067000D01*
X49317195Y40067000D01*
X49306583Y8814416D01*
G37*
X49306583Y8814416D02*
X37209833Y8803760D01*
X37209833Y11428500D01*
X38035333Y11428500D01*
X38035333Y9629333D01*
X48491666Y9629333D01*
X48491666Y39241500D01*
X38035333Y39241500D01*
X38035333Y37167166D01*
X37209833Y37167166D01*
X37209833Y40067000D01*
X49317195Y40067000D01*
X49306583Y8814416D01*
G36*
X37759646Y36222222D02*
G01*
X37720976Y36216642D01*
X37650739Y36214775D01*
X37613426Y36214666D01*
X37526611Y36215127D01*
X37473735Y36221838D01*
X37448588Y36242790D01*
X37444958Y36285975D01*
X37456635Y36359385D01*
X37465372Y36405166D01*
X37479715Y36481663D01*
X37492985Y36553811D01*
X37495762Y36569208D01*
X37505891Y36610677D01*
X37525095Y36630876D01*
X37565967Y36637436D01*
X37609297Y36638000D01*
X37710509Y36638000D01*
X37736446Y36463375D01*
X37749798Y36377698D01*
X37762239Y36305133D01*
X37771565Y36258348D01*
X37773284Y36251708D01*
X37774499Y36233313D01*
X37759646Y36222222D01*
G37*
X37759646Y36222222D02*
X37720976Y36216642D01*
X37650739Y36214775D01*
X37613426Y36214666D01*
X37526611Y36215127D01*
X37473735Y36221838D01*
X37448588Y36242790D01*
X37444958Y36285975D01*
X37456635Y36359385D01*
X37465372Y36405166D01*
X37479715Y36481663D01*
X37492985Y36553811D01*
X37495762Y36569208D01*
X37505891Y36610677D01*
X37525095Y36630876D01*
X37565967Y36637436D01*
X37609297Y36638000D01*
X37710509Y36638000D01*
X37736446Y36463375D01*
X37749798Y36377698D01*
X37762239Y36305133D01*
X37771565Y36258348D01*
X37773284Y36251708D01*
X37774499Y36233313D01*
X37759646Y36222222D01*
G36*
X40373014Y34036234D02*
G01*
X40331316Y33922387D01*
X40257112Y33834638D01*
X40151779Y33774321D01*
X40016696Y33742772D01*
X39930430Y33738166D01*
X39792166Y33738166D01*
X39792166Y34013333D01*
X39909545Y34013333D01*
X39985279Y34017103D01*
X40035273Y34031723D01*
X40075709Y34062158D01*
X40078879Y34065288D01*
X40114356Y34109893D01*
X40130709Y34148457D01*
X40130833Y34150916D01*
X40116749Y34187995D01*
X40082481Y34232862D01*
X40078879Y34236545D01*
X40026924Y34288500D01*
X39533255Y34288500D01*
X39360194Y34288041D01*
X39224847Y34285945D01*
X39122596Y34281129D01*
X39048826Y34272515D01*
X38998920Y34259021D01*
X38968262Y34239567D01*
X38952235Y34213072D01*
X38946224Y34178456D01*
X38945500Y34150916D01*
X38957589Y34086691D01*
X38996747Y34044102D01*
X39067305Y34020526D01*
X39172460Y34013333D01*
X39305333Y34013333D01*
X39305333Y33734080D01*
X39106167Y33741415D01*
X39010664Y33745921D01*
X38945796Y33752995D01*
X38899872Y33765649D01*
X38861195Y33786891D01*
X38825709Y33813610D01*
X38745362Y33898753D01*
X38688751Y34001575D01*
X38661169Y34109663D01*
X38663871Y34193250D01*
X38675264Y34250299D01*
X38682046Y34282820D01*
X38707181Y34336933D01*
X38755788Y34401305D01*
X38816150Y34462658D01*
X38876554Y34507712D01*
X38884091Y34511831D01*
X38910464Y34521378D01*
X38951438Y34528826D01*
X39011705Y34534403D01*
X39095953Y34538332D01*
X39208873Y34540841D01*
X39355153Y34542154D01*
X39521571Y34542500D01*
X39706588Y34542227D01*
X39854511Y34540713D01*
X39970577Y34536919D01*
X40060024Y34529803D01*
X40128092Y34518326D01*
X40180016Y34501446D01*
X40221037Y34478123D01*
X40256392Y34447317D01*
X40291319Y34407986D01*
X40309266Y34386026D01*
X40347612Y34330225D01*
X40369034Y34271478D01*
X40379661Y34191698D01*
X40380828Y34174843D01*
X40373014Y34036234D01*
G37*
X40373014Y34036234D02*
X40331316Y33922387D01*
X40257112Y33834638D01*
X40151779Y33774321D01*
X40016696Y33742772D01*
X39930430Y33738166D01*
X39792166Y33738166D01*
X39792166Y34013333D01*
X39909545Y34013333D01*
X39985279Y34017103D01*
X40035273Y34031723D01*
X40075709Y34062158D01*
X40078879Y34065288D01*
X40114356Y34109893D01*
X40130709Y34148457D01*
X40130833Y34150916D01*
X40116749Y34187995D01*
X40082481Y34232862D01*
X40078879Y34236545D01*
X40026924Y34288500D01*
X39533255Y34288500D01*
X39360194Y34288041D01*
X39224847Y34285945D01*
X39122596Y34281129D01*
X39048826Y34272515D01*
X38998920Y34259021D01*
X38968262Y34239567D01*
X38952235Y34213072D01*
X38946224Y34178456D01*
X38945500Y34150916D01*
X38957589Y34086691D01*
X38996747Y34044102D01*
X39067305Y34020526D01*
X39172460Y34013333D01*
X39305333Y34013333D01*
X39305333Y33734080D01*
X39106167Y33741415D01*
X39010664Y33745921D01*
X38945796Y33752995D01*
X38899872Y33765649D01*
X38861195Y33786891D01*
X38825709Y33813610D01*
X38745362Y33898753D01*
X38688751Y34001575D01*
X38661169Y34109663D01*
X38663871Y34193250D01*
X38675264Y34250299D01*
X38682046Y34282820D01*
X38707181Y34336933D01*
X38755788Y34401305D01*
X38816150Y34462658D01*
X38876554Y34507712D01*
X38884091Y34511831D01*
X38910464Y34521378D01*
X38951438Y34528826D01*
X39011705Y34534403D01*
X39095953Y34538332D01*
X39208873Y34540841D01*
X39355153Y34542154D01*
X39521571Y34542500D01*
X39706588Y34542227D01*
X39854511Y34540713D01*
X39970577Y34536919D01*
X40060024Y34529803D01*
X40128092Y34518326D01*
X40180016Y34501446D01*
X40221037Y34478123D01*
X40256392Y34447317D01*
X40291319Y34407986D01*
X40309266Y34386026D01*
X40347612Y34330225D01*
X40369034Y34271478D01*
X40379661Y34191698D01*
X40380828Y34174843D01*
X40373014Y34036234D01*
G36*
X40359577Y31020693D02*
G01*
X40301079Y30913913D01*
X40210489Y30824272D01*
X40197809Y30815258D01*
X40175293Y30800372D01*
X40152818Y30788706D01*
X40125209Y30779869D01*
X40087294Y30773467D01*
X40033899Y30769109D01*
X39959850Y30766400D01*
X39859974Y30764950D01*
X39729097Y30764364D01*
X39562045Y30764250D01*
X38928019Y30764250D01*
X38838103Y30827750D01*
X38747262Y30915443D01*
X38686729Y31024086D01*
X38660396Y31143840D01*
X38669413Y31254085D01*
X38718195Y31372062D01*
X38800179Y31469960D01*
X38865079Y31516473D01*
X38894671Y31532668D01*
X38923689Y31545190D01*
X38957944Y31554594D01*
X39003246Y31561438D01*
X39065408Y31566278D01*
X39150240Y31569670D01*
X39263553Y31572172D01*
X39411159Y31574341D01*
X39478062Y31575201D01*
X39531261Y31575704D01*
X39531261Y31304000D01*
X39368726Y31303690D01*
X39243266Y31302535D01*
X39149628Y31300199D01*
X39082557Y31296346D01*
X39036799Y31290639D01*
X39007098Y31282741D01*
X38988202Y31272317D01*
X38984208Y31268969D01*
X38954423Y31218524D01*
X38946190Y31154251D01*
X38961699Y31100794D01*
X38981644Y31078019D01*
X39010754Y31060528D01*
X39054291Y31047659D01*
X39117521Y31038750D01*
X39205709Y31033138D01*
X39324118Y31030162D01*
X39478014Y31029160D01*
X39531483Y31029145D01*
X39700848Y31029828D01*
X39832691Y31032309D01*
X39931814Y31037625D01*
X40003022Y31046812D01*
X40051118Y31060905D01*
X40080907Y31080941D01*
X40097191Y31107955D01*
X40104775Y31142983D01*
X40105864Y31153004D01*
X40097606Y31227207D01*
X40076125Y31263646D01*
X40062072Y31276366D01*
X40042315Y31286100D01*
X40011509Y31293247D01*
X39964314Y31298200D01*
X39895386Y31301356D01*
X39799382Y31303111D01*
X39670962Y31303859D01*
X39531261Y31304000D01*
X39531261Y31575704D01*
X39663201Y31576952D01*
X39811497Y31576460D01*
X39928415Y31572920D01*
X40019421Y31565524D01*
X40089981Y31553467D01*
X40145560Y31535944D01*
X40191625Y31512147D01*
X40233640Y31481272D01*
X40257852Y31460215D01*
X40335121Y31364372D01*
X40377339Y31253871D01*
X40385244Y31136662D01*
X40359577Y31020693D01*
G37*
X40359577Y31020693D02*
X40301079Y30913913D01*
X40210489Y30824272D01*
X40197809Y30815258D01*
X40175293Y30800372D01*
X40152818Y30788706D01*
X40125209Y30779869D01*
X40087294Y30773467D01*
X40033899Y30769109D01*
X39959850Y30766400D01*
X39859974Y30764950D01*
X39729097Y30764364D01*
X39562045Y30764250D01*
X38928019Y30764250D01*
X38838103Y30827750D01*
X38747262Y30915443D01*
X38686729Y31024086D01*
X38660396Y31143840D01*
X38669413Y31254085D01*
X38718195Y31372062D01*
X38800179Y31469960D01*
X38865079Y31516473D01*
X38894671Y31532668D01*
X38923689Y31545190D01*
X38957944Y31554594D01*
X39003246Y31561438D01*
X39065408Y31566278D01*
X39150240Y31569670D01*
X39263553Y31572172D01*
X39411159Y31574341D01*
X39478062Y31575201D01*
X39531261Y31575704D01*
X39531261Y31304000D01*
X39368726Y31303690D01*
X39243266Y31302535D01*
X39149628Y31300199D01*
X39082557Y31296346D01*
X39036799Y31290639D01*
X39007098Y31282741D01*
X38988202Y31272317D01*
X38984208Y31268969D01*
X38954423Y31218524D01*
X38946190Y31154251D01*
X38961699Y31100794D01*
X38981644Y31078019D01*
X39010754Y31060528D01*
X39054291Y31047659D01*
X39117521Y31038750D01*
X39205709Y31033138D01*
X39324118Y31030162D01*
X39478014Y31029160D01*
X39531483Y31029145D01*
X39700848Y31029828D01*
X39832691Y31032309D01*
X39931814Y31037625D01*
X40003022Y31046812D01*
X40051118Y31060905D01*
X40080907Y31080941D01*
X40097191Y31107955D01*
X40104775Y31142983D01*
X40105864Y31153004D01*
X40097606Y31227207D01*
X40076125Y31263646D01*
X40062072Y31276366D01*
X40042315Y31286100D01*
X40011509Y31293247D01*
X39964314Y31298200D01*
X39895386Y31301356D01*
X39799382Y31303111D01*
X39670962Y31303859D01*
X39531261Y31304000D01*
X39531261Y31575704D01*
X39663201Y31576952D01*
X39811497Y31576460D01*
X39928415Y31572920D01*
X40019421Y31565524D01*
X40089981Y31553467D01*
X40145560Y31535944D01*
X40191625Y31512147D01*
X40233640Y31481272D01*
X40257852Y31460215D01*
X40335121Y31364372D01*
X40377339Y31253871D01*
X40385244Y31136662D01*
X40359577Y31020693D01*
G36*
X40365025Y28172776D02*
G01*
X40309105Y28068003D01*
X40282945Y28037152D01*
X40212864Y27975441D01*
X40134595Y27935188D01*
X40035747Y27911381D01*
X39948451Y27901876D01*
X39792166Y27890056D01*
X39792166Y28192500D01*
X39913875Y28192824D01*
X39995729Y28195534D01*
X40047299Y28206374D01*
X40080508Y28230220D01*
X40107242Y28271875D01*
X40117407Y28331884D01*
X40095257Y28393100D01*
X40058873Y28430301D01*
X40031966Y28434654D01*
X39968844Y28438563D01*
X39875625Y28441848D01*
X39758427Y28444327D01*
X39623368Y28445818D01*
X39523803Y28446176D01*
X39352472Y28445969D01*
X39218804Y28444435D01*
X39118130Y28440565D01*
X39045782Y28433350D01*
X38997092Y28421782D01*
X38967389Y28404853D01*
X38952007Y28381554D01*
X38946275Y28350877D01*
X38945500Y28321268D01*
X38957431Y28260240D01*
X38996260Y28220228D01*
X39066538Y28198552D01*
X39164125Y28192500D01*
X39305333Y28192500D01*
X39305333Y27890858D01*
X39128759Y27900126D01*
X39026717Y27908401D01*
X38952053Y27922911D01*
X38889899Y27947183D01*
X38858656Y27964204D01*
X38762654Y28043661D01*
X38696769Y28147623D01*
X38664469Y28267703D01*
X38669218Y28395516D01*
X38673000Y28413389D01*
X38718891Y28524529D01*
X38796011Y28618432D01*
X38890126Y28681172D01*
X38920735Y28693376D01*
X38955949Y28702819D01*
X39001367Y28709854D01*
X39062590Y28714832D01*
X39145216Y28718107D01*
X39254843Y28720030D01*
X39397072Y28720954D01*
X39526192Y28721202D01*
X39694000Y28721166D01*
X39825153Y28720477D01*
X39925329Y28718738D01*
X40000206Y28715550D01*
X40055462Y28710519D01*
X40096775Y28703247D01*
X40129822Y28693336D01*
X40160281Y28680391D01*
X40168884Y28676283D01*
X40266344Y28607437D01*
X40336248Y28513921D01*
X40377037Y28404477D01*
X40387149Y28287848D01*
X40365025Y28172776D01*
G37*
X40365025Y28172776D02*
X40309105Y28068003D01*
X40282945Y28037152D01*
X40212864Y27975441D01*
X40134595Y27935188D01*
X40035747Y27911381D01*
X39948451Y27901876D01*
X39792166Y27890056D01*
X39792166Y28192500D01*
X39913875Y28192824D01*
X39995729Y28195534D01*
X40047299Y28206374D01*
X40080508Y28230220D01*
X40107242Y28271875D01*
X40117407Y28331884D01*
X40095257Y28393100D01*
X40058873Y28430301D01*
X40031966Y28434654D01*
X39968844Y28438563D01*
X39875625Y28441848D01*
X39758427Y28444327D01*
X39623368Y28445818D01*
X39523803Y28446176D01*
X39352472Y28445969D01*
X39218804Y28444435D01*
X39118130Y28440565D01*
X39045782Y28433350D01*
X38997092Y28421782D01*
X38967389Y28404853D01*
X38952007Y28381554D01*
X38946275Y28350877D01*
X38945500Y28321268D01*
X38957431Y28260240D01*
X38996260Y28220228D01*
X39066538Y28198552D01*
X39164125Y28192500D01*
X39305333Y28192500D01*
X39305333Y27890858D01*
X39128759Y27900126D01*
X39026717Y27908401D01*
X38952053Y27922911D01*
X38889899Y27947183D01*
X38858656Y27964204D01*
X38762654Y28043661D01*
X38696769Y28147623D01*
X38664469Y28267703D01*
X38669218Y28395516D01*
X38673000Y28413389D01*
X38718891Y28524529D01*
X38796011Y28618432D01*
X38890126Y28681172D01*
X38920735Y28693376D01*
X38955949Y28702819D01*
X39001367Y28709854D01*
X39062590Y28714832D01*
X39145216Y28718107D01*
X39254843Y28720030D01*
X39397072Y28720954D01*
X39526192Y28721202D01*
X39694000Y28721166D01*
X39825153Y28720477D01*
X39925329Y28718738D01*
X40000206Y28715550D01*
X40055462Y28710519D01*
X40096775Y28703247D01*
X40129822Y28693336D01*
X40160281Y28680391D01*
X40168884Y28676283D01*
X40266344Y28607437D01*
X40336248Y28513921D01*
X40377037Y28404477D01*
X40387149Y28287848D01*
X40365025Y28172776D01*
G36*
X40376492Y24593342D02*
G01*
X40362320Y24537336D01*
X40310646Y24449195D01*
X40232923Y24373953D01*
X40141274Y24320581D01*
X40047820Y24298045D01*
X40038619Y24297833D01*
X40002889Y24305195D01*
X39982974Y24334970D01*
X39972994Y24377208D01*
X39960210Y24443640D01*
X39948202Y24499866D01*
X39947177Y24504208D01*
X39946616Y24541792D01*
X39970840Y24551833D01*
X40031360Y24565971D01*
X40090514Y24600874D01*
X40131153Y24645278D01*
X40138004Y24661636D01*
X40135042Y24724902D01*
X40097462Y24778774D01*
X40032976Y24813447D01*
X40015273Y24817652D01*
X39933323Y24817066D01*
X39845537Y24783951D01*
X39748643Y24716369D01*
X39639369Y24612381D01*
X39603586Y24573686D01*
X39464511Y24437989D01*
X39329447Y24343741D01*
X39197383Y24290358D01*
X39089606Y24276666D01*
X38959445Y24293862D01*
X38843998Y24342344D01*
X38751768Y24417460D01*
X38703016Y24488333D01*
X38679479Y24556494D01*
X38664011Y24641618D01*
X38659953Y24721413D01*
X38663361Y24752916D01*
X38675258Y24810444D01*
X38681734Y24841243D01*
X38717928Y24919449D01*
X38787145Y24993077D01*
X38880130Y25055435D01*
X38987625Y25099833D01*
X39061849Y25116023D01*
X39157166Y25129087D01*
X39157166Y25032691D01*
X39159664Y24967172D01*
X39165940Y24916754D01*
X39169019Y24905408D01*
X39164299Y24881444D01*
X39124501Y24864529D01*
X39102334Y24859787D01*
X39033909Y24834182D01*
X38970036Y24790956D01*
X38963413Y24784669D01*
X38925292Y24741175D01*
X38914712Y24706648D01*
X38925096Y24666242D01*
X38971524Y24594594D01*
X39040558Y24556904D01*
X39127211Y24555029D01*
X39182247Y24570572D01*
X39214307Y24591770D01*
X39269215Y24637341D01*
X39340256Y24701356D01*
X39420718Y24777884D01*
X39453589Y24810226D01*
X39550897Y24904798D01*
X39626742Y24972900D01*
X39687754Y25019735D01*
X39740556Y25050508D01*
X39780152Y25066654D01*
X39916461Y25096242D01*
X40047350Y25093402D01*
X40165820Y25060448D01*
X40264869Y24999695D01*
X40337495Y24913458D01*
X40355961Y24876293D01*
X40376975Y24793207D01*
X40383953Y24691756D01*
X40376492Y24593342D01*
G37*
X40376492Y24593342D02*
X40362320Y24537336D01*
X40310646Y24449195D01*
X40232923Y24373953D01*
X40141274Y24320581D01*
X40047820Y24298045D01*
X40038619Y24297833D01*
X40002889Y24305195D01*
X39982974Y24334970D01*
X39972994Y24377208D01*
X39960210Y24443640D01*
X39948202Y24499866D01*
X39947177Y24504208D01*
X39946616Y24541792D01*
X39970840Y24551833D01*
X40031360Y24565971D01*
X40090514Y24600874D01*
X40131153Y24645278D01*
X40138004Y24661636D01*
X40135042Y24724902D01*
X40097462Y24778774D01*
X40032976Y24813447D01*
X40015273Y24817652D01*
X39933323Y24817066D01*
X39845537Y24783951D01*
X39748643Y24716369D01*
X39639369Y24612381D01*
X39603586Y24573686D01*
X39464511Y24437989D01*
X39329447Y24343741D01*
X39197383Y24290358D01*
X39089606Y24276666D01*
X38959445Y24293862D01*
X38843998Y24342344D01*
X38751768Y24417460D01*
X38703016Y24488333D01*
X38679479Y24556494D01*
X38664011Y24641618D01*
X38659953Y24721413D01*
X38663361Y24752916D01*
X38675258Y24810444D01*
X38681734Y24841243D01*
X38717928Y24919449D01*
X38787145Y24993077D01*
X38880130Y25055435D01*
X38987625Y25099833D01*
X39061849Y25116023D01*
X39157166Y25129087D01*
X39157166Y25032691D01*
X39159664Y24967172D01*
X39165940Y24916754D01*
X39169019Y24905408D01*
X39164299Y24881444D01*
X39124501Y24864529D01*
X39102334Y24859787D01*
X39033909Y24834182D01*
X38970036Y24790956D01*
X38963413Y24784669D01*
X38925292Y24741175D01*
X38914712Y24706648D01*
X38925096Y24666242D01*
X38971524Y24594594D01*
X39040558Y24556904D01*
X39127211Y24555029D01*
X39182247Y24570572D01*
X39214307Y24591770D01*
X39269215Y24637341D01*
X39340256Y24701356D01*
X39420718Y24777884D01*
X39453589Y24810226D01*
X39550897Y24904798D01*
X39626742Y24972900D01*
X39687754Y25019735D01*
X39740556Y25050508D01*
X39780152Y25066654D01*
X39916461Y25096242D01*
X40047350Y25093402D01*
X40165820Y25060448D01*
X40264869Y24999695D01*
X40337495Y24913458D01*
X40355961Y24876293D01*
X40376975Y24793207D01*
X40383953Y24691756D01*
X40376492Y24593342D01*
G36*
X40380828Y23649490D02*
G01*
X40356421Y23521407D01*
X40300592Y23420069D01*
X40212351Y23344612D01*
X40090710Y23294171D01*
X39945247Y23268815D01*
X39792166Y23254587D01*
X39792166Y23554980D01*
X39922292Y23561281D01*
X39998399Y23567451D01*
X40045778Y23580033D01*
X40078004Y23603938D01*
X40093945Y23623362D01*
X40120835Y23667296D01*
X40120999Y23704421D01*
X40106694Y23738884D01*
X40069440Y23786632D01*
X40025000Y23813286D01*
X39988297Y23817828D01*
X39916535Y23822007D01*
X39816990Y23825575D01*
X39696937Y23828283D01*
X39563650Y23829883D01*
X39534253Y23830057D01*
X39360282Y23830004D01*
X39224078Y23827210D01*
X39121104Y23820535D01*
X39046825Y23808836D01*
X38996703Y23790972D01*
X38966203Y23765802D01*
X38950788Y23732184D01*
X38945922Y23688976D01*
X38945824Y23681989D01*
X38957998Y23622620D01*
X38998158Y23583613D01*
X39070515Y23562568D01*
X39165092Y23557000D01*
X39307267Y23557000D01*
X39301009Y23414125D01*
X39294750Y23271250D01*
X39141846Y23274108D01*
X39033479Y23278257D01*
X38955718Y23288163D01*
X38896903Y23307164D01*
X38845376Y23338601D01*
X38807223Y23369948D01*
X38718644Y23470946D01*
X38670754Y23583316D01*
X38663156Y23708376D01*
X38679270Y23795734D01*
X38726606Y23907165D01*
X38804478Y23993522D01*
X38888314Y24046845D01*
X38914823Y24059131D01*
X38944162Y24068610D01*
X38981702Y24075567D01*
X39032814Y24080287D01*
X39102869Y24083057D01*
X39197239Y24084162D01*
X39321294Y24083887D01*
X39480406Y24082519D01*
X39546082Y24081827D01*
X40123452Y24075583D01*
X40211391Y24017351D01*
X40303952Y23935079D01*
X40360304Y23833417D01*
X40381846Y23709336D01*
X40380828Y23649490D01*
G37*
X40380828Y23649490D02*
X40356421Y23521407D01*
X40300592Y23420069D01*
X40212351Y23344612D01*
X40090710Y23294171D01*
X39945247Y23268815D01*
X39792166Y23254587D01*
X39792166Y23554980D01*
X39922292Y23561281D01*
X39998399Y23567451D01*
X40045778Y23580033D01*
X40078004Y23603938D01*
X40093945Y23623362D01*
X40120835Y23667296D01*
X40120999Y23704421D01*
X40106694Y23738884D01*
X40069440Y23786632D01*
X40025000Y23813286D01*
X39988297Y23817828D01*
X39916535Y23822007D01*
X39816990Y23825575D01*
X39696937Y23828283D01*
X39563650Y23829883D01*
X39534253Y23830057D01*
X39360282Y23830004D01*
X39224078Y23827210D01*
X39121104Y23820535D01*
X39046825Y23808836D01*
X38996703Y23790972D01*
X38966203Y23765802D01*
X38950788Y23732184D01*
X38945922Y23688976D01*
X38945824Y23681989D01*
X38957998Y23622620D01*
X38998158Y23583613D01*
X39070515Y23562568D01*
X39165092Y23557000D01*
X39307267Y23557000D01*
X39301009Y23414125D01*
X39294750Y23271250D01*
X39141846Y23274108D01*
X39033479Y23278257D01*
X38955718Y23288163D01*
X38896903Y23307164D01*
X38845376Y23338601D01*
X38807223Y23369948D01*
X38718644Y23470946D01*
X38670754Y23583316D01*
X38663156Y23708376D01*
X38679270Y23795734D01*
X38726606Y23907165D01*
X38804478Y23993522D01*
X38888314Y24046845D01*
X38914823Y24059131D01*
X38944162Y24068610D01*
X38981702Y24075567D01*
X39032814Y24080287D01*
X39102869Y24083057D01*
X39197239Y24084162D01*
X39321294Y24083887D01*
X39480406Y24082519D01*
X39546082Y24081827D01*
X40123452Y24075583D01*
X40211391Y24017351D01*
X40303952Y23935079D01*
X40360304Y23833417D01*
X40381846Y23709336D01*
X40380828Y23649490D01*
G36*
X40378987Y14048088D02*
G01*
X40340483Y13931109D01*
X40323734Y13901611D01*
X40245226Y13809238D01*
X40145247Y13749067D01*
X40019400Y13718989D01*
X39933650Y13714500D01*
X39792166Y13714500D01*
X39792166Y13989666D01*
X39906238Y13989666D01*
X40002442Y14001729D01*
X40072782Y14034601D01*
X40113146Y14083314D01*
X40119423Y14142896D01*
X40087502Y14208377D01*
X40087334Y14208591D01*
X40043094Y14264833D01*
X39529327Y14264833D01*
X39367616Y14264610D01*
X39242960Y14263693D01*
X39150079Y14261709D01*
X39083697Y14258286D01*
X39038536Y14253052D01*
X39009317Y14245634D01*
X38990763Y14235661D01*
X38980530Y14226125D01*
X38955017Y14177067D01*
X38945500Y14121492D01*
X38955055Y14064903D01*
X38987209Y14026052D01*
X39047198Y14002377D01*
X39140257Y13991316D01*
X39214793Y13989666D01*
X39390000Y13989666D01*
X39390000Y14137833D01*
X39665166Y14137833D01*
X39665166Y13714500D01*
X39321208Y13714965D01*
X39163465Y13717018D01*
X39041264Y13723872D01*
X38947924Y13737291D01*
X38876764Y13759036D01*
X38821102Y13790870D01*
X38774258Y13834557D01*
X38748451Y13866079D01*
X38717076Y13919472D01*
X38686694Y13990409D01*
X38662968Y14062959D01*
X38651562Y14121190D01*
X38651851Y14137833D01*
X38657500Y14163886D01*
X38668777Y14211721D01*
X38668824Y14211916D01*
X38716154Y14324920D01*
X38794983Y14421713D01*
X38895863Y14492404D01*
X38960796Y14517560D01*
X39006141Y14524246D01*
X39086994Y14530065D01*
X39196535Y14534748D01*
X39327944Y14538030D01*
X39474399Y14539643D01*
X39527583Y14539764D01*
X39677672Y14538794D01*
X39815084Y14536062D01*
X39933000Y14531835D01*
X40024599Y14526381D01*
X40083060Y14519966D01*
X40094370Y14517560D01*
X40182190Y14477261D01*
X40266887Y14411887D01*
X40333319Y14334464D01*
X40356236Y14292302D01*
X40384671Y14173687D01*
X40378987Y14048088D01*
G37*
X40378987Y14048088D02*
X40340483Y13931109D01*
X40323734Y13901611D01*
X40245226Y13809238D01*
X40145247Y13749067D01*
X40019400Y13718989D01*
X39933650Y13714500D01*
X39792166Y13714500D01*
X39792166Y13989666D01*
X39906238Y13989666D01*
X40002442Y14001729D01*
X40072782Y14034601D01*
X40113146Y14083314D01*
X40119423Y14142896D01*
X40087502Y14208377D01*
X40087334Y14208591D01*
X40043094Y14264833D01*
X39529327Y14264833D01*
X39367616Y14264610D01*
X39242960Y14263693D01*
X39150079Y14261709D01*
X39083697Y14258286D01*
X39038536Y14253052D01*
X39009317Y14245634D01*
X38990763Y14235661D01*
X38980530Y14226125D01*
X38955017Y14177067D01*
X38945500Y14121492D01*
X38955055Y14064903D01*
X38987209Y14026052D01*
X39047198Y14002377D01*
X39140257Y13991316D01*
X39214793Y13989666D01*
X39390000Y13989666D01*
X39390000Y14137833D01*
X39665166Y14137833D01*
X39665166Y13714500D01*
X39321208Y13714965D01*
X39163465Y13717018D01*
X39041264Y13723872D01*
X38947924Y13737291D01*
X38876764Y13759036D01*
X38821102Y13790870D01*
X38774258Y13834557D01*
X38748451Y13866079D01*
X38717076Y13919472D01*
X38686694Y13990409D01*
X38662968Y14062959D01*
X38651562Y14121190D01*
X38651851Y14137833D01*
X38657500Y14163886D01*
X38668777Y14211721D01*
X38668824Y14211916D01*
X38716154Y14324920D01*
X38794983Y14421713D01*
X38895863Y14492404D01*
X38960796Y14517560D01*
X39006141Y14524246D01*
X39086994Y14530065D01*
X39196535Y14534748D01*
X39327944Y14538030D01*
X39474399Y14539643D01*
X39527583Y14539764D01*
X39677672Y14538794D01*
X39815084Y14536062D01*
X39933000Y14531835D01*
X40024599Y14526381D01*
X40083060Y14519966D01*
X40094370Y14517560D01*
X40182190Y14477261D01*
X40266887Y14411887D01*
X40333319Y14334464D01*
X40356236Y14292302D01*
X40384671Y14173687D01*
X40378987Y14048088D01*
G36*
X40375575Y11421236D02*
G01*
X40355553Y11370971D01*
X40325255Y11320425D01*
X40245884Y11227468D01*
X40145868Y11167012D01*
X40020448Y11136767D01*
X39933650Y11132166D01*
X39792166Y11132166D01*
X39792166Y11407333D01*
X39906238Y11407333D01*
X40000563Y11419152D01*
X40070863Y11450997D01*
X40112891Y11497450D01*
X40122399Y11553093D01*
X40095141Y11612508D01*
X40080193Y11629231D01*
X40026924Y11682500D01*
X39533255Y11682500D01*
X39360194Y11682041D01*
X39224847Y11679945D01*
X39122596Y11675129D01*
X39048826Y11666515D01*
X38998920Y11653021D01*
X38968262Y11633567D01*
X38952235Y11607072D01*
X38946224Y11572456D01*
X38945500Y11544916D01*
X38954192Y11486258D01*
X38983951Y11446023D01*
X39040298Y11421389D01*
X39128755Y11409537D01*
X39214793Y11407333D01*
X39390000Y11407333D01*
X39390000Y11555500D01*
X39665166Y11555500D01*
X39665166Y11132166D01*
X39321208Y11132631D01*
X39186158Y11133519D01*
X39085691Y11136243D01*
X39012072Y11141521D01*
X38957567Y11150072D01*
X38914440Y11162613D01*
X38890126Y11172661D01*
X38790190Y11240421D01*
X38714776Y11338330D01*
X38672051Y11450091D01*
X38658190Y11512153D01*
X38652735Y11547304D01*
X38654387Y11569840D01*
X38659569Y11587250D01*
X38669112Y11622442D01*
X38679371Y11666237D01*
X38707977Y11730081D01*
X38761663Y11801775D01*
X38828887Y11867929D01*
X38890434Y11911123D01*
X38914915Y11922055D01*
X38947115Y11930562D01*
X38992219Y11936937D01*
X39055409Y11941471D01*
X39141870Y11944458D01*
X39256785Y11946190D01*
X39405339Y11946960D01*
X39527583Y11947083D01*
X39710099Y11946860D01*
X39855627Y11945435D01*
X39969512Y11941677D01*
X40057098Y11934453D01*
X40123731Y11922633D01*
X40174755Y11905084D01*
X40215516Y11880674D01*
X40251358Y11848271D01*
X40287627Y11806745D01*
X40307881Y11781848D01*
X40345203Y11729232D01*
X40366470Y11676898D01*
X40377187Y11607983D01*
X40380439Y11559598D01*
X40382512Y11478225D01*
X40375575Y11421236D01*
G37*
X40375575Y11421236D02*
X40355553Y11370971D01*
X40325255Y11320425D01*
X40245884Y11227468D01*
X40145868Y11167012D01*
X40020448Y11136767D01*
X39933650Y11132166D01*
X39792166Y11132166D01*
X39792166Y11407333D01*
X39906238Y11407333D01*
X40000563Y11419152D01*
X40070863Y11450997D01*
X40112891Y11497450D01*
X40122399Y11553093D01*
X40095141Y11612508D01*
X40080193Y11629231D01*
X40026924Y11682500D01*
X39533255Y11682500D01*
X39360194Y11682041D01*
X39224847Y11679945D01*
X39122596Y11675129D01*
X39048826Y11666515D01*
X38998920Y11653021D01*
X38968262Y11633567D01*
X38952235Y11607072D01*
X38946224Y11572456D01*
X38945500Y11544916D01*
X38954192Y11486258D01*
X38983951Y11446023D01*
X39040298Y11421389D01*
X39128755Y11409537D01*
X39214793Y11407333D01*
X39390000Y11407333D01*
X39390000Y11555500D01*
X39665166Y11555500D01*
X39665166Y11132166D01*
X39321208Y11132631D01*
X39186158Y11133519D01*
X39085691Y11136243D01*
X39012072Y11141521D01*
X38957567Y11150072D01*
X38914440Y11162613D01*
X38890126Y11172661D01*
X38790190Y11240421D01*
X38714776Y11338330D01*
X38672051Y11450091D01*
X38658190Y11512153D01*
X38652735Y11547304D01*
X38654387Y11569840D01*
X38659569Y11587250D01*
X38669112Y11622442D01*
X38679371Y11666237D01*
X38707977Y11730081D01*
X38761663Y11801775D01*
X38828887Y11867929D01*
X38890434Y11911123D01*
X38914915Y11922055D01*
X38947115Y11930562D01*
X38992219Y11936937D01*
X39055409Y11941471D01*
X39141870Y11944458D01*
X39256785Y11946190D01*
X39405339Y11946960D01*
X39527583Y11947083D01*
X39710099Y11946860D01*
X39855627Y11945435D01*
X39969512Y11941677D01*
X40057098Y11934453D01*
X40123731Y11922633D01*
X40174755Y11905084D01*
X40215516Y11880674D01*
X40251358Y11848271D01*
X40287627Y11806745D01*
X40307881Y11781848D01*
X40345203Y11729232D01*
X40366470Y11676898D01*
X40377187Y11607983D01*
X40380439Y11559598D01*
X40382512Y11478225D01*
X40375575Y11421236D01*
G36*
X40231375Y36451781D02*
G01*
X40099083Y36458083D01*
X40093075Y36685625D01*
X40087068Y36913166D01*
X39665166Y36913166D01*
X39665166Y36574500D01*
X39390000Y36574500D01*
X39390000Y36913166D01*
X38945500Y36913166D01*
X38945500Y36447500D01*
X38670333Y36447500D01*
X38670333Y37188333D01*
X40363666Y37188333D01*
X40363666Y36445480D01*
X40231375Y36451781D01*
G37*
X40231375Y36451781D02*
X40099083Y36458083D01*
X40093075Y36685625D01*
X40087068Y36913166D01*
X39665166Y36913166D01*
X39665166Y36574500D01*
X39390000Y36574500D01*
X39390000Y36913166D01*
X38945500Y36913166D01*
X38945500Y36447500D01*
X38670333Y36447500D01*
X38670333Y37188333D01*
X40363666Y37188333D01*
X40363666Y36445480D01*
X40231375Y36451781D01*
G36*
X38945500Y36024166D02*
G01*
X38945500Y35600833D01*
X38670333Y35600833D01*
X38670333Y36299333D01*
X40363666Y36299333D01*
X40363666Y36024166D01*
X38945500Y36024166D01*
G37*
X38945500Y36024166D02*
X38945500Y35600833D01*
X38670333Y35600833D01*
X38670333Y36299333D01*
X40363666Y36299333D01*
X40363666Y36024166D01*
X38945500Y36024166D01*
G36*
X40088500Y34711833D02*
G01*
X40088500Y35177500D01*
X39665166Y35177500D01*
X39665166Y34838833D01*
X39390000Y34838833D01*
X39390000Y35177500D01*
X38945500Y35177500D01*
X38945500Y34711833D01*
X38670333Y34711833D01*
X38670333Y35431500D01*
X40363666Y35431500D01*
X40363666Y34711833D01*
X40088500Y34711833D01*
G37*
X40088500Y34711833D02*
X40088500Y35177500D01*
X39665166Y35177500D01*
X39665166Y34838833D01*
X39390000Y34838833D01*
X39390000Y35177500D01*
X38945500Y35177500D01*
X38945500Y34711833D01*
X38670333Y34711833D01*
X38670333Y35431500D01*
X40363666Y35431500D01*
X40363666Y34711833D01*
X40088500Y34711833D01*
G36*
X40231375Y32768781D02*
G01*
X40099083Y32775083D01*
X40092781Y32907375D01*
X40086480Y33039666D01*
X38670333Y33039666D01*
X38670333Y33314833D01*
X40086480Y33314833D01*
X40092781Y33447125D01*
X40099083Y33579416D01*
X40231375Y33585718D01*
X40363666Y33592020D01*
X40363666Y32762480D01*
X40231375Y32768781D01*
G37*
X40231375Y32768781D02*
X40099083Y32775083D01*
X40092781Y32907375D01*
X40086480Y33039666D01*
X38670333Y33039666D01*
X38670333Y33314833D01*
X40086480Y33314833D01*
X40092781Y33447125D01*
X40099083Y33579416D01*
X40231375Y33585718D01*
X40363666Y33592020D01*
X40363666Y32762480D01*
X40231375Y32768781D01*
G36*
X40363318Y32314708D02*
G01*
X40362486Y32197296D01*
X40359542Y32113200D01*
X40353305Y32053417D01*
X40342595Y32008940D01*
X40326232Y31970762D01*
X40315693Y31951455D01*
X40268587Y31884589D01*
X40210710Y31836753D01*
X40134851Y31805262D01*
X40033798Y31787434D01*
X39900342Y31780585D01*
X39855666Y31780269D01*
X39748781Y31780914D01*
X39673448Y31784131D01*
X39618891Y31791812D01*
X39574334Y31805849D01*
X39529001Y31828133D01*
X39504479Y31841927D01*
X39396708Y31903604D01*
X39044539Y31815469D01*
X38928481Y31786576D01*
X38827228Y31761661D01*
X38747696Y31742400D01*
X38696796Y31730470D01*
X38681352Y31727333D01*
X38675848Y31746685D01*
X38671898Y31797495D01*
X38670335Y31868892D01*
X38670333Y31871139D01*
X38670333Y32014945D01*
X38919041Y32075498D01*
X39053960Y32108260D01*
X39153292Y32132908D01*
X39222453Y32151846D01*
X39266862Y32167478D01*
X39291937Y32182208D01*
X39303096Y32198441D01*
X39305757Y32218581D01*
X39305338Y32245032D01*
X39305333Y32246911D01*
X39305333Y32320000D01*
X38670333Y32320000D01*
X38670333Y32595166D01*
X40088500Y32595166D01*
X40088500Y32320000D01*
X39580500Y32320000D01*
X39580500Y32224750D01*
X39590184Y32143018D01*
X39621481Y32088538D01*
X39622833Y32087166D01*
X39651503Y32065373D01*
X39690797Y32052462D01*
X39751452Y32046320D01*
X39838125Y32044833D01*
X39945486Y32048414D01*
X40017545Y32062217D01*
X40060960Y32090829D01*
X40082385Y32138840D01*
X40088476Y32210838D01*
X40088500Y32217447D01*
X40088500Y32320000D01*
X40088500Y32595166D01*
X40363666Y32595166D01*
X40363318Y32314708D01*
G37*
X40363318Y32314708D02*
X40362486Y32197296D01*
X40359542Y32113200D01*
X40353305Y32053417D01*
X40342595Y32008940D01*
X40326232Y31970762D01*
X40315693Y31951455D01*
X40268587Y31884589D01*
X40210710Y31836753D01*
X40134851Y31805262D01*
X40033798Y31787434D01*
X39900342Y31780585D01*
X39855666Y31780269D01*
X39748781Y31780914D01*
X39673448Y31784131D01*
X39618891Y31791812D01*
X39574334Y31805849D01*
X39529001Y31828133D01*
X39504479Y31841927D01*
X39396708Y31903604D01*
X39044539Y31815469D01*
X38928481Y31786576D01*
X38827228Y31761661D01*
X38747696Y31742400D01*
X38696796Y31730470D01*
X38681352Y31727333D01*
X38675848Y31746685D01*
X38671898Y31797495D01*
X38670335Y31868892D01*
X38670333Y31871139D01*
X38670333Y32014945D01*
X38919041Y32075498D01*
X39053960Y32108260D01*
X39153292Y32132908D01*
X39222453Y32151846D01*
X39266862Y32167478D01*
X39291937Y32182208D01*
X39303096Y32198441D01*
X39305757Y32218581D01*
X39305338Y32245032D01*
X39305333Y32246911D01*
X39305333Y32320000D01*
X38670333Y32320000D01*
X38670333Y32595166D01*
X40088500Y32595166D01*
X40088500Y32320000D01*
X39580500Y32320000D01*
X39580500Y32224750D01*
X39590184Y32143018D01*
X39621481Y32088538D01*
X39622833Y32087166D01*
X39651503Y32065373D01*
X39690797Y32052462D01*
X39751452Y32046320D01*
X39838125Y32044833D01*
X39945486Y32048414D01*
X40017545Y32062217D01*
X40060960Y32090829D01*
X40082385Y32138840D01*
X40088476Y32210838D01*
X40088500Y32217447D01*
X40088500Y32320000D01*
X40088500Y32595166D01*
X40363666Y32595166D01*
X40363318Y32314708D01*
G36*
X40088500Y29801166D02*
G01*
X40088500Y30055166D01*
X38670333Y30055166D01*
X38670333Y30330333D01*
X40086480Y30330333D01*
X40092781Y30462625D01*
X40099083Y30594916D01*
X40231375Y30601218D01*
X40363666Y30607520D01*
X40363666Y29801166D01*
X40088500Y29801166D01*
G37*
X40088500Y29801166D02*
X40088500Y30055166D01*
X38670333Y30055166D01*
X38670333Y30330333D01*
X40086480Y30330333D01*
X40092781Y30462625D01*
X40099083Y30594916D01*
X40231375Y30601218D01*
X40363666Y30607520D01*
X40363666Y29801166D01*
X40088500Y29801166D01*
G36*
X40231375Y28874115D02*
G01*
X40099083Y28880416D01*
X40093075Y29107958D01*
X40087068Y29335500D01*
X39665166Y29335500D01*
X39665166Y28996833D01*
X39390000Y28996833D01*
X39390000Y29335500D01*
X38945500Y29335500D01*
X38945500Y28869833D01*
X38670333Y28869833D01*
X38670333Y29610666D01*
X40363666Y29610666D01*
X40363666Y28867813D01*
X40231375Y28874115D01*
G37*
X40231375Y28874115D02*
X40099083Y28880416D01*
X40093075Y29107958D01*
X40087068Y29335500D01*
X39665166Y29335500D01*
X39665166Y28996833D01*
X39390000Y28996833D01*
X39390000Y29335500D01*
X38945500Y29335500D01*
X38945500Y28869833D01*
X38670333Y28869833D01*
X38670333Y29610666D01*
X40363666Y29610666D01*
X40363666Y28867813D01*
X40231375Y28874115D01*
G36*
X39665166Y27451666D02*
G01*
X39665166Y27155333D01*
X40363666Y27155333D01*
X40363666Y26879681D01*
X39522291Y26885215D01*
X38680916Y26890750D01*
X38674615Y27023041D01*
X38668313Y27155333D01*
X39390000Y27155333D01*
X39390000Y27451666D01*
X38670333Y27451666D01*
X38670333Y27575139D01*
X38672582Y27644058D01*
X38678401Y27694708D01*
X38684444Y27712722D01*
X38708042Y27715830D01*
X38769351Y27718702D01*
X38863752Y27721259D01*
X38986622Y27723425D01*
X39133341Y27725123D01*
X39299287Y27726276D01*
X39479840Y27726807D01*
X39531111Y27726833D01*
X40363666Y27726833D01*
X40363666Y27451666D01*
X39665166Y27451666D01*
G37*
X39665166Y27451666D02*
X39665166Y27155333D01*
X40363666Y27155333D01*
X40363666Y26879681D01*
X39522291Y26885215D01*
X38680916Y26890750D01*
X38674615Y27023041D01*
X38668313Y27155333D01*
X39390000Y27155333D01*
X39390000Y27451666D01*
X38670333Y27451666D01*
X38670333Y27575139D01*
X38672582Y27644058D01*
X38678401Y27694708D01*
X38684444Y27712722D01*
X38708042Y27715830D01*
X38769351Y27718702D01*
X38863752Y27721259D01*
X38986622Y27723425D01*
X39133341Y27725123D01*
X39299287Y27726276D01*
X39479840Y27726807D01*
X39531111Y27726833D01*
X40363666Y27726833D01*
X40363666Y27451666D01*
X39665166Y27451666D01*
G36*
X39860958Y26229182D02*
G01*
X39358250Y26078882D01*
X39860958Y26077357D01*
X40363666Y26075833D01*
X40363666Y25800666D01*
X38668399Y25800666D01*
X38674658Y25942985D01*
X38680916Y26085303D01*
X39675750Y26410917D01*
X39173041Y26412709D01*
X38670333Y26414500D01*
X38670333Y26689666D01*
X40363666Y26689666D01*
X40363666Y26379483D01*
X39860958Y26229182D01*
G37*
X39860958Y26229182D02*
X39358250Y26078882D01*
X39860958Y26077357D01*
X40363666Y26075833D01*
X40363666Y25800666D01*
X38668399Y25800666D01*
X38674658Y25942985D01*
X38680916Y26085303D01*
X39675750Y26410917D01*
X39173041Y26412709D01*
X38670333Y26414500D01*
X38670333Y26689666D01*
X40363666Y26689666D01*
X40363666Y26379483D01*
X39860958Y26229182D01*
G36*
X38670333Y25313833D02*
G01*
X38670333Y25589000D01*
X40363666Y25589000D01*
X40363666Y25313833D01*
X38670333Y25313833D01*
G37*
X38670333Y25313833D02*
X38670333Y25589000D01*
X40363666Y25589000D01*
X40363666Y25313833D01*
X38670333Y25313833D01*
G36*
X39665166Y22816166D02*
G01*
X39665166Y22541000D01*
X40363666Y22541000D01*
X40363666Y22265833D01*
X38668313Y22265833D01*
X38674615Y22398125D01*
X38680916Y22530416D01*
X39035458Y22536220D01*
X39390000Y22542023D01*
X39390000Y22816166D01*
X38670333Y22816166D01*
X38670333Y22939639D01*
X38672582Y23008558D01*
X38678401Y23059208D01*
X38684444Y23077222D01*
X38708042Y23080330D01*
X38769351Y23083202D01*
X38863752Y23085759D01*
X38986622Y23087925D01*
X39133341Y23089623D01*
X39299287Y23090776D01*
X39479840Y23091307D01*
X39531111Y23091333D01*
X40363666Y23091333D01*
X40363666Y22816166D01*
X39665166Y22816166D01*
G37*
X39665166Y22816166D02*
X39665166Y22541000D01*
X40363666Y22541000D01*
X40363666Y22265833D01*
X38668313Y22265833D01*
X38674615Y22398125D01*
X38680916Y22530416D01*
X39035458Y22536220D01*
X39390000Y22542023D01*
X39390000Y22816166D01*
X38670333Y22816166D01*
X38670333Y22939639D01*
X38672582Y23008558D01*
X38678401Y23059208D01*
X38684444Y23077222D01*
X38708042Y23080330D01*
X38769351Y23083202D01*
X38863752Y23085759D01*
X38986622Y23087925D01*
X39133341Y23089623D01*
X39299287Y23090776D01*
X39479840Y23091307D01*
X39531111Y23091333D01*
X40363666Y23091333D01*
X40363666Y22816166D01*
X39665166Y22816166D01*
G36*
X40231375Y21317615D02*
G01*
X40099083Y21323916D01*
X40093075Y21551458D01*
X40087068Y21779000D01*
X39665166Y21779000D01*
X39665166Y21440333D01*
X39390000Y21440333D01*
X39390000Y21779000D01*
X38945500Y21779000D01*
X38945500Y21313333D01*
X38670333Y21313333D01*
X38670333Y22054166D01*
X40363666Y22054166D01*
X40363666Y21311313D01*
X40231375Y21317615D01*
G37*
X40231375Y21317615D02*
X40099083Y21323916D01*
X40093075Y21551458D01*
X40087068Y21779000D01*
X39665166Y21779000D01*
X39665166Y21440333D01*
X39390000Y21440333D01*
X39390000Y21779000D01*
X38945500Y21779000D01*
X38945500Y21313333D01*
X38670333Y21313333D01*
X38670333Y22054166D01*
X40363666Y22054166D01*
X40363666Y21311313D01*
X40231375Y21317615D01*
G36*
X40306469Y20030530D02*
G01*
X40272555Y20037002D01*
X40202040Y20050075D01*
X40099985Y20068826D01*
X39971446Y20092328D01*
X39821483Y20119657D01*
X39655155Y20149888D01*
X39477519Y20182096D01*
X39474688Y20182609D01*
X39299110Y20214586D01*
X39136680Y20244518D01*
X38992107Y20271509D01*
X38870097Y20294666D01*
X38775358Y20313095D01*
X38712596Y20325901D01*
X38686521Y20332192D01*
X38686230Y20332340D01*
X38676034Y20358762D01*
X38670530Y20414083D01*
X38669351Y20485867D01*
X38672129Y20561677D01*
X38678495Y20629079D01*
X38688081Y20675636D01*
X38696791Y20689276D01*
X38722998Y20695035D01*
X38786135Y20707258D01*
X38881444Y20725072D01*
X39004164Y20747604D01*
X39149533Y20773979D01*
X39312791Y20803325D01*
X39489177Y20834767D01*
X39506416Y20837826D01*
X39684333Y20869503D01*
X39850035Y20899224D01*
X39998677Y20926102D01*
X40125414Y20949252D01*
X40225402Y20967790D01*
X40293796Y20980829D01*
X40325751Y20987484D01*
X40326625Y20987725D01*
X40346002Y20988906D01*
X40357187Y20972714D01*
X40362351Y20931023D01*
X40363663Y20855710D01*
X40363666Y20849093D01*
X40361610Y20775712D01*
X40356194Y20722429D01*
X40348548Y20699879D01*
X40347791Y20699720D01*
X40319031Y20696560D01*
X40255560Y20687555D01*
X40164157Y20673796D01*
X40051603Y20656372D01*
X39924677Y20636376D01*
X39790159Y20614898D01*
X39654828Y20593030D01*
X39525465Y20571861D01*
X39408849Y20552484D01*
X39311759Y20535988D01*
X39240976Y20523465D01*
X39203279Y20516007D01*
X39199500Y20514945D01*
X39211174Y20508536D01*
X39259777Y20496484D01*
X39340418Y20479746D01*
X39448211Y20459279D01*
X39578266Y20436037D01*
X39725696Y20410978D01*
X39760416Y20405244D01*
X40353083Y20307875D01*
X40365687Y20018359D01*
X40306469Y20030530D01*
G37*
X40306469Y20030530D02*
X40272555Y20037002D01*
X40202040Y20050075D01*
X40099985Y20068826D01*
X39971446Y20092328D01*
X39821483Y20119657D01*
X39655155Y20149888D01*
X39477519Y20182096D01*
X39474688Y20182609D01*
X39299110Y20214586D01*
X39136680Y20244518D01*
X38992107Y20271509D01*
X38870097Y20294666D01*
X38775358Y20313095D01*
X38712596Y20325901D01*
X38686521Y20332192D01*
X38686230Y20332340D01*
X38676034Y20358762D01*
X38670530Y20414083D01*
X38669351Y20485867D01*
X38672129Y20561677D01*
X38678495Y20629079D01*
X38688081Y20675636D01*
X38696791Y20689276D01*
X38722998Y20695035D01*
X38786135Y20707258D01*
X38881444Y20725072D01*
X39004164Y20747604D01*
X39149533Y20773979D01*
X39312791Y20803325D01*
X39489177Y20834767D01*
X39506416Y20837826D01*
X39684333Y20869503D01*
X39850035Y20899224D01*
X39998677Y20926102D01*
X40125414Y20949252D01*
X40225402Y20967790D01*
X40293796Y20980829D01*
X40325751Y20987484D01*
X40326625Y20987725D01*
X40346002Y20988906D01*
X40357187Y20972714D01*
X40362351Y20931023D01*
X40363663Y20855710D01*
X40363666Y20849093D01*
X40361610Y20775712D01*
X40356194Y20722429D01*
X40348548Y20699879D01*
X40347791Y20699720D01*
X40319031Y20696560D01*
X40255560Y20687555D01*
X40164157Y20673796D01*
X40051603Y20656372D01*
X39924677Y20636376D01*
X39790159Y20614898D01*
X39654828Y20593030D01*
X39525465Y20571861D01*
X39408849Y20552484D01*
X39311759Y20535988D01*
X39240976Y20523465D01*
X39203279Y20516007D01*
X39199500Y20514945D01*
X39211174Y20508536D01*
X39259777Y20496484D01*
X39340418Y20479746D01*
X39448211Y20459279D01*
X39578266Y20436037D01*
X39725696Y20410978D01*
X39760416Y20405244D01*
X40353083Y20307875D01*
X40365687Y20018359D01*
X40306469Y20030530D01*
G36*
X40231375Y19095115D02*
G01*
X40099083Y19101416D01*
X40093075Y19328958D01*
X40087068Y19556500D01*
X39665166Y19556500D01*
X39665166Y19217833D01*
X39390000Y19217833D01*
X39390000Y19556500D01*
X38945500Y19556500D01*
X38945500Y19090833D01*
X38670333Y19090833D01*
X38670333Y19831666D01*
X40363666Y19831666D01*
X40363666Y19088813D01*
X40231375Y19095115D01*
G37*
X40231375Y19095115D02*
X40099083Y19101416D01*
X40093075Y19328958D01*
X40087068Y19556500D01*
X39665166Y19556500D01*
X39665166Y19217833D01*
X39390000Y19217833D01*
X39390000Y19556500D01*
X38945500Y19556500D01*
X38945500Y19090833D01*
X38670333Y19090833D01*
X38670333Y19831666D01*
X40363666Y19831666D01*
X40363666Y19088813D01*
X40231375Y19095115D01*
G36*
X40362700Y18556423D02*
G01*
X40359002Y18471275D01*
X40351375Y18409041D01*
X40338619Y18360029D01*
X40319537Y18314541D01*
X40319102Y18313641D01*
X40280817Y18248597D01*
X40233775Y18201326D01*
X40171083Y18169249D01*
X40085845Y18149791D01*
X39971166Y18140372D01*
X39850179Y18138333D01*
X39739774Y18138827D01*
X39662025Y18141396D01*
X39607259Y18147670D01*
X39565802Y18159279D01*
X39527979Y18177853D01*
X39494794Y18198212D01*
X39400583Y18258092D01*
X39051333Y18166599D01*
X38935498Y18136479D01*
X38834010Y18110517D01*
X38753909Y18090477D01*
X38702232Y18078128D01*
X38686208Y18074970D01*
X38678335Y18094262D01*
X38672656Y18145106D01*
X38670340Y18216736D01*
X38670333Y18220931D01*
X38670333Y18367028D01*
X38911760Y18423171D01*
X39048117Y18454880D01*
X39148738Y18479010D01*
X39219041Y18497919D01*
X39264441Y18513962D01*
X39290355Y18529496D01*
X39302198Y18546877D01*
X39305387Y18568463D01*
X39305333Y18594411D01*
X39305333Y18667500D01*
X38670333Y18667500D01*
X38670333Y18942666D01*
X40088500Y18942666D01*
X40088500Y18667500D01*
X39580500Y18667500D01*
X39580500Y18572250D01*
X39590184Y18490518D01*
X39621481Y18436038D01*
X39622833Y18434666D01*
X39651503Y18412873D01*
X39690797Y18399962D01*
X39751452Y18393820D01*
X39838125Y18392333D01*
X39945486Y18395914D01*
X40017545Y18409717D01*
X40060960Y18438329D01*
X40082385Y18486340D01*
X40088476Y18558338D01*
X40088500Y18564947D01*
X40088500Y18667500D01*
X40088500Y18942666D01*
X40363666Y18942666D01*
X40363666Y18674183D01*
X40362700Y18556423D01*
G37*
X40362700Y18556423D02*
X40359002Y18471275D01*
X40351375Y18409041D01*
X40338619Y18360029D01*
X40319537Y18314541D01*
X40319102Y18313641D01*
X40280817Y18248597D01*
X40233775Y18201326D01*
X40171083Y18169249D01*
X40085845Y18149791D01*
X39971166Y18140372D01*
X39850179Y18138333D01*
X39739774Y18138827D01*
X39662025Y18141396D01*
X39607259Y18147670D01*
X39565802Y18159279D01*
X39527979Y18177853D01*
X39494794Y18198212D01*
X39400583Y18258092D01*
X39051333Y18166599D01*
X38935498Y18136479D01*
X38834010Y18110517D01*
X38753909Y18090477D01*
X38702232Y18078128D01*
X38686208Y18074970D01*
X38678335Y18094262D01*
X38672656Y18145106D01*
X38670340Y18216736D01*
X38670333Y18220931D01*
X38670333Y18367028D01*
X38911760Y18423171D01*
X39048117Y18454880D01*
X39148738Y18479010D01*
X39219041Y18497919D01*
X39264441Y18513962D01*
X39290355Y18529496D01*
X39302198Y18546877D01*
X39305387Y18568463D01*
X39305333Y18594411D01*
X39305333Y18667500D01*
X38670333Y18667500D01*
X38670333Y18942666D01*
X40088500Y18942666D01*
X40088500Y18667500D01*
X39580500Y18667500D01*
X39580500Y18572250D01*
X39590184Y18490518D01*
X39621481Y18436038D01*
X39622833Y18434666D01*
X39651503Y18412873D01*
X39690797Y18399962D01*
X39751452Y18393820D01*
X39838125Y18392333D01*
X39945486Y18395914D01*
X40017545Y18409717D01*
X40060960Y18438329D01*
X40082385Y18486340D01*
X40088476Y18558338D01*
X40088500Y18564947D01*
X40088500Y18667500D01*
X40088500Y18942666D01*
X40363666Y18942666D01*
X40363666Y18674183D01*
X40362700Y18556423D01*
G36*
X40088500Y17143500D02*
G01*
X40088500Y17609166D01*
X39665166Y17609166D01*
X39665166Y17270500D01*
X39390000Y17270500D01*
X39390000Y17609166D01*
X38945500Y17609166D01*
X38945500Y17143500D01*
X38670333Y17143500D01*
X38670333Y17884333D01*
X40363666Y17884333D01*
X40363666Y17143500D01*
X40088500Y17143500D01*
G37*
X40088500Y17143500D02*
X40088500Y17609166D01*
X39665166Y17609166D01*
X39665166Y17270500D01*
X39390000Y17270500D01*
X39390000Y17609166D01*
X38945500Y17609166D01*
X38945500Y17143500D01*
X38670333Y17143500D01*
X38670333Y17884333D01*
X40363666Y17884333D01*
X40363666Y17143500D01*
X40088500Y17143500D01*
G36*
X40088500Y16254500D02*
G01*
X40088500Y16720166D01*
X39665166Y16720166D01*
X39665166Y16381500D01*
X39390000Y16381500D01*
X39390000Y16720166D01*
X38945500Y16720166D01*
X38945500Y16254500D01*
X38670333Y16254500D01*
X38670333Y16995333D01*
X40363666Y16995333D01*
X40363666Y16254500D01*
X40088500Y16254500D01*
G37*
X40088500Y16254500D02*
X40088500Y16720166D01*
X39665166Y16720166D01*
X39665166Y16381500D01*
X39390000Y16381500D01*
X39390000Y16720166D01*
X38945500Y16720166D01*
X38945500Y16254500D01*
X38670333Y16254500D01*
X38670333Y16995333D01*
X40363666Y16995333D01*
X40363666Y16254500D01*
X40088500Y16254500D01*
G36*
X39358250Y15495548D02*
G01*
X40363666Y15492500D01*
X40363666Y15217333D01*
X38668399Y15217333D01*
X38674658Y15359652D01*
X38680916Y15501970D01*
X39675750Y15827584D01*
X39173041Y15829375D01*
X38670333Y15831166D01*
X38670333Y16106333D01*
X40363666Y16106333D01*
X40363666Y15796150D01*
X39358250Y15495548D01*
G37*
X39358250Y15495548D02*
X40363666Y15492500D01*
X40363666Y15217333D01*
X38668399Y15217333D01*
X38674658Y15359652D01*
X38680916Y15501970D01*
X39675750Y15827584D01*
X39173041Y15829375D01*
X38670333Y15831166D01*
X38670333Y16106333D01*
X40363666Y16106333D01*
X40363666Y15796150D01*
X39358250Y15495548D01*
G36*
X38670333Y14730500D02*
G01*
X38670333Y15005666D01*
X40363666Y15005666D01*
X40363666Y14730500D01*
X38670333Y14730500D01*
G37*
X38670333Y14730500D02*
X38670333Y15005666D01*
X40363666Y15005666D01*
X40363666Y14730500D01*
X38670333Y14730500D01*
G36*
X38670333Y13248833D02*
G01*
X38670333Y13372305D01*
X38672582Y13441224D01*
X38678401Y13491875D01*
X38684444Y13509889D01*
X38708042Y13512997D01*
X38769351Y13515868D01*
X38863752Y13518426D01*
X38986622Y13520592D01*
X39133341Y13522290D01*
X39299287Y13523443D01*
X39479840Y13523973D01*
X39531111Y13524000D01*
X40363666Y13524000D01*
X40363666Y13248833D01*
X38670333Y13248833D01*
G37*
X38670333Y13248833D02*
X38670333Y13372305D01*
X38672582Y13441224D01*
X38678401Y13491875D01*
X38684444Y13509889D01*
X38708042Y13512997D01*
X38769351Y13515868D01*
X38863752Y13518426D01*
X38986622Y13520592D01*
X39133341Y13522290D01*
X39299287Y13523443D01*
X39479840Y13523973D01*
X39531111Y13524000D01*
X40363666Y13524000D01*
X40363666Y13248833D01*
X38670333Y13248833D01*
G36*
X40359302Y12884399D02*
G01*
X40353083Y12731631D01*
X39845083Y12578921D01*
X39337083Y12426212D01*
X39850375Y12424773D01*
X40363666Y12423333D01*
X40363666Y12148166D01*
X38670333Y12148166D01*
X38670333Y12436897D01*
X39654583Y12758223D01*
X39162458Y12760111D01*
X38670333Y12762000D01*
X38670333Y13037166D01*
X40365521Y13037166D01*
X40359302Y12884399D01*
G37*
X40359302Y12884399D02*
X40353083Y12731631D01*
X39845083Y12578921D01*
X39337083Y12426212D01*
X39850375Y12424773D01*
X40363666Y12423333D01*
X40363666Y12148166D01*
X38670333Y12148166D01*
X38670333Y12436897D01*
X39654583Y12758223D01*
X39162458Y12760111D01*
X38670333Y12762000D01*
X38670333Y13037166D01*
X40365521Y13037166D01*
X40359302Y12884399D01*
G36*
X44845708Y29293048D02*
G01*
X44424081Y29292847D01*
X44037317Y29292286D01*
X43686155Y29291373D01*
X43371333Y29290114D01*
X43093586Y29288514D01*
X42853652Y29286580D01*
X42652269Y29284318D01*
X42490174Y29281734D01*
X42368104Y29278833D01*
X42286796Y29275623D01*
X42246987Y29272109D01*
X42244903Y29271631D01*
X42168323Y29235892D01*
X42083700Y29173965D01*
X42003395Y29096755D01*
X41939771Y29015164D01*
X41924452Y28988964D01*
X41889689Y28887836D01*
X41876294Y28768044D01*
X41884305Y28646669D01*
X41913755Y28540791D01*
X41923482Y28520583D01*
X42011004Y28398850D01*
X42127498Y28300448D01*
X42205166Y28257662D01*
X42220107Y28251197D01*
X42236314Y28245413D01*
X42256106Y28240272D01*
X42281800Y28235735D01*
X42315716Y28231764D01*
X42360171Y28228320D01*
X42417486Y28225366D01*
X42489977Y28222863D01*
X42579964Y28220772D01*
X42689765Y28219056D01*
X42821699Y28217675D01*
X42978084Y28216591D01*
X43161238Y28215767D01*
X43373481Y28215163D01*
X43617131Y28214742D01*
X43894505Y28214464D01*
X44207924Y28214292D01*
X44559705Y28214186D01*
X44835125Y28214131D01*
X47369833Y28213666D01*
X47369833Y27175227D01*
X44761041Y27181425D01*
X42152250Y27187623D01*
X41987140Y27234385D01*
X41791684Y27302093D01*
X41620495Y27390217D01*
X41461088Y27506174D01*
X41337003Y27620609D01*
X41176061Y27800007D01*
X41053575Y27980705D01*
X40966170Y28170520D01*
X40910472Y28377267D01*
X40883108Y28608765D01*
X40880057Y28679333D01*
X40879505Y28857325D01*
X40889153Y28998041D01*
X40901398Y29070916D01*
X40976441Y29306560D01*
X41088184Y29525260D01*
X41233145Y29723391D01*
X41407840Y29897326D01*
X41608785Y30043440D01*
X41832498Y30158108D01*
X42004083Y30218689D01*
X42025249Y30224184D01*
X42050500Y30229125D01*
X42082129Y30233547D01*
X42122428Y30237486D01*
X42173689Y30240979D01*
X42238203Y30244060D01*
X42318263Y30246767D01*
X42416160Y30249135D01*
X42534186Y30251201D01*
X42674633Y30252999D01*
X42839793Y30254566D01*
X43031957Y30255939D01*
X43253418Y30257152D01*
X43506467Y30258243D01*
X43793397Y30259246D01*
X44116499Y30260198D01*
X44478065Y30261136D01*
X44750458Y30261791D01*
X47369833Y30267950D01*
X47369833Y29293166D01*
X44845708Y29293048D01*
G37*
X44845708Y29293048D02*
X44424081Y29292847D01*
X44037317Y29292286D01*
X43686155Y29291373D01*
X43371333Y29290114D01*
X43093586Y29288514D01*
X42853652Y29286580D01*
X42652269Y29284318D01*
X42490174Y29281734D01*
X42368104Y29278833D01*
X42286796Y29275623D01*
X42246987Y29272109D01*
X42244903Y29271631D01*
X42168323Y29235892D01*
X42083700Y29173965D01*
X42003395Y29096755D01*
X41939771Y29015164D01*
X41924452Y28988964D01*
X41889689Y28887836D01*
X41876294Y28768044D01*
X41884305Y28646669D01*
X41913755Y28540791D01*
X41923482Y28520583D01*
X42011004Y28398850D01*
X42127498Y28300448D01*
X42205166Y28257662D01*
X42220107Y28251197D01*
X42236314Y28245413D01*
X42256106Y28240272D01*
X42281800Y28235735D01*
X42315716Y28231764D01*
X42360171Y28228320D01*
X42417486Y28225366D01*
X42489977Y28222863D01*
X42579964Y28220772D01*
X42689765Y28219056D01*
X42821699Y28217675D01*
X42978084Y28216591D01*
X43161238Y28215767D01*
X43373481Y28215163D01*
X43617131Y28214742D01*
X43894505Y28214464D01*
X44207924Y28214292D01*
X44559705Y28214186D01*
X44835125Y28214131D01*
X47369833Y28213666D01*
X47369833Y27175227D01*
X44761041Y27181425D01*
X42152250Y27187623D01*
X41987140Y27234385D01*
X41791684Y27302093D01*
X41620495Y27390217D01*
X41461088Y27506174D01*
X41337003Y27620609D01*
X41176061Y27800007D01*
X41053575Y27980705D01*
X40966170Y28170520D01*
X40910472Y28377267D01*
X40883108Y28608765D01*
X40880057Y28679333D01*
X40879505Y28857325D01*
X40889153Y28998041D01*
X40901398Y29070916D01*
X40976441Y29306560D01*
X41088184Y29525260D01*
X41233145Y29723391D01*
X41407840Y29897326D01*
X41608785Y30043440D01*
X41832498Y30158108D01*
X42004083Y30218689D01*
X42025249Y30224184D01*
X42050500Y30229125D01*
X42082129Y30233547D01*
X42122428Y30237486D01*
X42173689Y30240979D01*
X42238203Y30244060D01*
X42318263Y30246767D01*
X42416160Y30249135D01*
X42534186Y30251201D01*
X42674633Y30252999D01*
X42839793Y30254566D01*
X43031957Y30255939D01*
X43253418Y30257152D01*
X43506467Y30258243D01*
X43793397Y30259246D01*
X44116499Y30260198D01*
X44478065Y30261136D01*
X44750458Y30261791D01*
X47369833Y30267950D01*
X47369833Y29293166D01*
X44845708Y29293048D01*
G36*
X47436155Y24596494D02*
G01*
X47416229Y24433617D01*
X47395363Y24337295D01*
X47311249Y24103807D01*
X47192720Y23893523D01*
X47042206Y23708802D01*
X46862140Y23552003D01*
X46654952Y23425486D01*
X46423072Y23331610D01*
X46332666Y23305915D01*
X46237697Y23283552D01*
X46142010Y23263838D01*
X46067170Y23251171D01*
X45960423Y23236732D01*
X45791119Y24180834D01*
X45962200Y24215470D01*
X46152527Y24268085D01*
X46307373Y24341427D01*
X46426137Y24434991D01*
X46508214Y24548271D01*
X46553000Y24680764D01*
X46557939Y24713706D01*
X46555867Y24855247D01*
X46515653Y24980660D01*
X46439049Y25087972D01*
X46327811Y25175212D01*
X46183692Y25240406D01*
X46061028Y25272494D01*
X45865076Y25289630D01*
X45662971Y25265769D01*
X45456465Y25201503D01*
X45247307Y25097426D01*
X45037247Y24954130D01*
X44976227Y24905170D01*
X44919914Y24853660D01*
X44843018Y24776499D01*
X44752039Y24680571D01*
X44653474Y24572764D01*
X44553824Y24459962D01*
X44530168Y24432562D01*
X44323017Y24198879D01*
X44130902Y23998732D01*
X43948996Y23828274D01*
X43772468Y23683658D01*
X43596489Y23561038D01*
X43416231Y23456565D01*
X43226865Y23366394D01*
X43153421Y23335844D01*
X42965731Y23268207D01*
X42794996Y23225116D01*
X42625768Y23203869D01*
X42442601Y23201768D01*
X42397273Y23203689D01*
X42218373Y23217542D01*
X42065457Y23241809D01*
X41922661Y23280512D01*
X41774123Y23337677D01*
X41656883Y23391480D01*
X41444217Y23514986D01*
X41264500Y23665068D01*
X41117644Y23841832D01*
X41003561Y24045380D01*
X40924793Y24266083D01*
X40905943Y24362453D01*
X40891914Y24488660D01*
X40883031Y24632448D01*
X40879619Y24781561D01*
X40882004Y24923741D01*
X40890513Y25046733D01*
X40902002Y25123333D01*
X40973765Y25367080D01*
X41080473Y25587304D01*
X41221466Y25783381D01*
X41396085Y25954690D01*
X41603669Y26100605D01*
X41843558Y26220505D01*
X42115094Y26313766D01*
X42180824Y26331100D01*
X42247948Y26345819D01*
X42333326Y26361627D01*
X42427471Y26377146D01*
X42520899Y26390993D01*
X42604126Y26401788D01*
X42667667Y26408151D01*
X42702038Y26408700D01*
X42705307Y26407450D01*
X42707423Y26386264D01*
X42711661Y26329473D01*
X42717561Y26243726D01*
X42724668Y26135672D01*
X42732499Y26012333D01*
X42741002Y25881988D01*
X42749564Y25760976D01*
X42757534Y25657768D01*
X42764263Y25580831D01*
X42768672Y25541375D01*
X42773979Y25489659D01*
X42764112Y25467282D01*
X42731600Y25461956D01*
X42720319Y25461852D01*
X42643818Y25454010D01*
X42541492Y25433188D01*
X42426461Y25403000D01*
X42311843Y25367060D01*
X42210760Y25328983D01*
X42168480Y25309824D01*
X42066221Y25247631D01*
X41968907Y25167438D01*
X41885789Y25078698D01*
X41826120Y24990868D01*
X41803869Y24937240D01*
X41783579Y24792735D01*
X41801634Y24655271D01*
X41854164Y24528727D01*
X41937299Y24416982D01*
X42047169Y24323916D01*
X42179905Y24253408D01*
X42331635Y24209337D01*
X42498490Y24195582D01*
X42542035Y24197330D01*
X42668360Y24210562D01*
X42782993Y24235144D01*
X42891334Y24274349D01*
X42998782Y24331451D01*
X43110737Y24409726D01*
X43232601Y24512446D01*
X43369772Y24642887D01*
X43506198Y24781917D01*
X43724298Y25008233D01*
X43916582Y25205682D01*
X44085765Y25376676D01*
X44234556Y25523627D01*
X44365669Y25648945D01*
X44481816Y25755044D01*
X44585708Y25844333D01*
X44680058Y25919226D01*
X44767578Y25982133D01*
X44850979Y26035466D01*
X44932975Y26081637D01*
X45012353Y26121210D01*
X45192541Y26196632D01*
X45369089Y26248853D01*
X45554764Y26280504D01*
X45762329Y26294219D01*
X45856416Y26295270D01*
X46126114Y26282089D01*
X46365975Y26242376D01*
X46580477Y26174392D01*
X46774098Y26076396D01*
X46951315Y25946648D01*
X47085234Y25817807D01*
X47216217Y25654687D01*
X47316240Y25475866D01*
X47391355Y25270428D01*
X47394306Y25260173D01*
X47422969Y25120283D01*
X47439508Y24953754D01*
X47443909Y24774515D01*
X47436155Y24596494D01*
G37*
X47436155Y24596494D02*
X47416229Y24433617D01*
X47395363Y24337295D01*
X47311249Y24103807D01*
X47192720Y23893523D01*
X47042206Y23708802D01*
X46862140Y23552003D01*
X46654952Y23425486D01*
X46423072Y23331610D01*
X46332666Y23305915D01*
X46237697Y23283552D01*
X46142010Y23263838D01*
X46067170Y23251171D01*
X45960423Y23236732D01*
X45791119Y24180834D01*
X45962200Y24215470D01*
X46152527Y24268085D01*
X46307373Y24341427D01*
X46426137Y24434991D01*
X46508214Y24548271D01*
X46553000Y24680764D01*
X46557939Y24713706D01*
X46555867Y24855247D01*
X46515653Y24980660D01*
X46439049Y25087972D01*
X46327811Y25175212D01*
X46183692Y25240406D01*
X46061028Y25272494D01*
X45865076Y25289630D01*
X45662971Y25265769D01*
X45456465Y25201503D01*
X45247307Y25097426D01*
X45037247Y24954130D01*
X44976227Y24905170D01*
X44919914Y24853660D01*
X44843018Y24776499D01*
X44752039Y24680571D01*
X44653474Y24572764D01*
X44553824Y24459962D01*
X44530168Y24432562D01*
X44323017Y24198879D01*
X44130902Y23998732D01*
X43948996Y23828274D01*
X43772468Y23683658D01*
X43596489Y23561038D01*
X43416231Y23456565D01*
X43226865Y23366394D01*
X43153421Y23335844D01*
X42965731Y23268207D01*
X42794996Y23225116D01*
X42625768Y23203869D01*
X42442601Y23201768D01*
X42397273Y23203689D01*
X42218373Y23217542D01*
X42065457Y23241809D01*
X41922661Y23280512D01*
X41774123Y23337677D01*
X41656883Y23391480D01*
X41444217Y23514986D01*
X41264500Y23665068D01*
X41117644Y23841832D01*
X41003561Y24045380D01*
X40924793Y24266083D01*
X40905943Y24362453D01*
X40891914Y24488660D01*
X40883031Y24632448D01*
X40879619Y24781561D01*
X40882004Y24923741D01*
X40890513Y25046733D01*
X40902002Y25123333D01*
X40973765Y25367080D01*
X41080473Y25587304D01*
X41221466Y25783381D01*
X41396085Y25954690D01*
X41603669Y26100605D01*
X41843558Y26220505D01*
X42115094Y26313766D01*
X42180824Y26331100D01*
X42247948Y26345819D01*
X42333326Y26361627D01*
X42427471Y26377146D01*
X42520899Y26390993D01*
X42604126Y26401788D01*
X42667667Y26408151D01*
X42702038Y26408700D01*
X42705307Y26407450D01*
X42707423Y26386264D01*
X42711661Y26329473D01*
X42717561Y26243726D01*
X42724668Y26135672D01*
X42732499Y26012333D01*
X42741002Y25881988D01*
X42749564Y25760976D01*
X42757534Y25657768D01*
X42764263Y25580831D01*
X42768672Y25541375D01*
X42773979Y25489659D01*
X42764112Y25467282D01*
X42731600Y25461956D01*
X42720319Y25461852D01*
X42643818Y25454010D01*
X42541492Y25433188D01*
X42426461Y25403000D01*
X42311843Y25367060D01*
X42210760Y25328983D01*
X42168480Y25309824D01*
X42066221Y25247631D01*
X41968907Y25167438D01*
X41885789Y25078698D01*
X41826120Y24990868D01*
X41803869Y24937240D01*
X41783579Y24792735D01*
X41801634Y24655271D01*
X41854164Y24528727D01*
X41937299Y24416982D01*
X42047169Y24323916D01*
X42179905Y24253408D01*
X42331635Y24209337D01*
X42498490Y24195582D01*
X42542035Y24197330D01*
X42668360Y24210562D01*
X42782993Y24235144D01*
X42891334Y24274349D01*
X42998782Y24331451D01*
X43110737Y24409726D01*
X43232601Y24512446D01*
X43369772Y24642887D01*
X43506198Y24781917D01*
X43724298Y25008233D01*
X43916582Y25205682D01*
X44085765Y25376676D01*
X44234556Y25523627D01*
X44365669Y25648945D01*
X44481816Y25755044D01*
X44585708Y25844333D01*
X44680058Y25919226D01*
X44767578Y25982133D01*
X44850979Y26035466D01*
X44932975Y26081637D01*
X45012353Y26121210D01*
X45192541Y26196632D01*
X45369089Y26248853D01*
X45554764Y26280504D01*
X45762329Y26294219D01*
X45856416Y26295270D01*
X46126114Y26282089D01*
X46365975Y26242376D01*
X46580477Y26174392D01*
X46774098Y26076396D01*
X46951315Y25946648D01*
X47085234Y25817807D01*
X47216217Y25654687D01*
X47316240Y25475866D01*
X47391355Y25270428D01*
X47394306Y25260173D01*
X47422969Y25120283D01*
X47439508Y24953754D01*
X47443909Y24774515D01*
X47436155Y24596494D01*
G36*
X47437257Y16732421D02*
G01*
X47416830Y16584785D01*
X47403902Y16529666D01*
X47319773Y16301094D01*
X47198575Y16086986D01*
X47044537Y15892506D01*
X46861888Y15722821D01*
X46654858Y15583094D01*
X46607833Y15557600D01*
X46558234Y15531441D01*
X46514338Y15508328D01*
X46473344Y15488066D01*
X46432448Y15470456D01*
X46388849Y15455303D01*
X46339743Y15442409D01*
X46282328Y15431578D01*
X46213802Y15422612D01*
X46131362Y15415316D01*
X46032206Y15409493D01*
X45913530Y15404946D01*
X45772533Y15401477D01*
X45606412Y15398891D01*
X45412364Y15396990D01*
X45187587Y15395578D01*
X44929278Y15394459D01*
X44634635Y15393434D01*
X44300856Y15392308D01*
X44250791Y15392131D01*
X43903318Y15390935D01*
X43595409Y15390050D01*
X43324294Y15389591D01*
X43087202Y15389670D01*
X42881364Y15390402D01*
X42704010Y15391900D01*
X42552371Y15394278D01*
X42423677Y15397649D01*
X42315157Y15402128D01*
X42224044Y15407827D01*
X42147566Y15414861D01*
X42082954Y15423342D01*
X42027439Y15433386D01*
X41978250Y15445105D01*
X41932618Y15458612D01*
X41887773Y15474023D01*
X41842247Y15490957D01*
X41644356Y15586938D01*
X41456217Y15718632D01*
X41284605Y15879524D01*
X41136294Y16063096D01*
X41018057Y16262834D01*
X41000013Y16301055D01*
X40931625Y16494696D01*
X40889093Y16710520D01*
X40873582Y16936326D01*
X40886258Y17159909D01*
X40906416Y17281083D01*
X40974832Y17505031D01*
X41080564Y17715662D01*
X41219603Y17908836D01*
X41387939Y18080413D01*
X41581561Y18226255D01*
X41796459Y18342220D01*
X42008306Y18418626D01*
X42037840Y18426706D01*
X42066985Y18433799D01*
X42098602Y18439982D01*
X42135550Y18445332D01*
X42180689Y18449923D01*
X42236878Y18453834D01*
X42306977Y18457140D01*
X42393845Y18459917D01*
X42500343Y18462241D01*
X42629329Y18464190D01*
X42783663Y18465839D01*
X42966205Y18467265D01*
X43179814Y18468544D01*
X43427350Y18469752D01*
X43711672Y18470966D01*
X44014916Y18472179D01*
X44172145Y18472678D01*
X44172145Y17503215D01*
X43846018Y17503160D01*
X43559545Y17502921D01*
X43310050Y17502452D01*
X43094855Y17501710D01*
X42911282Y17500648D01*
X42756653Y17499223D01*
X42628291Y17497390D01*
X42523517Y17495104D01*
X42439653Y17492320D01*
X42374023Y17488994D01*
X42323948Y17485080D01*
X42286751Y17480534D01*
X42259753Y17475311D01*
X42244793Y17470993D01*
X42114143Y17405383D01*
X42009629Y17309285D01*
X41935078Y17188188D01*
X41894317Y17047580D01*
X41887666Y16958747D01*
X41892363Y16874681D01*
X41904499Y16796930D01*
X41916769Y16754989D01*
X41978892Y16651080D01*
X42069639Y16555861D01*
X42175585Y16482938D01*
X42194429Y16473603D01*
X42300416Y16424247D01*
X44160627Y16424040D01*
X44513338Y16424170D01*
X44825501Y16424658D01*
X45098898Y16425528D01*
X45335313Y16426801D01*
X45536530Y16428500D01*
X45704332Y16430648D01*
X45840503Y16433268D01*
X45946825Y16436382D01*
X46025082Y16440012D01*
X46077059Y16444183D01*
X46103922Y16448726D01*
X46193700Y16491747D01*
X46285337Y16562261D01*
X46365411Y16648280D01*
X46415560Y16727088D01*
X46454316Y16852034D01*
X46460549Y16989846D01*
X46434687Y17126809D01*
X46400554Y17209488D01*
X46325966Y17317338D01*
X46228731Y17407074D01*
X46120755Y17468499D01*
X46083424Y17481201D01*
X46045754Y17485579D01*
X45966327Y17489489D01*
X45845714Y17492923D01*
X45684489Y17495876D01*
X45483223Y17498340D01*
X45242490Y17500309D01*
X44962862Y17501778D01*
X44644912Y17502737D01*
X44289212Y17503183D01*
X44172145Y17503215D01*
X44172145Y18472678D01*
X44401741Y18473409D01*
X44749984Y18473890D01*
X45059175Y18473626D01*
X45328841Y18472621D01*
X45558513Y18470879D01*
X45747717Y18468402D01*
X45895985Y18465194D01*
X46002843Y18461259D01*
X46065475Y18456861D01*
X46282604Y18422078D01*
X46473806Y18365131D01*
X46648328Y18281503D01*
X46815419Y18166682D01*
X46984329Y18016152D01*
X46999879Y18000755D01*
X47133812Y17855276D01*
X47237097Y17713134D01*
X47317945Y17560877D01*
X47384572Y17385052D01*
X47394048Y17355166D01*
X47423239Y17223867D01*
X47440287Y17066571D01*
X47445018Y16897886D01*
X47437257Y16732421D01*
G37*
X47437257Y16732421D02*
X47416830Y16584785D01*
X47403902Y16529666D01*
X47319773Y16301094D01*
X47198575Y16086986D01*
X47044537Y15892506D01*
X46861888Y15722821D01*
X46654858Y15583094D01*
X46607833Y15557600D01*
X46558234Y15531441D01*
X46514338Y15508328D01*
X46473344Y15488066D01*
X46432448Y15470456D01*
X46388849Y15455303D01*
X46339743Y15442409D01*
X46282328Y15431578D01*
X46213802Y15422612D01*
X46131362Y15415316D01*
X46032206Y15409493D01*
X45913530Y15404946D01*
X45772533Y15401477D01*
X45606412Y15398891D01*
X45412364Y15396990D01*
X45187587Y15395578D01*
X44929278Y15394459D01*
X44634635Y15393434D01*
X44300856Y15392308D01*
X44250791Y15392131D01*
X43903318Y15390935D01*
X43595409Y15390050D01*
X43324294Y15389591D01*
X43087202Y15389670D01*
X42881364Y15390402D01*
X42704010Y15391900D01*
X42552371Y15394278D01*
X42423677Y15397649D01*
X42315157Y15402128D01*
X42224044Y15407827D01*
X42147566Y15414861D01*
X42082954Y15423342D01*
X42027439Y15433386D01*
X41978250Y15445105D01*
X41932618Y15458612D01*
X41887773Y15474023D01*
X41842247Y15490957D01*
X41644356Y15586938D01*
X41456217Y15718632D01*
X41284605Y15879524D01*
X41136294Y16063096D01*
X41018057Y16262834D01*
X41000013Y16301055D01*
X40931625Y16494696D01*
X40889093Y16710520D01*
X40873582Y16936326D01*
X40886258Y17159909D01*
X40906416Y17281083D01*
X40974832Y17505031D01*
X41080564Y17715662D01*
X41219603Y17908836D01*
X41387939Y18080413D01*
X41581561Y18226255D01*
X41796459Y18342220D01*
X42008306Y18418626D01*
X42037840Y18426706D01*
X42066985Y18433799D01*
X42098602Y18439982D01*
X42135550Y18445332D01*
X42180689Y18449923D01*
X42236878Y18453834D01*
X42306977Y18457140D01*
X42393845Y18459917D01*
X42500343Y18462241D01*
X42629329Y18464190D01*
X42783663Y18465839D01*
X42966205Y18467265D01*
X43179814Y18468544D01*
X43427350Y18469752D01*
X43711672Y18470966D01*
X44014916Y18472179D01*
X44172145Y18472678D01*
X44172145Y17503215D01*
X43846018Y17503160D01*
X43559545Y17502921D01*
X43310050Y17502452D01*
X43094855Y17501710D01*
X42911282Y17500648D01*
X42756653Y17499223D01*
X42628291Y17497390D01*
X42523517Y17495104D01*
X42439653Y17492320D01*
X42374023Y17488994D01*
X42323948Y17485080D01*
X42286751Y17480534D01*
X42259753Y17475311D01*
X42244793Y17470993D01*
X42114143Y17405383D01*
X42009629Y17309285D01*
X41935078Y17188188D01*
X41894317Y17047580D01*
X41887666Y16958747D01*
X41892363Y16874681D01*
X41904499Y16796930D01*
X41916769Y16754989D01*
X41978892Y16651080D01*
X42069639Y16555861D01*
X42175585Y16482938D01*
X42194429Y16473603D01*
X42300416Y16424247D01*
X44160627Y16424040D01*
X44513338Y16424170D01*
X44825501Y16424658D01*
X45098898Y16425528D01*
X45335313Y16426801D01*
X45536530Y16428500D01*
X45704332Y16430648D01*
X45840503Y16433268D01*
X45946825Y16436382D01*
X46025082Y16440012D01*
X46077059Y16444183D01*
X46103922Y16448726D01*
X46193700Y16491747D01*
X46285337Y16562261D01*
X46365411Y16648280D01*
X46415560Y16727088D01*
X46454316Y16852034D01*
X46460549Y16989846D01*
X46434687Y17126809D01*
X46400554Y17209488D01*
X46325966Y17317338D01*
X46228731Y17407074D01*
X46120755Y17468499D01*
X46083424Y17481201D01*
X46045754Y17485579D01*
X45966327Y17489489D01*
X45845714Y17492923D01*
X45684489Y17495876D01*
X45483223Y17498340D01*
X45242490Y17500309D01*
X44962862Y17501778D01*
X44644912Y17502737D01*
X44289212Y17503183D01*
X44172145Y17503215D01*
X44172145Y18472678D01*
X44401741Y18473409D01*
X44749984Y18473890D01*
X45059175Y18473626D01*
X45328841Y18472621D01*
X45558513Y18470879D01*
X45747717Y18468402D01*
X45895985Y18465194D01*
X46002843Y18461259D01*
X46065475Y18456861D01*
X46282604Y18422078D01*
X46473806Y18365131D01*
X46648328Y18281503D01*
X46815419Y18166682D01*
X46984329Y18016152D01*
X46999879Y18000755D01*
X47133812Y17855276D01*
X47237097Y17713134D01*
X47317945Y17560877D01*
X47384572Y17385052D01*
X47394048Y17355166D01*
X47423239Y17223867D01*
X47440287Y17066571D01*
X47445018Y16897886D01*
X47437257Y16732421D01*
G36*
X46063158Y35197341D02*
G01*
X45844146Y35307418D01*
X45636197Y35411717D01*
X45442400Y35508704D01*
X45265847Y35596841D01*
X45109627Y35674592D01*
X44976830Y35740422D01*
X44870546Y35792793D01*
X44793865Y35830171D01*
X44749878Y35851018D01*
X44740278Y35854977D01*
X44718878Y35847125D01*
X44661029Y35824348D01*
X44569462Y35787753D01*
X44446908Y35738446D01*
X44296098Y35677535D01*
X44119764Y35606124D01*
X43920636Y35525321D01*
X43701447Y35436231D01*
X43464927Y35339962D01*
X43213808Y35237620D01*
X42950820Y35130311D01*
X42877612Y35100416D01*
X42611290Y34991701D01*
X42355694Y34887467D01*
X42113596Y34788841D01*
X41887771Y34696947D01*
X41680995Y34612912D01*
X41496042Y34537861D01*
X41335685Y34472920D01*
X41202700Y34419214D01*
X41099862Y34377869D01*
X41029944Y34350011D01*
X40995721Y34336764D01*
X40993030Y34335858D01*
X40981951Y34335042D01*
X40973385Y34342373D01*
X40967075Y34362412D01*
X40962765Y34399719D01*
X40960202Y34458854D01*
X40959129Y34544378D01*
X40959290Y34660851D01*
X40960431Y34812833D01*
X40961280Y34902679D01*
X40966916Y35479642D01*
X42041149Y35898437D01*
X42250937Y35980215D01*
X42454867Y36059692D01*
X42648394Y36135098D01*
X42826976Y36204665D01*
X42986070Y36266622D01*
X43121134Y36319201D01*
X43227625Y36360632D01*
X43301000Y36389146D01*
X43319750Y36396419D01*
X43524119Y36475605D01*
X43261518Y36608619D01*
X42998916Y36741634D01*
X41977625Y36742733D01*
X40956333Y36743833D01*
X40956333Y37738666D01*
X47369833Y37738666D01*
X47369833Y36744211D01*
X46263927Y36738730D01*
X45158021Y36733250D01*
X46258635Y36168359D01*
X47359250Y35603469D01*
X47370566Y34539561D01*
X46063158Y35197341D01*
G37*
X46063158Y35197341D02*
X45844146Y35307418D01*
X45636197Y35411717D01*
X45442400Y35508704D01*
X45265847Y35596841D01*
X45109627Y35674592D01*
X44976830Y35740422D01*
X44870546Y35792793D01*
X44793865Y35830171D01*
X44749878Y35851018D01*
X44740278Y35854977D01*
X44718878Y35847125D01*
X44661029Y35824348D01*
X44569462Y35787753D01*
X44446908Y35738446D01*
X44296098Y35677535D01*
X44119764Y35606124D01*
X43920636Y35525321D01*
X43701447Y35436231D01*
X43464927Y35339962D01*
X43213808Y35237620D01*
X42950820Y35130311D01*
X42877612Y35100416D01*
X42611290Y34991701D01*
X42355694Y34887467D01*
X42113596Y34788841D01*
X41887771Y34696947D01*
X41680995Y34612912D01*
X41496042Y34537861D01*
X41335685Y34472920D01*
X41202700Y34419214D01*
X41099862Y34377869D01*
X41029944Y34350011D01*
X40995721Y34336764D01*
X40993030Y34335858D01*
X40981951Y34335042D01*
X40973385Y34342373D01*
X40967075Y34362412D01*
X40962765Y34399719D01*
X40960202Y34458854D01*
X40959129Y34544378D01*
X40959290Y34660851D01*
X40960431Y34812833D01*
X40961280Y34902679D01*
X40966916Y35479642D01*
X42041149Y35898437D01*
X42250937Y35980215D01*
X42454867Y36059692D01*
X42648394Y36135098D01*
X42826976Y36204665D01*
X42986070Y36266622D01*
X43121134Y36319201D01*
X43227625Y36360632D01*
X43301000Y36389146D01*
X43319750Y36396419D01*
X43524119Y36475605D01*
X43261518Y36608619D01*
X42998916Y36741634D01*
X41977625Y36742733D01*
X40956333Y36743833D01*
X40956333Y37738666D01*
X47369833Y37738666D01*
X47369833Y36744211D01*
X46263927Y36738730D01*
X45158021Y36733250D01*
X46258635Y36168359D01*
X47359250Y35603469D01*
X47370566Y34539561D01*
X46063158Y35197341D01*
G36*
X41930000Y32574000D02*
G01*
X41930000Y30901833D01*
X40956333Y30901833D01*
X40956333Y33547666D01*
X47369833Y33547666D01*
X47369833Y32574000D01*
X41930000Y32574000D01*
G37*
X41930000Y32574000D02*
X41930000Y30901833D01*
X40956333Y30901833D01*
X40956333Y33547666D01*
X47369833Y33547666D01*
X47369833Y32574000D01*
X41930000Y32574000D01*
G36*
X44660500Y21419166D02*
G01*
X44660500Y20297333D01*
X47369833Y20297333D01*
X47369833Y19302500D01*
X40956333Y19302500D01*
X40956333Y20297333D01*
X43665666Y20297333D01*
X43665666Y21419166D01*
X40956333Y21419166D01*
X40956333Y22414000D01*
X47369833Y22414000D01*
X47369833Y21419166D01*
X44660500Y21419166D01*
G37*
X44660500Y21419166D02*
X44660500Y20297333D01*
X47369833Y20297333D01*
X47369833Y19302500D01*
X40956333Y19302500D01*
X40956333Y20297333D01*
X43665666Y20297333D01*
X43665666Y21419166D01*
X40956333Y21419166D01*
X40956333Y22414000D01*
X47369833Y22414000D01*
X47369833Y21419166D01*
X44660500Y21419166D01*
G36*
X46253291Y13566033D02*
G01*
X45136750Y13565732D01*
X46253291Y12992923D01*
X47369833Y12420114D01*
X47369833Y11363739D01*
X46060113Y12020536D01*
X45840943Y12130363D01*
X45632940Y12234436D01*
X45439183Y12331225D01*
X45262749Y12419198D01*
X45106718Y12496826D01*
X44974169Y12562578D01*
X44868180Y12614924D01*
X44791831Y12652334D01*
X44748199Y12673276D01*
X44738823Y12677333D01*
X44717996Y12669509D01*
X44660692Y12646768D01*
X44569620Y12610211D01*
X44447490Y12560935D01*
X44297010Y12500040D01*
X44120891Y12428624D01*
X43921841Y12347788D01*
X43702571Y12258629D01*
X43465789Y12162247D01*
X43214205Y12059741D01*
X42950530Y11952209D01*
X42860160Y11915333D01*
X42592877Y11806328D01*
X42336651Y11701984D01*
X42094203Y11603403D01*
X41868256Y11511683D01*
X41661533Y11427926D01*
X41476758Y11353231D01*
X41316652Y11288699D01*
X41183938Y11235429D01*
X41081339Y11194523D01*
X41011579Y11167080D01*
X40977379Y11154200D01*
X40974360Y11153333D01*
X40969501Y11173648D01*
X40965562Y11231201D01*
X40962660Y11320904D01*
X40960910Y11437669D01*
X40960429Y11576409D01*
X40961285Y11727312D01*
X40966916Y12301291D01*
X41940583Y12680411D01*
X42145634Y12760260D01*
X42349051Y12839486D01*
X42545331Y12915946D01*
X42728975Y12987497D01*
X42894480Y13051995D01*
X43036345Y13107296D01*
X43149070Y13151257D01*
X43219404Y13178707D01*
X43524558Y13297885D01*
X43261737Y13431009D01*
X42998916Y13564134D01*
X41977625Y13565233D01*
X40956333Y13566333D01*
X40956333Y14561166D01*
X47369833Y14561166D01*
X47369833Y13566333D01*
X46253291Y13566033D01*
G37*
X46253291Y13566033D02*
X45136750Y13565732D01*
X46253291Y12992923D01*
X47369833Y12420114D01*
X47369833Y11363739D01*
X46060113Y12020536D01*
X45840943Y12130363D01*
X45632940Y12234436D01*
X45439183Y12331225D01*
X45262749Y12419198D01*
X45106718Y12496826D01*
X44974169Y12562578D01*
X44868180Y12614924D01*
X44791831Y12652334D01*
X44748199Y12673276D01*
X44738823Y12677333D01*
X44717996Y12669509D01*
X44660692Y12646768D01*
X44569620Y12610211D01*
X44447490Y12560935D01*
X44297010Y12500040D01*
X44120891Y12428624D01*
X43921841Y12347788D01*
X43702571Y12258629D01*
X43465789Y12162247D01*
X43214205Y12059741D01*
X42950530Y11952209D01*
X42860160Y11915333D01*
X42592877Y11806328D01*
X42336651Y11701984D01*
X42094203Y11603403D01*
X41868256Y11511683D01*
X41661533Y11427926D01*
X41476758Y11353231D01*
X41316652Y11288699D01*
X41183938Y11235429D01*
X41081339Y11194523D01*
X41011579Y11167080D01*
X40977379Y11154200D01*
X40974360Y11153333D01*
X40969501Y11173648D01*
X40965562Y11231201D01*
X40962660Y11320904D01*
X40960910Y11437669D01*
X40960429Y11576409D01*
X40961285Y11727312D01*
X40966916Y12301291D01*
X41940583Y12680411D01*
X42145634Y12760260D01*
X42349051Y12839486D01*
X42545331Y12915946D01*
X42728975Y12987497D01*
X42894480Y13051995D01*
X43036345Y13107296D01*
X43149070Y13151257D01*
X43219404Y13178707D01*
X43524558Y13297885D01*
X43261737Y13431009D01*
X42998916Y13564134D01*
X41977625Y13565233D01*
X40956333Y13566333D01*
X40956333Y14561166D01*
X47369833Y14561166D01*
X47369833Y13566333D01*
X46253291Y13566033D01*
G36*
X37744282Y29794268D02*
G01*
X37717833Y29758833D01*
X37659355Y29721615D01*
X37596869Y29725649D01*
X37553210Y29749450D01*
X37518444Y29795557D01*
X37505717Y29858048D01*
X37516330Y29918480D01*
X37539044Y29950269D01*
X37583424Y29970074D01*
X37633166Y29976982D01*
X37633166Y29864666D01*
X37615744Y29856922D01*
X37619055Y29850555D01*
X37644175Y29848022D01*
X37647278Y29850555D01*
X37644372Y29863139D01*
X37633166Y29864666D01*
X37633166Y29976982D01*
X37637290Y29977555D01*
X37702343Y29960426D01*
X37744645Y29916602D01*
X37760018Y29857433D01*
X37744282Y29794268D01*
G37*
X37744282Y29794268D02*
X37717833Y29758833D01*
X37659355Y29721615D01*
X37596869Y29725649D01*
X37553210Y29749450D01*
X37518444Y29795557D01*
X37505717Y29858048D01*
X37516330Y29918480D01*
X37539044Y29950269D01*
X37583424Y29970074D01*
X37633166Y29976982D01*
X37633166Y29864666D01*
X37615744Y29856922D01*
X37619055Y29850555D01*
X37644175Y29848022D01*
X37647278Y29850555D01*
X37644372Y29863139D01*
X37633166Y29864666D01*
X37633166Y29976982D01*
X37637290Y29977555D01*
X37702343Y29960426D01*
X37744645Y29916602D01*
X37760018Y29857433D01*
X37744282Y29794268D01*
G36*
X37681219Y32299307D02*
G01*
X37643690Y32272926D01*
X37597300Y32275306D01*
X37555271Y32309145D01*
X37547772Y32321359D01*
X37539338Y32359585D01*
X37563519Y32398341D01*
X37569666Y32404666D01*
X37618758Y32431730D01*
X37663845Y32422516D01*
X37692446Y32382224D01*
X37696666Y32351750D01*
X37681219Y32299307D01*
G37*
X37681219Y32299307D02*
X37643690Y32272926D01*
X37597300Y32275306D01*
X37555271Y32309145D01*
X37547772Y32321359D01*
X37539338Y32359585D01*
X37563519Y32398341D01*
X37569666Y32404666D01*
X37618758Y32431730D01*
X37663845Y32422516D01*
X37692446Y32382224D01*
X37696666Y32351750D01*
X37681219Y32299307D01*
G36*
X37695167Y31724531D02*
G01*
X37658771Y31691903D01*
X37615868Y31689023D01*
X37574376Y31701896D01*
X37556259Y31736582D01*
X37552585Y31762566D01*
X37554867Y31814336D01*
X37578686Y31839454D01*
X37586645Y31842421D01*
X37648173Y31846064D01*
X37691488Y31820027D01*
X37708182Y31773444D01*
X37695167Y31724531D01*
G37*
X37695167Y31724531D02*
X37658771Y31691903D01*
X37615868Y31689023D01*
X37574376Y31701896D01*
X37556259Y31736582D01*
X37552585Y31762566D01*
X37554867Y31814336D01*
X37578686Y31839454D01*
X37586645Y31842421D01*
X37648173Y31846064D01*
X37691488Y31820027D01*
X37708182Y31773444D01*
X37695167Y31724531D01*
G36*
X37705219Y31147589D02*
G01*
X37672047Y31111540D01*
X37622096Y31099352D01*
X37579234Y31114343D01*
X37555712Y31153650D01*
X37548595Y31205092D01*
X37560771Y31245541D01*
X37562611Y31247555D01*
X37605054Y31265631D01*
X37652096Y31253905D01*
X37691093Y31221240D01*
X37709403Y31176498D01*
X37705219Y31147589D01*
G37*
X37705219Y31147589D02*
X37672047Y31111540D01*
X37622096Y31099352D01*
X37579234Y31114343D01*
X37555712Y31153650D01*
X37548595Y31205092D01*
X37560771Y31245541D01*
X37562611Y31247555D01*
X37605054Y31265631D01*
X37652096Y31253905D01*
X37691093Y31221240D01*
X37709403Y31176498D01*
X37705219Y31147589D01*
D11*
%TO.C,R6*%
X12727064Y21965000D02*
X12272936Y21965000D01*
X12727064Y23435000D02*
X12272936Y23435000D01*
%TO.C,R5*%
X12727064Y24215000D02*
X12272936Y24215000D01*
X12727064Y25685000D02*
X12272936Y25685000D01*
%TO.C,J1*%
X750000Y29700000D02*
X-1150000Y29700000D01*
X4650000Y29700000D02*
X2650000Y29700000D01*
X750000Y20300000D02*
X-1150000Y20300000D01*
X4650000Y20300000D02*
X2650000Y20300000D01*
X-1150000Y29700000D02*
X-1150000Y20300000D01*
%TO.C,Y1*%
X31575000Y11085000D02*
X31575000Y4835000D01*
X36625000Y11085000D02*
X36625000Y4835000D01*
X31575000Y4835000D02*
G75*
G03*
X36625000Y4835000I2525000J0D01*
G01*
X31575000Y11085000D02*
G75*
G02*
X36625000Y11085000I2525000J0D01*
G01*
%TO.C,U2*%
X17040000Y8000000D02*
X17040000Y4550000D01*
X17040000Y8000000D02*
X17040000Y9950000D01*
X27160000Y8000000D02*
X27160000Y6050000D01*
X27160000Y8000000D02*
X27160000Y9950000D01*
%TO.C,U1*%
X15300000Y43910000D02*
X21310000Y43910000D01*
X17550000Y37090000D02*
X21310000Y37090000D01*
X21310000Y43910000D02*
X21310000Y42650000D01*
X21310000Y37090000D02*
X21310000Y38350000D01*
%TO.C,R4*%
X31765000Y20172936D02*
X31765000Y20627064D01*
X33235000Y20172936D02*
X33235000Y20627064D01*
%TO.C,R3*%
X31035000Y20627064D02*
X31035000Y20172936D01*
X29565000Y20627064D02*
X29565000Y20172936D01*
%TO.C,R2*%
X12727064Y21235000D02*
X12272936Y21235000D01*
X12727064Y19765000D02*
X12272936Y19765000D01*
%TO.C,R1*%
X12727064Y27885000D02*
X12272936Y27885000D01*
X12727064Y26415000D02*
X12272936Y26415000D01*
%TO.C,Q2*%
X26040000Y20080000D02*
X26040000Y19150000D01*
X26040000Y16920000D02*
X26040000Y17850000D01*
X26040000Y16920000D02*
X28200000Y16920000D01*
X26040000Y20080000D02*
X27500000Y20080000D01*
%TO.C,Q1*%
X26040000Y23880000D02*
X26040000Y22950000D01*
X26040000Y20720000D02*
X26040000Y21650000D01*
X26040000Y20720000D02*
X28200000Y20720000D01*
X26040000Y23880000D02*
X27500000Y23880000D01*
%TO.C,D1*%
X10265000Y28515000D02*
X14150000Y28515000D01*
X10265000Y30785000D02*
X10265000Y28515000D01*
X14150000Y30785000D02*
X10265000Y30785000D01*
%TO.C,C6*%
X30035000Y5438748D02*
X30035000Y5961252D01*
X28565000Y5438748D02*
X28565000Y5961252D01*
%TO.C,C5*%
X28565000Y10461252D02*
X28565000Y9938748D01*
X30035000Y10461252D02*
X30035000Y9938748D01*
%TO.C,C4*%
X11865000Y10361252D02*
X11865000Y9838748D01*
X13335000Y10361252D02*
X13335000Y9838748D01*
%TO.C,C3*%
X14065000Y10361252D02*
X14065000Y9838748D01*
X15535000Y10361252D02*
X15535000Y9838748D01*
%TO.C,C2*%
X14335000Y39540000D02*
X14335000Y43450000D01*
X12465000Y39540000D02*
X14335000Y39540000D01*
X12465000Y43450000D02*
X12465000Y39540000D01*
%TO.C,C1*%
X11135000Y41238748D02*
X11135000Y41761252D01*
X9665000Y41238748D02*
X9665000Y41761252D01*
%TO.C,J2*%
D10*
X14624666Y34700620D02*
X14624666Y33986334D01*
X14577047Y33843477D01*
X14481809Y33748239D01*
X14338952Y33700620D01*
X14243714Y33700620D01*
X15053238Y34605381D02*
X15100857Y34653000D01*
X15196095Y34700620D01*
X15434190Y34700620D01*
X15529428Y34653000D01*
X15577047Y34605381D01*
X15624666Y34510143D01*
X15624666Y34414905D01*
X15577047Y34272048D01*
X15005619Y33700620D01*
X15624666Y33700620D01*
%TO.C,J3*%
X23766666Y37547620D02*
X23766666Y36833334D01*
X23719047Y36690477D01*
X23623809Y36595239D01*
X23480952Y36547620D01*
X23385714Y36547620D01*
X24147619Y37547620D02*
X24766666Y37547620D01*
X24433333Y37166667D01*
X24576190Y37166667D01*
X24671428Y37119048D01*
X24719047Y37071429D01*
X24766666Y36976191D01*
X24766666Y36738096D01*
X24719047Y36642858D01*
X24671428Y36595239D01*
X24576190Y36547620D01*
X24290476Y36547620D01*
X24195238Y36595239D01*
X24147619Y36642858D01*
%TO.C,R6*%
X9433333Y22247620D02*
X9100000Y22723810D01*
X8861904Y22247620D02*
X8861904Y23247620D01*
X9242857Y23247620D01*
X9338095Y23200000D01*
X9385714Y23152381D01*
X9433333Y23057143D01*
X9433333Y22914286D01*
X9385714Y22819048D01*
X9338095Y22771429D01*
X9242857Y22723810D01*
X8861904Y22723810D01*
X10290476Y23247620D02*
X10100000Y23247620D01*
X10004761Y23200000D01*
X9957142Y23152381D01*
X9861904Y23009524D01*
X9814285Y22819048D01*
X9814285Y22438096D01*
X9861904Y22342858D01*
X9909523Y22295239D01*
X10004761Y22247620D01*
X10195238Y22247620D01*
X10290476Y22295239D01*
X10338095Y22342858D01*
X10385714Y22438096D01*
X10385714Y22676191D01*
X10338095Y22771429D01*
X10290476Y22819048D01*
X10195238Y22866667D01*
X10004761Y22866667D01*
X9909523Y22819048D01*
X9861904Y22771429D01*
X9814285Y22676191D01*
%TO.C,R5*%
X9433333Y24497620D02*
X9100000Y24973810D01*
X8861904Y24497620D02*
X8861904Y25497620D01*
X9242857Y25497620D01*
X9338095Y25450000D01*
X9385714Y25402381D01*
X9433333Y25307143D01*
X9433333Y25164286D01*
X9385714Y25069048D01*
X9338095Y25021429D01*
X9242857Y24973810D01*
X8861904Y24973810D01*
X10338095Y25497620D02*
X9861904Y25497620D01*
X9814285Y25021429D01*
X9861904Y25069048D01*
X9957142Y25116667D01*
X10195238Y25116667D01*
X10290476Y25069048D01*
X10338095Y25021429D01*
X10385714Y24926191D01*
X10385714Y24688096D01*
X10338095Y24592858D01*
X10290476Y24545239D01*
X10195238Y24497620D01*
X9957142Y24497620D01*
X9861904Y24545239D01*
X9814285Y24592858D01*
%TO.C,J1*%
X2702380Y25666667D02*
X3416666Y25666667D01*
X3559523Y25619048D01*
X3654761Y25523810D01*
X3702380Y25380953D01*
X3702380Y25285715D01*
X3702380Y26666667D02*
X3702380Y26095239D01*
X3702380Y26380953D02*
X2702380Y26380953D01*
X2845238Y26285715D01*
X2940476Y26190477D01*
X2988095Y26095239D01*
%TO.C,Y1*%
X30623809Y3423810D02*
X30623809Y2947620D01*
X30290476Y3947620D02*
X30623809Y3423810D01*
X30957142Y3947620D01*
X31814285Y2947620D02*
X31242857Y2947620D01*
X31528571Y2947620D02*
X31528571Y3947620D01*
X31433333Y3804762D01*
X31338095Y3709524D01*
X31242857Y3661905D01*
%TO.C,U2*%
X17152380Y12338096D02*
X17961904Y12338096D01*
X18057142Y12385715D01*
X18104761Y12433334D01*
X18152380Y12528572D01*
X18152380Y12719048D01*
X18104761Y12814286D01*
X18057142Y12861905D01*
X17961904Y12909524D01*
X17152380Y12909524D01*
X17247619Y13338096D02*
X17200000Y13385715D01*
X17152380Y13480953D01*
X17152380Y13719048D01*
X17200000Y13814286D01*
X17247619Y13861905D01*
X17342857Y13909524D01*
X17438095Y13909524D01*
X17580952Y13861905D01*
X18152380Y13290477D01*
X18152380Y13909524D01*
%TO.C,U1*%
X18638095Y45547620D02*
X18638095Y44738096D01*
X18685714Y44642858D01*
X18733333Y44595239D01*
X18828571Y44547620D01*
X19019047Y44547620D01*
X19114285Y44595239D01*
X19161904Y44642858D01*
X19209523Y44738096D01*
X19209523Y45547620D01*
X20209523Y44547620D02*
X19638095Y44547620D01*
X19923809Y44547620D02*
X19923809Y45547620D01*
X19828571Y45404762D01*
X19733333Y45309524D01*
X19638095Y45261905D01*
%TO.C,R4*%
X32952380Y17145834D02*
X32476190Y16812500D01*
X32952380Y16574405D02*
X31952380Y16574405D01*
X31952380Y16955358D01*
X32000000Y17050596D01*
X32047619Y17098215D01*
X32142857Y17145834D01*
X32285714Y17145834D01*
X32380952Y17098215D01*
X32428571Y17050596D01*
X32476190Y16955358D01*
X32476190Y16574405D01*
X32285714Y18002977D02*
X32952380Y18002977D01*
X31904761Y17764881D02*
X32619047Y17526786D01*
X32619047Y18145834D01*
%TO.C,R3*%
X30752380Y17233334D02*
X30276190Y16900000D01*
X30752380Y16661905D02*
X29752380Y16661905D01*
X29752380Y17042858D01*
X29800000Y17138096D01*
X29847619Y17185715D01*
X29942857Y17233334D01*
X30085714Y17233334D01*
X30180952Y17185715D01*
X30228571Y17138096D01*
X30276190Y17042858D01*
X30276190Y16661905D01*
X29752380Y17566667D02*
X29752380Y18185715D01*
X30133333Y17852381D01*
X30133333Y17995239D01*
X30180952Y18090477D01*
X30228571Y18138096D01*
X30323809Y18185715D01*
X30561904Y18185715D01*
X30657142Y18138096D01*
X30704761Y18090477D01*
X30752380Y17995239D01*
X30752380Y17709524D01*
X30704761Y17614286D01*
X30657142Y17566667D01*
%TO.C,R2*%
X9433333Y20147620D02*
X9100000Y20623810D01*
X8861904Y20147620D02*
X8861904Y21147620D01*
X9242857Y21147620D01*
X9338095Y21100000D01*
X9385714Y21052381D01*
X9433333Y20957143D01*
X9433333Y20814286D01*
X9385714Y20719048D01*
X9338095Y20671429D01*
X9242857Y20623810D01*
X8861904Y20623810D01*
X9814285Y21052381D02*
X9861904Y21100000D01*
X9957142Y21147620D01*
X10195238Y21147620D01*
X10290476Y21100000D01*
X10338095Y21052381D01*
X10385714Y20957143D01*
X10385714Y20861905D01*
X10338095Y20719048D01*
X9766666Y20147620D01*
X10385714Y20147620D01*
%TO.C,R1*%
X9433333Y26647620D02*
X9100000Y27123810D01*
X8861904Y26647620D02*
X8861904Y27647620D01*
X9242857Y27647620D01*
X9338095Y27600000D01*
X9385714Y27552381D01*
X9433333Y27457143D01*
X9433333Y27314286D01*
X9385714Y27219048D01*
X9338095Y27171429D01*
X9242857Y27123810D01*
X8861904Y27123810D01*
X10385714Y26647620D02*
X9814285Y26647620D01*
X10100000Y26647620D02*
X10100000Y27647620D01*
X10004761Y27504762D01*
X9909523Y27409524D01*
X9814285Y27361905D01*
%TO.C,Q2*%
X27347619Y15404762D02*
X27300000Y15309524D01*
X27204761Y15214286D01*
X27061904Y15071429D01*
X27014285Y14976191D01*
X27014285Y14880953D01*
X27252380Y14928572D02*
X27204761Y14833334D01*
X27109523Y14738096D01*
X26919047Y14690477D01*
X26585714Y14690477D01*
X26395238Y14738096D01*
X26300000Y14833334D01*
X26252380Y14928572D01*
X26252380Y15119048D01*
X26300000Y15214286D01*
X26395238Y15309524D01*
X26585714Y15357143D01*
X26919047Y15357143D01*
X27109523Y15309524D01*
X27204761Y15214286D01*
X27252380Y15119048D01*
X27252380Y14928572D01*
X26347619Y15738096D02*
X26300000Y15785715D01*
X26252380Y15880953D01*
X26252380Y16119048D01*
X26300000Y16214286D01*
X26347619Y16261905D01*
X26442857Y16309524D01*
X26538095Y16309524D01*
X26680952Y16261905D01*
X27252380Y15690477D01*
X27252380Y16309524D01*
%TO.C,Q1*%
X27347619Y25204762D02*
X27300000Y25109524D01*
X27204761Y25014286D01*
X27061904Y24871429D01*
X27014285Y24776191D01*
X27014285Y24680953D01*
X27252380Y24728572D02*
X27204761Y24633334D01*
X27109523Y24538096D01*
X26919047Y24490477D01*
X26585714Y24490477D01*
X26395238Y24538096D01*
X26300000Y24633334D01*
X26252380Y24728572D01*
X26252380Y24919048D01*
X26300000Y25014286D01*
X26395238Y25109524D01*
X26585714Y25157143D01*
X26919047Y25157143D01*
X27109523Y25109524D01*
X27204761Y25014286D01*
X27252380Y24919048D01*
X27252380Y24728572D01*
X27252380Y26109524D02*
X27252380Y25538096D01*
X27252380Y25823810D02*
X26252380Y25823810D01*
X26395238Y25728572D01*
X26490476Y25633334D01*
X26538095Y25538096D01*
%TO.C,D1*%
X8311904Y29197620D02*
X8311904Y30197620D01*
X8550000Y30197620D01*
X8692857Y30150000D01*
X8788095Y30054762D01*
X8835714Y29959524D01*
X8883333Y29769048D01*
X8883333Y29626191D01*
X8835714Y29435715D01*
X8788095Y29340477D01*
X8692857Y29245239D01*
X8550000Y29197620D01*
X8311904Y29197620D01*
X9835714Y29197620D02*
X9264285Y29197620D01*
X9550000Y29197620D02*
X9550000Y30197620D01*
X9454761Y30054762D01*
X9359523Y29959524D01*
X9264285Y29911905D01*
%TO.C,C6*%
X29657142Y8533334D02*
X29704761Y8485715D01*
X29752380Y8342858D01*
X29752380Y8247620D01*
X29704761Y8104762D01*
X29609523Y8009524D01*
X29514285Y7961905D01*
X29323809Y7914286D01*
X29180952Y7914286D01*
X28990476Y7961905D01*
X28895238Y8009524D01*
X28800000Y8104762D01*
X28752380Y8247620D01*
X28752380Y8342858D01*
X28800000Y8485715D01*
X28847619Y8533334D01*
X28752380Y9390477D02*
X28752380Y9200000D01*
X28800000Y9104762D01*
X28847619Y9057143D01*
X28990476Y8961905D01*
X29180952Y8914286D01*
X29561904Y8914286D01*
X29657142Y8961905D01*
X29704761Y9009524D01*
X29752380Y9104762D01*
X29752380Y9295239D01*
X29704761Y9390477D01*
X29657142Y9438096D01*
X29561904Y9485715D01*
X29323809Y9485715D01*
X29228571Y9438096D01*
X29180952Y9390477D01*
X29133333Y9295239D01*
X29133333Y9104762D01*
X29180952Y9009524D01*
X29228571Y8961905D01*
X29323809Y8914286D01*
%TO.C,C5*%
X29657142Y13033334D02*
X29704761Y12985715D01*
X29752380Y12842858D01*
X29752380Y12747620D01*
X29704761Y12604762D01*
X29609523Y12509524D01*
X29514285Y12461905D01*
X29323809Y12414286D01*
X29180952Y12414286D01*
X28990476Y12461905D01*
X28895238Y12509524D01*
X28800000Y12604762D01*
X28752380Y12747620D01*
X28752380Y12842858D01*
X28800000Y12985715D01*
X28847619Y13033334D01*
X28752380Y13938096D02*
X28752380Y13461905D01*
X29228571Y13414286D01*
X29180952Y13461905D01*
X29133333Y13557143D01*
X29133333Y13795239D01*
X29180952Y13890477D01*
X29228571Y13938096D01*
X29323809Y13985715D01*
X29561904Y13985715D01*
X29657142Y13938096D01*
X29704761Y13890477D01*
X29752380Y13795239D01*
X29752380Y13557143D01*
X29704761Y13461905D01*
X29657142Y13414286D01*
%TO.C,C4*%
X12957142Y12983334D02*
X13004761Y12935715D01*
X13052380Y12792858D01*
X13052380Y12697620D01*
X13004761Y12554762D01*
X12909523Y12459524D01*
X12814285Y12411905D01*
X12623809Y12364286D01*
X12480952Y12364286D01*
X12290476Y12411905D01*
X12195238Y12459524D01*
X12100000Y12554762D01*
X12052380Y12697620D01*
X12052380Y12792858D01*
X12100000Y12935715D01*
X12147619Y12983334D01*
X12385714Y13840477D02*
X13052380Y13840477D01*
X12004761Y13602381D02*
X12719047Y13364286D01*
X12719047Y13983334D01*
%TO.C,C3*%
X15157142Y12933334D02*
X15204761Y12885715D01*
X15252380Y12742858D01*
X15252380Y12647620D01*
X15204761Y12504762D01*
X15109523Y12409524D01*
X15014285Y12361905D01*
X14823809Y12314286D01*
X14680952Y12314286D01*
X14490476Y12361905D01*
X14395238Y12409524D01*
X14300000Y12504762D01*
X14252380Y12647620D01*
X14252380Y12742858D01*
X14300000Y12885715D01*
X14347619Y12933334D01*
X14252380Y13266667D02*
X14252380Y13885715D01*
X14633333Y13552381D01*
X14633333Y13695239D01*
X14680952Y13790477D01*
X14728571Y13838096D01*
X14823809Y13885715D01*
X15061904Y13885715D01*
X15157142Y13838096D01*
X15204761Y13790477D01*
X15252380Y13695239D01*
X15252380Y13409524D01*
X15204761Y13314286D01*
X15157142Y13266667D01*
%TO.C,C2*%
X13757142Y37833334D02*
X13804761Y37785715D01*
X13852380Y37642858D01*
X13852380Y37547620D01*
X13804761Y37404762D01*
X13709523Y37309524D01*
X13614285Y37261905D01*
X13423809Y37214286D01*
X13280952Y37214286D01*
X13090476Y37261905D01*
X12995238Y37309524D01*
X12900000Y37404762D01*
X12852380Y37547620D01*
X12852380Y37642858D01*
X12900000Y37785715D01*
X12947619Y37833334D01*
X12947619Y38214286D02*
X12900000Y38261905D01*
X12852380Y38357143D01*
X12852380Y38595239D01*
X12900000Y38690477D01*
X12947619Y38738096D01*
X13042857Y38785715D01*
X13138095Y38785715D01*
X13280952Y38738096D01*
X13852380Y38166667D01*
X13852380Y38785715D01*
%TO.C,C1*%
X10757142Y37833334D02*
X10804761Y37785715D01*
X10852380Y37642858D01*
X10852380Y37547620D01*
X10804761Y37404762D01*
X10709523Y37309524D01*
X10614285Y37261905D01*
X10423809Y37214286D01*
X10280952Y37214286D01*
X10090476Y37261905D01*
X9995238Y37309524D01*
X9900000Y37404762D01*
X9852380Y37547620D01*
X9852380Y37642858D01*
X9900000Y37785715D01*
X9947619Y37833334D01*
X10852380Y38785715D02*
X10852380Y38214286D01*
X10852380Y38500000D02*
X9852380Y38500000D01*
X9995238Y38404762D01*
X10090476Y38309524D01*
X10138095Y38214286D01*
%TD*%
%LPC*%
D13*
%TO.C,J2*%
X17400000Y17380000D03*
X17400000Y22460000D03*
X17400000Y27540000D03*
D14*
X17400000Y32620000D03*
D13*
X17400000Y30080000D03*
X17400000Y25000000D03*
X17400000Y19920000D03*
%TD*%
D15*
%TO.C,J3*%
X34540000Y37000000D03*
X32000000Y37000000D03*
X29460000Y37000000D03*
D16*
X26920000Y37000000D03*
%TD*%
%TO.C,R6*%
G36*
G01*
X12100000Y23150002D02*
X12100000Y22249998D01*
G75*
G02*
X11850002Y22000000I-249998J0D01*
G01*
X11324998Y22000000D01*
G75*
G02*
X11075000Y22249998I0J249998D01*
G01*
X11075000Y23150002D01*
G75*
G02*
X11324998Y23400000I249998J0D01*
G01*
X11850002Y23400000D01*
G75*
G02*
X12100000Y23150002I0J-249998D01*
G01*
G37*
G36*
G01*
X13925000Y23150002D02*
X13925000Y22249998D01*
G75*
G02*
X13675002Y22000000I-249998J0D01*
G01*
X13149998Y22000000D01*
G75*
G02*
X12900000Y22249998I0J249998D01*
G01*
X12900000Y23150002D01*
G75*
G02*
X13149998Y23400000I249998J0D01*
G01*
X13675002Y23400000D01*
G75*
G02*
X13925000Y23150002I0J-249998D01*
G01*
G37*
%TD*%
%TO.C,R5*%
G36*
G01*
X12100000Y25400002D02*
X12100000Y24499998D01*
G75*
G02*
X11850002Y24250000I-249998J0D01*
G01*
X11324998Y24250000D01*
G75*
G02*
X11075000Y24499998I0J249998D01*
G01*
X11075000Y25400002D01*
G75*
G02*
X11324998Y25650000I249998J0D01*
G01*
X11850002Y25650000D01*
G75*
G02*
X12100000Y25400002I0J-249998D01*
G01*
G37*
G36*
G01*
X13925000Y25400002D02*
X13925000Y24499998D01*
G75*
G02*
X13675002Y24250000I-249998J0D01*
G01*
X13149998Y24250000D01*
G75*
G02*
X12900000Y24499998I0J249998D01*
G01*
X12900000Y25400002D01*
G75*
G02*
X13149998Y25650000I249998J0D01*
G01*
X13675002Y25650000D01*
G75*
G02*
X13925000Y25400002I0J-249998D01*
G01*
G37*
%TD*%
D17*
%TO.C,J1*%
X6795000Y21750000D03*
X6795000Y22550000D03*
X6795000Y27450000D03*
X6795000Y28250000D03*
X6795000Y28250000D03*
X6795000Y27450000D03*
X6795000Y22550000D03*
X6795000Y21750000D03*
D18*
X6795000Y26750000D03*
X6795000Y26250000D03*
X6795000Y25750000D03*
X6795000Y24750000D03*
X6795000Y24250000D03*
X6795000Y23750000D03*
X6795000Y23250000D03*
X6795000Y25250000D03*
D19*
X5880000Y20680000D03*
X5880000Y29320000D03*
D20*
X5350000Y27890000D03*
D21*
X1700000Y29320000D03*
D20*
X5350000Y22110000D03*
D21*
X1700000Y20680000D03*
%TD*%
D22*
%TO.C,REF\u002A\u002A*%
X45000000Y5000000D03*
%TD*%
%TO.C,REF\u002A\u002A*%
X5000000Y5000000D03*
%TD*%
%TO.C,REF\u002A\u002A*%
X45000000Y45000000D03*
%TD*%
%TO.C,REF\u002A\u002A*%
X5000000Y45000000D03*
%TD*%
D23*
%TO.C,Y1*%
X34100000Y5520000D03*
X34100000Y10400000D03*
%TD*%
%TO.C,U2*%
G36*
G01*
X17805000Y9500000D02*
X17505000Y9500000D01*
G75*
G02*
X17355000Y9650000I0J150000D01*
G01*
X17355000Y11300000D01*
G75*
G02*
X17505000Y11450000I150000J0D01*
G01*
X17805000Y11450000D01*
G75*
G02*
X17955000Y11300000I0J-150000D01*
G01*
X17955000Y9650000D01*
G75*
G02*
X17805000Y9500000I-150000J0D01*
G01*
G37*
G36*
G01*
X19075000Y9500000D02*
X18775000Y9500000D01*
G75*
G02*
X18625000Y9650000I0J150000D01*
G01*
X18625000Y11300000D01*
G75*
G02*
X18775000Y11450000I150000J0D01*
G01*
X19075000Y11450000D01*
G75*
G02*
X19225000Y11300000I0J-150000D01*
G01*
X19225000Y9650000D01*
G75*
G02*
X19075000Y9500000I-150000J0D01*
G01*
G37*
G36*
G01*
X20345000Y9500000D02*
X20045000Y9500000D01*
G75*
G02*
X19895000Y9650000I0J150000D01*
G01*
X19895000Y11300000D01*
G75*
G02*
X20045000Y11450000I150000J0D01*
G01*
X20345000Y11450000D01*
G75*
G02*
X20495000Y11300000I0J-150000D01*
G01*
X20495000Y9650000D01*
G75*
G02*
X20345000Y9500000I-150000J0D01*
G01*
G37*
G36*
G01*
X21615000Y9500000D02*
X21315000Y9500000D01*
G75*
G02*
X21165000Y9650000I0J150000D01*
G01*
X21165000Y11300000D01*
G75*
G02*
X21315000Y11450000I150000J0D01*
G01*
X21615000Y11450000D01*
G75*
G02*
X21765000Y11300000I0J-150000D01*
G01*
X21765000Y9650000D01*
G75*
G02*
X21615000Y9500000I-150000J0D01*
G01*
G37*
G36*
G01*
X22885000Y9500000D02*
X22585000Y9500000D01*
G75*
G02*
X22435000Y9650000I0J150000D01*
G01*
X22435000Y11300000D01*
G75*
G02*
X22585000Y11450000I150000J0D01*
G01*
X22885000Y11450000D01*
G75*
G02*
X23035000Y11300000I0J-150000D01*
G01*
X23035000Y9650000D01*
G75*
G02*
X22885000Y9500000I-150000J0D01*
G01*
G37*
G36*
G01*
X24155000Y9500000D02*
X23855000Y9500000D01*
G75*
G02*
X23705000Y9650000I0J150000D01*
G01*
X23705000Y11300000D01*
G75*
G02*
X23855000Y11450000I150000J0D01*
G01*
X24155000Y11450000D01*
G75*
G02*
X24305000Y11300000I0J-150000D01*
G01*
X24305000Y9650000D01*
G75*
G02*
X24155000Y9500000I-150000J0D01*
G01*
G37*
G36*
G01*
X25425000Y9500000D02*
X25125000Y9500000D01*
G75*
G02*
X24975000Y9650000I0J150000D01*
G01*
X24975000Y11300000D01*
G75*
G02*
X25125000Y11450000I150000J0D01*
G01*
X25425000Y11450000D01*
G75*
G02*
X25575000Y11300000I0J-150000D01*
G01*
X25575000Y9650000D01*
G75*
G02*
X25425000Y9500000I-150000J0D01*
G01*
G37*
G36*
G01*
X26695000Y9500000D02*
X26395000Y9500000D01*
G75*
G02*
X26245000Y9650000I0J150000D01*
G01*
X26245000Y11300000D01*
G75*
G02*
X26395000Y11450000I150000J0D01*
G01*
X26695000Y11450000D01*
G75*
G02*
X26845000Y11300000I0J-150000D01*
G01*
X26845000Y9650000D01*
G75*
G02*
X26695000Y9500000I-150000J0D01*
G01*
G37*
G36*
G01*
X26695000Y4550000D02*
X26395000Y4550000D01*
G75*
G02*
X26245000Y4700000I0J150000D01*
G01*
X26245000Y6350000D01*
G75*
G02*
X26395000Y6500000I150000J0D01*
G01*
X26695000Y6500000D01*
G75*
G02*
X26845000Y6350000I0J-150000D01*
G01*
X26845000Y4700000D01*
G75*
G02*
X26695000Y4550000I-150000J0D01*
G01*
G37*
G36*
G01*
X25425000Y4550000D02*
X25125000Y4550000D01*
G75*
G02*
X24975000Y4700000I0J150000D01*
G01*
X24975000Y6350000D01*
G75*
G02*
X25125000Y6500000I150000J0D01*
G01*
X25425000Y6500000D01*
G75*
G02*
X25575000Y6350000I0J-150000D01*
G01*
X25575000Y4700000D01*
G75*
G02*
X25425000Y4550000I-150000J0D01*
G01*
G37*
G36*
G01*
X24155000Y4550000D02*
X23855000Y4550000D01*
G75*
G02*
X23705000Y4700000I0J150000D01*
G01*
X23705000Y6350000D01*
G75*
G02*
X23855000Y6500000I150000J0D01*
G01*
X24155000Y6500000D01*
G75*
G02*
X24305000Y6350000I0J-150000D01*
G01*
X24305000Y4700000D01*
G75*
G02*
X24155000Y4550000I-150000J0D01*
G01*
G37*
G36*
G01*
X22885000Y4550000D02*
X22585000Y4550000D01*
G75*
G02*
X22435000Y4700000I0J150000D01*
G01*
X22435000Y6350000D01*
G75*
G02*
X22585000Y6500000I150000J0D01*
G01*
X22885000Y6500000D01*
G75*
G02*
X23035000Y6350000I0J-150000D01*
G01*
X23035000Y4700000D01*
G75*
G02*
X22885000Y4550000I-150000J0D01*
G01*
G37*
G36*
G01*
X21615000Y4550000D02*
X21315000Y4550000D01*
G75*
G02*
X21165000Y4700000I0J150000D01*
G01*
X21165000Y6350000D01*
G75*
G02*
X21315000Y6500000I150000J0D01*
G01*
X21615000Y6500000D01*
G75*
G02*
X21765000Y6350000I0J-150000D01*
G01*
X21765000Y4700000D01*
G75*
G02*
X21615000Y4550000I-150000J0D01*
G01*
G37*
G36*
G01*
X20345000Y4550000D02*
X20045000Y4550000D01*
G75*
G02*
X19895000Y4700000I0J150000D01*
G01*
X19895000Y6350000D01*
G75*
G02*
X20045000Y6500000I150000J0D01*
G01*
X20345000Y6500000D01*
G75*
G02*
X20495000Y6350000I0J-150000D01*
G01*
X20495000Y4700000D01*
G75*
G02*
X20345000Y4550000I-150000J0D01*
G01*
G37*
G36*
G01*
X19075000Y4550000D02*
X18775000Y4550000D01*
G75*
G02*
X18625000Y4700000I0J150000D01*
G01*
X18625000Y6350000D01*
G75*
G02*
X18775000Y6500000I150000J0D01*
G01*
X19075000Y6500000D01*
G75*
G02*
X19225000Y6350000I0J-150000D01*
G01*
X19225000Y4700000D01*
G75*
G02*
X19075000Y4550000I-150000J0D01*
G01*
G37*
G36*
G01*
X17805000Y4550000D02*
X17505000Y4550000D01*
G75*
G02*
X17355000Y4700000I0J150000D01*
G01*
X17355000Y6350000D01*
G75*
G02*
X17505000Y6500000I150000J0D01*
G01*
X17805000Y6500000D01*
G75*
G02*
X17955000Y6350000I0J-150000D01*
G01*
X17955000Y4700000D01*
G75*
G02*
X17805000Y4550000I-150000J0D01*
G01*
G37*
%TD*%
D24*
%TO.C,U1*%
X16250000Y42800000D03*
X16250000Y38200000D03*
X16250000Y40500000D03*
D25*
X22550000Y40500000D03*
%TD*%
%TO.C,R4*%
G36*
G01*
X32950002Y18975000D02*
X32049998Y18975000D01*
G75*
G02*
X31800000Y19224998I0J249998D01*
G01*
X31800000Y19750002D01*
G75*
G02*
X32049998Y20000000I249998J0D01*
G01*
X32950002Y20000000D01*
G75*
G02*
X33200000Y19750002I0J-249998D01*
G01*
X33200000Y19224998D01*
G75*
G02*
X32950002Y18975000I-249998J0D01*
G01*
G37*
G36*
G01*
X32950002Y20800000D02*
X32049998Y20800000D01*
G75*
G02*
X31800000Y21049998I0J249998D01*
G01*
X31800000Y21575002D01*
G75*
G02*
X32049998Y21825000I249998J0D01*
G01*
X32950002Y21825000D01*
G75*
G02*
X33200000Y21575002I0J-249998D01*
G01*
X33200000Y21049998D01*
G75*
G02*
X32950002Y20800000I-249998J0D01*
G01*
G37*
%TD*%
%TO.C,R3*%
G36*
G01*
X29849998Y21825000D02*
X30750002Y21825000D01*
G75*
G02*
X31000000Y21575002I0J-249998D01*
G01*
X31000000Y21049998D01*
G75*
G02*
X30750002Y20800000I-249998J0D01*
G01*
X29849998Y20800000D01*
G75*
G02*
X29600000Y21049998I0J249998D01*
G01*
X29600000Y21575002D01*
G75*
G02*
X29849998Y21825000I249998J0D01*
G01*
G37*
G36*
G01*
X29849998Y20000000D02*
X30750002Y20000000D01*
G75*
G02*
X31000000Y19750002I0J-249998D01*
G01*
X31000000Y19224998D01*
G75*
G02*
X30750002Y18975000I-249998J0D01*
G01*
X29849998Y18975000D01*
G75*
G02*
X29600000Y19224998I0J249998D01*
G01*
X29600000Y19750002D01*
G75*
G02*
X29849998Y20000000I249998J0D01*
G01*
G37*
%TD*%
%TO.C,R2*%
G36*
G01*
X12100000Y20950002D02*
X12100000Y20049998D01*
G75*
G02*
X11850002Y19800000I-249998J0D01*
G01*
X11324998Y19800000D01*
G75*
G02*
X11075000Y20049998I0J249998D01*
G01*
X11075000Y20950002D01*
G75*
G02*
X11324998Y21200000I249998J0D01*
G01*
X11850002Y21200000D01*
G75*
G02*
X12100000Y20950002I0J-249998D01*
G01*
G37*
G36*
G01*
X13925000Y20950002D02*
X13925000Y20049998D01*
G75*
G02*
X13675002Y19800000I-249998J0D01*
G01*
X13149998Y19800000D01*
G75*
G02*
X12900000Y20049998I0J249998D01*
G01*
X12900000Y20950002D01*
G75*
G02*
X13149998Y21200000I249998J0D01*
G01*
X13675002Y21200000D01*
G75*
G02*
X13925000Y20950002I0J-249998D01*
G01*
G37*
%TD*%
%TO.C,R1*%
G36*
G01*
X12100000Y27600002D02*
X12100000Y26699998D01*
G75*
G02*
X11850002Y26450000I-249998J0D01*
G01*
X11324998Y26450000D01*
G75*
G02*
X11075000Y26699998I0J249998D01*
G01*
X11075000Y27600002D01*
G75*
G02*
X11324998Y27850000I249998J0D01*
G01*
X11850002Y27850000D01*
G75*
G02*
X12100000Y27600002I0J-249998D01*
G01*
G37*
G36*
G01*
X13925000Y27600002D02*
X13925000Y26699998D01*
G75*
G02*
X13675002Y26450000I-249998J0D01*
G01*
X13149998Y26450000D01*
G75*
G02*
X12900000Y26699998I0J249998D01*
G01*
X12900000Y27600002D01*
G75*
G02*
X13149998Y27850000I249998J0D01*
G01*
X13675002Y27850000D01*
G75*
G02*
X13925000Y27600002I0J-249998D01*
G01*
G37*
%TD*%
D26*
%TO.C,Q2*%
X27800000Y17550000D03*
X27800000Y19450000D03*
X25800000Y18500000D03*
%TD*%
%TO.C,Q1*%
X27800000Y21350000D03*
X27800000Y23250000D03*
X25800000Y22300000D03*
%TD*%
%TO.C,D1*%
G36*
G01*
X13325000Y29025000D02*
X13325000Y30275000D01*
G75*
G02*
X13575000Y30525000I250000J0D01*
G01*
X14325000Y30525000D01*
G75*
G02*
X14575000Y30275000I0J-250000D01*
G01*
X14575000Y29025000D01*
G75*
G02*
X14325000Y28775000I-250000J0D01*
G01*
X13575000Y28775000D01*
G75*
G02*
X13325000Y29025000I0J250000D01*
G01*
G37*
G36*
G01*
X10525000Y29025000D02*
X10525000Y30275000D01*
G75*
G02*
X10775000Y30525000I250000J0D01*
G01*
X11525000Y30525000D01*
G75*
G02*
X11775000Y30275000I0J-250000D01*
G01*
X11775000Y29025000D01*
G75*
G02*
X11525000Y28775000I-250000J0D01*
G01*
X10775000Y28775000D01*
G75*
G02*
X10525000Y29025000I0J250000D01*
G01*
G37*
%TD*%
%TO.C,C6*%
G36*
G01*
X29775000Y6150000D02*
X28825000Y6150000D01*
G75*
G02*
X28575000Y6400000I0J250000D01*
G01*
X28575000Y6900000D01*
G75*
G02*
X28825000Y7150000I250000J0D01*
G01*
X29775000Y7150000D01*
G75*
G02*
X30025000Y6900000I0J-250000D01*
G01*
X30025000Y6400000D01*
G75*
G02*
X29775000Y6150000I-250000J0D01*
G01*
G37*
G36*
G01*
X29775000Y4250000D02*
X28825000Y4250000D01*
G75*
G02*
X28575000Y4500000I0J250000D01*
G01*
X28575000Y5000000D01*
G75*
G02*
X28825000Y5250000I250000J0D01*
G01*
X29775000Y5250000D01*
G75*
G02*
X30025000Y5000000I0J-250000D01*
G01*
X30025000Y4500000D01*
G75*
G02*
X29775000Y4250000I-250000J0D01*
G01*
G37*
%TD*%
%TO.C,C5*%
G36*
G01*
X28825000Y9750000D02*
X29775000Y9750000D01*
G75*
G02*
X30025000Y9500000I0J-250000D01*
G01*
X30025000Y9000000D01*
G75*
G02*
X29775000Y8750000I-250000J0D01*
G01*
X28825000Y8750000D01*
G75*
G02*
X28575000Y9000000I0J250000D01*
G01*
X28575000Y9500000D01*
G75*
G02*
X28825000Y9750000I250000J0D01*
G01*
G37*
G36*
G01*
X28825000Y11650000D02*
X29775000Y11650000D01*
G75*
G02*
X30025000Y11400000I0J-250000D01*
G01*
X30025000Y10900000D01*
G75*
G02*
X29775000Y10650000I-250000J0D01*
G01*
X28825000Y10650000D01*
G75*
G02*
X28575000Y10900000I0J250000D01*
G01*
X28575000Y11400000D01*
G75*
G02*
X28825000Y11650000I250000J0D01*
G01*
G37*
%TD*%
%TO.C,C4*%
G36*
G01*
X12125000Y9650000D02*
X13075000Y9650000D01*
G75*
G02*
X13325000Y9400000I0J-250000D01*
G01*
X13325000Y8900000D01*
G75*
G02*
X13075000Y8650000I-250000J0D01*
G01*
X12125000Y8650000D01*
G75*
G02*
X11875000Y8900000I0J250000D01*
G01*
X11875000Y9400000D01*
G75*
G02*
X12125000Y9650000I250000J0D01*
G01*
G37*
G36*
G01*
X12125000Y11550000D02*
X13075000Y11550000D01*
G75*
G02*
X13325000Y11300000I0J-250000D01*
G01*
X13325000Y10800000D01*
G75*
G02*
X13075000Y10550000I-250000J0D01*
G01*
X12125000Y10550000D01*
G75*
G02*
X11875000Y10800000I0J250000D01*
G01*
X11875000Y11300000D01*
G75*
G02*
X12125000Y11550000I250000J0D01*
G01*
G37*
%TD*%
%TO.C,C3*%
G36*
G01*
X14325000Y9650000D02*
X15275000Y9650000D01*
G75*
G02*
X15525000Y9400000I0J-250000D01*
G01*
X15525000Y8900000D01*
G75*
G02*
X15275000Y8650000I-250000J0D01*
G01*
X14325000Y8650000D01*
G75*
G02*
X14075000Y8900000I0J250000D01*
G01*
X14075000Y9400000D01*
G75*
G02*
X14325000Y9650000I250000J0D01*
G01*
G37*
G36*
G01*
X14325000Y11550000D02*
X15275000Y11550000D01*
G75*
G02*
X15525000Y11300000I0J-250000D01*
G01*
X15525000Y10800000D01*
G75*
G02*
X15275000Y10550000I-250000J0D01*
G01*
X14325000Y10550000D01*
G75*
G02*
X14075000Y10800000I0J250000D01*
G01*
X14075000Y11300000D01*
G75*
G02*
X14325000Y11550000I250000J0D01*
G01*
G37*
%TD*%
%TO.C,C2*%
G36*
G01*
X13825001Y42500000D02*
X12974999Y42500000D01*
G75*
G02*
X12725000Y42749999I0J249999D01*
G01*
X12725000Y43650001D01*
G75*
G02*
X12974999Y43900000I249999J0D01*
G01*
X13825001Y43900000D01*
G75*
G02*
X14075000Y43650001I0J-249999D01*
G01*
X14075000Y42749999D01*
G75*
G02*
X13825001Y42500000I-249999J0D01*
G01*
G37*
G36*
G01*
X13825001Y39800000D02*
X12974999Y39800000D01*
G75*
G02*
X12725000Y40049999I0J249999D01*
G01*
X12725000Y40950001D01*
G75*
G02*
X12974999Y41200000I249999J0D01*
G01*
X13825001Y41200000D01*
G75*
G02*
X14075000Y40950001I0J-249999D01*
G01*
X14075000Y40049999D01*
G75*
G02*
X13825001Y39800000I-249999J0D01*
G01*
G37*
%TD*%
%TO.C,C1*%
G36*
G01*
X10875000Y41950000D02*
X9925000Y41950000D01*
G75*
G02*
X9675000Y42200000I0J250000D01*
G01*
X9675000Y42700000D01*
G75*
G02*
X9925000Y42950000I250000J0D01*
G01*
X10875000Y42950000D01*
G75*
G02*
X11125000Y42700000I0J-250000D01*
G01*
X11125000Y42200000D01*
G75*
G02*
X10875000Y41950000I-250000J0D01*
G01*
G37*
G36*
G01*
X10875000Y40050000D02*
X9925000Y40050000D01*
G75*
G02*
X9675000Y40300000I0J250000D01*
G01*
X9675000Y40800000D01*
G75*
G02*
X9925000Y41050000I250000J0D01*
G01*
X10875000Y41050000D01*
G75*
G02*
X11125000Y40800000I0J-250000D01*
G01*
X11125000Y40300000D01*
G75*
G02*
X10875000Y40050000I-250000J0D01*
G01*
G37*
%TD*%
M02*
