%TF.GenerationSoftware,KiCad,Pcbnew,(5.1.9)-1*%
%TF.CreationDate,2021-09-09T22:45:53+02:00*%
%TF.ProjectId,programmer,70726f67-7261-46d6-9d65-722e6b696361,rev?*%
%TF.SameCoordinates,PX1c9c380PY4c4b400*%
%TF.FileFunction,Legend,Bot*%
%TF.FilePolarity,Positive*%
%FSLAX46Y46*%
G04 Gerber Fmt 4.6, Leading zero omitted, Abs format (unit mm)*
G04 Created by KiCad (PCBNEW (5.1.9)-1) date 2021-09-09 22:45:53*
%MOMM*%
%LPD*%
G01*
G04 APERTURE LIST*
%ADD10C,0.150000*%
%ADD11C,0.010000*%
%ADD12O,3.000000X1.700000*%
%ADD13R,3.000000X1.700000*%
%ADD14O,1.700000X1.700000*%
%ADD15R,1.700000X1.700000*%
%ADD16O,2.100000X1.000000*%
%ADD17C,0.650000*%
%ADD18O,1.600000X1.000000*%
%ADD19C,3.200000*%
%ADD20C,1.500000*%
G04 APERTURE END LIST*
D10*
X9697619Y32935596D02*
X10697619Y32935596D01*
X10697619Y33316548D01*
X10650000Y33411786D01*
X10602380Y33459405D01*
X10507142Y33507024D01*
X10364285Y33507024D01*
X10269047Y33459405D01*
X10221428Y33411786D01*
X10173809Y33316548D01*
X10173809Y32935596D01*
X9697619Y33935596D02*
X10364285Y33935596D01*
X10173809Y33935596D02*
X10269047Y33983215D01*
X10316666Y34030834D01*
X10364285Y34126072D01*
X10364285Y34221310D01*
X9697619Y34697500D02*
X9745238Y34602262D01*
X9792857Y34554643D01*
X9888095Y34507024D01*
X10173809Y34507024D01*
X10269047Y34554643D01*
X10316666Y34602262D01*
X10364285Y34697500D01*
X10364285Y34840358D01*
X10316666Y34935596D01*
X10269047Y34983215D01*
X10173809Y35030834D01*
X9888095Y35030834D01*
X9792857Y34983215D01*
X9745238Y34935596D01*
X9697619Y34840358D01*
X9697619Y34697500D01*
X10364285Y35887977D02*
X9554761Y35887977D01*
X9459523Y35840358D01*
X9411904Y35792739D01*
X9364285Y35697500D01*
X9364285Y35554643D01*
X9411904Y35459405D01*
X9745238Y35887977D02*
X9697619Y35792739D01*
X9697619Y35602262D01*
X9745238Y35507024D01*
X9792857Y35459405D01*
X9888095Y35411786D01*
X10173809Y35411786D01*
X10269047Y35459405D01*
X10316666Y35507024D01*
X10364285Y35602262D01*
X10364285Y35792739D01*
X10316666Y35887977D01*
X9697619Y36364167D02*
X10364285Y36364167D01*
X10173809Y36364167D02*
X10269047Y36411786D01*
X10316666Y36459405D01*
X10364285Y36554643D01*
X10364285Y36649881D01*
X9697619Y37411786D02*
X10221428Y37411786D01*
X10316666Y37364167D01*
X10364285Y37268929D01*
X10364285Y37078453D01*
X10316666Y36983215D01*
X9745238Y37411786D02*
X9697619Y37316548D01*
X9697619Y37078453D01*
X9745238Y36983215D01*
X9840476Y36935596D01*
X9935714Y36935596D01*
X10030952Y36983215D01*
X10078571Y37078453D01*
X10078571Y37316548D01*
X10126190Y37411786D01*
X9697619Y37887977D02*
X10364285Y37887977D01*
X10269047Y37887977D02*
X10316666Y37935596D01*
X10364285Y38030834D01*
X10364285Y38173691D01*
X10316666Y38268929D01*
X10221428Y38316548D01*
X9697619Y38316548D01*
X10221428Y38316548D02*
X10316666Y38364167D01*
X10364285Y38459405D01*
X10364285Y38602262D01*
X10316666Y38697500D01*
X10221428Y38745120D01*
X9697619Y38745120D01*
X9697619Y39221310D02*
X10364285Y39221310D01*
X10269047Y39221310D02*
X10316666Y39268929D01*
X10364285Y39364167D01*
X10364285Y39507024D01*
X10316666Y39602262D01*
X10221428Y39649881D01*
X9697619Y39649881D01*
X10221428Y39649881D02*
X10316666Y39697500D01*
X10364285Y39792739D01*
X10364285Y39935596D01*
X10316666Y40030834D01*
X10221428Y40078453D01*
X9697619Y40078453D01*
X9745238Y40935596D02*
X9697619Y40840358D01*
X9697619Y40649881D01*
X9745238Y40554643D01*
X9840476Y40507024D01*
X10221428Y40507024D01*
X10316666Y40554643D01*
X10364285Y40649881D01*
X10364285Y40840358D01*
X10316666Y40935596D01*
X10221428Y40983215D01*
X10126190Y40983215D01*
X10030952Y40507024D01*
X9697619Y41411786D02*
X10364285Y41411786D01*
X10173809Y41411786D02*
X10269047Y41459405D01*
X10316666Y41507024D01*
X10364285Y41602262D01*
X10364285Y41697500D01*
X10697619Y42649881D02*
X9697619Y42983215D01*
X10697619Y43316548D01*
X9697619Y44173691D02*
X9697619Y43602262D01*
X9697619Y43887977D02*
X10697619Y43887977D01*
X10554761Y43792739D01*
X10459523Y43697500D01*
X10411904Y43602262D01*
X9792857Y44602262D02*
X9745238Y44649881D01*
X9697619Y44602262D01*
X9745238Y44554643D01*
X9792857Y44602262D01*
X9697619Y44602262D01*
X10697619Y45268929D02*
X10697619Y45364167D01*
X10650000Y45459405D01*
X10602380Y45507024D01*
X10507142Y45554643D01*
X10316666Y45602262D01*
X10078571Y45602262D01*
X9888095Y45554643D01*
X9792857Y45507024D01*
X9745238Y45459405D01*
X9697619Y45364167D01*
X9697619Y45268929D01*
X9745238Y45173691D01*
X9792857Y45126072D01*
X9888095Y45078453D01*
X10078571Y45030834D01*
X10316666Y45030834D01*
X10507142Y45078453D01*
X10602380Y45126072D01*
X10650000Y45173691D01*
X10697619Y45268929D01*
X8571428Y33268929D02*
X8523809Y33411786D01*
X8476190Y33459405D01*
X8380952Y33507024D01*
X8238095Y33507024D01*
X8142857Y33459405D01*
X8095238Y33411786D01*
X8047619Y33316548D01*
X8047619Y32935596D01*
X9047619Y32935596D01*
X9047619Y33268929D01*
X9000000Y33364167D01*
X8952380Y33411786D01*
X8857142Y33459405D01*
X8761904Y33459405D01*
X8666666Y33411786D01*
X8619047Y33364167D01*
X8571428Y33268929D01*
X8571428Y32935596D01*
X8142857Y33935596D02*
X8095238Y33983215D01*
X8047619Y33935596D01*
X8095238Y33887977D01*
X8142857Y33935596D01*
X8047619Y33935596D01*
X8047619Y35602262D02*
X9047619Y35602262D01*
X8095238Y35602262D02*
X8047619Y35507024D01*
X8047619Y35316548D01*
X8095238Y35221310D01*
X8142857Y35173691D01*
X8238095Y35126072D01*
X8523809Y35126072D01*
X8619047Y35173691D01*
X8666666Y35221310D01*
X8714285Y35316548D01*
X8714285Y35507024D01*
X8666666Y35602262D01*
X8095238Y36459405D02*
X8047619Y36364167D01*
X8047619Y36173691D01*
X8095238Y36078453D01*
X8190476Y36030834D01*
X8571428Y36030834D01*
X8666666Y36078453D01*
X8714285Y36173691D01*
X8714285Y36364167D01*
X8666666Y36459405D01*
X8571428Y36507024D01*
X8476190Y36507024D01*
X8380952Y36030834D01*
X8714285Y36935596D02*
X8047619Y36935596D01*
X8619047Y36935596D02*
X8666666Y36983215D01*
X8714285Y37078453D01*
X8714285Y37221310D01*
X8666666Y37316548D01*
X8571428Y37364167D01*
X8047619Y37364167D01*
X9047619Y38792739D02*
X9047619Y38983215D01*
X9000000Y39078453D01*
X8904761Y39173691D01*
X8714285Y39221310D01*
X8380952Y39221310D01*
X8190476Y39173691D01*
X8095238Y39078453D01*
X8047619Y38983215D01*
X8047619Y38792739D01*
X8095238Y38697500D01*
X8190476Y38602262D01*
X8380952Y38554643D01*
X8714285Y38554643D01*
X8904761Y38602262D01*
X9000000Y38697500D01*
X9047619Y38792739D01*
X8714285Y40078453D02*
X8047619Y40078453D01*
X8714285Y39649881D02*
X8190476Y39649881D01*
X8095238Y39697500D01*
X8047619Y39792739D01*
X8047619Y39935596D01*
X8095238Y40030834D01*
X8142857Y40078453D01*
X8047619Y40983215D02*
X9047619Y40983215D01*
X8095238Y40983215D02*
X8047619Y40887977D01*
X8047619Y40697500D01*
X8095238Y40602262D01*
X8142857Y40554643D01*
X8238095Y40507024D01*
X8523809Y40507024D01*
X8619047Y40554643D01*
X8666666Y40602262D01*
X8714285Y40697500D01*
X8714285Y40887977D01*
X8666666Y40983215D01*
X8095238Y41840358D02*
X8047619Y41745120D01*
X8047619Y41554643D01*
X8095238Y41459405D01*
X8190476Y41411786D01*
X8571428Y41411786D01*
X8666666Y41459405D01*
X8714285Y41554643D01*
X8714285Y41745120D01*
X8666666Y41840358D01*
X8571428Y41887977D01*
X8476190Y41887977D01*
X8380952Y41411786D01*
X8714285Y42316548D02*
X8047619Y42316548D01*
X8619047Y42316548D02*
X8666666Y42364167D01*
X8714285Y42459405D01*
X8714285Y42602262D01*
X8666666Y42697500D01*
X8571428Y42745120D01*
X8047619Y42745120D01*
X7397619Y33126072D02*
X7397619Y33221310D01*
X7350000Y33316548D01*
X7302380Y33364167D01*
X7207142Y33411786D01*
X7016666Y33459405D01*
X6778571Y33459405D01*
X6588095Y33411786D01*
X6492857Y33364167D01*
X6445238Y33316548D01*
X6397619Y33221310D01*
X6397619Y33126072D01*
X6445238Y33030834D01*
X6492857Y32983215D01*
X6588095Y32935596D01*
X6778571Y32887977D01*
X7016666Y32887977D01*
X7207142Y32935596D01*
X7302380Y32983215D01*
X7350000Y33030834D01*
X7397619Y33126072D01*
X6397619Y33935596D02*
X6397619Y34126072D01*
X6445238Y34221310D01*
X6492857Y34268929D01*
X6635714Y34364167D01*
X6826190Y34411786D01*
X7207142Y34411786D01*
X7302380Y34364167D01*
X7350000Y34316548D01*
X7397619Y34221310D01*
X7397619Y34030834D01*
X7350000Y33935596D01*
X7302380Y33887977D01*
X7207142Y33840358D01*
X6969047Y33840358D01*
X6873809Y33887977D01*
X6826190Y33935596D01*
X6778571Y34030834D01*
X6778571Y34221310D01*
X6826190Y34316548D01*
X6873809Y34364167D01*
X6969047Y34411786D01*
X6778571Y35602262D02*
X6778571Y36364167D01*
X7302380Y37554643D02*
X7350000Y37602262D01*
X7397619Y37697500D01*
X7397619Y37935596D01*
X7350000Y38030834D01*
X7302380Y38078453D01*
X7207142Y38126072D01*
X7111904Y38126072D01*
X6969047Y38078453D01*
X6397619Y37507024D01*
X6397619Y38126072D01*
X7397619Y38745120D02*
X7397619Y38840358D01*
X7350000Y38935596D01*
X7302380Y38983215D01*
X7207142Y39030834D01*
X7016666Y39078453D01*
X6778571Y39078453D01*
X6588095Y39030834D01*
X6492857Y38983215D01*
X6445238Y38935596D01*
X6397619Y38840358D01*
X6397619Y38745120D01*
X6445238Y38649881D01*
X6492857Y38602262D01*
X6588095Y38554643D01*
X6778571Y38507024D01*
X7016666Y38507024D01*
X7207142Y38554643D01*
X7302380Y38602262D01*
X7350000Y38649881D01*
X7397619Y38745120D01*
X7302380Y39459405D02*
X7350000Y39507024D01*
X7397619Y39602262D01*
X7397619Y39840358D01*
X7350000Y39935596D01*
X7302380Y39983215D01*
X7207142Y40030834D01*
X7111904Y40030834D01*
X6969047Y39983215D01*
X6397619Y39411786D01*
X6397619Y40030834D01*
X6397619Y40983215D02*
X6397619Y40411786D01*
X6397619Y40697500D02*
X7397619Y40697500D01*
X7254761Y40602262D01*
X7159523Y40507024D01*
X7111904Y40411786D01*
D11*
%TO.C,REF\u002A\u002A*%
G36*
X37231000Y27726834D02*
G01*
X37231000Y26862283D01*
X37151625Y26837143D01*
X37087795Y26814434D01*
X37006597Y26782288D01*
X36949071Y26757868D01*
X36825893Y26703733D01*
X36520339Y27008741D01*
X36214785Y27313750D01*
X35744101Y26843066D01*
X35273417Y26372381D01*
X35576801Y26068455D01*
X35880185Y25764528D01*
X35828232Y25660889D01*
X35792563Y25584273D01*
X35761250Y25507958D01*
X35750581Y25477875D01*
X35724883Y25398500D01*
X34860333Y25398500D01*
X34860333Y24065000D01*
X35275065Y24065000D01*
X35418047Y24064717D01*
X35524283Y24063540D01*
X35599357Y24060977D01*
X35648853Y24056536D01*
X35678357Y24049724D01*
X35693453Y24040049D01*
X35699581Y24027585D01*
X35711838Y23991481D01*
X35735928Y23928028D01*
X35767364Y23848939D01*
X35778664Y23821210D01*
X35847963Y23652250D01*
X35253273Y23049810D01*
X35707678Y22589030D01*
X35821501Y22474107D01*
X35926266Y22369278D01*
X36018170Y22278275D01*
X36093408Y22204828D01*
X36148179Y22152669D01*
X36178678Y22125528D01*
X36183250Y22122507D01*
X36204125Y22135016D01*
X36249598Y22173262D01*
X36314693Y22232694D01*
X36394431Y22308763D01*
X36483835Y22396917D01*
X36488430Y22401520D01*
X36772444Y22686277D01*
X36869430Y22637520D01*
X36945300Y22602452D01*
X37036571Y22564465D01*
X37094081Y22542566D01*
X37221745Y22496369D01*
X37213280Y22084768D01*
X37204816Y21673167D01*
X37908333Y21673167D01*
X37908333Y23323360D01*
X37860708Y23333068D01*
X37812305Y23341050D01*
X37741876Y23350602D01*
X37700310Y23355585D01*
X37499920Y23398782D01*
X37304500Y23479574D01*
X37119911Y23593231D01*
X36952009Y23735023D01*
X36806653Y23900221D01*
X36689701Y24084096D01*
X36627857Y24221428D01*
X36564296Y24447429D01*
X36542027Y24674166D01*
X36560227Y24898079D01*
X36618074Y25115610D01*
X36714745Y25323199D01*
X36849417Y25517288D01*
X36953820Y25631444D01*
X37125948Y25777553D01*
X37313432Y25888943D01*
X37521746Y25968134D01*
X37756364Y26017643D01*
X37807791Y26024306D01*
X37908333Y26036094D01*
X37908333Y26783260D01*
X37908711Y26961593D01*
X37909785Y27130327D01*
X37911464Y27283817D01*
X37913660Y27416423D01*
X37916281Y27522502D01*
X37919240Y27596414D01*
X37921794Y27628629D01*
X37935254Y27726834D01*
X37231000Y27726834D01*
G37*
X37231000Y27726834D02*
X37231000Y26862283D01*
X37151625Y26837143D01*
X37087795Y26814434D01*
X37006597Y26782288D01*
X36949071Y26757868D01*
X36825893Y26703733D01*
X36520339Y27008741D01*
X36214785Y27313750D01*
X35744101Y26843066D01*
X35273417Y26372381D01*
X35576801Y26068455D01*
X35880185Y25764528D01*
X35828232Y25660889D01*
X35792563Y25584273D01*
X35761250Y25507958D01*
X35750581Y25477875D01*
X35724883Y25398500D01*
X34860333Y25398500D01*
X34860333Y24065000D01*
X35275065Y24065000D01*
X35418047Y24064717D01*
X35524283Y24063540D01*
X35599357Y24060977D01*
X35648853Y24056536D01*
X35678357Y24049724D01*
X35693453Y24040049D01*
X35699581Y24027585D01*
X35711838Y23991481D01*
X35735928Y23928028D01*
X35767364Y23848939D01*
X35778664Y23821210D01*
X35847963Y23652250D01*
X35253273Y23049810D01*
X35707678Y22589030D01*
X35821501Y22474107D01*
X35926266Y22369278D01*
X36018170Y22278275D01*
X36093408Y22204828D01*
X36148179Y22152669D01*
X36178678Y22125528D01*
X36183250Y22122507D01*
X36204125Y22135016D01*
X36249598Y22173262D01*
X36314693Y22232694D01*
X36394431Y22308763D01*
X36483835Y22396917D01*
X36488430Y22401520D01*
X36772444Y22686277D01*
X36869430Y22637520D01*
X36945300Y22602452D01*
X37036571Y22564465D01*
X37094081Y22542566D01*
X37221745Y22496369D01*
X37213280Y22084768D01*
X37204816Y21673167D01*
X37908333Y21673167D01*
X37908333Y23323360D01*
X37860708Y23333068D01*
X37812305Y23341050D01*
X37741876Y23350602D01*
X37700310Y23355585D01*
X37499920Y23398782D01*
X37304500Y23479574D01*
X37119911Y23593231D01*
X36952009Y23735023D01*
X36806653Y23900221D01*
X36689701Y24084096D01*
X36627857Y24221428D01*
X36564296Y24447429D01*
X36542027Y24674166D01*
X36560227Y24898079D01*
X36618074Y25115610D01*
X36714745Y25323199D01*
X36849417Y25517288D01*
X36953820Y25631444D01*
X37125948Y25777553D01*
X37313432Y25888943D01*
X37521746Y25968134D01*
X37756364Y26017643D01*
X37807791Y26024306D01*
X37908333Y26036094D01*
X37908333Y26783260D01*
X37908711Y26961593D01*
X37909785Y27130327D01*
X37911464Y27283817D01*
X37913660Y27416423D01*
X37916281Y27522502D01*
X37919240Y27596414D01*
X37921794Y27628629D01*
X37935254Y27726834D01*
X37231000Y27726834D01*
G36*
X38395166Y32884115D02*
G01*
X38393451Y33014929D01*
X38387260Y33109064D01*
X38375030Y33172070D01*
X38355196Y33209501D01*
X38326194Y33226910D01*
X38297660Y33230167D01*
X38239015Y33248666D01*
X38183211Y33296199D01*
X38143708Y33360821D01*
X38140570Y33369557D01*
X38126501Y33467090D01*
X38153020Y33553741D01*
X38220678Y33631282D01*
X38222182Y33632527D01*
X38299916Y33696598D01*
X38313834Y34040174D01*
X38317785Y34163480D01*
X38321096Y34318555D01*
X38323767Y34499585D01*
X38325802Y34700761D01*
X38327203Y34916270D01*
X38327973Y35140300D01*
X38328114Y35367039D01*
X38327628Y35590676D01*
X38326517Y35805399D01*
X38324785Y36005396D01*
X38322434Y36184855D01*
X38319465Y36337965D01*
X38315882Y36458914D01*
X38312795Y36524988D01*
X38305422Y36639904D01*
X38297931Y36722122D01*
X38288191Y36781230D01*
X38274070Y36826816D01*
X38253437Y36868466D01*
X38226833Y36911609D01*
X38112426Y37056923D01*
X37980249Y37165570D01*
X37832663Y37236250D01*
X37672030Y37267661D01*
X37580250Y37267809D01*
X37415151Y37237182D01*
X37265782Y37167465D01*
X37132866Y37059156D01*
X37017130Y36912752D01*
X36985311Y36860506D01*
X36964170Y36822208D01*
X36948347Y36786751D01*
X36936788Y36746995D01*
X36928440Y36695797D01*
X36922248Y36626016D01*
X36917157Y36530512D01*
X36912115Y36402142D01*
X36910323Y36352506D01*
X36905868Y36200557D01*
X36902133Y36017753D01*
X36899128Y35810826D01*
X36896866Y35586507D01*
X36895358Y35351528D01*
X36894615Y35112619D01*
X36894649Y34876513D01*
X36895472Y34649939D01*
X36897094Y34439630D01*
X36899527Y34252316D01*
X36902783Y34094728D01*
X36906301Y33986875D01*
X36911870Y33861053D01*
X36917126Y33771461D01*
X36923048Y33712017D01*
X36930620Y33676637D01*
X36940824Y33659239D01*
X36954640Y33653740D01*
X36960109Y33653500D01*
X37001812Y33639241D01*
X37048912Y33604609D01*
X37052045Y33601546D01*
X37095858Y33530214D01*
X37107616Y33445079D01*
X37087747Y33359488D01*
X37042128Y33292039D01*
X36993603Y33252659D01*
X36949588Y33231385D01*
X36940528Y33230167D01*
X36906968Y33226125D01*
X36882793Y33210125D01*
X36866508Y33176351D01*
X36856618Y33118991D01*
X36851627Y33032231D01*
X36850041Y32910257D01*
X36850000Y32878195D01*
X36850818Y32753940D01*
X36853718Y32665267D01*
X36859370Y32605453D01*
X36868442Y32567770D01*
X36881603Y32545493D01*
X36883262Y32543762D01*
X36907595Y32528497D01*
X36949187Y32518496D01*
X37015533Y32512846D01*
X37114127Y32510632D01*
X37156039Y32510500D01*
X37262800Y32510500D01*
X37262800Y33941285D01*
X37231430Y33951657D01*
X37226664Y33955295D01*
X37192622Y33993260D01*
X37181910Y34013334D01*
X37179769Y34040022D01*
X37177900Y34105016D01*
X37176328Y34204288D01*
X37175082Y34333811D01*
X37174188Y34489559D01*
X37173672Y34667503D01*
X37173562Y34863616D01*
X37173884Y35073872D01*
X37174184Y35173924D01*
X37175088Y35421385D01*
X37176038Y35629946D01*
X37177166Y35803040D01*
X37178604Y35944100D01*
X37180486Y36056559D01*
X37182944Y36143850D01*
X37186110Y36209407D01*
X37190117Y36256663D01*
X37195097Y36289050D01*
X37201184Y36310002D01*
X37208510Y36322952D01*
X37217207Y36331333D01*
X37218938Y36332629D01*
X37254805Y36351169D01*
X37285840Y36338344D01*
X37298313Y36327633D01*
X37306708Y36318135D01*
X37313789Y36303817D01*
X37319668Y36281268D01*
X37324457Y36247077D01*
X37328266Y36197833D01*
X37331206Y36130125D01*
X37333389Y36040542D01*
X37334925Y35925673D01*
X37335927Y35782107D01*
X37336505Y35606432D01*
X37336770Y35395238D01*
X37336833Y35145750D01*
X37336769Y34895722D01*
X37336504Y34684615D01*
X37335925Y34509020D01*
X37334922Y34365525D01*
X37333384Y34250719D01*
X37331200Y34161192D01*
X37328258Y34093531D01*
X37324447Y34044326D01*
X37319656Y34010167D01*
X37313774Y33987641D01*
X37306689Y33973339D01*
X37298313Y33963868D01*
X37262800Y33941285D01*
X37262800Y32510500D01*
X37395553Y32510500D01*
X37411449Y31965459D01*
X37414857Y31814268D01*
X37417385Y31629948D01*
X37419004Y31421694D01*
X37419681Y31198702D01*
X37419385Y30970165D01*
X37418085Y30745281D01*
X37416206Y30566795D01*
X37405067Y29713174D01*
X37352200Y29656629D01*
X37271299Y29541833D01*
X37225524Y29406378D01*
X37215845Y29337360D01*
X37214792Y29280655D01*
X37218070Y29193527D01*
X37224941Y29083566D01*
X37234667Y28958358D01*
X37246509Y28825490D01*
X37259731Y28692551D01*
X37273593Y28567128D01*
X37287358Y28456809D01*
X37300288Y28369181D01*
X37311644Y28311832D01*
X37317192Y28295482D01*
X37329609Y28279387D01*
X37351353Y28268337D01*
X37389556Y28261405D01*
X37451350Y28257664D01*
X37543866Y28256187D01*
X37620760Y28256000D01*
X37622633Y28256000D01*
X37622633Y33941285D01*
X37591264Y33951657D01*
X37586498Y33955295D01*
X37552611Y33993230D01*
X37542022Y34013334D01*
X37538617Y34043931D01*
X37535739Y34111904D01*
X37533374Y34212350D01*
X37531510Y34340368D01*
X37530134Y34491056D01*
X37529233Y34659513D01*
X37528794Y34840836D01*
X37528805Y35030125D01*
X37529252Y35222477D01*
X37530124Y35412991D01*
X37531406Y35596765D01*
X37533087Y35768898D01*
X37535153Y35924487D01*
X37537591Y36058632D01*
X37540389Y36166430D01*
X37543534Y36242981D01*
X37547013Y36283381D01*
X37547976Y36287372D01*
X37581891Y36331105D01*
X37629096Y36339938D01*
X37671267Y36316267D01*
X37677164Y36299532D01*
X37682167Y36260397D01*
X37686329Y36196377D01*
X37689705Y36104986D01*
X37692347Y35983739D01*
X37694311Y35830151D01*
X37695649Y35641737D01*
X37696417Y35416012D01*
X37696666Y35150491D01*
X37696666Y35144797D01*
X37696603Y34894880D01*
X37696337Y34683884D01*
X37695757Y34508396D01*
X37694753Y34365003D01*
X37693214Y34250294D01*
X37691026Y34160855D01*
X37688081Y34093275D01*
X37684265Y34044140D01*
X37679468Y34010038D01*
X37673579Y33987556D01*
X37666485Y33973283D01*
X37658146Y33963868D01*
X37622633Y33941285D01*
X37622633Y28256000D01*
X37903197Y28256000D01*
X37925152Y28314209D01*
X37937089Y28363107D01*
X37950286Y28445773D01*
X37964069Y28554287D01*
X37977761Y28680732D01*
X37990687Y28817191D01*
X38002169Y28955746D01*
X38011533Y29088479D01*
X38018102Y29207473D01*
X38021200Y29304811D01*
X38020150Y29372574D01*
X38017432Y29394953D01*
X37991481Y29474887D01*
X37951793Y29558268D01*
X37905802Y29632194D01*
X37860939Y29683769D01*
X37844169Y29695689D01*
X37832278Y29703712D01*
X37822892Y29716695D01*
X37815715Y29739273D01*
X37810453Y29776078D01*
X37806808Y29831745D01*
X37804486Y29910906D01*
X37803192Y30018195D01*
X37802628Y30158245D01*
X37802500Y30335690D01*
X37802500Y30348783D01*
X37802955Y30532798D01*
X37804241Y30747496D01*
X37806243Y30981241D01*
X37808843Y31222395D01*
X37811924Y31459319D01*
X37815370Y31680376D01*
X37816515Y31745039D01*
X37830530Y32510500D01*
X37936302Y32510500D01*
X37936302Y33921865D01*
X37890568Y33967599D01*
X37880532Y33978201D01*
X37872084Y33990585D01*
X37865087Y34008243D01*
X37859403Y34034667D01*
X37854897Y34073350D01*
X37851431Y34127782D01*
X37848869Y34201456D01*
X37847074Y34297864D01*
X37845911Y34420497D01*
X37845241Y34572847D01*
X37844929Y34758406D01*
X37844839Y34980667D01*
X37844833Y35136558D01*
X37845258Y35419075D01*
X37846522Y35663795D01*
X37848612Y35869999D01*
X37851515Y36036971D01*
X37855217Y36163992D01*
X37859704Y36250344D01*
X37864964Y36295310D01*
X37866745Y36300725D01*
X37905403Y36335689D01*
X37955501Y36336950D01*
X37988767Y36316267D01*
X37994688Y36299488D01*
X37999708Y36260272D01*
X38003880Y36196124D01*
X38007259Y36104551D01*
X38009899Y35983059D01*
X38011856Y35829155D01*
X38013183Y35640345D01*
X38013935Y35414136D01*
X38014166Y35154445D01*
X38014101Y34905547D01*
X38013828Y34695511D01*
X38013233Y34520868D01*
X38012203Y34378148D01*
X38010624Y34263880D01*
X38008381Y34174594D01*
X38005360Y34106819D01*
X38001447Y34057086D01*
X37996529Y34021925D01*
X37990491Y33997864D01*
X37983218Y33981434D01*
X37975234Y33969944D01*
X37936302Y33921865D01*
X37936302Y32510500D01*
X38079898Y32510500D01*
X38192856Y32510979D01*
X38275001Y32516288D01*
X38331238Y32532239D01*
X38366471Y32564642D01*
X38385602Y32619310D01*
X38393536Y32702053D01*
X38395176Y32818682D01*
X38395166Y32884115D01*
G37*
X38395166Y32884115D02*
X38393451Y33014929D01*
X38387260Y33109064D01*
X38375030Y33172070D01*
X38355196Y33209501D01*
X38326194Y33226910D01*
X38297660Y33230167D01*
X38239015Y33248666D01*
X38183211Y33296199D01*
X38143708Y33360821D01*
X38140570Y33369557D01*
X38126501Y33467090D01*
X38153020Y33553741D01*
X38220678Y33631282D01*
X38222182Y33632527D01*
X38299916Y33696598D01*
X38313834Y34040174D01*
X38317785Y34163480D01*
X38321096Y34318555D01*
X38323767Y34499585D01*
X38325802Y34700761D01*
X38327203Y34916270D01*
X38327973Y35140300D01*
X38328114Y35367039D01*
X38327628Y35590676D01*
X38326517Y35805399D01*
X38324785Y36005396D01*
X38322434Y36184855D01*
X38319465Y36337965D01*
X38315882Y36458914D01*
X38312795Y36524988D01*
X38305422Y36639904D01*
X38297931Y36722122D01*
X38288191Y36781230D01*
X38274070Y36826816D01*
X38253437Y36868466D01*
X38226833Y36911609D01*
X38112426Y37056923D01*
X37980249Y37165570D01*
X37832663Y37236250D01*
X37672030Y37267661D01*
X37580250Y37267809D01*
X37415151Y37237182D01*
X37265782Y37167465D01*
X37132866Y37059156D01*
X37017130Y36912752D01*
X36985311Y36860506D01*
X36964170Y36822208D01*
X36948347Y36786751D01*
X36936788Y36746995D01*
X36928440Y36695797D01*
X36922248Y36626016D01*
X36917157Y36530512D01*
X36912115Y36402142D01*
X36910323Y36352506D01*
X36905868Y36200557D01*
X36902133Y36017753D01*
X36899128Y35810826D01*
X36896866Y35586507D01*
X36895358Y35351528D01*
X36894615Y35112619D01*
X36894649Y34876513D01*
X36895472Y34649939D01*
X36897094Y34439630D01*
X36899527Y34252316D01*
X36902783Y34094728D01*
X36906301Y33986875D01*
X36911870Y33861053D01*
X36917126Y33771461D01*
X36923048Y33712017D01*
X36930620Y33676637D01*
X36940824Y33659239D01*
X36954640Y33653740D01*
X36960109Y33653500D01*
X37001812Y33639241D01*
X37048912Y33604609D01*
X37052045Y33601546D01*
X37095858Y33530214D01*
X37107616Y33445079D01*
X37087747Y33359488D01*
X37042128Y33292039D01*
X36993603Y33252659D01*
X36949588Y33231385D01*
X36940528Y33230167D01*
X36906968Y33226125D01*
X36882793Y33210125D01*
X36866508Y33176351D01*
X36856618Y33118991D01*
X36851627Y33032231D01*
X36850041Y32910257D01*
X36850000Y32878195D01*
X36850818Y32753940D01*
X36853718Y32665267D01*
X36859370Y32605453D01*
X36868442Y32567770D01*
X36881603Y32545493D01*
X36883262Y32543762D01*
X36907595Y32528497D01*
X36949187Y32518496D01*
X37015533Y32512846D01*
X37114127Y32510632D01*
X37156039Y32510500D01*
X37262800Y32510500D01*
X37262800Y33941285D01*
X37231430Y33951657D01*
X37226664Y33955295D01*
X37192622Y33993260D01*
X37181910Y34013334D01*
X37179769Y34040022D01*
X37177900Y34105016D01*
X37176328Y34204288D01*
X37175082Y34333811D01*
X37174188Y34489559D01*
X37173672Y34667503D01*
X37173562Y34863616D01*
X37173884Y35073872D01*
X37174184Y35173924D01*
X37175088Y35421385D01*
X37176038Y35629946D01*
X37177166Y35803040D01*
X37178604Y35944100D01*
X37180486Y36056559D01*
X37182944Y36143850D01*
X37186110Y36209407D01*
X37190117Y36256663D01*
X37195097Y36289050D01*
X37201184Y36310002D01*
X37208510Y36322952D01*
X37217207Y36331333D01*
X37218938Y36332629D01*
X37254805Y36351169D01*
X37285840Y36338344D01*
X37298313Y36327633D01*
X37306708Y36318135D01*
X37313789Y36303817D01*
X37319668Y36281268D01*
X37324457Y36247077D01*
X37328266Y36197833D01*
X37331206Y36130125D01*
X37333389Y36040542D01*
X37334925Y35925673D01*
X37335927Y35782107D01*
X37336505Y35606432D01*
X37336770Y35395238D01*
X37336833Y35145750D01*
X37336769Y34895722D01*
X37336504Y34684615D01*
X37335925Y34509020D01*
X37334922Y34365525D01*
X37333384Y34250719D01*
X37331200Y34161192D01*
X37328258Y34093531D01*
X37324447Y34044326D01*
X37319656Y34010167D01*
X37313774Y33987641D01*
X37306689Y33973339D01*
X37298313Y33963868D01*
X37262800Y33941285D01*
X37262800Y32510500D01*
X37395553Y32510500D01*
X37411449Y31965459D01*
X37414857Y31814268D01*
X37417385Y31629948D01*
X37419004Y31421694D01*
X37419681Y31198702D01*
X37419385Y30970165D01*
X37418085Y30745281D01*
X37416206Y30566795D01*
X37405067Y29713174D01*
X37352200Y29656629D01*
X37271299Y29541833D01*
X37225524Y29406378D01*
X37215845Y29337360D01*
X37214792Y29280655D01*
X37218070Y29193527D01*
X37224941Y29083566D01*
X37234667Y28958358D01*
X37246509Y28825490D01*
X37259731Y28692551D01*
X37273593Y28567128D01*
X37287358Y28456809D01*
X37300288Y28369181D01*
X37311644Y28311832D01*
X37317192Y28295482D01*
X37329609Y28279387D01*
X37351353Y28268337D01*
X37389556Y28261405D01*
X37451350Y28257664D01*
X37543866Y28256187D01*
X37620760Y28256000D01*
X37622633Y28256000D01*
X37622633Y33941285D01*
X37591264Y33951657D01*
X37586498Y33955295D01*
X37552611Y33993230D01*
X37542022Y34013334D01*
X37538617Y34043931D01*
X37535739Y34111904D01*
X37533374Y34212350D01*
X37531510Y34340368D01*
X37530134Y34491056D01*
X37529233Y34659513D01*
X37528794Y34840836D01*
X37528805Y35030125D01*
X37529252Y35222477D01*
X37530124Y35412991D01*
X37531406Y35596765D01*
X37533087Y35768898D01*
X37535153Y35924487D01*
X37537591Y36058632D01*
X37540389Y36166430D01*
X37543534Y36242981D01*
X37547013Y36283381D01*
X37547976Y36287372D01*
X37581891Y36331105D01*
X37629096Y36339938D01*
X37671267Y36316267D01*
X37677164Y36299532D01*
X37682167Y36260397D01*
X37686329Y36196377D01*
X37689705Y36104986D01*
X37692347Y35983739D01*
X37694311Y35830151D01*
X37695649Y35641737D01*
X37696417Y35416012D01*
X37696666Y35150491D01*
X37696666Y35144797D01*
X37696603Y34894880D01*
X37696337Y34683884D01*
X37695757Y34508396D01*
X37694753Y34365003D01*
X37693214Y34250294D01*
X37691026Y34160855D01*
X37688081Y34093275D01*
X37684265Y34044140D01*
X37679468Y34010038D01*
X37673579Y33987556D01*
X37666485Y33973283D01*
X37658146Y33963868D01*
X37622633Y33941285D01*
X37622633Y28256000D01*
X37903197Y28256000D01*
X37925152Y28314209D01*
X37937089Y28363107D01*
X37950286Y28445773D01*
X37964069Y28554287D01*
X37977761Y28680732D01*
X37990687Y28817191D01*
X38002169Y28955746D01*
X38011533Y29088479D01*
X38018102Y29207473D01*
X38021200Y29304811D01*
X38020150Y29372574D01*
X38017432Y29394953D01*
X37991481Y29474887D01*
X37951793Y29558268D01*
X37905802Y29632194D01*
X37860939Y29683769D01*
X37844169Y29695689D01*
X37832278Y29703712D01*
X37822892Y29716695D01*
X37815715Y29739273D01*
X37810453Y29776078D01*
X37806808Y29831745D01*
X37804486Y29910906D01*
X37803192Y30018195D01*
X37802628Y30158245D01*
X37802500Y30335690D01*
X37802500Y30348783D01*
X37802955Y30532798D01*
X37804241Y30747496D01*
X37806243Y30981241D01*
X37808843Y31222395D01*
X37811924Y31459319D01*
X37815370Y31680376D01*
X37816515Y31745039D01*
X37830530Y32510500D01*
X37936302Y32510500D01*
X37936302Y33921865D01*
X37890568Y33967599D01*
X37880532Y33978201D01*
X37872084Y33990585D01*
X37865087Y34008243D01*
X37859403Y34034667D01*
X37854897Y34073350D01*
X37851431Y34127782D01*
X37848869Y34201456D01*
X37847074Y34297864D01*
X37845911Y34420497D01*
X37845241Y34572847D01*
X37844929Y34758406D01*
X37844839Y34980667D01*
X37844833Y35136558D01*
X37845258Y35419075D01*
X37846522Y35663795D01*
X37848612Y35869999D01*
X37851515Y36036971D01*
X37855217Y36163992D01*
X37859704Y36250344D01*
X37864964Y36295310D01*
X37866745Y36300725D01*
X37905403Y36335689D01*
X37955501Y36336950D01*
X37988767Y36316267D01*
X37994688Y36299488D01*
X37999708Y36260272D01*
X38003880Y36196124D01*
X38007259Y36104551D01*
X38009899Y35983059D01*
X38011856Y35829155D01*
X38013183Y35640345D01*
X38013935Y35414136D01*
X38014166Y35154445D01*
X38014101Y34905547D01*
X38013828Y34695511D01*
X38013233Y34520868D01*
X38012203Y34378148D01*
X38010624Y34263880D01*
X38008381Y34174594D01*
X38005360Y34106819D01*
X38001447Y34057086D01*
X37996529Y34021925D01*
X37990491Y33997864D01*
X37983218Y33981434D01*
X37975234Y33969944D01*
X37936302Y33921865D01*
X37936302Y32510500D01*
X38079898Y32510500D01*
X38192856Y32510979D01*
X38275001Y32516288D01*
X38331238Y32532239D01*
X38366471Y32564642D01*
X38385602Y32619310D01*
X38393536Y32702053D01*
X38395176Y32818682D01*
X38395166Y32884115D01*
G36*
X38162733Y16730617D02*
G01*
X38056500Y16765902D01*
X38056500Y18278669D01*
X38056407Y18572848D01*
X38056091Y18827602D01*
X38055491Y19045838D01*
X38054548Y19230464D01*
X38053203Y19384388D01*
X38051397Y19510517D01*
X38049071Y19611759D01*
X38046164Y19691021D01*
X38042618Y19751211D01*
X38038374Y19795237D01*
X38033372Y19826007D01*
X38027553Y19846428D01*
X38024392Y19853526D01*
X37973492Y19915460D01*
X37901312Y19961414D01*
X37826130Y19979826D01*
X37824718Y19979834D01*
X37807200Y19981915D01*
X37795166Y19992607D01*
X37787588Y20018584D01*
X37783441Y20066519D01*
X37781698Y20143086D01*
X37781334Y20254958D01*
X37781333Y20261998D01*
X37778338Y20382245D01*
X37770063Y20511221D01*
X37757577Y20641013D01*
X37741946Y20763708D01*
X37724239Y20871395D01*
X37705522Y20956161D01*
X37686864Y21010094D01*
X37678778Y21022189D01*
X37639710Y21041968D01*
X37604022Y21021295D01*
X37572193Y20961952D01*
X37544701Y20865722D01*
X37522026Y20734385D01*
X37504645Y20569725D01*
X37493037Y20373522D01*
X37491223Y20323792D01*
X37486755Y20195837D01*
X37482385Y20104190D01*
X37477202Y20042836D01*
X37470294Y20005762D01*
X37460751Y19986953D01*
X37447663Y19980397D01*
X37439130Y19979834D01*
X37368962Y19963048D01*
X37297262Y19920072D01*
X37243256Y19863000D01*
X37236250Y19849639D01*
X37230133Y19830418D01*
X37224812Y19802376D01*
X37220197Y19762552D01*
X37216194Y19707987D01*
X37212714Y19635718D01*
X37209663Y19542787D01*
X37206949Y19426233D01*
X37204483Y19283095D01*
X37202170Y19110412D01*
X37199921Y18905225D01*
X37197643Y18664572D01*
X37195244Y18385494D01*
X37194436Y18287679D01*
X37181979Y16767856D01*
X36987583Y16707512D01*
X36981889Y16238549D01*
X36980264Y16085225D01*
X36979836Y15968862D01*
X36980955Y15884095D01*
X36983968Y15825560D01*
X36989226Y15787894D01*
X36997076Y15765731D01*
X37007867Y15753707D01*
X37013639Y15750246D01*
X37058346Y15731026D01*
X37119764Y15708822D01*
X37130458Y15705311D01*
X37209833Y15679717D01*
X37209833Y13340879D01*
X37217825Y13333371D01*
X37217825Y16042834D01*
X37159296Y16045768D01*
X37132031Y16057878D01*
X37125171Y16084125D01*
X37125166Y16085167D01*
X37130940Y16110896D01*
X37155279Y16123518D01*
X37208711Y16127389D01*
X37217825Y16127442D01*
X37217825Y16339167D01*
X37159296Y16342101D01*
X37132031Y16354211D01*
X37125171Y16380458D01*
X37125166Y16381500D01*
X37130940Y16407229D01*
X37155279Y16419852D01*
X37208711Y16423723D01*
X37227472Y16423834D01*
X37290130Y16421170D01*
X37333708Y16414402D01*
X37343705Y16409906D01*
X37348900Y16384342D01*
X37321145Y16360622D01*
X37269693Y16343945D01*
X37217825Y16339167D01*
X37217825Y16127442D01*
X37227472Y16127500D01*
X37290130Y16124836D01*
X37333708Y16118068D01*
X37343705Y16113573D01*
X37348900Y16088009D01*
X37321145Y16064289D01*
X37269693Y16047611D01*
X37217825Y16042834D01*
X37217825Y13333371D01*
X37258822Y13294856D01*
X37281188Y13276546D01*
X37307719Y13263847D01*
X37346082Y13255744D01*
X37403944Y13251219D01*
X37488973Y13249254D01*
X37605727Y13248834D01*
X37726600Y13249455D01*
X37812795Y13251912D01*
X37823666Y13252864D01*
X37823666Y16856327D01*
X37622588Y16857039D01*
X37421510Y16857750D01*
X37421505Y17062144D01*
X37422145Y17156313D01*
X37425036Y17215470D01*
X37431629Y17246929D01*
X37443373Y17258004D01*
X37460020Y17256464D01*
X37505088Y17262899D01*
X37536795Y17299666D01*
X37545369Y17354917D01*
X37544833Y17359293D01*
X37525091Y17399382D01*
X37479708Y17414781D01*
X37421500Y17421479D01*
X37421500Y17857296D01*
X37472543Y17847539D01*
X37521318Y17852456D01*
X37547371Y17882224D01*
X37558646Y17938883D01*
X37536330Y17985938D01*
X37487888Y18010311D01*
X37473672Y18011334D01*
X37421500Y18011334D01*
X37421500Y18865992D01*
X37421796Y19090591D01*
X37422747Y19275993D01*
X37424449Y19425332D01*
X37426995Y19541741D01*
X37430480Y19628351D01*
X37435000Y19688298D01*
X37440649Y19724713D01*
X37447521Y19740729D01*
X37447958Y19741098D01*
X37481728Y19749657D01*
X37547596Y19752813D01*
X37635628Y19750186D01*
X37654333Y19748981D01*
X37834250Y19736417D01*
X37833288Y19646459D01*
X37832952Y19604933D01*
X37832421Y19526469D01*
X37831727Y19416460D01*
X37830903Y19280299D01*
X37829982Y19123379D01*
X37828996Y18951095D01*
X37827996Y18772084D01*
X37826142Y18539034D01*
X37823383Y18347596D01*
X37819725Y18197908D01*
X37815173Y18090108D01*
X37809730Y18024334D01*
X37803402Y18000725D01*
X37802310Y18000867D01*
X37766522Y18005808D01*
X37737604Y18000307D01*
X37706937Y17979836D01*
X37699502Y17937446D01*
X37700752Y17919566D01*
X37712214Y17870900D01*
X37741805Y17850069D01*
X37765458Y17845886D01*
X37823666Y17839188D01*
X37823666Y17421479D01*
X37765458Y17414781D01*
X37723088Y17402149D01*
X37704661Y17368303D01*
X37700752Y17341101D01*
X37702746Y17290015D01*
X37726200Y17264728D01*
X37737604Y17260360D01*
X37782022Y17254725D01*
X37802310Y17259800D01*
X37813052Y17246737D01*
X37820172Y17193395D01*
X37823458Y17101692D01*
X37823666Y17064663D01*
X37823666Y16856327D01*
X37823666Y13252864D01*
X37871956Y13257093D01*
X37911728Y13265887D01*
X37939755Y13279184D01*
X37953613Y13289287D01*
X38003583Y13329740D01*
X38007111Y13719876D01*
X38007111Y16042834D01*
X37947592Y16045933D01*
X37907490Y16053712D01*
X37900837Y16057386D01*
X37890260Y16086043D01*
X37918197Y16108312D01*
X37981015Y16121776D01*
X37999946Y16123368D01*
X38007111Y16123581D01*
X38007111Y16339167D01*
X37947592Y16342266D01*
X37907490Y16350045D01*
X37900837Y16353719D01*
X37890260Y16382376D01*
X37918197Y16404646D01*
X37981015Y16418109D01*
X37999946Y16419702D01*
X38060320Y16421503D01*
X38089553Y16413818D01*
X38098489Y16392586D01*
X38098833Y16382660D01*
X38092697Y16355145D01*
X38066947Y16342390D01*
X38010573Y16339171D01*
X38007111Y16339167D01*
X38007111Y16123581D01*
X38060320Y16125170D01*
X38089553Y16117485D01*
X38098489Y16096253D01*
X38098833Y16086327D01*
X38092697Y16058812D01*
X38066947Y16046056D01*
X38010573Y16042838D01*
X38007111Y16042834D01*
X38007111Y13719876D01*
X38014166Y14500039D01*
X38024750Y15670338D01*
X38141166Y15714744D01*
X38257583Y15759150D01*
X38268967Y16695332D01*
X38162733Y16730617D01*
G37*
X38162733Y16730617D02*
X38056500Y16765902D01*
X38056500Y18278669D01*
X38056407Y18572848D01*
X38056091Y18827602D01*
X38055491Y19045838D01*
X38054548Y19230464D01*
X38053203Y19384388D01*
X38051397Y19510517D01*
X38049071Y19611759D01*
X38046164Y19691021D01*
X38042618Y19751211D01*
X38038374Y19795237D01*
X38033372Y19826007D01*
X38027553Y19846428D01*
X38024392Y19853526D01*
X37973492Y19915460D01*
X37901312Y19961414D01*
X37826130Y19979826D01*
X37824718Y19979834D01*
X37807200Y19981915D01*
X37795166Y19992607D01*
X37787588Y20018584D01*
X37783441Y20066519D01*
X37781698Y20143086D01*
X37781334Y20254958D01*
X37781333Y20261998D01*
X37778338Y20382245D01*
X37770063Y20511221D01*
X37757577Y20641013D01*
X37741946Y20763708D01*
X37724239Y20871395D01*
X37705522Y20956161D01*
X37686864Y21010094D01*
X37678778Y21022189D01*
X37639710Y21041968D01*
X37604022Y21021295D01*
X37572193Y20961952D01*
X37544701Y20865722D01*
X37522026Y20734385D01*
X37504645Y20569725D01*
X37493037Y20373522D01*
X37491223Y20323792D01*
X37486755Y20195837D01*
X37482385Y20104190D01*
X37477202Y20042836D01*
X37470294Y20005762D01*
X37460751Y19986953D01*
X37447663Y19980397D01*
X37439130Y19979834D01*
X37368962Y19963048D01*
X37297262Y19920072D01*
X37243256Y19863000D01*
X37236250Y19849639D01*
X37230133Y19830418D01*
X37224812Y19802376D01*
X37220197Y19762552D01*
X37216194Y19707987D01*
X37212714Y19635718D01*
X37209663Y19542787D01*
X37206949Y19426233D01*
X37204483Y19283095D01*
X37202170Y19110412D01*
X37199921Y18905225D01*
X37197643Y18664572D01*
X37195244Y18385494D01*
X37194436Y18287679D01*
X37181979Y16767856D01*
X36987583Y16707512D01*
X36981889Y16238549D01*
X36980264Y16085225D01*
X36979836Y15968862D01*
X36980955Y15884095D01*
X36983968Y15825560D01*
X36989226Y15787894D01*
X36997076Y15765731D01*
X37007867Y15753707D01*
X37013639Y15750246D01*
X37058346Y15731026D01*
X37119764Y15708822D01*
X37130458Y15705311D01*
X37209833Y15679717D01*
X37209833Y13340879D01*
X37217825Y13333371D01*
X37217825Y16042834D01*
X37159296Y16045768D01*
X37132031Y16057878D01*
X37125171Y16084125D01*
X37125166Y16085167D01*
X37130940Y16110896D01*
X37155279Y16123518D01*
X37208711Y16127389D01*
X37217825Y16127442D01*
X37217825Y16339167D01*
X37159296Y16342101D01*
X37132031Y16354211D01*
X37125171Y16380458D01*
X37125166Y16381500D01*
X37130940Y16407229D01*
X37155279Y16419852D01*
X37208711Y16423723D01*
X37227472Y16423834D01*
X37290130Y16421170D01*
X37333708Y16414402D01*
X37343705Y16409906D01*
X37348900Y16384342D01*
X37321145Y16360622D01*
X37269693Y16343945D01*
X37217825Y16339167D01*
X37217825Y16127442D01*
X37227472Y16127500D01*
X37290130Y16124836D01*
X37333708Y16118068D01*
X37343705Y16113573D01*
X37348900Y16088009D01*
X37321145Y16064289D01*
X37269693Y16047611D01*
X37217825Y16042834D01*
X37217825Y13333371D01*
X37258822Y13294856D01*
X37281188Y13276546D01*
X37307719Y13263847D01*
X37346082Y13255744D01*
X37403944Y13251219D01*
X37488973Y13249254D01*
X37605727Y13248834D01*
X37726600Y13249455D01*
X37812795Y13251912D01*
X37823666Y13252864D01*
X37823666Y16856327D01*
X37622588Y16857039D01*
X37421510Y16857750D01*
X37421505Y17062144D01*
X37422145Y17156313D01*
X37425036Y17215470D01*
X37431629Y17246929D01*
X37443373Y17258004D01*
X37460020Y17256464D01*
X37505088Y17262899D01*
X37536795Y17299666D01*
X37545369Y17354917D01*
X37544833Y17359293D01*
X37525091Y17399382D01*
X37479708Y17414781D01*
X37421500Y17421479D01*
X37421500Y17857296D01*
X37472543Y17847539D01*
X37521318Y17852456D01*
X37547371Y17882224D01*
X37558646Y17938883D01*
X37536330Y17985938D01*
X37487888Y18010311D01*
X37473672Y18011334D01*
X37421500Y18011334D01*
X37421500Y18865992D01*
X37421796Y19090591D01*
X37422747Y19275993D01*
X37424449Y19425332D01*
X37426995Y19541741D01*
X37430480Y19628351D01*
X37435000Y19688298D01*
X37440649Y19724713D01*
X37447521Y19740729D01*
X37447958Y19741098D01*
X37481728Y19749657D01*
X37547596Y19752813D01*
X37635628Y19750186D01*
X37654333Y19748981D01*
X37834250Y19736417D01*
X37833288Y19646459D01*
X37832952Y19604933D01*
X37832421Y19526469D01*
X37831727Y19416460D01*
X37830903Y19280299D01*
X37829982Y19123379D01*
X37828996Y18951095D01*
X37827996Y18772084D01*
X37826142Y18539034D01*
X37823383Y18347596D01*
X37819725Y18197908D01*
X37815173Y18090108D01*
X37809730Y18024334D01*
X37803402Y18000725D01*
X37802310Y18000867D01*
X37766522Y18005808D01*
X37737604Y18000307D01*
X37706937Y17979836D01*
X37699502Y17937446D01*
X37700752Y17919566D01*
X37712214Y17870900D01*
X37741805Y17850069D01*
X37765458Y17845886D01*
X37823666Y17839188D01*
X37823666Y17421479D01*
X37765458Y17414781D01*
X37723088Y17402149D01*
X37704661Y17368303D01*
X37700752Y17341101D01*
X37702746Y17290015D01*
X37726200Y17264728D01*
X37737604Y17260360D01*
X37782022Y17254725D01*
X37802310Y17259800D01*
X37813052Y17246737D01*
X37820172Y17193395D01*
X37823458Y17101692D01*
X37823666Y17064663D01*
X37823666Y16856327D01*
X37823666Y13252864D01*
X37871956Y13257093D01*
X37911728Y13265887D01*
X37939755Y13279184D01*
X37953613Y13289287D01*
X38003583Y13329740D01*
X38007111Y13719876D01*
X38007111Y16042834D01*
X37947592Y16045933D01*
X37907490Y16053712D01*
X37900837Y16057386D01*
X37890260Y16086043D01*
X37918197Y16108312D01*
X37981015Y16121776D01*
X37999946Y16123368D01*
X38007111Y16123581D01*
X38007111Y16339167D01*
X37947592Y16342266D01*
X37907490Y16350045D01*
X37900837Y16353719D01*
X37890260Y16382376D01*
X37918197Y16404646D01*
X37981015Y16418109D01*
X37999946Y16419702D01*
X38060320Y16421503D01*
X38089553Y16413818D01*
X38098489Y16392586D01*
X38098833Y16382660D01*
X38092697Y16355145D01*
X38066947Y16342390D01*
X38010573Y16339171D01*
X38007111Y16339167D01*
X38007111Y16123581D01*
X38060320Y16125170D01*
X38089553Y16117485D01*
X38098489Y16096253D01*
X38098833Y16086327D01*
X38092697Y16058812D01*
X38066947Y16046056D01*
X38010573Y16042838D01*
X38007111Y16042834D01*
X38007111Y13719876D01*
X38014166Y14500039D01*
X38024750Y15670338D01*
X38141166Y15714744D01*
X38257583Y15759150D01*
X38268967Y16695332D01*
X38162733Y16730617D01*
G36*
X49306583Y40585584D02*
G01*
X37209833Y40596240D01*
X37209833Y37971500D01*
X38035333Y37971500D01*
X38035333Y39770667D01*
X48491666Y39770667D01*
X48491666Y10158500D01*
X38035333Y10158500D01*
X38035333Y12232834D01*
X37209833Y12232834D01*
X37209833Y9333000D01*
X49317195Y9333000D01*
X49306583Y40585584D01*
G37*
X49306583Y40585584D02*
X37209833Y40596240D01*
X37209833Y37971500D01*
X38035333Y37971500D01*
X38035333Y39770667D01*
X48491666Y39770667D01*
X48491666Y10158500D01*
X38035333Y10158500D01*
X38035333Y12232834D01*
X37209833Y12232834D01*
X37209833Y9333000D01*
X49317195Y9333000D01*
X49306583Y40585584D01*
G36*
X37759646Y13177778D02*
G01*
X37720976Y13183358D01*
X37650739Y13185225D01*
X37613426Y13185334D01*
X37526611Y13184873D01*
X37473735Y13178162D01*
X37448588Y13157210D01*
X37444958Y13114025D01*
X37456635Y13040615D01*
X37465372Y12994834D01*
X37479715Y12918337D01*
X37492985Y12846189D01*
X37495762Y12830792D01*
X37505891Y12789323D01*
X37525095Y12769124D01*
X37565967Y12762564D01*
X37609297Y12762000D01*
X37710509Y12762000D01*
X37736446Y12936625D01*
X37749798Y13022302D01*
X37762239Y13094867D01*
X37771565Y13141652D01*
X37773284Y13148292D01*
X37774499Y13166687D01*
X37759646Y13177778D01*
G37*
X37759646Y13177778D02*
X37720976Y13183358D01*
X37650739Y13185225D01*
X37613426Y13185334D01*
X37526611Y13184873D01*
X37473735Y13178162D01*
X37448588Y13157210D01*
X37444958Y13114025D01*
X37456635Y13040615D01*
X37465372Y12994834D01*
X37479715Y12918337D01*
X37492985Y12846189D01*
X37495762Y12830792D01*
X37505891Y12789323D01*
X37525095Y12769124D01*
X37565967Y12762564D01*
X37609297Y12762000D01*
X37710509Y12762000D01*
X37736446Y12936625D01*
X37749798Y13022302D01*
X37762239Y13094867D01*
X37771565Y13141652D01*
X37773284Y13148292D01*
X37774499Y13166687D01*
X37759646Y13177778D01*
G36*
X40373014Y15363766D02*
G01*
X40331316Y15477613D01*
X40257112Y15565362D01*
X40151779Y15625679D01*
X40016696Y15657228D01*
X39930430Y15661834D01*
X39792166Y15661834D01*
X39792166Y15386667D01*
X39909545Y15386667D01*
X39985279Y15382897D01*
X40035273Y15368277D01*
X40075709Y15337842D01*
X40078879Y15334712D01*
X40114356Y15290107D01*
X40130709Y15251543D01*
X40130833Y15249084D01*
X40116749Y15212005D01*
X40082481Y15167138D01*
X40078879Y15163455D01*
X40026924Y15111500D01*
X39533255Y15111500D01*
X39360194Y15111959D01*
X39224847Y15114055D01*
X39122596Y15118871D01*
X39048826Y15127485D01*
X38998920Y15140979D01*
X38968262Y15160433D01*
X38952235Y15186928D01*
X38946224Y15221544D01*
X38945500Y15249084D01*
X38957589Y15313309D01*
X38996747Y15355898D01*
X39067305Y15379474D01*
X39172460Y15386667D01*
X39305333Y15386667D01*
X39305333Y15665920D01*
X39106167Y15658585D01*
X39010664Y15654079D01*
X38945796Y15647005D01*
X38899872Y15634351D01*
X38861195Y15613109D01*
X38825709Y15586390D01*
X38745362Y15501247D01*
X38688751Y15398425D01*
X38661169Y15290337D01*
X38663871Y15206750D01*
X38675264Y15149701D01*
X38682046Y15117180D01*
X38707181Y15063067D01*
X38755788Y14998695D01*
X38816150Y14937342D01*
X38876554Y14892288D01*
X38884091Y14888169D01*
X38910464Y14878622D01*
X38951438Y14871174D01*
X39011705Y14865597D01*
X39095953Y14861668D01*
X39208873Y14859159D01*
X39355153Y14857846D01*
X39521571Y14857500D01*
X39706588Y14857773D01*
X39854511Y14859287D01*
X39970577Y14863081D01*
X40060024Y14870197D01*
X40128092Y14881674D01*
X40180016Y14898554D01*
X40221037Y14921877D01*
X40256392Y14952683D01*
X40291319Y14992014D01*
X40309266Y15013974D01*
X40347612Y15069775D01*
X40369034Y15128522D01*
X40379661Y15208302D01*
X40380828Y15225157D01*
X40373014Y15363766D01*
G37*
X40373014Y15363766D02*
X40331316Y15477613D01*
X40257112Y15565362D01*
X40151779Y15625679D01*
X40016696Y15657228D01*
X39930430Y15661834D01*
X39792166Y15661834D01*
X39792166Y15386667D01*
X39909545Y15386667D01*
X39985279Y15382897D01*
X40035273Y15368277D01*
X40075709Y15337842D01*
X40078879Y15334712D01*
X40114356Y15290107D01*
X40130709Y15251543D01*
X40130833Y15249084D01*
X40116749Y15212005D01*
X40082481Y15167138D01*
X40078879Y15163455D01*
X40026924Y15111500D01*
X39533255Y15111500D01*
X39360194Y15111959D01*
X39224847Y15114055D01*
X39122596Y15118871D01*
X39048826Y15127485D01*
X38998920Y15140979D01*
X38968262Y15160433D01*
X38952235Y15186928D01*
X38946224Y15221544D01*
X38945500Y15249084D01*
X38957589Y15313309D01*
X38996747Y15355898D01*
X39067305Y15379474D01*
X39172460Y15386667D01*
X39305333Y15386667D01*
X39305333Y15665920D01*
X39106167Y15658585D01*
X39010664Y15654079D01*
X38945796Y15647005D01*
X38899872Y15634351D01*
X38861195Y15613109D01*
X38825709Y15586390D01*
X38745362Y15501247D01*
X38688751Y15398425D01*
X38661169Y15290337D01*
X38663871Y15206750D01*
X38675264Y15149701D01*
X38682046Y15117180D01*
X38707181Y15063067D01*
X38755788Y14998695D01*
X38816150Y14937342D01*
X38876554Y14892288D01*
X38884091Y14888169D01*
X38910464Y14878622D01*
X38951438Y14871174D01*
X39011705Y14865597D01*
X39095953Y14861668D01*
X39208873Y14859159D01*
X39355153Y14857846D01*
X39521571Y14857500D01*
X39706588Y14857773D01*
X39854511Y14859287D01*
X39970577Y14863081D01*
X40060024Y14870197D01*
X40128092Y14881674D01*
X40180016Y14898554D01*
X40221037Y14921877D01*
X40256392Y14952683D01*
X40291319Y14992014D01*
X40309266Y15013974D01*
X40347612Y15069775D01*
X40369034Y15128522D01*
X40379661Y15208302D01*
X40380828Y15225157D01*
X40373014Y15363766D01*
G36*
X40359577Y18379307D02*
G01*
X40301079Y18486087D01*
X40210489Y18575728D01*
X40197809Y18584742D01*
X40175293Y18599628D01*
X40152818Y18611294D01*
X40125209Y18620131D01*
X40087294Y18626533D01*
X40033899Y18630891D01*
X39959850Y18633600D01*
X39859974Y18635050D01*
X39729097Y18635636D01*
X39562045Y18635750D01*
X38928019Y18635750D01*
X38838103Y18572250D01*
X38747262Y18484557D01*
X38686729Y18375914D01*
X38660396Y18256160D01*
X38669413Y18145915D01*
X38718195Y18027938D01*
X38800179Y17930040D01*
X38865079Y17883527D01*
X38894671Y17867332D01*
X38923689Y17854810D01*
X38957944Y17845406D01*
X39003246Y17838562D01*
X39065408Y17833722D01*
X39150240Y17830330D01*
X39263553Y17827828D01*
X39411159Y17825659D01*
X39478062Y17824799D01*
X39531261Y17824296D01*
X39531261Y18096000D01*
X39368726Y18096310D01*
X39243266Y18097465D01*
X39149628Y18099801D01*
X39082557Y18103654D01*
X39036799Y18109361D01*
X39007098Y18117259D01*
X38988202Y18127683D01*
X38984208Y18131031D01*
X38954423Y18181476D01*
X38946190Y18245749D01*
X38961699Y18299206D01*
X38981644Y18321981D01*
X39010754Y18339472D01*
X39054291Y18352341D01*
X39117521Y18361250D01*
X39205709Y18366862D01*
X39324118Y18369838D01*
X39478014Y18370840D01*
X39531483Y18370855D01*
X39700848Y18370172D01*
X39832691Y18367691D01*
X39931814Y18362375D01*
X40003022Y18353188D01*
X40051118Y18339095D01*
X40080907Y18319059D01*
X40097191Y18292045D01*
X40104775Y18257017D01*
X40105864Y18246996D01*
X40097606Y18172793D01*
X40076125Y18136354D01*
X40062072Y18123634D01*
X40042315Y18113900D01*
X40011509Y18106753D01*
X39964314Y18101800D01*
X39895386Y18098644D01*
X39799382Y18096889D01*
X39670962Y18096141D01*
X39531261Y18096000D01*
X39531261Y17824296D01*
X39663201Y17823048D01*
X39811497Y17823540D01*
X39928415Y17827080D01*
X40019421Y17834476D01*
X40089981Y17846533D01*
X40145560Y17864056D01*
X40191625Y17887853D01*
X40233640Y17918728D01*
X40257852Y17939785D01*
X40335121Y18035628D01*
X40377339Y18146129D01*
X40385244Y18263338D01*
X40359577Y18379307D01*
G37*
X40359577Y18379307D02*
X40301079Y18486087D01*
X40210489Y18575728D01*
X40197809Y18584742D01*
X40175293Y18599628D01*
X40152818Y18611294D01*
X40125209Y18620131D01*
X40087294Y18626533D01*
X40033899Y18630891D01*
X39959850Y18633600D01*
X39859974Y18635050D01*
X39729097Y18635636D01*
X39562045Y18635750D01*
X38928019Y18635750D01*
X38838103Y18572250D01*
X38747262Y18484557D01*
X38686729Y18375914D01*
X38660396Y18256160D01*
X38669413Y18145915D01*
X38718195Y18027938D01*
X38800179Y17930040D01*
X38865079Y17883527D01*
X38894671Y17867332D01*
X38923689Y17854810D01*
X38957944Y17845406D01*
X39003246Y17838562D01*
X39065408Y17833722D01*
X39150240Y17830330D01*
X39263553Y17827828D01*
X39411159Y17825659D01*
X39478062Y17824799D01*
X39531261Y17824296D01*
X39531261Y18096000D01*
X39368726Y18096310D01*
X39243266Y18097465D01*
X39149628Y18099801D01*
X39082557Y18103654D01*
X39036799Y18109361D01*
X39007098Y18117259D01*
X38988202Y18127683D01*
X38984208Y18131031D01*
X38954423Y18181476D01*
X38946190Y18245749D01*
X38961699Y18299206D01*
X38981644Y18321981D01*
X39010754Y18339472D01*
X39054291Y18352341D01*
X39117521Y18361250D01*
X39205709Y18366862D01*
X39324118Y18369838D01*
X39478014Y18370840D01*
X39531483Y18370855D01*
X39700848Y18370172D01*
X39832691Y18367691D01*
X39931814Y18362375D01*
X40003022Y18353188D01*
X40051118Y18339095D01*
X40080907Y18319059D01*
X40097191Y18292045D01*
X40104775Y18257017D01*
X40105864Y18246996D01*
X40097606Y18172793D01*
X40076125Y18136354D01*
X40062072Y18123634D01*
X40042315Y18113900D01*
X40011509Y18106753D01*
X39964314Y18101800D01*
X39895386Y18098644D01*
X39799382Y18096889D01*
X39670962Y18096141D01*
X39531261Y18096000D01*
X39531261Y17824296D01*
X39663201Y17823048D01*
X39811497Y17823540D01*
X39928415Y17827080D01*
X40019421Y17834476D01*
X40089981Y17846533D01*
X40145560Y17864056D01*
X40191625Y17887853D01*
X40233640Y17918728D01*
X40257852Y17939785D01*
X40335121Y18035628D01*
X40377339Y18146129D01*
X40385244Y18263338D01*
X40359577Y18379307D01*
G36*
X40365025Y21227224D02*
G01*
X40309105Y21331997D01*
X40282945Y21362848D01*
X40212864Y21424559D01*
X40134595Y21464812D01*
X40035747Y21488619D01*
X39948451Y21498124D01*
X39792166Y21509944D01*
X39792166Y21207500D01*
X39913875Y21207176D01*
X39995729Y21204466D01*
X40047299Y21193626D01*
X40080508Y21169780D01*
X40107242Y21128125D01*
X40117407Y21068116D01*
X40095257Y21006900D01*
X40058873Y20969699D01*
X40031966Y20965346D01*
X39968844Y20961437D01*
X39875625Y20958152D01*
X39758427Y20955673D01*
X39623368Y20954182D01*
X39523803Y20953824D01*
X39352472Y20954031D01*
X39218804Y20955565D01*
X39118130Y20959435D01*
X39045782Y20966650D01*
X38997092Y20978218D01*
X38967389Y20995147D01*
X38952007Y21018446D01*
X38946275Y21049123D01*
X38945500Y21078732D01*
X38957431Y21139760D01*
X38996260Y21179772D01*
X39066538Y21201448D01*
X39164125Y21207500D01*
X39305333Y21207500D01*
X39305333Y21509142D01*
X39128759Y21499874D01*
X39026717Y21491599D01*
X38952053Y21477089D01*
X38889899Y21452817D01*
X38858656Y21435796D01*
X38762654Y21356339D01*
X38696769Y21252377D01*
X38664469Y21132297D01*
X38669218Y21004484D01*
X38673000Y20986611D01*
X38718891Y20875471D01*
X38796011Y20781568D01*
X38890126Y20718828D01*
X38920735Y20706624D01*
X38955949Y20697181D01*
X39001367Y20690146D01*
X39062590Y20685168D01*
X39145216Y20681893D01*
X39254843Y20679970D01*
X39397072Y20679046D01*
X39526192Y20678798D01*
X39694000Y20678834D01*
X39825153Y20679523D01*
X39925329Y20681262D01*
X40000206Y20684450D01*
X40055462Y20689481D01*
X40096775Y20696753D01*
X40129822Y20706664D01*
X40160281Y20719609D01*
X40168884Y20723717D01*
X40266344Y20792563D01*
X40336248Y20886079D01*
X40377037Y20995523D01*
X40387149Y21112152D01*
X40365025Y21227224D01*
G37*
X40365025Y21227224D02*
X40309105Y21331997D01*
X40282945Y21362848D01*
X40212864Y21424559D01*
X40134595Y21464812D01*
X40035747Y21488619D01*
X39948451Y21498124D01*
X39792166Y21509944D01*
X39792166Y21207500D01*
X39913875Y21207176D01*
X39995729Y21204466D01*
X40047299Y21193626D01*
X40080508Y21169780D01*
X40107242Y21128125D01*
X40117407Y21068116D01*
X40095257Y21006900D01*
X40058873Y20969699D01*
X40031966Y20965346D01*
X39968844Y20961437D01*
X39875625Y20958152D01*
X39758427Y20955673D01*
X39623368Y20954182D01*
X39523803Y20953824D01*
X39352472Y20954031D01*
X39218804Y20955565D01*
X39118130Y20959435D01*
X39045782Y20966650D01*
X38997092Y20978218D01*
X38967389Y20995147D01*
X38952007Y21018446D01*
X38946275Y21049123D01*
X38945500Y21078732D01*
X38957431Y21139760D01*
X38996260Y21179772D01*
X39066538Y21201448D01*
X39164125Y21207500D01*
X39305333Y21207500D01*
X39305333Y21509142D01*
X39128759Y21499874D01*
X39026717Y21491599D01*
X38952053Y21477089D01*
X38889899Y21452817D01*
X38858656Y21435796D01*
X38762654Y21356339D01*
X38696769Y21252377D01*
X38664469Y21132297D01*
X38669218Y21004484D01*
X38673000Y20986611D01*
X38718891Y20875471D01*
X38796011Y20781568D01*
X38890126Y20718828D01*
X38920735Y20706624D01*
X38955949Y20697181D01*
X39001367Y20690146D01*
X39062590Y20685168D01*
X39145216Y20681893D01*
X39254843Y20679970D01*
X39397072Y20679046D01*
X39526192Y20678798D01*
X39694000Y20678834D01*
X39825153Y20679523D01*
X39925329Y20681262D01*
X40000206Y20684450D01*
X40055462Y20689481D01*
X40096775Y20696753D01*
X40129822Y20706664D01*
X40160281Y20719609D01*
X40168884Y20723717D01*
X40266344Y20792563D01*
X40336248Y20886079D01*
X40377037Y20995523D01*
X40387149Y21112152D01*
X40365025Y21227224D01*
G36*
X40376492Y24806658D02*
G01*
X40362320Y24862664D01*
X40310646Y24950805D01*
X40232923Y25026047D01*
X40141274Y25079419D01*
X40047820Y25101955D01*
X40038619Y25102167D01*
X40002889Y25094805D01*
X39982974Y25065030D01*
X39972994Y25022792D01*
X39960210Y24956360D01*
X39948202Y24900134D01*
X39947177Y24895792D01*
X39946616Y24858208D01*
X39970840Y24848167D01*
X40031360Y24834029D01*
X40090514Y24799126D01*
X40131153Y24754722D01*
X40138004Y24738364D01*
X40135042Y24675098D01*
X40097462Y24621226D01*
X40032976Y24586553D01*
X40015273Y24582348D01*
X39933323Y24582934D01*
X39845537Y24616049D01*
X39748643Y24683631D01*
X39639369Y24787619D01*
X39603586Y24826314D01*
X39464511Y24962011D01*
X39329447Y25056259D01*
X39197383Y25109642D01*
X39089606Y25123334D01*
X38959445Y25106138D01*
X38843998Y25057656D01*
X38751768Y24982540D01*
X38703016Y24911667D01*
X38679479Y24843506D01*
X38664011Y24758382D01*
X38659953Y24678587D01*
X38663361Y24647084D01*
X38675258Y24589556D01*
X38681734Y24558757D01*
X38717928Y24480551D01*
X38787145Y24406923D01*
X38880130Y24344565D01*
X38987625Y24300167D01*
X39061849Y24283977D01*
X39157166Y24270913D01*
X39157166Y24367309D01*
X39159664Y24432828D01*
X39165940Y24483246D01*
X39169019Y24494592D01*
X39164299Y24518556D01*
X39124501Y24535471D01*
X39102334Y24540213D01*
X39033909Y24565818D01*
X38970036Y24609044D01*
X38963413Y24615331D01*
X38925292Y24658825D01*
X38914712Y24693352D01*
X38925096Y24733758D01*
X38971524Y24805406D01*
X39040558Y24843096D01*
X39127211Y24844971D01*
X39182247Y24829428D01*
X39214307Y24808230D01*
X39269215Y24762659D01*
X39340256Y24698644D01*
X39420718Y24622116D01*
X39453589Y24589774D01*
X39550897Y24495202D01*
X39626742Y24427100D01*
X39687754Y24380265D01*
X39740556Y24349492D01*
X39780152Y24333346D01*
X39916461Y24303758D01*
X40047350Y24306598D01*
X40165820Y24339552D01*
X40264869Y24400305D01*
X40337495Y24486542D01*
X40355961Y24523707D01*
X40376975Y24606793D01*
X40383953Y24708244D01*
X40376492Y24806658D01*
G37*
X40376492Y24806658D02*
X40362320Y24862664D01*
X40310646Y24950805D01*
X40232923Y25026047D01*
X40141274Y25079419D01*
X40047820Y25101955D01*
X40038619Y25102167D01*
X40002889Y25094805D01*
X39982974Y25065030D01*
X39972994Y25022792D01*
X39960210Y24956360D01*
X39948202Y24900134D01*
X39947177Y24895792D01*
X39946616Y24858208D01*
X39970840Y24848167D01*
X40031360Y24834029D01*
X40090514Y24799126D01*
X40131153Y24754722D01*
X40138004Y24738364D01*
X40135042Y24675098D01*
X40097462Y24621226D01*
X40032976Y24586553D01*
X40015273Y24582348D01*
X39933323Y24582934D01*
X39845537Y24616049D01*
X39748643Y24683631D01*
X39639369Y24787619D01*
X39603586Y24826314D01*
X39464511Y24962011D01*
X39329447Y25056259D01*
X39197383Y25109642D01*
X39089606Y25123334D01*
X38959445Y25106138D01*
X38843998Y25057656D01*
X38751768Y24982540D01*
X38703016Y24911667D01*
X38679479Y24843506D01*
X38664011Y24758382D01*
X38659953Y24678587D01*
X38663361Y24647084D01*
X38675258Y24589556D01*
X38681734Y24558757D01*
X38717928Y24480551D01*
X38787145Y24406923D01*
X38880130Y24344565D01*
X38987625Y24300167D01*
X39061849Y24283977D01*
X39157166Y24270913D01*
X39157166Y24367309D01*
X39159664Y24432828D01*
X39165940Y24483246D01*
X39169019Y24494592D01*
X39164299Y24518556D01*
X39124501Y24535471D01*
X39102334Y24540213D01*
X39033909Y24565818D01*
X38970036Y24609044D01*
X38963413Y24615331D01*
X38925292Y24658825D01*
X38914712Y24693352D01*
X38925096Y24733758D01*
X38971524Y24805406D01*
X39040558Y24843096D01*
X39127211Y24844971D01*
X39182247Y24829428D01*
X39214307Y24808230D01*
X39269215Y24762659D01*
X39340256Y24698644D01*
X39420718Y24622116D01*
X39453589Y24589774D01*
X39550897Y24495202D01*
X39626742Y24427100D01*
X39687754Y24380265D01*
X39740556Y24349492D01*
X39780152Y24333346D01*
X39916461Y24303758D01*
X40047350Y24306598D01*
X40165820Y24339552D01*
X40264869Y24400305D01*
X40337495Y24486542D01*
X40355961Y24523707D01*
X40376975Y24606793D01*
X40383953Y24708244D01*
X40376492Y24806658D01*
G36*
X40380828Y25750510D02*
G01*
X40356421Y25878593D01*
X40300592Y25979931D01*
X40212351Y26055388D01*
X40090710Y26105829D01*
X39945247Y26131185D01*
X39792166Y26145413D01*
X39792166Y25845020D01*
X39922292Y25838719D01*
X39998399Y25832549D01*
X40045778Y25819967D01*
X40078004Y25796062D01*
X40093945Y25776638D01*
X40120835Y25732704D01*
X40120999Y25695579D01*
X40106694Y25661116D01*
X40069440Y25613368D01*
X40025000Y25586714D01*
X39988297Y25582172D01*
X39916535Y25577993D01*
X39816990Y25574425D01*
X39696937Y25571717D01*
X39563650Y25570117D01*
X39534253Y25569943D01*
X39360282Y25569996D01*
X39224078Y25572790D01*
X39121104Y25579465D01*
X39046825Y25591164D01*
X38996703Y25609028D01*
X38966203Y25634198D01*
X38950788Y25667816D01*
X38945922Y25711024D01*
X38945824Y25718011D01*
X38957998Y25777380D01*
X38998158Y25816387D01*
X39070515Y25837432D01*
X39165092Y25843000D01*
X39307267Y25843000D01*
X39301009Y25985875D01*
X39294750Y26128750D01*
X39141846Y26125892D01*
X39033479Y26121743D01*
X38955718Y26111837D01*
X38896903Y26092836D01*
X38845376Y26061399D01*
X38807223Y26030052D01*
X38718644Y25929054D01*
X38670754Y25816684D01*
X38663156Y25691624D01*
X38679270Y25604266D01*
X38726606Y25492835D01*
X38804478Y25406478D01*
X38888314Y25353155D01*
X38914823Y25340869D01*
X38944162Y25331390D01*
X38981702Y25324433D01*
X39032814Y25319713D01*
X39102869Y25316943D01*
X39197239Y25315838D01*
X39321294Y25316113D01*
X39480406Y25317481D01*
X39546082Y25318173D01*
X40123452Y25324417D01*
X40211391Y25382649D01*
X40303952Y25464921D01*
X40360304Y25566583D01*
X40381846Y25690664D01*
X40380828Y25750510D01*
G37*
X40380828Y25750510D02*
X40356421Y25878593D01*
X40300592Y25979931D01*
X40212351Y26055388D01*
X40090710Y26105829D01*
X39945247Y26131185D01*
X39792166Y26145413D01*
X39792166Y25845020D01*
X39922292Y25838719D01*
X39998399Y25832549D01*
X40045778Y25819967D01*
X40078004Y25796062D01*
X40093945Y25776638D01*
X40120835Y25732704D01*
X40120999Y25695579D01*
X40106694Y25661116D01*
X40069440Y25613368D01*
X40025000Y25586714D01*
X39988297Y25582172D01*
X39916535Y25577993D01*
X39816990Y25574425D01*
X39696937Y25571717D01*
X39563650Y25570117D01*
X39534253Y25569943D01*
X39360282Y25569996D01*
X39224078Y25572790D01*
X39121104Y25579465D01*
X39046825Y25591164D01*
X38996703Y25609028D01*
X38966203Y25634198D01*
X38950788Y25667816D01*
X38945922Y25711024D01*
X38945824Y25718011D01*
X38957998Y25777380D01*
X38998158Y25816387D01*
X39070515Y25837432D01*
X39165092Y25843000D01*
X39307267Y25843000D01*
X39301009Y25985875D01*
X39294750Y26128750D01*
X39141846Y26125892D01*
X39033479Y26121743D01*
X38955718Y26111837D01*
X38896903Y26092836D01*
X38845376Y26061399D01*
X38807223Y26030052D01*
X38718644Y25929054D01*
X38670754Y25816684D01*
X38663156Y25691624D01*
X38679270Y25604266D01*
X38726606Y25492835D01*
X38804478Y25406478D01*
X38888314Y25353155D01*
X38914823Y25340869D01*
X38944162Y25331390D01*
X38981702Y25324433D01*
X39032814Y25319713D01*
X39102869Y25316943D01*
X39197239Y25315838D01*
X39321294Y25316113D01*
X39480406Y25317481D01*
X39546082Y25318173D01*
X40123452Y25324417D01*
X40211391Y25382649D01*
X40303952Y25464921D01*
X40360304Y25566583D01*
X40381846Y25690664D01*
X40380828Y25750510D01*
G36*
X40378987Y35351912D02*
G01*
X40340483Y35468891D01*
X40323734Y35498389D01*
X40245226Y35590762D01*
X40145247Y35650933D01*
X40019400Y35681011D01*
X39933650Y35685500D01*
X39792166Y35685500D01*
X39792166Y35410334D01*
X39906238Y35410334D01*
X40002442Y35398271D01*
X40072782Y35365399D01*
X40113146Y35316686D01*
X40119423Y35257104D01*
X40087502Y35191623D01*
X40087334Y35191409D01*
X40043094Y35135167D01*
X39529327Y35135167D01*
X39367616Y35135390D01*
X39242960Y35136307D01*
X39150079Y35138291D01*
X39083697Y35141714D01*
X39038536Y35146948D01*
X39009317Y35154366D01*
X38990763Y35164339D01*
X38980530Y35173875D01*
X38955017Y35222933D01*
X38945500Y35278508D01*
X38955055Y35335097D01*
X38987209Y35373948D01*
X39047198Y35397623D01*
X39140257Y35408684D01*
X39214793Y35410334D01*
X39390000Y35410334D01*
X39390000Y35262167D01*
X39665166Y35262167D01*
X39665166Y35685500D01*
X39321208Y35685035D01*
X39163465Y35682982D01*
X39041264Y35676128D01*
X38947924Y35662709D01*
X38876764Y35640964D01*
X38821102Y35609130D01*
X38774258Y35565443D01*
X38748451Y35533921D01*
X38717076Y35480528D01*
X38686694Y35409591D01*
X38662968Y35337041D01*
X38651562Y35278810D01*
X38651851Y35262167D01*
X38657500Y35236114D01*
X38668777Y35188279D01*
X38668824Y35188084D01*
X38716154Y35075080D01*
X38794983Y34978287D01*
X38895863Y34907596D01*
X38960796Y34882440D01*
X39006141Y34875754D01*
X39086994Y34869935D01*
X39196535Y34865252D01*
X39327944Y34861970D01*
X39474399Y34860357D01*
X39527583Y34860236D01*
X39677672Y34861206D01*
X39815084Y34863938D01*
X39933000Y34868165D01*
X40024599Y34873619D01*
X40083060Y34880034D01*
X40094370Y34882440D01*
X40182190Y34922739D01*
X40266887Y34988113D01*
X40333319Y35065536D01*
X40356236Y35107698D01*
X40384671Y35226313D01*
X40378987Y35351912D01*
G37*
X40378987Y35351912D02*
X40340483Y35468891D01*
X40323734Y35498389D01*
X40245226Y35590762D01*
X40145247Y35650933D01*
X40019400Y35681011D01*
X39933650Y35685500D01*
X39792166Y35685500D01*
X39792166Y35410334D01*
X39906238Y35410334D01*
X40002442Y35398271D01*
X40072782Y35365399D01*
X40113146Y35316686D01*
X40119423Y35257104D01*
X40087502Y35191623D01*
X40087334Y35191409D01*
X40043094Y35135167D01*
X39529327Y35135167D01*
X39367616Y35135390D01*
X39242960Y35136307D01*
X39150079Y35138291D01*
X39083697Y35141714D01*
X39038536Y35146948D01*
X39009317Y35154366D01*
X38990763Y35164339D01*
X38980530Y35173875D01*
X38955017Y35222933D01*
X38945500Y35278508D01*
X38955055Y35335097D01*
X38987209Y35373948D01*
X39047198Y35397623D01*
X39140257Y35408684D01*
X39214793Y35410334D01*
X39390000Y35410334D01*
X39390000Y35262167D01*
X39665166Y35262167D01*
X39665166Y35685500D01*
X39321208Y35685035D01*
X39163465Y35682982D01*
X39041264Y35676128D01*
X38947924Y35662709D01*
X38876764Y35640964D01*
X38821102Y35609130D01*
X38774258Y35565443D01*
X38748451Y35533921D01*
X38717076Y35480528D01*
X38686694Y35409591D01*
X38662968Y35337041D01*
X38651562Y35278810D01*
X38651851Y35262167D01*
X38657500Y35236114D01*
X38668777Y35188279D01*
X38668824Y35188084D01*
X38716154Y35075080D01*
X38794983Y34978287D01*
X38895863Y34907596D01*
X38960796Y34882440D01*
X39006141Y34875754D01*
X39086994Y34869935D01*
X39196535Y34865252D01*
X39327944Y34861970D01*
X39474399Y34860357D01*
X39527583Y34860236D01*
X39677672Y34861206D01*
X39815084Y34863938D01*
X39933000Y34868165D01*
X40024599Y34873619D01*
X40083060Y34880034D01*
X40094370Y34882440D01*
X40182190Y34922739D01*
X40266887Y34988113D01*
X40333319Y35065536D01*
X40356236Y35107698D01*
X40384671Y35226313D01*
X40378987Y35351912D01*
G36*
X40375575Y37978764D02*
G01*
X40355553Y38029029D01*
X40325255Y38079575D01*
X40245884Y38172532D01*
X40145868Y38232988D01*
X40020448Y38263233D01*
X39933650Y38267834D01*
X39792166Y38267834D01*
X39792166Y37992667D01*
X39906238Y37992667D01*
X40000563Y37980848D01*
X40070863Y37949003D01*
X40112891Y37902550D01*
X40122399Y37846907D01*
X40095141Y37787492D01*
X40080193Y37770769D01*
X40026924Y37717500D01*
X39533255Y37717500D01*
X39360194Y37717959D01*
X39224847Y37720055D01*
X39122596Y37724871D01*
X39048826Y37733485D01*
X38998920Y37746979D01*
X38968262Y37766433D01*
X38952235Y37792928D01*
X38946224Y37827544D01*
X38945500Y37855084D01*
X38954192Y37913742D01*
X38983951Y37953977D01*
X39040298Y37978611D01*
X39128755Y37990463D01*
X39214793Y37992667D01*
X39390000Y37992667D01*
X39390000Y37844500D01*
X39665166Y37844500D01*
X39665166Y38267834D01*
X39321208Y38267369D01*
X39186158Y38266481D01*
X39085691Y38263757D01*
X39012072Y38258479D01*
X38957567Y38249928D01*
X38914440Y38237387D01*
X38890126Y38227339D01*
X38790190Y38159579D01*
X38714776Y38061670D01*
X38672051Y37949909D01*
X38658190Y37887847D01*
X38652735Y37852696D01*
X38654387Y37830160D01*
X38659569Y37812750D01*
X38669112Y37777558D01*
X38679371Y37733763D01*
X38707977Y37669919D01*
X38761663Y37598225D01*
X38828887Y37532071D01*
X38890434Y37488877D01*
X38914915Y37477945D01*
X38947115Y37469438D01*
X38992219Y37463063D01*
X39055409Y37458529D01*
X39141870Y37455542D01*
X39256785Y37453810D01*
X39405339Y37453040D01*
X39527583Y37452917D01*
X39710099Y37453140D01*
X39855627Y37454565D01*
X39969512Y37458323D01*
X40057098Y37465547D01*
X40123731Y37477367D01*
X40174755Y37494916D01*
X40215516Y37519326D01*
X40251358Y37551729D01*
X40287627Y37593255D01*
X40307881Y37618152D01*
X40345203Y37670768D01*
X40366470Y37723102D01*
X40377187Y37792017D01*
X40380439Y37840402D01*
X40382512Y37921775D01*
X40375575Y37978764D01*
G37*
X40375575Y37978764D02*
X40355553Y38029029D01*
X40325255Y38079575D01*
X40245884Y38172532D01*
X40145868Y38232988D01*
X40020448Y38263233D01*
X39933650Y38267834D01*
X39792166Y38267834D01*
X39792166Y37992667D01*
X39906238Y37992667D01*
X40000563Y37980848D01*
X40070863Y37949003D01*
X40112891Y37902550D01*
X40122399Y37846907D01*
X40095141Y37787492D01*
X40080193Y37770769D01*
X40026924Y37717500D01*
X39533255Y37717500D01*
X39360194Y37717959D01*
X39224847Y37720055D01*
X39122596Y37724871D01*
X39048826Y37733485D01*
X38998920Y37746979D01*
X38968262Y37766433D01*
X38952235Y37792928D01*
X38946224Y37827544D01*
X38945500Y37855084D01*
X38954192Y37913742D01*
X38983951Y37953977D01*
X39040298Y37978611D01*
X39128755Y37990463D01*
X39214793Y37992667D01*
X39390000Y37992667D01*
X39390000Y37844500D01*
X39665166Y37844500D01*
X39665166Y38267834D01*
X39321208Y38267369D01*
X39186158Y38266481D01*
X39085691Y38263757D01*
X39012072Y38258479D01*
X38957567Y38249928D01*
X38914440Y38237387D01*
X38890126Y38227339D01*
X38790190Y38159579D01*
X38714776Y38061670D01*
X38672051Y37949909D01*
X38658190Y37887847D01*
X38652735Y37852696D01*
X38654387Y37830160D01*
X38659569Y37812750D01*
X38669112Y37777558D01*
X38679371Y37733763D01*
X38707977Y37669919D01*
X38761663Y37598225D01*
X38828887Y37532071D01*
X38890434Y37488877D01*
X38914915Y37477945D01*
X38947115Y37469438D01*
X38992219Y37463063D01*
X39055409Y37458529D01*
X39141870Y37455542D01*
X39256785Y37453810D01*
X39405339Y37453040D01*
X39527583Y37452917D01*
X39710099Y37453140D01*
X39855627Y37454565D01*
X39969512Y37458323D01*
X40057098Y37465547D01*
X40123731Y37477367D01*
X40174755Y37494916D01*
X40215516Y37519326D01*
X40251358Y37551729D01*
X40287627Y37593255D01*
X40307881Y37618152D01*
X40345203Y37670768D01*
X40366470Y37723102D01*
X40377187Y37792017D01*
X40380439Y37840402D01*
X40382512Y37921775D01*
X40375575Y37978764D01*
G36*
X40231375Y12948219D02*
G01*
X40099083Y12941917D01*
X40093075Y12714375D01*
X40087068Y12486834D01*
X39665166Y12486834D01*
X39665166Y12825500D01*
X39390000Y12825500D01*
X39390000Y12486834D01*
X38945500Y12486834D01*
X38945500Y12952500D01*
X38670333Y12952500D01*
X38670333Y12211667D01*
X40363666Y12211667D01*
X40363666Y12954520D01*
X40231375Y12948219D01*
G37*
X40231375Y12948219D02*
X40099083Y12941917D01*
X40093075Y12714375D01*
X40087068Y12486834D01*
X39665166Y12486834D01*
X39665166Y12825500D01*
X39390000Y12825500D01*
X39390000Y12486834D01*
X38945500Y12486834D01*
X38945500Y12952500D01*
X38670333Y12952500D01*
X38670333Y12211667D01*
X40363666Y12211667D01*
X40363666Y12954520D01*
X40231375Y12948219D01*
G36*
X38945500Y13375834D02*
G01*
X38945500Y13799167D01*
X38670333Y13799167D01*
X38670333Y13100667D01*
X40363666Y13100667D01*
X40363666Y13375834D01*
X38945500Y13375834D01*
G37*
X38945500Y13375834D02*
X38945500Y13799167D01*
X38670333Y13799167D01*
X38670333Y13100667D01*
X40363666Y13100667D01*
X40363666Y13375834D01*
X38945500Y13375834D01*
G36*
X40088500Y14688167D02*
G01*
X40088500Y14222500D01*
X39665166Y14222500D01*
X39665166Y14561167D01*
X39390000Y14561167D01*
X39390000Y14222500D01*
X38945500Y14222500D01*
X38945500Y14688167D01*
X38670333Y14688167D01*
X38670333Y13968500D01*
X40363666Y13968500D01*
X40363666Y14688167D01*
X40088500Y14688167D01*
G37*
X40088500Y14688167D02*
X40088500Y14222500D01*
X39665166Y14222500D01*
X39665166Y14561167D01*
X39390000Y14561167D01*
X39390000Y14222500D01*
X38945500Y14222500D01*
X38945500Y14688167D01*
X38670333Y14688167D01*
X38670333Y13968500D01*
X40363666Y13968500D01*
X40363666Y14688167D01*
X40088500Y14688167D01*
G36*
X40231375Y16631219D02*
G01*
X40099083Y16624917D01*
X40092781Y16492625D01*
X40086480Y16360334D01*
X38670333Y16360334D01*
X38670333Y16085167D01*
X40086480Y16085167D01*
X40092781Y15952875D01*
X40099083Y15820584D01*
X40231375Y15814282D01*
X40363666Y15807980D01*
X40363666Y16637520D01*
X40231375Y16631219D01*
G37*
X40231375Y16631219D02*
X40099083Y16624917D01*
X40092781Y16492625D01*
X40086480Y16360334D01*
X38670333Y16360334D01*
X38670333Y16085167D01*
X40086480Y16085167D01*
X40092781Y15952875D01*
X40099083Y15820584D01*
X40231375Y15814282D01*
X40363666Y15807980D01*
X40363666Y16637520D01*
X40231375Y16631219D01*
G36*
X40363318Y17085292D02*
G01*
X40362486Y17202704D01*
X40359542Y17286800D01*
X40353305Y17346583D01*
X40342595Y17391060D01*
X40326232Y17429238D01*
X40315693Y17448545D01*
X40268587Y17515411D01*
X40210710Y17563247D01*
X40134851Y17594738D01*
X40033798Y17612566D01*
X39900342Y17619415D01*
X39855666Y17619731D01*
X39748781Y17619086D01*
X39673448Y17615869D01*
X39618891Y17608188D01*
X39574334Y17594151D01*
X39529001Y17571867D01*
X39504479Y17558073D01*
X39396708Y17496396D01*
X39044539Y17584531D01*
X38928481Y17613424D01*
X38827228Y17638339D01*
X38747696Y17657600D01*
X38696796Y17669530D01*
X38681352Y17672667D01*
X38675848Y17653315D01*
X38671898Y17602505D01*
X38670335Y17531108D01*
X38670333Y17528861D01*
X38670333Y17385055D01*
X38919041Y17324502D01*
X39053960Y17291740D01*
X39153292Y17267092D01*
X39222453Y17248154D01*
X39266862Y17232522D01*
X39291937Y17217792D01*
X39303096Y17201559D01*
X39305757Y17181419D01*
X39305338Y17154968D01*
X39305333Y17153089D01*
X39305333Y17080000D01*
X38670333Y17080000D01*
X38670333Y16804834D01*
X40088500Y16804834D01*
X40088500Y17080000D01*
X39580500Y17080000D01*
X39580500Y17175250D01*
X39590184Y17256982D01*
X39621481Y17311462D01*
X39622833Y17312834D01*
X39651503Y17334627D01*
X39690797Y17347538D01*
X39751452Y17353680D01*
X39838125Y17355167D01*
X39945486Y17351586D01*
X40017545Y17337783D01*
X40060960Y17309171D01*
X40082385Y17261160D01*
X40088476Y17189162D01*
X40088500Y17182553D01*
X40088500Y17080000D01*
X40088500Y16804834D01*
X40363666Y16804834D01*
X40363318Y17085292D01*
G37*
X40363318Y17085292D02*
X40362486Y17202704D01*
X40359542Y17286800D01*
X40353305Y17346583D01*
X40342595Y17391060D01*
X40326232Y17429238D01*
X40315693Y17448545D01*
X40268587Y17515411D01*
X40210710Y17563247D01*
X40134851Y17594738D01*
X40033798Y17612566D01*
X39900342Y17619415D01*
X39855666Y17619731D01*
X39748781Y17619086D01*
X39673448Y17615869D01*
X39618891Y17608188D01*
X39574334Y17594151D01*
X39529001Y17571867D01*
X39504479Y17558073D01*
X39396708Y17496396D01*
X39044539Y17584531D01*
X38928481Y17613424D01*
X38827228Y17638339D01*
X38747696Y17657600D01*
X38696796Y17669530D01*
X38681352Y17672667D01*
X38675848Y17653315D01*
X38671898Y17602505D01*
X38670335Y17531108D01*
X38670333Y17528861D01*
X38670333Y17385055D01*
X38919041Y17324502D01*
X39053960Y17291740D01*
X39153292Y17267092D01*
X39222453Y17248154D01*
X39266862Y17232522D01*
X39291937Y17217792D01*
X39303096Y17201559D01*
X39305757Y17181419D01*
X39305338Y17154968D01*
X39305333Y17153089D01*
X39305333Y17080000D01*
X38670333Y17080000D01*
X38670333Y16804834D01*
X40088500Y16804834D01*
X40088500Y17080000D01*
X39580500Y17080000D01*
X39580500Y17175250D01*
X39590184Y17256982D01*
X39621481Y17311462D01*
X39622833Y17312834D01*
X39651503Y17334627D01*
X39690797Y17347538D01*
X39751452Y17353680D01*
X39838125Y17355167D01*
X39945486Y17351586D01*
X40017545Y17337783D01*
X40060960Y17309171D01*
X40082385Y17261160D01*
X40088476Y17189162D01*
X40088500Y17182553D01*
X40088500Y17080000D01*
X40088500Y16804834D01*
X40363666Y16804834D01*
X40363318Y17085292D01*
G36*
X40088500Y19598834D02*
G01*
X40088500Y19344834D01*
X38670333Y19344834D01*
X38670333Y19069667D01*
X40086480Y19069667D01*
X40092781Y18937375D01*
X40099083Y18805084D01*
X40231375Y18798782D01*
X40363666Y18792480D01*
X40363666Y19598834D01*
X40088500Y19598834D01*
G37*
X40088500Y19598834D02*
X40088500Y19344834D01*
X38670333Y19344834D01*
X38670333Y19069667D01*
X40086480Y19069667D01*
X40092781Y18937375D01*
X40099083Y18805084D01*
X40231375Y18798782D01*
X40363666Y18792480D01*
X40363666Y19598834D01*
X40088500Y19598834D01*
G36*
X40231375Y20525885D02*
G01*
X40099083Y20519584D01*
X40093075Y20292042D01*
X40087068Y20064500D01*
X39665166Y20064500D01*
X39665166Y20403167D01*
X39390000Y20403167D01*
X39390000Y20064500D01*
X38945500Y20064500D01*
X38945500Y20530167D01*
X38670333Y20530167D01*
X38670333Y19789334D01*
X40363666Y19789334D01*
X40363666Y20532187D01*
X40231375Y20525885D01*
G37*
X40231375Y20525885D02*
X40099083Y20519584D01*
X40093075Y20292042D01*
X40087068Y20064500D01*
X39665166Y20064500D01*
X39665166Y20403167D01*
X39390000Y20403167D01*
X39390000Y20064500D01*
X38945500Y20064500D01*
X38945500Y20530167D01*
X38670333Y20530167D01*
X38670333Y19789334D01*
X40363666Y19789334D01*
X40363666Y20532187D01*
X40231375Y20525885D01*
G36*
X39665166Y21948334D02*
G01*
X39665166Y22244667D01*
X40363666Y22244667D01*
X40363666Y22520319D01*
X39522291Y22514785D01*
X38680916Y22509250D01*
X38674615Y22376959D01*
X38668313Y22244667D01*
X39390000Y22244667D01*
X39390000Y21948334D01*
X38670333Y21948334D01*
X38670333Y21824861D01*
X38672582Y21755942D01*
X38678401Y21705292D01*
X38684444Y21687278D01*
X38708042Y21684170D01*
X38769351Y21681298D01*
X38863752Y21678741D01*
X38986622Y21676575D01*
X39133341Y21674877D01*
X39299287Y21673724D01*
X39479840Y21673193D01*
X39531111Y21673167D01*
X40363666Y21673167D01*
X40363666Y21948334D01*
X39665166Y21948334D01*
G37*
X39665166Y21948334D02*
X39665166Y22244667D01*
X40363666Y22244667D01*
X40363666Y22520319D01*
X39522291Y22514785D01*
X38680916Y22509250D01*
X38674615Y22376959D01*
X38668313Y22244667D01*
X39390000Y22244667D01*
X39390000Y21948334D01*
X38670333Y21948334D01*
X38670333Y21824861D01*
X38672582Y21755942D01*
X38678401Y21705292D01*
X38684444Y21687278D01*
X38708042Y21684170D01*
X38769351Y21681298D01*
X38863752Y21678741D01*
X38986622Y21676575D01*
X39133341Y21674877D01*
X39299287Y21673724D01*
X39479840Y21673193D01*
X39531111Y21673167D01*
X40363666Y21673167D01*
X40363666Y21948334D01*
X39665166Y21948334D01*
G36*
X39860958Y23170818D02*
G01*
X39358250Y23321118D01*
X39860958Y23322643D01*
X40363666Y23324167D01*
X40363666Y23599334D01*
X38668399Y23599334D01*
X38674658Y23457015D01*
X38680916Y23314697D01*
X39675750Y22989083D01*
X39173041Y22987291D01*
X38670333Y22985500D01*
X38670333Y22710334D01*
X40363666Y22710334D01*
X40363666Y23020517D01*
X39860958Y23170818D01*
G37*
X39860958Y23170818D02*
X39358250Y23321118D01*
X39860958Y23322643D01*
X40363666Y23324167D01*
X40363666Y23599334D01*
X38668399Y23599334D01*
X38674658Y23457015D01*
X38680916Y23314697D01*
X39675750Y22989083D01*
X39173041Y22987291D01*
X38670333Y22985500D01*
X38670333Y22710334D01*
X40363666Y22710334D01*
X40363666Y23020517D01*
X39860958Y23170818D01*
G36*
X38670333Y24086167D02*
G01*
X38670333Y23811000D01*
X40363666Y23811000D01*
X40363666Y24086167D01*
X38670333Y24086167D01*
G37*
X38670333Y24086167D02*
X38670333Y23811000D01*
X40363666Y23811000D01*
X40363666Y24086167D01*
X38670333Y24086167D01*
G36*
X39665166Y26583834D02*
G01*
X39665166Y26859000D01*
X40363666Y26859000D01*
X40363666Y27134167D01*
X38668313Y27134167D01*
X38674615Y27001875D01*
X38680916Y26869584D01*
X39035458Y26863780D01*
X39390000Y26857977D01*
X39390000Y26583834D01*
X38670333Y26583834D01*
X38670333Y26460361D01*
X38672582Y26391442D01*
X38678401Y26340792D01*
X38684444Y26322778D01*
X38708042Y26319670D01*
X38769351Y26316798D01*
X38863752Y26314241D01*
X38986622Y26312075D01*
X39133341Y26310377D01*
X39299287Y26309224D01*
X39479840Y26308693D01*
X39531111Y26308667D01*
X40363666Y26308667D01*
X40363666Y26583834D01*
X39665166Y26583834D01*
G37*
X39665166Y26583834D02*
X39665166Y26859000D01*
X40363666Y26859000D01*
X40363666Y27134167D01*
X38668313Y27134167D01*
X38674615Y27001875D01*
X38680916Y26869584D01*
X39035458Y26863780D01*
X39390000Y26857977D01*
X39390000Y26583834D01*
X38670333Y26583834D01*
X38670333Y26460361D01*
X38672582Y26391442D01*
X38678401Y26340792D01*
X38684444Y26322778D01*
X38708042Y26319670D01*
X38769351Y26316798D01*
X38863752Y26314241D01*
X38986622Y26312075D01*
X39133341Y26310377D01*
X39299287Y26309224D01*
X39479840Y26308693D01*
X39531111Y26308667D01*
X40363666Y26308667D01*
X40363666Y26583834D01*
X39665166Y26583834D01*
G36*
X40231375Y28082385D02*
G01*
X40099083Y28076084D01*
X40093075Y27848542D01*
X40087068Y27621000D01*
X39665166Y27621000D01*
X39665166Y27959667D01*
X39390000Y27959667D01*
X39390000Y27621000D01*
X38945500Y27621000D01*
X38945500Y28086667D01*
X38670333Y28086667D01*
X38670333Y27345834D01*
X40363666Y27345834D01*
X40363666Y28088687D01*
X40231375Y28082385D01*
G37*
X40231375Y28082385D02*
X40099083Y28076084D01*
X40093075Y27848542D01*
X40087068Y27621000D01*
X39665166Y27621000D01*
X39665166Y27959667D01*
X39390000Y27959667D01*
X39390000Y27621000D01*
X38945500Y27621000D01*
X38945500Y28086667D01*
X38670333Y28086667D01*
X38670333Y27345834D01*
X40363666Y27345834D01*
X40363666Y28088687D01*
X40231375Y28082385D01*
G36*
X40306469Y29369470D02*
G01*
X40272555Y29362998D01*
X40202040Y29349925D01*
X40099985Y29331174D01*
X39971446Y29307672D01*
X39821483Y29280343D01*
X39655155Y29250112D01*
X39477519Y29217904D01*
X39474688Y29217391D01*
X39299110Y29185414D01*
X39136680Y29155482D01*
X38992107Y29128491D01*
X38870097Y29105334D01*
X38775358Y29086905D01*
X38712596Y29074099D01*
X38686521Y29067808D01*
X38686230Y29067660D01*
X38676034Y29041238D01*
X38670530Y28985917D01*
X38669351Y28914133D01*
X38672129Y28838323D01*
X38678495Y28770921D01*
X38688081Y28724364D01*
X38696791Y28710724D01*
X38722998Y28704965D01*
X38786135Y28692742D01*
X38881444Y28674928D01*
X39004164Y28652396D01*
X39149533Y28626021D01*
X39312791Y28596675D01*
X39489177Y28565233D01*
X39506416Y28562174D01*
X39684333Y28530497D01*
X39850035Y28500776D01*
X39998677Y28473898D01*
X40125414Y28450748D01*
X40225402Y28432210D01*
X40293796Y28419171D01*
X40325751Y28412516D01*
X40326625Y28412275D01*
X40346002Y28411094D01*
X40357187Y28427286D01*
X40362351Y28468977D01*
X40363663Y28544290D01*
X40363666Y28550907D01*
X40361610Y28624288D01*
X40356194Y28677571D01*
X40348548Y28700121D01*
X40347791Y28700280D01*
X40319031Y28703440D01*
X40255560Y28712445D01*
X40164157Y28726204D01*
X40051603Y28743628D01*
X39924677Y28763624D01*
X39790159Y28785102D01*
X39654828Y28806970D01*
X39525465Y28828139D01*
X39408849Y28847516D01*
X39311759Y28864012D01*
X39240976Y28876535D01*
X39203279Y28883993D01*
X39199500Y28885055D01*
X39211174Y28891464D01*
X39259777Y28903516D01*
X39340418Y28920254D01*
X39448211Y28940721D01*
X39578266Y28963963D01*
X39725696Y28989022D01*
X39760416Y28994756D01*
X40353083Y29092125D01*
X40365687Y29381641D01*
X40306469Y29369470D01*
G37*
X40306469Y29369470D02*
X40272555Y29362998D01*
X40202040Y29349925D01*
X40099985Y29331174D01*
X39971446Y29307672D01*
X39821483Y29280343D01*
X39655155Y29250112D01*
X39477519Y29217904D01*
X39474688Y29217391D01*
X39299110Y29185414D01*
X39136680Y29155482D01*
X38992107Y29128491D01*
X38870097Y29105334D01*
X38775358Y29086905D01*
X38712596Y29074099D01*
X38686521Y29067808D01*
X38686230Y29067660D01*
X38676034Y29041238D01*
X38670530Y28985917D01*
X38669351Y28914133D01*
X38672129Y28838323D01*
X38678495Y28770921D01*
X38688081Y28724364D01*
X38696791Y28710724D01*
X38722998Y28704965D01*
X38786135Y28692742D01*
X38881444Y28674928D01*
X39004164Y28652396D01*
X39149533Y28626021D01*
X39312791Y28596675D01*
X39489177Y28565233D01*
X39506416Y28562174D01*
X39684333Y28530497D01*
X39850035Y28500776D01*
X39998677Y28473898D01*
X40125414Y28450748D01*
X40225402Y28432210D01*
X40293796Y28419171D01*
X40325751Y28412516D01*
X40326625Y28412275D01*
X40346002Y28411094D01*
X40357187Y28427286D01*
X40362351Y28468977D01*
X40363663Y28544290D01*
X40363666Y28550907D01*
X40361610Y28624288D01*
X40356194Y28677571D01*
X40348548Y28700121D01*
X40347791Y28700280D01*
X40319031Y28703440D01*
X40255560Y28712445D01*
X40164157Y28726204D01*
X40051603Y28743628D01*
X39924677Y28763624D01*
X39790159Y28785102D01*
X39654828Y28806970D01*
X39525465Y28828139D01*
X39408849Y28847516D01*
X39311759Y28864012D01*
X39240976Y28876535D01*
X39203279Y28883993D01*
X39199500Y28885055D01*
X39211174Y28891464D01*
X39259777Y28903516D01*
X39340418Y28920254D01*
X39448211Y28940721D01*
X39578266Y28963963D01*
X39725696Y28989022D01*
X39760416Y28994756D01*
X40353083Y29092125D01*
X40365687Y29381641D01*
X40306469Y29369470D01*
G36*
X40231375Y30304885D02*
G01*
X40099083Y30298584D01*
X40093075Y30071042D01*
X40087068Y29843500D01*
X39665166Y29843500D01*
X39665166Y30182167D01*
X39390000Y30182167D01*
X39390000Y29843500D01*
X38945500Y29843500D01*
X38945500Y30309167D01*
X38670333Y30309167D01*
X38670333Y29568334D01*
X40363666Y29568334D01*
X40363666Y30311187D01*
X40231375Y30304885D01*
G37*
X40231375Y30304885D02*
X40099083Y30298584D01*
X40093075Y30071042D01*
X40087068Y29843500D01*
X39665166Y29843500D01*
X39665166Y30182167D01*
X39390000Y30182167D01*
X39390000Y29843500D01*
X38945500Y29843500D01*
X38945500Y30309167D01*
X38670333Y30309167D01*
X38670333Y29568334D01*
X40363666Y29568334D01*
X40363666Y30311187D01*
X40231375Y30304885D01*
G36*
X40362700Y30843577D02*
G01*
X40359002Y30928725D01*
X40351375Y30990959D01*
X40338619Y31039971D01*
X40319537Y31085459D01*
X40319102Y31086359D01*
X40280817Y31151403D01*
X40233775Y31198674D01*
X40171083Y31230751D01*
X40085845Y31250209D01*
X39971166Y31259628D01*
X39850179Y31261667D01*
X39739774Y31261173D01*
X39662025Y31258604D01*
X39607259Y31252330D01*
X39565802Y31240721D01*
X39527979Y31222147D01*
X39494794Y31201788D01*
X39400583Y31141908D01*
X39051333Y31233401D01*
X38935498Y31263521D01*
X38834010Y31289483D01*
X38753909Y31309523D01*
X38702232Y31321872D01*
X38686208Y31325030D01*
X38678335Y31305738D01*
X38672656Y31254894D01*
X38670340Y31183264D01*
X38670333Y31179069D01*
X38670333Y31032972D01*
X38911760Y30976829D01*
X39048117Y30945120D01*
X39148738Y30920990D01*
X39219041Y30902081D01*
X39264441Y30886038D01*
X39290355Y30870504D01*
X39302198Y30853123D01*
X39305387Y30831537D01*
X39305333Y30805589D01*
X39305333Y30732500D01*
X38670333Y30732500D01*
X38670333Y30457334D01*
X40088500Y30457334D01*
X40088500Y30732500D01*
X39580500Y30732500D01*
X39580500Y30827750D01*
X39590184Y30909482D01*
X39621481Y30963962D01*
X39622833Y30965334D01*
X39651503Y30987127D01*
X39690797Y31000038D01*
X39751452Y31006180D01*
X39838125Y31007667D01*
X39945486Y31004086D01*
X40017545Y30990283D01*
X40060960Y30961671D01*
X40082385Y30913660D01*
X40088476Y30841662D01*
X40088500Y30835053D01*
X40088500Y30732500D01*
X40088500Y30457334D01*
X40363666Y30457334D01*
X40363666Y30725817D01*
X40362700Y30843577D01*
G37*
X40362700Y30843577D02*
X40359002Y30928725D01*
X40351375Y30990959D01*
X40338619Y31039971D01*
X40319537Y31085459D01*
X40319102Y31086359D01*
X40280817Y31151403D01*
X40233775Y31198674D01*
X40171083Y31230751D01*
X40085845Y31250209D01*
X39971166Y31259628D01*
X39850179Y31261667D01*
X39739774Y31261173D01*
X39662025Y31258604D01*
X39607259Y31252330D01*
X39565802Y31240721D01*
X39527979Y31222147D01*
X39494794Y31201788D01*
X39400583Y31141908D01*
X39051333Y31233401D01*
X38935498Y31263521D01*
X38834010Y31289483D01*
X38753909Y31309523D01*
X38702232Y31321872D01*
X38686208Y31325030D01*
X38678335Y31305738D01*
X38672656Y31254894D01*
X38670340Y31183264D01*
X38670333Y31179069D01*
X38670333Y31032972D01*
X38911760Y30976829D01*
X39048117Y30945120D01*
X39148738Y30920990D01*
X39219041Y30902081D01*
X39264441Y30886038D01*
X39290355Y30870504D01*
X39302198Y30853123D01*
X39305387Y30831537D01*
X39305333Y30805589D01*
X39305333Y30732500D01*
X38670333Y30732500D01*
X38670333Y30457334D01*
X40088500Y30457334D01*
X40088500Y30732500D01*
X39580500Y30732500D01*
X39580500Y30827750D01*
X39590184Y30909482D01*
X39621481Y30963962D01*
X39622833Y30965334D01*
X39651503Y30987127D01*
X39690797Y31000038D01*
X39751452Y31006180D01*
X39838125Y31007667D01*
X39945486Y31004086D01*
X40017545Y30990283D01*
X40060960Y30961671D01*
X40082385Y30913660D01*
X40088476Y30841662D01*
X40088500Y30835053D01*
X40088500Y30732500D01*
X40088500Y30457334D01*
X40363666Y30457334D01*
X40363666Y30725817D01*
X40362700Y30843577D01*
G36*
X40088500Y32256500D02*
G01*
X40088500Y31790834D01*
X39665166Y31790834D01*
X39665166Y32129500D01*
X39390000Y32129500D01*
X39390000Y31790834D01*
X38945500Y31790834D01*
X38945500Y32256500D01*
X38670333Y32256500D01*
X38670333Y31515667D01*
X40363666Y31515667D01*
X40363666Y32256500D01*
X40088500Y32256500D01*
G37*
X40088500Y32256500D02*
X40088500Y31790834D01*
X39665166Y31790834D01*
X39665166Y32129500D01*
X39390000Y32129500D01*
X39390000Y31790834D01*
X38945500Y31790834D01*
X38945500Y32256500D01*
X38670333Y32256500D01*
X38670333Y31515667D01*
X40363666Y31515667D01*
X40363666Y32256500D01*
X40088500Y32256500D01*
G36*
X40088500Y33145500D02*
G01*
X40088500Y32679834D01*
X39665166Y32679834D01*
X39665166Y33018500D01*
X39390000Y33018500D01*
X39390000Y32679834D01*
X38945500Y32679834D01*
X38945500Y33145500D01*
X38670333Y33145500D01*
X38670333Y32404667D01*
X40363666Y32404667D01*
X40363666Y33145500D01*
X40088500Y33145500D01*
G37*
X40088500Y33145500D02*
X40088500Y32679834D01*
X39665166Y32679834D01*
X39665166Y33018500D01*
X39390000Y33018500D01*
X39390000Y32679834D01*
X38945500Y32679834D01*
X38945500Y33145500D01*
X38670333Y33145500D01*
X38670333Y32404667D01*
X40363666Y32404667D01*
X40363666Y33145500D01*
X40088500Y33145500D01*
G36*
X39358250Y33904452D02*
G01*
X40363666Y33907500D01*
X40363666Y34182667D01*
X38668399Y34182667D01*
X38674658Y34040348D01*
X38680916Y33898030D01*
X39675750Y33572416D01*
X39173041Y33570625D01*
X38670333Y33568834D01*
X38670333Y33293667D01*
X40363666Y33293667D01*
X40363666Y33603850D01*
X39358250Y33904452D01*
G37*
X39358250Y33904452D02*
X40363666Y33907500D01*
X40363666Y34182667D01*
X38668399Y34182667D01*
X38674658Y34040348D01*
X38680916Y33898030D01*
X39675750Y33572416D01*
X39173041Y33570625D01*
X38670333Y33568834D01*
X38670333Y33293667D01*
X40363666Y33293667D01*
X40363666Y33603850D01*
X39358250Y33904452D01*
G36*
X38670333Y34669500D02*
G01*
X38670333Y34394334D01*
X40363666Y34394334D01*
X40363666Y34669500D01*
X38670333Y34669500D01*
G37*
X38670333Y34669500D02*
X38670333Y34394334D01*
X40363666Y34394334D01*
X40363666Y34669500D01*
X38670333Y34669500D01*
G36*
X38670333Y36151167D02*
G01*
X38670333Y36027695D01*
X38672582Y35958776D01*
X38678401Y35908125D01*
X38684444Y35890111D01*
X38708042Y35887003D01*
X38769351Y35884132D01*
X38863752Y35881574D01*
X38986622Y35879408D01*
X39133341Y35877710D01*
X39299287Y35876557D01*
X39479840Y35876027D01*
X39531111Y35876000D01*
X40363666Y35876000D01*
X40363666Y36151167D01*
X38670333Y36151167D01*
G37*
X38670333Y36151167D02*
X38670333Y36027695D01*
X38672582Y35958776D01*
X38678401Y35908125D01*
X38684444Y35890111D01*
X38708042Y35887003D01*
X38769351Y35884132D01*
X38863752Y35881574D01*
X38986622Y35879408D01*
X39133341Y35877710D01*
X39299287Y35876557D01*
X39479840Y35876027D01*
X39531111Y35876000D01*
X40363666Y35876000D01*
X40363666Y36151167D01*
X38670333Y36151167D01*
G36*
X40359302Y36515601D02*
G01*
X40353083Y36668369D01*
X39845083Y36821079D01*
X39337083Y36973788D01*
X39850375Y36975227D01*
X40363666Y36976667D01*
X40363666Y37251834D01*
X38670333Y37251834D01*
X38670333Y36963103D01*
X39654583Y36641777D01*
X39162458Y36639889D01*
X38670333Y36638000D01*
X38670333Y36362834D01*
X40365521Y36362834D01*
X40359302Y36515601D01*
G37*
X40359302Y36515601D02*
X40353083Y36668369D01*
X39845083Y36821079D01*
X39337083Y36973788D01*
X39850375Y36975227D01*
X40363666Y36976667D01*
X40363666Y37251834D01*
X38670333Y37251834D01*
X38670333Y36963103D01*
X39654583Y36641777D01*
X39162458Y36639889D01*
X38670333Y36638000D01*
X38670333Y36362834D01*
X40365521Y36362834D01*
X40359302Y36515601D01*
G36*
X44845708Y20106952D02*
G01*
X44424081Y20107153D01*
X44037317Y20107714D01*
X43686155Y20108627D01*
X43371333Y20109886D01*
X43093586Y20111486D01*
X42853652Y20113420D01*
X42652269Y20115682D01*
X42490174Y20118266D01*
X42368104Y20121167D01*
X42286796Y20124377D01*
X42246987Y20127891D01*
X42244903Y20128369D01*
X42168323Y20164108D01*
X42083700Y20226035D01*
X42003395Y20303245D01*
X41939771Y20384836D01*
X41924452Y20411036D01*
X41889689Y20512164D01*
X41876294Y20631956D01*
X41884305Y20753331D01*
X41913755Y20859209D01*
X41923482Y20879417D01*
X42011004Y21001150D01*
X42127498Y21099552D01*
X42205166Y21142338D01*
X42220107Y21148803D01*
X42236314Y21154587D01*
X42256106Y21159728D01*
X42281800Y21164265D01*
X42315716Y21168236D01*
X42360171Y21171680D01*
X42417486Y21174634D01*
X42489977Y21177137D01*
X42579964Y21179228D01*
X42689765Y21180944D01*
X42821699Y21182325D01*
X42978084Y21183409D01*
X43161238Y21184233D01*
X43373481Y21184837D01*
X43617131Y21185258D01*
X43894505Y21185536D01*
X44207924Y21185708D01*
X44559705Y21185814D01*
X44835125Y21185869D01*
X47369833Y21186334D01*
X47369833Y22224773D01*
X44761041Y22218575D01*
X42152250Y22212377D01*
X41987140Y22165615D01*
X41791684Y22097907D01*
X41620495Y22009783D01*
X41461088Y21893826D01*
X41337003Y21779391D01*
X41176061Y21599993D01*
X41053575Y21419295D01*
X40966170Y21229480D01*
X40910472Y21022733D01*
X40883108Y20791235D01*
X40880057Y20720667D01*
X40879505Y20542675D01*
X40889153Y20401959D01*
X40901398Y20329084D01*
X40976441Y20093440D01*
X41088184Y19874740D01*
X41233145Y19676609D01*
X41407840Y19502674D01*
X41608785Y19356560D01*
X41832498Y19241892D01*
X42004083Y19181311D01*
X42025249Y19175816D01*
X42050500Y19170875D01*
X42082129Y19166453D01*
X42122428Y19162514D01*
X42173689Y19159021D01*
X42238203Y19155940D01*
X42318263Y19153233D01*
X42416160Y19150865D01*
X42534186Y19148799D01*
X42674633Y19147001D01*
X42839793Y19145434D01*
X43031957Y19144061D01*
X43253418Y19142848D01*
X43506467Y19141757D01*
X43793397Y19140754D01*
X44116499Y19139802D01*
X44478065Y19138864D01*
X44750458Y19138209D01*
X47369833Y19132050D01*
X47369833Y20106834D01*
X44845708Y20106952D01*
G37*
X44845708Y20106952D02*
X44424081Y20107153D01*
X44037317Y20107714D01*
X43686155Y20108627D01*
X43371333Y20109886D01*
X43093586Y20111486D01*
X42853652Y20113420D01*
X42652269Y20115682D01*
X42490174Y20118266D01*
X42368104Y20121167D01*
X42286796Y20124377D01*
X42246987Y20127891D01*
X42244903Y20128369D01*
X42168323Y20164108D01*
X42083700Y20226035D01*
X42003395Y20303245D01*
X41939771Y20384836D01*
X41924452Y20411036D01*
X41889689Y20512164D01*
X41876294Y20631956D01*
X41884305Y20753331D01*
X41913755Y20859209D01*
X41923482Y20879417D01*
X42011004Y21001150D01*
X42127498Y21099552D01*
X42205166Y21142338D01*
X42220107Y21148803D01*
X42236314Y21154587D01*
X42256106Y21159728D01*
X42281800Y21164265D01*
X42315716Y21168236D01*
X42360171Y21171680D01*
X42417486Y21174634D01*
X42489977Y21177137D01*
X42579964Y21179228D01*
X42689765Y21180944D01*
X42821699Y21182325D01*
X42978084Y21183409D01*
X43161238Y21184233D01*
X43373481Y21184837D01*
X43617131Y21185258D01*
X43894505Y21185536D01*
X44207924Y21185708D01*
X44559705Y21185814D01*
X44835125Y21185869D01*
X47369833Y21186334D01*
X47369833Y22224773D01*
X44761041Y22218575D01*
X42152250Y22212377D01*
X41987140Y22165615D01*
X41791684Y22097907D01*
X41620495Y22009783D01*
X41461088Y21893826D01*
X41337003Y21779391D01*
X41176061Y21599993D01*
X41053575Y21419295D01*
X40966170Y21229480D01*
X40910472Y21022733D01*
X40883108Y20791235D01*
X40880057Y20720667D01*
X40879505Y20542675D01*
X40889153Y20401959D01*
X40901398Y20329084D01*
X40976441Y20093440D01*
X41088184Y19874740D01*
X41233145Y19676609D01*
X41407840Y19502674D01*
X41608785Y19356560D01*
X41832498Y19241892D01*
X42004083Y19181311D01*
X42025249Y19175816D01*
X42050500Y19170875D01*
X42082129Y19166453D01*
X42122428Y19162514D01*
X42173689Y19159021D01*
X42238203Y19155940D01*
X42318263Y19153233D01*
X42416160Y19150865D01*
X42534186Y19148799D01*
X42674633Y19147001D01*
X42839793Y19145434D01*
X43031957Y19144061D01*
X43253418Y19142848D01*
X43506467Y19141757D01*
X43793397Y19140754D01*
X44116499Y19139802D01*
X44478065Y19138864D01*
X44750458Y19138209D01*
X47369833Y19132050D01*
X47369833Y20106834D01*
X44845708Y20106952D01*
G36*
X47436155Y24803506D02*
G01*
X47416229Y24966383D01*
X47395363Y25062705D01*
X47311249Y25296193D01*
X47192720Y25506477D01*
X47042206Y25691198D01*
X46862140Y25847997D01*
X46654952Y25974514D01*
X46423072Y26068390D01*
X46332666Y26094085D01*
X46237697Y26116448D01*
X46142010Y26136162D01*
X46067170Y26148829D01*
X45960423Y26163268D01*
X45791119Y25219166D01*
X45962200Y25184530D01*
X46152527Y25131915D01*
X46307373Y25058573D01*
X46426137Y24965009D01*
X46508214Y24851729D01*
X46553000Y24719236D01*
X46557939Y24686294D01*
X46555867Y24544753D01*
X46515653Y24419340D01*
X46439049Y24312028D01*
X46327811Y24224788D01*
X46183692Y24159594D01*
X46061028Y24127506D01*
X45865076Y24110370D01*
X45662971Y24134231D01*
X45456465Y24198497D01*
X45247307Y24302574D01*
X45037247Y24445870D01*
X44976227Y24494830D01*
X44919914Y24546340D01*
X44843018Y24623501D01*
X44752039Y24719429D01*
X44653474Y24827236D01*
X44553824Y24940038D01*
X44530168Y24967438D01*
X44323017Y25201121D01*
X44130902Y25401268D01*
X43948996Y25571726D01*
X43772468Y25716342D01*
X43596489Y25838962D01*
X43416231Y25943435D01*
X43226865Y26033606D01*
X43153421Y26064156D01*
X42965731Y26131793D01*
X42794996Y26174884D01*
X42625768Y26196131D01*
X42442601Y26198232D01*
X42397273Y26196311D01*
X42218373Y26182458D01*
X42065457Y26158191D01*
X41922661Y26119488D01*
X41774123Y26062323D01*
X41656883Y26008520D01*
X41444217Y25885014D01*
X41264500Y25734932D01*
X41117644Y25558168D01*
X41003561Y25354620D01*
X40924793Y25133917D01*
X40905943Y25037547D01*
X40891914Y24911340D01*
X40883031Y24767552D01*
X40879619Y24618439D01*
X40882004Y24476259D01*
X40890513Y24353267D01*
X40902002Y24276667D01*
X40973765Y24032920D01*
X41080473Y23812696D01*
X41221466Y23616619D01*
X41396085Y23445310D01*
X41603669Y23299395D01*
X41843558Y23179495D01*
X42115094Y23086234D01*
X42180824Y23068900D01*
X42247948Y23054181D01*
X42333326Y23038373D01*
X42427471Y23022854D01*
X42520899Y23009007D01*
X42604126Y22998212D01*
X42667667Y22991849D01*
X42702038Y22991300D01*
X42705307Y22992550D01*
X42707423Y23013736D01*
X42711661Y23070527D01*
X42717561Y23156274D01*
X42724668Y23264328D01*
X42732499Y23387667D01*
X42741002Y23518012D01*
X42749564Y23639024D01*
X42757534Y23742232D01*
X42764263Y23819169D01*
X42768672Y23858625D01*
X42773979Y23910341D01*
X42764112Y23932718D01*
X42731600Y23938044D01*
X42720319Y23938148D01*
X42643818Y23945990D01*
X42541492Y23966812D01*
X42426461Y23997000D01*
X42311843Y24032940D01*
X42210760Y24071017D01*
X42168480Y24090176D01*
X42066221Y24152369D01*
X41968907Y24232562D01*
X41885789Y24321302D01*
X41826120Y24409132D01*
X41803869Y24462760D01*
X41783579Y24607265D01*
X41801634Y24744729D01*
X41854164Y24871273D01*
X41937299Y24983018D01*
X42047169Y25076084D01*
X42179905Y25146592D01*
X42331635Y25190663D01*
X42498490Y25204418D01*
X42542035Y25202670D01*
X42668360Y25189438D01*
X42782993Y25164856D01*
X42891334Y25125651D01*
X42998782Y25068549D01*
X43110737Y24990274D01*
X43232601Y24887554D01*
X43369772Y24757113D01*
X43506198Y24618083D01*
X43724298Y24391767D01*
X43916582Y24194318D01*
X44085765Y24023324D01*
X44234556Y23876373D01*
X44365669Y23751055D01*
X44481816Y23644956D01*
X44585708Y23555667D01*
X44680058Y23480774D01*
X44767578Y23417867D01*
X44850979Y23364534D01*
X44932975Y23318363D01*
X45012353Y23278790D01*
X45192541Y23203368D01*
X45369089Y23151147D01*
X45554764Y23119496D01*
X45762329Y23105781D01*
X45856416Y23104730D01*
X46126114Y23117911D01*
X46365975Y23157624D01*
X46580477Y23225608D01*
X46774098Y23323604D01*
X46951315Y23453352D01*
X47085234Y23582193D01*
X47216217Y23745313D01*
X47316240Y23924134D01*
X47391355Y24129572D01*
X47394306Y24139827D01*
X47422969Y24279717D01*
X47439508Y24446246D01*
X47443909Y24625485D01*
X47436155Y24803506D01*
G37*
X47436155Y24803506D02*
X47416229Y24966383D01*
X47395363Y25062705D01*
X47311249Y25296193D01*
X47192720Y25506477D01*
X47042206Y25691198D01*
X46862140Y25847997D01*
X46654952Y25974514D01*
X46423072Y26068390D01*
X46332666Y26094085D01*
X46237697Y26116448D01*
X46142010Y26136162D01*
X46067170Y26148829D01*
X45960423Y26163268D01*
X45791119Y25219166D01*
X45962200Y25184530D01*
X46152527Y25131915D01*
X46307373Y25058573D01*
X46426137Y24965009D01*
X46508214Y24851729D01*
X46553000Y24719236D01*
X46557939Y24686294D01*
X46555867Y24544753D01*
X46515653Y24419340D01*
X46439049Y24312028D01*
X46327811Y24224788D01*
X46183692Y24159594D01*
X46061028Y24127506D01*
X45865076Y24110370D01*
X45662971Y24134231D01*
X45456465Y24198497D01*
X45247307Y24302574D01*
X45037247Y24445870D01*
X44976227Y24494830D01*
X44919914Y24546340D01*
X44843018Y24623501D01*
X44752039Y24719429D01*
X44653474Y24827236D01*
X44553824Y24940038D01*
X44530168Y24967438D01*
X44323017Y25201121D01*
X44130902Y25401268D01*
X43948996Y25571726D01*
X43772468Y25716342D01*
X43596489Y25838962D01*
X43416231Y25943435D01*
X43226865Y26033606D01*
X43153421Y26064156D01*
X42965731Y26131793D01*
X42794996Y26174884D01*
X42625768Y26196131D01*
X42442601Y26198232D01*
X42397273Y26196311D01*
X42218373Y26182458D01*
X42065457Y26158191D01*
X41922661Y26119488D01*
X41774123Y26062323D01*
X41656883Y26008520D01*
X41444217Y25885014D01*
X41264500Y25734932D01*
X41117644Y25558168D01*
X41003561Y25354620D01*
X40924793Y25133917D01*
X40905943Y25037547D01*
X40891914Y24911340D01*
X40883031Y24767552D01*
X40879619Y24618439D01*
X40882004Y24476259D01*
X40890513Y24353267D01*
X40902002Y24276667D01*
X40973765Y24032920D01*
X41080473Y23812696D01*
X41221466Y23616619D01*
X41396085Y23445310D01*
X41603669Y23299395D01*
X41843558Y23179495D01*
X42115094Y23086234D01*
X42180824Y23068900D01*
X42247948Y23054181D01*
X42333326Y23038373D01*
X42427471Y23022854D01*
X42520899Y23009007D01*
X42604126Y22998212D01*
X42667667Y22991849D01*
X42702038Y22991300D01*
X42705307Y22992550D01*
X42707423Y23013736D01*
X42711661Y23070527D01*
X42717561Y23156274D01*
X42724668Y23264328D01*
X42732499Y23387667D01*
X42741002Y23518012D01*
X42749564Y23639024D01*
X42757534Y23742232D01*
X42764263Y23819169D01*
X42768672Y23858625D01*
X42773979Y23910341D01*
X42764112Y23932718D01*
X42731600Y23938044D01*
X42720319Y23938148D01*
X42643818Y23945990D01*
X42541492Y23966812D01*
X42426461Y23997000D01*
X42311843Y24032940D01*
X42210760Y24071017D01*
X42168480Y24090176D01*
X42066221Y24152369D01*
X41968907Y24232562D01*
X41885789Y24321302D01*
X41826120Y24409132D01*
X41803869Y24462760D01*
X41783579Y24607265D01*
X41801634Y24744729D01*
X41854164Y24871273D01*
X41937299Y24983018D01*
X42047169Y25076084D01*
X42179905Y25146592D01*
X42331635Y25190663D01*
X42498490Y25204418D01*
X42542035Y25202670D01*
X42668360Y25189438D01*
X42782993Y25164856D01*
X42891334Y25125651D01*
X42998782Y25068549D01*
X43110737Y24990274D01*
X43232601Y24887554D01*
X43369772Y24757113D01*
X43506198Y24618083D01*
X43724298Y24391767D01*
X43916582Y24194318D01*
X44085765Y24023324D01*
X44234556Y23876373D01*
X44365669Y23751055D01*
X44481816Y23644956D01*
X44585708Y23555667D01*
X44680058Y23480774D01*
X44767578Y23417867D01*
X44850979Y23364534D01*
X44932975Y23318363D01*
X45012353Y23278790D01*
X45192541Y23203368D01*
X45369089Y23151147D01*
X45554764Y23119496D01*
X45762329Y23105781D01*
X45856416Y23104730D01*
X46126114Y23117911D01*
X46365975Y23157624D01*
X46580477Y23225608D01*
X46774098Y23323604D01*
X46951315Y23453352D01*
X47085234Y23582193D01*
X47216217Y23745313D01*
X47316240Y23924134D01*
X47391355Y24129572D01*
X47394306Y24139827D01*
X47422969Y24279717D01*
X47439508Y24446246D01*
X47443909Y24625485D01*
X47436155Y24803506D01*
G36*
X47437257Y32667579D02*
G01*
X47416830Y32815215D01*
X47403902Y32870334D01*
X47319773Y33098906D01*
X47198575Y33313014D01*
X47044537Y33507494D01*
X46861888Y33677179D01*
X46654858Y33816906D01*
X46607833Y33842400D01*
X46558234Y33868559D01*
X46514338Y33891672D01*
X46473344Y33911934D01*
X46432448Y33929544D01*
X46388849Y33944697D01*
X46339743Y33957591D01*
X46282328Y33968422D01*
X46213802Y33977388D01*
X46131362Y33984684D01*
X46032206Y33990507D01*
X45913530Y33995054D01*
X45772533Y33998523D01*
X45606412Y34001109D01*
X45412364Y34003010D01*
X45187587Y34004422D01*
X44929278Y34005541D01*
X44634635Y34006566D01*
X44300856Y34007692D01*
X44250791Y34007869D01*
X43903318Y34009065D01*
X43595409Y34009950D01*
X43324294Y34010409D01*
X43087202Y34010330D01*
X42881364Y34009598D01*
X42704010Y34008100D01*
X42552371Y34005722D01*
X42423677Y34002351D01*
X42315157Y33997872D01*
X42224044Y33992173D01*
X42147566Y33985139D01*
X42082954Y33976658D01*
X42027439Y33966614D01*
X41978250Y33954895D01*
X41932618Y33941388D01*
X41887773Y33925977D01*
X41842247Y33909043D01*
X41644356Y33813062D01*
X41456217Y33681368D01*
X41284605Y33520476D01*
X41136294Y33336904D01*
X41018057Y33137166D01*
X41000013Y33098945D01*
X40931625Y32905304D01*
X40889093Y32689480D01*
X40873582Y32463674D01*
X40886258Y32240091D01*
X40906416Y32118917D01*
X40974832Y31894969D01*
X41080564Y31684338D01*
X41219603Y31491164D01*
X41387939Y31319587D01*
X41581561Y31173745D01*
X41796459Y31057780D01*
X42008306Y30981374D01*
X42037840Y30973294D01*
X42066985Y30966201D01*
X42098602Y30960018D01*
X42135550Y30954668D01*
X42180689Y30950077D01*
X42236878Y30946166D01*
X42306977Y30942860D01*
X42393845Y30940083D01*
X42500343Y30937759D01*
X42629329Y30935810D01*
X42783663Y30934161D01*
X42966205Y30932735D01*
X43179814Y30931456D01*
X43427350Y30930248D01*
X43711672Y30929034D01*
X44014916Y30927821D01*
X44172145Y30927322D01*
X44172145Y31896785D01*
X43846018Y31896840D01*
X43559545Y31897079D01*
X43310050Y31897548D01*
X43094855Y31898290D01*
X42911282Y31899352D01*
X42756653Y31900777D01*
X42628291Y31902610D01*
X42523517Y31904896D01*
X42439653Y31907680D01*
X42374023Y31911006D01*
X42323948Y31914920D01*
X42286751Y31919466D01*
X42259753Y31924689D01*
X42244793Y31929007D01*
X42114143Y31994617D01*
X42009629Y32090715D01*
X41935078Y32211812D01*
X41894317Y32352420D01*
X41887666Y32441253D01*
X41892363Y32525319D01*
X41904499Y32603070D01*
X41916769Y32645011D01*
X41978892Y32748920D01*
X42069639Y32844139D01*
X42175585Y32917062D01*
X42194429Y32926397D01*
X42300416Y32975753D01*
X44160627Y32975960D01*
X44513338Y32975830D01*
X44825501Y32975342D01*
X45098898Y32974472D01*
X45335313Y32973199D01*
X45536530Y32971500D01*
X45704332Y32969352D01*
X45840503Y32966732D01*
X45946825Y32963618D01*
X46025082Y32959988D01*
X46077059Y32955817D01*
X46103922Y32951274D01*
X46193700Y32908253D01*
X46285337Y32837739D01*
X46365411Y32751720D01*
X46415560Y32672912D01*
X46454316Y32547966D01*
X46460549Y32410154D01*
X46434687Y32273191D01*
X46400554Y32190512D01*
X46325966Y32082662D01*
X46228731Y31992926D01*
X46120755Y31931501D01*
X46083424Y31918799D01*
X46045754Y31914421D01*
X45966327Y31910511D01*
X45845714Y31907077D01*
X45684489Y31904124D01*
X45483223Y31901660D01*
X45242490Y31899691D01*
X44962862Y31898222D01*
X44644912Y31897263D01*
X44289212Y31896817D01*
X44172145Y31896785D01*
X44172145Y30927322D01*
X44401741Y30926591D01*
X44749984Y30926110D01*
X45059175Y30926374D01*
X45328841Y30927379D01*
X45558513Y30929121D01*
X45747717Y30931598D01*
X45895985Y30934806D01*
X46002843Y30938741D01*
X46065475Y30943139D01*
X46282604Y30977922D01*
X46473806Y31034869D01*
X46648328Y31118497D01*
X46815419Y31233318D01*
X46984329Y31383848D01*
X46999879Y31399245D01*
X47133812Y31544724D01*
X47237097Y31686866D01*
X47317945Y31839123D01*
X47384572Y32014948D01*
X47394048Y32044834D01*
X47423239Y32176133D01*
X47440287Y32333429D01*
X47445018Y32502114D01*
X47437257Y32667579D01*
G37*
X47437257Y32667579D02*
X47416830Y32815215D01*
X47403902Y32870334D01*
X47319773Y33098906D01*
X47198575Y33313014D01*
X47044537Y33507494D01*
X46861888Y33677179D01*
X46654858Y33816906D01*
X46607833Y33842400D01*
X46558234Y33868559D01*
X46514338Y33891672D01*
X46473344Y33911934D01*
X46432448Y33929544D01*
X46388849Y33944697D01*
X46339743Y33957591D01*
X46282328Y33968422D01*
X46213802Y33977388D01*
X46131362Y33984684D01*
X46032206Y33990507D01*
X45913530Y33995054D01*
X45772533Y33998523D01*
X45606412Y34001109D01*
X45412364Y34003010D01*
X45187587Y34004422D01*
X44929278Y34005541D01*
X44634635Y34006566D01*
X44300856Y34007692D01*
X44250791Y34007869D01*
X43903318Y34009065D01*
X43595409Y34009950D01*
X43324294Y34010409D01*
X43087202Y34010330D01*
X42881364Y34009598D01*
X42704010Y34008100D01*
X42552371Y34005722D01*
X42423677Y34002351D01*
X42315157Y33997872D01*
X42224044Y33992173D01*
X42147566Y33985139D01*
X42082954Y33976658D01*
X42027439Y33966614D01*
X41978250Y33954895D01*
X41932618Y33941388D01*
X41887773Y33925977D01*
X41842247Y33909043D01*
X41644356Y33813062D01*
X41456217Y33681368D01*
X41284605Y33520476D01*
X41136294Y33336904D01*
X41018057Y33137166D01*
X41000013Y33098945D01*
X40931625Y32905304D01*
X40889093Y32689480D01*
X40873582Y32463674D01*
X40886258Y32240091D01*
X40906416Y32118917D01*
X40974832Y31894969D01*
X41080564Y31684338D01*
X41219603Y31491164D01*
X41387939Y31319587D01*
X41581561Y31173745D01*
X41796459Y31057780D01*
X42008306Y30981374D01*
X42037840Y30973294D01*
X42066985Y30966201D01*
X42098602Y30960018D01*
X42135550Y30954668D01*
X42180689Y30950077D01*
X42236878Y30946166D01*
X42306977Y30942860D01*
X42393845Y30940083D01*
X42500343Y30937759D01*
X42629329Y30935810D01*
X42783663Y30934161D01*
X42966205Y30932735D01*
X43179814Y30931456D01*
X43427350Y30930248D01*
X43711672Y30929034D01*
X44014916Y30927821D01*
X44172145Y30927322D01*
X44172145Y31896785D01*
X43846018Y31896840D01*
X43559545Y31897079D01*
X43310050Y31897548D01*
X43094855Y31898290D01*
X42911282Y31899352D01*
X42756653Y31900777D01*
X42628291Y31902610D01*
X42523517Y31904896D01*
X42439653Y31907680D01*
X42374023Y31911006D01*
X42323948Y31914920D01*
X42286751Y31919466D01*
X42259753Y31924689D01*
X42244793Y31929007D01*
X42114143Y31994617D01*
X42009629Y32090715D01*
X41935078Y32211812D01*
X41894317Y32352420D01*
X41887666Y32441253D01*
X41892363Y32525319D01*
X41904499Y32603070D01*
X41916769Y32645011D01*
X41978892Y32748920D01*
X42069639Y32844139D01*
X42175585Y32917062D01*
X42194429Y32926397D01*
X42300416Y32975753D01*
X44160627Y32975960D01*
X44513338Y32975830D01*
X44825501Y32975342D01*
X45098898Y32974472D01*
X45335313Y32973199D01*
X45536530Y32971500D01*
X45704332Y32969352D01*
X45840503Y32966732D01*
X45946825Y32963618D01*
X46025082Y32959988D01*
X46077059Y32955817D01*
X46103922Y32951274D01*
X46193700Y32908253D01*
X46285337Y32837739D01*
X46365411Y32751720D01*
X46415560Y32672912D01*
X46454316Y32547966D01*
X46460549Y32410154D01*
X46434687Y32273191D01*
X46400554Y32190512D01*
X46325966Y32082662D01*
X46228731Y31992926D01*
X46120755Y31931501D01*
X46083424Y31918799D01*
X46045754Y31914421D01*
X45966327Y31910511D01*
X45845714Y31907077D01*
X45684489Y31904124D01*
X45483223Y31901660D01*
X45242490Y31899691D01*
X44962862Y31898222D01*
X44644912Y31897263D01*
X44289212Y31896817D01*
X44172145Y31896785D01*
X44172145Y30927322D01*
X44401741Y30926591D01*
X44749984Y30926110D01*
X45059175Y30926374D01*
X45328841Y30927379D01*
X45558513Y30929121D01*
X45747717Y30931598D01*
X45895985Y30934806D01*
X46002843Y30938741D01*
X46065475Y30943139D01*
X46282604Y30977922D01*
X46473806Y31034869D01*
X46648328Y31118497D01*
X46815419Y31233318D01*
X46984329Y31383848D01*
X46999879Y31399245D01*
X47133812Y31544724D01*
X47237097Y31686866D01*
X47317945Y31839123D01*
X47384572Y32014948D01*
X47394048Y32044834D01*
X47423239Y32176133D01*
X47440287Y32333429D01*
X47445018Y32502114D01*
X47437257Y32667579D01*
G36*
X46063158Y14202659D02*
G01*
X45844146Y14092582D01*
X45636197Y13988283D01*
X45442400Y13891296D01*
X45265847Y13803159D01*
X45109627Y13725408D01*
X44976830Y13659578D01*
X44870546Y13607207D01*
X44793865Y13569829D01*
X44749878Y13548982D01*
X44740278Y13545023D01*
X44718878Y13552875D01*
X44661029Y13575652D01*
X44569462Y13612247D01*
X44446908Y13661554D01*
X44296098Y13722465D01*
X44119764Y13793876D01*
X43920636Y13874679D01*
X43701447Y13963769D01*
X43464927Y14060038D01*
X43213808Y14162380D01*
X42950820Y14269689D01*
X42877612Y14299584D01*
X42611290Y14408299D01*
X42355694Y14512533D01*
X42113596Y14611159D01*
X41887771Y14703053D01*
X41680995Y14787088D01*
X41496042Y14862139D01*
X41335685Y14927080D01*
X41202700Y14980786D01*
X41099862Y15022131D01*
X41029944Y15049989D01*
X40995721Y15063236D01*
X40993030Y15064142D01*
X40981951Y15064958D01*
X40973385Y15057627D01*
X40967075Y15037588D01*
X40962765Y15000281D01*
X40960202Y14941146D01*
X40959129Y14855622D01*
X40959290Y14739149D01*
X40960431Y14587167D01*
X40961280Y14497321D01*
X40966916Y13920358D01*
X42041149Y13501563D01*
X42250937Y13419785D01*
X42454867Y13340308D01*
X42648394Y13264902D01*
X42826976Y13195335D01*
X42986070Y13133378D01*
X43121134Y13080799D01*
X43227625Y13039368D01*
X43301000Y13010854D01*
X43319750Y13003581D01*
X43524119Y12924395D01*
X43261518Y12791381D01*
X42998916Y12658366D01*
X41977625Y12657267D01*
X40956333Y12656167D01*
X40956333Y11661334D01*
X47369833Y11661334D01*
X47369833Y12655789D01*
X46263927Y12661270D01*
X45158021Y12666750D01*
X46258635Y13231641D01*
X47359250Y13796531D01*
X47370566Y14860439D01*
X46063158Y14202659D01*
G37*
X46063158Y14202659D02*
X45844146Y14092582D01*
X45636197Y13988283D01*
X45442400Y13891296D01*
X45265847Y13803159D01*
X45109627Y13725408D01*
X44976830Y13659578D01*
X44870546Y13607207D01*
X44793865Y13569829D01*
X44749878Y13548982D01*
X44740278Y13545023D01*
X44718878Y13552875D01*
X44661029Y13575652D01*
X44569462Y13612247D01*
X44446908Y13661554D01*
X44296098Y13722465D01*
X44119764Y13793876D01*
X43920636Y13874679D01*
X43701447Y13963769D01*
X43464927Y14060038D01*
X43213808Y14162380D01*
X42950820Y14269689D01*
X42877612Y14299584D01*
X42611290Y14408299D01*
X42355694Y14512533D01*
X42113596Y14611159D01*
X41887771Y14703053D01*
X41680995Y14787088D01*
X41496042Y14862139D01*
X41335685Y14927080D01*
X41202700Y14980786D01*
X41099862Y15022131D01*
X41029944Y15049989D01*
X40995721Y15063236D01*
X40993030Y15064142D01*
X40981951Y15064958D01*
X40973385Y15057627D01*
X40967075Y15037588D01*
X40962765Y15000281D01*
X40960202Y14941146D01*
X40959129Y14855622D01*
X40959290Y14739149D01*
X40960431Y14587167D01*
X40961280Y14497321D01*
X40966916Y13920358D01*
X42041149Y13501563D01*
X42250937Y13419785D01*
X42454867Y13340308D01*
X42648394Y13264902D01*
X42826976Y13195335D01*
X42986070Y13133378D01*
X43121134Y13080799D01*
X43227625Y13039368D01*
X43301000Y13010854D01*
X43319750Y13003581D01*
X43524119Y12924395D01*
X43261518Y12791381D01*
X42998916Y12658366D01*
X41977625Y12657267D01*
X40956333Y12656167D01*
X40956333Y11661334D01*
X47369833Y11661334D01*
X47369833Y12655789D01*
X46263927Y12661270D01*
X45158021Y12666750D01*
X46258635Y13231641D01*
X47359250Y13796531D01*
X47370566Y14860439D01*
X46063158Y14202659D01*
G36*
X41930000Y16826000D02*
G01*
X41930000Y18498167D01*
X40956333Y18498167D01*
X40956333Y15852334D01*
X47369833Y15852334D01*
X47369833Y16826000D01*
X41930000Y16826000D01*
G37*
X41930000Y16826000D02*
X41930000Y18498167D01*
X40956333Y18498167D01*
X40956333Y15852334D01*
X47369833Y15852334D01*
X47369833Y16826000D01*
X41930000Y16826000D01*
G36*
X44660500Y27980834D02*
G01*
X44660500Y29102667D01*
X47369833Y29102667D01*
X47369833Y30097500D01*
X40956333Y30097500D01*
X40956333Y29102667D01*
X43665666Y29102667D01*
X43665666Y27980834D01*
X40956333Y27980834D01*
X40956333Y26986000D01*
X47369833Y26986000D01*
X47369833Y27980834D01*
X44660500Y27980834D01*
G37*
X44660500Y27980834D02*
X44660500Y29102667D01*
X47369833Y29102667D01*
X47369833Y30097500D01*
X40956333Y30097500D01*
X40956333Y29102667D01*
X43665666Y29102667D01*
X43665666Y27980834D01*
X40956333Y27980834D01*
X40956333Y26986000D01*
X47369833Y26986000D01*
X47369833Y27980834D01*
X44660500Y27980834D01*
G36*
X46253291Y35833967D02*
G01*
X45136750Y35834268D01*
X46253291Y36407077D01*
X47369833Y36979886D01*
X47369833Y38036261D01*
X46060113Y37379464D01*
X45840943Y37269637D01*
X45632940Y37165564D01*
X45439183Y37068775D01*
X45262749Y36980802D01*
X45106718Y36903174D01*
X44974169Y36837422D01*
X44868180Y36785076D01*
X44791831Y36747666D01*
X44748199Y36726724D01*
X44738823Y36722667D01*
X44717996Y36730491D01*
X44660692Y36753232D01*
X44569620Y36789789D01*
X44447490Y36839065D01*
X44297010Y36899960D01*
X44120891Y36971376D01*
X43921841Y37052212D01*
X43702571Y37141371D01*
X43465789Y37237753D01*
X43214205Y37340259D01*
X42950530Y37447791D01*
X42860160Y37484667D01*
X42592877Y37593672D01*
X42336651Y37698016D01*
X42094203Y37796597D01*
X41868256Y37888317D01*
X41661533Y37972074D01*
X41476758Y38046769D01*
X41316652Y38111301D01*
X41183938Y38164571D01*
X41081339Y38205477D01*
X41011579Y38232920D01*
X40977379Y38245800D01*
X40974360Y38246667D01*
X40969501Y38226352D01*
X40965562Y38168799D01*
X40962660Y38079096D01*
X40960910Y37962331D01*
X40960429Y37823591D01*
X40961285Y37672688D01*
X40966916Y37098709D01*
X41940583Y36719589D01*
X42145634Y36639740D01*
X42349051Y36560514D01*
X42545331Y36484054D01*
X42728975Y36412503D01*
X42894480Y36348005D01*
X43036345Y36292704D01*
X43149070Y36248743D01*
X43219404Y36221293D01*
X43524558Y36102115D01*
X43261737Y35968991D01*
X42998916Y35835866D01*
X41977625Y35834767D01*
X40956333Y35833667D01*
X40956333Y34838834D01*
X47369833Y34838834D01*
X47369833Y35833667D01*
X46253291Y35833967D01*
G37*
X46253291Y35833967D02*
X45136750Y35834268D01*
X46253291Y36407077D01*
X47369833Y36979886D01*
X47369833Y38036261D01*
X46060113Y37379464D01*
X45840943Y37269637D01*
X45632940Y37165564D01*
X45439183Y37068775D01*
X45262749Y36980802D01*
X45106718Y36903174D01*
X44974169Y36837422D01*
X44868180Y36785076D01*
X44791831Y36747666D01*
X44748199Y36726724D01*
X44738823Y36722667D01*
X44717996Y36730491D01*
X44660692Y36753232D01*
X44569620Y36789789D01*
X44447490Y36839065D01*
X44297010Y36899960D01*
X44120891Y36971376D01*
X43921841Y37052212D01*
X43702571Y37141371D01*
X43465789Y37237753D01*
X43214205Y37340259D01*
X42950530Y37447791D01*
X42860160Y37484667D01*
X42592877Y37593672D01*
X42336651Y37698016D01*
X42094203Y37796597D01*
X41868256Y37888317D01*
X41661533Y37972074D01*
X41476758Y38046769D01*
X41316652Y38111301D01*
X41183938Y38164571D01*
X41081339Y38205477D01*
X41011579Y38232920D01*
X40977379Y38245800D01*
X40974360Y38246667D01*
X40969501Y38226352D01*
X40965562Y38168799D01*
X40962660Y38079096D01*
X40960910Y37962331D01*
X40960429Y37823591D01*
X40961285Y37672688D01*
X40966916Y37098709D01*
X41940583Y36719589D01*
X42145634Y36639740D01*
X42349051Y36560514D01*
X42545331Y36484054D01*
X42728975Y36412503D01*
X42894480Y36348005D01*
X43036345Y36292704D01*
X43149070Y36248743D01*
X43219404Y36221293D01*
X43524558Y36102115D01*
X43261737Y35968991D01*
X42998916Y35835866D01*
X41977625Y35834767D01*
X40956333Y35833667D01*
X40956333Y34838834D01*
X47369833Y34838834D01*
X47369833Y35833667D01*
X46253291Y35833967D01*
G36*
X37744282Y19605732D02*
G01*
X37717833Y19641167D01*
X37659355Y19678385D01*
X37596869Y19674351D01*
X37553210Y19650550D01*
X37518444Y19604443D01*
X37505717Y19541952D01*
X37516330Y19481520D01*
X37539044Y19449731D01*
X37583424Y19429926D01*
X37633166Y19423018D01*
X37633166Y19535334D01*
X37615744Y19543078D01*
X37619055Y19549445D01*
X37644175Y19551978D01*
X37647278Y19549445D01*
X37644372Y19536861D01*
X37633166Y19535334D01*
X37633166Y19423018D01*
X37637290Y19422445D01*
X37702343Y19439574D01*
X37744645Y19483398D01*
X37760018Y19542567D01*
X37744282Y19605732D01*
G37*
X37744282Y19605732D02*
X37717833Y19641167D01*
X37659355Y19678385D01*
X37596869Y19674351D01*
X37553210Y19650550D01*
X37518444Y19604443D01*
X37505717Y19541952D01*
X37516330Y19481520D01*
X37539044Y19449731D01*
X37583424Y19429926D01*
X37633166Y19423018D01*
X37633166Y19535334D01*
X37615744Y19543078D01*
X37619055Y19549445D01*
X37644175Y19551978D01*
X37647278Y19549445D01*
X37644372Y19536861D01*
X37633166Y19535334D01*
X37633166Y19423018D01*
X37637290Y19422445D01*
X37702343Y19439574D01*
X37744645Y19483398D01*
X37760018Y19542567D01*
X37744282Y19605732D01*
G36*
X37681219Y17100693D02*
G01*
X37643690Y17127074D01*
X37597300Y17124694D01*
X37555271Y17090855D01*
X37547772Y17078641D01*
X37539338Y17040415D01*
X37563519Y17001659D01*
X37569666Y16995334D01*
X37618758Y16968270D01*
X37663845Y16977484D01*
X37692446Y17017776D01*
X37696666Y17048250D01*
X37681219Y17100693D01*
G37*
X37681219Y17100693D02*
X37643690Y17127074D01*
X37597300Y17124694D01*
X37555271Y17090855D01*
X37547772Y17078641D01*
X37539338Y17040415D01*
X37563519Y17001659D01*
X37569666Y16995334D01*
X37618758Y16968270D01*
X37663845Y16977484D01*
X37692446Y17017776D01*
X37696666Y17048250D01*
X37681219Y17100693D01*
G36*
X37695167Y17675469D02*
G01*
X37658771Y17708097D01*
X37615868Y17710977D01*
X37574376Y17698104D01*
X37556259Y17663418D01*
X37552585Y17637434D01*
X37554867Y17585664D01*
X37578686Y17560546D01*
X37586645Y17557579D01*
X37648173Y17553936D01*
X37691488Y17579973D01*
X37708182Y17626556D01*
X37695167Y17675469D01*
G37*
X37695167Y17675469D02*
X37658771Y17708097D01*
X37615868Y17710977D01*
X37574376Y17698104D01*
X37556259Y17663418D01*
X37552585Y17637434D01*
X37554867Y17585664D01*
X37578686Y17560546D01*
X37586645Y17557579D01*
X37648173Y17553936D01*
X37691488Y17579973D01*
X37708182Y17626556D01*
X37695167Y17675469D01*
G36*
X37705219Y18252411D02*
G01*
X37672047Y18288460D01*
X37622096Y18300648D01*
X37579234Y18285657D01*
X37555712Y18246350D01*
X37548595Y18194908D01*
X37560771Y18154459D01*
X37562611Y18152445D01*
X37605054Y18134369D01*
X37652096Y18146095D01*
X37691093Y18178760D01*
X37709403Y18223502D01*
X37705219Y18252411D01*
G37*
X37705219Y18252411D02*
X37672047Y18288460D01*
X37622096Y18300648D01*
X37579234Y18285657D01*
X37555712Y18246350D01*
X37548595Y18194908D01*
X37560771Y18154459D01*
X37562611Y18152445D01*
X37605054Y18134369D01*
X37652096Y18146095D01*
X37691093Y18178760D01*
X37709403Y18223502D01*
X37705219Y18252411D01*
%TD*%
%LPC*%
D12*
%TO.C,J2*%
X17400000Y17380000D03*
X17400000Y22460000D03*
X17400000Y27540000D03*
D13*
X17400000Y32620000D03*
D12*
X17400000Y30080000D03*
X17400000Y25000000D03*
X17400000Y19920000D03*
%TD*%
D14*
%TO.C,J3*%
X34540000Y37000000D03*
X32000000Y37000000D03*
X29460000Y37000000D03*
D15*
X26920000Y37000000D03*
%TD*%
D16*
%TO.C,J1*%
X5880000Y20680000D03*
X5880000Y29320000D03*
D17*
X5350000Y27890000D03*
D18*
X1700000Y29320000D03*
D17*
X5350000Y22110000D03*
D18*
X1700000Y20680000D03*
%TD*%
D19*
%TO.C,REF\u002A\u002A*%
X45000000Y5000000D03*
%TD*%
%TO.C,REF\u002A\u002A*%
X5000000Y5000000D03*
%TD*%
%TO.C,REF\u002A\u002A*%
X45000000Y45000000D03*
%TD*%
%TO.C,REF\u002A\u002A*%
X5000000Y45000000D03*
%TD*%
D20*
%TO.C,Y1*%
X34100000Y5520000D03*
X34100000Y10400000D03*
%TD*%
M02*
