M48
; DRILL file {KiCad (5.1.9)-1} date 09/09/21 22:45:57
; FORMAT={-:-/ absolute / inch / decimal}
; #@! TF.CreationDate,2021-09-09T22:45:57+02:00
; #@! TF.GenerationSoftware,Kicad,Pcbnew,(5.1.9)-1
; #@! TF.FileFunction,Plated,1,2,PTH
FMAT,2
INCH
T1C0.0157
T2C0.0236
T3C0.0315
T4C0.0394
T5C0.0433
%
G90
G05
T1
X0.0669Y1.0748
X0.0669Y0.8976
X0.0787Y0.5512
X0.1181Y1.4567
X0.1181Y1.2598
X0.1969Y1.0315
X0.2154Y0.9134
X0.3031Y1.2205
X0.315Y1.6535
X0.315Y1.4567
X0.3268Y0.7441
X0.3937Y0.4331
X0.3937Y0.1181
X0.4134Y1.2598
X0.4646Y1.5472
X0.5118Y1.8504
X0.5118Y0.5118
X0.5276Y1.4961
X0.562Y0.937
X0.5906Y1.1024
X0.6102Y0.2756
X0.6299Y1.4173
X0.6437Y0.435
X0.6457Y0.374
X0.7244Y0.4921
X0.7283Y0.3386
X0.7677Y1.6693
X0.7677Y1.5551
X0.8031Y0.2992
X0.811Y1.4173
X0.8661Y0.8465
X0.9055Y1.8504
X0.9055Y1.063
X0.9134Y0.4961
X0.9173Y0.7835
X0.9685Y0.7283
X0.9724Y0.1339
X0.9803Y1.6693
X0.9803Y1.5433
X1.0551Y0.6339
X1.0906Y0.2835
X1.1024Y1.811
X1.1378Y1.5433
X1.2992Y1.8504
X1.2992Y1.063
X1.2992Y0.6693
X1.311Y1.5433
X1.3465Y0.315
X1.3465Y0.1299
X1.4961Y1.6535
X1.4961Y1.2598
X1.4961Y0.8661
X1.4961Y0.4724
X1.4961Y0.0787
X1.6929Y1.4567
X1.6929Y1.063
X1.6929Y0.6693
X1.6929Y0.2756
X1.8898Y1.6535
X1.8898Y1.2598
X1.8898Y0.8661
X1.8898Y0.4724
T3
X1.3425Y0.4094
X1.3425Y0.2173
T4
X1.0598Y1.4567
X1.1598Y1.4567
X1.2598Y1.4567
X1.3598Y1.4567
T5
X0.685Y1.2843
X0.685Y1.1843
X0.685Y1.0843
X0.685Y0.9843
X0.685Y0.8843
X0.685Y0.7843
X0.685Y0.6843
T2
G00X0.0787Y1.1543
M15
G01X0.0551Y1.1543
M16
G05
G00X0.0787Y0.8142
M15
G01X0.0551Y0.8142
M16
G05
G00X0.2531Y1.1543
M15
G01X0.2098Y1.1543
M16
G05
G00X0.2531Y0.8142
M15
G01X0.2098Y0.8142
M16
G05
T0
M30
