M48
; DRILL file {KiCad (5.1.9)-1} date 09/13/21 22:43:26
; FORMAT={-:-/ absolute / inch / decimal}
; #@! TF.CreationDate,2021-09-13T22:43:26+02:00
; #@! TF.GenerationSoftware,Kicad,Pcbnew,(5.1.9)-1
; #@! TF.FileFunction,Plated,1,2,PTH
FMAT,2
INCH
T1C0.0157
T2C0.0276
T3C0.0315
T4C0.0354
T5C0.0394
%
G90
G05
T1
X3.0906Y-3.1496
X3.185Y-3.3031
X3.2559Y-3.4331
X3.312Y-3.826
X3.3228Y-3.7008
X3.37Y-3.77
X3.4Y-3.568
X3.4252Y-3.1024
X3.437Y-4.0709
X3.4669Y-3.5654
X3.4685Y-3.8386
X3.563Y-3.2874
X3.5709Y-3.9528
X3.5984Y-4.0394
X3.6417Y-2.9921
X3.6457Y-2.8465
X3.6693Y-3.8425
X3.6811Y-3.7598
X3.7106Y-3.2874
X3.7283Y-2.685
X3.7283Y-3.8898
X3.7756Y-3.7362
X3.7795Y-2.9921
X3.8189Y-3.4744
X3.8583Y-3.2874
X3.8681Y-2.7854
X3.9134Y-3.5709
X3.9173Y-2.9921
X3.9173Y-3.8287
X3.9724Y-3.5354
X3.9862Y-3.7697
X4.0118Y-3.685
X4.014Y-3.57
X4.0157Y-3.2874
X4.0157Y-3.376
X4.0354Y-3.8583
X4.0748Y-2.9921
X4.0787Y-3.437
X4.0827Y-3.6693
X4.0846Y-2.7461
X4.086Y-4.048
X4.1437Y-3.2874
X4.2205Y-2.8701
X4.2323Y-3.9173
X4.2992Y-3.0906
X4.308Y-3.6122
X4.318Y-3.794
X4.3228Y-3.3858
X4.3425Y-2.996
X4.3465Y-3.9921
X4.37Y-3.696
X4.3976Y-4.0866
X4.4567Y-3.1772
X4.6181Y-3.1457
X4.626Y-3.2323
T2
X3.2126Y-3.0858
X3.2126Y-3.3858
X3.3031Y-3.0858
X3.3031Y-3.3858
X4.4094Y-3.0858
X4.4094Y-3.3858
T3
X3.3858Y-4.0157
X3.4843Y-4.0157
X3.7795Y-2.7953
X3.7795Y-2.8937
X3.9606Y-2.7953
X3.9606Y-2.8937
X4.1535Y-4.0157
X4.252Y-4.0157
X4.5669Y-3.1024
X4.5669Y-3.2008
T4
X2.9162Y-3.1505
X2.9317Y-3.103
X2.9471Y-3.0554
X2.9626Y-3.0079
X2.9786Y-3.2069
X3.0139Y-3.2423
X3.043Y-2.9991
X3.0493Y-3.2776
X3.0846Y-3.313
X3.0925Y-2.9921
X3.142Y-2.9852
X3.1915Y-2.9782
X3.2273Y-4.1123
X3.2417Y-4.0316
X3.2504Y-3.9823
X3.259Y-3.9331
X3.2677Y-3.8839
X3.2677Y-4.1417
X3.2883Y-3.4833
X3.3037Y-3.5309
X3.3082Y-4.1711
X3.3192Y-3.5784
X3.3346Y-3.626
X3.3486Y-4.2005
X3.4224Y-4.1613
X3.4594Y-2.9602
X3.4665Y-4.1378
X3.4998Y-2.9308
X3.5107Y-4.1143
X3.5403Y-2.9014
X3.5548Y-4.0908
X3.5807Y-2.872
X3.6825Y-2.6214
X3.7045Y-2.5764
X3.7264Y-2.5315
X3.7483Y-2.4866
X3.7827Y-2.4134
X3.8327Y-2.4134
X3.8827Y-2.4134
X3.9327Y-2.4134
X3.9646Y-2.4843
X3.9865Y-2.5292
X4.0084Y-2.5741
X4.0303Y-2.6191
X4.1267Y-2.8764
X4.1575Y-4.0965
X4.1671Y-2.9058
X4.2016Y-4.1199
X4.2076Y-2.9352
X4.2458Y-4.1434
X4.248Y-2.9646
X4.2899Y-4.1669
X4.359Y-4.2063
X4.3726Y-3.6286
X4.3881Y-3.581
X4.3994Y-4.1769
X4.4035Y-3.5335
X4.419Y-3.4859
X4.4385Y-3.8916
X4.4399Y-4.1475
X4.4472Y-3.9409
X4.4559Y-3.9901
X4.4646Y-4.0394
X4.4803Y-4.1181
X4.5227Y-2.9811
X4.5722Y-2.9881
X4.6217Y-2.995
X4.6339Y-3.3091
X4.6698Y-3.2743
X4.6713Y-3.002
X4.7058Y-3.2396
X4.7418Y-3.2049
X4.7486Y-3.0132
X4.7641Y-3.0607
X4.7795Y-3.1083
X4.795Y-3.1558
T5
X3.8071Y-2.6575
X3.9071Y-2.6575
T0
M30
