%TF.GenerationSoftware,KiCad,Pcbnew,(5.1.9)-1*%
%TF.CreationDate,2021-09-09T22:51:27+02:00*%
%TF.ProjectId,star,73746172-2e6b-4696-9361-645f70636258,rev?*%
%TF.SameCoordinates,Original*%
%TF.FileFunction,Copper,L2,Bot*%
%TF.FilePolarity,Positive*%
%FSLAX46Y46*%
G04 Gerber Fmt 4.6, Leading zero omitted, Abs format (unit mm)*
G04 Created by KiCad (PCBNEW (5.1.9)-1) date 2021-09-09 22:51:27*
%MOMM*%
%LPD*%
G01*
G04 APERTURE LIST*
%TA.AperFunction,ComponentPad*%
%ADD10C,0.100000*%
%TD*%
%TA.AperFunction,ComponentPad*%
%ADD11O,1.070000X1.800000*%
%TD*%
%TA.AperFunction,ComponentPad*%
%ADD12R,1.070000X1.800000*%
%TD*%
%TA.AperFunction,ComponentPad*%
%ADD13O,1.700000X3.000000*%
%TD*%
%TA.AperFunction,ComponentPad*%
%ADD14R,1.700000X3.000000*%
%TD*%
%TA.AperFunction,SMDPad,CuDef*%
%ADD15C,1.700000*%
%TD*%
%TA.AperFunction,SMDPad,CuDef*%
%ADD16R,1.700000X1.700000*%
%TD*%
%TA.AperFunction,ComponentPad*%
%ADD17O,1.400000X1.400000*%
%TD*%
%TA.AperFunction,ComponentPad*%
%ADD18C,1.400000*%
%TD*%
%TA.AperFunction,ComponentPad*%
%ADD19C,1.600000*%
%TD*%
%TA.AperFunction,ComponentPad*%
%ADD20R,1.600000X1.600000*%
%TD*%
%TA.AperFunction,SMDPad,CuDef*%
%ADD21O,1.070000X3.000000*%
%TD*%
%TA.AperFunction,SMDPad,CuDef*%
%ADD22R,1.070000X3.000000*%
%TD*%
%TA.AperFunction,SMDPad,CuDef*%
%ADD23R,1.060000X0.650000*%
%TD*%
%TA.AperFunction,ViaPad*%
%ADD24C,0.800000*%
%TD*%
%TA.AperFunction,Conductor*%
%ADD25C,0.250000*%
%TD*%
%TA.AperFunction,Conductor*%
%ADD26C,0.500000*%
%TD*%
%TA.AperFunction,Conductor*%
%ADD27C,0.254000*%
%TD*%
%TA.AperFunction,Conductor*%
%ADD28C,0.100000*%
%TD*%
G04 APERTURE END LIST*
%TO.P,D7,4*%
%TO.N,Net-(D6-Pad1)*%
%TA.AperFunction,ComponentPad*%
G36*
G01*
X76292319Y-81576131D02*
X75776131Y-82092319D01*
G75*
G02*
X75019527Y-82092319I-378302J378302D01*
G01*
X75019527Y-82092319D01*
G75*
G02*
X75019527Y-81335715I378302J378302D01*
G01*
X75535715Y-80819527D01*
G75*
G02*
X76292319Y-80819527I378302J-378302D01*
G01*
X76292319Y-80819527D01*
G75*
G02*
X76292319Y-81576131I-378302J-378302D01*
G01*
G37*
%TD.AperFunction*%
%TO.P,D7,3*%
%TO.N,+5V*%
%TA.AperFunction,ComponentPad*%
G36*
G01*
X77190345Y-82474157D02*
X76674157Y-82990345D01*
G75*
G02*
X75917553Y-82990345I-378302J378302D01*
G01*
X75917553Y-82990345D01*
G75*
G02*
X75917553Y-82233741I378302J378302D01*
G01*
X76433741Y-81717553D01*
G75*
G02*
X77190345Y-81717553I378302J-378302D01*
G01*
X77190345Y-81717553D01*
G75*
G02*
X77190345Y-82474157I-378302J-378302D01*
G01*
G37*
%TD.AperFunction*%
%TO.P,D7,2*%
%TO.N,GND*%
%TA.AperFunction,ComponentPad*%
G36*
G01*
X78088370Y-83372182D02*
X77572182Y-83888370D01*
G75*
G02*
X76815578Y-83888370I-378302J378302D01*
G01*
X76815578Y-83888370D01*
G75*
G02*
X76815578Y-83131766I378302J378302D01*
G01*
X77331766Y-82615578D01*
G75*
G02*
X78088370Y-82615578I378302J-378302D01*
G01*
X78088370Y-82615578D01*
G75*
G02*
X78088370Y-83372182I-378302J-378302D01*
G01*
G37*
%TD.AperFunction*%
%TA.AperFunction,ComponentPad*%
D10*
%TO.P,D7,1*%
%TO.N,Net-(D7-Pad1)*%
G36*
X79364698Y-83891906D02*
G01*
X78091906Y-85164698D01*
X77335302Y-84408094D01*
X78608094Y-83135302D01*
X79364698Y-83891906D01*
G37*
%TD.AperFunction*%
%TD*%
%TO.P,D6,4*%
%TO.N,/DoD5*%
%TA.AperFunction,ComponentPad*%
G36*
G01*
X75431812Y-77021606D02*
X74737540Y-76796024D01*
G75*
G02*
X74394049Y-76121885I165324J508815D01*
G01*
X74394049Y-76121885D01*
G75*
G02*
X75068188Y-75778394I508815J-165324D01*
G01*
X75762460Y-76003976D01*
G75*
G02*
X76105951Y-76678115I-165324J-508815D01*
G01*
X76105951Y-76678115D01*
G75*
G02*
X75431812Y-77021606I-508815J165324D01*
G01*
G37*
%TD.AperFunction*%
%TO.P,D6,3*%
%TO.N,+5V*%
%TA.AperFunction,ComponentPad*%
G36*
G01*
X75039360Y-78229447D02*
X74345088Y-78003865D01*
G75*
G02*
X74001597Y-77329726I165324J508815D01*
G01*
X74001597Y-77329726D01*
G75*
G02*
X74675736Y-76986235I508815J-165324D01*
G01*
X75370008Y-77211817D01*
G75*
G02*
X75713499Y-77885956I-165324J-508815D01*
G01*
X75713499Y-77885956D01*
G75*
G02*
X75039360Y-78229447I-508815J165324D01*
G01*
G37*
%TD.AperFunction*%
%TO.P,D6,2*%
%TO.N,GND*%
%TA.AperFunction,ComponentPad*%
G36*
G01*
X74646909Y-79437289D02*
X73952637Y-79211707D01*
G75*
G02*
X73609146Y-78537568I165324J508815D01*
G01*
X73609146Y-78537568D01*
G75*
G02*
X74283285Y-78194077I508815J-165324D01*
G01*
X74977557Y-78419659D01*
G75*
G02*
X75321048Y-79093798I-165324J-508815D01*
G01*
X75321048Y-79093798D01*
G75*
G02*
X74646909Y-79437289I-508815J165324D01*
G01*
G37*
%TD.AperFunction*%
%TA.AperFunction,ComponentPad*%
%TO.P,D6,1*%
%TO.N,Net-(D6-Pad1)*%
G36*
X74763272Y-80810456D02*
G01*
X73051370Y-80254225D01*
X73382018Y-79236594D01*
X75093920Y-79792825D01*
X74763272Y-80810456D01*
G37*
%TD.AperFunction*%
%TD*%
%TA.AperFunction,ComponentPad*%
%TO.P,D5,1*%
%TO.N,/DoD5*%
G36*
X76887822Y-77142449D02*
G01*
X76637311Y-75359966D01*
X77696898Y-75211051D01*
X77947409Y-76993534D01*
X76887822Y-77142449D01*
G37*
%TD.AperFunction*%
%TO.P,D5,2*%
%TO.N,GND*%
%TA.AperFunction,ComponentPad*%
G36*
G01*
X78071005Y-76435906D02*
X77969409Y-75713010D01*
G75*
G02*
X78424744Y-75108759I529793J74458D01*
G01*
X78424744Y-75108759D01*
G75*
G02*
X79028995Y-75564094I74458J-529793D01*
G01*
X79130591Y-76286990D01*
G75*
G02*
X78675256Y-76891241I-529793J-74458D01*
G01*
X78675256Y-76891241D01*
G75*
G02*
X78071005Y-76435906I-74458J529793D01*
G01*
G37*
%TD.AperFunction*%
%TO.P,D5,3*%
%TO.N,+5V*%
%TA.AperFunction,ComponentPad*%
G36*
G01*
X79328646Y-76259156D02*
X79227050Y-75536260D01*
G75*
G02*
X79682385Y-74932009I529793J74458D01*
G01*
X79682385Y-74932009D01*
G75*
G02*
X80286636Y-75387344I74458J-529793D01*
G01*
X80388232Y-76110240D01*
G75*
G02*
X79932897Y-76714491I-529793J-74458D01*
G01*
X79932897Y-76714491D01*
G75*
G02*
X79328646Y-76259156I-74458J529793D01*
G01*
G37*
%TD.AperFunction*%
%TO.P,D5,4*%
%TO.N,Net-(D4-Pad1)*%
%TA.AperFunction,ComponentPad*%
G36*
G01*
X80586286Y-76082406D02*
X80484690Y-75359510D01*
G75*
G02*
X80940025Y-74755259I529793J74458D01*
G01*
X80940025Y-74755259D01*
G75*
G02*
X81544276Y-75210594I74458J-529793D01*
G01*
X81645872Y-75933490D01*
G75*
G02*
X81190537Y-76537741I-529793J-74458D01*
G01*
X81190537Y-76537741D01*
G75*
G02*
X80586286Y-76082406I-74458J529793D01*
G01*
G37*
%TD.AperFunction*%
%TD*%
%TA.AperFunction,ComponentPad*%
%TO.P,D4,1*%
%TO.N,Net-(D4-Pad1)*%
G36*
X87963828Y-76232042D02*
G01*
X86905814Y-74775812D01*
X87771462Y-74146882D01*
X88829476Y-75603112D01*
X87963828Y-76232042D01*
G37*
%TD.AperFunction*%
%TO.P,D4,2*%
%TO.N,GND*%
%TA.AperFunction,ComponentPad*%
G36*
G01*
X88676815Y-75052731D02*
X88247731Y-74462149D01*
G75*
G02*
X88366090Y-73714860I432824J314465D01*
G01*
X88366090Y-73714860D01*
G75*
G02*
X89113379Y-73833219I314465J-432824D01*
G01*
X89542463Y-74423801D01*
G75*
G02*
X89424104Y-75171090I-432824J-314465D01*
G01*
X89424104Y-75171090D01*
G75*
G02*
X88676815Y-75052731I-314465J432824D01*
G01*
G37*
%TD.AperFunction*%
%TO.P,D4,3*%
%TO.N,+5V*%
%TA.AperFunction,ComponentPad*%
G36*
G01*
X89704266Y-74306243D02*
X89275182Y-73715661D01*
G75*
G02*
X89393541Y-72968372I432824J314465D01*
G01*
X89393541Y-72968372D01*
G75*
G02*
X90140830Y-73086731I314465J-432824D01*
G01*
X90569914Y-73677313D01*
G75*
G02*
X90451555Y-74424602I-432824J-314465D01*
G01*
X90451555Y-74424602D01*
G75*
G02*
X89704266Y-74306243I-314465J432824D01*
G01*
G37*
%TD.AperFunction*%
%TO.P,D4,4*%
%TO.N,Net-(D3-Pad1)*%
%TA.AperFunction,ComponentPad*%
G36*
G01*
X90731718Y-73559756D02*
X90302634Y-72969174D01*
G75*
G02*
X90420993Y-72221885I432824J314465D01*
G01*
X90420993Y-72221885D01*
G75*
G02*
X91168282Y-72340244I314465J-432824D01*
G01*
X91597366Y-72930826D01*
G75*
G02*
X91479007Y-73678115I-432824J-314465D01*
G01*
X91479007Y-73678115D01*
G75*
G02*
X90731718Y-73559756I-314465J432824D01*
G01*
G37*
%TD.AperFunction*%
%TD*%
%TO.P,D3,4*%
%TO.N,Net-(D2-Pad1)*%
%TA.AperFunction,ComponentPad*%
G36*
G01*
X95300262Y-63799392D02*
X94644142Y-63479382D01*
G75*
G02*
X94397816Y-62763998I234529J480855D01*
G01*
X94397816Y-62763998D01*
G75*
G02*
X95113200Y-62517672I480855J-234529D01*
G01*
X95769320Y-62837682D01*
G75*
G02*
X96015646Y-63553066I-234529J-480855D01*
G01*
X96015646Y-63553066D01*
G75*
G02*
X95300262Y-63799392I-480855J234529D01*
G01*
G37*
%TD.AperFunction*%
%TO.P,D3,3*%
%TO.N,+5V*%
%TA.AperFunction,ComponentPad*%
G36*
G01*
X94743531Y-64940860D02*
X94087411Y-64620850D01*
G75*
G02*
X93841085Y-63905466I234529J480855D01*
G01*
X93841085Y-63905466D01*
G75*
G02*
X94556469Y-63659140I480855J-234529D01*
G01*
X95212589Y-63979150D01*
G75*
G02*
X95458915Y-64694534I-234529J-480855D01*
G01*
X95458915Y-64694534D01*
G75*
G02*
X94743531Y-64940860I-480855J234529D01*
G01*
G37*
%TD.AperFunction*%
%TO.P,D3,2*%
%TO.N,GND*%
%TA.AperFunction,ComponentPad*%
G36*
G01*
X94186799Y-66082329D02*
X93530679Y-65762319D01*
G75*
G02*
X93284353Y-65046935I234529J480855D01*
G01*
X93284353Y-65046935D01*
G75*
G02*
X93999737Y-64800609I480855J-234529D01*
G01*
X94655857Y-65120619D01*
G75*
G02*
X94902183Y-65836003I-234529J-480855D01*
G01*
X94902183Y-65836003D01*
G75*
G02*
X94186799Y-66082329I-480855J234529D01*
G01*
G37*
%TD.AperFunction*%
%TA.AperFunction,ComponentPad*%
%TO.P,D3,1*%
%TO.N,Net-(D3-Pad1)*%
G36*
X94110923Y-67458326D02*
G01*
X92493094Y-66669258D01*
X92962151Y-65707548D01*
X94579980Y-66496616D01*
X94110923Y-67458326D01*
G37*
%TD.AperFunction*%
%TD*%
D11*
%TO.P,D2,4*%
%TO.N,Net-(D1-Pad1)*%
X99890000Y-61300000D03*
%TO.P,D2,3*%
%TO.N,+5V*%
X98620000Y-61300000D03*
%TO.P,D2,2*%
%TO.N,GND*%
X97350000Y-61300000D03*
D12*
%TO.P,D2,1*%
%TO.N,Net-(D2-Pad1)*%
X96080000Y-61300000D03*
%TD*%
%TO.P,D1,4*%
%TO.N,Net-(D1-Pad4)*%
%TA.AperFunction,ComponentPad*%
G36*
G01*
X101807605Y-66203555D02*
X102463725Y-65883545D01*
G75*
G02*
X103179109Y-66129871I234529J-480855D01*
G01*
X103179109Y-66129871D01*
G75*
G02*
X102932783Y-66845255I-480855J-234529D01*
G01*
X102276663Y-67165265D01*
G75*
G02*
X101561279Y-66918939I-234529J480855D01*
G01*
X101561279Y-66918939D01*
G75*
G02*
X101807605Y-66203555I480855J234529D01*
G01*
G37*
%TD.AperFunction*%
%TO.P,D1,3*%
%TO.N,+5V*%
%TA.AperFunction,ComponentPad*%
G36*
G01*
X101250874Y-65062087D02*
X101906994Y-64742077D01*
G75*
G02*
X102622378Y-64988403I234529J-480855D01*
G01*
X102622378Y-64988403D01*
G75*
G02*
X102376052Y-65703787I-480855J-234529D01*
G01*
X101719932Y-66023797D01*
G75*
G02*
X101004548Y-65777471I-234529J480855D01*
G01*
X101004548Y-65777471D01*
G75*
G02*
X101250874Y-65062087I480855J234529D01*
G01*
G37*
%TD.AperFunction*%
%TO.P,D1,2*%
%TO.N,GND*%
%TA.AperFunction,ComponentPad*%
G36*
G01*
X100694142Y-63920618D02*
X101350262Y-63600608D01*
G75*
G02*
X102065646Y-63846934I234529J-480855D01*
G01*
X102065646Y-63846934D01*
G75*
G02*
X101819320Y-64562318I-480855J-234529D01*
G01*
X101163200Y-64882328D01*
G75*
G02*
X100447816Y-64636002I-234529J480855D01*
G01*
X100447816Y-64636002D01*
G75*
G02*
X100694142Y-63920618I480855J234529D01*
G01*
G37*
%TD.AperFunction*%
%TA.AperFunction,ComponentPad*%
D10*
%TO.P,D1,1*%
%TO.N,Net-(D1-Pad1)*%
G36*
X99656557Y-63013679D02*
G01*
X101274386Y-62224611D01*
X101743443Y-63186321D01*
X100125614Y-63975389D01*
X99656557Y-63013679D01*
G37*
%TD.AperFunction*%
%TD*%
%TO.P,D20,4*%
%TO.N,/LED_Din*%
%TA.AperFunction,ComponentPad*%
G36*
G01*
X107252634Y-75280826D02*
X107681718Y-74690244D01*
G75*
G02*
X108429007Y-74571885I432824J-314465D01*
G01*
X108429007Y-74571885D01*
G75*
G02*
X108547366Y-75319174I-314465J-432824D01*
G01*
X108118282Y-75909756D01*
G75*
G02*
X107370993Y-76028115I-432824J314465D01*
G01*
X107370993Y-76028115D01*
G75*
G02*
X107252634Y-75280826I314465J432824D01*
G01*
G37*
%TD.AperFunction*%
%TO.P,D20,3*%
%TO.N,+5V*%
%TA.AperFunction,ComponentPad*%
G36*
G01*
X106225182Y-74534339D02*
X106654266Y-73943757D01*
G75*
G02*
X107401555Y-73825398I432824J-314465D01*
G01*
X107401555Y-73825398D01*
G75*
G02*
X107519914Y-74572687I-314465J-432824D01*
G01*
X107090830Y-75163269D01*
G75*
G02*
X106343541Y-75281628I-432824J314465D01*
G01*
X106343541Y-75281628D01*
G75*
G02*
X106225182Y-74534339I314465J432824D01*
G01*
G37*
%TD.AperFunction*%
%TO.P,D20,2*%
%TO.N,GND*%
%TA.AperFunction,ComponentPad*%
G36*
G01*
X105197731Y-73787851D02*
X105626815Y-73197269D01*
G75*
G02*
X106374104Y-73078910I432824J-314465D01*
G01*
X106374104Y-73078910D01*
G75*
G02*
X106492463Y-73826199I-314465J-432824D01*
G01*
X106063379Y-74416781D01*
G75*
G02*
X105316090Y-74535140I-432824J314465D01*
G01*
X105316090Y-74535140D01*
G75*
G02*
X105197731Y-73787851I314465J432824D01*
G01*
G37*
%TD.AperFunction*%
%TA.AperFunction,ComponentPad*%
%TO.P,D20,1*%
%TO.N,Net-(D1-Pad4)*%
G36*
X103855814Y-73474188D02*
G01*
X104913828Y-72017958D01*
X105779476Y-72646888D01*
X104721462Y-74103118D01*
X103855814Y-73474188D01*
G37*
%TD.AperFunction*%
%TD*%
%TO.P,D19,4*%
%TO.N,Net-(D18-Pad1)*%
%TA.AperFunction,ComponentPad*%
G36*
G01*
X118069409Y-76536990D02*
X118171005Y-75814094D01*
G75*
G02*
X118775256Y-75358759I529793J-74458D01*
G01*
X118775256Y-75358759D01*
G75*
G02*
X119230591Y-75963010I-74458J-529793D01*
G01*
X119128995Y-76685906D01*
G75*
G02*
X118524744Y-77141241I-529793J74458D01*
G01*
X118524744Y-77141241D01*
G75*
G02*
X118069409Y-76536990I74458J529793D01*
G01*
G37*
%TD.AperFunction*%
%TO.P,D19,3*%
%TO.N,+5V*%
%TA.AperFunction,ComponentPad*%
G36*
G01*
X116811769Y-76360240D02*
X116913365Y-75637344D01*
G75*
G02*
X117517616Y-75182009I529793J-74458D01*
G01*
X117517616Y-75182009D01*
G75*
G02*
X117972951Y-75786260I-74458J-529793D01*
G01*
X117871355Y-76509156D01*
G75*
G02*
X117267104Y-76964491I-529793J74458D01*
G01*
X117267104Y-76964491D01*
G75*
G02*
X116811769Y-76360240I74458J529793D01*
G01*
G37*
%TD.AperFunction*%
%TO.P,D19,2*%
%TO.N,GND*%
%TA.AperFunction,ComponentPad*%
G36*
G01*
X115554128Y-76183490D02*
X115655724Y-75460594D01*
G75*
G02*
X116259975Y-75005259I529793J-74458D01*
G01*
X116259975Y-75005259D01*
G75*
G02*
X116715310Y-75609510I-74458J-529793D01*
G01*
X116613714Y-76332406D01*
G75*
G02*
X116009463Y-76787741I-529793J74458D01*
G01*
X116009463Y-76787741D01*
G75*
G02*
X115554128Y-76183490I74458J529793D01*
G01*
G37*
%TD.AperFunction*%
%TA.AperFunction,ComponentPad*%
%TO.P,D19,1*%
%TO.N,Net-(D19-Pad1)*%
G36*
X114222030Y-76536534D02*
G01*
X114472541Y-74754051D01*
X115532128Y-74902966D01*
X115281617Y-76685449D01*
X114222030Y-76536534D01*
G37*
%TD.AperFunction*%
%TD*%
%TO.P,D18,4*%
%TO.N,Net-(D17-Pad1)*%
%TA.AperFunction,ComponentPad*%
G36*
G01*
X121279992Y-79761817D02*
X121974264Y-79536235D01*
G75*
G02*
X122648403Y-79879726I165324J-508815D01*
G01*
X122648403Y-79879726D01*
G75*
G02*
X122304912Y-80553865I-508815J-165324D01*
G01*
X121610640Y-80779447D01*
G75*
G02*
X120936501Y-80435956I-165324J508815D01*
G01*
X120936501Y-80435956D01*
G75*
G02*
X121279992Y-79761817I508815J165324D01*
G01*
G37*
%TD.AperFunction*%
%TO.P,D18,3*%
%TO.N,+5V*%
%TA.AperFunction,ComponentPad*%
G36*
G01*
X120887540Y-78553976D02*
X121581812Y-78328394D01*
G75*
G02*
X122255951Y-78671885I165324J-508815D01*
G01*
X122255951Y-78671885D01*
G75*
G02*
X121912460Y-79346024I-508815J-165324D01*
G01*
X121218188Y-79571606D01*
G75*
G02*
X120544049Y-79228115I-165324J508815D01*
G01*
X120544049Y-79228115D01*
G75*
G02*
X120887540Y-78553976I508815J165324D01*
G01*
G37*
%TD.AperFunction*%
%TO.P,D18,2*%
%TO.N,GND*%
%TA.AperFunction,ComponentPad*%
G36*
G01*
X120495089Y-77346134D02*
X121189361Y-77120552D01*
G75*
G02*
X121863500Y-77464043I165324J-508815D01*
G01*
X121863500Y-77464043D01*
G75*
G02*
X121520009Y-78138182I-508815J-165324D01*
G01*
X120825737Y-78363764D01*
G75*
G02*
X120151598Y-78020273I-165324J508815D01*
G01*
X120151598Y-78020273D01*
G75*
G02*
X120495089Y-77346134I508815J165324D01*
G01*
G37*
%TD.AperFunction*%
%TA.AperFunction,ComponentPad*%
%TO.P,D18,1*%
%TO.N,Net-(D18-Pad1)*%
G36*
X119593822Y-76303616D02*
G01*
X121305724Y-75747385D01*
X121636372Y-76765016D01*
X119924470Y-77321247D01*
X119593822Y-76303616D01*
G37*
%TD.AperFunction*%
%TD*%
%TO.P,D17,4*%
%TO.N,Net-(D16-Pad1)*%
%TA.AperFunction,ComponentPad*%
G36*
G01*
X117831297Y-83415799D02*
X118338397Y-83940917D01*
G75*
G02*
X118325192Y-84697406I-384847J-371642D01*
G01*
X118325192Y-84697406D01*
G75*
G02*
X117568703Y-84684201I-371642J384847D01*
G01*
X117061603Y-84159083D01*
G75*
G02*
X117074808Y-83402594I384847J371642D01*
G01*
X117074808Y-83402594D01*
G75*
G02*
X117831297Y-83415799I371642J-384847D01*
G01*
G37*
%TD.AperFunction*%
%TO.P,D17,3*%
%TO.N,+5V*%
%TA.AperFunction,ComponentPad*%
G36*
G01*
X118744859Y-82533583D02*
X119251959Y-83058701D01*
G75*
G02*
X119238754Y-83815190I-384847J-371642D01*
G01*
X119238754Y-83815190D01*
G75*
G02*
X118482265Y-83801985I-371642J384847D01*
G01*
X117975165Y-83276867D01*
G75*
G02*
X117988370Y-82520378I384847J371642D01*
G01*
X117988370Y-82520378D01*
G75*
G02*
X118744859Y-82533583I371642J-384847D01*
G01*
G37*
%TD.AperFunction*%
%TO.P,D17,2*%
%TO.N,GND*%
%TA.AperFunction,ComponentPad*%
G36*
G01*
X119658420Y-81651367D02*
X120165520Y-82176485D01*
G75*
G02*
X120152315Y-82932974I-384847J-371642D01*
G01*
X120152315Y-82932974D01*
G75*
G02*
X119395826Y-82919769I-371642J384847D01*
G01*
X118888726Y-82394651D01*
G75*
G02*
X118901931Y-81638162I384847J371642D01*
G01*
X118901931Y-81638162D01*
G75*
G02*
X119658420Y-81651367I371642J-384847D01*
G01*
G37*
%TD.AperFunction*%
%TA.AperFunction,ComponentPad*%
%TO.P,D17,1*%
%TO.N,Net-(D17-Pad1)*%
G36*
X120200339Y-80384304D02*
G01*
X121450724Y-81679116D01*
X120681031Y-82422400D01*
X119430646Y-81127588D01*
X120200339Y-80384304D01*
G37*
%TD.AperFunction*%
%TD*%
%TO.P,D16,4*%
%TO.N,/DoD15*%
%TA.AperFunction,ComponentPad*%
G36*
G01*
X110883285Y-91544077D02*
X111577557Y-91769659D01*
G75*
G02*
X111921048Y-92443798I-165324J-508815D01*
G01*
X111921048Y-92443798D01*
G75*
G02*
X111246909Y-92787289I-508815J165324D01*
G01*
X110552637Y-92561707D01*
G75*
G02*
X110209146Y-91887568I165324J508815D01*
G01*
X110209146Y-91887568D01*
G75*
G02*
X110883285Y-91544077I508815J-165324D01*
G01*
G37*
%TD.AperFunction*%
%TO.P,D16,3*%
%TO.N,+5V*%
%TA.AperFunction,ComponentPad*%
G36*
G01*
X111275737Y-90336236D02*
X111970009Y-90561818D01*
G75*
G02*
X112313500Y-91235957I-165324J-508815D01*
G01*
X112313500Y-91235957D01*
G75*
G02*
X111639361Y-91579448I-508815J165324D01*
G01*
X110945089Y-91353866D01*
G75*
G02*
X110601598Y-90679727I165324J508815D01*
G01*
X110601598Y-90679727D01*
G75*
G02*
X111275737Y-90336236I508815J-165324D01*
G01*
G37*
%TD.AperFunction*%
%TO.P,D16,2*%
%TO.N,GND*%
%TA.AperFunction,ComponentPad*%
G36*
G01*
X111668188Y-89128394D02*
X112362460Y-89353976D01*
G75*
G02*
X112705951Y-90028115I-165324J-508815D01*
G01*
X112705951Y-90028115D01*
G75*
G02*
X112031812Y-90371606I-508815J165324D01*
G01*
X111337540Y-90146024D01*
G75*
G02*
X110994049Y-89471885I165324J508815D01*
G01*
X110994049Y-89471885D01*
G75*
G02*
X111668188Y-89128394I508815J-165324D01*
G01*
G37*
%TD.AperFunction*%
%TA.AperFunction,ComponentPad*%
%TO.P,D16,1*%
%TO.N,Net-(D16-Pad1)*%
G36*
X111551825Y-87755227D02*
G01*
X113263727Y-88311458D01*
X112933079Y-89329089D01*
X111221177Y-88772858D01*
X111551825Y-87755227D01*
G37*
%TD.AperFunction*%
%TD*%
%TO.P,D15,4*%
%TO.N,Net-(D14-Pad1)*%
%TA.AperFunction,ComponentPad*%
G36*
G01*
X112947643Y-102136510D02*
X113666553Y-102009746D01*
G75*
G02*
X114286327Y-102443716I92902J-526872D01*
G01*
X114286327Y-102443716D01*
G75*
G02*
X113852357Y-103063490I-526872J-92902D01*
G01*
X113133447Y-103190254D01*
G75*
G02*
X112513673Y-102756284I-92902J526872D01*
G01*
X112513673Y-102756284D01*
G75*
G02*
X112947643Y-102136510I526872J92902D01*
G01*
G37*
%TD.AperFunction*%
%TO.P,D15,3*%
%TO.N,+5V*%
%TA.AperFunction,ComponentPad*%
G36*
G01*
X112727109Y-100885804D02*
X113446019Y-100759040D01*
G75*
G02*
X114065793Y-101193010I92902J-526872D01*
G01*
X114065793Y-101193010D01*
G75*
G02*
X113631823Y-101812784I-526872J-92902D01*
G01*
X112912913Y-101939548D01*
G75*
G02*
X112293139Y-101505578I-92902J526872D01*
G01*
X112293139Y-101505578D01*
G75*
G02*
X112727109Y-100885804I526872J92902D01*
G01*
G37*
%TD.AperFunction*%
%TO.P,D15,2*%
%TO.N,GND*%
%TA.AperFunction,ComponentPad*%
G36*
G01*
X112506576Y-99635098D02*
X113225486Y-99508334D01*
G75*
G02*
X113845260Y-99942304I92902J-526872D01*
G01*
X113845260Y-99942304D01*
G75*
G02*
X113411290Y-100562078I-526872J-92902D01*
G01*
X112692380Y-100688842D01*
G75*
G02*
X112072606Y-100254872I-92902J526872D01*
G01*
X112072606Y-100254872D01*
G75*
G02*
X112506576Y-99635098I526872J92902D01*
G01*
G37*
%TD.AperFunction*%
%TA.AperFunction,ComponentPad*%
%TO.P,D15,1*%
%TO.N,/DoD15*%
G36*
X111759171Y-98477293D02*
G01*
X113531825Y-98164726D01*
X113717629Y-99218471D01*
X111944975Y-99531038D01*
X111759171Y-98477293D01*
G37*
%TD.AperFunction*%
%TD*%
%TO.P,D14,4*%
%TO.N,Net-(D13-Pad1)*%
%TA.AperFunction,ComponentPad*%
G36*
G01*
X110935927Y-106229706D02*
X111365011Y-106820288D01*
G75*
G02*
X111246652Y-107567577I-432824J-314465D01*
G01*
X111246652Y-107567577D01*
G75*
G02*
X110499363Y-107449218I-314465J432824D01*
G01*
X110070279Y-106858636D01*
G75*
G02*
X110188638Y-106111347I432824J314465D01*
G01*
X110188638Y-106111347D01*
G75*
G02*
X110935927Y-106229706I314465J-432824D01*
G01*
G37*
%TD.AperFunction*%
%TO.P,D14,3*%
%TO.N,+5V*%
%TA.AperFunction,ComponentPad*%
G36*
G01*
X111963379Y-105483219D02*
X112392463Y-106073801D01*
G75*
G02*
X112274104Y-106821090I-432824J-314465D01*
G01*
X112274104Y-106821090D01*
G75*
G02*
X111526815Y-106702731I-314465J432824D01*
G01*
X111097731Y-106112149D01*
G75*
G02*
X111216090Y-105364860I432824J314465D01*
G01*
X111216090Y-105364860D01*
G75*
G02*
X111963379Y-105483219I314465J-432824D01*
G01*
G37*
%TD.AperFunction*%
%TO.P,D14,2*%
%TO.N,GND*%
%TA.AperFunction,ComponentPad*%
G36*
G01*
X112990830Y-104736731D02*
X113419914Y-105327313D01*
G75*
G02*
X113301555Y-106074602I-432824J-314465D01*
G01*
X113301555Y-106074602D01*
G75*
G02*
X112554266Y-105956243I-314465J432824D01*
G01*
X112125182Y-105365661D01*
G75*
G02*
X112243541Y-104618372I432824J314465D01*
G01*
X112243541Y-104618372D01*
G75*
G02*
X112990830Y-104736731I314465J-432824D01*
G01*
G37*
%TD.AperFunction*%
%TA.AperFunction,ComponentPad*%
%TO.P,D14,1*%
%TO.N,Net-(D14-Pad1)*%
G36*
X113703817Y-103557420D02*
G01*
X114761831Y-105013650D01*
X113896183Y-105642580D01*
X112838169Y-104186350D01*
X113703817Y-103557420D01*
G37*
%TD.AperFunction*%
%TD*%
%TO.P,D13,4*%
%TO.N,Net-(D12-Pad1)*%
%TA.AperFunction,ComponentPad*%
G36*
G01*
X106243734Y-103978891D02*
X105901020Y-104623443D01*
G75*
G02*
X105177476Y-104844653I-472377J251167D01*
G01*
X105177476Y-104844653D01*
G75*
G02*
X104956266Y-104121109I251167J472377D01*
G01*
X105298980Y-103476557D01*
G75*
G02*
X106022524Y-103255347I472377J-251167D01*
G01*
X106022524Y-103255347D01*
G75*
G02*
X106243734Y-103978891I-251167J-472377D01*
G01*
G37*
%TD.AperFunction*%
%TO.P,D13,3*%
%TO.N,+5V*%
%TA.AperFunction,ComponentPad*%
G36*
G01*
X107365077Y-104575120D02*
X107022363Y-105219672D01*
G75*
G02*
X106298819Y-105440882I-472377J251167D01*
G01*
X106298819Y-105440882D01*
G75*
G02*
X106077609Y-104717338I251167J472377D01*
G01*
X106420323Y-104072786D01*
G75*
G02*
X107143867Y-103851576I472377J-251167D01*
G01*
X107143867Y-103851576D01*
G75*
G02*
X107365077Y-104575120I-251167J-472377D01*
G01*
G37*
%TD.AperFunction*%
%TO.P,D13,2*%
%TO.N,GND*%
%TA.AperFunction,ComponentPad*%
G36*
G01*
X108486421Y-105171349D02*
X108143707Y-105815901D01*
G75*
G02*
X107420163Y-106037111I-472377J251167D01*
G01*
X107420163Y-106037111D01*
G75*
G02*
X107198953Y-105313567I251167J472377D01*
G01*
X107541667Y-104669015D01*
G75*
G02*
X108265211Y-104447805I472377J-251167D01*
G01*
X108265211Y-104447805D01*
G75*
G02*
X108486421Y-105171349I-251167J-472377D01*
G01*
G37*
%TD.AperFunction*%
%TA.AperFunction,ComponentPad*%
%TO.P,D13,1*%
%TO.N,Net-(D13-Pad1)*%
G36*
X109858931Y-105295201D02*
G01*
X109013883Y-106884507D01*
X108069129Y-106382173D01*
X108914177Y-104792867D01*
X109858931Y-105295201D01*
G37*
%TD.AperFunction*%
%TD*%
%TO.P,D8,4*%
%TO.N,Net-(D7-Pad1)*%
%TA.AperFunction,ComponentPad*%
G36*
G01*
X84035105Y-88872499D02*
X83340833Y-89098081D01*
G75*
G02*
X82666694Y-88754590I-165324J508815D01*
G01*
X82666694Y-88754590D01*
G75*
G02*
X83010185Y-88080451I508815J165324D01*
G01*
X83704457Y-87854869D01*
G75*
G02*
X84378596Y-88198360I165324J-508815D01*
G01*
X84378596Y-88198360D01*
G75*
G02*
X84035105Y-88872499I-508815J-165324D01*
G01*
G37*
%TD.AperFunction*%
%TO.P,D8,3*%
%TO.N,+5V*%
%TA.AperFunction,ComponentPad*%
G36*
G01*
X84427557Y-90080340D02*
X83733285Y-90305922D01*
G75*
G02*
X83059146Y-89962431I-165324J508815D01*
G01*
X83059146Y-89962431D01*
G75*
G02*
X83402637Y-89288292I508815J165324D01*
G01*
X84096909Y-89062710D01*
G75*
G02*
X84771048Y-89406201I165324J-508815D01*
G01*
X84771048Y-89406201D01*
G75*
G02*
X84427557Y-90080340I-508815J-165324D01*
G01*
G37*
%TD.AperFunction*%
%TO.P,D8,2*%
%TO.N,GND*%
%TA.AperFunction,ComponentPad*%
G36*
G01*
X84820008Y-91288182D02*
X84125736Y-91513764D01*
G75*
G02*
X83451597Y-91170273I-165324J508815D01*
G01*
X83451597Y-91170273D01*
G75*
G02*
X83795088Y-90496134I508815J165324D01*
G01*
X84489360Y-90270552D01*
G75*
G02*
X85163499Y-90614043I165324J-508815D01*
G01*
X85163499Y-90614043D01*
G75*
G02*
X84820008Y-91288182I-508815J-165324D01*
G01*
G37*
%TD.AperFunction*%
%TA.AperFunction,ComponentPad*%
%TO.P,D8,1*%
%TO.N,Net-(D8-Pad1)*%
G36*
X85721275Y-92330700D02*
G01*
X84009373Y-92886931D01*
X83678725Y-91869300D01*
X85390627Y-91313069D01*
X85721275Y-92330700D01*
G37*
%TD.AperFunction*%
%TD*%
%TO.P,D9,4*%
%TO.N,Net-(D8-Pad1)*%
%TA.AperFunction,ComponentPad*%
G36*
G01*
X83266553Y-99240254D02*
X82547643Y-99113490D01*
G75*
G02*
X82113673Y-98493716I92902J526872D01*
G01*
X82113673Y-98493716D01*
G75*
G02*
X82733447Y-98059746I526872J-92902D01*
G01*
X83452357Y-98186510D01*
G75*
G02*
X83886327Y-98806284I-92902J-526872D01*
G01*
X83886327Y-98806284D01*
G75*
G02*
X83266553Y-99240254I-526872J92902D01*
G01*
G37*
%TD.AperFunction*%
%TO.P,D9,3*%
%TO.N,+5V*%
%TA.AperFunction,ComponentPad*%
G36*
G01*
X83046019Y-100490960D02*
X82327109Y-100364196D01*
G75*
G02*
X81893139Y-99744422I92902J526872D01*
G01*
X81893139Y-99744422D01*
G75*
G02*
X82512913Y-99310452I526872J-92902D01*
G01*
X83231823Y-99437216D01*
G75*
G02*
X83665793Y-100056990I-92902J-526872D01*
G01*
X83665793Y-100056990D01*
G75*
G02*
X83046019Y-100490960I-526872J92902D01*
G01*
G37*
%TD.AperFunction*%
%TO.P,D9,2*%
%TO.N,GND*%
%TA.AperFunction,ComponentPad*%
G36*
G01*
X82825486Y-101741666D02*
X82106576Y-101614902D01*
G75*
G02*
X81672606Y-100995128I92902J526872D01*
G01*
X81672606Y-100995128D01*
G75*
G02*
X82292380Y-100561158I526872J-92902D01*
G01*
X83011290Y-100687922D01*
G75*
G02*
X83445260Y-101307696I-92902J-526872D01*
G01*
X83445260Y-101307696D01*
G75*
G02*
X82825486Y-101741666I-526872J92902D01*
G01*
G37*
%TD.AperFunction*%
%TA.AperFunction,ComponentPad*%
%TO.P,D9,1*%
%TO.N,Net-(D10-Pad4)*%
G36*
X83131825Y-103085274D02*
G01*
X81359171Y-102772707D01*
X81544975Y-101718962D01*
X83317629Y-102031529D01*
X83131825Y-103085274D01*
G37*
%TD.AperFunction*%
%TD*%
%TO.P,D10,4*%
%TO.N,Net-(D10-Pad4)*%
%TA.AperFunction,ComponentPad*%
G36*
G01*
X82619914Y-104472687D02*
X82190830Y-105063269D01*
G75*
G02*
X81443541Y-105181628I-432824J314465D01*
G01*
X81443541Y-105181628D01*
G75*
G02*
X81325182Y-104434339I314465J432824D01*
G01*
X81754266Y-103843757D01*
G75*
G02*
X82501555Y-103725398I432824J-314465D01*
G01*
X82501555Y-103725398D01*
G75*
G02*
X82619914Y-104472687I-314465J-432824D01*
G01*
G37*
%TD.AperFunction*%
%TO.P,D10,3*%
%TO.N,+5V*%
%TA.AperFunction,ComponentPad*%
G36*
G01*
X83647366Y-105219174D02*
X83218282Y-105809756D01*
G75*
G02*
X82470993Y-105928115I-432824J314465D01*
G01*
X82470993Y-105928115D01*
G75*
G02*
X82352634Y-105180826I314465J432824D01*
G01*
X82781718Y-104590244D01*
G75*
G02*
X83529007Y-104471885I432824J-314465D01*
G01*
X83529007Y-104471885D01*
G75*
G02*
X83647366Y-105219174I-314465J-432824D01*
G01*
G37*
%TD.AperFunction*%
%TO.P,D10,2*%
%TO.N,GND*%
%TA.AperFunction,ComponentPad*%
G36*
G01*
X84674817Y-105965662D02*
X84245733Y-106556244D01*
G75*
G02*
X83498444Y-106674603I-432824J314465D01*
G01*
X83498444Y-106674603D01*
G75*
G02*
X83380085Y-105927314I314465J432824D01*
G01*
X83809169Y-105336732D01*
G75*
G02*
X84556458Y-105218373I432824J-314465D01*
G01*
X84556458Y-105218373D01*
G75*
G02*
X84674817Y-105965662I-314465J-432824D01*
G01*
G37*
%TD.AperFunction*%
%TA.AperFunction,ComponentPad*%
%TO.P,D10,1*%
%TO.N,/DoD10*%
G36*
X86016734Y-106279325D02*
G01*
X84958720Y-107735555D01*
X84093072Y-107106625D01*
X85151086Y-105650395D01*
X86016734Y-106279325D01*
G37*
%TD.AperFunction*%
%TD*%
%TO.P,D11,4*%
%TO.N,/DoD10*%
%TA.AperFunction,ComponentPad*%
G36*
G01*
X87229677Y-105122786D02*
X87572391Y-105767338D01*
G75*
G02*
X87351181Y-106490882I-472377J-251167D01*
G01*
X87351181Y-106490882D01*
G75*
G02*
X86627637Y-106269672I-251167J472377D01*
G01*
X86284923Y-105625120D01*
G75*
G02*
X86506133Y-104901576I472377J251167D01*
G01*
X86506133Y-104901576D01*
G75*
G02*
X87229677Y-105122786I251167J-472377D01*
G01*
G37*
%TD.AperFunction*%
%TO.P,D11,3*%
%TO.N,+5V*%
%TA.AperFunction,ComponentPad*%
G36*
G01*
X88351020Y-104526557D02*
X88693734Y-105171109D01*
G75*
G02*
X88472524Y-105894653I-472377J-251167D01*
G01*
X88472524Y-105894653D01*
G75*
G02*
X87748980Y-105673443I-251167J472377D01*
G01*
X87406266Y-105028891D01*
G75*
G02*
X87627476Y-104305347I472377J251167D01*
G01*
X87627476Y-104305347D01*
G75*
G02*
X88351020Y-104526557I251167J-472377D01*
G01*
G37*
%TD.AperFunction*%
%TO.P,D11,2*%
%TO.N,GND*%
%TA.AperFunction,ComponentPad*%
G36*
G01*
X89472364Y-103930328D02*
X89815078Y-104574880D01*
G75*
G02*
X89593868Y-105298424I-472377J-251167D01*
G01*
X89593868Y-105298424D01*
G75*
G02*
X88870324Y-105077214I-251167J472377D01*
G01*
X88527610Y-104432662D01*
G75*
G02*
X88748820Y-103709118I472377J251167D01*
G01*
X88748820Y-103709118D01*
G75*
G02*
X89472364Y-103930328I251167J-472377D01*
G01*
G37*
%TD.AperFunction*%
%TA.AperFunction,ComponentPad*%
%TO.P,D11,1*%
%TO.N,Net-(D11-Pad1)*%
G36*
X90342540Y-102861722D02*
G01*
X91187588Y-104451028D01*
X90242834Y-104953362D01*
X89397786Y-103364056D01*
X90342540Y-102861722D01*
G37*
%TD.AperFunction*%
%TD*%
D13*
%TO.P,J1,2*%
%TO.N,GND*%
X99240000Y-67500000D03*
D14*
%TO.P,J1,1*%
%TO.N,+5V*%
X96700000Y-67500000D03*
%TD*%
D15*
%TO.P,J2,7*%
%TO.N,/RST*%
X105620000Y-92000000D03*
D16*
%TO.P,J2,1*%
%TO.N,+5V*%
X90380000Y-92000000D03*
D15*
%TO.P,J2,2*%
%TO.N,+3V3*%
X92920000Y-92000000D03*
%TO.P,J2,3*%
%TO.N,/TXD*%
X95460000Y-92000000D03*
%TO.P,J2,4*%
%TO.N,/RXD*%
X98000000Y-92000000D03*
%TO.P,J2,5*%
%TO.N,GND*%
X100540000Y-92000000D03*
%TO.P,J2,6*%
%TO.N,/GPIO0*%
X103080000Y-92000000D03*
%TD*%
D17*
%TO.P,R3,2*%
%TO.N,/GPIO0*%
X112000000Y-78380000D03*
D18*
%TO.P,R3,1*%
%TO.N,+3V3*%
X112000000Y-86000000D03*
%TD*%
D17*
%TO.P,R2,2*%
%TO.N,/RST*%
X83900000Y-78380000D03*
D18*
%TO.P,R2,1*%
%TO.N,+3V3*%
X83900000Y-86000000D03*
%TD*%
D17*
%TO.P,R1,2*%
%TO.N,Net-(R1-Pad2)*%
X81600000Y-78380000D03*
D18*
%TO.P,R1,1*%
%TO.N,+3V3*%
X81600000Y-86000000D03*
%TD*%
D19*
%TO.P,C5,2*%
%TO.N,/GPIO0*%
X108000000Y-102000000D03*
%TO.P,C5,1*%
%TO.N,GND*%
X105500000Y-102000000D03*
%TD*%
%TO.P,C4,2*%
%TO.N,/RST*%
X86000000Y-102000000D03*
%TO.P,C4,1*%
%TO.N,GND*%
X88500000Y-102000000D03*
%TD*%
%TO.P,C3,2*%
%TO.N,GND*%
X100600000Y-73500000D03*
%TO.P,C3,1*%
%TO.N,+5V*%
X100600000Y-71000000D03*
%TD*%
%TO.P,C2,2*%
%TO.N,GND*%
X116000000Y-78800000D03*
D20*
%TO.P,C2,1*%
%TO.N,+3V3*%
X116000000Y-81300000D03*
%TD*%
D19*
%TO.P,C1,2*%
%TO.N,GND*%
X96000000Y-73500000D03*
D20*
%TO.P,C1,1*%
%TO.N,+5V*%
X96000000Y-71000000D03*
%TD*%
D21*
%TO.P,D12,4*%
%TO.N,Net-(D11-Pad1)*%
X95990000Y-99750000D03*
%TO.P,D12,3*%
%TO.N,+5V*%
X97260000Y-99750000D03*
%TO.P,D12,2*%
%TO.N,GND*%
X98530000Y-99750000D03*
D22*
%TO.P,D12,1*%
%TO.N,Net-(D12-Pad1)*%
X99800000Y-99750000D03*
%TD*%
D23*
%TO.P,U2,5*%
%TO.N,+3V3*%
X104700000Y-96900000D03*
%TO.P,U2,4*%
%TO.N,Net-(U2-Pad4)*%
X104700000Y-95000000D03*
%TO.P,U2,3*%
%TO.N,+5V*%
X102500000Y-95000000D03*
%TO.P,U2,2*%
%TO.N,GND*%
X102500000Y-95950000D03*
%TO.P,U2,1*%
%TO.N,+5V*%
X102500000Y-96900000D03*
%TD*%
D24*
%TO.N,+3V3*%
X109250000Y-92000000D03*
X102500000Y-98000000D03*
X93500000Y-95500000D03*
%TO.N,GND*%
X94700000Y-68200000D03*
X101250000Y-95750000D03*
X99500000Y-97250000D03*
X101900000Y-93600000D03*
X95900000Y-94900000D03*
X90700000Y-100400000D03*
X91400000Y-102600000D03*
X109000000Y-96500000D03*
X110400000Y-101400000D03*
X111700000Y-103800000D03*
X88100000Y-97500000D03*
X84400000Y-97100000D03*
X84400000Y-94000000D03*
X85800000Y-96000000D03*
X82700000Y-87200000D03*
X90500000Y-83500000D03*
X94250000Y-83500000D03*
X98000000Y-83500000D03*
X102000000Y-83500000D03*
X105250000Y-83500000D03*
X92500000Y-76000000D03*
X96000000Y-76000000D03*
X99500000Y-76000000D03*
X103500000Y-76000000D03*
X103750000Y-69750000D03*
X98250000Y-70750000D03*
X97000000Y-88250000D03*
X107200000Y-72900000D03*
X87000000Y-78800000D03*
X109800000Y-86000000D03*
X109200000Y-78500000D03*
X110300000Y-75700000D03*
X113200000Y-80700000D03*
X78500000Y-80000000D03*
X80900000Y-83900000D03*
X87300000Y-103400000D03*
X93200000Y-97600000D03*
X117300000Y-79900000D03*
X92600000Y-72300000D03*
X107500000Y-99500000D03*
X99400000Y-90700000D03*
X94700000Y-98800000D03*
%TO.N,+5V*%
X117500000Y-82100000D03*
X88059989Y-90559987D03*
%TO.N,/RST*%
X100900000Y-89800000D03*
%TO.N,/GPIO0*%
X103700000Y-93200000D03*
%TO.N,/RXD*%
X103600000Y-87300000D03*
%TO.N,/TXD*%
X102000000Y-85750000D03*
%TD*%
D25*
%TO.N,Net-(D11-Pad1)*%
X91832458Y-103907542D02*
X95990000Y-99750000D01*
X90292687Y-103907542D02*
X91832458Y-103907542D01*
%TO.N,Net-(D12-Pad1)*%
X99800000Y-99750000D02*
X99800000Y-100900000D01*
X103840391Y-104050000D02*
X105600000Y-104050000D01*
X101950554Y-103050554D02*
X103840391Y-104050000D01*
X99800000Y-100900000D02*
X101950554Y-103050554D01*
%TO.N,+3V3*%
X81600000Y-86000000D02*
X83900000Y-86000000D01*
X104700000Y-96550000D02*
X109250000Y-92000000D01*
X104700000Y-96900000D02*
X104700000Y-96550000D01*
X103600000Y-98000000D02*
X104700000Y-96900000D01*
X102500000Y-98000000D02*
X103600000Y-98000000D01*
X92920000Y-94920000D02*
X93500000Y-95500000D01*
X92920000Y-92000000D02*
X92920000Y-94920000D01*
X86920000Y-86000000D02*
X83900000Y-86000000D01*
X92920000Y-92000000D02*
X86920000Y-86000000D01*
%TO.N,GND*%
X97290998Y-65200000D02*
X99300000Y-65200000D01*
X96474999Y-64384001D02*
X97290998Y-65200000D01*
X99058531Y-65441469D02*
X99300000Y-65200000D01*
X94093268Y-65441469D02*
X99058531Y-65441469D01*
X95000000Y-66348201D02*
X95000000Y-67500000D01*
X94093268Y-65441469D02*
X95000000Y-66348201D01*
D26*
X116134719Y-78665281D02*
X116000000Y-78800000D01*
X116134719Y-75896500D02*
X116134719Y-78665281D01*
X98530000Y-98070000D02*
X98530000Y-99750000D01*
X99300000Y-97300000D02*
X98530000Y-98070000D01*
X101050000Y-95950000D02*
X101000000Y-96000000D01*
X102500000Y-95950000D02*
X101050000Y-95950000D01*
X86856161Y-73958744D02*
X86114905Y-74700000D01*
X88500000Y-72800000D02*
X88432054Y-72800000D01*
X94131049Y-71631049D02*
X96000000Y-73500000D01*
X90028634Y-71631049D02*
X94131049Y-71631049D01*
X88500000Y-72800000D02*
X90028634Y-71631049D01*
X88432054Y-72800000D02*
X86856161Y-73958744D01*
X88432054Y-73979932D02*
X88432054Y-72800000D01*
X88895097Y-74442975D02*
X88432054Y-73979932D01*
X82112630Y-87787370D02*
X82112630Y-89177816D01*
X82700000Y-87200000D02*
X82112630Y-87787370D01*
X83289506Y-92889506D02*
X84400000Y-94000000D01*
X82685936Y-90985936D02*
X83289506Y-92889506D01*
X82112630Y-89177816D02*
X82685936Y-90985936D01*
X82900000Y-91400000D02*
X82685936Y-90985936D01*
X84307548Y-90892158D02*
X82900000Y-91400000D01*
X88067573Y-103400000D02*
X87300000Y-103400000D01*
X89171344Y-104503771D02*
X88067573Y-103400000D01*
X86114905Y-77914905D02*
X86114905Y-74700000D01*
X87000000Y-78800000D02*
X86114905Y-77914905D01*
D25*
X97350000Y-61300000D02*
X97350000Y-62140998D01*
X97350000Y-62140998D02*
X96474999Y-63015999D01*
X96474999Y-63015999D02*
X96474999Y-64384001D01*
D26*
X77286584Y-78786584D02*
X74465097Y-78786584D01*
X78500000Y-80000000D02*
X77286584Y-78786584D01*
X119527123Y-82127123D02*
X117300000Y-79900000D01*
X119527123Y-82285568D02*
X119527123Y-82127123D01*
D25*
%TO.N,+5V*%
X102500000Y-95000000D02*
X103280000Y-95000000D01*
X100260000Y-95000000D02*
X102500000Y-95000000D01*
X97260000Y-98000000D02*
X100260000Y-95000000D01*
X97260000Y-99750000D02*
X97260000Y-98000000D01*
X103355001Y-95075001D02*
X103280000Y-95000000D01*
X103355001Y-96824999D02*
X103355001Y-95075001D01*
X103280000Y-96900000D02*
X103355001Y-96824999D01*
X102500000Y-96900000D02*
X103280000Y-96900000D01*
D26*
X112605224Y-90957842D02*
X113394444Y-90168622D01*
X111457549Y-90957842D02*
X112605224Y-90957842D01*
X112314755Y-101349294D02*
X113179466Y-101349294D01*
X112424623Y-97175430D02*
X111309161Y-98290892D01*
X111309161Y-100343700D02*
X112314755Y-101349294D01*
X111309161Y-98290892D02*
X111309161Y-100343700D01*
X113394444Y-90168622D02*
X112460460Y-93042422D01*
X112460460Y-97139593D02*
X111309161Y-98290892D01*
X112460460Y-93042422D02*
X112460460Y-97139593D01*
X113801332Y-88916657D02*
X113394444Y-90168622D01*
X113803574Y-88784445D02*
X113801332Y-88916657D01*
X113803574Y-85952981D02*
X113803574Y-88784445D01*
X117500000Y-82100000D02*
X113803574Y-85952981D01*
D25*
X102500000Y-95000000D02*
X103300000Y-95000000D01*
X104100000Y-94200000D02*
X105900000Y-94200000D01*
X103300000Y-95000000D02*
X104100000Y-94200000D01*
X109142158Y-90957842D02*
X111457549Y-90957842D01*
X105900000Y-94200000D02*
X109142158Y-90957842D01*
X89500002Y-92000000D02*
X88059989Y-90559987D01*
X90380000Y-92000000D02*
X89500002Y-92000000D01*
%TO.N,/RST*%
X103420000Y-89800000D02*
X105620000Y-92000000D01*
X100900000Y-89800000D02*
X103420000Y-89800000D01*
%TO.N,/GPIO0*%
X103080000Y-92580000D02*
X103700000Y-93200000D01*
X103080000Y-92000000D02*
X103080000Y-92580000D01*
%TO.N,/RXD*%
X98000000Y-90500000D02*
X98000000Y-92000000D01*
X101200000Y-87300000D02*
X98000000Y-90500000D01*
X103600000Y-87300000D02*
X101200000Y-87300000D01*
%TO.N,/TXD*%
X97500000Y-90250000D02*
X102000000Y-85750000D01*
X97210000Y-90250000D02*
X97500000Y-90250000D01*
X95460000Y-92000000D02*
X97210000Y-90250000D01*
%TD*%
D27*
%TO.N,GND*%
X90357126Y-90511928D02*
X89530000Y-90511928D01*
X89405518Y-90524188D01*
X89285820Y-90560498D01*
X89187732Y-90612928D01*
X89094989Y-90520186D01*
X89094989Y-90458048D01*
X89055215Y-90258089D01*
X88977194Y-90069731D01*
X88863926Y-89900213D01*
X88719763Y-89756050D01*
X88550245Y-89642782D01*
X88361887Y-89564761D01*
X88161928Y-89524987D01*
X87958050Y-89524987D01*
X87758091Y-89564761D01*
X87569733Y-89642782D01*
X87400215Y-89756050D01*
X87256052Y-89900213D01*
X87142784Y-90069731D01*
X87064763Y-90258089D01*
X87024989Y-90458048D01*
X87024989Y-90661926D01*
X87064763Y-90861885D01*
X87142784Y-91050243D01*
X87256052Y-91219761D01*
X87400215Y-91363924D01*
X87569733Y-91477192D01*
X87758091Y-91555213D01*
X87958050Y-91594987D01*
X88020188Y-91594987D01*
X88891928Y-92466728D01*
X88891928Y-92850000D01*
X88904188Y-92974482D01*
X88940498Y-93094180D01*
X88999463Y-93204494D01*
X89078815Y-93301185D01*
X89175506Y-93380537D01*
X89285820Y-93439502D01*
X89405518Y-93475812D01*
X89530000Y-93488072D01*
X91230000Y-93488072D01*
X91354482Y-93475812D01*
X91474180Y-93439502D01*
X91584494Y-93380537D01*
X91681185Y-93301185D01*
X91760537Y-93204494D01*
X91819502Y-93094180D01*
X91841513Y-93021620D01*
X91973368Y-93153475D01*
X92160000Y-93278179D01*
X92160001Y-94882668D01*
X92156324Y-94920000D01*
X92160001Y-94957333D01*
X92170998Y-95068986D01*
X92173042Y-95075724D01*
X92214454Y-95212246D01*
X92285026Y-95344276D01*
X92329167Y-95398061D01*
X92380000Y-95460001D01*
X92408998Y-95483799D01*
X92465000Y-95539801D01*
X92465000Y-95601939D01*
X92504774Y-95801898D01*
X92582795Y-95990256D01*
X92696063Y-96159774D01*
X92840226Y-96303937D01*
X93009744Y-96417205D01*
X93198102Y-96495226D01*
X93398061Y-96535000D01*
X93601939Y-96535000D01*
X93801898Y-96495226D01*
X93990256Y-96417205D01*
X94159774Y-96303937D01*
X94303937Y-96159774D01*
X94417205Y-95990256D01*
X94495226Y-95801898D01*
X94535000Y-95601939D01*
X94535000Y-95398061D01*
X94495226Y-95198102D01*
X94417205Y-95009744D01*
X94303937Y-94840226D01*
X94159774Y-94696063D01*
X93990256Y-94582795D01*
X93801898Y-94504774D01*
X93680000Y-94480527D01*
X93680000Y-93278178D01*
X93866632Y-93153475D01*
X94073475Y-92946632D01*
X94190000Y-92772240D01*
X94306525Y-92946632D01*
X94513368Y-93153475D01*
X94756589Y-93315990D01*
X95026842Y-93427932D01*
X95313740Y-93485000D01*
X95606260Y-93485000D01*
X95893158Y-93427932D01*
X96163411Y-93315990D01*
X96406632Y-93153475D01*
X96613475Y-92946632D01*
X96730000Y-92772240D01*
X96846525Y-92946632D01*
X97053368Y-93153475D01*
X97296589Y-93315990D01*
X97566842Y-93427932D01*
X97853740Y-93485000D01*
X98146260Y-93485000D01*
X98433158Y-93427932D01*
X98703411Y-93315990D01*
X98946632Y-93153475D01*
X99071710Y-93028397D01*
X99691208Y-93028397D01*
X99768843Y-93277472D01*
X100032883Y-93403371D01*
X100316411Y-93475339D01*
X100608531Y-93490611D01*
X100898019Y-93448599D01*
X101173747Y-93350919D01*
X101311157Y-93277472D01*
X101388792Y-93028397D01*
X100540000Y-92179605D01*
X99691208Y-93028397D01*
X99071710Y-93028397D01*
X99153475Y-92946632D01*
X99269311Y-92773271D01*
X99511603Y-92848792D01*
X100360395Y-92000000D01*
X99511603Y-91151208D01*
X99269311Y-91226729D01*
X99153475Y-91053368D01*
X98946632Y-90846525D01*
X98815737Y-90759064D01*
X99865000Y-89709802D01*
X99865000Y-89901939D01*
X99904774Y-90101898D01*
X99982795Y-90290256D01*
X100096063Y-90459774D01*
X100186966Y-90550677D01*
X100181981Y-90551401D01*
X99906253Y-90649081D01*
X99768843Y-90722528D01*
X99691208Y-90971603D01*
X100540000Y-91820395D01*
X101388792Y-90971603D01*
X101318732Y-90746831D01*
X101390256Y-90717205D01*
X101559774Y-90603937D01*
X101603711Y-90560000D01*
X102707511Y-90560000D01*
X102646842Y-90572068D01*
X102376589Y-90684010D01*
X102133368Y-90846525D01*
X101926525Y-91053368D01*
X101810689Y-91226729D01*
X101568397Y-91151208D01*
X100719605Y-92000000D01*
X101568397Y-92848792D01*
X101810689Y-92773271D01*
X101926525Y-92946632D01*
X102133368Y-93153475D01*
X102376589Y-93315990D01*
X102646842Y-93427932D01*
X102691842Y-93436883D01*
X102704774Y-93501898D01*
X102782795Y-93690256D01*
X102896063Y-93859774D01*
X103040226Y-94003937D01*
X103099904Y-94043813D01*
X103030000Y-94036928D01*
X101970000Y-94036928D01*
X101845518Y-94049188D01*
X101725820Y-94085498D01*
X101615506Y-94144463D01*
X101518815Y-94223815D01*
X101505532Y-94240000D01*
X100297325Y-94240000D01*
X100260000Y-94236324D01*
X100222675Y-94240000D01*
X100222667Y-94240000D01*
X100111014Y-94250997D01*
X99967753Y-94294454D01*
X99835724Y-94365026D01*
X99719999Y-94459999D01*
X99696201Y-94488997D01*
X96748998Y-97436201D01*
X96720000Y-97459999D01*
X96696202Y-97488997D01*
X96696201Y-97488998D01*
X96625026Y-97575724D01*
X96554454Y-97707754D01*
X96540802Y-97752761D01*
X96439906Y-97698831D01*
X96219360Y-97631929D01*
X95990000Y-97609339D01*
X95760641Y-97631929D01*
X95540095Y-97698831D01*
X95336839Y-97807474D01*
X95158683Y-97953682D01*
X95012475Y-98131838D01*
X94903832Y-98335094D01*
X94836930Y-98555640D01*
X94820001Y-98727523D01*
X94820000Y-99845198D01*
X91517657Y-103147542D01*
X91217174Y-103147542D01*
X90905924Y-102562166D01*
X90836658Y-102458011D01*
X90748404Y-102369370D01*
X90644552Y-102299650D01*
X90529095Y-102251531D01*
X90406468Y-102226860D01*
X90281384Y-102226588D01*
X90158650Y-102250722D01*
X90042984Y-102298338D01*
X89883334Y-102383225D01*
X89926300Y-102211816D01*
X89940217Y-101929488D01*
X89898787Y-101649870D01*
X89803603Y-101383708D01*
X89736671Y-101258486D01*
X89492702Y-101186903D01*
X88679605Y-102000000D01*
X88693748Y-102014143D01*
X88514143Y-102193748D01*
X88500000Y-102179605D01*
X87686903Y-102992702D01*
X87758486Y-103236671D01*
X88013996Y-103357571D01*
X88143395Y-103390007D01*
X88029456Y-103515838D01*
X87978780Y-103607940D01*
X87765962Y-103607476D01*
X87539823Y-103651945D01*
X87326705Y-103739677D01*
X87134797Y-103867301D01*
X86971475Y-104029912D01*
X86854494Y-104204163D01*
X86644619Y-104203705D01*
X86418480Y-104248174D01*
X86205362Y-104335906D01*
X86013454Y-104463530D01*
X85850132Y-104626141D01*
X85721672Y-104817490D01*
X85633010Y-105030223D01*
X85601133Y-105188673D01*
X85526135Y-105134184D01*
X85418221Y-105070934D01*
X85300041Y-105029953D01*
X85222528Y-105019232D01*
X85154221Y-104918573D01*
X84934430Y-104914204D01*
X84766884Y-105144812D01*
X84717962Y-105181844D01*
X84634875Y-105275345D01*
X84019463Y-106122386D01*
X83860144Y-106006635D01*
X84194875Y-105545919D01*
X84282209Y-105396913D01*
X84293576Y-105364133D01*
X84728939Y-104764907D01*
X84656865Y-104557222D01*
X84414828Y-104487084D01*
X84309832Y-104481912D01*
X84216958Y-104290430D01*
X84077857Y-104106671D01*
X83905579Y-103953581D01*
X83706745Y-103837042D01*
X83488995Y-103761533D01*
X83281096Y-103732777D01*
X83269227Y-103708306D01*
X83269929Y-103708221D01*
X83388806Y-103669309D01*
X83497808Y-103607952D01*
X83592745Y-103526509D01*
X83669969Y-103428110D01*
X83726513Y-103316536D01*
X83760203Y-103196074D01*
X83946007Y-102142329D01*
X83955549Y-102017610D01*
X83940576Y-101893425D01*
X83929198Y-101858665D01*
X84565000Y-101858665D01*
X84565000Y-102141335D01*
X84620147Y-102418574D01*
X84728320Y-102679727D01*
X84885363Y-102914759D01*
X85085241Y-103114637D01*
X85320273Y-103271680D01*
X85581426Y-103379853D01*
X85858665Y-103435000D01*
X86141335Y-103435000D01*
X86418574Y-103379853D01*
X86679727Y-103271680D01*
X86914759Y-103114637D01*
X87114637Y-102914759D01*
X87248692Y-102714131D01*
X87263329Y-102741514D01*
X87507298Y-102813097D01*
X88320395Y-102000000D01*
X87507298Y-101186903D01*
X87263329Y-101258486D01*
X87249676Y-101287341D01*
X87114637Y-101085241D01*
X87036694Y-101007298D01*
X87686903Y-101007298D01*
X88500000Y-101820395D01*
X89313097Y-101007298D01*
X89241514Y-100763329D01*
X88986004Y-100642429D01*
X88711816Y-100573700D01*
X88429488Y-100559783D01*
X88149870Y-100601213D01*
X87883708Y-100696397D01*
X87758486Y-100763329D01*
X87686903Y-101007298D01*
X87036694Y-101007298D01*
X86914759Y-100885363D01*
X86679727Y-100728320D01*
X86418574Y-100620147D01*
X86141335Y-100565000D01*
X85858665Y-100565000D01*
X85581426Y-100620147D01*
X85320273Y-100728320D01*
X85085241Y-100885363D01*
X84885363Y-101085241D01*
X84728320Y-101320273D01*
X84620147Y-101581426D01*
X84565000Y-101858665D01*
X83929198Y-101858665D01*
X83916233Y-101819057D01*
X83976761Y-101713538D01*
X83884337Y-101514076D01*
X83603623Y-101464579D01*
X83548891Y-101436841D01*
X83428429Y-101403151D01*
X82397335Y-101221341D01*
X82431531Y-101027404D01*
X82992354Y-101126293D01*
X83164566Y-101139469D01*
X83199012Y-101135316D01*
X83928444Y-101263934D01*
X84083514Y-101108112D01*
X84040451Y-100859824D01*
X83999072Y-100763187D01*
X84130462Y-100595771D01*
X84234645Y-100390193D01*
X84296720Y-100168240D01*
X84314301Y-99938442D01*
X84286713Y-99709630D01*
X84221422Y-99510167D01*
X84350996Y-99345065D01*
X84455179Y-99139487D01*
X84517254Y-98917534D01*
X84534835Y-98687736D01*
X84507247Y-98458924D01*
X84435550Y-98239890D01*
X84322500Y-98039052D01*
X84172440Y-97864128D01*
X83991137Y-97721841D01*
X83785559Y-97617658D01*
X83619227Y-97571138D01*
X82787110Y-97424413D01*
X82699413Y-97417703D01*
X83458662Y-93207322D01*
X83524179Y-93301326D01*
X83614347Y-93388020D01*
X83719694Y-93455457D01*
X83836175Y-93501047D01*
X83959311Y-93523036D01*
X84084370Y-93520580D01*
X84206548Y-93493773D01*
X85918450Y-92937542D01*
X86033050Y-92887415D01*
X86135669Y-92815894D01*
X86222364Y-92725727D01*
X86289801Y-92620379D01*
X86335391Y-92503899D01*
X86357380Y-92380763D01*
X86354924Y-92255703D01*
X86328118Y-92133525D01*
X85997470Y-91115894D01*
X85947342Y-91001293D01*
X85875821Y-90898674D01*
X85819413Y-90844439D01*
X85823318Y-90722856D01*
X85648071Y-90590132D01*
X85376978Y-90678215D01*
X85315630Y-90679420D01*
X85193452Y-90706227D01*
X84197695Y-91029768D01*
X84136841Y-90842477D01*
X84678446Y-90666499D01*
X84836685Y-90597284D01*
X84865146Y-90577448D01*
X85569580Y-90348563D01*
X85633345Y-90138179D01*
X85478759Y-89939170D01*
X85396856Y-89873272D01*
X85434270Y-89663768D01*
X85429745Y-89433342D01*
X85380353Y-89208227D01*
X85287993Y-88997073D01*
X85156213Y-88807995D01*
X85004922Y-88662532D01*
X85041818Y-88455927D01*
X85037293Y-88225501D01*
X84987901Y-88000386D01*
X84895541Y-87789232D01*
X84763761Y-87600154D01*
X84597626Y-87440419D01*
X84403521Y-87316163D01*
X84304545Y-87277425D01*
X84532359Y-87183061D01*
X84751013Y-87036962D01*
X84936962Y-86851013D01*
X84997775Y-86760000D01*
X86605199Y-86760000D01*
X90357126Y-90511928D01*
%TA.AperFunction,Conductor*%
D28*
G36*
X90357126Y-90511928D02*
G01*
X89530000Y-90511928D01*
X89405518Y-90524188D01*
X89285820Y-90560498D01*
X89187732Y-90612928D01*
X89094989Y-90520186D01*
X89094989Y-90458048D01*
X89055215Y-90258089D01*
X88977194Y-90069731D01*
X88863926Y-89900213D01*
X88719763Y-89756050D01*
X88550245Y-89642782D01*
X88361887Y-89564761D01*
X88161928Y-89524987D01*
X87958050Y-89524987D01*
X87758091Y-89564761D01*
X87569733Y-89642782D01*
X87400215Y-89756050D01*
X87256052Y-89900213D01*
X87142784Y-90069731D01*
X87064763Y-90258089D01*
X87024989Y-90458048D01*
X87024989Y-90661926D01*
X87064763Y-90861885D01*
X87142784Y-91050243D01*
X87256052Y-91219761D01*
X87400215Y-91363924D01*
X87569733Y-91477192D01*
X87758091Y-91555213D01*
X87958050Y-91594987D01*
X88020188Y-91594987D01*
X88891928Y-92466728D01*
X88891928Y-92850000D01*
X88904188Y-92974482D01*
X88940498Y-93094180D01*
X88999463Y-93204494D01*
X89078815Y-93301185D01*
X89175506Y-93380537D01*
X89285820Y-93439502D01*
X89405518Y-93475812D01*
X89530000Y-93488072D01*
X91230000Y-93488072D01*
X91354482Y-93475812D01*
X91474180Y-93439502D01*
X91584494Y-93380537D01*
X91681185Y-93301185D01*
X91760537Y-93204494D01*
X91819502Y-93094180D01*
X91841513Y-93021620D01*
X91973368Y-93153475D01*
X92160000Y-93278179D01*
X92160001Y-94882668D01*
X92156324Y-94920000D01*
X92160001Y-94957333D01*
X92170998Y-95068986D01*
X92173042Y-95075724D01*
X92214454Y-95212246D01*
X92285026Y-95344276D01*
X92329167Y-95398061D01*
X92380000Y-95460001D01*
X92408998Y-95483799D01*
X92465000Y-95539801D01*
X92465000Y-95601939D01*
X92504774Y-95801898D01*
X92582795Y-95990256D01*
X92696063Y-96159774D01*
X92840226Y-96303937D01*
X93009744Y-96417205D01*
X93198102Y-96495226D01*
X93398061Y-96535000D01*
X93601939Y-96535000D01*
X93801898Y-96495226D01*
X93990256Y-96417205D01*
X94159774Y-96303937D01*
X94303937Y-96159774D01*
X94417205Y-95990256D01*
X94495226Y-95801898D01*
X94535000Y-95601939D01*
X94535000Y-95398061D01*
X94495226Y-95198102D01*
X94417205Y-95009744D01*
X94303937Y-94840226D01*
X94159774Y-94696063D01*
X93990256Y-94582795D01*
X93801898Y-94504774D01*
X93680000Y-94480527D01*
X93680000Y-93278178D01*
X93866632Y-93153475D01*
X94073475Y-92946632D01*
X94190000Y-92772240D01*
X94306525Y-92946632D01*
X94513368Y-93153475D01*
X94756589Y-93315990D01*
X95026842Y-93427932D01*
X95313740Y-93485000D01*
X95606260Y-93485000D01*
X95893158Y-93427932D01*
X96163411Y-93315990D01*
X96406632Y-93153475D01*
X96613475Y-92946632D01*
X96730000Y-92772240D01*
X96846525Y-92946632D01*
X97053368Y-93153475D01*
X97296589Y-93315990D01*
X97566842Y-93427932D01*
X97853740Y-93485000D01*
X98146260Y-93485000D01*
X98433158Y-93427932D01*
X98703411Y-93315990D01*
X98946632Y-93153475D01*
X99071710Y-93028397D01*
X99691208Y-93028397D01*
X99768843Y-93277472D01*
X100032883Y-93403371D01*
X100316411Y-93475339D01*
X100608531Y-93490611D01*
X100898019Y-93448599D01*
X101173747Y-93350919D01*
X101311157Y-93277472D01*
X101388792Y-93028397D01*
X100540000Y-92179605D01*
X99691208Y-93028397D01*
X99071710Y-93028397D01*
X99153475Y-92946632D01*
X99269311Y-92773271D01*
X99511603Y-92848792D01*
X100360395Y-92000000D01*
X99511603Y-91151208D01*
X99269311Y-91226729D01*
X99153475Y-91053368D01*
X98946632Y-90846525D01*
X98815737Y-90759064D01*
X99865000Y-89709802D01*
X99865000Y-89901939D01*
X99904774Y-90101898D01*
X99982795Y-90290256D01*
X100096063Y-90459774D01*
X100186966Y-90550677D01*
X100181981Y-90551401D01*
X99906253Y-90649081D01*
X99768843Y-90722528D01*
X99691208Y-90971603D01*
X100540000Y-91820395D01*
X101388792Y-90971603D01*
X101318732Y-90746831D01*
X101390256Y-90717205D01*
X101559774Y-90603937D01*
X101603711Y-90560000D01*
X102707511Y-90560000D01*
X102646842Y-90572068D01*
X102376589Y-90684010D01*
X102133368Y-90846525D01*
X101926525Y-91053368D01*
X101810689Y-91226729D01*
X101568397Y-91151208D01*
X100719605Y-92000000D01*
X101568397Y-92848792D01*
X101810689Y-92773271D01*
X101926525Y-92946632D01*
X102133368Y-93153475D01*
X102376589Y-93315990D01*
X102646842Y-93427932D01*
X102691842Y-93436883D01*
X102704774Y-93501898D01*
X102782795Y-93690256D01*
X102896063Y-93859774D01*
X103040226Y-94003937D01*
X103099904Y-94043813D01*
X103030000Y-94036928D01*
X101970000Y-94036928D01*
X101845518Y-94049188D01*
X101725820Y-94085498D01*
X101615506Y-94144463D01*
X101518815Y-94223815D01*
X101505532Y-94240000D01*
X100297325Y-94240000D01*
X100260000Y-94236324D01*
X100222675Y-94240000D01*
X100222667Y-94240000D01*
X100111014Y-94250997D01*
X99967753Y-94294454D01*
X99835724Y-94365026D01*
X99719999Y-94459999D01*
X99696201Y-94488997D01*
X96748998Y-97436201D01*
X96720000Y-97459999D01*
X96696202Y-97488997D01*
X96696201Y-97488998D01*
X96625026Y-97575724D01*
X96554454Y-97707754D01*
X96540802Y-97752761D01*
X96439906Y-97698831D01*
X96219360Y-97631929D01*
X95990000Y-97609339D01*
X95760641Y-97631929D01*
X95540095Y-97698831D01*
X95336839Y-97807474D01*
X95158683Y-97953682D01*
X95012475Y-98131838D01*
X94903832Y-98335094D01*
X94836930Y-98555640D01*
X94820001Y-98727523D01*
X94820000Y-99845198D01*
X91517657Y-103147542D01*
X91217174Y-103147542D01*
X90905924Y-102562166D01*
X90836658Y-102458011D01*
X90748404Y-102369370D01*
X90644552Y-102299650D01*
X90529095Y-102251531D01*
X90406468Y-102226860D01*
X90281384Y-102226588D01*
X90158650Y-102250722D01*
X90042984Y-102298338D01*
X89883334Y-102383225D01*
X89926300Y-102211816D01*
X89940217Y-101929488D01*
X89898787Y-101649870D01*
X89803603Y-101383708D01*
X89736671Y-101258486D01*
X89492702Y-101186903D01*
X88679605Y-102000000D01*
X88693748Y-102014143D01*
X88514143Y-102193748D01*
X88500000Y-102179605D01*
X87686903Y-102992702D01*
X87758486Y-103236671D01*
X88013996Y-103357571D01*
X88143395Y-103390007D01*
X88029456Y-103515838D01*
X87978780Y-103607940D01*
X87765962Y-103607476D01*
X87539823Y-103651945D01*
X87326705Y-103739677D01*
X87134797Y-103867301D01*
X86971475Y-104029912D01*
X86854494Y-104204163D01*
X86644619Y-104203705D01*
X86418480Y-104248174D01*
X86205362Y-104335906D01*
X86013454Y-104463530D01*
X85850132Y-104626141D01*
X85721672Y-104817490D01*
X85633010Y-105030223D01*
X85601133Y-105188673D01*
X85526135Y-105134184D01*
X85418221Y-105070934D01*
X85300041Y-105029953D01*
X85222528Y-105019232D01*
X85154221Y-104918573D01*
X84934430Y-104914204D01*
X84766884Y-105144812D01*
X84717962Y-105181844D01*
X84634875Y-105275345D01*
X84019463Y-106122386D01*
X83860144Y-106006635D01*
X84194875Y-105545919D01*
X84282209Y-105396913D01*
X84293576Y-105364133D01*
X84728939Y-104764907D01*
X84656865Y-104557222D01*
X84414828Y-104487084D01*
X84309832Y-104481912D01*
X84216958Y-104290430D01*
X84077857Y-104106671D01*
X83905579Y-103953581D01*
X83706745Y-103837042D01*
X83488995Y-103761533D01*
X83281096Y-103732777D01*
X83269227Y-103708306D01*
X83269929Y-103708221D01*
X83388806Y-103669309D01*
X83497808Y-103607952D01*
X83592745Y-103526509D01*
X83669969Y-103428110D01*
X83726513Y-103316536D01*
X83760203Y-103196074D01*
X83946007Y-102142329D01*
X83955549Y-102017610D01*
X83940576Y-101893425D01*
X83929198Y-101858665D01*
X84565000Y-101858665D01*
X84565000Y-102141335D01*
X84620147Y-102418574D01*
X84728320Y-102679727D01*
X84885363Y-102914759D01*
X85085241Y-103114637D01*
X85320273Y-103271680D01*
X85581426Y-103379853D01*
X85858665Y-103435000D01*
X86141335Y-103435000D01*
X86418574Y-103379853D01*
X86679727Y-103271680D01*
X86914759Y-103114637D01*
X87114637Y-102914759D01*
X87248692Y-102714131D01*
X87263329Y-102741514D01*
X87507298Y-102813097D01*
X88320395Y-102000000D01*
X87507298Y-101186903D01*
X87263329Y-101258486D01*
X87249676Y-101287341D01*
X87114637Y-101085241D01*
X87036694Y-101007298D01*
X87686903Y-101007298D01*
X88500000Y-101820395D01*
X89313097Y-101007298D01*
X89241514Y-100763329D01*
X88986004Y-100642429D01*
X88711816Y-100573700D01*
X88429488Y-100559783D01*
X88149870Y-100601213D01*
X87883708Y-100696397D01*
X87758486Y-100763329D01*
X87686903Y-101007298D01*
X87036694Y-101007298D01*
X86914759Y-100885363D01*
X86679727Y-100728320D01*
X86418574Y-100620147D01*
X86141335Y-100565000D01*
X85858665Y-100565000D01*
X85581426Y-100620147D01*
X85320273Y-100728320D01*
X85085241Y-100885363D01*
X84885363Y-101085241D01*
X84728320Y-101320273D01*
X84620147Y-101581426D01*
X84565000Y-101858665D01*
X83929198Y-101858665D01*
X83916233Y-101819057D01*
X83976761Y-101713538D01*
X83884337Y-101514076D01*
X83603623Y-101464579D01*
X83548891Y-101436841D01*
X83428429Y-101403151D01*
X82397335Y-101221341D01*
X82431531Y-101027404D01*
X82992354Y-101126293D01*
X83164566Y-101139469D01*
X83199012Y-101135316D01*
X83928444Y-101263934D01*
X84083514Y-101108112D01*
X84040451Y-100859824D01*
X83999072Y-100763187D01*
X84130462Y-100595771D01*
X84234645Y-100390193D01*
X84296720Y-100168240D01*
X84314301Y-99938442D01*
X84286713Y-99709630D01*
X84221422Y-99510167D01*
X84350996Y-99345065D01*
X84455179Y-99139487D01*
X84517254Y-98917534D01*
X84534835Y-98687736D01*
X84507247Y-98458924D01*
X84435550Y-98239890D01*
X84322500Y-98039052D01*
X84172440Y-97864128D01*
X83991137Y-97721841D01*
X83785559Y-97617658D01*
X83619227Y-97571138D01*
X82787110Y-97424413D01*
X82699413Y-97417703D01*
X83458662Y-93207322D01*
X83524179Y-93301326D01*
X83614347Y-93388020D01*
X83719694Y-93455457D01*
X83836175Y-93501047D01*
X83959311Y-93523036D01*
X84084370Y-93520580D01*
X84206548Y-93493773D01*
X85918450Y-92937542D01*
X86033050Y-92887415D01*
X86135669Y-92815894D01*
X86222364Y-92725727D01*
X86289801Y-92620379D01*
X86335391Y-92503899D01*
X86357380Y-92380763D01*
X86354924Y-92255703D01*
X86328118Y-92133525D01*
X85997470Y-91115894D01*
X85947342Y-91001293D01*
X85875821Y-90898674D01*
X85819413Y-90844439D01*
X85823318Y-90722856D01*
X85648071Y-90590132D01*
X85376978Y-90678215D01*
X85315630Y-90679420D01*
X85193452Y-90706227D01*
X84197695Y-91029768D01*
X84136841Y-90842477D01*
X84678446Y-90666499D01*
X84836685Y-90597284D01*
X84865146Y-90577448D01*
X85569580Y-90348563D01*
X85633345Y-90138179D01*
X85478759Y-89939170D01*
X85396856Y-89873272D01*
X85434270Y-89663768D01*
X85429745Y-89433342D01*
X85380353Y-89208227D01*
X85287993Y-88997073D01*
X85156213Y-88807995D01*
X85004922Y-88662532D01*
X85041818Y-88455927D01*
X85037293Y-88225501D01*
X84987901Y-88000386D01*
X84895541Y-87789232D01*
X84763761Y-87600154D01*
X84597626Y-87440419D01*
X84403521Y-87316163D01*
X84304545Y-87277425D01*
X84532359Y-87183061D01*
X84751013Y-87036962D01*
X84936962Y-86851013D01*
X84997775Y-86760000D01*
X86605199Y-86760000D01*
X90357126Y-90511928D01*
G37*
%TD.AperFunction*%
D27*
X109954432Y-92946872D02*
X110143510Y-93078652D01*
X110301749Y-93147867D01*
X111105348Y-93408971D01*
X111274050Y-93445986D01*
X111504475Y-93450510D01*
X111575460Y-93437834D01*
X111575461Y-96773013D01*
X111234676Y-97113799D01*
X110714117Y-97634358D01*
X110680344Y-97662075D01*
X110569750Y-97796834D01*
X110487572Y-97950580D01*
X110436966Y-98117403D01*
X110424161Y-98247416D01*
X110424161Y-98247423D01*
X110419880Y-98290892D01*
X110424161Y-98334361D01*
X110424162Y-100300221D01*
X110419880Y-100343700D01*
X110436966Y-100517190D01*
X110487573Y-100684013D01*
X110569751Y-100837759D01*
X110652629Y-100938746D01*
X110652632Y-100938749D01*
X110680345Y-100972517D01*
X110714112Y-101000229D01*
X111658225Y-101944343D01*
X111685938Y-101978111D01*
X111719706Y-102005824D01*
X111719708Y-102005826D01*
X111820696Y-102088705D01*
X111894040Y-102127908D01*
X111958043Y-102209460D01*
X111892752Y-102408924D01*
X111865164Y-102637737D01*
X111882746Y-102867534D01*
X111944821Y-103089487D01*
X112049004Y-103295065D01*
X112191292Y-103476367D01*
X112366215Y-103626427D01*
X112455655Y-103676772D01*
X112369618Y-103753226D01*
X112294123Y-103852959D01*
X112259975Y-103923363D01*
X112143134Y-103957221D01*
X112071060Y-104164906D01*
X112238605Y-104395512D01*
X112258708Y-104453485D01*
X112321958Y-104561400D01*
X112937369Y-105408440D01*
X112778050Y-105524191D01*
X112443319Y-105063475D01*
X112328593Y-104934369D01*
X112300934Y-104913432D01*
X111865569Y-104314203D01*
X111645778Y-104318572D01*
X111504279Y-104527089D01*
X111466915Y-104625348D01*
X111256102Y-104654508D01*
X111038352Y-104730017D01*
X110839518Y-104846556D01*
X110667240Y-104999646D01*
X110528139Y-105183405D01*
X110493843Y-105254114D01*
X110493793Y-105231273D01*
X110469122Y-105108646D01*
X110421003Y-104993189D01*
X110351283Y-104889337D01*
X110262642Y-104801083D01*
X110158487Y-104731817D01*
X109213733Y-104229483D01*
X109098067Y-104181867D01*
X108975333Y-104157733D01*
X108897085Y-104157903D01*
X108815434Y-104067730D01*
X108597173Y-104093993D01*
X108463353Y-104345673D01*
X108420059Y-104389156D01*
X108350793Y-104493311D01*
X107859257Y-105417756D01*
X107685380Y-105325303D01*
X107952732Y-104822486D01*
X108018479Y-104662774D01*
X108025172Y-104628736D01*
X108372904Y-103974747D01*
X108272627Y-103779115D01*
X108023185Y-103743345D01*
X107918490Y-103752836D01*
X107799868Y-103576141D01*
X107636546Y-103413530D01*
X107587818Y-103381124D01*
X107858665Y-103435000D01*
X108141335Y-103435000D01*
X108418574Y-103379853D01*
X108679727Y-103271680D01*
X108914759Y-103114637D01*
X109114637Y-102914759D01*
X109271680Y-102679727D01*
X109379853Y-102418574D01*
X109435000Y-102141335D01*
X109435000Y-101858665D01*
X109379853Y-101581426D01*
X109271680Y-101320273D01*
X109114637Y-101085241D01*
X108914759Y-100885363D01*
X108679727Y-100728320D01*
X108418574Y-100620147D01*
X108141335Y-100565000D01*
X107858665Y-100565000D01*
X107581426Y-100620147D01*
X107320273Y-100728320D01*
X107085241Y-100885363D01*
X106885363Y-101085241D01*
X106751308Y-101285869D01*
X106736671Y-101258486D01*
X106492702Y-101186903D01*
X105679605Y-102000000D01*
X105693748Y-102014143D01*
X105514143Y-102193748D01*
X105500000Y-102179605D01*
X104686903Y-102992702D01*
X104740301Y-103174694D01*
X104678993Y-103290000D01*
X104028981Y-103290000D01*
X102407028Y-102432226D01*
X102045314Y-102070512D01*
X104059783Y-102070512D01*
X104101213Y-102350130D01*
X104196397Y-102616292D01*
X104263329Y-102741514D01*
X104507298Y-102813097D01*
X105320395Y-102000000D01*
X104507298Y-101186903D01*
X104263329Y-101258486D01*
X104142429Y-101513996D01*
X104073700Y-101788184D01*
X104059783Y-102070512D01*
X102045314Y-102070512D01*
X100982100Y-101007298D01*
X104686903Y-101007298D01*
X105500000Y-101820395D01*
X106313097Y-101007298D01*
X106241514Y-100763329D01*
X105986004Y-100642429D01*
X105711816Y-100573700D01*
X105429488Y-100559783D01*
X105149870Y-100601213D01*
X104883708Y-100696397D01*
X104758486Y-100763329D01*
X104686903Y-101007298D01*
X100982100Y-101007298D01*
X100973072Y-100998271D01*
X100973072Y-98250000D01*
X100960812Y-98125518D01*
X100924502Y-98005820D01*
X100865537Y-97895506D01*
X100786185Y-97798815D01*
X100689494Y-97719463D01*
X100579180Y-97660498D01*
X100459482Y-97624188D01*
X100335000Y-97611928D01*
X99265000Y-97611928D01*
X99140518Y-97624188D01*
X99020820Y-97660498D01*
X98951810Y-97697385D01*
X98837383Y-97656100D01*
X98657002Y-97781755D01*
X98657002Y-97677799D01*
X100574802Y-95760000D01*
X101430750Y-95760000D01*
X101493750Y-95823000D01*
X101575859Y-95823000D01*
X101615506Y-95855537D01*
X101725820Y-95914502D01*
X101842841Y-95950000D01*
X101725820Y-95985498D01*
X101615506Y-96044463D01*
X101575859Y-96077000D01*
X101493750Y-96077000D01*
X101335000Y-96235750D01*
X101331928Y-96275000D01*
X101344188Y-96399482D01*
X101351929Y-96425000D01*
X101344188Y-96450518D01*
X101331928Y-96575000D01*
X101331928Y-97225000D01*
X101344188Y-97349482D01*
X101380498Y-97469180D01*
X101439463Y-97579494D01*
X101515517Y-97672166D01*
X101504774Y-97698102D01*
X101465000Y-97898061D01*
X101465000Y-98101939D01*
X101504774Y-98301898D01*
X101582795Y-98490256D01*
X101696063Y-98659774D01*
X101840226Y-98803937D01*
X102009744Y-98917205D01*
X102198102Y-98995226D01*
X102398061Y-99035000D01*
X102601939Y-99035000D01*
X102801898Y-98995226D01*
X102990256Y-98917205D01*
X103159774Y-98803937D01*
X103203711Y-98760000D01*
X103562678Y-98760000D01*
X103600000Y-98763676D01*
X103637322Y-98760000D01*
X103637333Y-98760000D01*
X103748986Y-98749003D01*
X103892247Y-98705546D01*
X104024276Y-98634974D01*
X104140001Y-98540001D01*
X104163804Y-98510998D01*
X104811730Y-97863072D01*
X105230000Y-97863072D01*
X105354482Y-97850812D01*
X105474180Y-97814502D01*
X105584494Y-97755537D01*
X105681185Y-97676185D01*
X105760537Y-97579494D01*
X105819502Y-97469180D01*
X105855812Y-97349482D01*
X105868072Y-97225000D01*
X105868072Y-96575000D01*
X105857468Y-96467333D01*
X109289802Y-93035000D01*
X109351939Y-93035000D01*
X109551898Y-92995226D01*
X109740256Y-92917205D01*
X109853290Y-92841678D01*
X109954432Y-92946872D01*
%TA.AperFunction,Conductor*%
D28*
G36*
X109954432Y-92946872D02*
G01*
X110143510Y-93078652D01*
X110301749Y-93147867D01*
X111105348Y-93408971D01*
X111274050Y-93445986D01*
X111504475Y-93450510D01*
X111575460Y-93437834D01*
X111575461Y-96773013D01*
X111234676Y-97113799D01*
X110714117Y-97634358D01*
X110680344Y-97662075D01*
X110569750Y-97796834D01*
X110487572Y-97950580D01*
X110436966Y-98117403D01*
X110424161Y-98247416D01*
X110424161Y-98247423D01*
X110419880Y-98290892D01*
X110424161Y-98334361D01*
X110424162Y-100300221D01*
X110419880Y-100343700D01*
X110436966Y-100517190D01*
X110487573Y-100684013D01*
X110569751Y-100837759D01*
X110652629Y-100938746D01*
X110652632Y-100938749D01*
X110680345Y-100972517D01*
X110714112Y-101000229D01*
X111658225Y-101944343D01*
X111685938Y-101978111D01*
X111719706Y-102005824D01*
X111719708Y-102005826D01*
X111820696Y-102088705D01*
X111894040Y-102127908D01*
X111958043Y-102209460D01*
X111892752Y-102408924D01*
X111865164Y-102637737D01*
X111882746Y-102867534D01*
X111944821Y-103089487D01*
X112049004Y-103295065D01*
X112191292Y-103476367D01*
X112366215Y-103626427D01*
X112455655Y-103676772D01*
X112369618Y-103753226D01*
X112294123Y-103852959D01*
X112259975Y-103923363D01*
X112143134Y-103957221D01*
X112071060Y-104164906D01*
X112238605Y-104395512D01*
X112258708Y-104453485D01*
X112321958Y-104561400D01*
X112937369Y-105408440D01*
X112778050Y-105524191D01*
X112443319Y-105063475D01*
X112328593Y-104934369D01*
X112300934Y-104913432D01*
X111865569Y-104314203D01*
X111645778Y-104318572D01*
X111504279Y-104527089D01*
X111466915Y-104625348D01*
X111256102Y-104654508D01*
X111038352Y-104730017D01*
X110839518Y-104846556D01*
X110667240Y-104999646D01*
X110528139Y-105183405D01*
X110493843Y-105254114D01*
X110493793Y-105231273D01*
X110469122Y-105108646D01*
X110421003Y-104993189D01*
X110351283Y-104889337D01*
X110262642Y-104801083D01*
X110158487Y-104731817D01*
X109213733Y-104229483D01*
X109098067Y-104181867D01*
X108975333Y-104157733D01*
X108897085Y-104157903D01*
X108815434Y-104067730D01*
X108597173Y-104093993D01*
X108463353Y-104345673D01*
X108420059Y-104389156D01*
X108350793Y-104493311D01*
X107859257Y-105417756D01*
X107685380Y-105325303D01*
X107952732Y-104822486D01*
X108018479Y-104662774D01*
X108025172Y-104628736D01*
X108372904Y-103974747D01*
X108272627Y-103779115D01*
X108023185Y-103743345D01*
X107918490Y-103752836D01*
X107799868Y-103576141D01*
X107636546Y-103413530D01*
X107587818Y-103381124D01*
X107858665Y-103435000D01*
X108141335Y-103435000D01*
X108418574Y-103379853D01*
X108679727Y-103271680D01*
X108914759Y-103114637D01*
X109114637Y-102914759D01*
X109271680Y-102679727D01*
X109379853Y-102418574D01*
X109435000Y-102141335D01*
X109435000Y-101858665D01*
X109379853Y-101581426D01*
X109271680Y-101320273D01*
X109114637Y-101085241D01*
X108914759Y-100885363D01*
X108679727Y-100728320D01*
X108418574Y-100620147D01*
X108141335Y-100565000D01*
X107858665Y-100565000D01*
X107581426Y-100620147D01*
X107320273Y-100728320D01*
X107085241Y-100885363D01*
X106885363Y-101085241D01*
X106751308Y-101285869D01*
X106736671Y-101258486D01*
X106492702Y-101186903D01*
X105679605Y-102000000D01*
X105693748Y-102014143D01*
X105514143Y-102193748D01*
X105500000Y-102179605D01*
X104686903Y-102992702D01*
X104740301Y-103174694D01*
X104678993Y-103290000D01*
X104028981Y-103290000D01*
X102407028Y-102432226D01*
X102045314Y-102070512D01*
X104059783Y-102070512D01*
X104101213Y-102350130D01*
X104196397Y-102616292D01*
X104263329Y-102741514D01*
X104507298Y-102813097D01*
X105320395Y-102000000D01*
X104507298Y-101186903D01*
X104263329Y-101258486D01*
X104142429Y-101513996D01*
X104073700Y-101788184D01*
X104059783Y-102070512D01*
X102045314Y-102070512D01*
X100982100Y-101007298D01*
X104686903Y-101007298D01*
X105500000Y-101820395D01*
X106313097Y-101007298D01*
X106241514Y-100763329D01*
X105986004Y-100642429D01*
X105711816Y-100573700D01*
X105429488Y-100559783D01*
X105149870Y-100601213D01*
X104883708Y-100696397D01*
X104758486Y-100763329D01*
X104686903Y-101007298D01*
X100982100Y-101007298D01*
X100973072Y-100998271D01*
X100973072Y-98250000D01*
X100960812Y-98125518D01*
X100924502Y-98005820D01*
X100865537Y-97895506D01*
X100786185Y-97798815D01*
X100689494Y-97719463D01*
X100579180Y-97660498D01*
X100459482Y-97624188D01*
X100335000Y-97611928D01*
X99265000Y-97611928D01*
X99140518Y-97624188D01*
X99020820Y-97660498D01*
X98951810Y-97697385D01*
X98837383Y-97656100D01*
X98657002Y-97781755D01*
X98657002Y-97677799D01*
X100574802Y-95760000D01*
X101430750Y-95760000D01*
X101493750Y-95823000D01*
X101575859Y-95823000D01*
X101615506Y-95855537D01*
X101725820Y-95914502D01*
X101842841Y-95950000D01*
X101725820Y-95985498D01*
X101615506Y-96044463D01*
X101575859Y-96077000D01*
X101493750Y-96077000D01*
X101335000Y-96235750D01*
X101331928Y-96275000D01*
X101344188Y-96399482D01*
X101351929Y-96425000D01*
X101344188Y-96450518D01*
X101331928Y-96575000D01*
X101331928Y-97225000D01*
X101344188Y-97349482D01*
X101380498Y-97469180D01*
X101439463Y-97579494D01*
X101515517Y-97672166D01*
X101504774Y-97698102D01*
X101465000Y-97898061D01*
X101465000Y-98101939D01*
X101504774Y-98301898D01*
X101582795Y-98490256D01*
X101696063Y-98659774D01*
X101840226Y-98803937D01*
X102009744Y-98917205D01*
X102198102Y-98995226D01*
X102398061Y-99035000D01*
X102601939Y-99035000D01*
X102801898Y-98995226D01*
X102990256Y-98917205D01*
X103159774Y-98803937D01*
X103203711Y-98760000D01*
X103562678Y-98760000D01*
X103600000Y-98763676D01*
X103637322Y-98760000D01*
X103637333Y-98760000D01*
X103748986Y-98749003D01*
X103892247Y-98705546D01*
X104024276Y-98634974D01*
X104140001Y-98540001D01*
X104163804Y-98510998D01*
X104811730Y-97863072D01*
X105230000Y-97863072D01*
X105354482Y-97850812D01*
X105474180Y-97814502D01*
X105584494Y-97755537D01*
X105681185Y-97676185D01*
X105760537Y-97579494D01*
X105819502Y-97469180D01*
X105855812Y-97349482D01*
X105868072Y-97225000D01*
X105868072Y-96575000D01*
X105857468Y-96467333D01*
X109289802Y-93035000D01*
X109351939Y-93035000D01*
X109551898Y-92995226D01*
X109740256Y-92917205D01*
X109853290Y-92841678D01*
X109954432Y-92946872D01*
G37*
%TD.AperFunction*%
D27*
X89325938Y-104588059D02*
X89152061Y-104680512D01*
X89014037Y-104420926D01*
X89187914Y-104328473D01*
X89325938Y-104588059D01*
%TA.AperFunction,Conductor*%
D28*
G36*
X89325938Y-104588059D02*
G01*
X89152061Y-104680512D01*
X89014037Y-104420926D01*
X89187914Y-104328473D01*
X89325938Y-104588059D01*
G37*
%TD.AperFunction*%
D27*
X98626928Y-101250000D02*
X98639188Y-101374482D01*
X98657000Y-101433200D01*
X98657000Y-101718244D01*
X98837383Y-101843900D01*
X98951810Y-101802615D01*
X99020820Y-101839502D01*
X99140518Y-101875812D01*
X99265000Y-101888072D01*
X99713271Y-101888072D01*
X99840199Y-102015000D01*
X95204141Y-102015000D01*
X95140926Y-102014226D01*
X95103553Y-102021185D01*
X95065717Y-102024912D01*
X95037381Y-102033508D01*
X95008273Y-102038928D01*
X94972976Y-102053045D01*
X94936594Y-102064081D01*
X94880815Y-102093895D01*
X94548456Y-102266346D01*
X95218990Y-101595811D01*
X95336838Y-101692526D01*
X95540094Y-101801169D01*
X95760640Y-101868071D01*
X95990000Y-101890661D01*
X96219359Y-101868071D01*
X96439905Y-101801169D01*
X96624999Y-101702234D01*
X96810094Y-101801169D01*
X97030640Y-101868071D01*
X97260000Y-101890661D01*
X97489359Y-101868071D01*
X97709905Y-101801169D01*
X97897596Y-101700846D01*
X97985579Y-101758377D01*
X98222617Y-101843900D01*
X98403000Y-101718244D01*
X98403000Y-100977560D01*
X98413071Y-100944360D01*
X98430000Y-100772477D01*
X98430000Y-99603000D01*
X98626928Y-99603000D01*
X98626928Y-101250000D01*
%TA.AperFunction,Conductor*%
D28*
G36*
X98626928Y-101250000D02*
G01*
X98639188Y-101374482D01*
X98657000Y-101433200D01*
X98657000Y-101718244D01*
X98837383Y-101843900D01*
X98951810Y-101802615D01*
X99020820Y-101839502D01*
X99140518Y-101875812D01*
X99265000Y-101888072D01*
X99713271Y-101888072D01*
X99840199Y-102015000D01*
X95204141Y-102015000D01*
X95140926Y-102014226D01*
X95103553Y-102021185D01*
X95065717Y-102024912D01*
X95037381Y-102033508D01*
X95008273Y-102038928D01*
X94972976Y-102053045D01*
X94936594Y-102064081D01*
X94880815Y-102093895D01*
X94548456Y-102266346D01*
X95218990Y-101595811D01*
X95336838Y-101692526D01*
X95540094Y-101801169D01*
X95760640Y-101868071D01*
X95990000Y-101890661D01*
X96219359Y-101868071D01*
X96439905Y-101801169D01*
X96624999Y-101702234D01*
X96810094Y-101801169D01*
X97030640Y-101868071D01*
X97260000Y-101890661D01*
X97489359Y-101868071D01*
X97709905Y-101801169D01*
X97897596Y-101700846D01*
X97985579Y-101758377D01*
X98222617Y-101843900D01*
X98403000Y-101718244D01*
X98403000Y-100977560D01*
X98413071Y-100944360D01*
X98430000Y-100772477D01*
X98430000Y-99603000D01*
X98626928Y-99603000D01*
X98626928Y-101250000D01*
G37*
%TD.AperFunction*%
D27*
X113121064Y-100171543D02*
X112831531Y-100222596D01*
X112797335Y-100028659D01*
X113086868Y-99977606D01*
X113121064Y-100171543D01*
%TA.AperFunction,Conductor*%
D28*
G36*
X113121064Y-100171543D02*
G01*
X112831531Y-100222596D01*
X112797335Y-100028659D01*
X113086868Y-99977606D01*
X113121064Y-100171543D01*
G37*
%TD.AperFunction*%
D27*
X101432692Y-64266908D02*
X100920851Y-64516549D01*
X100773784Y-64607113D01*
X100748360Y-64630718D01*
X100082635Y-64955414D01*
X100048770Y-65172625D01*
X100229549Y-65348182D01*
X100319827Y-65402041D01*
X100311935Y-65614712D01*
X100348485Y-65842266D01*
X100360470Y-65874536D01*
X100200252Y-65710143D01*
X99959426Y-65544709D01*
X99690953Y-65429437D01*
X99596890Y-65408524D01*
X99367000Y-65529845D01*
X99367000Y-67373000D01*
X100725000Y-67373000D01*
X100725000Y-66723000D01*
X100671690Y-66435731D01*
X100636921Y-66348640D01*
X100706386Y-66423458D01*
X100876449Y-66546451D01*
X100868666Y-66756180D01*
X100905216Y-66983734D01*
X100985457Y-67199784D01*
X101106305Y-67396029D01*
X101263117Y-67564926D01*
X101449866Y-67699986D01*
X101659375Y-67796018D01*
X101883594Y-67849331D01*
X102113904Y-67857878D01*
X102341458Y-67821328D01*
X102503366Y-67761195D01*
X103251494Y-67396310D01*
X105081685Y-71194821D01*
X105109172Y-71253125D01*
X105131001Y-71282635D01*
X105150111Y-71314003D01*
X105171042Y-71336765D01*
X105189417Y-71361605D01*
X105216585Y-71386291D01*
X105241446Y-71413326D01*
X105293603Y-71451429D01*
X108746409Y-74018901D01*
X108606745Y-73937042D01*
X108388995Y-73861533D01*
X108181096Y-73832777D01*
X108089506Y-73643943D01*
X107950405Y-73460184D01*
X107778127Y-73307094D01*
X107579293Y-73190555D01*
X107361543Y-73115046D01*
X107150731Y-73085887D01*
X107113366Y-72987627D01*
X106971867Y-72779110D01*
X106752076Y-72774741D01*
X106316711Y-73373970D01*
X106289052Y-73394907D01*
X106174326Y-73524013D01*
X105677673Y-74207594D01*
X105590339Y-74356601D01*
X105578973Y-74389379D01*
X105143609Y-74988606D01*
X105215683Y-75196291D01*
X105457720Y-75266429D01*
X105562715Y-75271601D01*
X105655590Y-75463083D01*
X105794691Y-75646842D01*
X105966969Y-75799932D01*
X106165803Y-75916471D01*
X106383553Y-75991980D01*
X106591451Y-76020737D01*
X106683042Y-76209570D01*
X106822143Y-76393329D01*
X106994421Y-76546419D01*
X107193255Y-76662958D01*
X107411005Y-76738467D01*
X107639301Y-76770045D01*
X107869370Y-76756478D01*
X108092372Y-76698286D01*
X108299737Y-76597707D01*
X108483496Y-76458606D01*
X108598222Y-76329500D01*
X109094875Y-75645919D01*
X109182209Y-75496913D01*
X109257718Y-75279163D01*
X109289296Y-75050867D01*
X109275728Y-74820797D01*
X109217536Y-74597795D01*
X109116958Y-74390430D01*
X108977857Y-74206671D01*
X108869827Y-74110673D01*
X109139914Y-74311507D01*
X109142268Y-74314059D01*
X109193934Y-74351676D01*
X109218258Y-74369763D01*
X109221229Y-74371549D01*
X109251351Y-74393480D01*
X109278906Y-74406217D01*
X109304930Y-74421859D01*
X109340006Y-74434459D01*
X109373833Y-74450095D01*
X109403343Y-74457211D01*
X109431918Y-74467476D01*
X109468779Y-74472991D01*
X109472138Y-74473801D01*
X109502067Y-74477971D01*
X109565366Y-74487442D01*
X109568839Y-74487276D01*
X113783160Y-75074517D01*
X113590168Y-76447732D01*
X113584984Y-76572708D01*
X113604282Y-76696295D01*
X113647320Y-76813741D01*
X113712443Y-76920535D01*
X113797150Y-77012572D01*
X113898184Y-77086316D01*
X114011664Y-77138931D01*
X114133228Y-77168396D01*
X115192815Y-77317311D01*
X115317791Y-77322495D01*
X115441378Y-77303197D01*
X115514849Y-77276274D01*
X115622417Y-77333082D01*
X115818530Y-77233754D01*
X115798081Y-77379253D01*
X115649870Y-77401213D01*
X115383708Y-77496397D01*
X115258486Y-77563329D01*
X115186903Y-77807298D01*
X116000000Y-78620395D01*
X116813097Y-77807298D01*
X116741514Y-77563329D01*
X116486004Y-77442429D01*
X116318280Y-77400387D01*
X116477834Y-77366940D01*
X116572968Y-77322213D01*
X116744870Y-77447681D01*
X116953959Y-77544626D01*
X117177943Y-77598917D01*
X117408214Y-77608468D01*
X117635924Y-77572911D01*
X117832986Y-77500699D01*
X118002510Y-77624431D01*
X118211599Y-77721376D01*
X118435583Y-77775667D01*
X118665854Y-77785218D01*
X118893564Y-77749661D01*
X119109962Y-77670363D01*
X119306733Y-77550372D01*
X119324464Y-77534053D01*
X119367755Y-77633023D01*
X119439276Y-77735642D01*
X119495684Y-77789877D01*
X119491779Y-77911460D01*
X119667026Y-78044184D01*
X119938119Y-77956101D01*
X119999467Y-77954896D01*
X120121645Y-77928089D01*
X121117402Y-77604547D01*
X121178256Y-77791839D01*
X120636652Y-77967816D01*
X120478413Y-78037031D01*
X120449950Y-78056868D01*
X119745517Y-78285753D01*
X119681752Y-78496137D01*
X119836338Y-78695146D01*
X119918241Y-78761044D01*
X119880828Y-78970549D01*
X119885353Y-79200974D01*
X119934744Y-79426089D01*
X120027104Y-79637242D01*
X120108916Y-79754626D01*
X120086798Y-79756415D01*
X119966485Y-79790631D01*
X119855158Y-79847661D01*
X119757097Y-79925313D01*
X118987404Y-80668597D01*
X118906376Y-80763889D01*
X118845496Y-80873157D01*
X118821477Y-80947630D01*
X118710486Y-80997420D01*
X118668017Y-81213114D01*
X118866028Y-81418160D01*
X118894002Y-81472769D01*
X118971655Y-81570830D01*
X119698962Y-82323979D01*
X119557304Y-82460777D01*
X119161713Y-82051130D01*
X119030135Y-81939248D01*
X118999829Y-81922363D01*
X118485305Y-81389557D01*
X118285422Y-81421711D01*
X118159774Y-81296063D01*
X117990256Y-81182795D01*
X117801898Y-81104774D01*
X117601939Y-81065000D01*
X117438072Y-81065000D01*
X117438072Y-80500000D01*
X117425812Y-80375518D01*
X117389502Y-80255820D01*
X117330537Y-80145506D01*
X117251185Y-80048815D01*
X117154494Y-79969463D01*
X117044180Y-79910498D01*
X116924482Y-79874188D01*
X116800000Y-79861928D01*
X116792785Y-79861928D01*
X116813097Y-79792702D01*
X116000000Y-78979605D01*
X115186903Y-79792702D01*
X115207215Y-79861928D01*
X115200000Y-79861928D01*
X115075518Y-79874188D01*
X114955820Y-79910498D01*
X114845506Y-79969463D01*
X114748815Y-80048815D01*
X114669463Y-80145506D01*
X114610498Y-80255820D01*
X114574188Y-80375518D01*
X114561928Y-80500000D01*
X114561928Y-82100000D01*
X114574188Y-82224482D01*
X114610498Y-82344180D01*
X114669463Y-82454494D01*
X114748815Y-82551185D01*
X114845506Y-82630537D01*
X114955820Y-82689502D01*
X115075518Y-82725812D01*
X115200000Y-82738072D01*
X115661439Y-82738072D01*
X113201417Y-85302285D01*
X113174757Y-85324164D01*
X113163321Y-85338098D01*
X113036962Y-85148987D01*
X112851013Y-84963038D01*
X112632359Y-84816939D01*
X112389405Y-84716304D01*
X112131486Y-84665000D01*
X111868514Y-84665000D01*
X111610595Y-84716304D01*
X111367641Y-84816939D01*
X111148987Y-84963038D01*
X110963038Y-85148987D01*
X110816939Y-85367641D01*
X110716304Y-85610595D01*
X110665000Y-85868514D01*
X110665000Y-86131486D01*
X110716304Y-86389405D01*
X110816939Y-86632359D01*
X110963038Y-86851013D01*
X111148987Y-87036962D01*
X111332107Y-87159318D01*
X111262146Y-87186701D01*
X111156798Y-87254138D01*
X111066631Y-87340833D01*
X110995110Y-87443452D01*
X110944982Y-87558052D01*
X110614334Y-88575683D01*
X110587528Y-88697861D01*
X110585072Y-88822920D01*
X110598828Y-88899951D01*
X110524203Y-88996021D01*
X110587968Y-89206405D01*
X110859062Y-89294489D01*
X110909401Y-89329573D01*
X111024002Y-89379700D01*
X112019758Y-89703241D01*
X111958904Y-89890532D01*
X111417298Y-89714554D01*
X111248596Y-89677540D01*
X111213914Y-89676859D01*
X110509477Y-89447974D01*
X110334230Y-89580698D01*
X110342319Y-89832563D01*
X110369846Y-89934018D01*
X110216433Y-90081522D01*
X110135362Y-90197842D01*
X109179481Y-90197842D01*
X109142158Y-90194166D01*
X109104835Y-90197842D01*
X109104825Y-90197842D01*
X108993172Y-90208839D01*
X108849911Y-90252296D01*
X108717882Y-90322868D01*
X108602157Y-90417841D01*
X108578359Y-90446839D01*
X107105000Y-91920198D01*
X107105000Y-91853740D01*
X107047932Y-91566842D01*
X106935990Y-91296589D01*
X106773475Y-91053368D01*
X106566632Y-90846525D01*
X106323411Y-90684010D01*
X106053158Y-90572068D01*
X105766260Y-90515000D01*
X105473740Y-90515000D01*
X105253592Y-90558790D01*
X103983804Y-89289003D01*
X103960001Y-89259999D01*
X103844276Y-89165026D01*
X103712247Y-89094454D01*
X103568986Y-89050997D01*
X103457333Y-89040000D01*
X103457322Y-89040000D01*
X103420000Y-89036324D01*
X103382678Y-89040000D01*
X101603711Y-89040000D01*
X101559774Y-88996063D01*
X101390256Y-88882795D01*
X101201898Y-88804774D01*
X101001939Y-88765000D01*
X100809802Y-88765000D01*
X101514803Y-88060000D01*
X102896289Y-88060000D01*
X102940226Y-88103937D01*
X103109744Y-88217205D01*
X103298102Y-88295226D01*
X103498061Y-88335000D01*
X103701939Y-88335000D01*
X103901898Y-88295226D01*
X104090256Y-88217205D01*
X104259774Y-88103937D01*
X104403937Y-87959774D01*
X104517205Y-87790256D01*
X104595226Y-87601898D01*
X104635000Y-87401939D01*
X104635000Y-87198061D01*
X104595226Y-86998102D01*
X104517205Y-86809744D01*
X104403937Y-86640226D01*
X104259774Y-86496063D01*
X104090256Y-86382795D01*
X103901898Y-86304774D01*
X103701939Y-86265000D01*
X103498061Y-86265000D01*
X103298102Y-86304774D01*
X103109744Y-86382795D01*
X102940226Y-86496063D01*
X102896289Y-86540000D01*
X102673711Y-86540000D01*
X102803937Y-86409774D01*
X102917205Y-86240256D01*
X102995226Y-86051898D01*
X103035000Y-85851939D01*
X103035000Y-85648061D01*
X102995226Y-85448102D01*
X102917205Y-85259744D01*
X102803937Y-85090226D01*
X102659774Y-84946063D01*
X102490256Y-84832795D01*
X102301898Y-84754774D01*
X102101939Y-84715000D01*
X101898061Y-84715000D01*
X101698102Y-84754774D01*
X101509744Y-84832795D01*
X101340226Y-84946063D01*
X101196063Y-85090226D01*
X101082795Y-85259744D01*
X101004774Y-85448102D01*
X100965000Y-85648061D01*
X100965000Y-85710198D01*
X97186567Y-89488632D01*
X97172675Y-89490000D01*
X97172667Y-89490000D01*
X97061014Y-89500997D01*
X96917753Y-89544454D01*
X96785724Y-89615026D01*
X96669999Y-89709999D01*
X96646201Y-89738997D01*
X95826408Y-90558790D01*
X95606260Y-90515000D01*
X95313740Y-90515000D01*
X95026842Y-90572068D01*
X94756589Y-90684010D01*
X94513368Y-90846525D01*
X94306525Y-91053368D01*
X94190000Y-91227760D01*
X94073475Y-91053368D01*
X93866632Y-90846525D01*
X93623411Y-90684010D01*
X93353158Y-90572068D01*
X93066260Y-90515000D01*
X92773740Y-90515000D01*
X92553593Y-90558790D01*
X87483804Y-85489003D01*
X87460001Y-85459999D01*
X87344276Y-85365026D01*
X87212247Y-85294454D01*
X87068986Y-85250997D01*
X86957333Y-85240000D01*
X86957322Y-85240000D01*
X86920000Y-85236324D01*
X86882678Y-85240000D01*
X84997775Y-85240000D01*
X84936962Y-85148987D01*
X84751013Y-84963038D01*
X84532359Y-84816939D01*
X84289405Y-84716304D01*
X84031486Y-84665000D01*
X83768514Y-84665000D01*
X83510595Y-84716304D01*
X83267641Y-84816939D01*
X83048987Y-84963038D01*
X82863038Y-85148987D01*
X82802225Y-85240000D01*
X82697775Y-85240000D01*
X82636962Y-85148987D01*
X82451013Y-84963038D01*
X82232359Y-84816939D01*
X81989405Y-84716304D01*
X81731486Y-84665000D01*
X81468514Y-84665000D01*
X81210595Y-84716304D01*
X80967641Y-84816939D01*
X80748987Y-84963038D01*
X80563038Y-85148987D01*
X80416939Y-85367641D01*
X80316304Y-85610595D01*
X80265000Y-85868514D01*
X80265000Y-86131486D01*
X80316304Y-86389405D01*
X80416939Y-86632359D01*
X80563038Y-86851013D01*
X80748987Y-87036962D01*
X80967641Y-87183061D01*
X81210595Y-87283696D01*
X81468514Y-87335000D01*
X81731486Y-87335000D01*
X81989405Y-87283696D01*
X82232359Y-87183061D01*
X82451013Y-87036962D01*
X82636962Y-86851013D01*
X82697775Y-86760000D01*
X82802225Y-86760000D01*
X82863038Y-86851013D01*
X83048987Y-87036962D01*
X83267641Y-87183061D01*
X83465251Y-87264914D01*
X82759297Y-87494291D01*
X82601058Y-87563506D01*
X82411980Y-87695286D01*
X82252244Y-87861421D01*
X82127988Y-88055527D01*
X82043989Y-88270144D01*
X82013029Y-88443511D01*
X81979171Y-88410490D01*
X78828426Y-85330548D01*
X79815883Y-84343091D01*
X79895235Y-84246400D01*
X79954200Y-84136086D01*
X79990510Y-84016388D01*
X80002770Y-83891906D01*
X79990510Y-83767424D01*
X79954200Y-83647726D01*
X79895235Y-83537412D01*
X79815883Y-83440721D01*
X79059279Y-82684117D01*
X78962588Y-82604765D01*
X78852274Y-82545800D01*
X78777392Y-82523085D01*
X78725673Y-82412980D01*
X78509271Y-82374282D01*
X78307712Y-82575841D01*
X78253600Y-82604765D01*
X78156909Y-82684117D01*
X77416568Y-83424458D01*
X77277319Y-83285209D01*
X77680000Y-82882527D01*
X77789569Y-82749017D01*
X77805924Y-82718419D01*
X78329666Y-82194677D01*
X78290968Y-81978275D01*
X78062883Y-81871137D01*
X77959989Y-81849604D01*
X77898211Y-81645950D01*
X77789569Y-81442693D01*
X77643360Y-81264538D01*
X77465205Y-81118329D01*
X77261948Y-81009687D01*
X77061109Y-80948763D01*
X77000185Y-80747924D01*
X76891543Y-80544667D01*
X76745334Y-80366512D01*
X76567179Y-80220303D01*
X76363922Y-80111661D01*
X76143376Y-80044759D01*
X75914016Y-80022168D01*
X75684656Y-80044759D01*
X75682786Y-80045326D01*
X75700763Y-79990000D01*
X75727569Y-79867822D01*
X75730025Y-79742763D01*
X75716269Y-79665732D01*
X75790894Y-79569662D01*
X75727129Y-79359278D01*
X75456035Y-79271194D01*
X75405696Y-79236110D01*
X75291095Y-79185983D01*
X74295339Y-78862442D01*
X74356193Y-78675151D01*
X74897799Y-78851129D01*
X75066501Y-78888144D01*
X75101186Y-78888825D01*
X75805620Y-79117709D01*
X75980867Y-78984985D01*
X75972778Y-78733120D01*
X75945251Y-78631665D01*
X76098664Y-78484162D01*
X76230444Y-78295084D01*
X76322804Y-78083930D01*
X76372196Y-77858815D01*
X76376721Y-77628389D01*
X76350927Y-77483950D01*
X76411784Y-77567329D01*
X76503821Y-77652036D01*
X76610615Y-77717159D01*
X76728061Y-77760197D01*
X76851648Y-77779495D01*
X76976624Y-77774311D01*
X78036211Y-77625396D01*
X78157775Y-77595931D01*
X78271255Y-77543316D01*
X78334460Y-77497183D01*
X78453519Y-77522141D01*
X78614659Y-77372603D01*
X78574988Y-77090333D01*
X78584455Y-77029708D01*
X78579271Y-76904732D01*
X78433557Y-75867920D01*
X78628570Y-75840513D01*
X78707825Y-76404447D01*
X78748511Y-76572301D01*
X78763103Y-76603773D01*
X78866187Y-77337253D01*
X79062302Y-77436582D01*
X79285131Y-77318902D01*
X79364252Y-77249685D01*
X79564077Y-77322910D01*
X79791786Y-77358467D01*
X80022058Y-77348917D01*
X80246042Y-77294626D01*
X80455131Y-77197681D01*
X80624656Y-77073948D01*
X80821717Y-77146160D01*
X81016720Y-77176610D01*
X80967641Y-77196939D01*
X80748987Y-77343038D01*
X80563038Y-77528987D01*
X80416939Y-77747641D01*
X80316304Y-77990595D01*
X80265000Y-78248514D01*
X80265000Y-78511486D01*
X80316304Y-78769405D01*
X80416939Y-79012359D01*
X80563038Y-79231013D01*
X80748987Y-79416962D01*
X80967641Y-79563061D01*
X81210595Y-79663696D01*
X81468514Y-79715000D01*
X81731486Y-79715000D01*
X81989405Y-79663696D01*
X82232359Y-79563061D01*
X82451013Y-79416962D01*
X82636962Y-79231013D01*
X82750000Y-79061839D01*
X82863038Y-79231013D01*
X83048987Y-79416962D01*
X83267641Y-79563061D01*
X83510595Y-79663696D01*
X83768514Y-79715000D01*
X84031486Y-79715000D01*
X84289405Y-79663696D01*
X84532359Y-79563061D01*
X84751013Y-79416962D01*
X84936962Y-79231013D01*
X85083061Y-79012359D01*
X85183696Y-78769405D01*
X85235000Y-78511486D01*
X85235000Y-78248514D01*
X85183696Y-77990595D01*
X85083061Y-77747641D01*
X84936962Y-77528987D01*
X84751013Y-77343038D01*
X84532359Y-77196939D01*
X84289405Y-77096304D01*
X84031486Y-77045000D01*
X83768514Y-77045000D01*
X83510595Y-77096304D01*
X83267641Y-77196939D01*
X83048987Y-77343038D01*
X82863038Y-77528987D01*
X82750000Y-77698161D01*
X82636962Y-77528987D01*
X82451013Y-77343038D01*
X82232359Y-77196939D01*
X81989405Y-77096304D01*
X81731486Y-77045000D01*
X81660859Y-77045000D01*
X81712771Y-77020931D01*
X81898929Y-76885058D01*
X82055003Y-76715478D01*
X82174994Y-76518708D01*
X82254292Y-76302310D01*
X82289849Y-76074599D01*
X82282691Y-75902033D01*
X82165097Y-75065303D01*
X82131411Y-74926330D01*
X86492951Y-74293203D01*
X86437263Y-74342688D01*
X86361768Y-74442421D01*
X86307180Y-74554965D01*
X86275598Y-74675996D01*
X86268234Y-74800863D01*
X86285372Y-74924767D01*
X86326353Y-75042947D01*
X86389603Y-75150862D01*
X87447617Y-76607092D01*
X87530704Y-76700593D01*
X87630436Y-76776088D01*
X87742980Y-76830676D01*
X87864012Y-76862258D01*
X87988879Y-76869622D01*
X88112783Y-76852484D01*
X88230963Y-76811503D01*
X88335896Y-76750000D01*
X89673000Y-76750000D01*
X89673000Y-82750000D01*
X89675440Y-82774776D01*
X89682667Y-82798601D01*
X89694403Y-82820557D01*
X89710197Y-82839803D01*
X89729443Y-82855597D01*
X89751399Y-82867333D01*
X89775224Y-82874560D01*
X89800000Y-82877000D01*
X105900000Y-82877000D01*
X105924776Y-82874560D01*
X105948601Y-82867333D01*
X105970557Y-82855597D01*
X105989803Y-82839803D01*
X106005597Y-82820557D01*
X106017333Y-82798601D01*
X106024560Y-82774776D01*
X106027000Y-82750000D01*
X106027000Y-78248514D01*
X110665000Y-78248514D01*
X110665000Y-78511486D01*
X110716304Y-78769405D01*
X110816939Y-79012359D01*
X110963038Y-79231013D01*
X111148987Y-79416962D01*
X111367641Y-79563061D01*
X111610595Y-79663696D01*
X111868514Y-79715000D01*
X112131486Y-79715000D01*
X112389405Y-79663696D01*
X112632359Y-79563061D01*
X112851013Y-79416962D01*
X113036962Y-79231013D01*
X113183061Y-79012359D01*
X113241816Y-78870512D01*
X114559783Y-78870512D01*
X114601213Y-79150130D01*
X114696397Y-79416292D01*
X114763329Y-79541514D01*
X115007298Y-79613097D01*
X115820395Y-78800000D01*
X116179605Y-78800000D01*
X116992702Y-79613097D01*
X117236671Y-79541514D01*
X117357571Y-79286004D01*
X117426300Y-79011816D01*
X117440217Y-78729488D01*
X117398787Y-78449870D01*
X117303603Y-78183708D01*
X117236671Y-78058486D01*
X116992702Y-77986903D01*
X116179605Y-78800000D01*
X115820395Y-78800000D01*
X115007298Y-77986903D01*
X114763329Y-78058486D01*
X114642429Y-78313996D01*
X114573700Y-78588184D01*
X114559783Y-78870512D01*
X113241816Y-78870512D01*
X113283696Y-78769405D01*
X113335000Y-78511486D01*
X113335000Y-78248514D01*
X113283696Y-77990595D01*
X113183061Y-77747641D01*
X113036962Y-77528987D01*
X112851013Y-77343038D01*
X112632359Y-77196939D01*
X112389405Y-77096304D01*
X112131486Y-77045000D01*
X111868514Y-77045000D01*
X111610595Y-77096304D01*
X111367641Y-77196939D01*
X111148987Y-77343038D01*
X110963038Y-77528987D01*
X110816939Y-77747641D01*
X110716304Y-77990595D01*
X110665000Y-78248514D01*
X106027000Y-78248514D01*
X106027000Y-76750000D01*
X106024560Y-76725224D01*
X106017333Y-76701399D01*
X106005597Y-76679443D01*
X105989803Y-76660197D01*
X105970557Y-76644403D01*
X105948601Y-76632667D01*
X105924776Y-76625440D01*
X105900000Y-76623000D01*
X89800000Y-76623000D01*
X89775224Y-76625440D01*
X89751399Y-76632667D01*
X89729443Y-76644403D01*
X89710197Y-76660197D01*
X89694403Y-76679443D01*
X89682667Y-76701399D01*
X89675440Y-76725224D01*
X89673000Y-76750000D01*
X88335896Y-76750000D01*
X88338877Y-76748253D01*
X89204525Y-76119323D01*
X89298027Y-76036236D01*
X89373522Y-75936503D01*
X89407670Y-75866099D01*
X89524511Y-75832241D01*
X89596585Y-75624556D01*
X89429040Y-75393950D01*
X89408937Y-75335977D01*
X89345687Y-75228062D01*
X88730276Y-74381022D01*
X88889595Y-74265271D01*
X89224326Y-74725987D01*
X89339052Y-74855093D01*
X89366711Y-74876030D01*
X89802076Y-75475259D01*
X90021867Y-75470890D01*
X90163366Y-75262373D01*
X90200731Y-75164113D01*
X90411543Y-75134954D01*
X90629293Y-75059445D01*
X90828127Y-74942906D01*
X91000405Y-74789816D01*
X91139506Y-74606057D01*
X91194486Y-74492702D01*
X95186903Y-74492702D01*
X95258486Y-74736671D01*
X95513996Y-74857571D01*
X95788184Y-74926300D01*
X96070512Y-74940217D01*
X96350130Y-74898787D01*
X96616292Y-74803603D01*
X96741514Y-74736671D01*
X96813097Y-74492702D01*
X99786903Y-74492702D01*
X99858486Y-74736671D01*
X100113996Y-74857571D01*
X100388184Y-74926300D01*
X100670512Y-74940217D01*
X100950130Y-74898787D01*
X101216292Y-74803603D01*
X101341514Y-74736671D01*
X101413097Y-74492702D01*
X100600000Y-73679605D01*
X99786903Y-74492702D01*
X96813097Y-74492702D01*
X96000000Y-73679605D01*
X95186903Y-74492702D01*
X91194486Y-74492702D01*
X91231096Y-74417223D01*
X91438995Y-74388467D01*
X91656745Y-74312958D01*
X91855579Y-74196419D01*
X92027857Y-74043329D01*
X92166958Y-73859570D01*
X92267536Y-73652205D01*
X92288853Y-73570512D01*
X94559783Y-73570512D01*
X94601213Y-73850130D01*
X94696397Y-74116292D01*
X94763329Y-74241514D01*
X95007298Y-74313097D01*
X95820395Y-73500000D01*
X96179605Y-73500000D01*
X96992702Y-74313097D01*
X97236671Y-74241514D01*
X97357571Y-73986004D01*
X97426300Y-73711816D01*
X97433265Y-73570512D01*
X99159783Y-73570512D01*
X99201213Y-73850130D01*
X99296397Y-74116292D01*
X99363329Y-74241514D01*
X99607298Y-74313097D01*
X100420395Y-73500000D01*
X100779605Y-73500000D01*
X101592702Y-74313097D01*
X101836671Y-74241514D01*
X101957571Y-73986004D01*
X102026300Y-73711816D01*
X102039248Y-73449137D01*
X103218234Y-73449137D01*
X103225598Y-73574004D01*
X103257180Y-73695036D01*
X103311768Y-73807580D01*
X103387263Y-73907312D01*
X103480765Y-73990399D01*
X104346413Y-74619329D01*
X104454327Y-74682579D01*
X104572507Y-74723560D01*
X104650020Y-74734281D01*
X104718327Y-74834940D01*
X104938118Y-74839309D01*
X105105664Y-74608701D01*
X105154586Y-74571669D01*
X105237673Y-74478168D01*
X106295687Y-73021938D01*
X106358937Y-72914023D01*
X106379040Y-72856050D01*
X106546585Y-72625444D01*
X106474511Y-72417759D01*
X106357671Y-72383901D01*
X106323522Y-72313496D01*
X106248027Y-72213764D01*
X106154525Y-72130677D01*
X105288877Y-71501747D01*
X105180963Y-71438497D01*
X105062783Y-71397516D01*
X104938879Y-71380378D01*
X104814012Y-71387742D01*
X104692981Y-71419324D01*
X104580437Y-71473912D01*
X104480704Y-71549407D01*
X104397617Y-71642908D01*
X103339603Y-73099138D01*
X103276353Y-73207053D01*
X103235372Y-73325233D01*
X103218234Y-73449137D01*
X102039248Y-73449137D01*
X102040217Y-73429488D01*
X101998787Y-73149870D01*
X101903603Y-72883708D01*
X101836671Y-72758486D01*
X101592702Y-72686903D01*
X100779605Y-73500000D01*
X100420395Y-73500000D01*
X99607298Y-72686903D01*
X99363329Y-72758486D01*
X99242429Y-73013996D01*
X99173700Y-73288184D01*
X99159783Y-73570512D01*
X97433265Y-73570512D01*
X97440217Y-73429488D01*
X97398787Y-73149870D01*
X97303603Y-72883708D01*
X97236671Y-72758486D01*
X96992702Y-72686903D01*
X96179605Y-73500000D01*
X95820395Y-73500000D01*
X95007298Y-72686903D01*
X94763329Y-72758486D01*
X94642429Y-73013996D01*
X94573700Y-73288184D01*
X94559783Y-73570512D01*
X92288853Y-73570512D01*
X92325728Y-73429203D01*
X92339296Y-73199133D01*
X92307718Y-72970837D01*
X92232209Y-72753087D01*
X92144875Y-72604081D01*
X91648222Y-71920500D01*
X91533496Y-71791394D01*
X91349737Y-71652293D01*
X91142372Y-71551714D01*
X90919370Y-71493522D01*
X90689301Y-71479955D01*
X90461005Y-71511533D01*
X90447388Y-71516255D01*
X90465014Y-71488256D01*
X90488926Y-71456290D01*
X90515403Y-71400900D01*
X92519761Y-67392184D01*
X93831211Y-68031821D01*
X93948469Y-68075371D01*
X94071970Y-68095208D01*
X94196968Y-68090570D01*
X94318659Y-68061635D01*
X94432367Y-68009515D01*
X94533722Y-67936214D01*
X94618830Y-67844547D01*
X94684418Y-67738038D01*
X95153475Y-66776328D01*
X95197025Y-66659070D01*
X95211928Y-66566287D01*
X95211928Y-69000000D01*
X95224188Y-69124482D01*
X95260498Y-69244180D01*
X95319463Y-69354494D01*
X95398815Y-69451185D01*
X95495506Y-69530537D01*
X95554233Y-69561928D01*
X95200000Y-69561928D01*
X95075518Y-69574188D01*
X94955820Y-69610498D01*
X94845506Y-69669463D01*
X94748815Y-69748815D01*
X94669463Y-69845506D01*
X94610498Y-69955820D01*
X94574188Y-70075518D01*
X94561928Y-70200000D01*
X94561928Y-71800000D01*
X94574188Y-71924482D01*
X94610498Y-72044180D01*
X94669463Y-72154494D01*
X94748815Y-72251185D01*
X94845506Y-72330537D01*
X94955820Y-72389502D01*
X95075518Y-72425812D01*
X95200000Y-72438072D01*
X95207215Y-72438072D01*
X95186903Y-72507298D01*
X96000000Y-73320395D01*
X96813097Y-72507298D01*
X96792785Y-72438072D01*
X96800000Y-72438072D01*
X96924482Y-72425812D01*
X97044180Y-72389502D01*
X97154494Y-72330537D01*
X97251185Y-72251185D01*
X97330537Y-72154494D01*
X97389502Y-72044180D01*
X97425812Y-71924482D01*
X97438072Y-71800000D01*
X97438072Y-70858665D01*
X99165000Y-70858665D01*
X99165000Y-71141335D01*
X99220147Y-71418574D01*
X99328320Y-71679727D01*
X99485363Y-71914759D01*
X99685241Y-72114637D01*
X99885869Y-72248692D01*
X99858486Y-72263329D01*
X99786903Y-72507298D01*
X100600000Y-73320395D01*
X101413097Y-72507298D01*
X101341514Y-72263329D01*
X101312659Y-72249676D01*
X101514759Y-72114637D01*
X101714637Y-71914759D01*
X101871680Y-71679727D01*
X101979853Y-71418574D01*
X102035000Y-71141335D01*
X102035000Y-70858665D01*
X101979853Y-70581426D01*
X101871680Y-70320273D01*
X101714637Y-70085241D01*
X101514759Y-69885363D01*
X101279727Y-69728320D01*
X101018574Y-69620147D01*
X100741335Y-69565000D01*
X100458665Y-69565000D01*
X100181426Y-69620147D01*
X99920273Y-69728320D01*
X99685241Y-69885363D01*
X99485363Y-70085241D01*
X99328320Y-70320273D01*
X99220147Y-70581426D01*
X99165000Y-70858665D01*
X97438072Y-70858665D01*
X97438072Y-70200000D01*
X97425812Y-70075518D01*
X97389502Y-69955820D01*
X97330537Y-69845506D01*
X97251185Y-69748815D01*
X97154494Y-69669463D01*
X97095767Y-69638072D01*
X97550000Y-69638072D01*
X97674482Y-69625812D01*
X97794180Y-69589502D01*
X97904494Y-69530537D01*
X98001185Y-69451185D01*
X98080537Y-69354494D01*
X98139502Y-69244180D01*
X98162225Y-69169272D01*
X98279748Y-69289857D01*
X98520574Y-69455291D01*
X98789047Y-69570563D01*
X98883110Y-69591476D01*
X99113000Y-69470155D01*
X99113000Y-67627000D01*
X99367000Y-67627000D01*
X99367000Y-69470155D01*
X99596890Y-69591476D01*
X99690953Y-69570563D01*
X99959426Y-69455291D01*
X100200252Y-69289857D01*
X100404176Y-69080619D01*
X100563361Y-68835618D01*
X100671690Y-68564269D01*
X100725000Y-68277000D01*
X100725000Y-67627000D01*
X99367000Y-67627000D01*
X99113000Y-67627000D01*
X99093000Y-67627000D01*
X99093000Y-67373000D01*
X99113000Y-67373000D01*
X99113000Y-65529845D01*
X98883110Y-65408524D01*
X98789047Y-65429437D01*
X98520574Y-65544709D01*
X98279748Y-65710143D01*
X98162225Y-65830728D01*
X98139502Y-65755820D01*
X98080537Y-65645506D01*
X98001185Y-65548815D01*
X97904494Y-65469463D01*
X97840019Y-65435000D01*
X98070883Y-65435000D01*
X98406081Y-65368325D01*
X98721831Y-65237537D01*
X99005998Y-65047663D01*
X99247663Y-64805998D01*
X99437537Y-64521831D01*
X99549903Y-64250557D01*
X99552119Y-64255101D01*
X99617707Y-64361610D01*
X99702815Y-64453277D01*
X99766220Y-64499132D01*
X99779275Y-64620077D01*
X99971288Y-64727120D01*
X100227483Y-64602165D01*
X100288068Y-64592434D01*
X100405326Y-64548884D01*
X101346364Y-64089909D01*
X101432692Y-64266908D01*
%TA.AperFunction,Conductor*%
D28*
G36*
X101432692Y-64266908D02*
G01*
X100920851Y-64516549D01*
X100773784Y-64607113D01*
X100748360Y-64630718D01*
X100082635Y-64955414D01*
X100048770Y-65172625D01*
X100229549Y-65348182D01*
X100319827Y-65402041D01*
X100311935Y-65614712D01*
X100348485Y-65842266D01*
X100360470Y-65874536D01*
X100200252Y-65710143D01*
X99959426Y-65544709D01*
X99690953Y-65429437D01*
X99596890Y-65408524D01*
X99367000Y-65529845D01*
X99367000Y-67373000D01*
X100725000Y-67373000D01*
X100725000Y-66723000D01*
X100671690Y-66435731D01*
X100636921Y-66348640D01*
X100706386Y-66423458D01*
X100876449Y-66546451D01*
X100868666Y-66756180D01*
X100905216Y-66983734D01*
X100985457Y-67199784D01*
X101106305Y-67396029D01*
X101263117Y-67564926D01*
X101449866Y-67699986D01*
X101659375Y-67796018D01*
X101883594Y-67849331D01*
X102113904Y-67857878D01*
X102341458Y-67821328D01*
X102503366Y-67761195D01*
X103251494Y-67396310D01*
X105081685Y-71194821D01*
X105109172Y-71253125D01*
X105131001Y-71282635D01*
X105150111Y-71314003D01*
X105171042Y-71336765D01*
X105189417Y-71361605D01*
X105216585Y-71386291D01*
X105241446Y-71413326D01*
X105293603Y-71451429D01*
X108746409Y-74018901D01*
X108606745Y-73937042D01*
X108388995Y-73861533D01*
X108181096Y-73832777D01*
X108089506Y-73643943D01*
X107950405Y-73460184D01*
X107778127Y-73307094D01*
X107579293Y-73190555D01*
X107361543Y-73115046D01*
X107150731Y-73085887D01*
X107113366Y-72987627D01*
X106971867Y-72779110D01*
X106752076Y-72774741D01*
X106316711Y-73373970D01*
X106289052Y-73394907D01*
X106174326Y-73524013D01*
X105677673Y-74207594D01*
X105590339Y-74356601D01*
X105578973Y-74389379D01*
X105143609Y-74988606D01*
X105215683Y-75196291D01*
X105457720Y-75266429D01*
X105562715Y-75271601D01*
X105655590Y-75463083D01*
X105794691Y-75646842D01*
X105966969Y-75799932D01*
X106165803Y-75916471D01*
X106383553Y-75991980D01*
X106591451Y-76020737D01*
X106683042Y-76209570D01*
X106822143Y-76393329D01*
X106994421Y-76546419D01*
X107193255Y-76662958D01*
X107411005Y-76738467D01*
X107639301Y-76770045D01*
X107869370Y-76756478D01*
X108092372Y-76698286D01*
X108299737Y-76597707D01*
X108483496Y-76458606D01*
X108598222Y-76329500D01*
X109094875Y-75645919D01*
X109182209Y-75496913D01*
X109257718Y-75279163D01*
X109289296Y-75050867D01*
X109275728Y-74820797D01*
X109217536Y-74597795D01*
X109116958Y-74390430D01*
X108977857Y-74206671D01*
X108869827Y-74110673D01*
X109139914Y-74311507D01*
X109142268Y-74314059D01*
X109193934Y-74351676D01*
X109218258Y-74369763D01*
X109221229Y-74371549D01*
X109251351Y-74393480D01*
X109278906Y-74406217D01*
X109304930Y-74421859D01*
X109340006Y-74434459D01*
X109373833Y-74450095D01*
X109403343Y-74457211D01*
X109431918Y-74467476D01*
X109468779Y-74472991D01*
X109472138Y-74473801D01*
X109502067Y-74477971D01*
X109565366Y-74487442D01*
X109568839Y-74487276D01*
X113783160Y-75074517D01*
X113590168Y-76447732D01*
X113584984Y-76572708D01*
X113604282Y-76696295D01*
X113647320Y-76813741D01*
X113712443Y-76920535D01*
X113797150Y-77012572D01*
X113898184Y-77086316D01*
X114011664Y-77138931D01*
X114133228Y-77168396D01*
X115192815Y-77317311D01*
X115317791Y-77322495D01*
X115441378Y-77303197D01*
X115514849Y-77276274D01*
X115622417Y-77333082D01*
X115818530Y-77233754D01*
X115798081Y-77379253D01*
X115649870Y-77401213D01*
X115383708Y-77496397D01*
X115258486Y-77563329D01*
X115186903Y-77807298D01*
X116000000Y-78620395D01*
X116813097Y-77807298D01*
X116741514Y-77563329D01*
X116486004Y-77442429D01*
X116318280Y-77400387D01*
X116477834Y-77366940D01*
X116572968Y-77322213D01*
X116744870Y-77447681D01*
X116953959Y-77544626D01*
X117177943Y-77598917D01*
X117408214Y-77608468D01*
X117635924Y-77572911D01*
X117832986Y-77500699D01*
X118002510Y-77624431D01*
X118211599Y-77721376D01*
X118435583Y-77775667D01*
X118665854Y-77785218D01*
X118893564Y-77749661D01*
X119109962Y-77670363D01*
X119306733Y-77550372D01*
X119324464Y-77534053D01*
X119367755Y-77633023D01*
X119439276Y-77735642D01*
X119495684Y-77789877D01*
X119491779Y-77911460D01*
X119667026Y-78044184D01*
X119938119Y-77956101D01*
X119999467Y-77954896D01*
X120121645Y-77928089D01*
X121117402Y-77604547D01*
X121178256Y-77791839D01*
X120636652Y-77967816D01*
X120478413Y-78037031D01*
X120449950Y-78056868D01*
X119745517Y-78285753D01*
X119681752Y-78496137D01*
X119836338Y-78695146D01*
X119918241Y-78761044D01*
X119880828Y-78970549D01*
X119885353Y-79200974D01*
X119934744Y-79426089D01*
X120027104Y-79637242D01*
X120108916Y-79754626D01*
X120086798Y-79756415D01*
X119966485Y-79790631D01*
X119855158Y-79847661D01*
X119757097Y-79925313D01*
X118987404Y-80668597D01*
X118906376Y-80763889D01*
X118845496Y-80873157D01*
X118821477Y-80947630D01*
X118710486Y-80997420D01*
X118668017Y-81213114D01*
X118866028Y-81418160D01*
X118894002Y-81472769D01*
X118971655Y-81570830D01*
X119698962Y-82323979D01*
X119557304Y-82460777D01*
X119161713Y-82051130D01*
X119030135Y-81939248D01*
X118999829Y-81922363D01*
X118485305Y-81389557D01*
X118285422Y-81421711D01*
X118159774Y-81296063D01*
X117990256Y-81182795D01*
X117801898Y-81104774D01*
X117601939Y-81065000D01*
X117438072Y-81065000D01*
X117438072Y-80500000D01*
X117425812Y-80375518D01*
X117389502Y-80255820D01*
X117330537Y-80145506D01*
X117251185Y-80048815D01*
X117154494Y-79969463D01*
X117044180Y-79910498D01*
X116924482Y-79874188D01*
X116800000Y-79861928D01*
X116792785Y-79861928D01*
X116813097Y-79792702D01*
X116000000Y-78979605D01*
X115186903Y-79792702D01*
X115207215Y-79861928D01*
X115200000Y-79861928D01*
X115075518Y-79874188D01*
X114955820Y-79910498D01*
X114845506Y-79969463D01*
X114748815Y-80048815D01*
X114669463Y-80145506D01*
X114610498Y-80255820D01*
X114574188Y-80375518D01*
X114561928Y-80500000D01*
X114561928Y-82100000D01*
X114574188Y-82224482D01*
X114610498Y-82344180D01*
X114669463Y-82454494D01*
X114748815Y-82551185D01*
X114845506Y-82630537D01*
X114955820Y-82689502D01*
X115075518Y-82725812D01*
X115200000Y-82738072D01*
X115661439Y-82738072D01*
X113201417Y-85302285D01*
X113174757Y-85324164D01*
X113163321Y-85338098D01*
X113036962Y-85148987D01*
X112851013Y-84963038D01*
X112632359Y-84816939D01*
X112389405Y-84716304D01*
X112131486Y-84665000D01*
X111868514Y-84665000D01*
X111610595Y-84716304D01*
X111367641Y-84816939D01*
X111148987Y-84963038D01*
X110963038Y-85148987D01*
X110816939Y-85367641D01*
X110716304Y-85610595D01*
X110665000Y-85868514D01*
X110665000Y-86131486D01*
X110716304Y-86389405D01*
X110816939Y-86632359D01*
X110963038Y-86851013D01*
X111148987Y-87036962D01*
X111332107Y-87159318D01*
X111262146Y-87186701D01*
X111156798Y-87254138D01*
X111066631Y-87340833D01*
X110995110Y-87443452D01*
X110944982Y-87558052D01*
X110614334Y-88575683D01*
X110587528Y-88697861D01*
X110585072Y-88822920D01*
X110598828Y-88899951D01*
X110524203Y-88996021D01*
X110587968Y-89206405D01*
X110859062Y-89294489D01*
X110909401Y-89329573D01*
X111024002Y-89379700D01*
X112019758Y-89703241D01*
X111958904Y-89890532D01*
X111417298Y-89714554D01*
X111248596Y-89677540D01*
X111213914Y-89676859D01*
X110509477Y-89447974D01*
X110334230Y-89580698D01*
X110342319Y-89832563D01*
X110369846Y-89934018D01*
X110216433Y-90081522D01*
X110135362Y-90197842D01*
X109179481Y-90197842D01*
X109142158Y-90194166D01*
X109104835Y-90197842D01*
X109104825Y-90197842D01*
X108993172Y-90208839D01*
X108849911Y-90252296D01*
X108717882Y-90322868D01*
X108602157Y-90417841D01*
X108578359Y-90446839D01*
X107105000Y-91920198D01*
X107105000Y-91853740D01*
X107047932Y-91566842D01*
X106935990Y-91296589D01*
X106773475Y-91053368D01*
X106566632Y-90846525D01*
X106323411Y-90684010D01*
X106053158Y-90572068D01*
X105766260Y-90515000D01*
X105473740Y-90515000D01*
X105253592Y-90558790D01*
X103983804Y-89289003D01*
X103960001Y-89259999D01*
X103844276Y-89165026D01*
X103712247Y-89094454D01*
X103568986Y-89050997D01*
X103457333Y-89040000D01*
X103457322Y-89040000D01*
X103420000Y-89036324D01*
X103382678Y-89040000D01*
X101603711Y-89040000D01*
X101559774Y-88996063D01*
X101390256Y-88882795D01*
X101201898Y-88804774D01*
X101001939Y-88765000D01*
X100809802Y-88765000D01*
X101514803Y-88060000D01*
X102896289Y-88060000D01*
X102940226Y-88103937D01*
X103109744Y-88217205D01*
X103298102Y-88295226D01*
X103498061Y-88335000D01*
X103701939Y-88335000D01*
X103901898Y-88295226D01*
X104090256Y-88217205D01*
X104259774Y-88103937D01*
X104403937Y-87959774D01*
X104517205Y-87790256D01*
X104595226Y-87601898D01*
X104635000Y-87401939D01*
X104635000Y-87198061D01*
X104595226Y-86998102D01*
X104517205Y-86809744D01*
X104403937Y-86640226D01*
X104259774Y-86496063D01*
X104090256Y-86382795D01*
X103901898Y-86304774D01*
X103701939Y-86265000D01*
X103498061Y-86265000D01*
X103298102Y-86304774D01*
X103109744Y-86382795D01*
X102940226Y-86496063D01*
X102896289Y-86540000D01*
X102673711Y-86540000D01*
X102803937Y-86409774D01*
X102917205Y-86240256D01*
X102995226Y-86051898D01*
X103035000Y-85851939D01*
X103035000Y-85648061D01*
X102995226Y-85448102D01*
X102917205Y-85259744D01*
X102803937Y-85090226D01*
X102659774Y-84946063D01*
X102490256Y-84832795D01*
X102301898Y-84754774D01*
X102101939Y-84715000D01*
X101898061Y-84715000D01*
X101698102Y-84754774D01*
X101509744Y-84832795D01*
X101340226Y-84946063D01*
X101196063Y-85090226D01*
X101082795Y-85259744D01*
X101004774Y-85448102D01*
X100965000Y-85648061D01*
X100965000Y-85710198D01*
X97186567Y-89488632D01*
X97172675Y-89490000D01*
X97172667Y-89490000D01*
X97061014Y-89500997D01*
X96917753Y-89544454D01*
X96785724Y-89615026D01*
X96669999Y-89709999D01*
X96646201Y-89738997D01*
X95826408Y-90558790D01*
X95606260Y-90515000D01*
X95313740Y-90515000D01*
X95026842Y-90572068D01*
X94756589Y-90684010D01*
X94513368Y-90846525D01*
X94306525Y-91053368D01*
X94190000Y-91227760D01*
X94073475Y-91053368D01*
X93866632Y-90846525D01*
X93623411Y-90684010D01*
X93353158Y-90572068D01*
X93066260Y-90515000D01*
X92773740Y-90515000D01*
X92553593Y-90558790D01*
X87483804Y-85489003D01*
X87460001Y-85459999D01*
X87344276Y-85365026D01*
X87212247Y-85294454D01*
X87068986Y-85250997D01*
X86957333Y-85240000D01*
X86957322Y-85240000D01*
X86920000Y-85236324D01*
X86882678Y-85240000D01*
X84997775Y-85240000D01*
X84936962Y-85148987D01*
X84751013Y-84963038D01*
X84532359Y-84816939D01*
X84289405Y-84716304D01*
X84031486Y-84665000D01*
X83768514Y-84665000D01*
X83510595Y-84716304D01*
X83267641Y-84816939D01*
X83048987Y-84963038D01*
X82863038Y-85148987D01*
X82802225Y-85240000D01*
X82697775Y-85240000D01*
X82636962Y-85148987D01*
X82451013Y-84963038D01*
X82232359Y-84816939D01*
X81989405Y-84716304D01*
X81731486Y-84665000D01*
X81468514Y-84665000D01*
X81210595Y-84716304D01*
X80967641Y-84816939D01*
X80748987Y-84963038D01*
X80563038Y-85148987D01*
X80416939Y-85367641D01*
X80316304Y-85610595D01*
X80265000Y-85868514D01*
X80265000Y-86131486D01*
X80316304Y-86389405D01*
X80416939Y-86632359D01*
X80563038Y-86851013D01*
X80748987Y-87036962D01*
X80967641Y-87183061D01*
X81210595Y-87283696D01*
X81468514Y-87335000D01*
X81731486Y-87335000D01*
X81989405Y-87283696D01*
X82232359Y-87183061D01*
X82451013Y-87036962D01*
X82636962Y-86851013D01*
X82697775Y-86760000D01*
X82802225Y-86760000D01*
X82863038Y-86851013D01*
X83048987Y-87036962D01*
X83267641Y-87183061D01*
X83465251Y-87264914D01*
X82759297Y-87494291D01*
X82601058Y-87563506D01*
X82411980Y-87695286D01*
X82252244Y-87861421D01*
X82127988Y-88055527D01*
X82043989Y-88270144D01*
X82013029Y-88443511D01*
X81979171Y-88410490D01*
X78828426Y-85330548D01*
X79815883Y-84343091D01*
X79895235Y-84246400D01*
X79954200Y-84136086D01*
X79990510Y-84016388D01*
X80002770Y-83891906D01*
X79990510Y-83767424D01*
X79954200Y-83647726D01*
X79895235Y-83537412D01*
X79815883Y-83440721D01*
X79059279Y-82684117D01*
X78962588Y-82604765D01*
X78852274Y-82545800D01*
X78777392Y-82523085D01*
X78725673Y-82412980D01*
X78509271Y-82374282D01*
X78307712Y-82575841D01*
X78253600Y-82604765D01*
X78156909Y-82684117D01*
X77416568Y-83424458D01*
X77277319Y-83285209D01*
X77680000Y-82882527D01*
X77789569Y-82749017D01*
X77805924Y-82718419D01*
X78329666Y-82194677D01*
X78290968Y-81978275D01*
X78062883Y-81871137D01*
X77959989Y-81849604D01*
X77898211Y-81645950D01*
X77789569Y-81442693D01*
X77643360Y-81264538D01*
X77465205Y-81118329D01*
X77261948Y-81009687D01*
X77061109Y-80948763D01*
X77000185Y-80747924D01*
X76891543Y-80544667D01*
X76745334Y-80366512D01*
X76567179Y-80220303D01*
X76363922Y-80111661D01*
X76143376Y-80044759D01*
X75914016Y-80022168D01*
X75684656Y-80044759D01*
X75682786Y-80045326D01*
X75700763Y-79990000D01*
X75727569Y-79867822D01*
X75730025Y-79742763D01*
X75716269Y-79665732D01*
X75790894Y-79569662D01*
X75727129Y-79359278D01*
X75456035Y-79271194D01*
X75405696Y-79236110D01*
X75291095Y-79185983D01*
X74295339Y-78862442D01*
X74356193Y-78675151D01*
X74897799Y-78851129D01*
X75066501Y-78888144D01*
X75101186Y-78888825D01*
X75805620Y-79117709D01*
X75980867Y-78984985D01*
X75972778Y-78733120D01*
X75945251Y-78631665D01*
X76098664Y-78484162D01*
X76230444Y-78295084D01*
X76322804Y-78083930D01*
X76372196Y-77858815D01*
X76376721Y-77628389D01*
X76350927Y-77483950D01*
X76411784Y-77567329D01*
X76503821Y-77652036D01*
X76610615Y-77717159D01*
X76728061Y-77760197D01*
X76851648Y-77779495D01*
X76976624Y-77774311D01*
X78036211Y-77625396D01*
X78157775Y-77595931D01*
X78271255Y-77543316D01*
X78334460Y-77497183D01*
X78453519Y-77522141D01*
X78614659Y-77372603D01*
X78574988Y-77090333D01*
X78584455Y-77029708D01*
X78579271Y-76904732D01*
X78433557Y-75867920D01*
X78628570Y-75840513D01*
X78707825Y-76404447D01*
X78748511Y-76572301D01*
X78763103Y-76603773D01*
X78866187Y-77337253D01*
X79062302Y-77436582D01*
X79285131Y-77318902D01*
X79364252Y-77249685D01*
X79564077Y-77322910D01*
X79791786Y-77358467D01*
X80022058Y-77348917D01*
X80246042Y-77294626D01*
X80455131Y-77197681D01*
X80624656Y-77073948D01*
X80821717Y-77146160D01*
X81016720Y-77176610D01*
X80967641Y-77196939D01*
X80748987Y-77343038D01*
X80563038Y-77528987D01*
X80416939Y-77747641D01*
X80316304Y-77990595D01*
X80265000Y-78248514D01*
X80265000Y-78511486D01*
X80316304Y-78769405D01*
X80416939Y-79012359D01*
X80563038Y-79231013D01*
X80748987Y-79416962D01*
X80967641Y-79563061D01*
X81210595Y-79663696D01*
X81468514Y-79715000D01*
X81731486Y-79715000D01*
X81989405Y-79663696D01*
X82232359Y-79563061D01*
X82451013Y-79416962D01*
X82636962Y-79231013D01*
X82750000Y-79061839D01*
X82863038Y-79231013D01*
X83048987Y-79416962D01*
X83267641Y-79563061D01*
X83510595Y-79663696D01*
X83768514Y-79715000D01*
X84031486Y-79715000D01*
X84289405Y-79663696D01*
X84532359Y-79563061D01*
X84751013Y-79416962D01*
X84936962Y-79231013D01*
X85083061Y-79012359D01*
X85183696Y-78769405D01*
X85235000Y-78511486D01*
X85235000Y-78248514D01*
X85183696Y-77990595D01*
X85083061Y-77747641D01*
X84936962Y-77528987D01*
X84751013Y-77343038D01*
X84532359Y-77196939D01*
X84289405Y-77096304D01*
X84031486Y-77045000D01*
X83768514Y-77045000D01*
X83510595Y-77096304D01*
X83267641Y-77196939D01*
X83048987Y-77343038D01*
X82863038Y-77528987D01*
X82750000Y-77698161D01*
X82636962Y-77528987D01*
X82451013Y-77343038D01*
X82232359Y-77196939D01*
X81989405Y-77096304D01*
X81731486Y-77045000D01*
X81660859Y-77045000D01*
X81712771Y-77020931D01*
X81898929Y-76885058D01*
X82055003Y-76715478D01*
X82174994Y-76518708D01*
X82254292Y-76302310D01*
X82289849Y-76074599D01*
X82282691Y-75902033D01*
X82165097Y-75065303D01*
X82131411Y-74926330D01*
X86492951Y-74293203D01*
X86437263Y-74342688D01*
X86361768Y-74442421D01*
X86307180Y-74554965D01*
X86275598Y-74675996D01*
X86268234Y-74800863D01*
X86285372Y-74924767D01*
X86326353Y-75042947D01*
X86389603Y-75150862D01*
X87447617Y-76607092D01*
X87530704Y-76700593D01*
X87630436Y-76776088D01*
X87742980Y-76830676D01*
X87864012Y-76862258D01*
X87988879Y-76869622D01*
X88112783Y-76852484D01*
X88230963Y-76811503D01*
X88335896Y-76750000D01*
X89673000Y-76750000D01*
X89673000Y-82750000D01*
X89675440Y-82774776D01*
X89682667Y-82798601D01*
X89694403Y-82820557D01*
X89710197Y-82839803D01*
X89729443Y-82855597D01*
X89751399Y-82867333D01*
X89775224Y-82874560D01*
X89800000Y-82877000D01*
X105900000Y-82877000D01*
X105924776Y-82874560D01*
X105948601Y-82867333D01*
X105970557Y-82855597D01*
X105989803Y-82839803D01*
X106005597Y-82820557D01*
X106017333Y-82798601D01*
X106024560Y-82774776D01*
X106027000Y-82750000D01*
X106027000Y-78248514D01*
X110665000Y-78248514D01*
X110665000Y-78511486D01*
X110716304Y-78769405D01*
X110816939Y-79012359D01*
X110963038Y-79231013D01*
X111148987Y-79416962D01*
X111367641Y-79563061D01*
X111610595Y-79663696D01*
X111868514Y-79715000D01*
X112131486Y-79715000D01*
X112389405Y-79663696D01*
X112632359Y-79563061D01*
X112851013Y-79416962D01*
X113036962Y-79231013D01*
X113183061Y-79012359D01*
X113241816Y-78870512D01*
X114559783Y-78870512D01*
X114601213Y-79150130D01*
X114696397Y-79416292D01*
X114763329Y-79541514D01*
X115007298Y-79613097D01*
X115820395Y-78800000D01*
X116179605Y-78800000D01*
X116992702Y-79613097D01*
X117236671Y-79541514D01*
X117357571Y-79286004D01*
X117426300Y-79011816D01*
X117440217Y-78729488D01*
X117398787Y-78449870D01*
X117303603Y-78183708D01*
X117236671Y-78058486D01*
X116992702Y-77986903D01*
X116179605Y-78800000D01*
X115820395Y-78800000D01*
X115007298Y-77986903D01*
X114763329Y-78058486D01*
X114642429Y-78313996D01*
X114573700Y-78588184D01*
X114559783Y-78870512D01*
X113241816Y-78870512D01*
X113283696Y-78769405D01*
X113335000Y-78511486D01*
X113335000Y-78248514D01*
X113283696Y-77990595D01*
X113183061Y-77747641D01*
X113036962Y-77528987D01*
X112851013Y-77343038D01*
X112632359Y-77196939D01*
X112389405Y-77096304D01*
X112131486Y-77045000D01*
X111868514Y-77045000D01*
X111610595Y-77096304D01*
X111367641Y-77196939D01*
X111148987Y-77343038D01*
X110963038Y-77528987D01*
X110816939Y-77747641D01*
X110716304Y-77990595D01*
X110665000Y-78248514D01*
X106027000Y-78248514D01*
X106027000Y-76750000D01*
X106024560Y-76725224D01*
X106017333Y-76701399D01*
X106005597Y-76679443D01*
X105989803Y-76660197D01*
X105970557Y-76644403D01*
X105948601Y-76632667D01*
X105924776Y-76625440D01*
X105900000Y-76623000D01*
X89800000Y-76623000D01*
X89775224Y-76625440D01*
X89751399Y-76632667D01*
X89729443Y-76644403D01*
X89710197Y-76660197D01*
X89694403Y-76679443D01*
X89682667Y-76701399D01*
X89675440Y-76725224D01*
X89673000Y-76750000D01*
X88335896Y-76750000D01*
X88338877Y-76748253D01*
X89204525Y-76119323D01*
X89298027Y-76036236D01*
X89373522Y-75936503D01*
X89407670Y-75866099D01*
X89524511Y-75832241D01*
X89596585Y-75624556D01*
X89429040Y-75393950D01*
X89408937Y-75335977D01*
X89345687Y-75228062D01*
X88730276Y-74381022D01*
X88889595Y-74265271D01*
X89224326Y-74725987D01*
X89339052Y-74855093D01*
X89366711Y-74876030D01*
X89802076Y-75475259D01*
X90021867Y-75470890D01*
X90163366Y-75262373D01*
X90200731Y-75164113D01*
X90411543Y-75134954D01*
X90629293Y-75059445D01*
X90828127Y-74942906D01*
X91000405Y-74789816D01*
X91139506Y-74606057D01*
X91194486Y-74492702D01*
X95186903Y-74492702D01*
X95258486Y-74736671D01*
X95513996Y-74857571D01*
X95788184Y-74926300D01*
X96070512Y-74940217D01*
X96350130Y-74898787D01*
X96616292Y-74803603D01*
X96741514Y-74736671D01*
X96813097Y-74492702D01*
X99786903Y-74492702D01*
X99858486Y-74736671D01*
X100113996Y-74857571D01*
X100388184Y-74926300D01*
X100670512Y-74940217D01*
X100950130Y-74898787D01*
X101216292Y-74803603D01*
X101341514Y-74736671D01*
X101413097Y-74492702D01*
X100600000Y-73679605D01*
X99786903Y-74492702D01*
X96813097Y-74492702D01*
X96000000Y-73679605D01*
X95186903Y-74492702D01*
X91194486Y-74492702D01*
X91231096Y-74417223D01*
X91438995Y-74388467D01*
X91656745Y-74312958D01*
X91855579Y-74196419D01*
X92027857Y-74043329D01*
X92166958Y-73859570D01*
X92267536Y-73652205D01*
X92288853Y-73570512D01*
X94559783Y-73570512D01*
X94601213Y-73850130D01*
X94696397Y-74116292D01*
X94763329Y-74241514D01*
X95007298Y-74313097D01*
X95820395Y-73500000D01*
X96179605Y-73500000D01*
X96992702Y-74313097D01*
X97236671Y-74241514D01*
X97357571Y-73986004D01*
X97426300Y-73711816D01*
X97433265Y-73570512D01*
X99159783Y-73570512D01*
X99201213Y-73850130D01*
X99296397Y-74116292D01*
X99363329Y-74241514D01*
X99607298Y-74313097D01*
X100420395Y-73500000D01*
X100779605Y-73500000D01*
X101592702Y-74313097D01*
X101836671Y-74241514D01*
X101957571Y-73986004D01*
X102026300Y-73711816D01*
X102039248Y-73449137D01*
X103218234Y-73449137D01*
X103225598Y-73574004D01*
X103257180Y-73695036D01*
X103311768Y-73807580D01*
X103387263Y-73907312D01*
X103480765Y-73990399D01*
X104346413Y-74619329D01*
X104454327Y-74682579D01*
X104572507Y-74723560D01*
X104650020Y-74734281D01*
X104718327Y-74834940D01*
X104938118Y-74839309D01*
X105105664Y-74608701D01*
X105154586Y-74571669D01*
X105237673Y-74478168D01*
X106295687Y-73021938D01*
X106358937Y-72914023D01*
X106379040Y-72856050D01*
X106546585Y-72625444D01*
X106474511Y-72417759D01*
X106357671Y-72383901D01*
X106323522Y-72313496D01*
X106248027Y-72213764D01*
X106154525Y-72130677D01*
X105288877Y-71501747D01*
X105180963Y-71438497D01*
X105062783Y-71397516D01*
X104938879Y-71380378D01*
X104814012Y-71387742D01*
X104692981Y-71419324D01*
X104580437Y-71473912D01*
X104480704Y-71549407D01*
X104397617Y-71642908D01*
X103339603Y-73099138D01*
X103276353Y-73207053D01*
X103235372Y-73325233D01*
X103218234Y-73449137D01*
X102039248Y-73449137D01*
X102040217Y-73429488D01*
X101998787Y-73149870D01*
X101903603Y-72883708D01*
X101836671Y-72758486D01*
X101592702Y-72686903D01*
X100779605Y-73500000D01*
X100420395Y-73500000D01*
X99607298Y-72686903D01*
X99363329Y-72758486D01*
X99242429Y-73013996D01*
X99173700Y-73288184D01*
X99159783Y-73570512D01*
X97433265Y-73570512D01*
X97440217Y-73429488D01*
X97398787Y-73149870D01*
X97303603Y-72883708D01*
X97236671Y-72758486D01*
X96992702Y-72686903D01*
X96179605Y-73500000D01*
X95820395Y-73500000D01*
X95007298Y-72686903D01*
X94763329Y-72758486D01*
X94642429Y-73013996D01*
X94573700Y-73288184D01*
X94559783Y-73570512D01*
X92288853Y-73570512D01*
X92325728Y-73429203D01*
X92339296Y-73199133D01*
X92307718Y-72970837D01*
X92232209Y-72753087D01*
X92144875Y-72604081D01*
X91648222Y-71920500D01*
X91533496Y-71791394D01*
X91349737Y-71652293D01*
X91142372Y-71551714D01*
X90919370Y-71493522D01*
X90689301Y-71479955D01*
X90461005Y-71511533D01*
X90447388Y-71516255D01*
X90465014Y-71488256D01*
X90488926Y-71456290D01*
X90515403Y-71400900D01*
X92519761Y-67392184D01*
X93831211Y-68031821D01*
X93948469Y-68075371D01*
X94071970Y-68095208D01*
X94196968Y-68090570D01*
X94318659Y-68061635D01*
X94432367Y-68009515D01*
X94533722Y-67936214D01*
X94618830Y-67844547D01*
X94684418Y-67738038D01*
X95153475Y-66776328D01*
X95197025Y-66659070D01*
X95211928Y-66566287D01*
X95211928Y-69000000D01*
X95224188Y-69124482D01*
X95260498Y-69244180D01*
X95319463Y-69354494D01*
X95398815Y-69451185D01*
X95495506Y-69530537D01*
X95554233Y-69561928D01*
X95200000Y-69561928D01*
X95075518Y-69574188D01*
X94955820Y-69610498D01*
X94845506Y-69669463D01*
X94748815Y-69748815D01*
X94669463Y-69845506D01*
X94610498Y-69955820D01*
X94574188Y-70075518D01*
X94561928Y-70200000D01*
X94561928Y-71800000D01*
X94574188Y-71924482D01*
X94610498Y-72044180D01*
X94669463Y-72154494D01*
X94748815Y-72251185D01*
X94845506Y-72330537D01*
X94955820Y-72389502D01*
X95075518Y-72425812D01*
X95200000Y-72438072D01*
X95207215Y-72438072D01*
X95186903Y-72507298D01*
X96000000Y-73320395D01*
X96813097Y-72507298D01*
X96792785Y-72438072D01*
X96800000Y-72438072D01*
X96924482Y-72425812D01*
X97044180Y-72389502D01*
X97154494Y-72330537D01*
X97251185Y-72251185D01*
X97330537Y-72154494D01*
X97389502Y-72044180D01*
X97425812Y-71924482D01*
X97438072Y-71800000D01*
X97438072Y-70858665D01*
X99165000Y-70858665D01*
X99165000Y-71141335D01*
X99220147Y-71418574D01*
X99328320Y-71679727D01*
X99485363Y-71914759D01*
X99685241Y-72114637D01*
X99885869Y-72248692D01*
X99858486Y-72263329D01*
X99786903Y-72507298D01*
X100600000Y-73320395D01*
X101413097Y-72507298D01*
X101341514Y-72263329D01*
X101312659Y-72249676D01*
X101514759Y-72114637D01*
X101714637Y-71914759D01*
X101871680Y-71679727D01*
X101979853Y-71418574D01*
X102035000Y-71141335D01*
X102035000Y-70858665D01*
X101979853Y-70581426D01*
X101871680Y-70320273D01*
X101714637Y-70085241D01*
X101514759Y-69885363D01*
X101279727Y-69728320D01*
X101018574Y-69620147D01*
X100741335Y-69565000D01*
X100458665Y-69565000D01*
X100181426Y-69620147D01*
X99920273Y-69728320D01*
X99685241Y-69885363D01*
X99485363Y-70085241D01*
X99328320Y-70320273D01*
X99220147Y-70581426D01*
X99165000Y-70858665D01*
X97438072Y-70858665D01*
X97438072Y-70200000D01*
X97425812Y-70075518D01*
X97389502Y-69955820D01*
X97330537Y-69845506D01*
X97251185Y-69748815D01*
X97154494Y-69669463D01*
X97095767Y-69638072D01*
X97550000Y-69638072D01*
X97674482Y-69625812D01*
X97794180Y-69589502D01*
X97904494Y-69530537D01*
X98001185Y-69451185D01*
X98080537Y-69354494D01*
X98139502Y-69244180D01*
X98162225Y-69169272D01*
X98279748Y-69289857D01*
X98520574Y-69455291D01*
X98789047Y-69570563D01*
X98883110Y-69591476D01*
X99113000Y-69470155D01*
X99113000Y-67627000D01*
X99367000Y-67627000D01*
X99367000Y-69470155D01*
X99596890Y-69591476D01*
X99690953Y-69570563D01*
X99959426Y-69455291D01*
X100200252Y-69289857D01*
X100404176Y-69080619D01*
X100563361Y-68835618D01*
X100671690Y-68564269D01*
X100725000Y-68277000D01*
X100725000Y-67627000D01*
X99367000Y-67627000D01*
X99113000Y-67627000D01*
X99093000Y-67627000D01*
X99093000Y-67373000D01*
X99113000Y-67373000D01*
X99113000Y-65529845D01*
X98883110Y-65408524D01*
X98789047Y-65429437D01*
X98520574Y-65544709D01*
X98279748Y-65710143D01*
X98162225Y-65830728D01*
X98139502Y-65755820D01*
X98080537Y-65645506D01*
X98001185Y-65548815D01*
X97904494Y-65469463D01*
X97840019Y-65435000D01*
X98070883Y-65435000D01*
X98406081Y-65368325D01*
X98721831Y-65237537D01*
X99005998Y-65047663D01*
X99247663Y-64805998D01*
X99437537Y-64521831D01*
X99549903Y-64250557D01*
X99552119Y-64255101D01*
X99617707Y-64361610D01*
X99702815Y-64453277D01*
X99766220Y-64499132D01*
X99779275Y-64620077D01*
X99971288Y-64727120D01*
X100227483Y-64602165D01*
X100288068Y-64592434D01*
X100405326Y-64548884D01*
X101346364Y-64089909D01*
X101432692Y-64266908D01*
G37*
%TD.AperFunction*%
D27*
X116254205Y-75764848D02*
X116213289Y-76055987D01*
X116018276Y-76028579D01*
X116059193Y-75737441D01*
X116254205Y-75764848D01*
%TA.AperFunction,Conductor*%
D28*
G36*
X116254205Y-75764848D02*
G01*
X116213289Y-76055987D01*
X116018276Y-76028579D01*
X116059193Y-75737441D01*
X116254205Y-75764848D01*
G37*
%TD.AperFunction*%
D27*
X94269229Y-65416029D02*
X94182900Y-65593028D01*
X93918655Y-65464147D01*
X94004983Y-65287148D01*
X94269229Y-65416029D01*
%TA.AperFunction,Conductor*%
D28*
G36*
X94269229Y-65416029D02*
G01*
X94182900Y-65593028D01*
X93918655Y-65464147D01*
X94004983Y-65287148D01*
X94269229Y-65416029D01*
G37*
%TD.AperFunction*%
D27*
X96362463Y-64521831D02*
X96552337Y-64805998D01*
X96794002Y-65047663D01*
X97078169Y-65237537D01*
X97378475Y-65361928D01*
X95850000Y-65361928D01*
X95725518Y-65374188D01*
X95699693Y-65382022D01*
X95757077Y-65340521D01*
X95913889Y-65171624D01*
X96034737Y-64975379D01*
X96114978Y-64759329D01*
X96151528Y-64531775D01*
X96143745Y-64322046D01*
X96248368Y-64246381D01*
X96362463Y-64521831D01*
%TA.AperFunction,Conductor*%
D28*
G36*
X96362463Y-64521831D02*
G01*
X96552337Y-64805998D01*
X96794002Y-65047663D01*
X97078169Y-65237537D01*
X97378475Y-65361928D01*
X95850000Y-65361928D01*
X95725518Y-65374188D01*
X95699693Y-65382022D01*
X95757077Y-65340521D01*
X95913889Y-65171624D01*
X96034737Y-64975379D01*
X96114978Y-64759329D01*
X96151528Y-64531775D01*
X96143745Y-64322046D01*
X96248368Y-64246381D01*
X96362463Y-64521831D01*
G37*
%TD.AperFunction*%
D27*
X97450000Y-61447000D02*
X97253072Y-61447000D01*
X97253072Y-61153000D01*
X97450000Y-61153000D01*
X97450000Y-61447000D01*
%TA.AperFunction,Conductor*%
D28*
G36*
X97450000Y-61447000D02*
G01*
X97253072Y-61447000D01*
X97253072Y-61153000D01*
X97450000Y-61153000D01*
X97450000Y-61447000D01*
G37*
%TD.AperFunction*%
%TD*%
M02*
