%TF.GenerationSoftware,KiCad,Pcbnew,(5.1.9)-1*%
%TF.CreationDate,2021-09-09T22:51:27+02:00*%
%TF.ProjectId,star,73746172-2e6b-4696-9361-645f70636258,rev?*%
%TF.SameCoordinates,Original*%
%TF.FileFunction,Soldermask,Bot*%
%TF.FilePolarity,Negative*%
%FSLAX46Y46*%
G04 Gerber Fmt 4.6, Leading zero omitted, Abs format (unit mm)*
G04 Created by KiCad (PCBNEW (5.1.9)-1) date 2021-09-09 22:51:27*
%MOMM*%
%LPD*%
G01*
G04 APERTURE LIST*
%ADD10C,0.100000*%
%ADD11O,1.070000X1.800000*%
%ADD12R,1.070000X1.800000*%
%ADD13O,1.700000X3.000000*%
%ADD14R,1.700000X3.000000*%
%ADD15C,1.700000*%
%ADD16R,1.700000X1.700000*%
%ADD17C,2.200000*%
%ADD18O,1.400000X1.400000*%
%ADD19C,1.400000*%
%ADD20C,1.600000*%
%ADD21R,1.600000X1.600000*%
%ADD22O,1.070000X3.000000*%
%ADD23R,1.070000X3.000000*%
%ADD24R,1.060000X0.650000*%
G04 APERTURE END LIST*
%TO.C,D7*%
G36*
G01*
X76292319Y-81576131D02*
X75776131Y-82092319D01*
G75*
G02*
X75019527Y-82092319I-378302J378302D01*
G01*
X75019527Y-82092319D01*
G75*
G02*
X75019527Y-81335715I378302J378302D01*
G01*
X75535715Y-80819527D01*
G75*
G02*
X76292319Y-80819527I378302J-378302D01*
G01*
X76292319Y-80819527D01*
G75*
G02*
X76292319Y-81576131I-378302J-378302D01*
G01*
G37*
G36*
G01*
X77190345Y-82474157D02*
X76674157Y-82990345D01*
G75*
G02*
X75917553Y-82990345I-378302J378302D01*
G01*
X75917553Y-82990345D01*
G75*
G02*
X75917553Y-82233741I378302J378302D01*
G01*
X76433741Y-81717553D01*
G75*
G02*
X77190345Y-81717553I378302J-378302D01*
G01*
X77190345Y-81717553D01*
G75*
G02*
X77190345Y-82474157I-378302J-378302D01*
G01*
G37*
G36*
G01*
X78088370Y-83372182D02*
X77572182Y-83888370D01*
G75*
G02*
X76815578Y-83888370I-378302J378302D01*
G01*
X76815578Y-83888370D01*
G75*
G02*
X76815578Y-83131766I378302J378302D01*
G01*
X77331766Y-82615578D01*
G75*
G02*
X78088370Y-82615578I378302J-378302D01*
G01*
X78088370Y-82615578D01*
G75*
G02*
X78088370Y-83372182I-378302J-378302D01*
G01*
G37*
D10*
G36*
X79364698Y-83891906D02*
G01*
X78091906Y-85164698D01*
X77335302Y-84408094D01*
X78608094Y-83135302D01*
X79364698Y-83891906D01*
G37*
%TD*%
%TO.C,D6*%
G36*
G01*
X75431812Y-77021606D02*
X74737540Y-76796024D01*
G75*
G02*
X74394049Y-76121885I165324J508815D01*
G01*
X74394049Y-76121885D01*
G75*
G02*
X75068188Y-75778394I508815J-165324D01*
G01*
X75762460Y-76003976D01*
G75*
G02*
X76105951Y-76678115I-165324J-508815D01*
G01*
X76105951Y-76678115D01*
G75*
G02*
X75431812Y-77021606I-508815J165324D01*
G01*
G37*
G36*
G01*
X75039360Y-78229447D02*
X74345088Y-78003865D01*
G75*
G02*
X74001597Y-77329726I165324J508815D01*
G01*
X74001597Y-77329726D01*
G75*
G02*
X74675736Y-76986235I508815J-165324D01*
G01*
X75370008Y-77211817D01*
G75*
G02*
X75713499Y-77885956I-165324J-508815D01*
G01*
X75713499Y-77885956D01*
G75*
G02*
X75039360Y-78229447I-508815J165324D01*
G01*
G37*
G36*
G01*
X74646909Y-79437289D02*
X73952637Y-79211707D01*
G75*
G02*
X73609146Y-78537568I165324J508815D01*
G01*
X73609146Y-78537568D01*
G75*
G02*
X74283285Y-78194077I508815J-165324D01*
G01*
X74977557Y-78419659D01*
G75*
G02*
X75321048Y-79093798I-165324J-508815D01*
G01*
X75321048Y-79093798D01*
G75*
G02*
X74646909Y-79437289I-508815J165324D01*
G01*
G37*
G36*
X74763272Y-80810456D02*
G01*
X73051370Y-80254225D01*
X73382018Y-79236594D01*
X75093920Y-79792825D01*
X74763272Y-80810456D01*
G37*
%TD*%
%TO.C,D5*%
G36*
X76887822Y-77142449D02*
G01*
X76637311Y-75359966D01*
X77696898Y-75211051D01*
X77947409Y-76993534D01*
X76887822Y-77142449D01*
G37*
G36*
G01*
X78071005Y-76435906D02*
X77969409Y-75713010D01*
G75*
G02*
X78424744Y-75108759I529793J74458D01*
G01*
X78424744Y-75108759D01*
G75*
G02*
X79028995Y-75564094I74458J-529793D01*
G01*
X79130591Y-76286990D01*
G75*
G02*
X78675256Y-76891241I-529793J-74458D01*
G01*
X78675256Y-76891241D01*
G75*
G02*
X78071005Y-76435906I-74458J529793D01*
G01*
G37*
G36*
G01*
X79328646Y-76259156D02*
X79227050Y-75536260D01*
G75*
G02*
X79682385Y-74932009I529793J74458D01*
G01*
X79682385Y-74932009D01*
G75*
G02*
X80286636Y-75387344I74458J-529793D01*
G01*
X80388232Y-76110240D01*
G75*
G02*
X79932897Y-76714491I-529793J-74458D01*
G01*
X79932897Y-76714491D01*
G75*
G02*
X79328646Y-76259156I-74458J529793D01*
G01*
G37*
G36*
G01*
X80586286Y-76082406D02*
X80484690Y-75359510D01*
G75*
G02*
X80940025Y-74755259I529793J74458D01*
G01*
X80940025Y-74755259D01*
G75*
G02*
X81544276Y-75210594I74458J-529793D01*
G01*
X81645872Y-75933490D01*
G75*
G02*
X81190537Y-76537741I-529793J-74458D01*
G01*
X81190537Y-76537741D01*
G75*
G02*
X80586286Y-76082406I-74458J529793D01*
G01*
G37*
%TD*%
%TO.C,D4*%
G36*
X87963828Y-76232042D02*
G01*
X86905814Y-74775812D01*
X87771462Y-74146882D01*
X88829476Y-75603112D01*
X87963828Y-76232042D01*
G37*
G36*
G01*
X88676815Y-75052731D02*
X88247731Y-74462149D01*
G75*
G02*
X88366090Y-73714860I432824J314465D01*
G01*
X88366090Y-73714860D01*
G75*
G02*
X89113379Y-73833219I314465J-432824D01*
G01*
X89542463Y-74423801D01*
G75*
G02*
X89424104Y-75171090I-432824J-314465D01*
G01*
X89424104Y-75171090D01*
G75*
G02*
X88676815Y-75052731I-314465J432824D01*
G01*
G37*
G36*
G01*
X89704266Y-74306243D02*
X89275182Y-73715661D01*
G75*
G02*
X89393541Y-72968372I432824J314465D01*
G01*
X89393541Y-72968372D01*
G75*
G02*
X90140830Y-73086731I314465J-432824D01*
G01*
X90569914Y-73677313D01*
G75*
G02*
X90451555Y-74424602I-432824J-314465D01*
G01*
X90451555Y-74424602D01*
G75*
G02*
X89704266Y-74306243I-314465J432824D01*
G01*
G37*
G36*
G01*
X90731718Y-73559756D02*
X90302634Y-72969174D01*
G75*
G02*
X90420993Y-72221885I432824J314465D01*
G01*
X90420993Y-72221885D01*
G75*
G02*
X91168282Y-72340244I314465J-432824D01*
G01*
X91597366Y-72930826D01*
G75*
G02*
X91479007Y-73678115I-432824J-314465D01*
G01*
X91479007Y-73678115D01*
G75*
G02*
X90731718Y-73559756I-314465J432824D01*
G01*
G37*
%TD*%
%TO.C,D3*%
G36*
G01*
X95300262Y-63799392D02*
X94644142Y-63479382D01*
G75*
G02*
X94397816Y-62763998I234529J480855D01*
G01*
X94397816Y-62763998D01*
G75*
G02*
X95113200Y-62517672I480855J-234529D01*
G01*
X95769320Y-62837682D01*
G75*
G02*
X96015646Y-63553066I-234529J-480855D01*
G01*
X96015646Y-63553066D01*
G75*
G02*
X95300262Y-63799392I-480855J234529D01*
G01*
G37*
G36*
G01*
X94743531Y-64940860D02*
X94087411Y-64620850D01*
G75*
G02*
X93841085Y-63905466I234529J480855D01*
G01*
X93841085Y-63905466D01*
G75*
G02*
X94556469Y-63659140I480855J-234529D01*
G01*
X95212589Y-63979150D01*
G75*
G02*
X95458915Y-64694534I-234529J-480855D01*
G01*
X95458915Y-64694534D01*
G75*
G02*
X94743531Y-64940860I-480855J234529D01*
G01*
G37*
G36*
G01*
X94186799Y-66082329D02*
X93530679Y-65762319D01*
G75*
G02*
X93284353Y-65046935I234529J480855D01*
G01*
X93284353Y-65046935D01*
G75*
G02*
X93999737Y-64800609I480855J-234529D01*
G01*
X94655857Y-65120619D01*
G75*
G02*
X94902183Y-65836003I-234529J-480855D01*
G01*
X94902183Y-65836003D01*
G75*
G02*
X94186799Y-66082329I-480855J234529D01*
G01*
G37*
G36*
X94110923Y-67458326D02*
G01*
X92493094Y-66669258D01*
X92962151Y-65707548D01*
X94579980Y-66496616D01*
X94110923Y-67458326D01*
G37*
%TD*%
D11*
%TO.C,D2*%
X99890000Y-61300000D03*
X98620000Y-61300000D03*
X97350000Y-61300000D03*
D12*
X96080000Y-61300000D03*
%TD*%
%TO.C,D1*%
G36*
G01*
X101807605Y-66203555D02*
X102463725Y-65883545D01*
G75*
G02*
X103179109Y-66129871I234529J-480855D01*
G01*
X103179109Y-66129871D01*
G75*
G02*
X102932783Y-66845255I-480855J-234529D01*
G01*
X102276663Y-67165265D01*
G75*
G02*
X101561279Y-66918939I-234529J480855D01*
G01*
X101561279Y-66918939D01*
G75*
G02*
X101807605Y-66203555I480855J234529D01*
G01*
G37*
G36*
G01*
X101250874Y-65062087D02*
X101906994Y-64742077D01*
G75*
G02*
X102622378Y-64988403I234529J-480855D01*
G01*
X102622378Y-64988403D01*
G75*
G02*
X102376052Y-65703787I-480855J-234529D01*
G01*
X101719932Y-66023797D01*
G75*
G02*
X101004548Y-65777471I-234529J480855D01*
G01*
X101004548Y-65777471D01*
G75*
G02*
X101250874Y-65062087I480855J234529D01*
G01*
G37*
G36*
G01*
X100694142Y-63920618D02*
X101350262Y-63600608D01*
G75*
G02*
X102065646Y-63846934I234529J-480855D01*
G01*
X102065646Y-63846934D01*
G75*
G02*
X101819320Y-64562318I-480855J-234529D01*
G01*
X101163200Y-64882328D01*
G75*
G02*
X100447816Y-64636002I-234529J480855D01*
G01*
X100447816Y-64636002D01*
G75*
G02*
X100694142Y-63920618I480855J234529D01*
G01*
G37*
D10*
G36*
X99656557Y-63013679D02*
G01*
X101274386Y-62224611D01*
X101743443Y-63186321D01*
X100125614Y-63975389D01*
X99656557Y-63013679D01*
G37*
%TD*%
%TO.C,D20*%
G36*
G01*
X107252634Y-75280826D02*
X107681718Y-74690244D01*
G75*
G02*
X108429007Y-74571885I432824J-314465D01*
G01*
X108429007Y-74571885D01*
G75*
G02*
X108547366Y-75319174I-314465J-432824D01*
G01*
X108118282Y-75909756D01*
G75*
G02*
X107370993Y-76028115I-432824J314465D01*
G01*
X107370993Y-76028115D01*
G75*
G02*
X107252634Y-75280826I314465J432824D01*
G01*
G37*
G36*
G01*
X106225182Y-74534339D02*
X106654266Y-73943757D01*
G75*
G02*
X107401555Y-73825398I432824J-314465D01*
G01*
X107401555Y-73825398D01*
G75*
G02*
X107519914Y-74572687I-314465J-432824D01*
G01*
X107090830Y-75163269D01*
G75*
G02*
X106343541Y-75281628I-432824J314465D01*
G01*
X106343541Y-75281628D01*
G75*
G02*
X106225182Y-74534339I314465J432824D01*
G01*
G37*
G36*
G01*
X105197731Y-73787851D02*
X105626815Y-73197269D01*
G75*
G02*
X106374104Y-73078910I432824J-314465D01*
G01*
X106374104Y-73078910D01*
G75*
G02*
X106492463Y-73826199I-314465J-432824D01*
G01*
X106063379Y-74416781D01*
G75*
G02*
X105316090Y-74535140I-432824J314465D01*
G01*
X105316090Y-74535140D01*
G75*
G02*
X105197731Y-73787851I314465J432824D01*
G01*
G37*
G36*
X103855814Y-73474188D02*
G01*
X104913828Y-72017958D01*
X105779476Y-72646888D01*
X104721462Y-74103118D01*
X103855814Y-73474188D01*
G37*
%TD*%
%TO.C,D19*%
G36*
G01*
X118069409Y-76536990D02*
X118171005Y-75814094D01*
G75*
G02*
X118775256Y-75358759I529793J-74458D01*
G01*
X118775256Y-75358759D01*
G75*
G02*
X119230591Y-75963010I-74458J-529793D01*
G01*
X119128995Y-76685906D01*
G75*
G02*
X118524744Y-77141241I-529793J74458D01*
G01*
X118524744Y-77141241D01*
G75*
G02*
X118069409Y-76536990I74458J529793D01*
G01*
G37*
G36*
G01*
X116811769Y-76360240D02*
X116913365Y-75637344D01*
G75*
G02*
X117517616Y-75182009I529793J-74458D01*
G01*
X117517616Y-75182009D01*
G75*
G02*
X117972951Y-75786260I-74458J-529793D01*
G01*
X117871355Y-76509156D01*
G75*
G02*
X117267104Y-76964491I-529793J74458D01*
G01*
X117267104Y-76964491D01*
G75*
G02*
X116811769Y-76360240I74458J529793D01*
G01*
G37*
G36*
G01*
X115554128Y-76183490D02*
X115655724Y-75460594D01*
G75*
G02*
X116259975Y-75005259I529793J-74458D01*
G01*
X116259975Y-75005259D01*
G75*
G02*
X116715310Y-75609510I-74458J-529793D01*
G01*
X116613714Y-76332406D01*
G75*
G02*
X116009463Y-76787741I-529793J74458D01*
G01*
X116009463Y-76787741D01*
G75*
G02*
X115554128Y-76183490I74458J529793D01*
G01*
G37*
G36*
X114222030Y-76536534D02*
G01*
X114472541Y-74754051D01*
X115532128Y-74902966D01*
X115281617Y-76685449D01*
X114222030Y-76536534D01*
G37*
%TD*%
%TO.C,D18*%
G36*
G01*
X121279992Y-79761817D02*
X121974264Y-79536235D01*
G75*
G02*
X122648403Y-79879726I165324J-508815D01*
G01*
X122648403Y-79879726D01*
G75*
G02*
X122304912Y-80553865I-508815J-165324D01*
G01*
X121610640Y-80779447D01*
G75*
G02*
X120936501Y-80435956I-165324J508815D01*
G01*
X120936501Y-80435956D01*
G75*
G02*
X121279992Y-79761817I508815J165324D01*
G01*
G37*
G36*
G01*
X120887540Y-78553976D02*
X121581812Y-78328394D01*
G75*
G02*
X122255951Y-78671885I165324J-508815D01*
G01*
X122255951Y-78671885D01*
G75*
G02*
X121912460Y-79346024I-508815J-165324D01*
G01*
X121218188Y-79571606D01*
G75*
G02*
X120544049Y-79228115I-165324J508815D01*
G01*
X120544049Y-79228115D01*
G75*
G02*
X120887540Y-78553976I508815J165324D01*
G01*
G37*
G36*
G01*
X120495089Y-77346134D02*
X121189361Y-77120552D01*
G75*
G02*
X121863500Y-77464043I165324J-508815D01*
G01*
X121863500Y-77464043D01*
G75*
G02*
X121520009Y-78138182I-508815J-165324D01*
G01*
X120825737Y-78363764D01*
G75*
G02*
X120151598Y-78020273I-165324J508815D01*
G01*
X120151598Y-78020273D01*
G75*
G02*
X120495089Y-77346134I508815J165324D01*
G01*
G37*
G36*
X119593822Y-76303616D02*
G01*
X121305724Y-75747385D01*
X121636372Y-76765016D01*
X119924470Y-77321247D01*
X119593822Y-76303616D01*
G37*
%TD*%
%TO.C,D17*%
G36*
G01*
X117831297Y-83415799D02*
X118338397Y-83940917D01*
G75*
G02*
X118325192Y-84697406I-384847J-371642D01*
G01*
X118325192Y-84697406D01*
G75*
G02*
X117568703Y-84684201I-371642J384847D01*
G01*
X117061603Y-84159083D01*
G75*
G02*
X117074808Y-83402594I384847J371642D01*
G01*
X117074808Y-83402594D01*
G75*
G02*
X117831297Y-83415799I371642J-384847D01*
G01*
G37*
G36*
G01*
X118744859Y-82533583D02*
X119251959Y-83058701D01*
G75*
G02*
X119238754Y-83815190I-384847J-371642D01*
G01*
X119238754Y-83815190D01*
G75*
G02*
X118482265Y-83801985I-371642J384847D01*
G01*
X117975165Y-83276867D01*
G75*
G02*
X117988370Y-82520378I384847J371642D01*
G01*
X117988370Y-82520378D01*
G75*
G02*
X118744859Y-82533583I371642J-384847D01*
G01*
G37*
G36*
G01*
X119658420Y-81651367D02*
X120165520Y-82176485D01*
G75*
G02*
X120152315Y-82932974I-384847J-371642D01*
G01*
X120152315Y-82932974D01*
G75*
G02*
X119395826Y-82919769I-371642J384847D01*
G01*
X118888726Y-82394651D01*
G75*
G02*
X118901931Y-81638162I384847J371642D01*
G01*
X118901931Y-81638162D01*
G75*
G02*
X119658420Y-81651367I371642J-384847D01*
G01*
G37*
G36*
X120200339Y-80384304D02*
G01*
X121450724Y-81679116D01*
X120681031Y-82422400D01*
X119430646Y-81127588D01*
X120200339Y-80384304D01*
G37*
%TD*%
%TO.C,D16*%
G36*
G01*
X110883285Y-91544077D02*
X111577557Y-91769659D01*
G75*
G02*
X111921048Y-92443798I-165324J-508815D01*
G01*
X111921048Y-92443798D01*
G75*
G02*
X111246909Y-92787289I-508815J165324D01*
G01*
X110552637Y-92561707D01*
G75*
G02*
X110209146Y-91887568I165324J508815D01*
G01*
X110209146Y-91887568D01*
G75*
G02*
X110883285Y-91544077I508815J-165324D01*
G01*
G37*
G36*
G01*
X111275737Y-90336236D02*
X111970009Y-90561818D01*
G75*
G02*
X112313500Y-91235957I-165324J-508815D01*
G01*
X112313500Y-91235957D01*
G75*
G02*
X111639361Y-91579448I-508815J165324D01*
G01*
X110945089Y-91353866D01*
G75*
G02*
X110601598Y-90679727I165324J508815D01*
G01*
X110601598Y-90679727D01*
G75*
G02*
X111275737Y-90336236I508815J-165324D01*
G01*
G37*
G36*
G01*
X111668188Y-89128394D02*
X112362460Y-89353976D01*
G75*
G02*
X112705951Y-90028115I-165324J-508815D01*
G01*
X112705951Y-90028115D01*
G75*
G02*
X112031812Y-90371606I-508815J165324D01*
G01*
X111337540Y-90146024D01*
G75*
G02*
X110994049Y-89471885I165324J508815D01*
G01*
X110994049Y-89471885D01*
G75*
G02*
X111668188Y-89128394I508815J-165324D01*
G01*
G37*
G36*
X111551825Y-87755227D02*
G01*
X113263727Y-88311458D01*
X112933079Y-89329089D01*
X111221177Y-88772858D01*
X111551825Y-87755227D01*
G37*
%TD*%
%TO.C,D15*%
G36*
G01*
X112947643Y-102136510D02*
X113666553Y-102009746D01*
G75*
G02*
X114286327Y-102443716I92902J-526872D01*
G01*
X114286327Y-102443716D01*
G75*
G02*
X113852357Y-103063490I-526872J-92902D01*
G01*
X113133447Y-103190254D01*
G75*
G02*
X112513673Y-102756284I-92902J526872D01*
G01*
X112513673Y-102756284D01*
G75*
G02*
X112947643Y-102136510I526872J92902D01*
G01*
G37*
G36*
G01*
X112727109Y-100885804D02*
X113446019Y-100759040D01*
G75*
G02*
X114065793Y-101193010I92902J-526872D01*
G01*
X114065793Y-101193010D01*
G75*
G02*
X113631823Y-101812784I-526872J-92902D01*
G01*
X112912913Y-101939548D01*
G75*
G02*
X112293139Y-101505578I-92902J526872D01*
G01*
X112293139Y-101505578D01*
G75*
G02*
X112727109Y-100885804I526872J92902D01*
G01*
G37*
G36*
G01*
X112506576Y-99635098D02*
X113225486Y-99508334D01*
G75*
G02*
X113845260Y-99942304I92902J-526872D01*
G01*
X113845260Y-99942304D01*
G75*
G02*
X113411290Y-100562078I-526872J-92902D01*
G01*
X112692380Y-100688842D01*
G75*
G02*
X112072606Y-100254872I-92902J526872D01*
G01*
X112072606Y-100254872D01*
G75*
G02*
X112506576Y-99635098I526872J92902D01*
G01*
G37*
G36*
X111759171Y-98477293D02*
G01*
X113531825Y-98164726D01*
X113717629Y-99218471D01*
X111944975Y-99531038D01*
X111759171Y-98477293D01*
G37*
%TD*%
%TO.C,D14*%
G36*
G01*
X110935927Y-106229706D02*
X111365011Y-106820288D01*
G75*
G02*
X111246652Y-107567577I-432824J-314465D01*
G01*
X111246652Y-107567577D01*
G75*
G02*
X110499363Y-107449218I-314465J432824D01*
G01*
X110070279Y-106858636D01*
G75*
G02*
X110188638Y-106111347I432824J314465D01*
G01*
X110188638Y-106111347D01*
G75*
G02*
X110935927Y-106229706I314465J-432824D01*
G01*
G37*
G36*
G01*
X111963379Y-105483219D02*
X112392463Y-106073801D01*
G75*
G02*
X112274104Y-106821090I-432824J-314465D01*
G01*
X112274104Y-106821090D01*
G75*
G02*
X111526815Y-106702731I-314465J432824D01*
G01*
X111097731Y-106112149D01*
G75*
G02*
X111216090Y-105364860I432824J314465D01*
G01*
X111216090Y-105364860D01*
G75*
G02*
X111963379Y-105483219I314465J-432824D01*
G01*
G37*
G36*
G01*
X112990830Y-104736731D02*
X113419914Y-105327313D01*
G75*
G02*
X113301555Y-106074602I-432824J-314465D01*
G01*
X113301555Y-106074602D01*
G75*
G02*
X112554266Y-105956243I-314465J432824D01*
G01*
X112125182Y-105365661D01*
G75*
G02*
X112243541Y-104618372I432824J314465D01*
G01*
X112243541Y-104618372D01*
G75*
G02*
X112990830Y-104736731I314465J-432824D01*
G01*
G37*
G36*
X113703817Y-103557420D02*
G01*
X114761831Y-105013650D01*
X113896183Y-105642580D01*
X112838169Y-104186350D01*
X113703817Y-103557420D01*
G37*
%TD*%
%TO.C,D13*%
G36*
G01*
X106243734Y-103978891D02*
X105901020Y-104623443D01*
G75*
G02*
X105177476Y-104844653I-472377J251167D01*
G01*
X105177476Y-104844653D01*
G75*
G02*
X104956266Y-104121109I251167J472377D01*
G01*
X105298980Y-103476557D01*
G75*
G02*
X106022524Y-103255347I472377J-251167D01*
G01*
X106022524Y-103255347D01*
G75*
G02*
X106243734Y-103978891I-251167J-472377D01*
G01*
G37*
G36*
G01*
X107365077Y-104575120D02*
X107022363Y-105219672D01*
G75*
G02*
X106298819Y-105440882I-472377J251167D01*
G01*
X106298819Y-105440882D01*
G75*
G02*
X106077609Y-104717338I251167J472377D01*
G01*
X106420323Y-104072786D01*
G75*
G02*
X107143867Y-103851576I472377J-251167D01*
G01*
X107143867Y-103851576D01*
G75*
G02*
X107365077Y-104575120I-251167J-472377D01*
G01*
G37*
G36*
G01*
X108486421Y-105171349D02*
X108143707Y-105815901D01*
G75*
G02*
X107420163Y-106037111I-472377J251167D01*
G01*
X107420163Y-106037111D01*
G75*
G02*
X107198953Y-105313567I251167J472377D01*
G01*
X107541667Y-104669015D01*
G75*
G02*
X108265211Y-104447805I472377J-251167D01*
G01*
X108265211Y-104447805D01*
G75*
G02*
X108486421Y-105171349I-251167J-472377D01*
G01*
G37*
G36*
X109858931Y-105295201D02*
G01*
X109013883Y-106884507D01*
X108069129Y-106382173D01*
X108914177Y-104792867D01*
X109858931Y-105295201D01*
G37*
%TD*%
%TO.C,D8*%
G36*
G01*
X84035105Y-88872499D02*
X83340833Y-89098081D01*
G75*
G02*
X82666694Y-88754590I-165324J508815D01*
G01*
X82666694Y-88754590D01*
G75*
G02*
X83010185Y-88080451I508815J165324D01*
G01*
X83704457Y-87854869D01*
G75*
G02*
X84378596Y-88198360I165324J-508815D01*
G01*
X84378596Y-88198360D01*
G75*
G02*
X84035105Y-88872499I-508815J-165324D01*
G01*
G37*
G36*
G01*
X84427557Y-90080340D02*
X83733285Y-90305922D01*
G75*
G02*
X83059146Y-89962431I-165324J508815D01*
G01*
X83059146Y-89962431D01*
G75*
G02*
X83402637Y-89288292I508815J165324D01*
G01*
X84096909Y-89062710D01*
G75*
G02*
X84771048Y-89406201I165324J-508815D01*
G01*
X84771048Y-89406201D01*
G75*
G02*
X84427557Y-90080340I-508815J-165324D01*
G01*
G37*
G36*
G01*
X84820008Y-91288182D02*
X84125736Y-91513764D01*
G75*
G02*
X83451597Y-91170273I-165324J508815D01*
G01*
X83451597Y-91170273D01*
G75*
G02*
X83795088Y-90496134I508815J165324D01*
G01*
X84489360Y-90270552D01*
G75*
G02*
X85163499Y-90614043I165324J-508815D01*
G01*
X85163499Y-90614043D01*
G75*
G02*
X84820008Y-91288182I-508815J-165324D01*
G01*
G37*
G36*
X85721275Y-92330700D02*
G01*
X84009373Y-92886931D01*
X83678725Y-91869300D01*
X85390627Y-91313069D01*
X85721275Y-92330700D01*
G37*
%TD*%
%TO.C,D9*%
G36*
G01*
X83266553Y-99240254D02*
X82547643Y-99113490D01*
G75*
G02*
X82113673Y-98493716I92902J526872D01*
G01*
X82113673Y-98493716D01*
G75*
G02*
X82733447Y-98059746I526872J-92902D01*
G01*
X83452357Y-98186510D01*
G75*
G02*
X83886327Y-98806284I-92902J-526872D01*
G01*
X83886327Y-98806284D01*
G75*
G02*
X83266553Y-99240254I-526872J92902D01*
G01*
G37*
G36*
G01*
X83046019Y-100490960D02*
X82327109Y-100364196D01*
G75*
G02*
X81893139Y-99744422I92902J526872D01*
G01*
X81893139Y-99744422D01*
G75*
G02*
X82512913Y-99310452I526872J-92902D01*
G01*
X83231823Y-99437216D01*
G75*
G02*
X83665793Y-100056990I-92902J-526872D01*
G01*
X83665793Y-100056990D01*
G75*
G02*
X83046019Y-100490960I-526872J92902D01*
G01*
G37*
G36*
G01*
X82825486Y-101741666D02*
X82106576Y-101614902D01*
G75*
G02*
X81672606Y-100995128I92902J526872D01*
G01*
X81672606Y-100995128D01*
G75*
G02*
X82292380Y-100561158I526872J-92902D01*
G01*
X83011290Y-100687922D01*
G75*
G02*
X83445260Y-101307696I-92902J-526872D01*
G01*
X83445260Y-101307696D01*
G75*
G02*
X82825486Y-101741666I-526872J92902D01*
G01*
G37*
G36*
X83131825Y-103085274D02*
G01*
X81359171Y-102772707D01*
X81544975Y-101718962D01*
X83317629Y-102031529D01*
X83131825Y-103085274D01*
G37*
%TD*%
%TO.C,D10*%
G36*
G01*
X82619914Y-104472687D02*
X82190830Y-105063269D01*
G75*
G02*
X81443541Y-105181628I-432824J314465D01*
G01*
X81443541Y-105181628D01*
G75*
G02*
X81325182Y-104434339I314465J432824D01*
G01*
X81754266Y-103843757D01*
G75*
G02*
X82501555Y-103725398I432824J-314465D01*
G01*
X82501555Y-103725398D01*
G75*
G02*
X82619914Y-104472687I-314465J-432824D01*
G01*
G37*
G36*
G01*
X83647366Y-105219174D02*
X83218282Y-105809756D01*
G75*
G02*
X82470993Y-105928115I-432824J314465D01*
G01*
X82470993Y-105928115D01*
G75*
G02*
X82352634Y-105180826I314465J432824D01*
G01*
X82781718Y-104590244D01*
G75*
G02*
X83529007Y-104471885I432824J-314465D01*
G01*
X83529007Y-104471885D01*
G75*
G02*
X83647366Y-105219174I-314465J-432824D01*
G01*
G37*
G36*
G01*
X84674817Y-105965662D02*
X84245733Y-106556244D01*
G75*
G02*
X83498444Y-106674603I-432824J314465D01*
G01*
X83498444Y-106674603D01*
G75*
G02*
X83380085Y-105927314I314465J432824D01*
G01*
X83809169Y-105336732D01*
G75*
G02*
X84556458Y-105218373I432824J-314465D01*
G01*
X84556458Y-105218373D01*
G75*
G02*
X84674817Y-105965662I-314465J-432824D01*
G01*
G37*
G36*
X86016734Y-106279325D02*
G01*
X84958720Y-107735555D01*
X84093072Y-107106625D01*
X85151086Y-105650395D01*
X86016734Y-106279325D01*
G37*
%TD*%
%TO.C,D11*%
G36*
G01*
X87229677Y-105122786D02*
X87572391Y-105767338D01*
G75*
G02*
X87351181Y-106490882I-472377J-251167D01*
G01*
X87351181Y-106490882D01*
G75*
G02*
X86627637Y-106269672I-251167J472377D01*
G01*
X86284923Y-105625120D01*
G75*
G02*
X86506133Y-104901576I472377J251167D01*
G01*
X86506133Y-104901576D01*
G75*
G02*
X87229677Y-105122786I251167J-472377D01*
G01*
G37*
G36*
G01*
X88351020Y-104526557D02*
X88693734Y-105171109D01*
G75*
G02*
X88472524Y-105894653I-472377J-251167D01*
G01*
X88472524Y-105894653D01*
G75*
G02*
X87748980Y-105673443I-251167J472377D01*
G01*
X87406266Y-105028891D01*
G75*
G02*
X87627476Y-104305347I472377J251167D01*
G01*
X87627476Y-104305347D01*
G75*
G02*
X88351020Y-104526557I251167J-472377D01*
G01*
G37*
G36*
G01*
X89472364Y-103930328D02*
X89815078Y-104574880D01*
G75*
G02*
X89593868Y-105298424I-472377J-251167D01*
G01*
X89593868Y-105298424D01*
G75*
G02*
X88870324Y-105077214I-251167J472377D01*
G01*
X88527610Y-104432662D01*
G75*
G02*
X88748820Y-103709118I472377J251167D01*
G01*
X88748820Y-103709118D01*
G75*
G02*
X89472364Y-103930328I251167J-472377D01*
G01*
G37*
G36*
X90342540Y-102861722D02*
G01*
X91187588Y-104451028D01*
X90242834Y-104953362D01*
X89397786Y-103364056D01*
X90342540Y-102861722D01*
G37*
%TD*%
D13*
%TO.C,J1*%
X99240000Y-67500000D03*
D14*
X96700000Y-67500000D03*
%TD*%
D15*
%TO.C,J2*%
X105620000Y-92000000D03*
D16*
X90380000Y-92000000D03*
D15*
X92920000Y-92000000D03*
X95460000Y-92000000D03*
X98000000Y-92000000D03*
X100540000Y-92000000D03*
X103080000Y-92000000D03*
%TD*%
D17*
%TO.C,REF\u002A\u002A*%
X97900000Y-63700000D03*
%TD*%
D18*
%TO.C,R3*%
X112000000Y-78380000D03*
D19*
X112000000Y-86000000D03*
%TD*%
D18*
%TO.C,R2*%
X83900000Y-78380000D03*
D19*
X83900000Y-86000000D03*
%TD*%
D18*
%TO.C,R1*%
X81600000Y-78380000D03*
D19*
X81600000Y-86000000D03*
%TD*%
D20*
%TO.C,C5*%
X108000000Y-102000000D03*
X105500000Y-102000000D03*
%TD*%
%TO.C,C4*%
X86000000Y-102000000D03*
X88500000Y-102000000D03*
%TD*%
%TO.C,C3*%
X100600000Y-73500000D03*
X100600000Y-71000000D03*
%TD*%
%TO.C,C2*%
X116000000Y-78800000D03*
D21*
X116000000Y-81300000D03*
%TD*%
D20*
%TO.C,C1*%
X96000000Y-73500000D03*
D21*
X96000000Y-71000000D03*
%TD*%
D22*
%TO.C,D12*%
X95990000Y-99750000D03*
X97260000Y-99750000D03*
X98530000Y-99750000D03*
D23*
X99800000Y-99750000D03*
%TD*%
D24*
%TO.C,U2*%
X104700000Y-96900000D03*
X104700000Y-95000000D03*
X102500000Y-95000000D03*
X102500000Y-95950000D03*
X102500000Y-96900000D03*
%TD*%
M02*
