%TF.GenerationSoftware,KiCad,Pcbnew,(5.1.9)-1*%
%TF.CreationDate,2021-09-09T22:51:27+02:00*%
%TF.ProjectId,star,73746172-2e6b-4696-9361-645f70636258,rev?*%
%TF.SameCoordinates,Original*%
%TF.FileFunction,Legend,Top*%
%TF.FilePolarity,Positive*%
%FSLAX46Y46*%
G04 Gerber Fmt 4.6, Leading zero omitted, Abs format (unit mm)*
G04 Created by KiCad (PCBNEW (5.1.9)-1) date 2021-09-09 22:51:27*
%MOMM*%
%LPD*%
G01*
G04 APERTURE LIST*
%ADD10C,0.150000*%
%ADD11C,0.152400*%
%ADD12C,0.120000*%
%ADD13C,0.100000*%
%ADD14O,1.070000X1.800000*%
%ADD15R,1.070000X1.800000*%
%ADD16O,1.700000X3.000000*%
%ADD17R,1.700000X3.000000*%
%ADD18R,1.100000X2.500000*%
%ADD19R,2.500000X1.100000*%
%ADD20C,2.200000*%
%ADD21R,1.600000X2.000000*%
%ADD22O,1.400000X1.400000*%
%ADD23C,1.400000*%
%ADD24C,1.600000*%
%ADD25R,1.600000X1.600000*%
G04 APERTURE END LIST*
D10*
X93272552Y-86675980D02*
X93272552Y-87390266D01*
X93224933Y-87533123D01*
X93129695Y-87628361D01*
X92986838Y-87675980D01*
X92891600Y-87675980D01*
X94224933Y-87675980D02*
X93748742Y-87675980D01*
X93748742Y-86675980D01*
X95129695Y-87580742D02*
X95082076Y-87628361D01*
X94939219Y-87675980D01*
X94843980Y-87675980D01*
X94701123Y-87628361D01*
X94605885Y-87533123D01*
X94558266Y-87437885D01*
X94510647Y-87247409D01*
X94510647Y-87104552D01*
X94558266Y-86914076D01*
X94605885Y-86818838D01*
X94701123Y-86723600D01*
X94843980Y-86675980D01*
X94939219Y-86675980D01*
X95082076Y-86723600D01*
X95129695Y-86771219D01*
X95843980Y-86675980D02*
X95843980Y-87390266D01*
X95796361Y-87533123D01*
X95701123Y-87628361D01*
X95558266Y-87675980D01*
X95463028Y-87675980D01*
X96796361Y-87675980D02*
X96320171Y-87675980D01*
X96320171Y-86675980D01*
X97701123Y-87580742D02*
X97653504Y-87628361D01*
X97510647Y-87675980D01*
X97415409Y-87675980D01*
X97272552Y-87628361D01*
X97177314Y-87533123D01*
X97129695Y-87437885D01*
X97082076Y-87247409D01*
X97082076Y-87104552D01*
X97129695Y-86914076D01*
X97177314Y-86818838D01*
X97272552Y-86723600D01*
X97415409Y-86675980D01*
X97510647Y-86675980D01*
X97653504Y-86723600D01*
X97701123Y-86771219D01*
X98415409Y-86675980D02*
X98415409Y-87390266D01*
X98367790Y-87533123D01*
X98272552Y-87628361D01*
X98129695Y-87675980D01*
X98034457Y-87675980D01*
X99367790Y-87675980D02*
X98891600Y-87675980D01*
X98891600Y-86675980D01*
X100272552Y-87580742D02*
X100224933Y-87628361D01*
X100082076Y-87675980D01*
X99986838Y-87675980D01*
X99843980Y-87628361D01*
X99748742Y-87533123D01*
X99701123Y-87437885D01*
X99653504Y-87247409D01*
X99653504Y-87104552D01*
X99701123Y-86914076D01*
X99748742Y-86818838D01*
X99843980Y-86723600D01*
X99986838Y-86675980D01*
X100082076Y-86675980D01*
X100224933Y-86723600D01*
X100272552Y-86771219D01*
X100986838Y-86675980D02*
X100986838Y-87390266D01*
X100939219Y-87533123D01*
X100843980Y-87628361D01*
X100701123Y-87675980D01*
X100605885Y-87675980D01*
X101939219Y-87675980D02*
X101463028Y-87675980D01*
X101463028Y-86675980D01*
X102843980Y-87580742D02*
X102796361Y-87628361D01*
X102653504Y-87675980D01*
X102558266Y-87675980D01*
X102415409Y-87628361D01*
X102320171Y-87533123D01*
X102272552Y-87437885D01*
X102224933Y-87247409D01*
X102224933Y-87104552D01*
X102272552Y-86914076D01*
X102320171Y-86818838D01*
X102415409Y-86723600D01*
X102558266Y-86675980D01*
X102653504Y-86675980D01*
X102796361Y-86723600D01*
X102843980Y-86771219D01*
D11*
%TO.C,U1*%
X105896000Y-100871000D02*
X105896000Y-100109000D01*
X89894000Y-100871000D02*
X105896000Y-100871000D01*
X89894000Y-100109000D02*
X89894000Y-100871000D01*
D12*
%TO.C,SW2*%
X111150000Y-99600000D02*
X111150000Y-93400000D01*
X107450000Y-93400000D02*
X107450000Y-99600000D01*
X107450000Y-99600000D02*
X108100000Y-99600000D01*
X110500000Y-99600000D02*
X111150000Y-99600000D01*
X111150000Y-93400000D02*
X110500000Y-93400000D01*
X107450000Y-93400000D02*
X108100000Y-93400000D01*
%TO.C,SW1*%
X88350000Y-99600000D02*
X88350000Y-93400000D01*
X84650000Y-93400000D02*
X84650000Y-99600000D01*
X84650000Y-99600000D02*
X85300000Y-99600000D01*
X87700000Y-99600000D02*
X88350000Y-99600000D01*
X88350000Y-93400000D02*
X87700000Y-93400000D01*
X84650000Y-93400000D02*
X85300000Y-93400000D01*
%TO.C,R3*%
X112000000Y-79320000D02*
X112000000Y-80270000D01*
X112000000Y-85060000D02*
X112000000Y-84110000D01*
X111080000Y-80270000D02*
X111080000Y-84110000D01*
X112920000Y-80270000D02*
X111080000Y-80270000D01*
X112920000Y-84110000D02*
X112920000Y-80270000D01*
X111080000Y-84110000D02*
X112920000Y-84110000D01*
%TO.C,R2*%
X83900000Y-79320000D02*
X83900000Y-80270000D01*
X83900000Y-85060000D02*
X83900000Y-84110000D01*
X82980000Y-80270000D02*
X82980000Y-84110000D01*
X84820000Y-80270000D02*
X82980000Y-80270000D01*
X84820000Y-84110000D02*
X84820000Y-80270000D01*
X82980000Y-84110000D02*
X84820000Y-84110000D01*
%TO.C,R1*%
X81600000Y-79320000D02*
X81600000Y-80270000D01*
X81600000Y-85060000D02*
X81600000Y-84110000D01*
X80680000Y-80270000D02*
X80680000Y-84110000D01*
X82520000Y-80270000D02*
X80680000Y-80270000D01*
X82520000Y-84110000D02*
X82520000Y-80270000D01*
X80680000Y-84110000D02*
X82520000Y-84110000D01*
%TO.C,C3*%
X101970000Y-74870000D02*
X99230000Y-74870000D01*
X101970000Y-69630000D02*
X99230000Y-69630000D01*
X99230000Y-69630000D02*
X99230000Y-74870000D01*
X101970000Y-69630000D02*
X101970000Y-74870000D01*
%TO.C,C2*%
X114275000Y-82604775D02*
X114775000Y-82604775D01*
X114525000Y-82854775D02*
X114525000Y-82354775D01*
X115716000Y-77449000D02*
X116284000Y-77449000D01*
X115482000Y-77489000D02*
X116518000Y-77489000D01*
X115323000Y-77529000D02*
X116677000Y-77529000D01*
X115195000Y-77569000D02*
X116805000Y-77569000D01*
X115085000Y-77609000D02*
X116915000Y-77609000D01*
X114989000Y-77649000D02*
X117011000Y-77649000D01*
X114902000Y-77689000D02*
X117098000Y-77689000D01*
X114822000Y-77729000D02*
X117178000Y-77729000D01*
X117040000Y-77769000D02*
X117251000Y-77769000D01*
X114749000Y-77769000D02*
X114960000Y-77769000D01*
X117040000Y-77809000D02*
X117319000Y-77809000D01*
X114681000Y-77809000D02*
X114960000Y-77809000D01*
X117040000Y-77849000D02*
X117383000Y-77849000D01*
X114617000Y-77849000D02*
X114960000Y-77849000D01*
X117040000Y-77889000D02*
X117443000Y-77889000D01*
X114557000Y-77889000D02*
X114960000Y-77889000D01*
X117040000Y-77929000D02*
X117500000Y-77929000D01*
X114500000Y-77929000D02*
X114960000Y-77929000D01*
X117040000Y-77969000D02*
X117554000Y-77969000D01*
X114446000Y-77969000D02*
X114960000Y-77969000D01*
X117040000Y-78009000D02*
X117605000Y-78009000D01*
X114395000Y-78009000D02*
X114960000Y-78009000D01*
X117040000Y-78049000D02*
X117653000Y-78049000D01*
X114347000Y-78049000D02*
X114960000Y-78049000D01*
X117040000Y-78089000D02*
X117699000Y-78089000D01*
X114301000Y-78089000D02*
X114960000Y-78089000D01*
X117040000Y-78129000D02*
X117743000Y-78129000D01*
X114257000Y-78129000D02*
X114960000Y-78129000D01*
X117040000Y-78169000D02*
X117785000Y-78169000D01*
X114215000Y-78169000D02*
X114960000Y-78169000D01*
X117040000Y-78209000D02*
X117826000Y-78209000D01*
X114174000Y-78209000D02*
X114960000Y-78209000D01*
X117040000Y-78249000D02*
X117864000Y-78249000D01*
X114136000Y-78249000D02*
X114960000Y-78249000D01*
X117040000Y-78289000D02*
X117901000Y-78289000D01*
X114099000Y-78289000D02*
X114960000Y-78289000D01*
X117040000Y-78329000D02*
X117937000Y-78329000D01*
X114063000Y-78329000D02*
X114960000Y-78329000D01*
X117040000Y-78369000D02*
X117971000Y-78369000D01*
X114029000Y-78369000D02*
X114960000Y-78369000D01*
X117040000Y-78409000D02*
X118004000Y-78409000D01*
X113996000Y-78409000D02*
X114960000Y-78409000D01*
X117040000Y-78449000D02*
X118035000Y-78449000D01*
X113965000Y-78449000D02*
X114960000Y-78449000D01*
X117040000Y-78489000D02*
X118065000Y-78489000D01*
X113935000Y-78489000D02*
X114960000Y-78489000D01*
X117040000Y-78529000D02*
X118095000Y-78529000D01*
X113905000Y-78529000D02*
X114960000Y-78529000D01*
X117040000Y-78569000D02*
X118122000Y-78569000D01*
X113878000Y-78569000D02*
X114960000Y-78569000D01*
X117040000Y-78609000D02*
X118149000Y-78609000D01*
X113851000Y-78609000D02*
X114960000Y-78609000D01*
X117040000Y-78649000D02*
X118175000Y-78649000D01*
X113825000Y-78649000D02*
X114960000Y-78649000D01*
X117040000Y-78689000D02*
X118200000Y-78689000D01*
X113800000Y-78689000D02*
X114960000Y-78689000D01*
X117040000Y-78729000D02*
X118224000Y-78729000D01*
X113776000Y-78729000D02*
X114960000Y-78729000D01*
X117040000Y-78769000D02*
X118247000Y-78769000D01*
X113753000Y-78769000D02*
X114960000Y-78769000D01*
X117040000Y-78809000D02*
X118268000Y-78809000D01*
X113732000Y-78809000D02*
X114960000Y-78809000D01*
X117040000Y-78849000D02*
X118290000Y-78849000D01*
X113710000Y-78849000D02*
X114960000Y-78849000D01*
X117040000Y-78889000D02*
X118310000Y-78889000D01*
X113690000Y-78889000D02*
X114960000Y-78889000D01*
X117040000Y-78929000D02*
X118329000Y-78929000D01*
X113671000Y-78929000D02*
X114960000Y-78929000D01*
X117040000Y-78969000D02*
X118348000Y-78969000D01*
X113652000Y-78969000D02*
X114960000Y-78969000D01*
X117040000Y-79009000D02*
X118365000Y-79009000D01*
X113635000Y-79009000D02*
X114960000Y-79009000D01*
X117040000Y-79049000D02*
X118382000Y-79049000D01*
X113618000Y-79049000D02*
X114960000Y-79049000D01*
X117040000Y-79089000D02*
X118398000Y-79089000D01*
X113602000Y-79089000D02*
X114960000Y-79089000D01*
X117040000Y-79129000D02*
X118414000Y-79129000D01*
X113586000Y-79129000D02*
X114960000Y-79129000D01*
X117040000Y-79169000D02*
X118428000Y-79169000D01*
X113572000Y-79169000D02*
X114960000Y-79169000D01*
X117040000Y-79209000D02*
X118442000Y-79209000D01*
X113558000Y-79209000D02*
X114960000Y-79209000D01*
X117040000Y-79249000D02*
X118455000Y-79249000D01*
X113545000Y-79249000D02*
X114960000Y-79249000D01*
X117040000Y-79289000D02*
X118468000Y-79289000D01*
X113532000Y-79289000D02*
X114960000Y-79289000D01*
X117040000Y-79329000D02*
X118480000Y-79329000D01*
X113520000Y-79329000D02*
X114960000Y-79329000D01*
X117040000Y-79370000D02*
X118491000Y-79370000D01*
X113509000Y-79370000D02*
X114960000Y-79370000D01*
X117040000Y-79410000D02*
X118501000Y-79410000D01*
X113499000Y-79410000D02*
X114960000Y-79410000D01*
X117040000Y-79450000D02*
X118511000Y-79450000D01*
X113489000Y-79450000D02*
X114960000Y-79450000D01*
X117040000Y-79490000D02*
X118520000Y-79490000D01*
X113480000Y-79490000D02*
X114960000Y-79490000D01*
X117040000Y-79530000D02*
X118528000Y-79530000D01*
X113472000Y-79530000D02*
X114960000Y-79530000D01*
X117040000Y-79570000D02*
X118536000Y-79570000D01*
X113464000Y-79570000D02*
X114960000Y-79570000D01*
X117040000Y-79610000D02*
X118543000Y-79610000D01*
X113457000Y-79610000D02*
X114960000Y-79610000D01*
X117040000Y-79650000D02*
X118550000Y-79650000D01*
X113450000Y-79650000D02*
X114960000Y-79650000D01*
X117040000Y-79690000D02*
X118556000Y-79690000D01*
X113444000Y-79690000D02*
X114960000Y-79690000D01*
X117040000Y-79730000D02*
X118561000Y-79730000D01*
X113439000Y-79730000D02*
X114960000Y-79730000D01*
X117040000Y-79770000D02*
X118565000Y-79770000D01*
X113435000Y-79770000D02*
X114960000Y-79770000D01*
X117040000Y-79810000D02*
X118569000Y-79810000D01*
X113431000Y-79810000D02*
X114960000Y-79810000D01*
X113427000Y-79850000D02*
X118573000Y-79850000D01*
X113424000Y-79890000D02*
X118576000Y-79890000D01*
X113422000Y-79930000D02*
X118578000Y-79930000D01*
X113421000Y-79970000D02*
X118579000Y-79970000D01*
X113420000Y-80010000D02*
X118580000Y-80010000D01*
X113420000Y-80050000D02*
X118580000Y-80050000D01*
X118620000Y-80050000D02*
G75*
G03*
X118620000Y-80050000I-2620000J0D01*
G01*
%TO.C,C1*%
X97725000Y-69695225D02*
X97225000Y-69695225D01*
X97475000Y-69445225D02*
X97475000Y-69945225D01*
X96284000Y-74851000D02*
X95716000Y-74851000D01*
X96518000Y-74811000D02*
X95482000Y-74811000D01*
X96677000Y-74771000D02*
X95323000Y-74771000D01*
X96805000Y-74731000D02*
X95195000Y-74731000D01*
X96915000Y-74691000D02*
X95085000Y-74691000D01*
X97011000Y-74651000D02*
X94989000Y-74651000D01*
X97098000Y-74611000D02*
X94902000Y-74611000D01*
X97178000Y-74571000D02*
X94822000Y-74571000D01*
X94960000Y-74531000D02*
X94749000Y-74531000D01*
X97251000Y-74531000D02*
X97040000Y-74531000D01*
X94960000Y-74491000D02*
X94681000Y-74491000D01*
X97319000Y-74491000D02*
X97040000Y-74491000D01*
X94960000Y-74451000D02*
X94617000Y-74451000D01*
X97383000Y-74451000D02*
X97040000Y-74451000D01*
X94960000Y-74411000D02*
X94557000Y-74411000D01*
X97443000Y-74411000D02*
X97040000Y-74411000D01*
X94960000Y-74371000D02*
X94500000Y-74371000D01*
X97500000Y-74371000D02*
X97040000Y-74371000D01*
X94960000Y-74331000D02*
X94446000Y-74331000D01*
X97554000Y-74331000D02*
X97040000Y-74331000D01*
X94960000Y-74291000D02*
X94395000Y-74291000D01*
X97605000Y-74291000D02*
X97040000Y-74291000D01*
X94960000Y-74251000D02*
X94347000Y-74251000D01*
X97653000Y-74251000D02*
X97040000Y-74251000D01*
X94960000Y-74211000D02*
X94301000Y-74211000D01*
X97699000Y-74211000D02*
X97040000Y-74211000D01*
X94960000Y-74171000D02*
X94257000Y-74171000D01*
X97743000Y-74171000D02*
X97040000Y-74171000D01*
X94960000Y-74131000D02*
X94215000Y-74131000D01*
X97785000Y-74131000D02*
X97040000Y-74131000D01*
X94960000Y-74091000D02*
X94174000Y-74091000D01*
X97826000Y-74091000D02*
X97040000Y-74091000D01*
X94960000Y-74051000D02*
X94136000Y-74051000D01*
X97864000Y-74051000D02*
X97040000Y-74051000D01*
X94960000Y-74011000D02*
X94099000Y-74011000D01*
X97901000Y-74011000D02*
X97040000Y-74011000D01*
X94960000Y-73971000D02*
X94063000Y-73971000D01*
X97937000Y-73971000D02*
X97040000Y-73971000D01*
X94960000Y-73931000D02*
X94029000Y-73931000D01*
X97971000Y-73931000D02*
X97040000Y-73931000D01*
X94960000Y-73891000D02*
X93996000Y-73891000D01*
X98004000Y-73891000D02*
X97040000Y-73891000D01*
X94960000Y-73851000D02*
X93965000Y-73851000D01*
X98035000Y-73851000D02*
X97040000Y-73851000D01*
X94960000Y-73811000D02*
X93935000Y-73811000D01*
X98065000Y-73811000D02*
X97040000Y-73811000D01*
X94960000Y-73771000D02*
X93905000Y-73771000D01*
X98095000Y-73771000D02*
X97040000Y-73771000D01*
X94960000Y-73731000D02*
X93878000Y-73731000D01*
X98122000Y-73731000D02*
X97040000Y-73731000D01*
X94960000Y-73691000D02*
X93851000Y-73691000D01*
X98149000Y-73691000D02*
X97040000Y-73691000D01*
X94960000Y-73651000D02*
X93825000Y-73651000D01*
X98175000Y-73651000D02*
X97040000Y-73651000D01*
X94960000Y-73611000D02*
X93800000Y-73611000D01*
X98200000Y-73611000D02*
X97040000Y-73611000D01*
X94960000Y-73571000D02*
X93776000Y-73571000D01*
X98224000Y-73571000D02*
X97040000Y-73571000D01*
X94960000Y-73531000D02*
X93753000Y-73531000D01*
X98247000Y-73531000D02*
X97040000Y-73531000D01*
X94960000Y-73491000D02*
X93732000Y-73491000D01*
X98268000Y-73491000D02*
X97040000Y-73491000D01*
X94960000Y-73451000D02*
X93710000Y-73451000D01*
X98290000Y-73451000D02*
X97040000Y-73451000D01*
X94960000Y-73411000D02*
X93690000Y-73411000D01*
X98310000Y-73411000D02*
X97040000Y-73411000D01*
X94960000Y-73371000D02*
X93671000Y-73371000D01*
X98329000Y-73371000D02*
X97040000Y-73371000D01*
X94960000Y-73331000D02*
X93652000Y-73331000D01*
X98348000Y-73331000D02*
X97040000Y-73331000D01*
X94960000Y-73291000D02*
X93635000Y-73291000D01*
X98365000Y-73291000D02*
X97040000Y-73291000D01*
X94960000Y-73251000D02*
X93618000Y-73251000D01*
X98382000Y-73251000D02*
X97040000Y-73251000D01*
X94960000Y-73211000D02*
X93602000Y-73211000D01*
X98398000Y-73211000D02*
X97040000Y-73211000D01*
X94960000Y-73171000D02*
X93586000Y-73171000D01*
X98414000Y-73171000D02*
X97040000Y-73171000D01*
X94960000Y-73131000D02*
X93572000Y-73131000D01*
X98428000Y-73131000D02*
X97040000Y-73131000D01*
X94960000Y-73091000D02*
X93558000Y-73091000D01*
X98442000Y-73091000D02*
X97040000Y-73091000D01*
X94960000Y-73051000D02*
X93545000Y-73051000D01*
X98455000Y-73051000D02*
X97040000Y-73051000D01*
X94960000Y-73011000D02*
X93532000Y-73011000D01*
X98468000Y-73011000D02*
X97040000Y-73011000D01*
X94960000Y-72971000D02*
X93520000Y-72971000D01*
X98480000Y-72971000D02*
X97040000Y-72971000D01*
X94960000Y-72930000D02*
X93509000Y-72930000D01*
X98491000Y-72930000D02*
X97040000Y-72930000D01*
X94960000Y-72890000D02*
X93499000Y-72890000D01*
X98501000Y-72890000D02*
X97040000Y-72890000D01*
X94960000Y-72850000D02*
X93489000Y-72850000D01*
X98511000Y-72850000D02*
X97040000Y-72850000D01*
X94960000Y-72810000D02*
X93480000Y-72810000D01*
X98520000Y-72810000D02*
X97040000Y-72810000D01*
X94960000Y-72770000D02*
X93472000Y-72770000D01*
X98528000Y-72770000D02*
X97040000Y-72770000D01*
X94960000Y-72730000D02*
X93464000Y-72730000D01*
X98536000Y-72730000D02*
X97040000Y-72730000D01*
X94960000Y-72690000D02*
X93457000Y-72690000D01*
X98543000Y-72690000D02*
X97040000Y-72690000D01*
X94960000Y-72650000D02*
X93450000Y-72650000D01*
X98550000Y-72650000D02*
X97040000Y-72650000D01*
X94960000Y-72610000D02*
X93444000Y-72610000D01*
X98556000Y-72610000D02*
X97040000Y-72610000D01*
X94960000Y-72570000D02*
X93439000Y-72570000D01*
X98561000Y-72570000D02*
X97040000Y-72570000D01*
X94960000Y-72530000D02*
X93435000Y-72530000D01*
X98565000Y-72530000D02*
X97040000Y-72530000D01*
X94960000Y-72490000D02*
X93431000Y-72490000D01*
X98569000Y-72490000D02*
X97040000Y-72490000D01*
X98573000Y-72450000D02*
X93427000Y-72450000D01*
X98576000Y-72410000D02*
X93424000Y-72410000D01*
X98578000Y-72370000D02*
X93422000Y-72370000D01*
X98579000Y-72330000D02*
X93421000Y-72330000D01*
X98580000Y-72290000D02*
X93420000Y-72290000D01*
X98580000Y-72250000D02*
X93420000Y-72250000D01*
X98620000Y-72250000D02*
G75*
G03*
X98620000Y-72250000I-2620000J0D01*
G01*
%TO.C,D7*%
D10*
X78660206Y-85294370D02*
X79367312Y-84587263D01*
X79535671Y-84755622D01*
X79603015Y-84890309D01*
X79603015Y-85024996D01*
X79569343Y-85126011D01*
X79468328Y-85294370D01*
X79367312Y-85395385D01*
X79198954Y-85496401D01*
X79097938Y-85530072D01*
X78963251Y-85530072D01*
X78828564Y-85462729D01*
X78660206Y-85294370D01*
X80007076Y-85227026D02*
X80478480Y-85698431D01*
X79468328Y-86102492D01*
%TO.C,D6*%
X76554555Y-79683363D02*
X75603499Y-79374346D01*
X75677074Y-79147904D01*
X75766508Y-79026754D01*
X75886515Y-78965607D01*
X75991807Y-78949749D01*
X76187676Y-78963321D01*
X76323541Y-79007466D01*
X76489979Y-79111615D01*
X76565841Y-79186334D01*
X76626988Y-79306341D01*
X76628131Y-79456921D01*
X76554555Y-79683363D01*
X76044952Y-78015694D02*
X75986091Y-78196848D01*
X76001950Y-78302140D01*
X76032523Y-78362143D01*
X76138958Y-78496865D01*
X76305396Y-78601014D01*
X76667704Y-78718735D01*
X76772996Y-78702876D01*
X76832999Y-78672303D01*
X76907718Y-78596441D01*
X76966578Y-78415288D01*
X76950720Y-78309996D01*
X76920147Y-78249992D01*
X76844285Y-78175274D01*
X76617843Y-78101698D01*
X76512551Y-78117557D01*
X76452547Y-78148130D01*
X76377829Y-78223992D01*
X76318968Y-78405145D01*
X76334827Y-78510437D01*
X76365400Y-78570441D01*
X76441262Y-78645159D01*
%TO.C,D5*%
X82034447Y-75734701D02*
X81895274Y-74744433D01*
X82131052Y-74711296D01*
X82279146Y-74738570D01*
X82386712Y-74819627D01*
X82447122Y-74907311D01*
X82520787Y-75089306D01*
X82540668Y-75230773D01*
X82520022Y-75426023D01*
X82486121Y-75526961D01*
X82405064Y-75634527D01*
X82270225Y-75701564D01*
X82034447Y-75734701D01*
X83357098Y-74538987D02*
X82885542Y-74605260D01*
X82904659Y-75083443D01*
X82945187Y-75029660D01*
X83032871Y-74969250D01*
X83268649Y-74936114D01*
X83369588Y-74970015D01*
X83423371Y-75010543D01*
X83483781Y-75098227D01*
X83516917Y-75334005D01*
X83483016Y-75434944D01*
X83442488Y-75488727D01*
X83354804Y-75549137D01*
X83119026Y-75582273D01*
X83018087Y-75548372D01*
X82964304Y-75507844D01*
%TO.C,D4*%
X90295970Y-76390225D02*
X89708185Y-75581208D01*
X89900808Y-75441259D01*
X90044371Y-75395814D01*
X90177400Y-75416884D01*
X90271904Y-75465943D01*
X90422388Y-75592052D01*
X90506357Y-75707626D01*
X90579792Y-75889714D01*
X90597247Y-75994753D01*
X90576177Y-76127782D01*
X90488593Y-76250276D01*
X90295970Y-76390225D01*
X91059851Y-75011187D02*
X91451708Y-75550532D01*
X90643310Y-74842939D02*
X90870534Y-75560757D01*
X91371354Y-75196890D01*
%TO.C,D3*%
X92589837Y-68832105D02*
X91691043Y-68393734D01*
X91795417Y-68179735D01*
X91900841Y-68072211D01*
X92028190Y-68028361D01*
X92134665Y-68027311D01*
X92326738Y-68068010D01*
X92455138Y-68130635D01*
X92605462Y-68256934D01*
X92670186Y-68341483D01*
X92714036Y-68468832D01*
X92694211Y-68618106D01*
X92589837Y-68832105D01*
X92087665Y-67580539D02*
X92359037Y-67024143D01*
X92555311Y-67490739D01*
X92617936Y-67362340D01*
X92702485Y-67297616D01*
X92766160Y-67275691D01*
X92872634Y-67274641D01*
X93086632Y-67379015D01*
X93151357Y-67463564D01*
X93173282Y-67527239D01*
X93174332Y-67633713D01*
X93049083Y-67890511D01*
X92964534Y-67955236D01*
X92900859Y-67977161D01*
%TO.C,D2*%
X95832704Y-65679580D02*
X95832704Y-64679580D01*
X96070800Y-64679580D01*
X96213657Y-64727200D01*
X96308895Y-64822438D01*
X96356514Y-64917676D01*
X96404133Y-65108152D01*
X96404133Y-65251009D01*
X96356514Y-65441485D01*
X96308895Y-65536723D01*
X96213657Y-65631961D01*
X96070800Y-65679580D01*
X95832704Y-65679580D01*
X96785085Y-64774819D02*
X96832704Y-64727200D01*
X96927942Y-64679580D01*
X97166038Y-64679580D01*
X97261276Y-64727200D01*
X97308895Y-64774819D01*
X97356514Y-64870057D01*
X97356514Y-64965295D01*
X97308895Y-65108152D01*
X96737466Y-65679580D01*
X97356514Y-65679580D01*
%TO.C,D1*%
X102698643Y-67454515D02*
X103597437Y-67016144D01*
X103701811Y-67230142D01*
X103721635Y-67379416D01*
X103677786Y-67506765D01*
X103613061Y-67591314D01*
X103462737Y-67717613D01*
X103334338Y-67780238D01*
X103142264Y-67820937D01*
X103035790Y-67819887D01*
X102908441Y-67776038D01*
X102803017Y-67668513D01*
X102698643Y-67454515D01*
X103366637Y-68824106D02*
X103116139Y-68310509D01*
X103241388Y-68567307D02*
X104140182Y-68128936D01*
X103970033Y-68105961D01*
X103842684Y-68062111D01*
X103758135Y-67997387D01*
%TO.C,D20*%
X103653719Y-75141044D02*
X104241504Y-74332027D01*
X104434127Y-74471976D01*
X104521711Y-74594470D01*
X104542781Y-74727499D01*
X104525326Y-74832538D01*
X104451892Y-75014626D01*
X104367922Y-75130200D01*
X104217439Y-75256309D01*
X104122934Y-75305368D01*
X103989906Y-75326438D01*
X103846342Y-75280993D01*
X103653719Y-75141044D01*
X104956017Y-74968872D02*
X105022531Y-74958337D01*
X105127570Y-74975792D01*
X105320193Y-75115741D01*
X105369253Y-75210245D01*
X105379788Y-75276759D01*
X105362333Y-75381798D01*
X105306353Y-75458848D01*
X105183859Y-75546432D01*
X104385687Y-75672850D01*
X104886507Y-76036717D01*
X105975112Y-75591567D02*
X106052161Y-75647547D01*
X106101221Y-75742051D01*
X106111756Y-75808565D01*
X106094301Y-75913604D01*
X106020866Y-76095692D01*
X105880917Y-76288315D01*
X105730434Y-76414424D01*
X105635929Y-76463484D01*
X105569415Y-76474018D01*
X105464376Y-76456564D01*
X105387327Y-76400584D01*
X105338267Y-76306080D01*
X105327732Y-76239565D01*
X105345187Y-76134526D01*
X105418622Y-75952438D01*
X105558571Y-75759815D01*
X105709054Y-75633706D01*
X105803559Y-75584647D01*
X105870073Y-75574112D01*
X105975112Y-75591567D01*
%TO.C,D19*%
X111256572Y-75513782D02*
X111395745Y-74523514D01*
X111631523Y-74556650D01*
X111766363Y-74623688D01*
X111847419Y-74731254D01*
X111881320Y-74832192D01*
X111901967Y-75027442D01*
X111882085Y-75168909D01*
X111808420Y-75350904D01*
X111748010Y-75438588D01*
X111640444Y-75519645D01*
X111492350Y-75546918D01*
X111256572Y-75513782D01*
X112765552Y-75725855D02*
X112199684Y-75646328D01*
X112482618Y-75686092D02*
X112621791Y-74695823D01*
X112507598Y-74824036D01*
X112400032Y-74905092D01*
X112299094Y-74938993D01*
X113237108Y-75792128D02*
X113425730Y-75818637D01*
X113526669Y-75784736D01*
X113580452Y-75744208D01*
X113694645Y-75615996D01*
X113768310Y-75434001D01*
X113821328Y-75056756D01*
X113787427Y-74955817D01*
X113746899Y-74902034D01*
X113659215Y-74841624D01*
X113470592Y-74815115D01*
X113369654Y-74849016D01*
X113315871Y-74889544D01*
X113255461Y-74977228D01*
X113222324Y-75213006D01*
X113256225Y-75313945D01*
X113296754Y-75367728D01*
X113384438Y-75428138D01*
X113573060Y-75454647D01*
X113673999Y-75420746D01*
X113727782Y-75380218D01*
X113788192Y-75292534D01*
%TO.C,D18*%
X118523725Y-77826539D02*
X119474781Y-77517522D01*
X119548357Y-77743964D01*
X119547214Y-77894544D01*
X119486067Y-78014551D01*
X119410205Y-78089270D01*
X119243767Y-78193418D01*
X119107902Y-78237564D01*
X118912033Y-78251136D01*
X118806741Y-78235277D01*
X118686734Y-78174131D01*
X118597300Y-78052981D01*
X118523725Y-77826539D01*
X118994608Y-79275768D02*
X118818027Y-78732307D01*
X118906317Y-79004037D02*
X119857374Y-78695020D01*
X119692078Y-78648589D01*
X119572071Y-78587442D01*
X119497353Y-78511580D01*
X119714650Y-79642647D02*
X119730508Y-79537355D01*
X119761081Y-79477352D01*
X119836943Y-79402633D01*
X119882231Y-79387918D01*
X119987523Y-79403776D01*
X120047527Y-79434350D01*
X120122245Y-79510211D01*
X120181106Y-79691365D01*
X120165248Y-79796657D01*
X120134674Y-79856660D01*
X120058813Y-79931379D01*
X120013524Y-79946094D01*
X119908232Y-79930236D01*
X119848229Y-79899663D01*
X119773510Y-79823801D01*
X119714650Y-79642647D01*
X119639931Y-79566786D01*
X119579928Y-79536212D01*
X119474636Y-79520354D01*
X119293482Y-79579214D01*
X119217620Y-79653933D01*
X119187047Y-79713936D01*
X119171189Y-79819228D01*
X119230049Y-80000382D01*
X119304768Y-80076244D01*
X119364771Y-80106817D01*
X119470063Y-80122675D01*
X119651217Y-80063815D01*
X119727079Y-79989096D01*
X119757652Y-79929093D01*
X119773510Y-79823801D01*
%TO.C,D17*%
X115467966Y-87020929D02*
X114773307Y-86301589D01*
X114944579Y-86136194D01*
X115080420Y-86071212D01*
X115215087Y-86073562D01*
X115315499Y-86108992D01*
X115482069Y-86212930D01*
X115581306Y-86315693D01*
X115679368Y-86485789D01*
X115711272Y-86587376D01*
X115708921Y-86722043D01*
X115639237Y-86855534D01*
X115467966Y-87020929D01*
X116564103Y-85962402D02*
X116153051Y-86359349D01*
X116358577Y-86160876D02*
X115663918Y-85441536D01*
X115694647Y-85610457D01*
X115692296Y-85745123D01*
X115656867Y-85845535D01*
X116109224Y-85011509D02*
X116588784Y-84548404D01*
X116975154Y-85565454D01*
%TO.C,D16*%
X110037003Y-90855047D02*
X109085947Y-90546030D01*
X109159522Y-90319588D01*
X109248956Y-90198438D01*
X109368963Y-90137291D01*
X109474255Y-90121433D01*
X109670124Y-90135005D01*
X109805989Y-90179151D01*
X109972427Y-90283299D01*
X110048289Y-90358018D01*
X110109436Y-90478025D01*
X110110579Y-90628605D01*
X110037003Y-90855047D01*
X110507886Y-89405818D02*
X110331305Y-89949279D01*
X110419596Y-89677549D02*
X109468539Y-89368532D01*
X109574974Y-89503254D01*
X109636121Y-89623261D01*
X109651979Y-89728553D01*
X109821702Y-88281610D02*
X109762841Y-88462764D01*
X109778699Y-88568056D01*
X109809273Y-88628059D01*
X109915708Y-88762781D01*
X110082146Y-88866930D01*
X110444454Y-88984651D01*
X110549746Y-88968792D01*
X110609749Y-88938219D01*
X110684468Y-88862357D01*
X110743328Y-88681204D01*
X110727470Y-88575912D01*
X110696896Y-88515908D01*
X110621035Y-88441190D01*
X110394593Y-88367614D01*
X110289301Y-88383473D01*
X110229297Y-88414046D01*
X110154579Y-88489908D01*
X110095718Y-88671061D01*
X110111577Y-88776353D01*
X110142150Y-88836357D01*
X110218012Y-88911075D01*
%TO.C,D15*%
X110646433Y-99873117D02*
X111631240Y-99699468D01*
X111672585Y-99933947D01*
X111650497Y-100082902D01*
X111573243Y-100193231D01*
X111487721Y-100256665D01*
X111308408Y-100336636D01*
X111167721Y-100361443D01*
X110971869Y-100347624D01*
X110869809Y-100317266D01*
X110759480Y-100240013D01*
X110687778Y-100107595D01*
X110646433Y-99873117D01*
X110911039Y-101373776D02*
X110811812Y-100811029D01*
X110861426Y-101092402D02*
X111846233Y-100918754D01*
X111689009Y-100849770D01*
X111578680Y-100772517D01*
X111515246Y-100686994D01*
X112052957Y-102091144D02*
X111970268Y-101622188D01*
X111493043Y-101657982D01*
X111548207Y-101696609D01*
X111611641Y-101782131D01*
X111652986Y-102016609D01*
X111622628Y-102118669D01*
X111584001Y-102173834D01*
X111498479Y-102237268D01*
X111264001Y-102278612D01*
X111161941Y-102248255D01*
X111106776Y-102209628D01*
X111043343Y-102124106D01*
X111001998Y-101889628D01*
X111032356Y-101787568D01*
X111070982Y-101732403D01*
%TO.C,D14*%
X110535525Y-105473724D02*
X109947739Y-104664707D01*
X110140362Y-104524758D01*
X110283926Y-104479313D01*
X110416955Y-104500383D01*
X110511459Y-104549442D01*
X110661943Y-104675551D01*
X110745912Y-104791125D01*
X110819347Y-104973213D01*
X110836801Y-105078252D01*
X110815732Y-105211281D01*
X110728148Y-105333775D01*
X110535525Y-105473724D01*
X111768312Y-104578051D02*
X111306017Y-104913928D01*
X111537165Y-104745989D02*
X110949379Y-103936972D01*
X110956299Y-104108526D01*
X110935230Y-104241555D01*
X110886170Y-104336059D01*
X112069899Y-103534890D02*
X112461756Y-104074235D01*
X111653357Y-103366642D02*
X111880581Y-104084460D01*
X112381401Y-103720593D01*
%TO.C,D13*%
X109201756Y-104510130D02*
X108318808Y-104040659D01*
X108430587Y-103830433D01*
X108539699Y-103726653D01*
X108668501Y-103687275D01*
X108774947Y-103689941D01*
X108965484Y-103737319D01*
X109091619Y-103804387D01*
X109237444Y-103935855D01*
X109299178Y-104022612D01*
X109338557Y-104151413D01*
X109313535Y-104299905D01*
X109201756Y-104510130D01*
X109917141Y-103164686D02*
X109648871Y-103669228D01*
X109783006Y-103416957D02*
X108900058Y-102947485D01*
X108981482Y-103098643D01*
X109020861Y-103227445D01*
X109018194Y-103333891D01*
X109190684Y-102400899D02*
X109481309Y-101854312D01*
X109661179Y-102327474D01*
X109728247Y-102201339D01*
X109815004Y-102139605D01*
X109879404Y-102119915D01*
X109985850Y-102122582D01*
X110196076Y-102234361D01*
X110257811Y-102321117D01*
X110277500Y-102385518D01*
X110274833Y-102491964D01*
X110140699Y-102744235D01*
X110053942Y-102805969D01*
X109989541Y-102825659D01*
%TO.C,D8*%
X85244476Y-89404623D02*
X86195532Y-89095606D01*
X86269108Y-89322048D01*
X86267965Y-89472628D01*
X86206818Y-89592635D01*
X86130956Y-89667354D01*
X85964518Y-89771502D01*
X85828652Y-89815648D01*
X85632784Y-89829220D01*
X85527492Y-89813361D01*
X85407485Y-89752215D01*
X85318051Y-89631065D01*
X85244476Y-89404623D01*
X86141099Y-90314963D02*
X86156957Y-90209671D01*
X86187530Y-90149668D01*
X86263392Y-90074949D01*
X86308680Y-90060234D01*
X86413972Y-90076092D01*
X86473976Y-90106666D01*
X86548694Y-90182527D01*
X86607555Y-90363681D01*
X86591697Y-90468973D01*
X86561123Y-90528976D01*
X86485262Y-90603695D01*
X86439973Y-90618410D01*
X86334681Y-90602552D01*
X86274678Y-90571979D01*
X86199959Y-90496117D01*
X86141099Y-90314963D01*
X86066380Y-90239101D01*
X86006377Y-90208528D01*
X85901085Y-90192670D01*
X85719931Y-90251530D01*
X85644069Y-90326249D01*
X85613496Y-90386252D01*
X85597638Y-90491544D01*
X85656498Y-90672698D01*
X85731217Y-90748560D01*
X85791220Y-90779133D01*
X85896512Y-90794991D01*
X86077666Y-90736131D01*
X86153528Y-90661412D01*
X86184101Y-90601409D01*
X86199959Y-90496117D01*
%TO.C,D9*%
X84797739Y-101694237D02*
X83812931Y-101520588D01*
X83854276Y-101286110D01*
X83925978Y-101153692D01*
X84036308Y-101076439D01*
X84138368Y-101046081D01*
X84334219Y-101032262D01*
X84474906Y-101057069D01*
X84654219Y-101137040D01*
X84739742Y-101200474D01*
X84816995Y-101310803D01*
X84839084Y-101459759D01*
X84797739Y-101694237D01*
X84979656Y-100662533D02*
X85012732Y-100474951D01*
X84982374Y-100372891D01*
X84943748Y-100317726D01*
X84819599Y-100199128D01*
X84640285Y-100119156D01*
X84265120Y-100053005D01*
X84163060Y-100083362D01*
X84107896Y-100121989D01*
X84044462Y-100207511D01*
X84011386Y-100395094D01*
X84041744Y-100497154D01*
X84080371Y-100552319D01*
X84165893Y-100615752D01*
X84400371Y-100657097D01*
X84502431Y-100626739D01*
X84557596Y-100588113D01*
X84621029Y-100502590D01*
X84654105Y-100315008D01*
X84623747Y-100212948D01*
X84585121Y-100157783D01*
X84499598Y-100094350D01*
%TO.C,D10*%
X83333719Y-103893843D02*
X83921504Y-103084826D01*
X84114127Y-103224775D01*
X84201711Y-103347269D01*
X84222781Y-103480298D01*
X84205326Y-103585337D01*
X84131892Y-103767425D01*
X84047922Y-103882999D01*
X83897439Y-104009108D01*
X83802934Y-104058167D01*
X83669906Y-104079237D01*
X83526342Y-104033792D01*
X83333719Y-103893843D01*
X84566507Y-104789516D02*
X84104211Y-104453639D01*
X84335359Y-104621577D02*
X84923144Y-103812560D01*
X84762126Y-103872155D01*
X84629097Y-103893224D01*
X84524058Y-103875769D01*
X85655112Y-104344366D02*
X85732161Y-104400346D01*
X85781221Y-104494850D01*
X85791756Y-104561364D01*
X85774301Y-104666403D01*
X85700866Y-104848491D01*
X85560917Y-105041114D01*
X85410434Y-105167223D01*
X85315929Y-105216283D01*
X85249415Y-105226817D01*
X85144376Y-105209363D01*
X85067327Y-105153383D01*
X85018267Y-105058879D01*
X85007732Y-104992364D01*
X85025187Y-104887325D01*
X85098622Y-104705237D01*
X85238571Y-104512614D01*
X85389054Y-104386505D01*
X85483559Y-104337446D01*
X85550073Y-104326911D01*
X85655112Y-104344366D01*
%TO.C,D11*%
X91393029Y-104296701D02*
X90923557Y-103413753D01*
X91133783Y-103301974D01*
X91282274Y-103276952D01*
X91411076Y-103316331D01*
X91497833Y-103378065D01*
X91629301Y-103523890D01*
X91696368Y-103650025D01*
X91743746Y-103840561D01*
X91746413Y-103947008D01*
X91707034Y-104075809D01*
X91603254Y-104184922D01*
X91393029Y-104296701D01*
X92738473Y-103581316D02*
X92233931Y-103849585D01*
X92486202Y-103715450D02*
X92016730Y-102832503D01*
X91999708Y-103003350D01*
X91960329Y-103132151D01*
X91898594Y-103218908D01*
X93579375Y-103134200D02*
X93074834Y-103402469D01*
X93327105Y-103268335D02*
X92857633Y-102385387D01*
X92840610Y-102556234D01*
X92801231Y-102685036D01*
X92739497Y-102771792D01*
%TO.C,U1*%
X99252380Y-92361904D02*
X100061904Y-92361904D01*
X100157142Y-92314285D01*
X100204761Y-92266666D01*
X100252380Y-92171428D01*
X100252380Y-91980952D01*
X100204761Y-91885714D01*
X100157142Y-91838095D01*
X100061904Y-91790476D01*
X99252380Y-91790476D01*
X100252380Y-90790476D02*
X100252380Y-91361904D01*
X100252380Y-91076190D02*
X99252380Y-91076190D01*
X99395238Y-91171428D01*
X99490476Y-91266666D01*
X99538095Y-91361904D01*
%TO.C,R3*%
X110688380Y-82356666D02*
X110212190Y-82690000D01*
X110688380Y-82928095D02*
X109688380Y-82928095D01*
X109688380Y-82547142D01*
X109736000Y-82451904D01*
X109783619Y-82404285D01*
X109878857Y-82356666D01*
X110021714Y-82356666D01*
X110116952Y-82404285D01*
X110164571Y-82451904D01*
X110212190Y-82547142D01*
X110212190Y-82928095D01*
X109688380Y-82023333D02*
X109688380Y-81404285D01*
X110069333Y-81737619D01*
X110069333Y-81594761D01*
X110116952Y-81499523D01*
X110164571Y-81451904D01*
X110259809Y-81404285D01*
X110497904Y-81404285D01*
X110593142Y-81451904D01*
X110640761Y-81499523D01*
X110688380Y-81594761D01*
X110688380Y-81880476D01*
X110640761Y-81975714D01*
X110593142Y-82023333D01*
%TO.C,R2*%
X86304380Y-82157866D02*
X85828190Y-82491200D01*
X86304380Y-82729295D02*
X85304380Y-82729295D01*
X85304380Y-82348342D01*
X85352000Y-82253104D01*
X85399619Y-82205485D01*
X85494857Y-82157866D01*
X85637714Y-82157866D01*
X85732952Y-82205485D01*
X85780571Y-82253104D01*
X85828190Y-82348342D01*
X85828190Y-82729295D01*
X85399619Y-81776914D02*
X85352000Y-81729295D01*
X85304380Y-81634057D01*
X85304380Y-81395961D01*
X85352000Y-81300723D01*
X85399619Y-81253104D01*
X85494857Y-81205485D01*
X85590095Y-81205485D01*
X85732952Y-81253104D01*
X86304380Y-81824533D01*
X86304380Y-81205485D01*
%TO.C,R1*%
X80309980Y-82157866D02*
X79833790Y-82491200D01*
X80309980Y-82729295D02*
X79309980Y-82729295D01*
X79309980Y-82348342D01*
X79357600Y-82253104D01*
X79405219Y-82205485D01*
X79500457Y-82157866D01*
X79643314Y-82157866D01*
X79738552Y-82205485D01*
X79786171Y-82253104D01*
X79833790Y-82348342D01*
X79833790Y-82729295D01*
X80309980Y-81205485D02*
X80309980Y-81776914D01*
X80309980Y-81491200D02*
X79309980Y-81491200D01*
X79452838Y-81586438D01*
X79548076Y-81681676D01*
X79595695Y-81776914D01*
%TO.C,C3*%
X101484133Y-76150742D02*
X101436514Y-76198361D01*
X101293657Y-76245980D01*
X101198419Y-76245980D01*
X101055561Y-76198361D01*
X100960323Y-76103123D01*
X100912704Y-76007885D01*
X100865085Y-75817409D01*
X100865085Y-75674552D01*
X100912704Y-75484076D01*
X100960323Y-75388838D01*
X101055561Y-75293600D01*
X101198419Y-75245980D01*
X101293657Y-75245980D01*
X101436514Y-75293600D01*
X101484133Y-75341219D01*
X101817466Y-75245980D02*
X102436514Y-75245980D01*
X102103180Y-75626933D01*
X102246038Y-75626933D01*
X102341276Y-75674552D01*
X102388895Y-75722171D01*
X102436514Y-75817409D01*
X102436514Y-76055504D01*
X102388895Y-76150742D01*
X102341276Y-76198361D01*
X102246038Y-76245980D01*
X101960323Y-76245980D01*
X101865085Y-76198361D01*
X101817466Y-76150742D01*
%TO.C,C2*%
X115352533Y-83973942D02*
X115304914Y-84021561D01*
X115162057Y-84069180D01*
X115066819Y-84069180D01*
X114923961Y-84021561D01*
X114828723Y-83926323D01*
X114781104Y-83831085D01*
X114733485Y-83640609D01*
X114733485Y-83497752D01*
X114781104Y-83307276D01*
X114828723Y-83212038D01*
X114923961Y-83116800D01*
X115066819Y-83069180D01*
X115162057Y-83069180D01*
X115304914Y-83116800D01*
X115352533Y-83164419D01*
X115733485Y-83164419D02*
X115781104Y-83116800D01*
X115876342Y-83069180D01*
X116114438Y-83069180D01*
X116209676Y-83116800D01*
X116257295Y-83164419D01*
X116304914Y-83259657D01*
X116304914Y-83354895D01*
X116257295Y-83497752D01*
X115685866Y-84069180D01*
X116304914Y-84069180D01*
%TO.C,C1*%
X94168933Y-76099942D02*
X94121314Y-76147561D01*
X93978457Y-76195180D01*
X93883219Y-76195180D01*
X93740361Y-76147561D01*
X93645123Y-76052323D01*
X93597504Y-75957085D01*
X93549885Y-75766609D01*
X93549885Y-75623752D01*
X93597504Y-75433276D01*
X93645123Y-75338038D01*
X93740361Y-75242800D01*
X93883219Y-75195180D01*
X93978457Y-75195180D01*
X94121314Y-75242800D01*
X94168933Y-75290419D01*
X95121314Y-76195180D02*
X94549885Y-76195180D01*
X94835600Y-76195180D02*
X94835600Y-75195180D01*
X94740361Y-75338038D01*
X94645123Y-75433276D01*
X94549885Y-75480895D01*
%TD*%
%LPC*%
%TO.C,D7*%
G36*
G01*
X76292319Y-81576131D02*
X75776131Y-82092319D01*
G75*
G02*
X75019527Y-82092319I-378302J378302D01*
G01*
X75019527Y-82092319D01*
G75*
G02*
X75019527Y-81335715I378302J378302D01*
G01*
X75535715Y-80819527D01*
G75*
G02*
X76292319Y-80819527I378302J-378302D01*
G01*
X76292319Y-80819527D01*
G75*
G02*
X76292319Y-81576131I-378302J-378302D01*
G01*
G37*
G36*
G01*
X77190345Y-82474157D02*
X76674157Y-82990345D01*
G75*
G02*
X75917553Y-82990345I-378302J378302D01*
G01*
X75917553Y-82990345D01*
G75*
G02*
X75917553Y-82233741I378302J378302D01*
G01*
X76433741Y-81717553D01*
G75*
G02*
X77190345Y-81717553I378302J-378302D01*
G01*
X77190345Y-81717553D01*
G75*
G02*
X77190345Y-82474157I-378302J-378302D01*
G01*
G37*
G36*
G01*
X78088370Y-83372182D02*
X77572182Y-83888370D01*
G75*
G02*
X76815578Y-83888370I-378302J378302D01*
G01*
X76815578Y-83888370D01*
G75*
G02*
X76815578Y-83131766I378302J378302D01*
G01*
X77331766Y-82615578D01*
G75*
G02*
X78088370Y-82615578I378302J-378302D01*
G01*
X78088370Y-82615578D01*
G75*
G02*
X78088370Y-83372182I-378302J-378302D01*
G01*
G37*
D13*
G36*
X79364698Y-83891906D02*
G01*
X78091906Y-85164698D01*
X77335302Y-84408094D01*
X78608094Y-83135302D01*
X79364698Y-83891906D01*
G37*
%TD*%
%TO.C,D6*%
G36*
G01*
X75431812Y-77021606D02*
X74737540Y-76796024D01*
G75*
G02*
X74394049Y-76121885I165324J508815D01*
G01*
X74394049Y-76121885D01*
G75*
G02*
X75068188Y-75778394I508815J-165324D01*
G01*
X75762460Y-76003976D01*
G75*
G02*
X76105951Y-76678115I-165324J-508815D01*
G01*
X76105951Y-76678115D01*
G75*
G02*
X75431812Y-77021606I-508815J165324D01*
G01*
G37*
G36*
G01*
X75039360Y-78229447D02*
X74345088Y-78003865D01*
G75*
G02*
X74001597Y-77329726I165324J508815D01*
G01*
X74001597Y-77329726D01*
G75*
G02*
X74675736Y-76986235I508815J-165324D01*
G01*
X75370008Y-77211817D01*
G75*
G02*
X75713499Y-77885956I-165324J-508815D01*
G01*
X75713499Y-77885956D01*
G75*
G02*
X75039360Y-78229447I-508815J165324D01*
G01*
G37*
G36*
G01*
X74646909Y-79437289D02*
X73952637Y-79211707D01*
G75*
G02*
X73609146Y-78537568I165324J508815D01*
G01*
X73609146Y-78537568D01*
G75*
G02*
X74283285Y-78194077I508815J-165324D01*
G01*
X74977557Y-78419659D01*
G75*
G02*
X75321048Y-79093798I-165324J-508815D01*
G01*
X75321048Y-79093798D01*
G75*
G02*
X74646909Y-79437289I-508815J165324D01*
G01*
G37*
G36*
X74763272Y-80810456D02*
G01*
X73051370Y-80254225D01*
X73382018Y-79236594D01*
X75093920Y-79792825D01*
X74763272Y-80810456D01*
G37*
%TD*%
%TO.C,D5*%
G36*
X76887822Y-77142449D02*
G01*
X76637311Y-75359966D01*
X77696898Y-75211051D01*
X77947409Y-76993534D01*
X76887822Y-77142449D01*
G37*
G36*
G01*
X78071005Y-76435906D02*
X77969409Y-75713010D01*
G75*
G02*
X78424744Y-75108759I529793J74458D01*
G01*
X78424744Y-75108759D01*
G75*
G02*
X79028995Y-75564094I74458J-529793D01*
G01*
X79130591Y-76286990D01*
G75*
G02*
X78675256Y-76891241I-529793J-74458D01*
G01*
X78675256Y-76891241D01*
G75*
G02*
X78071005Y-76435906I-74458J529793D01*
G01*
G37*
G36*
G01*
X79328646Y-76259156D02*
X79227050Y-75536260D01*
G75*
G02*
X79682385Y-74932009I529793J74458D01*
G01*
X79682385Y-74932009D01*
G75*
G02*
X80286636Y-75387344I74458J-529793D01*
G01*
X80388232Y-76110240D01*
G75*
G02*
X79932897Y-76714491I-529793J-74458D01*
G01*
X79932897Y-76714491D01*
G75*
G02*
X79328646Y-76259156I-74458J529793D01*
G01*
G37*
G36*
G01*
X80586286Y-76082406D02*
X80484690Y-75359510D01*
G75*
G02*
X80940025Y-74755259I529793J74458D01*
G01*
X80940025Y-74755259D01*
G75*
G02*
X81544276Y-75210594I74458J-529793D01*
G01*
X81645872Y-75933490D01*
G75*
G02*
X81190537Y-76537741I-529793J-74458D01*
G01*
X81190537Y-76537741D01*
G75*
G02*
X80586286Y-76082406I-74458J529793D01*
G01*
G37*
%TD*%
%TO.C,D4*%
G36*
X87963828Y-76232042D02*
G01*
X86905814Y-74775812D01*
X87771462Y-74146882D01*
X88829476Y-75603112D01*
X87963828Y-76232042D01*
G37*
G36*
G01*
X88676815Y-75052731D02*
X88247731Y-74462149D01*
G75*
G02*
X88366090Y-73714860I432824J314465D01*
G01*
X88366090Y-73714860D01*
G75*
G02*
X89113379Y-73833219I314465J-432824D01*
G01*
X89542463Y-74423801D01*
G75*
G02*
X89424104Y-75171090I-432824J-314465D01*
G01*
X89424104Y-75171090D01*
G75*
G02*
X88676815Y-75052731I-314465J432824D01*
G01*
G37*
G36*
G01*
X89704266Y-74306243D02*
X89275182Y-73715661D01*
G75*
G02*
X89393541Y-72968372I432824J314465D01*
G01*
X89393541Y-72968372D01*
G75*
G02*
X90140830Y-73086731I314465J-432824D01*
G01*
X90569914Y-73677313D01*
G75*
G02*
X90451555Y-74424602I-432824J-314465D01*
G01*
X90451555Y-74424602D01*
G75*
G02*
X89704266Y-74306243I-314465J432824D01*
G01*
G37*
G36*
G01*
X90731718Y-73559756D02*
X90302634Y-72969174D01*
G75*
G02*
X90420993Y-72221885I432824J314465D01*
G01*
X90420993Y-72221885D01*
G75*
G02*
X91168282Y-72340244I314465J-432824D01*
G01*
X91597366Y-72930826D01*
G75*
G02*
X91479007Y-73678115I-432824J-314465D01*
G01*
X91479007Y-73678115D01*
G75*
G02*
X90731718Y-73559756I-314465J432824D01*
G01*
G37*
%TD*%
%TO.C,D3*%
G36*
G01*
X95300262Y-63799392D02*
X94644142Y-63479382D01*
G75*
G02*
X94397816Y-62763998I234529J480855D01*
G01*
X94397816Y-62763998D01*
G75*
G02*
X95113200Y-62517672I480855J-234529D01*
G01*
X95769320Y-62837682D01*
G75*
G02*
X96015646Y-63553066I-234529J-480855D01*
G01*
X96015646Y-63553066D01*
G75*
G02*
X95300262Y-63799392I-480855J234529D01*
G01*
G37*
G36*
G01*
X94743531Y-64940860D02*
X94087411Y-64620850D01*
G75*
G02*
X93841085Y-63905466I234529J480855D01*
G01*
X93841085Y-63905466D01*
G75*
G02*
X94556469Y-63659140I480855J-234529D01*
G01*
X95212589Y-63979150D01*
G75*
G02*
X95458915Y-64694534I-234529J-480855D01*
G01*
X95458915Y-64694534D01*
G75*
G02*
X94743531Y-64940860I-480855J234529D01*
G01*
G37*
G36*
G01*
X94186799Y-66082329D02*
X93530679Y-65762319D01*
G75*
G02*
X93284353Y-65046935I234529J480855D01*
G01*
X93284353Y-65046935D01*
G75*
G02*
X93999737Y-64800609I480855J-234529D01*
G01*
X94655857Y-65120619D01*
G75*
G02*
X94902183Y-65836003I-234529J-480855D01*
G01*
X94902183Y-65836003D01*
G75*
G02*
X94186799Y-66082329I-480855J234529D01*
G01*
G37*
G36*
X94110923Y-67458326D02*
G01*
X92493094Y-66669258D01*
X92962151Y-65707548D01*
X94579980Y-66496616D01*
X94110923Y-67458326D01*
G37*
%TD*%
D14*
%TO.C,D2*%
X99890000Y-61300000D03*
X98620000Y-61300000D03*
X97350000Y-61300000D03*
D15*
X96080000Y-61300000D03*
%TD*%
%TO.C,D1*%
G36*
G01*
X101807605Y-66203555D02*
X102463725Y-65883545D01*
G75*
G02*
X103179109Y-66129871I234529J-480855D01*
G01*
X103179109Y-66129871D01*
G75*
G02*
X102932783Y-66845255I-480855J-234529D01*
G01*
X102276663Y-67165265D01*
G75*
G02*
X101561279Y-66918939I-234529J480855D01*
G01*
X101561279Y-66918939D01*
G75*
G02*
X101807605Y-66203555I480855J234529D01*
G01*
G37*
G36*
G01*
X101250874Y-65062087D02*
X101906994Y-64742077D01*
G75*
G02*
X102622378Y-64988403I234529J-480855D01*
G01*
X102622378Y-64988403D01*
G75*
G02*
X102376052Y-65703787I-480855J-234529D01*
G01*
X101719932Y-66023797D01*
G75*
G02*
X101004548Y-65777471I-234529J480855D01*
G01*
X101004548Y-65777471D01*
G75*
G02*
X101250874Y-65062087I480855J234529D01*
G01*
G37*
G36*
G01*
X100694142Y-63920618D02*
X101350262Y-63600608D01*
G75*
G02*
X102065646Y-63846934I234529J-480855D01*
G01*
X102065646Y-63846934D01*
G75*
G02*
X101819320Y-64562318I-480855J-234529D01*
G01*
X101163200Y-64882328D01*
G75*
G02*
X100447816Y-64636002I-234529J480855D01*
G01*
X100447816Y-64636002D01*
G75*
G02*
X100694142Y-63920618I480855J234529D01*
G01*
G37*
D13*
G36*
X99656557Y-63013679D02*
G01*
X101274386Y-62224611D01*
X101743443Y-63186321D01*
X100125614Y-63975389D01*
X99656557Y-63013679D01*
G37*
%TD*%
%TO.C,D20*%
G36*
G01*
X107252634Y-75280826D02*
X107681718Y-74690244D01*
G75*
G02*
X108429007Y-74571885I432824J-314465D01*
G01*
X108429007Y-74571885D01*
G75*
G02*
X108547366Y-75319174I-314465J-432824D01*
G01*
X108118282Y-75909756D01*
G75*
G02*
X107370993Y-76028115I-432824J314465D01*
G01*
X107370993Y-76028115D01*
G75*
G02*
X107252634Y-75280826I314465J432824D01*
G01*
G37*
G36*
G01*
X106225182Y-74534339D02*
X106654266Y-73943757D01*
G75*
G02*
X107401555Y-73825398I432824J-314465D01*
G01*
X107401555Y-73825398D01*
G75*
G02*
X107519914Y-74572687I-314465J-432824D01*
G01*
X107090830Y-75163269D01*
G75*
G02*
X106343541Y-75281628I-432824J314465D01*
G01*
X106343541Y-75281628D01*
G75*
G02*
X106225182Y-74534339I314465J432824D01*
G01*
G37*
G36*
G01*
X105197731Y-73787851D02*
X105626815Y-73197269D01*
G75*
G02*
X106374104Y-73078910I432824J-314465D01*
G01*
X106374104Y-73078910D01*
G75*
G02*
X106492463Y-73826199I-314465J-432824D01*
G01*
X106063379Y-74416781D01*
G75*
G02*
X105316090Y-74535140I-432824J314465D01*
G01*
X105316090Y-74535140D01*
G75*
G02*
X105197731Y-73787851I314465J432824D01*
G01*
G37*
G36*
X103855814Y-73474188D02*
G01*
X104913828Y-72017958D01*
X105779476Y-72646888D01*
X104721462Y-74103118D01*
X103855814Y-73474188D01*
G37*
%TD*%
%TO.C,D19*%
G36*
G01*
X118069409Y-76536990D02*
X118171005Y-75814094D01*
G75*
G02*
X118775256Y-75358759I529793J-74458D01*
G01*
X118775256Y-75358759D01*
G75*
G02*
X119230591Y-75963010I-74458J-529793D01*
G01*
X119128995Y-76685906D01*
G75*
G02*
X118524744Y-77141241I-529793J74458D01*
G01*
X118524744Y-77141241D01*
G75*
G02*
X118069409Y-76536990I74458J529793D01*
G01*
G37*
G36*
G01*
X116811769Y-76360240D02*
X116913365Y-75637344D01*
G75*
G02*
X117517616Y-75182009I529793J-74458D01*
G01*
X117517616Y-75182009D01*
G75*
G02*
X117972951Y-75786260I-74458J-529793D01*
G01*
X117871355Y-76509156D01*
G75*
G02*
X117267104Y-76964491I-529793J74458D01*
G01*
X117267104Y-76964491D01*
G75*
G02*
X116811769Y-76360240I74458J529793D01*
G01*
G37*
G36*
G01*
X115554128Y-76183490D02*
X115655724Y-75460594D01*
G75*
G02*
X116259975Y-75005259I529793J-74458D01*
G01*
X116259975Y-75005259D01*
G75*
G02*
X116715310Y-75609510I-74458J-529793D01*
G01*
X116613714Y-76332406D01*
G75*
G02*
X116009463Y-76787741I-529793J74458D01*
G01*
X116009463Y-76787741D01*
G75*
G02*
X115554128Y-76183490I74458J529793D01*
G01*
G37*
G36*
X114222030Y-76536534D02*
G01*
X114472541Y-74754051D01*
X115532128Y-74902966D01*
X115281617Y-76685449D01*
X114222030Y-76536534D01*
G37*
%TD*%
%TO.C,D18*%
G36*
G01*
X121279992Y-79761817D02*
X121974264Y-79536235D01*
G75*
G02*
X122648403Y-79879726I165324J-508815D01*
G01*
X122648403Y-79879726D01*
G75*
G02*
X122304912Y-80553865I-508815J-165324D01*
G01*
X121610640Y-80779447D01*
G75*
G02*
X120936501Y-80435956I-165324J508815D01*
G01*
X120936501Y-80435956D01*
G75*
G02*
X121279992Y-79761817I508815J165324D01*
G01*
G37*
G36*
G01*
X120887540Y-78553976D02*
X121581812Y-78328394D01*
G75*
G02*
X122255951Y-78671885I165324J-508815D01*
G01*
X122255951Y-78671885D01*
G75*
G02*
X121912460Y-79346024I-508815J-165324D01*
G01*
X121218188Y-79571606D01*
G75*
G02*
X120544049Y-79228115I-165324J508815D01*
G01*
X120544049Y-79228115D01*
G75*
G02*
X120887540Y-78553976I508815J165324D01*
G01*
G37*
G36*
G01*
X120495089Y-77346134D02*
X121189361Y-77120552D01*
G75*
G02*
X121863500Y-77464043I165324J-508815D01*
G01*
X121863500Y-77464043D01*
G75*
G02*
X121520009Y-78138182I-508815J-165324D01*
G01*
X120825737Y-78363764D01*
G75*
G02*
X120151598Y-78020273I-165324J508815D01*
G01*
X120151598Y-78020273D01*
G75*
G02*
X120495089Y-77346134I508815J165324D01*
G01*
G37*
G36*
X119593822Y-76303616D02*
G01*
X121305724Y-75747385D01*
X121636372Y-76765016D01*
X119924470Y-77321247D01*
X119593822Y-76303616D01*
G37*
%TD*%
%TO.C,D17*%
G36*
G01*
X117831297Y-83415799D02*
X118338397Y-83940917D01*
G75*
G02*
X118325192Y-84697406I-384847J-371642D01*
G01*
X118325192Y-84697406D01*
G75*
G02*
X117568703Y-84684201I-371642J384847D01*
G01*
X117061603Y-84159083D01*
G75*
G02*
X117074808Y-83402594I384847J371642D01*
G01*
X117074808Y-83402594D01*
G75*
G02*
X117831297Y-83415799I371642J-384847D01*
G01*
G37*
G36*
G01*
X118744859Y-82533583D02*
X119251959Y-83058701D01*
G75*
G02*
X119238754Y-83815190I-384847J-371642D01*
G01*
X119238754Y-83815190D01*
G75*
G02*
X118482265Y-83801985I-371642J384847D01*
G01*
X117975165Y-83276867D01*
G75*
G02*
X117988370Y-82520378I384847J371642D01*
G01*
X117988370Y-82520378D01*
G75*
G02*
X118744859Y-82533583I371642J-384847D01*
G01*
G37*
G36*
G01*
X119658420Y-81651367D02*
X120165520Y-82176485D01*
G75*
G02*
X120152315Y-82932974I-384847J-371642D01*
G01*
X120152315Y-82932974D01*
G75*
G02*
X119395826Y-82919769I-371642J384847D01*
G01*
X118888726Y-82394651D01*
G75*
G02*
X118901931Y-81638162I384847J371642D01*
G01*
X118901931Y-81638162D01*
G75*
G02*
X119658420Y-81651367I371642J-384847D01*
G01*
G37*
G36*
X120200339Y-80384304D02*
G01*
X121450724Y-81679116D01*
X120681031Y-82422400D01*
X119430646Y-81127588D01*
X120200339Y-80384304D01*
G37*
%TD*%
%TO.C,D16*%
G36*
G01*
X110883285Y-91544077D02*
X111577557Y-91769659D01*
G75*
G02*
X111921048Y-92443798I-165324J-508815D01*
G01*
X111921048Y-92443798D01*
G75*
G02*
X111246909Y-92787289I-508815J165324D01*
G01*
X110552637Y-92561707D01*
G75*
G02*
X110209146Y-91887568I165324J508815D01*
G01*
X110209146Y-91887568D01*
G75*
G02*
X110883285Y-91544077I508815J-165324D01*
G01*
G37*
G36*
G01*
X111275737Y-90336236D02*
X111970009Y-90561818D01*
G75*
G02*
X112313500Y-91235957I-165324J-508815D01*
G01*
X112313500Y-91235957D01*
G75*
G02*
X111639361Y-91579448I-508815J165324D01*
G01*
X110945089Y-91353866D01*
G75*
G02*
X110601598Y-90679727I165324J508815D01*
G01*
X110601598Y-90679727D01*
G75*
G02*
X111275737Y-90336236I508815J-165324D01*
G01*
G37*
G36*
G01*
X111668188Y-89128394D02*
X112362460Y-89353976D01*
G75*
G02*
X112705951Y-90028115I-165324J-508815D01*
G01*
X112705951Y-90028115D01*
G75*
G02*
X112031812Y-90371606I-508815J165324D01*
G01*
X111337540Y-90146024D01*
G75*
G02*
X110994049Y-89471885I165324J508815D01*
G01*
X110994049Y-89471885D01*
G75*
G02*
X111668188Y-89128394I508815J-165324D01*
G01*
G37*
G36*
X111551825Y-87755227D02*
G01*
X113263727Y-88311458D01*
X112933079Y-89329089D01*
X111221177Y-88772858D01*
X111551825Y-87755227D01*
G37*
%TD*%
%TO.C,D15*%
G36*
G01*
X112947643Y-102136510D02*
X113666553Y-102009746D01*
G75*
G02*
X114286327Y-102443716I92902J-526872D01*
G01*
X114286327Y-102443716D01*
G75*
G02*
X113852357Y-103063490I-526872J-92902D01*
G01*
X113133447Y-103190254D01*
G75*
G02*
X112513673Y-102756284I-92902J526872D01*
G01*
X112513673Y-102756284D01*
G75*
G02*
X112947643Y-102136510I526872J92902D01*
G01*
G37*
G36*
G01*
X112727109Y-100885804D02*
X113446019Y-100759040D01*
G75*
G02*
X114065793Y-101193010I92902J-526872D01*
G01*
X114065793Y-101193010D01*
G75*
G02*
X113631823Y-101812784I-526872J-92902D01*
G01*
X112912913Y-101939548D01*
G75*
G02*
X112293139Y-101505578I-92902J526872D01*
G01*
X112293139Y-101505578D01*
G75*
G02*
X112727109Y-100885804I526872J92902D01*
G01*
G37*
G36*
G01*
X112506576Y-99635098D02*
X113225486Y-99508334D01*
G75*
G02*
X113845260Y-99942304I92902J-526872D01*
G01*
X113845260Y-99942304D01*
G75*
G02*
X113411290Y-100562078I-526872J-92902D01*
G01*
X112692380Y-100688842D01*
G75*
G02*
X112072606Y-100254872I-92902J526872D01*
G01*
X112072606Y-100254872D01*
G75*
G02*
X112506576Y-99635098I526872J92902D01*
G01*
G37*
G36*
X111759171Y-98477293D02*
G01*
X113531825Y-98164726D01*
X113717629Y-99218471D01*
X111944975Y-99531038D01*
X111759171Y-98477293D01*
G37*
%TD*%
%TO.C,D14*%
G36*
G01*
X110935927Y-106229706D02*
X111365011Y-106820288D01*
G75*
G02*
X111246652Y-107567577I-432824J-314465D01*
G01*
X111246652Y-107567577D01*
G75*
G02*
X110499363Y-107449218I-314465J432824D01*
G01*
X110070279Y-106858636D01*
G75*
G02*
X110188638Y-106111347I432824J314465D01*
G01*
X110188638Y-106111347D01*
G75*
G02*
X110935927Y-106229706I314465J-432824D01*
G01*
G37*
G36*
G01*
X111963379Y-105483219D02*
X112392463Y-106073801D01*
G75*
G02*
X112274104Y-106821090I-432824J-314465D01*
G01*
X112274104Y-106821090D01*
G75*
G02*
X111526815Y-106702731I-314465J432824D01*
G01*
X111097731Y-106112149D01*
G75*
G02*
X111216090Y-105364860I432824J314465D01*
G01*
X111216090Y-105364860D01*
G75*
G02*
X111963379Y-105483219I314465J-432824D01*
G01*
G37*
G36*
G01*
X112990830Y-104736731D02*
X113419914Y-105327313D01*
G75*
G02*
X113301555Y-106074602I-432824J-314465D01*
G01*
X113301555Y-106074602D01*
G75*
G02*
X112554266Y-105956243I-314465J432824D01*
G01*
X112125182Y-105365661D01*
G75*
G02*
X112243541Y-104618372I432824J314465D01*
G01*
X112243541Y-104618372D01*
G75*
G02*
X112990830Y-104736731I314465J-432824D01*
G01*
G37*
G36*
X113703817Y-103557420D02*
G01*
X114761831Y-105013650D01*
X113896183Y-105642580D01*
X112838169Y-104186350D01*
X113703817Y-103557420D01*
G37*
%TD*%
%TO.C,D13*%
G36*
G01*
X106243734Y-103978891D02*
X105901020Y-104623443D01*
G75*
G02*
X105177476Y-104844653I-472377J251167D01*
G01*
X105177476Y-104844653D01*
G75*
G02*
X104956266Y-104121109I251167J472377D01*
G01*
X105298980Y-103476557D01*
G75*
G02*
X106022524Y-103255347I472377J-251167D01*
G01*
X106022524Y-103255347D01*
G75*
G02*
X106243734Y-103978891I-251167J-472377D01*
G01*
G37*
G36*
G01*
X107365077Y-104575120D02*
X107022363Y-105219672D01*
G75*
G02*
X106298819Y-105440882I-472377J251167D01*
G01*
X106298819Y-105440882D01*
G75*
G02*
X106077609Y-104717338I251167J472377D01*
G01*
X106420323Y-104072786D01*
G75*
G02*
X107143867Y-103851576I472377J-251167D01*
G01*
X107143867Y-103851576D01*
G75*
G02*
X107365077Y-104575120I-251167J-472377D01*
G01*
G37*
G36*
G01*
X108486421Y-105171349D02*
X108143707Y-105815901D01*
G75*
G02*
X107420163Y-106037111I-472377J251167D01*
G01*
X107420163Y-106037111D01*
G75*
G02*
X107198953Y-105313567I251167J472377D01*
G01*
X107541667Y-104669015D01*
G75*
G02*
X108265211Y-104447805I472377J-251167D01*
G01*
X108265211Y-104447805D01*
G75*
G02*
X108486421Y-105171349I-251167J-472377D01*
G01*
G37*
G36*
X109858931Y-105295201D02*
G01*
X109013883Y-106884507D01*
X108069129Y-106382173D01*
X108914177Y-104792867D01*
X109858931Y-105295201D01*
G37*
%TD*%
%TO.C,D8*%
G36*
G01*
X84035105Y-88872499D02*
X83340833Y-89098081D01*
G75*
G02*
X82666694Y-88754590I-165324J508815D01*
G01*
X82666694Y-88754590D01*
G75*
G02*
X83010185Y-88080451I508815J165324D01*
G01*
X83704457Y-87854869D01*
G75*
G02*
X84378596Y-88198360I165324J-508815D01*
G01*
X84378596Y-88198360D01*
G75*
G02*
X84035105Y-88872499I-508815J-165324D01*
G01*
G37*
G36*
G01*
X84427557Y-90080340D02*
X83733285Y-90305922D01*
G75*
G02*
X83059146Y-89962431I-165324J508815D01*
G01*
X83059146Y-89962431D01*
G75*
G02*
X83402637Y-89288292I508815J165324D01*
G01*
X84096909Y-89062710D01*
G75*
G02*
X84771048Y-89406201I165324J-508815D01*
G01*
X84771048Y-89406201D01*
G75*
G02*
X84427557Y-90080340I-508815J-165324D01*
G01*
G37*
G36*
G01*
X84820008Y-91288182D02*
X84125736Y-91513764D01*
G75*
G02*
X83451597Y-91170273I-165324J508815D01*
G01*
X83451597Y-91170273D01*
G75*
G02*
X83795088Y-90496134I508815J165324D01*
G01*
X84489360Y-90270552D01*
G75*
G02*
X85163499Y-90614043I165324J-508815D01*
G01*
X85163499Y-90614043D01*
G75*
G02*
X84820008Y-91288182I-508815J-165324D01*
G01*
G37*
G36*
X85721275Y-92330700D02*
G01*
X84009373Y-92886931D01*
X83678725Y-91869300D01*
X85390627Y-91313069D01*
X85721275Y-92330700D01*
G37*
%TD*%
%TO.C,D9*%
G36*
G01*
X83266553Y-99240254D02*
X82547643Y-99113490D01*
G75*
G02*
X82113673Y-98493716I92902J526872D01*
G01*
X82113673Y-98493716D01*
G75*
G02*
X82733447Y-98059746I526872J-92902D01*
G01*
X83452357Y-98186510D01*
G75*
G02*
X83886327Y-98806284I-92902J-526872D01*
G01*
X83886327Y-98806284D01*
G75*
G02*
X83266553Y-99240254I-526872J92902D01*
G01*
G37*
G36*
G01*
X83046019Y-100490960D02*
X82327109Y-100364196D01*
G75*
G02*
X81893139Y-99744422I92902J526872D01*
G01*
X81893139Y-99744422D01*
G75*
G02*
X82512913Y-99310452I526872J-92902D01*
G01*
X83231823Y-99437216D01*
G75*
G02*
X83665793Y-100056990I-92902J-526872D01*
G01*
X83665793Y-100056990D01*
G75*
G02*
X83046019Y-100490960I-526872J92902D01*
G01*
G37*
G36*
G01*
X82825486Y-101741666D02*
X82106576Y-101614902D01*
G75*
G02*
X81672606Y-100995128I92902J526872D01*
G01*
X81672606Y-100995128D01*
G75*
G02*
X82292380Y-100561158I526872J-92902D01*
G01*
X83011290Y-100687922D01*
G75*
G02*
X83445260Y-101307696I-92902J-526872D01*
G01*
X83445260Y-101307696D01*
G75*
G02*
X82825486Y-101741666I-526872J92902D01*
G01*
G37*
G36*
X83131825Y-103085274D02*
G01*
X81359171Y-102772707D01*
X81544975Y-101718962D01*
X83317629Y-102031529D01*
X83131825Y-103085274D01*
G37*
%TD*%
%TO.C,D10*%
G36*
G01*
X82619914Y-104472687D02*
X82190830Y-105063269D01*
G75*
G02*
X81443541Y-105181628I-432824J314465D01*
G01*
X81443541Y-105181628D01*
G75*
G02*
X81325182Y-104434339I314465J432824D01*
G01*
X81754266Y-103843757D01*
G75*
G02*
X82501555Y-103725398I432824J-314465D01*
G01*
X82501555Y-103725398D01*
G75*
G02*
X82619914Y-104472687I-314465J-432824D01*
G01*
G37*
G36*
G01*
X83647366Y-105219174D02*
X83218282Y-105809756D01*
G75*
G02*
X82470993Y-105928115I-432824J314465D01*
G01*
X82470993Y-105928115D01*
G75*
G02*
X82352634Y-105180826I314465J432824D01*
G01*
X82781718Y-104590244D01*
G75*
G02*
X83529007Y-104471885I432824J-314465D01*
G01*
X83529007Y-104471885D01*
G75*
G02*
X83647366Y-105219174I-314465J-432824D01*
G01*
G37*
G36*
G01*
X84674817Y-105965662D02*
X84245733Y-106556244D01*
G75*
G02*
X83498444Y-106674603I-432824J314465D01*
G01*
X83498444Y-106674603D01*
G75*
G02*
X83380085Y-105927314I314465J432824D01*
G01*
X83809169Y-105336732D01*
G75*
G02*
X84556458Y-105218373I432824J-314465D01*
G01*
X84556458Y-105218373D01*
G75*
G02*
X84674817Y-105965662I-314465J-432824D01*
G01*
G37*
G36*
X86016734Y-106279325D02*
G01*
X84958720Y-107735555D01*
X84093072Y-107106625D01*
X85151086Y-105650395D01*
X86016734Y-106279325D01*
G37*
%TD*%
%TO.C,D11*%
G36*
G01*
X87229677Y-105122786D02*
X87572391Y-105767338D01*
G75*
G02*
X87351181Y-106490882I-472377J-251167D01*
G01*
X87351181Y-106490882D01*
G75*
G02*
X86627637Y-106269672I-251167J472377D01*
G01*
X86284923Y-105625120D01*
G75*
G02*
X86506133Y-104901576I472377J251167D01*
G01*
X86506133Y-104901576D01*
G75*
G02*
X87229677Y-105122786I251167J-472377D01*
G01*
G37*
G36*
G01*
X88351020Y-104526557D02*
X88693734Y-105171109D01*
G75*
G02*
X88472524Y-105894653I-472377J-251167D01*
G01*
X88472524Y-105894653D01*
G75*
G02*
X87748980Y-105673443I-251167J472377D01*
G01*
X87406266Y-105028891D01*
G75*
G02*
X87627476Y-104305347I472377J251167D01*
G01*
X87627476Y-104305347D01*
G75*
G02*
X88351020Y-104526557I251167J-472377D01*
G01*
G37*
G36*
G01*
X89472364Y-103930328D02*
X89815078Y-104574880D01*
G75*
G02*
X89593868Y-105298424I-472377J-251167D01*
G01*
X89593868Y-105298424D01*
G75*
G02*
X88870324Y-105077214I-251167J472377D01*
G01*
X88527610Y-104432662D01*
G75*
G02*
X88748820Y-103709118I472377J251167D01*
G01*
X88748820Y-103709118D01*
G75*
G02*
X89472364Y-103930328I251167J-472377D01*
G01*
G37*
G36*
X90342540Y-102861722D02*
G01*
X91187588Y-104451028D01*
X90242834Y-104953362D01*
X89397786Y-103364056D01*
X90342540Y-102861722D01*
G37*
%TD*%
D16*
%TO.C,J1*%
X99240000Y-67500000D03*
D17*
X96700000Y-67500000D03*
%TD*%
D18*
%TO.C,U1*%
X102900000Y-100950000D03*
X100900000Y-100950000D03*
X98900000Y-100950000D03*
X96900000Y-100950000D03*
X94900000Y-100950000D03*
X92900000Y-100950000D03*
D19*
X105610000Y-85250000D03*
X105610000Y-87250000D03*
X105610000Y-89250000D03*
X105610000Y-91250000D03*
X105610000Y-93250000D03*
X105610000Y-95250000D03*
X105610000Y-97250000D03*
X105610000Y-99250000D03*
X90210000Y-99250000D03*
X90210000Y-97250000D03*
X90210000Y-95250000D03*
X90210000Y-93250000D03*
X90210000Y-91250000D03*
X90210000Y-89250000D03*
X90210000Y-87250000D03*
X90210000Y-85250000D03*
%TD*%
D20*
%TO.C,REF\u002A\u002A*%
X97900000Y-63700000D03*
%TD*%
D21*
%TO.C,SW2*%
X109300000Y-99200000D03*
X109300000Y-93800000D03*
%TD*%
%TO.C,SW1*%
X86500000Y-99200000D03*
X86500000Y-93800000D03*
%TD*%
D22*
%TO.C,R3*%
X112000000Y-78380000D03*
D23*
X112000000Y-86000000D03*
%TD*%
D22*
%TO.C,R2*%
X83900000Y-78380000D03*
D23*
X83900000Y-86000000D03*
%TD*%
D22*
%TO.C,R1*%
X81600000Y-78380000D03*
D23*
X81600000Y-86000000D03*
%TD*%
D24*
%TO.C,C5*%
X108000000Y-102000000D03*
X105500000Y-102000000D03*
%TD*%
%TO.C,C4*%
X86000000Y-102000000D03*
X88500000Y-102000000D03*
%TD*%
%TO.C,C3*%
X100600000Y-73500000D03*
X100600000Y-71000000D03*
%TD*%
%TO.C,C2*%
X116000000Y-78800000D03*
D25*
X116000000Y-81300000D03*
%TD*%
D24*
%TO.C,C1*%
X96000000Y-73500000D03*
D25*
X96000000Y-71000000D03*
%TD*%
M02*
